G04 EAGLE Gerber X2 export*
%TF.Part,Single*%
%TF.FileFunction,Copper,L2,Bot,Mixed*%
%TF.FilePolarity,Positive*%
%TF.GenerationSoftware,Autodesk,EAGLE,9.0.0*%
%TF.CreationDate,2018-05-04T17:55:18Z*%
G75*
%MOMM*%
%FSLAX34Y34*%
%LPD*%
%AMOC8*
5,1,8,0,0,1.08239X$1,22.5*%
G01*
%ADD10R,7.620000X4.445000*%
%ADD11R,4.445000X3.810000*%
%ADD12C,1.778000*%
%ADD13C,2.540000*%
%ADD14C,2.250000*%
%ADD15C,1.879600*%
%ADD16C,1.727200*%
%ADD17C,2.000000*%
%ADD18C,1.828800*%
%ADD19C,1.006400*%
%ADD20C,0.254000*%
%ADD21C,0.304800*%
%ADD22C,0.406400*%
%ADD23C,0.756400*%
%ADD24R,1.006400X1.006400*%
%ADD25C,0.609600*%
%ADD26C,0.906400*%

G36*
X63899Y-1648D02*
X63899Y-1648D01*
X63917Y-1650D01*
X64099Y-1628D01*
X64282Y-1610D01*
X64299Y-1605D01*
X64316Y-1603D01*
X64491Y-1546D01*
X64667Y-1492D01*
X64682Y-1484D01*
X64699Y-1478D01*
X64859Y-1388D01*
X65021Y-1300D01*
X65034Y-1289D01*
X65050Y-1280D01*
X65189Y-1160D01*
X65330Y-1043D01*
X65341Y-1029D01*
X65355Y-1017D01*
X65467Y-872D01*
X65582Y-729D01*
X65590Y-713D01*
X65601Y-699D01*
X65683Y-534D01*
X65768Y-371D01*
X65773Y-354D01*
X65781Y-338D01*
X65828Y-160D01*
X65879Y15D01*
X65881Y33D01*
X65885Y50D01*
X65912Y381D01*
X65912Y11448D01*
X66236Y11397D01*
X67986Y10829D01*
X69624Y9994D01*
X71112Y8913D01*
X72413Y7612D01*
X73494Y6124D01*
X73504Y6103D01*
X73575Y5993D01*
X73638Y5878D01*
X73683Y5824D01*
X73722Y5764D01*
X73813Y5670D01*
X73897Y5570D01*
X73953Y5526D01*
X74002Y5475D01*
X74110Y5401D01*
X74212Y5319D01*
X74275Y5287D01*
X74333Y5246D01*
X74454Y5195D01*
X74570Y5135D01*
X74638Y5116D01*
X74703Y5088D01*
X74832Y5061D01*
X74957Y5026D01*
X75028Y5020D01*
X75098Y5006D01*
X75229Y5005D01*
X75359Y4994D01*
X75429Y5003D01*
X75500Y5002D01*
X75629Y5027D01*
X75758Y5043D01*
X75826Y5065D01*
X75895Y5079D01*
X76017Y5129D01*
X76141Y5170D01*
X76202Y5205D01*
X76268Y5232D01*
X76377Y5304D01*
X76490Y5369D01*
X76544Y5416D01*
X76603Y5455D01*
X76695Y5548D01*
X76794Y5634D01*
X76837Y5690D01*
X76887Y5740D01*
X76960Y5849D01*
X77039Y5953D01*
X77077Y6026D01*
X77110Y6075D01*
X77139Y6146D01*
X77191Y6248D01*
X77702Y7482D01*
X81418Y11198D01*
X86273Y13209D01*
X87014Y13209D01*
X87040Y13211D01*
X87067Y13209D01*
X87241Y13231D01*
X87414Y13249D01*
X87440Y13256D01*
X87466Y13260D01*
X87632Y13315D01*
X87799Y13367D01*
X87823Y13380D01*
X87848Y13388D01*
X88000Y13475D01*
X88153Y13559D01*
X88174Y13576D01*
X88197Y13589D01*
X88450Y13804D01*
X114466Y39820D01*
X114483Y39841D01*
X114504Y39858D01*
X114611Y39996D01*
X114721Y40132D01*
X114734Y40155D01*
X114750Y40176D01*
X114828Y40333D01*
X114910Y40487D01*
X114918Y40513D01*
X114930Y40537D01*
X114975Y40706D01*
X115025Y40873D01*
X115027Y40900D01*
X115034Y40926D01*
X115061Y41256D01*
X115061Y55383D01*
X115059Y55409D01*
X115061Y55436D01*
X115039Y55610D01*
X115021Y55783D01*
X115014Y55809D01*
X115010Y55835D01*
X114955Y56001D01*
X114903Y56168D01*
X114890Y56192D01*
X114882Y56217D01*
X114795Y56369D01*
X114711Y56522D01*
X114694Y56543D01*
X114681Y56566D01*
X114466Y56819D01*
X112938Y58347D01*
X111553Y61690D01*
X111553Y65310D01*
X112938Y68653D01*
X114720Y70435D01*
X114737Y70456D01*
X114758Y70473D01*
X114865Y70611D01*
X114975Y70747D01*
X114988Y70770D01*
X115004Y70791D01*
X115082Y70948D01*
X115164Y71102D01*
X115172Y71128D01*
X115184Y71152D01*
X115229Y71321D01*
X115279Y71488D01*
X115281Y71515D01*
X115288Y71541D01*
X115315Y71871D01*
X115315Y96311D01*
X116127Y98272D01*
X117628Y99773D01*
X118347Y100070D01*
X118347Y100071D01*
X119589Y100585D01*
X202946Y100585D01*
X202973Y100587D01*
X203000Y100585D01*
X203174Y100607D01*
X203347Y100625D01*
X203373Y100632D01*
X203399Y100636D01*
X203565Y100691D01*
X203732Y100743D01*
X203756Y100756D01*
X203781Y100764D01*
X203933Y100851D01*
X204086Y100935D01*
X204106Y100952D01*
X204130Y100965D01*
X204383Y101180D01*
X205105Y101902D01*
X207989Y103097D01*
X211111Y103097D01*
X213995Y101902D01*
X216202Y99695D01*
X217397Y96811D01*
X217397Y93689D01*
X216202Y90805D01*
X213995Y88598D01*
X211111Y87403D01*
X207989Y87403D01*
X205105Y88598D01*
X204383Y89320D01*
X204362Y89337D01*
X204345Y89358D01*
X204207Y89465D01*
X204071Y89575D01*
X204048Y89588D01*
X204026Y89604D01*
X203870Y89682D01*
X203716Y89764D01*
X203690Y89772D01*
X203666Y89784D01*
X203497Y89829D01*
X203330Y89879D01*
X203303Y89881D01*
X203277Y89888D01*
X202946Y89915D01*
X186282Y89915D01*
X186269Y89914D01*
X186256Y89915D01*
X186069Y89894D01*
X185882Y89875D01*
X185869Y89871D01*
X185856Y89870D01*
X185677Y89813D01*
X185497Y89757D01*
X185485Y89751D01*
X185472Y89747D01*
X185308Y89655D01*
X185143Y89565D01*
X185133Y89557D01*
X185121Y89550D01*
X184977Y89427D01*
X184834Y89308D01*
X184825Y89297D01*
X184815Y89289D01*
X184699Y89140D01*
X184581Y88994D01*
X184575Y88982D01*
X184567Y88972D01*
X184482Y88802D01*
X184396Y88637D01*
X184392Y88624D01*
X184386Y88612D01*
X184336Y88430D01*
X184284Y88250D01*
X184283Y88236D01*
X184280Y88223D01*
X184267Y88037D01*
X184251Y87848D01*
X184253Y87835D01*
X184252Y87822D01*
X184276Y87635D01*
X184298Y87449D01*
X184302Y87436D01*
X184304Y87423D01*
X184406Y87107D01*
X185647Y84111D01*
X185647Y80989D01*
X184452Y78105D01*
X182245Y75898D01*
X179361Y74703D01*
X176239Y74703D01*
X173352Y75899D01*
X173219Y76003D01*
X173083Y76113D01*
X173060Y76126D01*
X173038Y76142D01*
X172882Y76220D01*
X172728Y76302D01*
X172702Y76310D01*
X172678Y76322D01*
X172509Y76367D01*
X172342Y76417D01*
X172315Y76419D01*
X172289Y76426D01*
X171958Y76453D01*
X147828Y76453D01*
X147810Y76451D01*
X147792Y76453D01*
X147610Y76432D01*
X147427Y76413D01*
X147410Y76408D01*
X147393Y76406D01*
X147218Y76349D01*
X147042Y76295D01*
X147027Y76287D01*
X147010Y76281D01*
X146850Y76191D01*
X146688Y76103D01*
X146675Y76092D01*
X146659Y76083D01*
X146520Y75963D01*
X146379Y75846D01*
X146368Y75832D01*
X146354Y75820D01*
X146242Y75675D01*
X146127Y75532D01*
X146119Y75516D01*
X146108Y75502D01*
X146026Y75337D01*
X145941Y75175D01*
X145936Y75158D01*
X145928Y75142D01*
X145881Y74963D01*
X145830Y74788D01*
X145828Y74770D01*
X145824Y74753D01*
X145797Y74422D01*
X145797Y24187D01*
X144869Y21946D01*
X142868Y19946D01*
X139598Y16676D01*
X139593Y16669D01*
X139586Y16664D01*
X139466Y16514D01*
X139343Y16365D01*
X139339Y16357D01*
X139334Y16350D01*
X139245Y16180D01*
X139155Y16009D01*
X139152Y16000D01*
X139148Y15993D01*
X139095Y15808D01*
X139040Y15623D01*
X139039Y15614D01*
X139037Y15606D01*
X139021Y15415D01*
X139003Y15222D01*
X139004Y15213D01*
X139004Y15204D01*
X139026Y15015D01*
X139047Y14822D01*
X139050Y14813D01*
X139051Y14805D01*
X139110Y14623D01*
X139168Y14438D01*
X139173Y14430D01*
X139175Y14422D01*
X139271Y14253D01*
X139363Y14086D01*
X139369Y14079D01*
X139373Y14071D01*
X139499Y13925D01*
X139624Y13779D01*
X139631Y13773D01*
X139637Y13766D01*
X139788Y13649D01*
X139940Y13529D01*
X139948Y13525D01*
X139955Y13520D01*
X140127Y13434D01*
X140299Y13347D01*
X140307Y13344D01*
X140315Y13340D01*
X140501Y13290D01*
X140686Y13239D01*
X140695Y13238D01*
X140704Y13236D01*
X141035Y13209D01*
X142327Y13209D01*
X147182Y11198D01*
X150964Y7416D01*
X150977Y7405D01*
X150989Y7391D01*
X151133Y7277D01*
X151275Y7161D01*
X151291Y7153D01*
X151305Y7142D01*
X151469Y7058D01*
X151631Y6973D01*
X151648Y6968D01*
X151664Y6959D01*
X151841Y6910D01*
X152017Y6858D01*
X152035Y6856D01*
X152052Y6851D01*
X152235Y6838D01*
X152418Y6821D01*
X152436Y6823D01*
X152453Y6822D01*
X152635Y6845D01*
X152818Y6865D01*
X152835Y6870D01*
X152853Y6872D01*
X153026Y6931D01*
X153202Y6986D01*
X153218Y6995D01*
X153234Y7001D01*
X153394Y7093D01*
X153554Y7181D01*
X153568Y7193D01*
X153583Y7202D01*
X153836Y7416D01*
X157618Y11198D01*
X162473Y13209D01*
X167727Y13209D01*
X168367Y12944D01*
X168388Y12937D01*
X168408Y12927D01*
X168581Y12879D01*
X168752Y12827D01*
X168774Y12825D01*
X168796Y12819D01*
X168976Y12806D01*
X169153Y12789D01*
X169175Y12792D01*
X169197Y12790D01*
X169376Y12812D01*
X169553Y12831D01*
X169575Y12837D01*
X169597Y12840D01*
X169767Y12897D01*
X169938Y12951D01*
X169957Y12961D01*
X169979Y12969D01*
X170134Y13058D01*
X170291Y13144D01*
X170308Y13158D01*
X170327Y13169D01*
X170580Y13384D01*
X185476Y28280D01*
X187334Y30138D01*
X189388Y30989D01*
X220364Y30989D01*
X220390Y30991D01*
X220417Y30989D01*
X220591Y31011D01*
X220764Y31029D01*
X220790Y31036D01*
X220816Y31040D01*
X220982Y31095D01*
X221149Y31147D01*
X221173Y31160D01*
X221198Y31168D01*
X221350Y31255D01*
X221503Y31339D01*
X221524Y31356D01*
X221547Y31369D01*
X221800Y31584D01*
X231471Y41254D01*
X231479Y41265D01*
X231489Y41273D01*
X231606Y41420D01*
X231726Y41566D01*
X231732Y41578D01*
X231740Y41588D01*
X231826Y41755D01*
X231914Y41921D01*
X231918Y41934D01*
X231924Y41946D01*
X231975Y42126D01*
X232029Y42307D01*
X232030Y42321D01*
X232034Y42334D01*
X232048Y42519D01*
X232065Y42708D01*
X232064Y42722D01*
X232065Y42735D01*
X232043Y42919D01*
X232022Y43109D01*
X232018Y43121D01*
X232016Y43135D01*
X231958Y43311D01*
X231901Y43492D01*
X231894Y43504D01*
X231890Y43517D01*
X231797Y43680D01*
X231706Y43845D01*
X231697Y43855D01*
X231690Y43867D01*
X231567Y44009D01*
X231445Y44152D01*
X231435Y44160D01*
X231426Y44170D01*
X231277Y44285D01*
X231129Y44401D01*
X231117Y44407D01*
X231107Y44416D01*
X230812Y44567D01*
X227468Y45952D01*
X223752Y49668D01*
X221741Y54523D01*
X221741Y59777D01*
X223752Y64632D01*
X227534Y68414D01*
X227545Y68427D01*
X227559Y68439D01*
X227673Y68583D01*
X227789Y68725D01*
X227797Y68741D01*
X227808Y68755D01*
X227892Y68919D01*
X227977Y69081D01*
X227982Y69098D01*
X227991Y69114D01*
X228040Y69291D01*
X228092Y69467D01*
X228094Y69485D01*
X228099Y69502D01*
X228112Y69685D01*
X228129Y69868D01*
X228127Y69886D01*
X228128Y69903D01*
X228105Y70085D01*
X228085Y70268D01*
X228080Y70285D01*
X228078Y70303D01*
X228019Y70476D01*
X227964Y70652D01*
X227955Y70668D01*
X227949Y70684D01*
X227857Y70844D01*
X227769Y71004D01*
X227757Y71018D01*
X227748Y71033D01*
X227534Y71286D01*
X223752Y75068D01*
X221741Y79923D01*
X221741Y85177D01*
X223752Y90032D01*
X227534Y93814D01*
X227545Y93827D01*
X227559Y93839D01*
X227673Y93983D01*
X227789Y94125D01*
X227797Y94141D01*
X227808Y94155D01*
X227892Y94319D01*
X227977Y94481D01*
X227982Y94498D01*
X227991Y94514D01*
X228040Y94691D01*
X228092Y94867D01*
X228094Y94885D01*
X228099Y94902D01*
X228112Y95085D01*
X228129Y95268D01*
X228127Y95286D01*
X228128Y95303D01*
X228105Y95484D01*
X228085Y95668D01*
X228080Y95685D01*
X228078Y95703D01*
X228019Y95876D01*
X227964Y96052D01*
X227955Y96068D01*
X227949Y96084D01*
X227857Y96244D01*
X227769Y96404D01*
X227757Y96418D01*
X227748Y96433D01*
X227534Y96686D01*
X223752Y100468D01*
X221741Y105323D01*
X221741Y110577D01*
X223752Y115432D01*
X227534Y119214D01*
X227545Y119227D01*
X227559Y119239D01*
X227673Y119383D01*
X227789Y119525D01*
X227797Y119541D01*
X227808Y119555D01*
X227892Y119719D01*
X227977Y119881D01*
X227982Y119898D01*
X227991Y119914D01*
X228040Y120091D01*
X228092Y120267D01*
X228094Y120285D01*
X228099Y120302D01*
X228112Y120485D01*
X228129Y120668D01*
X228127Y120686D01*
X228128Y120703D01*
X228105Y120885D01*
X228085Y121068D01*
X228080Y121085D01*
X228078Y121103D01*
X228019Y121276D01*
X227964Y121452D01*
X227955Y121468D01*
X227949Y121484D01*
X227857Y121644D01*
X227769Y121804D01*
X227757Y121818D01*
X227748Y121833D01*
X227534Y122086D01*
X223752Y125868D01*
X221741Y130723D01*
X221741Y135977D01*
X223752Y140832D01*
X227534Y144614D01*
X227545Y144627D01*
X227559Y144639D01*
X227673Y144783D01*
X227789Y144925D01*
X227797Y144941D01*
X227808Y144955D01*
X227892Y145119D01*
X227977Y145281D01*
X227982Y145298D01*
X227991Y145314D01*
X228040Y145491D01*
X228092Y145667D01*
X228094Y145685D01*
X228099Y145702D01*
X228112Y145885D01*
X228129Y146068D01*
X228127Y146086D01*
X228128Y146103D01*
X228105Y146285D01*
X228085Y146468D01*
X228080Y146485D01*
X228078Y146503D01*
X228019Y146676D01*
X227964Y146852D01*
X227955Y146868D01*
X227949Y146884D01*
X227857Y147044D01*
X227769Y147204D01*
X227757Y147218D01*
X227748Y147233D01*
X227534Y147486D01*
X223752Y151268D01*
X221741Y156123D01*
X221741Y161377D01*
X223752Y166232D01*
X227534Y170014D01*
X227545Y170027D01*
X227559Y170039D01*
X227673Y170183D01*
X227789Y170325D01*
X227797Y170341D01*
X227808Y170355D01*
X227892Y170519D01*
X227977Y170681D01*
X227982Y170698D01*
X227991Y170714D01*
X228040Y170891D01*
X228092Y171067D01*
X228094Y171085D01*
X228099Y171102D01*
X228112Y171285D01*
X228129Y171468D01*
X228127Y171486D01*
X228128Y171503D01*
X228105Y171685D01*
X228085Y171868D01*
X228080Y171885D01*
X228078Y171903D01*
X228019Y172076D01*
X227964Y172252D01*
X227955Y172268D01*
X227949Y172284D01*
X227857Y172444D01*
X227769Y172604D01*
X227757Y172618D01*
X227748Y172633D01*
X227534Y172886D01*
X223752Y176668D01*
X221741Y181523D01*
X221741Y186777D01*
X223752Y191632D01*
X227468Y195348D01*
X232323Y197359D01*
X237577Y197359D01*
X242432Y195348D01*
X246148Y191632D01*
X248159Y186777D01*
X248159Y181523D01*
X246148Y176668D01*
X242366Y172886D01*
X242355Y172872D01*
X242341Y172861D01*
X242228Y172717D01*
X242111Y172575D01*
X242103Y172559D01*
X242092Y172545D01*
X242008Y172381D01*
X241923Y172219D01*
X241918Y172202D01*
X241909Y172186D01*
X241860Y172009D01*
X241808Y171833D01*
X241806Y171815D01*
X241801Y171798D01*
X241788Y171614D01*
X241771Y171432D01*
X241773Y171414D01*
X241772Y171397D01*
X241795Y171215D01*
X241815Y171032D01*
X241820Y171015D01*
X241822Y170997D01*
X241881Y170823D01*
X241936Y170648D01*
X241945Y170632D01*
X241951Y170616D01*
X242043Y170456D01*
X242131Y170296D01*
X242143Y170282D01*
X242152Y170267D01*
X242366Y170014D01*
X246148Y166232D01*
X248159Y161377D01*
X248159Y156123D01*
X246148Y151268D01*
X242366Y147486D01*
X242355Y147472D01*
X242341Y147461D01*
X242228Y147317D01*
X242111Y147175D01*
X242103Y147159D01*
X242092Y147145D01*
X242008Y146981D01*
X241923Y146819D01*
X241918Y146802D01*
X241909Y146786D01*
X241860Y146609D01*
X241808Y146433D01*
X241806Y146415D01*
X241801Y146398D01*
X241788Y146215D01*
X241771Y146032D01*
X241773Y146014D01*
X241772Y145997D01*
X241795Y145815D01*
X241815Y145632D01*
X241820Y145615D01*
X241822Y145597D01*
X241881Y145423D01*
X241936Y145248D01*
X241945Y145232D01*
X241951Y145216D01*
X242043Y145056D01*
X242131Y144896D01*
X242143Y144882D01*
X242152Y144867D01*
X242366Y144614D01*
X246148Y140832D01*
X248159Y135977D01*
X248159Y130723D01*
X246148Y125868D01*
X242366Y122086D01*
X242355Y122072D01*
X242341Y122061D01*
X242228Y121917D01*
X242111Y121775D01*
X242103Y121759D01*
X242092Y121745D01*
X242008Y121581D01*
X241923Y121419D01*
X241918Y121402D01*
X241909Y121386D01*
X241860Y121209D01*
X241808Y121033D01*
X241806Y121015D01*
X241801Y120998D01*
X241788Y120815D01*
X241771Y120632D01*
X241773Y120614D01*
X241772Y120597D01*
X241795Y120415D01*
X241815Y120232D01*
X241820Y120215D01*
X241822Y120197D01*
X241881Y120023D01*
X241936Y119848D01*
X241945Y119832D01*
X241951Y119816D01*
X242043Y119656D01*
X242131Y119496D01*
X242143Y119482D01*
X242152Y119467D01*
X242366Y119214D01*
X246148Y115432D01*
X248159Y110577D01*
X248159Y105323D01*
X246148Y100468D01*
X242366Y96686D01*
X242355Y96672D01*
X242341Y96661D01*
X242228Y96517D01*
X242111Y96375D01*
X242103Y96359D01*
X242092Y96345D01*
X242008Y96181D01*
X241923Y96019D01*
X241918Y96002D01*
X241909Y95986D01*
X241860Y95809D01*
X241808Y95633D01*
X241806Y95615D01*
X241801Y95598D01*
X241788Y95415D01*
X241771Y95232D01*
X241773Y95214D01*
X241772Y95197D01*
X241795Y95015D01*
X241815Y94832D01*
X241820Y94815D01*
X241822Y94797D01*
X241881Y94623D01*
X241936Y94448D01*
X241945Y94432D01*
X241951Y94416D01*
X242043Y94256D01*
X242131Y94096D01*
X242143Y94082D01*
X242152Y94067D01*
X242366Y93814D01*
X246148Y90032D01*
X248159Y85177D01*
X248159Y79923D01*
X246148Y75068D01*
X242366Y71286D01*
X242355Y71272D01*
X242341Y71261D01*
X242228Y71117D01*
X242111Y70975D01*
X242103Y70959D01*
X242092Y70945D01*
X242008Y70781D01*
X241923Y70619D01*
X241918Y70602D01*
X241909Y70586D01*
X241860Y70409D01*
X241808Y70233D01*
X241806Y70215D01*
X241801Y70198D01*
X241788Y70015D01*
X241771Y69832D01*
X241773Y69814D01*
X241772Y69797D01*
X241795Y69615D01*
X241815Y69432D01*
X241820Y69415D01*
X241822Y69397D01*
X241881Y69223D01*
X241936Y69048D01*
X241945Y69032D01*
X241951Y69016D01*
X242042Y68857D01*
X242131Y68696D01*
X242143Y68682D01*
X242152Y68667D01*
X242366Y68414D01*
X245107Y65672D01*
X245121Y65661D01*
X245133Y65648D01*
X245277Y65534D01*
X245419Y65417D01*
X245435Y65409D01*
X245449Y65398D01*
X245612Y65315D01*
X245775Y65229D01*
X245792Y65224D01*
X245808Y65216D01*
X245984Y65167D01*
X246161Y65114D01*
X246178Y65112D01*
X246196Y65108D01*
X246379Y65094D01*
X246562Y65078D01*
X246579Y65080D01*
X246597Y65078D01*
X246779Y65101D01*
X246962Y65121D01*
X246979Y65126D01*
X246997Y65129D01*
X247171Y65187D01*
X247346Y65243D01*
X247361Y65251D01*
X247378Y65257D01*
X247538Y65349D01*
X247698Y65437D01*
X247712Y65449D01*
X247727Y65458D01*
X247980Y65673D01*
X248698Y66390D01*
X250191Y67009D01*
X260398Y67009D01*
X260416Y67011D01*
X260434Y67009D01*
X260616Y67030D01*
X260799Y67049D01*
X260816Y67054D01*
X260833Y67056D01*
X261008Y67113D01*
X261184Y67167D01*
X261199Y67175D01*
X261216Y67181D01*
X261376Y67271D01*
X261538Y67359D01*
X261551Y67370D01*
X261567Y67379D01*
X261706Y67499D01*
X261847Y67616D01*
X261858Y67630D01*
X261872Y67642D01*
X261984Y67787D01*
X262099Y67930D01*
X262107Y67946D01*
X262118Y67960D01*
X262200Y68125D01*
X262285Y68287D01*
X262290Y68304D01*
X262298Y68320D01*
X262345Y68499D01*
X262396Y68674D01*
X262398Y68692D01*
X262402Y68709D01*
X262429Y69040D01*
X262429Y71881D01*
X263048Y73374D01*
X264192Y74518D01*
X265685Y75137D01*
X277369Y75137D01*
X277377Y75132D01*
X277557Y75081D01*
X277738Y75026D01*
X277751Y75025D01*
X277764Y75021D01*
X277952Y75006D01*
X278139Y74988D01*
X278152Y74989D01*
X278166Y74988D01*
X278353Y75010D01*
X278539Y75029D01*
X278552Y75033D01*
X278565Y75035D01*
X278744Y75093D01*
X278924Y75149D01*
X278935Y75156D01*
X278948Y75160D01*
X279112Y75252D01*
X279277Y75343D01*
X279287Y75351D01*
X279299Y75358D01*
X279441Y75481D01*
X279585Y75602D01*
X279593Y75612D01*
X279604Y75621D01*
X279719Y75769D01*
X279836Y75916D01*
X279842Y75928D01*
X279850Y75939D01*
X279934Y76108D01*
X280020Y76275D01*
X280024Y76287D01*
X280030Y76300D01*
X280079Y76481D01*
X280130Y76662D01*
X280131Y76675D01*
X280134Y76688D01*
X280161Y77019D01*
X280161Y153512D01*
X281012Y155566D01*
X282870Y157424D01*
X283723Y158277D01*
X283737Y158294D01*
X283754Y158308D01*
X283864Y158449D01*
X283978Y158588D01*
X283988Y158608D01*
X284002Y158625D01*
X284082Y158785D01*
X284167Y158944D01*
X284173Y158965D01*
X284183Y158985D01*
X284230Y159158D01*
X284281Y159330D01*
X284283Y159352D01*
X284289Y159373D01*
X284302Y159552D01*
X284318Y159731D01*
X284315Y159753D01*
X284317Y159775D01*
X284294Y159953D01*
X284274Y160131D01*
X284268Y160152D01*
X284265Y160174D01*
X284163Y160490D01*
X283003Y163291D01*
X283003Y166910D01*
X284388Y170253D01*
X286947Y172812D01*
X290290Y174197D01*
X293910Y174197D01*
X297253Y172812D01*
X299812Y170253D01*
X301197Y166910D01*
X301197Y163290D01*
X299812Y159947D01*
X298479Y158614D01*
X298473Y158607D01*
X298467Y158602D01*
X298345Y158451D01*
X298224Y158303D01*
X298220Y158295D01*
X298214Y158288D01*
X298126Y158118D01*
X298035Y157947D01*
X298033Y157938D01*
X298029Y157931D01*
X297976Y157746D01*
X297921Y157561D01*
X297920Y157552D01*
X297917Y157544D01*
X297902Y157353D01*
X297884Y157160D01*
X297885Y157151D01*
X297884Y157142D01*
X297907Y156953D01*
X297928Y156760D01*
X297930Y156751D01*
X297931Y156743D01*
X297991Y156561D01*
X298049Y156376D01*
X298053Y156368D01*
X298056Y156360D01*
X298150Y156193D01*
X298244Y156024D01*
X298250Y156017D01*
X298254Y156009D01*
X298379Y155864D01*
X298504Y155717D01*
X298511Y155711D01*
X298517Y155704D01*
X298668Y155588D01*
X298820Y155467D01*
X298828Y155463D01*
X298835Y155458D01*
X299007Y155372D01*
X299179Y155285D01*
X299188Y155282D01*
X299196Y155278D01*
X299382Y155228D01*
X299567Y155177D01*
X299576Y155176D01*
X299585Y155174D01*
X299915Y155147D01*
X300260Y155147D01*
X303603Y153762D01*
X306162Y151203D01*
X307547Y147860D01*
X307547Y144240D01*
X306162Y140897D01*
X304829Y139564D01*
X304823Y139557D01*
X304817Y139552D01*
X304695Y139401D01*
X304574Y139253D01*
X304570Y139245D01*
X304564Y139238D01*
X304476Y139068D01*
X304385Y138897D01*
X304383Y138888D01*
X304379Y138881D01*
X304326Y138696D01*
X304271Y138511D01*
X304270Y138502D01*
X304267Y138494D01*
X304252Y138303D01*
X304234Y138110D01*
X304235Y138101D01*
X304234Y138092D01*
X304257Y137903D01*
X304278Y137710D01*
X304280Y137701D01*
X304281Y137693D01*
X304341Y137511D01*
X304399Y137326D01*
X304403Y137318D01*
X304406Y137310D01*
X304500Y137143D01*
X304594Y136974D01*
X304600Y136967D01*
X304604Y136959D01*
X304729Y136814D01*
X304854Y136667D01*
X304861Y136661D01*
X304867Y136654D01*
X305018Y136538D01*
X305170Y136417D01*
X305178Y136413D01*
X305185Y136408D01*
X305357Y136322D01*
X305529Y136235D01*
X305538Y136232D01*
X305546Y136228D01*
X305732Y136178D01*
X305917Y136127D01*
X305926Y136126D01*
X305935Y136124D01*
X306265Y136097D01*
X306610Y136097D01*
X309953Y134712D01*
X312512Y132153D01*
X313897Y128810D01*
X313897Y125190D01*
X312512Y121847D01*
X310984Y120319D01*
X310967Y120298D01*
X310946Y120281D01*
X310839Y120143D01*
X310729Y120007D01*
X310716Y119984D01*
X310700Y119963D01*
X310622Y119806D01*
X310540Y119652D01*
X310532Y119626D01*
X310520Y119602D01*
X310475Y119433D01*
X310425Y119266D01*
X310423Y119239D01*
X310416Y119213D01*
X310389Y118883D01*
X310389Y111541D01*
X310390Y111527D01*
X310389Y111514D01*
X310410Y111328D01*
X310429Y111140D01*
X310433Y111127D01*
X310434Y111114D01*
X310491Y110936D01*
X310547Y110755D01*
X310553Y110743D01*
X310557Y110731D01*
X310649Y110566D01*
X310739Y110401D01*
X310747Y110391D01*
X310754Y110379D01*
X310877Y110235D01*
X310996Y110092D01*
X311007Y110083D01*
X311015Y110073D01*
X311164Y109957D01*
X311310Y109839D01*
X311322Y109833D01*
X311332Y109825D01*
X311502Y109740D01*
X311667Y109654D01*
X311680Y109650D01*
X311692Y109644D01*
X311874Y109594D01*
X312054Y109543D01*
X312068Y109541D01*
X312081Y109538D01*
X312268Y109525D01*
X312456Y109510D01*
X312469Y109511D01*
X312482Y109510D01*
X312670Y109535D01*
X312855Y109557D01*
X312868Y109561D01*
X312881Y109562D01*
X313197Y109664D01*
X315691Y110697D01*
X319310Y110697D01*
X322653Y109312D01*
X325212Y106753D01*
X326597Y103410D01*
X326597Y99791D01*
X326071Y98521D01*
X326042Y98427D01*
X326004Y98335D01*
X325984Y98234D01*
X325954Y98136D01*
X325945Y98037D01*
X325926Y97940D01*
X325926Y97837D01*
X325916Y97735D01*
X325927Y97637D01*
X325927Y97538D01*
X325947Y97437D01*
X325958Y97334D01*
X325987Y97240D01*
X326007Y97143D01*
X326054Y97026D01*
X326078Y96950D01*
X326104Y96903D01*
X326131Y96835D01*
X328296Y92505D01*
X328381Y92370D01*
X328461Y92231D01*
X328491Y92195D01*
X328511Y92165D01*
X328571Y92102D01*
X328575Y92097D01*
X328860Y91409D01*
X328868Y91394D01*
X328874Y91377D01*
X328964Y91216D01*
X329050Y91055D01*
X329061Y91041D01*
X329070Y91025D01*
X329189Y90886D01*
X329306Y90744D01*
X329320Y90733D01*
X329332Y90719D01*
X329476Y90606D01*
X329619Y90490D01*
X329635Y90482D01*
X329649Y90471D01*
X329813Y90389D01*
X329975Y90303D01*
X329993Y90298D01*
X330009Y90290D01*
X330185Y90242D01*
X330362Y90190D01*
X330380Y90189D01*
X330397Y90184D01*
X330581Y90171D01*
X330763Y90156D01*
X330781Y90158D01*
X330799Y90156D01*
X330981Y90180D01*
X331163Y90201D01*
X331180Y90206D01*
X331198Y90209D01*
X331514Y90310D01*
X334741Y91647D01*
X338360Y91647D01*
X341703Y90262D01*
X344262Y87703D01*
X345647Y84360D01*
X345647Y82198D01*
X345649Y82172D01*
X345647Y82145D01*
X345669Y81971D01*
X345687Y81798D01*
X345694Y81772D01*
X345698Y81746D01*
X345753Y81580D01*
X345805Y81413D01*
X345818Y81389D01*
X345826Y81364D01*
X345913Y81212D01*
X345997Y81059D01*
X346014Y81038D01*
X346027Y81015D01*
X346242Y80762D01*
X347638Y79366D01*
X348489Y77312D01*
X348489Y13339D01*
X348491Y13317D01*
X348489Y13295D01*
X348511Y13117D01*
X348529Y12939D01*
X348535Y12917D01*
X348538Y12895D01*
X348594Y12726D01*
X348647Y12554D01*
X348657Y12534D01*
X348664Y12513D01*
X348753Y12357D01*
X348839Y12200D01*
X348853Y12183D01*
X348864Y12163D01*
X348982Y12027D01*
X349096Y11891D01*
X349114Y11877D01*
X349128Y11860D01*
X349270Y11750D01*
X349410Y11638D01*
X349430Y11628D01*
X349448Y11614D01*
X349743Y11463D01*
X350382Y11198D01*
X354164Y7416D01*
X354177Y7405D01*
X354189Y7391D01*
X354333Y7277D01*
X354475Y7161D01*
X354491Y7153D01*
X354505Y7142D01*
X354669Y7058D01*
X354831Y6973D01*
X354848Y6968D01*
X354864Y6959D01*
X355041Y6910D01*
X355217Y6858D01*
X355235Y6856D01*
X355252Y6851D01*
X355435Y6838D01*
X355618Y6821D01*
X355636Y6823D01*
X355653Y6822D01*
X355835Y6845D01*
X356018Y6865D01*
X356035Y6870D01*
X356053Y6872D01*
X356226Y6931D01*
X356402Y6986D01*
X356418Y6995D01*
X356434Y7001D01*
X356594Y7093D01*
X356754Y7181D01*
X356768Y7193D01*
X356783Y7202D01*
X357036Y7416D01*
X360818Y11198D01*
X361457Y11463D01*
X361477Y11473D01*
X361498Y11480D01*
X361654Y11568D01*
X361812Y11653D01*
X361829Y11667D01*
X361849Y11678D01*
X361984Y11795D01*
X362123Y11909D01*
X362137Y11927D01*
X362154Y11941D01*
X362263Y12083D01*
X362376Y12222D01*
X362387Y12242D01*
X362400Y12259D01*
X362480Y12420D01*
X362563Y12578D01*
X362570Y12600D01*
X362580Y12620D01*
X362626Y12794D01*
X362676Y12965D01*
X362678Y12987D01*
X362684Y13009D01*
X362711Y13339D01*
X362711Y13812D01*
X363562Y15866D01*
X384184Y36488D01*
X386238Y37339D01*
X415944Y37339D01*
X415970Y37341D01*
X415997Y37339D01*
X416171Y37361D01*
X416344Y37379D01*
X416370Y37386D01*
X416396Y37390D01*
X416562Y37445D01*
X416729Y37497D01*
X416753Y37510D01*
X416778Y37518D01*
X416930Y37605D01*
X417083Y37689D01*
X417104Y37706D01*
X417127Y37719D01*
X417380Y37934D01*
X419266Y39820D01*
X419283Y39841D01*
X419304Y39858D01*
X419411Y39996D01*
X419521Y40132D01*
X419534Y40155D01*
X419550Y40176D01*
X419628Y40333D01*
X419710Y40487D01*
X419718Y40513D01*
X419730Y40537D01*
X419775Y40706D01*
X419825Y40873D01*
X419827Y40900D01*
X419834Y40926D01*
X419861Y41256D01*
X419861Y147622D01*
X419859Y147640D01*
X419861Y147658D01*
X419840Y147840D01*
X419821Y148023D01*
X419816Y148040D01*
X419814Y148057D01*
X419757Y148232D01*
X419703Y148408D01*
X419695Y148423D01*
X419689Y148440D01*
X419599Y148600D01*
X419511Y148762D01*
X419500Y148775D01*
X419491Y148791D01*
X419371Y148930D01*
X419254Y149071D01*
X419240Y149082D01*
X419228Y149096D01*
X419083Y149208D01*
X418940Y149323D01*
X418924Y149331D01*
X418910Y149342D01*
X418745Y149424D01*
X418583Y149509D01*
X418566Y149514D01*
X418550Y149522D01*
X418371Y149569D01*
X418196Y149620D01*
X418178Y149622D01*
X418161Y149626D01*
X417830Y149653D01*
X417290Y149653D01*
X413947Y151038D01*
X411388Y153597D01*
X410055Y156817D01*
X410053Y156820D01*
X410051Y156825D01*
X409958Y156997D01*
X409864Y157171D01*
X409862Y157175D01*
X409859Y157179D01*
X409735Y157328D01*
X409608Y157482D01*
X409605Y157485D01*
X409602Y157488D01*
X409449Y157611D01*
X409295Y157736D01*
X409291Y157738D01*
X409288Y157740D01*
X409115Y157830D01*
X408939Y157923D01*
X408935Y157924D01*
X408931Y157926D01*
X408742Y157980D01*
X408552Y158036D01*
X408548Y158036D01*
X408544Y158037D01*
X408346Y158054D01*
X408151Y158070D01*
X408147Y158070D01*
X408142Y158070D01*
X407948Y158047D01*
X407751Y158025D01*
X407747Y158024D01*
X407743Y158023D01*
X407557Y157963D01*
X407368Y157902D01*
X407364Y157900D01*
X407360Y157898D01*
X407187Y157801D01*
X407016Y157706D01*
X407013Y157703D01*
X407009Y157701D01*
X406860Y157572D01*
X406711Y157444D01*
X406708Y157440D01*
X406704Y157437D01*
X406584Y157283D01*
X406462Y157127D01*
X406460Y157123D01*
X406458Y157119D01*
X406369Y156941D01*
X406282Y156767D01*
X406280Y156763D01*
X406278Y156759D01*
X406227Y156567D01*
X406175Y156379D01*
X406175Y156374D01*
X406174Y156370D01*
X406147Y156039D01*
X406147Y96509D01*
X406149Y96483D01*
X406147Y96456D01*
X406169Y96282D01*
X406187Y96109D01*
X406194Y96083D01*
X406198Y96057D01*
X406254Y95891D01*
X406305Y95724D01*
X406318Y95700D01*
X406326Y95675D01*
X406413Y95524D01*
X406497Y95370D01*
X406514Y95349D01*
X406527Y95326D01*
X406742Y95073D01*
X407762Y94053D01*
X409147Y90710D01*
X409147Y87090D01*
X407762Y83747D01*
X405203Y81188D01*
X401860Y79803D01*
X398240Y79803D01*
X394897Y81188D01*
X392338Y83747D01*
X390953Y87090D01*
X390953Y90710D01*
X392338Y94053D01*
X393358Y95073D01*
X393375Y95094D01*
X393396Y95111D01*
X393503Y95249D01*
X393613Y95385D01*
X393626Y95408D01*
X393642Y95429D01*
X393720Y95586D01*
X393802Y95740D01*
X393810Y95766D01*
X393822Y95790D01*
X393867Y95959D01*
X393917Y96126D01*
X393919Y96153D01*
X393926Y96179D01*
X393953Y96509D01*
X393953Y251714D01*
X393951Y251732D01*
X393953Y251750D01*
X393932Y251932D01*
X393913Y252115D01*
X393908Y252132D01*
X393906Y252149D01*
X393849Y252324D01*
X393795Y252500D01*
X393787Y252515D01*
X393781Y252532D01*
X393691Y252692D01*
X393603Y252854D01*
X393592Y252867D01*
X393583Y252883D01*
X393463Y253022D01*
X393346Y253163D01*
X393332Y253174D01*
X393320Y253188D01*
X393175Y253300D01*
X393032Y253415D01*
X393016Y253423D01*
X393002Y253434D01*
X392837Y253516D01*
X392675Y253601D01*
X392658Y253606D01*
X392642Y253614D01*
X392463Y253661D01*
X392288Y253712D01*
X392270Y253714D01*
X392253Y253718D01*
X391922Y253745D01*
X391123Y253745D01*
X386362Y255717D01*
X382717Y259362D01*
X380745Y264123D01*
X380745Y268574D01*
X380744Y268588D01*
X380745Y268601D01*
X380724Y268787D01*
X380705Y268975D01*
X380701Y268988D01*
X380700Y269001D01*
X380643Y269179D01*
X380587Y269360D01*
X380581Y269372D01*
X380577Y269384D01*
X380485Y269548D01*
X380395Y269714D01*
X380387Y269724D01*
X380380Y269736D01*
X380258Y269879D01*
X380138Y270023D01*
X380127Y270031D01*
X380119Y270042D01*
X379970Y270158D01*
X379824Y270275D01*
X379812Y270281D01*
X379802Y270290D01*
X379632Y270375D01*
X379467Y270461D01*
X379454Y270464D01*
X379442Y270471D01*
X379259Y270520D01*
X379080Y270572D01*
X379066Y270573D01*
X379053Y270577D01*
X378865Y270590D01*
X378678Y270605D01*
X378665Y270603D01*
X378652Y270604D01*
X378464Y270580D01*
X378279Y270558D01*
X378266Y270554D01*
X378253Y270552D01*
X377937Y270451D01*
X376967Y270049D01*
X373348Y270049D01*
X370005Y271434D01*
X367446Y273993D01*
X366061Y277336D01*
X366061Y280956D01*
X367446Y284299D01*
X370005Y286858D01*
X371772Y287590D01*
X371843Y287628D01*
X371918Y287657D01*
X372020Y287723D01*
X372127Y287780D01*
X372189Y287831D01*
X372257Y287875D01*
X372344Y287959D01*
X372437Y288036D01*
X372488Y288099D01*
X372546Y288155D01*
X372615Y288255D01*
X372691Y288349D01*
X372728Y288420D01*
X372774Y288486D01*
X372838Y288629D01*
X372878Y288705D01*
X372889Y288743D01*
X372910Y288789D01*
X374677Y293786D01*
X374719Y293955D01*
X374765Y294123D01*
X374766Y294151D01*
X374773Y294177D01*
X374780Y294350D01*
X374792Y294525D01*
X374789Y294552D01*
X374790Y294579D01*
X374763Y294751D01*
X374740Y294924D01*
X374731Y294953D01*
X374727Y294977D01*
X374698Y295055D01*
X374639Y295240D01*
X373427Y298165D01*
X373427Y301784D01*
X374812Y305127D01*
X377371Y307686D01*
X380714Y309071D01*
X384334Y309071D01*
X387677Y307686D01*
X390236Y305127D01*
X391621Y301784D01*
X391621Y298164D01*
X390236Y294821D01*
X387677Y292262D01*
X385910Y291530D01*
X385839Y291492D01*
X385764Y291463D01*
X385662Y291397D01*
X385555Y291340D01*
X385493Y291289D01*
X385425Y291245D01*
X385338Y291161D01*
X385245Y291084D01*
X385194Y291021D01*
X385136Y290965D01*
X385067Y290865D01*
X384991Y290771D01*
X384954Y290700D01*
X384908Y290634D01*
X384844Y290491D01*
X384804Y290415D01*
X384793Y290377D01*
X384772Y290331D01*
X383005Y285334D01*
X382963Y285165D01*
X382917Y284997D01*
X382916Y284969D01*
X382909Y284943D01*
X382902Y284770D01*
X382890Y284595D01*
X382893Y284568D01*
X382892Y284541D01*
X382919Y284369D01*
X382942Y284196D01*
X382951Y284167D01*
X382955Y284143D01*
X382984Y284065D01*
X383043Y283880D01*
X384255Y280955D01*
X384255Y279850D01*
X384256Y279836D01*
X384255Y279823D01*
X384276Y279637D01*
X384295Y279449D01*
X384299Y279436D01*
X384300Y279423D01*
X384358Y279244D01*
X384413Y279064D01*
X384419Y279052D01*
X384423Y279040D01*
X384515Y278875D01*
X384605Y278710D01*
X384613Y278700D01*
X384620Y278688D01*
X384742Y278545D01*
X384862Y278401D01*
X384873Y278393D01*
X384881Y278382D01*
X385030Y278266D01*
X385176Y278149D01*
X385188Y278142D01*
X385198Y278134D01*
X385367Y278049D01*
X385533Y277963D01*
X385546Y277959D01*
X385558Y277953D01*
X385740Y277904D01*
X385920Y277852D01*
X385934Y277851D01*
X385947Y277847D01*
X386135Y277834D01*
X386322Y277819D01*
X386335Y277820D01*
X386348Y277819D01*
X386536Y277844D01*
X386721Y277866D01*
X386734Y277870D01*
X386747Y277872D01*
X387063Y277973D01*
X391123Y279655D01*
X396277Y279655D01*
X401038Y277683D01*
X404683Y274038D01*
X405385Y272342D01*
X405447Y272226D01*
X405501Y272107D01*
X405542Y272049D01*
X405575Y271987D01*
X405659Y271886D01*
X405735Y271780D01*
X405787Y271731D01*
X405832Y271676D01*
X405933Y271594D01*
X406029Y271505D01*
X406089Y271467D01*
X406144Y271423D01*
X406260Y271362D01*
X406372Y271293D01*
X406438Y271269D01*
X406501Y271236D01*
X406627Y271199D01*
X406749Y271153D01*
X406819Y271142D01*
X406887Y271123D01*
X407018Y271111D01*
X407147Y271091D01*
X407218Y271094D01*
X407289Y271088D01*
X407418Y271103D01*
X407549Y271108D01*
X407618Y271125D01*
X407689Y271133D01*
X407813Y271173D01*
X407940Y271204D01*
X408004Y271234D01*
X408072Y271256D01*
X408186Y271320D01*
X408304Y271376D01*
X408361Y271418D01*
X408423Y271453D01*
X408523Y271538D01*
X408628Y271616D01*
X408675Y271668D01*
X408729Y271714D01*
X408810Y271817D01*
X408898Y271914D01*
X408941Y271984D01*
X408977Y272031D01*
X409012Y272099D01*
X409072Y272197D01*
X409324Y272691D01*
X410381Y274147D01*
X411653Y275419D01*
X413109Y276476D01*
X414712Y277293D01*
X416423Y277849D01*
X416878Y277921D01*
X416878Y266891D01*
X416880Y266873D01*
X416879Y266855D01*
X416895Y266715D01*
X416878Y266509D01*
X416878Y255479D01*
X416423Y255551D01*
X414712Y256107D01*
X413109Y256924D01*
X411653Y257981D01*
X410381Y259253D01*
X409324Y260709D01*
X409072Y261203D01*
X409001Y261313D01*
X408938Y261428D01*
X408893Y261482D01*
X408854Y261542D01*
X408763Y261636D01*
X408679Y261736D01*
X408624Y261780D01*
X408574Y261831D01*
X408467Y261906D01*
X408364Y261987D01*
X408301Y262019D01*
X408243Y262060D01*
X408123Y262111D01*
X408006Y262171D01*
X407938Y262190D01*
X407873Y262218D01*
X407745Y262245D01*
X407619Y262281D01*
X407548Y262286D01*
X407479Y262301D01*
X407348Y262302D01*
X407217Y262312D01*
X407147Y262303D01*
X407076Y262304D01*
X406948Y262279D01*
X406818Y262263D01*
X406750Y262241D01*
X406681Y262227D01*
X406560Y262178D01*
X406436Y262137D01*
X406374Y262101D01*
X406308Y262075D01*
X406200Y262002D01*
X406086Y261937D01*
X406032Y261891D01*
X405973Y261851D01*
X405881Y261759D01*
X405782Y261673D01*
X405739Y261616D01*
X405689Y261566D01*
X405617Y261457D01*
X405537Y261354D01*
X405499Y261281D01*
X405466Y261231D01*
X405438Y261160D01*
X405385Y261058D01*
X404812Y259675D01*
X404783Y259580D01*
X404745Y259489D01*
X404725Y259388D01*
X404696Y259289D01*
X404686Y259191D01*
X404667Y259094D01*
X404667Y258991D01*
X404657Y258888D01*
X404668Y258790D01*
X404668Y258691D01*
X404688Y258590D01*
X404699Y258488D01*
X404729Y258393D01*
X404748Y258296D01*
X404795Y258180D01*
X404819Y258104D01*
X404845Y258056D01*
X404872Y257989D01*
X404913Y257906D01*
X404999Y257771D01*
X405079Y257631D01*
X405109Y257596D01*
X405128Y257566D01*
X405188Y257503D01*
X405208Y257480D01*
X405572Y256600D01*
X405601Y256546D01*
X405632Y256468D01*
X406062Y255609D01*
X406065Y255590D01*
X406086Y255430D01*
X406100Y255386D01*
X406106Y255351D01*
X406137Y255270D01*
X406147Y255241D01*
X406147Y254288D01*
X406149Y254270D01*
X406147Y254252D01*
X406153Y254206D01*
X406152Y254144D01*
X406220Y253186D01*
X406216Y253167D01*
X406174Y253012D01*
X406170Y252966D01*
X406162Y252931D01*
X406160Y252844D01*
X406147Y252681D01*
X406147Y161461D01*
X406147Y161456D01*
X406147Y161452D01*
X406167Y161258D01*
X406187Y161060D01*
X406188Y161056D01*
X406188Y161051D01*
X406247Y160865D01*
X406305Y160675D01*
X406307Y160671D01*
X406308Y160667D01*
X406402Y160495D01*
X406497Y160321D01*
X406499Y160318D01*
X406502Y160314D01*
X406629Y160163D01*
X406754Y160012D01*
X406758Y160009D01*
X406761Y160006D01*
X406915Y159882D01*
X407068Y159760D01*
X407072Y159757D01*
X407075Y159755D01*
X407250Y159665D01*
X407425Y159574D01*
X407430Y159573D01*
X407434Y159571D01*
X407621Y159518D01*
X407812Y159463D01*
X407817Y159462D01*
X407821Y159461D01*
X408014Y159446D01*
X408214Y159430D01*
X408218Y159430D01*
X408222Y159430D01*
X408416Y159453D01*
X408613Y159477D01*
X408618Y159478D01*
X408622Y159479D01*
X408807Y159540D01*
X408996Y159602D01*
X409000Y159604D01*
X409004Y159605D01*
X409176Y159703D01*
X409347Y159799D01*
X409350Y159802D01*
X409354Y159805D01*
X409505Y159936D01*
X409651Y160063D01*
X409654Y160066D01*
X409658Y160069D01*
X409778Y160226D01*
X409898Y160381D01*
X409900Y160385D01*
X409903Y160388D01*
X410055Y160683D01*
X411388Y163903D01*
X413947Y166462D01*
X416685Y167596D01*
X416701Y167604D01*
X416718Y167610D01*
X416878Y167699D01*
X417040Y167786D01*
X417054Y167797D01*
X417069Y167806D01*
X417208Y167925D01*
X417350Y168042D01*
X417361Y168056D01*
X417375Y168068D01*
X417488Y168213D01*
X417604Y168355D01*
X417612Y168371D01*
X417623Y168385D01*
X417706Y168550D01*
X417791Y168712D01*
X417796Y168729D01*
X417804Y168745D01*
X417853Y168922D01*
X417904Y169098D01*
X417906Y169116D01*
X417910Y169133D01*
X417923Y169317D01*
X417939Y169499D01*
X417937Y169517D01*
X417938Y169535D01*
X417914Y169718D01*
X417894Y169899D01*
X417888Y169916D01*
X417886Y169934D01*
X417784Y170250D01*
X416353Y173704D01*
X416353Y177324D01*
X417738Y180667D01*
X419881Y182809D01*
X419889Y182820D01*
X419899Y182828D01*
X420017Y182975D01*
X420136Y183121D01*
X420142Y183133D01*
X420150Y183143D01*
X420237Y183311D01*
X420324Y183477D01*
X420328Y183489D01*
X420334Y183501D01*
X420386Y183683D01*
X420439Y183862D01*
X420440Y183876D01*
X420444Y183889D01*
X420458Y184075D01*
X420475Y184263D01*
X420474Y184277D01*
X420475Y184290D01*
X420453Y184475D01*
X420432Y184664D01*
X420428Y184677D01*
X420426Y184690D01*
X420368Y184867D01*
X420311Y185048D01*
X420304Y185059D01*
X420300Y185072D01*
X420207Y185235D01*
X420116Y185400D01*
X420107Y185410D01*
X420100Y185422D01*
X419977Y185564D01*
X419855Y185707D01*
X419845Y185715D01*
X419836Y185725D01*
X419686Y185840D01*
X419539Y185956D01*
X419527Y185963D01*
X419517Y185971D01*
X419222Y186122D01*
X416233Y187360D01*
X413674Y189919D01*
X412289Y193262D01*
X412289Y196882D01*
X413674Y200225D01*
X416233Y202784D01*
X418358Y203664D01*
X418359Y203664D01*
X419576Y204169D01*
X423196Y204169D01*
X426624Y202748D01*
X426659Y202720D01*
X426667Y202716D01*
X426674Y202710D01*
X426845Y202621D01*
X427015Y202531D01*
X427023Y202529D01*
X427031Y202525D01*
X427216Y202472D01*
X427400Y202417D01*
X427410Y202416D01*
X427418Y202413D01*
X427609Y202398D01*
X427801Y202380D01*
X427811Y202381D01*
X427820Y202380D01*
X428009Y202403D01*
X428202Y202423D01*
X428210Y202426D01*
X428219Y202427D01*
X428401Y202487D01*
X428586Y202545D01*
X428594Y202549D01*
X428602Y202552D01*
X428770Y202647D01*
X428938Y202740D01*
X428945Y202746D01*
X428953Y202750D01*
X429098Y202876D01*
X429245Y203000D01*
X429251Y203007D01*
X429258Y203013D01*
X429375Y203165D01*
X429495Y203316D01*
X429499Y203324D01*
X429504Y203331D01*
X429590Y203504D01*
X429677Y203675D01*
X429680Y203684D01*
X429684Y203692D01*
X429733Y203876D01*
X429785Y204063D01*
X429786Y204072D01*
X429788Y204081D01*
X429815Y204411D01*
X429815Y206026D01*
X431200Y209369D01*
X433759Y211928D01*
X437102Y213313D01*
X440722Y213313D01*
X444065Y211928D01*
X446624Y209369D01*
X448009Y206026D01*
X448009Y202086D01*
X448011Y202060D01*
X448009Y202033D01*
X448031Y201859D01*
X448049Y201686D01*
X448056Y201660D01*
X448060Y201634D01*
X448115Y201468D01*
X448167Y201301D01*
X448180Y201277D01*
X448188Y201252D01*
X448275Y201100D01*
X448359Y200947D01*
X448376Y200926D01*
X448389Y200903D01*
X448604Y200650D01*
X455588Y193666D01*
X455831Y193078D01*
X455833Y193074D01*
X455835Y193070D01*
X455928Y192897D01*
X456022Y192723D01*
X456024Y192720D01*
X456027Y192716D01*
X456152Y192566D01*
X456278Y192413D01*
X456281Y192410D01*
X456284Y192406D01*
X456438Y192283D01*
X456591Y192159D01*
X456595Y192157D01*
X456598Y192154D01*
X456771Y192064D01*
X456947Y191972D01*
X456952Y191971D01*
X456955Y191969D01*
X457141Y191915D01*
X457333Y191859D01*
X457338Y191858D01*
X457342Y191857D01*
X457539Y191841D01*
X457735Y191824D01*
X457739Y191825D01*
X457744Y191824D01*
X457939Y191847D01*
X458135Y191869D01*
X458139Y191871D01*
X458143Y191871D01*
X458331Y191932D01*
X458518Y191992D01*
X458522Y191995D01*
X458526Y191996D01*
X458699Y192094D01*
X458870Y192189D01*
X458873Y192192D01*
X458877Y192194D01*
X459024Y192321D01*
X459175Y192451D01*
X459178Y192454D01*
X459182Y192457D01*
X459301Y192610D01*
X459424Y192768D01*
X459426Y192772D01*
X459428Y192775D01*
X459515Y192950D01*
X459604Y193127D01*
X459606Y193132D01*
X459608Y193136D01*
X459659Y193326D01*
X459711Y193516D01*
X459711Y193520D01*
X459712Y193525D01*
X459739Y193855D01*
X459739Y230621D01*
X461286Y234356D01*
X464144Y237214D01*
X467879Y238761D01*
X508508Y238761D01*
X508526Y238763D01*
X508544Y238761D01*
X508726Y238782D01*
X508909Y238801D01*
X508926Y238806D01*
X508943Y238808D01*
X509118Y238865D01*
X509294Y238919D01*
X509309Y238927D01*
X509326Y238933D01*
X509486Y239023D01*
X509648Y239111D01*
X509661Y239122D01*
X509677Y239131D01*
X509816Y239251D01*
X509957Y239368D01*
X509968Y239382D01*
X509982Y239394D01*
X510094Y239539D01*
X510209Y239682D01*
X510217Y239698D01*
X510228Y239712D01*
X510310Y239877D01*
X510395Y240039D01*
X510400Y240056D01*
X510408Y240072D01*
X510455Y240251D01*
X510506Y240426D01*
X510508Y240444D01*
X510512Y240461D01*
X510539Y240792D01*
X510539Y414598D01*
X510525Y414744D01*
X510518Y414890D01*
X510505Y414944D01*
X510499Y414999D01*
X510456Y415139D01*
X510421Y415281D01*
X510398Y415331D01*
X510381Y415384D01*
X510312Y415513D01*
X510249Y415645D01*
X510216Y415689D01*
X510189Y415738D01*
X510096Y415850D01*
X510009Y415967D01*
X509967Y416005D01*
X509932Y416047D01*
X509818Y416139D01*
X509709Y416237D01*
X509661Y416265D01*
X509618Y416300D01*
X509488Y416367D01*
X509362Y416441D01*
X509310Y416460D01*
X509261Y416485D01*
X509120Y416525D01*
X508982Y416574D01*
X508927Y416581D01*
X508874Y416596D01*
X508728Y416608D01*
X508583Y416628D01*
X508528Y416625D01*
X508472Y416629D01*
X508327Y416612D01*
X508181Y416603D01*
X508128Y416589D01*
X508073Y416582D01*
X507934Y416537D01*
X507792Y416499D01*
X507735Y416472D01*
X507690Y416458D01*
X507617Y416416D01*
X507492Y416357D01*
X501826Y413086D01*
X495681Y411439D01*
X489319Y411439D01*
X483174Y413086D01*
X477665Y416267D01*
X473167Y420765D01*
X469986Y426274D01*
X468339Y432419D01*
X468339Y438781D01*
X469986Y444926D01*
X473113Y450342D01*
X473173Y450476D01*
X473241Y450605D01*
X473256Y450659D01*
X473279Y450709D01*
X473312Y450852D01*
X473352Y450992D01*
X473357Y451048D01*
X473369Y451102D01*
X473373Y451248D01*
X473385Y451394D01*
X473378Y451449D01*
X473380Y451504D01*
X473355Y451649D01*
X473338Y451793D01*
X473321Y451846D01*
X473311Y451901D01*
X473259Y452037D01*
X473213Y452176D01*
X473186Y452225D01*
X473166Y452276D01*
X473087Y452399D01*
X473015Y452527D01*
X472979Y452569D01*
X472949Y452616D01*
X472848Y452721D01*
X472752Y452832D01*
X472708Y452866D01*
X472670Y452906D01*
X472549Y452989D01*
X472434Y453078D01*
X472384Y453103D01*
X472339Y453135D01*
X472204Y453193D01*
X472074Y453258D01*
X472020Y453272D01*
X471969Y453294D01*
X471826Y453324D01*
X471685Y453362D01*
X471622Y453367D01*
X471575Y453377D01*
X471491Y453378D01*
X471354Y453389D01*
X292100Y453389D01*
X292082Y453387D01*
X292064Y453389D01*
X291882Y453368D01*
X291699Y453349D01*
X291682Y453344D01*
X291665Y453342D01*
X291490Y453285D01*
X291314Y453231D01*
X291299Y453223D01*
X291282Y453217D01*
X291122Y453127D01*
X290960Y453039D01*
X290947Y453028D01*
X290931Y453019D01*
X290792Y452899D01*
X290651Y452782D01*
X290640Y452768D01*
X290627Y452756D01*
X290514Y452611D01*
X290399Y452468D01*
X290391Y452452D01*
X290380Y452438D01*
X290298Y452273D01*
X290213Y452111D01*
X290208Y452094D01*
X290200Y452078D01*
X290153Y451899D01*
X290102Y451724D01*
X290100Y451706D01*
X290096Y451689D01*
X290069Y451358D01*
X290069Y393700D01*
X290084Y393549D01*
X290091Y393398D01*
X290104Y393349D01*
X290109Y393299D01*
X290153Y393154D01*
X290191Y393007D01*
X290212Y392962D01*
X290227Y392914D01*
X290299Y392781D01*
X290365Y392644D01*
X290395Y392604D01*
X290419Y392560D01*
X290516Y392444D01*
X290607Y392323D01*
X290644Y392290D01*
X290676Y392251D01*
X290795Y392156D01*
X290908Y392055D01*
X290956Y392026D01*
X290990Y391999D01*
X291066Y391959D01*
X291192Y391883D01*
X302333Y386313D01*
X301233Y382892D01*
X301206Y382762D01*
X301169Y382636D01*
X301163Y382566D01*
X301149Y382498D01*
X301147Y382366D01*
X301136Y382234D01*
X301144Y382165D01*
X301143Y382095D01*
X301168Y381966D01*
X301183Y381835D01*
X301205Y381768D01*
X301218Y381700D01*
X301267Y381577D01*
X301308Y381452D01*
X301342Y381391D01*
X301368Y381326D01*
X301441Y381216D01*
X301506Y381101D01*
X301551Y381048D01*
X301590Y380990D01*
X301683Y380896D01*
X301769Y380796D01*
X301824Y380754D01*
X301873Y380704D01*
X301983Y380631D01*
X302087Y380550D01*
X302150Y380519D01*
X302208Y380480D01*
X302329Y380429D01*
X302448Y380370D01*
X302515Y380352D01*
X302579Y380326D01*
X302709Y380300D01*
X302836Y380266D01*
X302917Y380259D01*
X302975Y380248D01*
X303051Y380248D01*
X303167Y380239D01*
X321053Y380239D01*
X321079Y380241D01*
X321106Y380239D01*
X321280Y380261D01*
X321454Y380279D01*
X321479Y380286D01*
X321506Y380290D01*
X321671Y380345D01*
X321838Y380397D01*
X321862Y380410D01*
X321887Y380418D01*
X322039Y380505D01*
X322192Y380589D01*
X322213Y380606D01*
X322236Y380619D01*
X322489Y380834D01*
X326858Y385203D01*
X326875Y385224D01*
X326896Y385241D01*
X327003Y385379D01*
X327113Y385514D01*
X327126Y385538D01*
X327142Y385559D01*
X327220Y385716D01*
X327302Y385870D01*
X327310Y385896D01*
X327322Y385920D01*
X327367Y386089D01*
X327417Y386256D01*
X327419Y386283D01*
X327426Y386308D01*
X327453Y386639D01*
X327453Y389160D01*
X328838Y392503D01*
X331397Y395062D01*
X334915Y396519D01*
X334927Y396525D01*
X334939Y396529D01*
X335104Y396620D01*
X335270Y396709D01*
X335280Y396718D01*
X335292Y396724D01*
X335434Y396845D01*
X335580Y396965D01*
X335588Y396976D01*
X335599Y396985D01*
X335715Y397132D01*
X335834Y397278D01*
X335840Y397290D01*
X335848Y397300D01*
X335934Y397469D01*
X336021Y397635D01*
X336024Y397647D01*
X336031Y397659D01*
X336081Y397841D01*
X336134Y398021D01*
X336135Y398034D01*
X336139Y398047D01*
X336152Y398236D01*
X336168Y398422D01*
X336167Y398435D01*
X336168Y398449D01*
X336144Y398637D01*
X336123Y398822D01*
X336119Y398835D01*
X336118Y398848D01*
X336057Y399027D01*
X336000Y399206D01*
X335994Y399217D01*
X335989Y399230D01*
X335896Y399392D01*
X335804Y399557D01*
X335795Y399567D01*
X335788Y399579D01*
X335574Y399832D01*
X332866Y402540D01*
X332842Y402559D01*
X332816Y402587D01*
X332065Y403290D01*
X332062Y403295D01*
X331669Y404243D01*
X331655Y404270D01*
X331642Y404306D01*
X331216Y405243D01*
X331215Y405249D01*
X331215Y406275D01*
X331212Y406306D01*
X331214Y406344D01*
X330995Y412794D01*
X330971Y412980D01*
X330949Y413160D01*
X330947Y413169D01*
X330946Y413178D01*
X330943Y413186D01*
X330942Y413193D01*
X330880Y413373D01*
X330825Y413543D01*
X330820Y413551D01*
X330817Y413560D01*
X330813Y413566D01*
X330811Y413574D01*
X330713Y413741D01*
X330627Y413894D01*
X330621Y413900D01*
X330616Y413909D01*
X330611Y413915D01*
X330607Y413921D01*
X330575Y413957D01*
X330402Y414162D01*
X328330Y416233D01*
X326945Y419576D01*
X326945Y423196D01*
X328330Y426539D01*
X330889Y429098D01*
X330974Y429133D01*
X334232Y430483D01*
X337852Y430483D01*
X341195Y429098D01*
X343754Y426539D01*
X345139Y423196D01*
X345139Y419576D01*
X343754Y416233D01*
X342250Y414729D01*
X342211Y414682D01*
X342167Y414641D01*
X342084Y414527D01*
X341995Y414418D01*
X341967Y414364D01*
X341931Y414314D01*
X341872Y414186D01*
X341807Y414062D01*
X341789Y414004D01*
X341764Y413948D01*
X341732Y413811D01*
X341692Y413676D01*
X341686Y413615D01*
X341672Y413556D01*
X341663Y413358D01*
X341655Y413275D01*
X341658Y413253D01*
X341656Y413224D01*
X341783Y409485D01*
X341809Y409292D01*
X341833Y409101D01*
X341836Y409094D01*
X341837Y409086D01*
X341900Y408903D01*
X341961Y408719D01*
X341965Y408713D01*
X341968Y408705D01*
X342065Y408539D01*
X342162Y408370D01*
X342168Y408364D01*
X342171Y408358D01*
X342203Y408322D01*
X342377Y408117D01*
X351986Y398508D01*
X353773Y396722D01*
X354585Y394761D01*
X354585Y278339D01*
X353773Y276378D01*
X345922Y268527D01*
X345489Y268348D01*
X343961Y267715D01*
X297389Y267715D01*
X295428Y268527D01*
X291707Y272248D01*
X291686Y272265D01*
X291669Y272286D01*
X291531Y272393D01*
X291396Y272503D01*
X291372Y272516D01*
X291351Y272532D01*
X291194Y272610D01*
X291040Y272692D01*
X291014Y272700D01*
X290990Y272712D01*
X290821Y272757D01*
X290654Y272807D01*
X290627Y272809D01*
X290602Y272816D01*
X290271Y272843D01*
X286988Y272843D01*
X283645Y274228D01*
X281086Y276787D01*
X279701Y280130D01*
X279701Y283750D01*
X281086Y287093D01*
X283645Y289652D01*
X286919Y291008D01*
X286988Y291037D01*
X290608Y291037D01*
X293951Y289652D01*
X296510Y287093D01*
X297895Y283750D01*
X297895Y281991D01*
X297897Y281965D01*
X297895Y281938D01*
X297917Y281764D01*
X297935Y281590D01*
X297942Y281565D01*
X297946Y281538D01*
X298001Y281373D01*
X298053Y281206D01*
X298066Y281182D01*
X298074Y281157D01*
X298162Y281005D01*
X298245Y280852D01*
X298262Y280831D01*
X298275Y280808D01*
X298490Y280555D01*
X300065Y278980D01*
X300086Y278963D01*
X300103Y278942D01*
X300241Y278835D01*
X300376Y278725D01*
X300400Y278712D01*
X300421Y278696D01*
X300578Y278618D01*
X300732Y278536D01*
X300758Y278528D01*
X300782Y278516D01*
X300951Y278471D01*
X301118Y278421D01*
X301145Y278419D01*
X301170Y278412D01*
X301501Y278385D01*
X339849Y278385D01*
X339875Y278387D01*
X339902Y278385D01*
X340076Y278407D01*
X340250Y278425D01*
X340275Y278432D01*
X340302Y278436D01*
X340467Y278491D01*
X340634Y278543D01*
X340658Y278556D01*
X340683Y278564D01*
X340835Y278651D01*
X340988Y278735D01*
X341009Y278752D01*
X341032Y278765D01*
X341285Y278980D01*
X343320Y281015D01*
X343337Y281036D01*
X343358Y281053D01*
X343465Y281191D01*
X343575Y281326D01*
X343588Y281350D01*
X343604Y281371D01*
X343682Y281528D01*
X343764Y281682D01*
X343772Y281708D01*
X343784Y281732D01*
X343829Y281901D01*
X343879Y282068D01*
X343881Y282095D01*
X343888Y282120D01*
X343915Y282451D01*
X343915Y300022D01*
X343913Y300040D01*
X343915Y300058D01*
X343894Y300240D01*
X343875Y300423D01*
X343870Y300440D01*
X343868Y300457D01*
X343811Y300632D01*
X343757Y300808D01*
X343749Y300823D01*
X343743Y300840D01*
X343653Y301000D01*
X343565Y301162D01*
X343554Y301175D01*
X343545Y301191D01*
X343425Y301330D01*
X343308Y301471D01*
X343294Y301482D01*
X343282Y301496D01*
X343137Y301608D01*
X342994Y301723D01*
X342978Y301731D01*
X342964Y301742D01*
X342799Y301824D01*
X342637Y301909D01*
X342620Y301914D01*
X342604Y301922D01*
X342425Y301969D01*
X342250Y302020D01*
X342232Y302022D01*
X342215Y302026D01*
X341884Y302053D01*
X341090Y302053D01*
X337747Y303438D01*
X335188Y305997D01*
X333803Y309340D01*
X333803Y312960D01*
X335188Y316303D01*
X337747Y318862D01*
X341090Y320247D01*
X341884Y320247D01*
X341902Y320249D01*
X341920Y320247D01*
X342102Y320268D01*
X342285Y320287D01*
X342302Y320292D01*
X342319Y320294D01*
X342494Y320351D01*
X342670Y320405D01*
X342685Y320413D01*
X342702Y320419D01*
X342862Y320509D01*
X343024Y320597D01*
X343037Y320608D01*
X343053Y320617D01*
X343192Y320737D01*
X343333Y320854D01*
X343344Y320868D01*
X343358Y320880D01*
X343470Y321025D01*
X343585Y321168D01*
X343593Y321184D01*
X343604Y321198D01*
X343686Y321363D01*
X343771Y321525D01*
X343776Y321542D01*
X343784Y321558D01*
X343831Y321737D01*
X343882Y321912D01*
X343884Y321930D01*
X343888Y321947D01*
X343915Y322278D01*
X343915Y352115D01*
X343914Y352128D01*
X343915Y352141D01*
X343894Y352326D01*
X343875Y352515D01*
X343871Y352528D01*
X343870Y352541D01*
X343812Y352720D01*
X343757Y352900D01*
X343751Y352912D01*
X343747Y352925D01*
X343655Y353089D01*
X343565Y353254D01*
X343557Y353264D01*
X343550Y353276D01*
X343428Y353419D01*
X343308Y353563D01*
X343297Y353572D01*
X343289Y353582D01*
X343141Y353698D01*
X342994Y353816D01*
X342982Y353822D01*
X342972Y353830D01*
X342803Y353915D01*
X342637Y354001D01*
X342624Y354005D01*
X342612Y354011D01*
X342431Y354061D01*
X342250Y354113D01*
X342236Y354114D01*
X342223Y354117D01*
X342035Y354130D01*
X341848Y354146D01*
X341835Y354144D01*
X341822Y354145D01*
X341634Y354120D01*
X341449Y354099D01*
X341436Y354094D01*
X341423Y354093D01*
X341107Y353991D01*
X338359Y352853D01*
X334740Y352853D01*
X331397Y354238D01*
X329869Y355766D01*
X329848Y355783D01*
X329831Y355804D01*
X329693Y355911D01*
X329557Y356021D01*
X329534Y356034D01*
X329513Y356050D01*
X329356Y356128D01*
X329202Y356210D01*
X329176Y356218D01*
X329152Y356230D01*
X328983Y356275D01*
X328816Y356325D01*
X328789Y356327D01*
X328763Y356334D01*
X328433Y356361D01*
X300052Y356361D01*
X300030Y356359D01*
X300008Y356361D01*
X299830Y356339D01*
X299652Y356321D01*
X299630Y356315D01*
X299608Y356312D01*
X299438Y356256D01*
X299267Y356203D01*
X299247Y356193D01*
X299226Y356186D01*
X299070Y356097D01*
X298913Y356011D01*
X298896Y355997D01*
X298876Y355986D01*
X298740Y355868D01*
X298603Y355754D01*
X298589Y355736D01*
X298573Y355722D01*
X298463Y355580D01*
X298351Y355440D01*
X298341Y355420D01*
X298327Y355402D01*
X298176Y355107D01*
X298034Y354765D01*
X295475Y352206D01*
X293206Y351266D01*
X293198Y351262D01*
X293190Y351260D01*
X293020Y351167D01*
X292851Y351076D01*
X292844Y351071D01*
X292836Y351066D01*
X292689Y350942D01*
X292541Y350820D01*
X292535Y350813D01*
X292528Y350807D01*
X292408Y350656D01*
X292287Y350507D01*
X292283Y350499D01*
X292277Y350492D01*
X292188Y350319D01*
X292100Y350151D01*
X292098Y350142D01*
X292093Y350134D01*
X292041Y349948D01*
X291987Y349764D01*
X291986Y349755D01*
X291984Y349747D01*
X291969Y349556D01*
X291952Y349363D01*
X291953Y349354D01*
X291953Y349345D01*
X291976Y349154D01*
X291998Y348963D01*
X292000Y348955D01*
X292001Y348946D01*
X292062Y348763D01*
X292121Y348580D01*
X292125Y348572D01*
X292128Y348563D01*
X292223Y348397D01*
X292317Y348228D01*
X292323Y348221D01*
X292327Y348214D01*
X292453Y348070D01*
X292579Y347922D01*
X292586Y347917D01*
X292592Y347910D01*
X292743Y347794D01*
X292896Y347674D01*
X292904Y347670D01*
X292911Y347665D01*
X293206Y347513D01*
X293697Y347310D01*
X296256Y344751D01*
X297641Y341408D01*
X297641Y337788D01*
X296256Y334445D01*
X293697Y331886D01*
X290354Y330501D01*
X286735Y330501D01*
X286705Y330513D01*
X286609Y330543D01*
X286516Y330581D01*
X286417Y330601D01*
X286320Y330630D01*
X286219Y330639D01*
X286120Y330659D01*
X286019Y330658D01*
X285919Y330668D01*
X285819Y330658D01*
X285718Y330657D01*
X285619Y330637D01*
X285519Y330626D01*
X285422Y330596D01*
X285324Y330576D01*
X285231Y330537D01*
X285134Y330507D01*
X285046Y330458D01*
X284953Y330419D01*
X284869Y330362D01*
X284781Y330313D01*
X284704Y330248D01*
X284621Y330191D01*
X284550Y330119D01*
X284473Y330054D01*
X284410Y329975D01*
X284340Y329903D01*
X284285Y329818D01*
X284222Y329739D01*
X284176Y329650D01*
X284121Y329565D01*
X284074Y329452D01*
X284038Y329381D01*
X284023Y329328D01*
X283994Y329258D01*
X246180Y211615D01*
X227074Y212052D01*
X227033Y212049D01*
X226992Y212052D01*
X226833Y212033D01*
X226673Y212021D01*
X226633Y212010D01*
X226593Y212005D01*
X226440Y211955D01*
X226285Y211912D01*
X226249Y211893D01*
X226210Y211880D01*
X226070Y211801D01*
X225927Y211728D01*
X225895Y211702D01*
X225859Y211682D01*
X225738Y211577D01*
X225612Y211477D01*
X225586Y211446D01*
X225554Y211419D01*
X225456Y211292D01*
X225353Y211169D01*
X225333Y211133D01*
X225308Y211101D01*
X225236Y210957D01*
X225159Y210816D01*
X225147Y210777D01*
X225128Y210740D01*
X225087Y210585D01*
X225039Y210432D01*
X225035Y210391D01*
X225024Y210352D01*
X225001Y210069D01*
X224997Y210032D01*
X224997Y210027D01*
X224997Y210021D01*
X224997Y203709D01*
X224378Y202216D01*
X223234Y201072D01*
X221741Y200453D01*
X210059Y200453D01*
X208566Y201072D01*
X207795Y201842D01*
X207775Y201859D01*
X207757Y201880D01*
X207619Y201987D01*
X207484Y202097D01*
X207460Y202110D01*
X207439Y202126D01*
X207282Y202204D01*
X207128Y202286D01*
X207103Y202294D01*
X207078Y202306D01*
X206909Y202351D01*
X206742Y202401D01*
X206716Y202403D01*
X206690Y202410D01*
X206359Y202437D01*
X163685Y202437D01*
X161071Y203520D01*
X151373Y213218D01*
X151370Y213220D01*
X151368Y213223D01*
X151212Y213350D01*
X151062Y213473D01*
X151059Y213475D01*
X151056Y213477D01*
X150877Y213571D01*
X150706Y213662D01*
X150703Y213663D01*
X150700Y213664D01*
X150510Y213720D01*
X150320Y213776D01*
X150316Y213777D01*
X150313Y213778D01*
X149983Y213812D01*
X54063Y216003D01*
X54014Y215999D01*
X53964Y216003D01*
X53813Y215984D01*
X53662Y215972D01*
X53614Y215959D01*
X53564Y215952D01*
X53420Y215904D01*
X53274Y215863D01*
X53230Y215840D01*
X53183Y215824D01*
X53051Y215749D01*
X52916Y215679D01*
X52877Y215648D01*
X52834Y215623D01*
X52654Y215471D01*
X52601Y215429D01*
X52593Y215419D01*
X52581Y215409D01*
X44792Y207620D01*
X44775Y207599D01*
X44754Y207581D01*
X44647Y207443D01*
X44537Y207308D01*
X44524Y207284D01*
X44508Y207263D01*
X44430Y207106D01*
X44348Y206952D01*
X44340Y206927D01*
X44328Y206903D01*
X44283Y206733D01*
X44233Y206566D01*
X44231Y206540D01*
X44224Y206514D01*
X44197Y206183D01*
X44197Y35117D01*
X44199Y35090D01*
X44197Y35063D01*
X44219Y34890D01*
X44237Y34716D01*
X44244Y34691D01*
X44248Y34664D01*
X44303Y34498D01*
X44355Y34331D01*
X44368Y34308D01*
X44376Y34282D01*
X44463Y34131D01*
X44547Y33977D01*
X44564Y33957D01*
X44577Y33933D01*
X44792Y33680D01*
X49619Y28854D01*
X50547Y26613D01*
X50547Y8302D01*
X50563Y8135D01*
X50575Y7967D01*
X50583Y7935D01*
X50587Y7902D01*
X50636Y7741D01*
X50680Y7578D01*
X50695Y7548D01*
X50705Y7517D01*
X50785Y7369D01*
X50860Y7218D01*
X50881Y7192D01*
X50897Y7163D01*
X51004Y7033D01*
X51108Y6901D01*
X51133Y6879D01*
X51154Y6853D01*
X51285Y6748D01*
X51413Y6638D01*
X51442Y6622D01*
X51468Y6601D01*
X51617Y6524D01*
X51764Y6441D01*
X51796Y6431D01*
X51825Y6415D01*
X51987Y6369D01*
X52147Y6317D01*
X52180Y6313D01*
X52212Y6304D01*
X52380Y6290D01*
X52547Y6271D01*
X52580Y6274D01*
X52614Y6271D01*
X52781Y6291D01*
X52948Y6305D01*
X52980Y6314D01*
X53013Y6318D01*
X53174Y6370D01*
X53335Y6417D01*
X53364Y6433D01*
X53396Y6443D01*
X53543Y6526D01*
X53692Y6604D01*
X53718Y6625D01*
X53747Y6641D01*
X53874Y6751D01*
X54005Y6857D01*
X54029Y6885D01*
X54051Y6904D01*
X54105Y6972D01*
X54221Y7108D01*
X54587Y7612D01*
X55888Y8913D01*
X57376Y9994D01*
X59014Y10829D01*
X60764Y11397D01*
X61088Y11448D01*
X61088Y381D01*
X61089Y363D01*
X61088Y346D01*
X61109Y163D01*
X61128Y-19D01*
X61133Y-37D01*
X61135Y-54D01*
X61192Y-229D01*
X61246Y-404D01*
X61254Y-420D01*
X61260Y-437D01*
X61350Y-597D01*
X61437Y-758D01*
X61449Y-772D01*
X61458Y-788D01*
X61578Y-927D01*
X61695Y-1068D01*
X61709Y-1079D01*
X61721Y-1092D01*
X61866Y-1205D01*
X62009Y-1320D01*
X62025Y-1328D01*
X62039Y-1339D01*
X62204Y-1421D01*
X62366Y-1505D01*
X62383Y-1510D01*
X62399Y-1518D01*
X62578Y-1566D01*
X62753Y-1617D01*
X62771Y-1618D01*
X62788Y-1623D01*
X63119Y-1650D01*
X63881Y-1650D01*
X63899Y-1648D01*
G37*
G36*
X140049Y277378D02*
X140049Y277378D01*
X140143Y277377D01*
X140249Y277398D01*
X140357Y277409D01*
X140446Y277436D01*
X140538Y277454D01*
X140638Y277495D01*
X140742Y277527D01*
X140824Y277571D01*
X140910Y277607D01*
X141001Y277667D01*
X141096Y277719D01*
X141168Y277778D01*
X141245Y277830D01*
X141322Y277907D01*
X141405Y277976D01*
X141464Y278049D01*
X141530Y278115D01*
X141590Y278205D01*
X141658Y278290D01*
X141701Y278373D01*
X141752Y278450D01*
X141793Y278551D01*
X141843Y278647D01*
X141869Y278737D01*
X141904Y278823D01*
X141925Y278930D01*
X141955Y279034D01*
X141962Y279127D01*
X141980Y279219D01*
X141979Y279327D01*
X141988Y279436D01*
X141977Y279528D01*
X141976Y279621D01*
X141953Y279728D01*
X141941Y279835D01*
X141912Y279924D01*
X141892Y280015D01*
X141842Y280139D01*
X141816Y280218D01*
X141791Y280261D01*
X141766Y280322D01*
X141336Y281167D01*
X140755Y282954D01*
X140715Y283211D01*
X151892Y283211D01*
X151910Y283212D01*
X151927Y283211D01*
X152110Y283232D01*
X152292Y283251D01*
X152309Y283256D01*
X152327Y283258D01*
X152502Y283315D01*
X152677Y283369D01*
X152693Y283377D01*
X152710Y283383D01*
X152870Y283473D01*
X153031Y283560D01*
X153045Y283572D01*
X153061Y283581D01*
X153200Y283701D01*
X153341Y283818D01*
X153352Y283832D01*
X153365Y283844D01*
X153478Y283989D01*
X153593Y284132D01*
X153601Y284148D01*
X153612Y284162D01*
X153694Y284327D01*
X153734Y284403D01*
X153886Y284489D01*
X154048Y284577D01*
X154061Y284588D01*
X154077Y284597D01*
X154216Y284717D01*
X154357Y284835D01*
X154368Y284848D01*
X154382Y284860D01*
X154494Y285005D01*
X154609Y285148D01*
X154617Y285164D01*
X154628Y285178D01*
X154710Y285343D01*
X154795Y285506D01*
X154800Y285523D01*
X154808Y285539D01*
X154855Y285717D01*
X154906Y285892D01*
X154908Y285910D01*
X154912Y285927D01*
X154939Y286258D01*
X154939Y297435D01*
X155196Y297395D01*
X156983Y296814D01*
X158657Y295961D01*
X160178Y294856D01*
X161506Y293528D01*
X162523Y292129D01*
X162638Y292000D01*
X162749Y291868D01*
X162771Y291850D01*
X162791Y291828D01*
X162929Y291724D01*
X163064Y291617D01*
X163089Y291603D01*
X163112Y291586D01*
X163268Y291511D01*
X163422Y291433D01*
X163449Y291425D01*
X163476Y291412D01*
X163643Y291370D01*
X163809Y291323D01*
X163838Y291321D01*
X163866Y291314D01*
X164039Y291305D01*
X164211Y291292D01*
X164239Y291295D01*
X164268Y291294D01*
X164439Y291320D01*
X164610Y291340D01*
X164638Y291350D01*
X164666Y291354D01*
X164829Y291413D01*
X164992Y291467D01*
X165017Y291481D01*
X165045Y291491D01*
X165192Y291581D01*
X165342Y291666D01*
X165364Y291685D01*
X165389Y291700D01*
X165516Y291818D01*
X165646Y291931D01*
X165663Y291954D01*
X165685Y291973D01*
X165786Y292114D01*
X165891Y292250D01*
X165906Y292279D01*
X165921Y292299D01*
X165956Y292377D01*
X166043Y292545D01*
X166387Y293376D01*
X170174Y297163D01*
X175122Y299213D01*
X180478Y299213D01*
X183373Y298014D01*
X183386Y298010D01*
X183397Y298004D01*
X183577Y297952D01*
X183758Y297897D01*
X183771Y297896D01*
X183784Y297892D01*
X183972Y297877D01*
X184159Y297859D01*
X184172Y297860D01*
X184186Y297859D01*
X184373Y297881D01*
X184559Y297901D01*
X184572Y297905D01*
X184585Y297906D01*
X184765Y297965D01*
X184944Y298021D01*
X184955Y298027D01*
X184968Y298031D01*
X185133Y298124D01*
X185297Y298214D01*
X185307Y298222D01*
X185319Y298229D01*
X185461Y298352D01*
X185605Y298473D01*
X185613Y298483D01*
X185624Y298492D01*
X185739Y298641D01*
X185856Y298788D01*
X185862Y298800D01*
X185870Y298810D01*
X185954Y298979D01*
X186040Y299146D01*
X186044Y299159D01*
X186050Y299171D01*
X186099Y299354D01*
X186150Y299533D01*
X186151Y299547D01*
X186154Y299560D01*
X186181Y299890D01*
X186181Y309119D01*
X266700Y309119D01*
X266850Y309134D01*
X267000Y309141D01*
X267050Y309154D01*
X267101Y309159D01*
X267245Y309203D01*
X267391Y309240D01*
X267437Y309262D01*
X267486Y309277D01*
X267618Y309348D01*
X267754Y309413D01*
X267795Y309444D01*
X267840Y309469D01*
X267955Y309565D01*
X268076Y309655D01*
X268110Y309694D01*
X268149Y309726D01*
X268243Y309844D01*
X268343Y309956D01*
X268369Y310000D01*
X268401Y310040D01*
X268470Y310173D01*
X268547Y310304D01*
X268566Y310358D01*
X268587Y310397D01*
X268610Y310479D01*
X268660Y310616D01*
X273370Y327888D01*
X273385Y327973D01*
X273409Y328056D01*
X273418Y328171D01*
X273437Y328285D01*
X273434Y328371D01*
X273441Y328458D01*
X273428Y328572D01*
X273424Y328687D01*
X273405Y328771D01*
X273395Y328857D01*
X273359Y328967D01*
X273333Y329079D01*
X273297Y329158D01*
X273270Y329240D01*
X273213Y329341D01*
X273165Y329445D01*
X273114Y329515D01*
X273072Y329591D01*
X272997Y329678D01*
X272929Y329771D01*
X272865Y329830D01*
X272809Y329896D01*
X272718Y329966D01*
X272633Y330044D01*
X272559Y330089D01*
X272491Y330142D01*
X272388Y330194D01*
X272289Y330253D01*
X272208Y330283D01*
X272130Y330322D01*
X272019Y330352D01*
X271911Y330391D01*
X271825Y330404D01*
X271741Y330426D01*
X271597Y330438D01*
X271513Y330451D01*
X271468Y330449D01*
X271411Y330453D01*
X242559Y330453D01*
X242533Y330451D01*
X242506Y330453D01*
X242332Y330431D01*
X242159Y330413D01*
X242133Y330406D01*
X242107Y330402D01*
X241941Y330347D01*
X241774Y330295D01*
X241750Y330282D01*
X241725Y330274D01*
X241573Y330187D01*
X241420Y330103D01*
X241399Y330086D01*
X241376Y330073D01*
X241123Y329858D01*
X240103Y328838D01*
X236760Y327453D01*
X233140Y327453D01*
X229797Y328838D01*
X227238Y331397D01*
X225853Y334740D01*
X225853Y338360D01*
X227238Y341703D01*
X229797Y344262D01*
X233140Y345647D01*
X236760Y345647D01*
X240103Y344262D01*
X241123Y343242D01*
X241144Y343225D01*
X241161Y343204D01*
X241299Y343097D01*
X241435Y342987D01*
X241458Y342974D01*
X241479Y342958D01*
X241636Y342880D01*
X241790Y342798D01*
X241816Y342790D01*
X241840Y342778D01*
X242009Y342733D01*
X242176Y342683D01*
X242203Y342681D01*
X242229Y342674D01*
X242559Y342647D01*
X275844Y342647D01*
X275994Y342662D01*
X276144Y342669D01*
X276194Y342682D01*
X276245Y342687D01*
X276389Y342731D01*
X276534Y342768D01*
X276581Y342790D01*
X276630Y342805D01*
X276762Y342876D01*
X276898Y342941D01*
X276939Y342972D01*
X276984Y342997D01*
X277099Y343093D01*
X277220Y343183D01*
X277254Y343222D01*
X277293Y343254D01*
X277387Y343372D01*
X277487Y343484D01*
X277513Y343528D01*
X277545Y343568D01*
X277615Y343702D01*
X277690Y343832D01*
X277710Y343886D01*
X277731Y343925D01*
X277754Y344007D01*
X277804Y344144D01*
X282168Y360146D01*
X282182Y360227D01*
X282198Y360284D01*
X282198Y360287D01*
X282206Y360314D01*
X282216Y360429D01*
X282235Y360543D01*
X282232Y360629D01*
X282239Y360716D01*
X282226Y360830D01*
X282222Y360945D01*
X282202Y361029D01*
X282192Y361115D01*
X282157Y361225D01*
X282130Y361337D01*
X282094Y361416D01*
X282067Y361498D01*
X282011Y361598D01*
X281963Y361703D01*
X281912Y361773D01*
X281869Y361849D01*
X281794Y361936D01*
X281727Y362029D01*
X281663Y362088D01*
X281606Y362154D01*
X281515Y362224D01*
X281431Y362302D01*
X281357Y362347D01*
X281288Y362400D01*
X281185Y362452D01*
X281087Y362511D01*
X281005Y362541D01*
X280928Y362580D01*
X280816Y362610D01*
X280708Y362649D01*
X280623Y362662D01*
X280539Y362684D01*
X280394Y362696D01*
X280310Y362709D01*
X280266Y362707D01*
X280208Y362711D01*
X192278Y362711D01*
X192260Y362709D01*
X192242Y362711D01*
X192060Y362690D01*
X191877Y362671D01*
X191860Y362666D01*
X191843Y362664D01*
X191668Y362607D01*
X191492Y362553D01*
X191477Y362545D01*
X191460Y362539D01*
X191300Y362449D01*
X191138Y362361D01*
X191125Y362350D01*
X191109Y362341D01*
X190970Y362221D01*
X190829Y362104D01*
X190818Y362090D01*
X190804Y362078D01*
X190692Y361933D01*
X190577Y361790D01*
X190569Y361774D01*
X190558Y361760D01*
X190476Y361595D01*
X190391Y361433D01*
X190386Y361416D01*
X190378Y361400D01*
X190331Y361221D01*
X190280Y361046D01*
X190278Y361028D01*
X190274Y361011D01*
X190247Y360680D01*
X190247Y337809D01*
X190249Y337783D01*
X190247Y337756D01*
X190269Y337582D01*
X190287Y337409D01*
X190294Y337383D01*
X190298Y337357D01*
X190353Y337191D01*
X190405Y337024D01*
X190418Y337000D01*
X190426Y336975D01*
X190513Y336823D01*
X190597Y336670D01*
X190614Y336649D01*
X190627Y336626D01*
X190842Y336373D01*
X191862Y335353D01*
X193247Y332010D01*
X193247Y328390D01*
X191862Y325047D01*
X189303Y322488D01*
X185960Y321103D01*
X182340Y321103D01*
X178997Y322488D01*
X176438Y325047D01*
X175053Y328390D01*
X175053Y332010D01*
X176438Y335353D01*
X177458Y336373D01*
X177475Y336394D01*
X177496Y336411D01*
X177602Y336549D01*
X177713Y336685D01*
X177726Y336708D01*
X177742Y336729D01*
X177820Y336886D01*
X177902Y337040D01*
X177910Y337066D01*
X177922Y337090D01*
X177967Y337259D01*
X178017Y337426D01*
X178019Y337453D01*
X178026Y337479D01*
X178053Y337809D01*
X178053Y369513D01*
X178981Y371754D01*
X180696Y373469D01*
X182937Y374397D01*
X185363Y374397D01*
X186216Y374043D01*
X186246Y374034D01*
X186274Y374020D01*
X186438Y373976D01*
X186601Y373927D01*
X186632Y373924D01*
X186662Y373916D01*
X186993Y373889D01*
X196785Y373889D01*
X196794Y373890D01*
X196803Y373889D01*
X196996Y373910D01*
X197186Y373929D01*
X197194Y373931D01*
X197203Y373932D01*
X197387Y373990D01*
X197571Y374047D01*
X197579Y374051D01*
X197587Y374054D01*
X197755Y374146D01*
X197925Y374239D01*
X197932Y374244D01*
X197940Y374249D01*
X198087Y374373D01*
X198234Y374496D01*
X198240Y374503D01*
X198247Y374509D01*
X198366Y374661D01*
X198486Y374810D01*
X198491Y374818D01*
X198496Y374825D01*
X198584Y374998D01*
X198672Y375167D01*
X198674Y375176D01*
X198679Y375184D01*
X198730Y375370D01*
X198783Y375554D01*
X198784Y375563D01*
X198787Y375572D01*
X198801Y375765D01*
X198816Y375956D01*
X198815Y375964D01*
X198816Y375973D01*
X198792Y376166D01*
X198769Y376355D01*
X198767Y376364D01*
X198765Y376373D01*
X198704Y376556D01*
X198645Y376738D01*
X198640Y376746D01*
X198637Y376754D01*
X198541Y376921D01*
X198447Y377089D01*
X198441Y377096D01*
X198436Y377103D01*
X198222Y377356D01*
X185220Y390358D01*
X185199Y390375D01*
X185181Y390396D01*
X185043Y390503D01*
X184908Y390613D01*
X184884Y390626D01*
X184863Y390642D01*
X184706Y390720D01*
X184552Y390802D01*
X184527Y390810D01*
X184503Y390822D01*
X184333Y390867D01*
X184166Y390917D01*
X184140Y390919D01*
X184114Y390926D01*
X183783Y390953D01*
X182340Y390953D01*
X178997Y392338D01*
X176438Y394897D01*
X175053Y398240D01*
X175053Y401860D01*
X176438Y405203D01*
X178997Y407762D01*
X182340Y409147D01*
X185960Y409147D01*
X189303Y407762D01*
X191862Y405203D01*
X193247Y401860D01*
X193247Y400417D01*
X193249Y400390D01*
X193247Y400363D01*
X193269Y400190D01*
X193287Y400016D01*
X193294Y399991D01*
X193298Y399964D01*
X193353Y399798D01*
X193405Y399631D01*
X193418Y399608D01*
X193426Y399582D01*
X193513Y399431D01*
X193597Y399277D01*
X193614Y399257D01*
X193627Y399233D01*
X193842Y398980D01*
X211988Y380834D01*
X212009Y380817D01*
X212027Y380796D01*
X212165Y380689D01*
X212300Y380579D01*
X212324Y380566D01*
X212345Y380550D01*
X212502Y380472D01*
X212656Y380390D01*
X212681Y380382D01*
X212705Y380370D01*
X212875Y380325D01*
X213042Y380275D01*
X213068Y380273D01*
X213094Y380266D01*
X213425Y380239D01*
X241300Y380239D01*
X241318Y380241D01*
X241336Y380239D01*
X241518Y380260D01*
X241701Y380279D01*
X241718Y380284D01*
X241735Y380286D01*
X241910Y380343D01*
X242086Y380397D01*
X242101Y380405D01*
X242118Y380411D01*
X242278Y380501D01*
X242440Y380589D01*
X242453Y380600D01*
X242469Y380609D01*
X242608Y380729D01*
X242749Y380846D01*
X242760Y380860D01*
X242774Y380872D01*
X242886Y381017D01*
X243001Y381160D01*
X243009Y381176D01*
X243020Y381190D01*
X243102Y381355D01*
X243187Y381517D01*
X243192Y381534D01*
X243200Y381550D01*
X243247Y381729D01*
X243298Y381904D01*
X243300Y381922D01*
X243304Y381939D01*
X243331Y382270D01*
X243331Y451358D01*
X243329Y451376D01*
X243331Y451394D01*
X243310Y451576D01*
X243291Y451759D01*
X243286Y451776D01*
X243284Y451793D01*
X243227Y451968D01*
X243173Y452144D01*
X243165Y452159D01*
X243159Y452176D01*
X243069Y452336D01*
X242981Y452498D01*
X242970Y452511D01*
X242961Y452527D01*
X242841Y452666D01*
X242724Y452807D01*
X242710Y452818D01*
X242698Y452832D01*
X242553Y452944D01*
X242410Y453059D01*
X242394Y453067D01*
X242380Y453078D01*
X242215Y453160D01*
X242053Y453245D01*
X242036Y453250D01*
X242020Y453258D01*
X241841Y453305D01*
X241666Y453356D01*
X241648Y453358D01*
X241631Y453362D01*
X241300Y453389D01*
X152805Y453389D01*
X152792Y453388D01*
X152778Y453389D01*
X152592Y453368D01*
X152404Y453349D01*
X152392Y453345D01*
X152378Y453344D01*
X152199Y453286D01*
X152020Y453231D01*
X152008Y453225D01*
X151995Y453221D01*
X151830Y453129D01*
X151666Y453039D01*
X151655Y453031D01*
X151644Y453024D01*
X151500Y452902D01*
X151356Y452782D01*
X151348Y452771D01*
X151338Y452763D01*
X151221Y452614D01*
X151104Y452468D01*
X151098Y452456D01*
X151089Y452446D01*
X151005Y452276D01*
X150918Y452111D01*
X150915Y452098D01*
X150909Y452086D01*
X150859Y451903D01*
X150807Y451724D01*
X150806Y451710D01*
X150802Y451697D01*
X150789Y451509D01*
X150774Y451322D01*
X150776Y451309D01*
X150775Y451296D01*
X150799Y451108D01*
X150821Y450923D01*
X150825Y450910D01*
X150827Y450897D01*
X150928Y450581D01*
X152401Y447026D01*
X152401Y441974D01*
X150467Y437306D01*
X146853Y433692D01*
X146696Y433608D01*
X146679Y433593D01*
X146659Y433582D01*
X146524Y433465D01*
X146386Y433351D01*
X146371Y433334D01*
X146354Y433319D01*
X146245Y433178D01*
X146132Y433038D01*
X146121Y433019D01*
X146108Y433001D01*
X146028Y432840D01*
X145945Y432682D01*
X145938Y432661D01*
X145928Y432640D01*
X145882Y432467D01*
X145832Y432296D01*
X145830Y432273D01*
X145824Y432252D01*
X145797Y431921D01*
X145797Y424237D01*
X144869Y421996D01*
X142868Y419996D01*
X127342Y404470D01*
X127325Y404449D01*
X127304Y404431D01*
X127197Y404293D01*
X127087Y404158D01*
X127074Y404134D01*
X127058Y404113D01*
X126980Y403956D01*
X126898Y403802D01*
X126890Y403777D01*
X126878Y403753D01*
X126833Y403583D01*
X126783Y403416D01*
X126781Y403390D01*
X126774Y403364D01*
X126747Y403033D01*
X126747Y373437D01*
X125819Y371196D01*
X117754Y363131D01*
X116285Y362523D01*
X115513Y362203D01*
X95602Y362203D01*
X95531Y362196D01*
X95426Y362196D01*
X95080Y362166D01*
X94946Y362140D01*
X94811Y362124D01*
X94749Y362103D01*
X94684Y362091D01*
X94558Y362040D01*
X94429Y361998D01*
X94372Y361965D01*
X94311Y361940D01*
X94197Y361865D01*
X94079Y361798D01*
X94030Y361755D01*
X93975Y361719D01*
X93878Y361623D01*
X93776Y361534D01*
X93736Y361482D01*
X93689Y361435D01*
X93613Y361322D01*
X93530Y361214D01*
X93496Y361147D01*
X93465Y361101D01*
X93434Y361028D01*
X93379Y360919D01*
X92269Y358241D01*
X92039Y358011D01*
X92028Y357997D01*
X92015Y357986D01*
X91900Y357841D01*
X91784Y357700D01*
X91776Y357684D01*
X91765Y357670D01*
X91682Y357506D01*
X91596Y357344D01*
X91591Y357327D01*
X91583Y357311D01*
X91533Y357134D01*
X91481Y356958D01*
X91479Y356940D01*
X91475Y356923D01*
X91461Y356740D01*
X91445Y356557D01*
X91447Y356539D01*
X91445Y356522D01*
X91468Y356339D01*
X91488Y356157D01*
X91493Y356140D01*
X91496Y356122D01*
X91554Y355947D01*
X91609Y355773D01*
X91618Y355757D01*
X91624Y355740D01*
X91716Y355581D01*
X91804Y355421D01*
X91816Y355407D01*
X91825Y355392D01*
X92039Y355139D01*
X94258Y352920D01*
X96947Y346429D01*
X96947Y339403D01*
X94258Y332912D01*
X92039Y330693D01*
X92028Y330680D01*
X92014Y330668D01*
X91900Y330524D01*
X91784Y330382D01*
X91776Y330366D01*
X91765Y330352D01*
X91681Y330188D01*
X91596Y330026D01*
X91591Y330009D01*
X91583Y329993D01*
X91533Y329816D01*
X91481Y329640D01*
X91479Y329622D01*
X91475Y329605D01*
X91461Y329422D01*
X91445Y329239D01*
X91447Y329222D01*
X91445Y329204D01*
X91468Y329022D01*
X91488Y328839D01*
X91493Y328822D01*
X91496Y328804D01*
X91554Y328631D01*
X91609Y328455D01*
X91618Y328440D01*
X91624Y328423D01*
X91716Y328263D01*
X91804Y328103D01*
X91816Y328089D01*
X91825Y328074D01*
X92039Y327821D01*
X92269Y327591D01*
X94601Y321962D01*
X94601Y315870D01*
X92269Y310241D01*
X88881Y306852D01*
X88869Y306839D01*
X88856Y306827D01*
X88742Y306683D01*
X88626Y306541D01*
X88617Y306525D01*
X88606Y306511D01*
X88523Y306347D01*
X88437Y306185D01*
X88432Y306168D01*
X88424Y306152D01*
X88374Y305975D01*
X88322Y305799D01*
X88320Y305781D01*
X88316Y305764D01*
X88302Y305581D01*
X88286Y305398D01*
X88288Y305380D01*
X88286Y305363D01*
X88309Y305181D01*
X88329Y304998D01*
X88335Y304981D01*
X88337Y304963D01*
X88395Y304790D01*
X88451Y304614D01*
X88459Y304598D01*
X88465Y304582D01*
X88557Y304422D01*
X88645Y304262D01*
X88657Y304248D01*
X88666Y304233D01*
X88881Y303980D01*
X92269Y300591D01*
X94601Y294962D01*
X94601Y288870D01*
X92269Y283241D01*
X89865Y280836D01*
X89859Y280829D01*
X89852Y280824D01*
X89732Y280674D01*
X89610Y280525D01*
X89605Y280517D01*
X89600Y280510D01*
X89511Y280340D01*
X89421Y280169D01*
X89418Y280161D01*
X89414Y280153D01*
X89361Y279968D01*
X89306Y279783D01*
X89305Y279774D01*
X89303Y279766D01*
X89287Y279575D01*
X89270Y279382D01*
X89271Y279373D01*
X89270Y279364D01*
X89292Y279175D01*
X89313Y278982D01*
X89316Y278973D01*
X89317Y278965D01*
X89376Y278783D01*
X89435Y278598D01*
X89439Y278590D01*
X89442Y278582D01*
X89537Y278413D01*
X89629Y278246D01*
X89635Y278239D01*
X89640Y278231D01*
X89766Y278085D01*
X89890Y277939D01*
X89897Y277933D01*
X89903Y277927D01*
X90054Y277809D01*
X90206Y277689D01*
X90214Y277685D01*
X90221Y277680D01*
X90393Y277594D01*
X90565Y277507D01*
X90573Y277504D01*
X90581Y277500D01*
X90767Y277450D01*
X90953Y277399D01*
X90962Y277398D01*
X90970Y277396D01*
X91301Y277369D01*
X139957Y277369D01*
X140049Y277378D01*
G37*
G36*
X67280Y277370D02*
X67280Y277370D01*
X67289Y277369D01*
X67481Y277390D01*
X67672Y277409D01*
X67680Y277411D01*
X67689Y277412D01*
X67871Y277470D01*
X68057Y277527D01*
X68065Y277531D01*
X68073Y277534D01*
X68241Y277627D01*
X68411Y277719D01*
X68417Y277724D01*
X68425Y277729D01*
X68572Y277853D01*
X68720Y277976D01*
X68726Y277983D01*
X68732Y277989D01*
X68851Y278139D01*
X68972Y278290D01*
X68976Y278298D01*
X68982Y278305D01*
X69070Y278478D01*
X69158Y278647D01*
X69160Y278656D01*
X69164Y278664D01*
X69216Y278850D01*
X69269Y279034D01*
X69270Y279043D01*
X69272Y279052D01*
X69286Y279245D01*
X69302Y279436D01*
X69301Y279444D01*
X69302Y279453D01*
X69277Y279646D01*
X69255Y279835D01*
X69252Y279844D01*
X69251Y279853D01*
X69190Y280036D01*
X69130Y280218D01*
X69126Y280226D01*
X69123Y280234D01*
X69028Y280400D01*
X68932Y280569D01*
X68927Y280576D01*
X68922Y280583D01*
X68707Y280836D01*
X66303Y283241D01*
X63971Y288870D01*
X63971Y294962D01*
X66303Y300591D01*
X69691Y303980D01*
X69703Y303994D01*
X69716Y304005D01*
X69830Y304149D01*
X69946Y304291D01*
X69955Y304307D01*
X69966Y304321D01*
X70049Y304485D01*
X70135Y304647D01*
X70140Y304664D01*
X70148Y304680D01*
X70198Y304857D01*
X70250Y305033D01*
X70252Y305051D01*
X70256Y305068D01*
X70270Y305251D01*
X70286Y305434D01*
X70284Y305452D01*
X70286Y305469D01*
X70263Y305651D01*
X70243Y305834D01*
X70238Y305851D01*
X70235Y305869D01*
X70177Y306043D01*
X70121Y306218D01*
X70113Y306234D01*
X70107Y306250D01*
X70015Y306410D01*
X69927Y306570D01*
X69915Y306584D01*
X69906Y306599D01*
X69691Y306852D01*
X66303Y310241D01*
X63971Y315870D01*
X63971Y319323D01*
X63970Y319334D01*
X63971Y319346D01*
X63950Y319536D01*
X63931Y319723D01*
X63928Y319734D01*
X63927Y319746D01*
X63869Y319927D01*
X63813Y320108D01*
X63808Y320118D01*
X63804Y320130D01*
X63711Y320296D01*
X63621Y320462D01*
X63614Y320471D01*
X63608Y320482D01*
X63484Y320627D01*
X63364Y320771D01*
X63355Y320779D01*
X63347Y320788D01*
X63197Y320905D01*
X63050Y321024D01*
X63039Y321029D01*
X63030Y321036D01*
X62737Y321191D01*
X54799Y324575D01*
X54789Y324578D01*
X54779Y324583D01*
X53666Y325044D01*
X52825Y325903D01*
X52818Y325909D01*
X52811Y325917D01*
X51958Y326769D01*
X51510Y327886D01*
X51505Y327894D01*
X51502Y327905D01*
X51041Y329017D01*
X51053Y330221D01*
X51052Y330231D01*
X51053Y330242D01*
X51053Y405822D01*
X51045Y405901D01*
X51033Y406110D01*
X50943Y406738D01*
X50990Y406921D01*
X50998Y406977D01*
X51006Y407003D01*
X51008Y407025D01*
X51026Y407094D01*
X51038Y407235D01*
X51050Y407319D01*
X51048Y407364D01*
X51053Y407425D01*
X51053Y407613D01*
X51296Y408199D01*
X51319Y408276D01*
X51387Y408473D01*
X51545Y409088D01*
X51658Y409238D01*
X51704Y409314D01*
X51758Y409385D01*
X51822Y409510D01*
X51866Y409583D01*
X51882Y409626D01*
X51910Y409680D01*
X51981Y409854D01*
X52430Y410303D01*
X52481Y410364D01*
X52619Y410520D01*
X70708Y434638D01*
X70734Y434681D01*
X70746Y434696D01*
X70758Y434720D01*
X70808Y434785D01*
X70872Y434910D01*
X70916Y434983D01*
X70932Y435026D01*
X70959Y435080D01*
X71031Y435254D01*
X71481Y435703D01*
X71531Y435764D01*
X71669Y435920D01*
X72050Y436428D01*
X72212Y436524D01*
X72283Y436576D01*
X72360Y436621D01*
X72468Y436712D01*
X72536Y436762D01*
X72567Y436796D01*
X72613Y436836D01*
X75694Y439916D01*
X75708Y439934D01*
X75725Y439948D01*
X75836Y440090D01*
X75949Y440228D01*
X75960Y440247D01*
X75974Y440265D01*
X76054Y440426D01*
X76138Y440584D01*
X76144Y440605D01*
X76154Y440625D01*
X76202Y440798D01*
X76253Y440969D01*
X76255Y440992D01*
X76261Y441013D01*
X76273Y441192D01*
X76289Y441370D01*
X76287Y441393D01*
X76288Y441415D01*
X76265Y441591D01*
X76246Y441771D01*
X76239Y441792D01*
X76236Y441814D01*
X76199Y441929D01*
X76199Y447026D01*
X77672Y450581D01*
X77675Y450594D01*
X77682Y450605D01*
X77733Y450786D01*
X77788Y450966D01*
X77789Y450979D01*
X77793Y450992D01*
X77808Y451180D01*
X77826Y451367D01*
X77825Y451380D01*
X77826Y451394D01*
X77804Y451581D01*
X77784Y451767D01*
X77780Y451780D01*
X77779Y451793D01*
X77720Y451973D01*
X77665Y452152D01*
X77658Y452163D01*
X77654Y452176D01*
X77561Y452341D01*
X77471Y452505D01*
X77463Y452515D01*
X77456Y452527D01*
X77333Y452669D01*
X77212Y452813D01*
X77202Y452821D01*
X77193Y452832D01*
X77045Y452947D01*
X76897Y453064D01*
X76885Y453070D01*
X76875Y453078D01*
X76706Y453162D01*
X76539Y453248D01*
X76526Y453252D01*
X76514Y453258D01*
X76331Y453307D01*
X76152Y453358D01*
X76139Y453359D01*
X76126Y453362D01*
X75795Y453389D01*
X43646Y453389D01*
X43500Y453375D01*
X43354Y453368D01*
X43301Y453355D01*
X43245Y453349D01*
X43106Y453306D01*
X42964Y453271D01*
X42914Y453248D01*
X42860Y453231D01*
X42732Y453162D01*
X42600Y453099D01*
X42555Y453066D01*
X42506Y453039D01*
X42394Y452946D01*
X42277Y452859D01*
X42240Y452817D01*
X42197Y452782D01*
X42106Y452668D01*
X42008Y452559D01*
X41980Y452511D01*
X41945Y452468D01*
X41878Y452338D01*
X41803Y452212D01*
X41785Y452160D01*
X41759Y452111D01*
X41719Y451970D01*
X41671Y451832D01*
X41663Y451777D01*
X41648Y451724D01*
X41636Y451578D01*
X41616Y451433D01*
X41620Y451378D01*
X41615Y451322D01*
X41632Y451177D01*
X41641Y451031D01*
X41655Y450978D01*
X41662Y450923D01*
X41707Y450784D01*
X41745Y450642D01*
X41772Y450585D01*
X41787Y450540D01*
X41828Y450467D01*
X41887Y450342D01*
X45014Y444926D01*
X46661Y438781D01*
X46661Y432419D01*
X45014Y426274D01*
X41833Y420765D01*
X37335Y416267D01*
X33269Y413919D01*
X33206Y413874D01*
X33138Y413836D01*
X33043Y413757D01*
X32942Y413684D01*
X32889Y413627D01*
X32830Y413577D01*
X32752Y413480D01*
X32668Y413389D01*
X32627Y413323D01*
X32579Y413262D01*
X32522Y413152D01*
X32457Y413046D01*
X32430Y412973D01*
X32395Y412904D01*
X32361Y412785D01*
X32318Y412668D01*
X32306Y412592D01*
X32285Y412517D01*
X32275Y412393D01*
X32256Y412271D01*
X32260Y412193D01*
X32254Y412116D01*
X32269Y411992D01*
X32274Y411868D01*
X32293Y411793D01*
X32303Y411716D01*
X32341Y411598D01*
X32371Y411478D01*
X32405Y411407D01*
X32429Y411334D01*
X32491Y411226D01*
X32544Y411114D01*
X32590Y411051D01*
X32628Y410984D01*
X32710Y410890D01*
X32784Y410791D01*
X32842Y410739D01*
X32893Y410680D01*
X32991Y410605D01*
X33084Y410522D01*
X33150Y410482D01*
X33212Y410435D01*
X33355Y410362D01*
X33430Y410317D01*
X33465Y410305D01*
X33507Y410283D01*
X39290Y407888D01*
X44258Y402920D01*
X46947Y396429D01*
X46947Y389403D01*
X44258Y382912D01*
X39290Y377944D01*
X32799Y375255D01*
X25773Y375255D01*
X19282Y377944D01*
X18222Y379004D01*
X18209Y379015D01*
X18197Y379029D01*
X18052Y379143D01*
X17911Y379259D01*
X17895Y379267D01*
X17881Y379278D01*
X17717Y379362D01*
X17555Y379447D01*
X17538Y379452D01*
X17522Y379461D01*
X17345Y379510D01*
X17169Y379562D01*
X17151Y379564D01*
X17134Y379569D01*
X16951Y379582D01*
X16768Y379599D01*
X16750Y379597D01*
X16733Y379598D01*
X16551Y379575D01*
X16368Y379555D01*
X16351Y379550D01*
X16333Y379548D01*
X16160Y379489D01*
X15984Y379434D01*
X15968Y379425D01*
X15952Y379419D01*
X15793Y379328D01*
X15632Y379239D01*
X15618Y379227D01*
X15603Y379218D01*
X15350Y379004D01*
X14290Y377944D01*
X7799Y375255D01*
X5842Y375255D01*
X5824Y375253D01*
X5806Y375255D01*
X5624Y375234D01*
X5441Y375215D01*
X5424Y375210D01*
X5407Y375208D01*
X5232Y375151D01*
X5056Y375097D01*
X5041Y375089D01*
X5024Y375083D01*
X4864Y374993D01*
X4702Y374905D01*
X4689Y374894D01*
X4673Y374885D01*
X4534Y374765D01*
X4393Y374648D01*
X4382Y374634D01*
X4368Y374622D01*
X4256Y374477D01*
X4141Y374334D01*
X4133Y374318D01*
X4122Y374304D01*
X4040Y374139D01*
X3955Y373977D01*
X3950Y373960D01*
X3942Y373944D01*
X3895Y373765D01*
X3844Y373590D01*
X3842Y373572D01*
X3838Y373555D01*
X3811Y373224D01*
X3811Y312608D01*
X3813Y312590D01*
X3811Y312572D01*
X3832Y312390D01*
X3851Y312207D01*
X3856Y312190D01*
X3858Y312173D01*
X3915Y311998D01*
X3969Y311822D01*
X3977Y311807D01*
X3983Y311790D01*
X4073Y311630D01*
X4161Y311468D01*
X4172Y311455D01*
X4181Y311439D01*
X4301Y311300D01*
X4418Y311159D01*
X4432Y311148D01*
X4444Y311134D01*
X4589Y311022D01*
X4732Y310907D01*
X4748Y310899D01*
X4762Y310888D01*
X4927Y310806D01*
X5089Y310721D01*
X5106Y310716D01*
X5122Y310708D01*
X5301Y310661D01*
X5476Y310610D01*
X5494Y310608D01*
X5511Y310604D01*
X5842Y310577D01*
X7799Y310577D01*
X14290Y307888D01*
X15350Y306828D01*
X15364Y306817D01*
X15375Y306803D01*
X15519Y306690D01*
X15661Y306573D01*
X15677Y306565D01*
X15691Y306554D01*
X15855Y306471D01*
X16017Y306385D01*
X16034Y306380D01*
X16050Y306371D01*
X16227Y306322D01*
X16403Y306270D01*
X16421Y306268D01*
X16438Y306263D01*
X16621Y306250D01*
X16804Y306233D01*
X16822Y306235D01*
X16839Y306234D01*
X17021Y306257D01*
X17204Y306277D01*
X17221Y306282D01*
X17239Y306284D01*
X17413Y306343D01*
X17588Y306398D01*
X17604Y306407D01*
X17620Y306413D01*
X17779Y306504D01*
X17940Y306593D01*
X17954Y306605D01*
X17969Y306614D01*
X18222Y306828D01*
X19282Y307888D01*
X25773Y310577D01*
X32799Y310577D01*
X39290Y307888D01*
X44258Y302920D01*
X46947Y296429D01*
X46947Y289403D01*
X44258Y282912D01*
X42182Y280836D01*
X42177Y280829D01*
X42170Y280824D01*
X42050Y280674D01*
X41927Y280525D01*
X41923Y280517D01*
X41917Y280510D01*
X41829Y280340D01*
X41739Y280169D01*
X41736Y280161D01*
X41732Y280153D01*
X41679Y279968D01*
X41624Y279783D01*
X41623Y279774D01*
X41621Y279766D01*
X41605Y279575D01*
X41587Y279382D01*
X41588Y279373D01*
X41588Y279364D01*
X41610Y279175D01*
X41631Y278982D01*
X41634Y278973D01*
X41635Y278965D01*
X41694Y278783D01*
X41752Y278598D01*
X41757Y278590D01*
X41759Y278582D01*
X41854Y278413D01*
X41947Y278246D01*
X41953Y278239D01*
X41957Y278231D01*
X42083Y278085D01*
X42208Y277939D01*
X42215Y277933D01*
X42221Y277927D01*
X42372Y277809D01*
X42524Y277689D01*
X42532Y277685D01*
X42539Y277680D01*
X42711Y277594D01*
X42883Y277507D01*
X42891Y277504D01*
X42899Y277500D01*
X43085Y277450D01*
X43270Y277399D01*
X43279Y277398D01*
X43288Y277396D01*
X43619Y277369D01*
X67271Y277369D01*
X67280Y277370D01*
G37*
%LPC*%
G36*
X63485Y40479D02*
X63485Y40479D01*
X63467Y40481D01*
X63450Y40485D01*
X63119Y40512D01*
X52052Y40512D01*
X52103Y40836D01*
X52671Y42586D01*
X53506Y44224D01*
X54587Y45712D01*
X55888Y47013D01*
X57376Y48094D01*
X57397Y48104D01*
X57507Y48175D01*
X57622Y48238D01*
X57676Y48283D01*
X57736Y48322D01*
X57830Y48413D01*
X57930Y48497D01*
X57974Y48553D01*
X58025Y48602D01*
X58099Y48710D01*
X58181Y48812D01*
X58213Y48875D01*
X58254Y48933D01*
X58305Y49054D01*
X58365Y49170D01*
X58384Y49238D01*
X58412Y49303D01*
X58439Y49432D01*
X58474Y49557D01*
X58480Y49628D01*
X58494Y49698D01*
X58495Y49829D01*
X58506Y49959D01*
X58497Y50029D01*
X58498Y50100D01*
X58473Y50229D01*
X58457Y50358D01*
X58435Y50426D01*
X58421Y50495D01*
X58371Y50617D01*
X58330Y50741D01*
X58295Y50802D01*
X58268Y50868D01*
X58196Y50977D01*
X58131Y51090D01*
X58084Y51144D01*
X58045Y51203D01*
X57952Y51295D01*
X57866Y51394D01*
X57810Y51437D01*
X57760Y51487D01*
X57651Y51560D01*
X57547Y51639D01*
X57474Y51677D01*
X57425Y51710D01*
X57354Y51739D01*
X57252Y51791D01*
X56018Y52302D01*
X52302Y56018D01*
X50291Y60873D01*
X50291Y66127D01*
X52302Y70982D01*
X56084Y74764D01*
X56095Y74778D01*
X56109Y74789D01*
X56222Y74933D01*
X56339Y75075D01*
X56347Y75091D01*
X56358Y75105D01*
X56441Y75268D01*
X56527Y75431D01*
X56532Y75448D01*
X56541Y75464D01*
X56590Y75641D01*
X56642Y75817D01*
X56644Y75835D01*
X56649Y75852D01*
X56662Y76035D01*
X56679Y76218D01*
X56677Y76236D01*
X56678Y76253D01*
X56655Y76435D01*
X56635Y76618D01*
X56630Y76635D01*
X56628Y76653D01*
X56569Y76827D01*
X56514Y77002D01*
X56505Y77018D01*
X56499Y77034D01*
X56407Y77194D01*
X56319Y77354D01*
X56307Y77368D01*
X56298Y77383D01*
X56084Y77636D01*
X52302Y81418D01*
X50291Y86273D01*
X50291Y91527D01*
X52302Y96382D01*
X56084Y100164D01*
X56095Y100178D01*
X56109Y100189D01*
X56222Y100333D01*
X56339Y100475D01*
X56347Y100491D01*
X56358Y100505D01*
X56442Y100669D01*
X56527Y100831D01*
X56532Y100848D01*
X56541Y100864D01*
X56590Y101041D01*
X56642Y101217D01*
X56644Y101235D01*
X56649Y101252D01*
X56662Y101435D01*
X56679Y101618D01*
X56677Y101636D01*
X56678Y101653D01*
X56655Y101835D01*
X56635Y102018D01*
X56630Y102035D01*
X56628Y102053D01*
X56569Y102227D01*
X56514Y102402D01*
X56505Y102418D01*
X56499Y102434D01*
X56407Y102594D01*
X56319Y102754D01*
X56307Y102768D01*
X56298Y102783D01*
X56084Y103036D01*
X52302Y106818D01*
X50291Y111673D01*
X50291Y116927D01*
X52302Y121782D01*
X56084Y125564D01*
X56095Y125578D01*
X56109Y125589D01*
X56222Y125733D01*
X56339Y125875D01*
X56347Y125891D01*
X56358Y125905D01*
X56442Y126069D01*
X56527Y126231D01*
X56532Y126248D01*
X56541Y126264D01*
X56590Y126441D01*
X56642Y126617D01*
X56644Y126635D01*
X56649Y126652D01*
X56662Y126835D01*
X56679Y127018D01*
X56677Y127036D01*
X56678Y127053D01*
X56655Y127235D01*
X56635Y127418D01*
X56630Y127435D01*
X56628Y127453D01*
X56569Y127627D01*
X56514Y127802D01*
X56505Y127818D01*
X56499Y127834D01*
X56407Y127994D01*
X56319Y128154D01*
X56307Y128168D01*
X56298Y128183D01*
X56084Y128436D01*
X52302Y132218D01*
X50291Y137073D01*
X50291Y142327D01*
X52302Y147182D01*
X56084Y150964D01*
X56095Y150978D01*
X56109Y150989D01*
X56222Y151133D01*
X56339Y151275D01*
X56347Y151291D01*
X56358Y151305D01*
X56442Y151469D01*
X56527Y151631D01*
X56532Y151648D01*
X56541Y151664D01*
X56590Y151841D01*
X56642Y152017D01*
X56644Y152035D01*
X56649Y152052D01*
X56662Y152235D01*
X56679Y152418D01*
X56677Y152436D01*
X56678Y152453D01*
X56655Y152635D01*
X56635Y152818D01*
X56630Y152835D01*
X56628Y152853D01*
X56569Y153027D01*
X56514Y153202D01*
X56505Y153218D01*
X56499Y153234D01*
X56407Y153394D01*
X56319Y153554D01*
X56307Y153568D01*
X56298Y153583D01*
X56084Y153836D01*
X52302Y157618D01*
X50291Y162473D01*
X50291Y167727D01*
X52302Y172582D01*
X56018Y176298D01*
X60873Y178309D01*
X66127Y178309D01*
X70982Y176298D01*
X74698Y172582D01*
X76709Y167727D01*
X76709Y162473D01*
X74698Y157618D01*
X70916Y153836D01*
X70905Y153823D01*
X70891Y153811D01*
X70777Y153667D01*
X70661Y153525D01*
X70653Y153509D01*
X70642Y153495D01*
X70558Y153331D01*
X70473Y153169D01*
X70468Y153152D01*
X70459Y153136D01*
X70410Y152959D01*
X70358Y152783D01*
X70356Y152765D01*
X70351Y152748D01*
X70338Y152565D01*
X70321Y152382D01*
X70323Y152364D01*
X70322Y152347D01*
X70345Y152165D01*
X70365Y151982D01*
X70370Y151965D01*
X70372Y151947D01*
X70431Y151774D01*
X70486Y151598D01*
X70495Y151582D01*
X70501Y151566D01*
X70593Y151406D01*
X70681Y151246D01*
X70693Y151232D01*
X70702Y151217D01*
X70916Y150964D01*
X74698Y147182D01*
X76709Y142327D01*
X76709Y137073D01*
X74698Y132218D01*
X70916Y128436D01*
X70905Y128423D01*
X70891Y128411D01*
X70777Y128267D01*
X70661Y128125D01*
X70653Y128109D01*
X70642Y128095D01*
X70558Y127931D01*
X70473Y127769D01*
X70468Y127752D01*
X70459Y127736D01*
X70410Y127559D01*
X70358Y127383D01*
X70356Y127365D01*
X70351Y127348D01*
X70338Y127165D01*
X70321Y126982D01*
X70323Y126964D01*
X70322Y126947D01*
X70345Y126765D01*
X70365Y126582D01*
X70370Y126565D01*
X70372Y126547D01*
X70431Y126374D01*
X70486Y126198D01*
X70495Y126182D01*
X70501Y126166D01*
X70593Y126006D01*
X70681Y125846D01*
X70693Y125832D01*
X70702Y125817D01*
X70916Y125564D01*
X74698Y121782D01*
X76709Y116927D01*
X76709Y111673D01*
X74698Y106818D01*
X70916Y103036D01*
X70905Y103023D01*
X70891Y103011D01*
X70777Y102867D01*
X70661Y102725D01*
X70653Y102709D01*
X70642Y102695D01*
X70558Y102531D01*
X70473Y102369D01*
X70468Y102352D01*
X70459Y102336D01*
X70410Y102159D01*
X70358Y101983D01*
X70356Y101965D01*
X70351Y101948D01*
X70338Y101765D01*
X70321Y101582D01*
X70323Y101564D01*
X70322Y101547D01*
X70345Y101365D01*
X70365Y101182D01*
X70370Y101165D01*
X70372Y101147D01*
X70431Y100974D01*
X70486Y100798D01*
X70495Y100782D01*
X70501Y100766D01*
X70593Y100606D01*
X70681Y100446D01*
X70693Y100432D01*
X70702Y100417D01*
X70916Y100164D01*
X74698Y96382D01*
X76709Y91527D01*
X76709Y86273D01*
X74698Y81418D01*
X70916Y77636D01*
X70905Y77623D01*
X70891Y77611D01*
X70777Y77467D01*
X70661Y77325D01*
X70653Y77309D01*
X70642Y77295D01*
X70558Y77131D01*
X70473Y76969D01*
X70468Y76952D01*
X70459Y76936D01*
X70410Y76759D01*
X70358Y76583D01*
X70356Y76565D01*
X70351Y76548D01*
X70338Y76365D01*
X70321Y76182D01*
X70323Y76164D01*
X70322Y76147D01*
X70345Y75965D01*
X70365Y75782D01*
X70370Y75765D01*
X70372Y75747D01*
X70431Y75573D01*
X70486Y75398D01*
X70495Y75382D01*
X70501Y75366D01*
X70593Y75206D01*
X70681Y75046D01*
X70693Y75032D01*
X70702Y75017D01*
X70916Y74764D01*
X74698Y70982D01*
X76709Y66127D01*
X76709Y60873D01*
X74698Y56018D01*
X70982Y52302D01*
X69748Y51791D01*
X69633Y51729D01*
X69513Y51676D01*
X69456Y51634D01*
X69393Y51601D01*
X69292Y51517D01*
X69186Y51441D01*
X69137Y51389D01*
X69083Y51344D01*
X69000Y51243D01*
X68911Y51147D01*
X68874Y51087D01*
X68829Y51032D01*
X68768Y50916D01*
X68699Y50805D01*
X68675Y50738D01*
X68642Y50675D01*
X68605Y50550D01*
X68560Y50427D01*
X68549Y50357D01*
X68529Y50289D01*
X68517Y50159D01*
X68497Y50029D01*
X68500Y49958D01*
X68494Y49888D01*
X68509Y49758D01*
X68514Y49627D01*
X68531Y49558D01*
X68539Y49488D01*
X68579Y49363D01*
X68611Y49236D01*
X68641Y49172D01*
X68662Y49104D01*
X68726Y48990D01*
X68782Y48872D01*
X68824Y48815D01*
X68859Y48753D01*
X68944Y48653D01*
X69022Y48548D01*
X69074Y48501D01*
X69121Y48447D01*
X69224Y48366D01*
X69321Y48279D01*
X69390Y48236D01*
X69438Y48199D01*
X69506Y48164D01*
X69603Y48104D01*
X69624Y48094D01*
X71112Y47013D01*
X72413Y45712D01*
X73494Y44224D01*
X74329Y42586D01*
X74897Y40836D01*
X74948Y40512D01*
X63881Y40512D01*
X63863Y40510D01*
X63846Y40512D01*
X63663Y40491D01*
X63501Y40474D01*
X63485Y40479D01*
G37*
%LPD*%
G36*
X94969Y374404D02*
X94969Y374404D01*
X95074Y374404D01*
X95946Y374480D01*
X96034Y374462D01*
X96174Y374424D01*
X96238Y374419D01*
X96286Y374409D01*
X96369Y374408D01*
X96504Y374397D01*
X110933Y374397D01*
X110960Y374399D01*
X110987Y374397D01*
X111160Y374419D01*
X111334Y374437D01*
X111359Y374444D01*
X111386Y374448D01*
X111552Y374503D01*
X111719Y374555D01*
X111742Y374568D01*
X111768Y374576D01*
X111919Y374663D01*
X112073Y374747D01*
X112093Y374764D01*
X112117Y374777D01*
X112370Y374992D01*
X113958Y376580D01*
X113975Y376601D01*
X113996Y376619D01*
X114103Y376757D01*
X114213Y376892D01*
X114226Y376916D01*
X114242Y376937D01*
X114320Y377094D01*
X114402Y377248D01*
X114410Y377273D01*
X114422Y377297D01*
X114467Y377467D01*
X114517Y377634D01*
X114519Y377660D01*
X114526Y377686D01*
X114553Y378017D01*
X114553Y407613D01*
X115481Y409854D01*
X117482Y411854D01*
X133008Y427380D01*
X133025Y427401D01*
X133046Y427419D01*
X133153Y427557D01*
X133263Y427692D01*
X133276Y427716D01*
X133292Y427737D01*
X133370Y427893D01*
X133452Y428048D01*
X133460Y428073D01*
X133472Y428097D01*
X133517Y428266D01*
X133567Y428434D01*
X133569Y428460D01*
X133576Y428486D01*
X133603Y428817D01*
X133603Y431921D01*
X133601Y431943D01*
X133603Y431966D01*
X133581Y432143D01*
X133563Y432322D01*
X133557Y432343D01*
X133554Y432365D01*
X133498Y432535D01*
X133445Y432706D01*
X133435Y432726D01*
X133428Y432747D01*
X133339Y432903D01*
X133253Y433061D01*
X133239Y433078D01*
X133228Y433097D01*
X133110Y433233D01*
X132996Y433370D01*
X132978Y433384D01*
X132964Y433401D01*
X132821Y433510D01*
X132682Y433622D01*
X132662Y433632D01*
X132644Y433646D01*
X132537Y433701D01*
X128933Y437306D01*
X128039Y439465D01*
X127977Y439580D01*
X127923Y439699D01*
X127882Y439757D01*
X127848Y439819D01*
X127765Y439920D01*
X127689Y440027D01*
X127637Y440075D01*
X127592Y440130D01*
X127491Y440212D01*
X127395Y440302D01*
X127334Y440339D01*
X127279Y440384D01*
X127164Y440444D01*
X127052Y440513D01*
X126986Y440538D01*
X126923Y440571D01*
X126798Y440607D01*
X126675Y440653D01*
X126605Y440664D01*
X126536Y440684D01*
X126406Y440695D01*
X126277Y440715D01*
X126206Y440712D01*
X126135Y440718D01*
X126006Y440704D01*
X125875Y440698D01*
X125806Y440681D01*
X125735Y440673D01*
X125611Y440633D01*
X125484Y440602D01*
X125420Y440572D01*
X125352Y440550D01*
X125238Y440486D01*
X125119Y440431D01*
X125062Y440388D01*
X125000Y440354D01*
X124901Y440269D01*
X124796Y440191D01*
X124748Y440138D01*
X124695Y440092D01*
X124614Y439989D01*
X124526Y439892D01*
X124483Y439822D01*
X124446Y439775D01*
X124412Y439707D01*
X124352Y439609D01*
X123859Y438642D01*
X122825Y437219D01*
X121581Y435975D01*
X120158Y434941D01*
X118591Y434142D01*
X116917Y433598D01*
X116522Y433536D01*
X116522Y444309D01*
X116520Y444327D01*
X116521Y444345D01*
X116500Y444527D01*
X116482Y444710D01*
X116477Y444727D01*
X116475Y444745D01*
X116418Y444919D01*
X116364Y445095D01*
X116355Y445111D01*
X116350Y445127D01*
X116259Y445288D01*
X116172Y445449D01*
X116161Y445463D01*
X116152Y445478D01*
X116032Y445617D01*
X115914Y445758D01*
X115900Y445769D01*
X115889Y445783D01*
X115744Y445895D01*
X115600Y446010D01*
X115585Y446019D01*
X115571Y446030D01*
X115406Y446112D01*
X115243Y446196D01*
X115226Y446201D01*
X115210Y446209D01*
X115032Y446257D01*
X114856Y446307D01*
X114838Y446309D01*
X114821Y446313D01*
X114491Y446341D01*
X114109Y446341D01*
X114092Y446339D01*
X114074Y446340D01*
X113892Y446319D01*
X113709Y446301D01*
X113692Y446295D01*
X113674Y446293D01*
X113499Y446236D01*
X113324Y446183D01*
X113308Y446174D01*
X113291Y446168D01*
X113131Y446078D01*
X112970Y445991D01*
X112956Y445979D01*
X112941Y445971D01*
X112801Y445850D01*
X112661Y445733D01*
X112649Y445719D01*
X112636Y445707D01*
X112523Y445562D01*
X112408Y445419D01*
X112400Y445403D01*
X112389Y445389D01*
X112307Y445224D01*
X112223Y445062D01*
X112218Y445045D01*
X112210Y445029D01*
X112162Y444851D01*
X112111Y444675D01*
X112110Y444657D01*
X112105Y444640D01*
X112078Y444309D01*
X112078Y433536D01*
X111683Y433598D01*
X110009Y434142D01*
X108442Y434941D01*
X107019Y435975D01*
X105775Y437219D01*
X104741Y438642D01*
X104248Y439609D01*
X104177Y439720D01*
X104115Y439834D01*
X104069Y439888D01*
X104031Y439948D01*
X103940Y440042D01*
X103855Y440142D01*
X103800Y440187D01*
X103751Y440238D01*
X103643Y440312D01*
X103541Y440393D01*
X103478Y440426D01*
X103419Y440466D01*
X103299Y440518D01*
X103182Y440577D01*
X103114Y440597D01*
X103049Y440625D01*
X102921Y440651D01*
X102795Y440687D01*
X102724Y440692D01*
X102655Y440707D01*
X102524Y440708D01*
X102394Y440718D01*
X102323Y440709D01*
X102252Y440710D01*
X102124Y440685D01*
X101994Y440669D01*
X101927Y440647D01*
X101857Y440634D01*
X101736Y440584D01*
X101612Y440543D01*
X101550Y440508D01*
X101484Y440481D01*
X101376Y440408D01*
X101262Y440343D01*
X101208Y440297D01*
X101149Y440257D01*
X101057Y440165D01*
X100958Y440079D01*
X100915Y440023D01*
X100865Y439972D01*
X100793Y439864D01*
X100713Y439760D01*
X100676Y439687D01*
X100642Y439637D01*
X100614Y439566D01*
X100561Y439465D01*
X99667Y437306D01*
X96094Y433733D01*
X91426Y431799D01*
X86316Y431799D01*
X86145Y431851D01*
X86122Y431853D01*
X86101Y431859D01*
X85922Y431872D01*
X85744Y431889D01*
X85722Y431887D01*
X85699Y431888D01*
X85521Y431866D01*
X85343Y431848D01*
X85322Y431841D01*
X85300Y431838D01*
X85130Y431781D01*
X84959Y431728D01*
X84939Y431717D01*
X84918Y431710D01*
X84762Y431620D01*
X84606Y431534D01*
X84589Y431520D01*
X84569Y431509D01*
X84316Y431294D01*
X80919Y427897D01*
X80869Y427836D01*
X80731Y427680D01*
X65897Y407902D01*
X65868Y407853D01*
X65831Y407808D01*
X65764Y407681D01*
X65689Y407558D01*
X65669Y407503D01*
X65642Y407452D01*
X65601Y407315D01*
X65553Y407179D01*
X65544Y407122D01*
X65528Y407067D01*
X65515Y406923D01*
X65494Y406781D01*
X65497Y406723D01*
X65491Y406666D01*
X65507Y406522D01*
X65514Y406379D01*
X65528Y406323D01*
X65535Y406265D01*
X65578Y406128D01*
X65614Y405988D01*
X65639Y405937D01*
X65656Y405882D01*
X65726Y405755D01*
X65788Y405626D01*
X65823Y405580D01*
X65851Y405529D01*
X65944Y405419D01*
X66031Y405304D01*
X66074Y405266D01*
X66112Y405222D01*
X66225Y405133D01*
X66332Y405037D01*
X66382Y405008D01*
X66427Y404973D01*
X66556Y404907D01*
X66680Y404835D01*
X66735Y404816D01*
X66786Y404790D01*
X66925Y404752D01*
X67062Y404705D01*
X67119Y404698D01*
X67174Y404682D01*
X67318Y404672D01*
X67461Y404653D01*
X67518Y404657D01*
X67576Y404653D01*
X67719Y404671D01*
X67862Y404681D01*
X67918Y404696D01*
X67975Y404703D01*
X68112Y404749D01*
X68251Y404787D01*
X68302Y404813D01*
X68357Y404831D01*
X68482Y404903D01*
X68610Y404968D01*
X68656Y405004D01*
X68706Y405032D01*
X68865Y405167D01*
X68927Y405216D01*
X68942Y405233D01*
X68959Y405247D01*
X70611Y406899D01*
X76240Y409231D01*
X82332Y409231D01*
X87961Y406899D01*
X92269Y402591D01*
X94601Y396962D01*
X94601Y390870D01*
X92269Y385241D01*
X88881Y381852D01*
X88869Y381838D01*
X88856Y381827D01*
X88742Y381683D01*
X88626Y381541D01*
X88617Y381525D01*
X88606Y381511D01*
X88523Y381347D01*
X88437Y381185D01*
X88432Y381168D01*
X88424Y381152D01*
X88374Y380975D01*
X88322Y380799D01*
X88320Y380781D01*
X88316Y380764D01*
X88302Y380581D01*
X88286Y380398D01*
X88288Y380380D01*
X88286Y380363D01*
X88309Y380181D01*
X88329Y379998D01*
X88334Y379981D01*
X88337Y379963D01*
X88395Y379789D01*
X88451Y379614D01*
X88459Y379598D01*
X88465Y379582D01*
X88557Y379422D01*
X88645Y379262D01*
X88657Y379248D01*
X88666Y379233D01*
X88881Y378980D01*
X92277Y375583D01*
X92350Y375454D01*
X92435Y375296D01*
X92449Y375279D01*
X92460Y375259D01*
X92577Y375124D01*
X92691Y374985D01*
X92708Y374971D01*
X92723Y374954D01*
X92865Y374845D01*
X93004Y374732D01*
X93023Y374721D01*
X93041Y374708D01*
X93202Y374628D01*
X93360Y374545D01*
X93382Y374538D01*
X93402Y374528D01*
X93575Y374482D01*
X93747Y374432D01*
X93769Y374430D01*
X93790Y374424D01*
X94121Y374397D01*
X94898Y374397D01*
X94969Y374404D01*
G37*
%LPC*%
G36*
X76599Y200599D02*
X76599Y200599D01*
X76599Y210641D01*
X85087Y210641D01*
X87037Y210332D01*
X88914Y209722D01*
X90673Y208826D01*
X92270Y207666D01*
X93666Y206270D01*
X94826Y204673D01*
X95722Y202914D01*
X96332Y201037D01*
X96401Y200599D01*
X76599Y200599D01*
G37*
%LPD*%
%LPC*%
G36*
X51799Y200599D02*
X51799Y200599D01*
X51868Y201037D01*
X52478Y202914D01*
X53374Y204673D01*
X54534Y206270D01*
X55930Y207666D01*
X57527Y208826D01*
X59286Y209722D01*
X61163Y210332D01*
X63113Y210641D01*
X71601Y210641D01*
X71601Y200599D01*
X51799Y200599D01*
G37*
%LPD*%
%LPC*%
G36*
X76599Y185559D02*
X76599Y185559D01*
X76599Y195601D01*
X96401Y195601D01*
X96332Y195163D01*
X95722Y193286D01*
X94826Y191527D01*
X93666Y189930D01*
X92270Y188534D01*
X90673Y187374D01*
X88914Y186478D01*
X87037Y185868D01*
X85087Y185559D01*
X76599Y185559D01*
G37*
%LPD*%
%LPC*%
G36*
X63113Y185559D02*
X63113Y185559D01*
X61163Y185868D01*
X59286Y186478D01*
X57527Y187374D01*
X55930Y188534D01*
X54534Y189930D01*
X53374Y191527D01*
X52478Y193286D01*
X51868Y195163D01*
X51799Y195601D01*
X71601Y195601D01*
X71601Y185559D01*
X63113Y185559D01*
G37*
%LPD*%
%LPC*%
G36*
X33035Y346665D02*
X33035Y346665D01*
X33035Y357690D01*
X34196Y357379D01*
X36041Y356614D01*
X37771Y355615D01*
X39357Y354399D01*
X40769Y352987D01*
X41985Y351401D01*
X42984Y349671D01*
X43749Y347826D01*
X44060Y346665D01*
X33035Y346665D01*
G37*
%LPD*%
%LPC*%
G36*
X14512Y346665D02*
X14512Y346665D01*
X14823Y347826D01*
X15588Y349671D01*
X16587Y351401D01*
X17803Y352987D01*
X19215Y354399D01*
X20801Y355615D01*
X22531Y356614D01*
X24376Y357379D01*
X25537Y357690D01*
X25537Y346665D01*
X14512Y346665D01*
G37*
%LPD*%
%LPC*%
G36*
X33035Y339167D02*
X33035Y339167D01*
X44060Y339167D01*
X43749Y338006D01*
X42984Y336161D01*
X41985Y334431D01*
X40769Y332845D01*
X39357Y331433D01*
X37771Y330217D01*
X36041Y329218D01*
X34196Y328453D01*
X33035Y328142D01*
X33035Y339167D01*
G37*
%LPD*%
%LPC*%
G36*
X24376Y328453D02*
X24376Y328453D01*
X22531Y329218D01*
X20801Y330217D01*
X19215Y331433D01*
X17803Y332845D01*
X16587Y334431D01*
X15588Y336161D01*
X14823Y338006D01*
X14512Y339167D01*
X25537Y339167D01*
X25537Y328142D01*
X24376Y328453D01*
G37*
%LPD*%
%LPC*%
G36*
X140715Y288289D02*
X140715Y288289D01*
X140755Y288546D01*
X141336Y290333D01*
X142189Y292007D01*
X143294Y293528D01*
X144622Y294856D01*
X146143Y295961D01*
X147817Y296814D01*
X149604Y297395D01*
X149861Y297435D01*
X149861Y288289D01*
X140715Y288289D01*
G37*
%LPD*%
%LPC*%
G36*
X421322Y268922D02*
X421322Y268922D01*
X421322Y277921D01*
X421777Y277849D01*
X423488Y277293D01*
X425091Y276476D01*
X426547Y275419D01*
X427819Y274147D01*
X428876Y272691D01*
X429693Y271088D01*
X430249Y269377D01*
X430321Y268922D01*
X421322Y268922D01*
G37*
%LPD*%
%LPC*%
G36*
X421322Y264478D02*
X421322Y264478D01*
X430321Y264478D01*
X430249Y264023D01*
X429693Y262312D01*
X428876Y260709D01*
X427819Y259253D01*
X426547Y257981D01*
X425091Y256924D01*
X423488Y256107D01*
X421777Y255551D01*
X421322Y255479D01*
X421322Y264478D01*
G37*
%LPD*%
%LPC*%
G36*
X65912Y35688D02*
X65912Y35688D01*
X74948Y35688D01*
X74897Y35364D01*
X74329Y33614D01*
X73494Y31976D01*
X72413Y30488D01*
X71112Y29187D01*
X69624Y28106D01*
X67986Y27271D01*
X66236Y26703D01*
X65912Y26652D01*
X65912Y35688D01*
G37*
%LPD*%
%LPC*%
G36*
X60764Y26703D02*
X60764Y26703D01*
X59014Y27271D01*
X57376Y28106D01*
X55888Y29187D01*
X54587Y30488D01*
X53506Y31976D01*
X52671Y33614D01*
X52103Y35364D01*
X52052Y35688D01*
X61088Y35688D01*
X61088Y26652D01*
X60764Y26703D01*
G37*
%LPD*%
D10*
X203200Y244475D03*
D11*
X219075Y279400D03*
D12*
X393700Y266700D03*
D13*
X29286Y342916D03*
D14*
X79286Y366916D03*
X79286Y318916D03*
X79286Y291916D03*
X79286Y393916D03*
D15*
X152400Y285750D03*
X177800Y285750D03*
D16*
X88900Y444500D03*
X114300Y444500D03*
X139700Y444500D03*
D17*
X104100Y258100D02*
X104100Y238100D01*
X41100Y238100D02*
X41100Y258100D01*
X64100Y198100D02*
X84100Y198100D01*
D18*
X317500Y0D03*
X342900Y0D03*
X368300Y0D03*
X393700Y0D03*
X419100Y0D03*
X444500Y0D03*
X165100Y0D03*
X190500Y0D03*
X215900Y0D03*
X241300Y0D03*
X266700Y0D03*
X292100Y0D03*
X63500Y165100D03*
X63500Y139700D03*
X63500Y114300D03*
X63500Y88900D03*
X63500Y63500D03*
X63500Y38100D03*
X234950Y57150D03*
X234950Y82550D03*
X234950Y107950D03*
X234950Y133350D03*
X234950Y158750D03*
X234950Y184150D03*
X63500Y0D03*
X88900Y0D03*
X114300Y0D03*
X139700Y0D03*
D12*
X419100Y266700D03*
D19*
X476250Y387350D03*
D20*
X476250Y355600D01*
X438150Y355600D01*
X393700Y355600D01*
X395200Y342550D01*
D19*
X395200Y342550D03*
X361852Y375060D03*
D20*
X362360Y375060D01*
X361950Y374650D01*
X381000Y355600D01*
X387350Y355600D01*
X393700Y355600D01*
D19*
X388874Y382524D03*
D20*
X387350Y355600D01*
D19*
X450850Y412750D03*
D20*
X400050Y412750D01*
X400050Y395224D01*
X388874Y382524D01*
D19*
X349250Y412750D03*
D20*
X400050Y412750D01*
D19*
X438150Y374650D03*
D20*
X438150Y355600D01*
D19*
X368300Y298450D03*
X289560Y406908D03*
D21*
X292100Y412750D01*
X306070Y431038D01*
X349504Y431038D01*
X349250Y412750D01*
D20*
X368300Y311150D02*
X368300Y298450D01*
X368300Y311150D02*
X381000Y323850D01*
X381000Y330200D01*
X395200Y342550D01*
D19*
X292100Y323850D03*
D20*
X298450Y292100D02*
X330200Y292100D01*
X336550Y285750D01*
D19*
X336550Y285750D03*
D20*
X292100Y323850D02*
X279400Y311150D01*
X279400Y266700D01*
X279400Y260350D01*
X285750Y254000D01*
X349250Y254000D01*
X355600Y254000D01*
X361950Y260350D01*
X361950Y298450D01*
X368300Y298450D01*
X298450Y292100D02*
X292100Y298450D01*
X292100Y323850D01*
D22*
X95250Y31750D02*
X63500Y0D01*
X95250Y31750D02*
X95250Y101600D01*
X101600Y107950D01*
X120650Y107950D01*
D19*
X196850Y107950D03*
D22*
X165100Y107950D02*
X120650Y107950D01*
X165100Y107950D02*
X196850Y107950D01*
D19*
X165100Y165100D03*
D22*
X165100Y107950D01*
D19*
X349250Y190500D03*
D21*
X349250Y254000D01*
D19*
X260350Y234950D03*
D22*
X260350Y247650D01*
X279400Y266700D01*
D21*
X63500Y38100D02*
X63500Y0D01*
D23*
X120650Y127000D03*
D20*
X120650Y107950D01*
D23*
X355600Y152400D03*
X381000Y152400D03*
X355600Y127000D03*
X381000Y127000D03*
X368300Y139700D03*
X368300Y120650D03*
X368300Y158750D03*
D22*
X139700Y25400D02*
X114300Y0D01*
X139700Y25400D02*
X139700Y82550D01*
D23*
X177800Y82550D03*
D22*
X139700Y82550D01*
D19*
X336550Y361950D03*
D22*
X38084Y342916D02*
X29286Y342916D01*
X38084Y342916D02*
X50800Y317500D01*
X50800Y279400D01*
X69850Y273050D01*
D19*
X133350Y330200D03*
D21*
X127000Y330200D01*
X120650Y330200D01*
X120650Y279400D01*
D22*
X146050Y285750D01*
X152400Y285750D01*
D19*
X234950Y355600D03*
X162560Y431292D03*
D21*
X165100Y428752D02*
X165100Y355600D01*
X127000Y355600D01*
X127000Y330200D01*
X165100Y428752D02*
X162560Y431292D01*
X292100Y361950D02*
X336550Y361950D01*
D20*
X292100Y361950D02*
X292100Y361696D01*
D21*
X290322Y359918D01*
D19*
X290322Y359918D03*
D20*
X235458Y355600D02*
X234950Y355600D01*
X235458Y355600D02*
X239268Y359410D01*
X289814Y359410D01*
D21*
X290322Y359918D01*
D22*
X89662Y273050D02*
X69850Y273050D01*
X89662Y273050D02*
X104394Y281178D01*
X118872Y281178D01*
X120650Y279400D01*
X79286Y318916D02*
X79286Y320764D01*
X57150Y330200D01*
X57150Y406400D01*
X76200Y431800D01*
X88900Y444500D01*
X120650Y406400D02*
X139700Y425450D01*
X120650Y406400D02*
X120650Y374650D01*
X114300Y368300D01*
X95250Y368300D02*
X79286Y366916D01*
X95250Y368300D02*
X114300Y368300D01*
X139700Y425450D02*
X139700Y444500D01*
D19*
X336042Y421386D03*
D20*
X336550Y406400D01*
X349250Y393700D01*
X349250Y311150D01*
X342900Y311150D01*
D19*
X342900Y311150D03*
X288798Y281940D03*
D20*
X289560Y281940D01*
X298450Y273050D01*
X342900Y273050D01*
X349250Y279400D01*
X349250Y311150D01*
D19*
X336550Y374650D03*
D20*
X330200Y368300D01*
D21*
X184150Y368300D01*
D22*
X184150Y330200D01*
D19*
X184150Y330200D03*
X336550Y387350D03*
D20*
X323850Y374650D01*
D21*
X209550Y374650D01*
D22*
X184150Y400050D01*
D19*
X184150Y400050D03*
X288544Y339598D03*
D22*
X279146Y336550D01*
X234950Y336550D01*
D19*
X234950Y336550D03*
X382524Y299974D03*
D20*
X375158Y279146D01*
D19*
X375158Y279146D03*
D21*
X190500Y25400D02*
X165100Y0D01*
X190500Y25400D02*
X223520Y25400D01*
X256032Y57912D01*
D24*
X256032Y57912D03*
D21*
X190500Y6350D02*
X190500Y0D01*
X190500Y6350D02*
X203200Y19050D01*
X226060Y19050D01*
X245110Y38100D01*
X260350Y38100D01*
D24*
X271526Y66040D03*
D21*
X266700Y44450D02*
X260350Y38100D01*
X266700Y44450D02*
X266700Y61214D01*
X271526Y66040D01*
X241300Y6350D02*
X241300Y0D01*
X241300Y6350D02*
X254000Y19050D01*
X266700Y19050D01*
X298450Y50800D01*
X298450Y63500D01*
X292100Y69850D01*
X292100Y139700D01*
X298450Y146050D01*
D19*
X298450Y146050D03*
X292100Y165100D03*
D21*
X292100Y158750D01*
X285750Y152400D01*
X285750Y50800D01*
X260350Y25400D01*
X241300Y25400D01*
X215900Y0D01*
X266700Y0D02*
X273050Y12700D01*
X304800Y44450D01*
X304800Y69850D01*
X298450Y76200D01*
X298450Y95250D01*
X304800Y101600D01*
X304800Y127000D01*
D19*
X304800Y127000D03*
X336550Y82550D03*
D21*
X342900Y76200D02*
X342900Y0D01*
X342900Y76200D02*
X336550Y82550D01*
X323850Y88900D02*
X317500Y101600D01*
D19*
X317500Y101600D03*
D21*
X317500Y6350D02*
X317500Y0D01*
X317500Y6350D02*
X323850Y12700D01*
X323850Y88900D01*
X317500Y76200D02*
X311150Y82550D01*
D19*
X311150Y82550D03*
D21*
X317500Y25400D02*
X292100Y0D01*
X317500Y25400D02*
X317500Y76200D01*
X431800Y31750D02*
X431800Y173990D01*
X425450Y175514D01*
D19*
X425450Y175514D03*
D21*
X393700Y12700D02*
X393700Y0D01*
X393700Y12700D02*
X400050Y19050D01*
X419100Y19050D01*
X431800Y31750D01*
X368300Y12700D02*
X368300Y0D01*
X419100Y31750D02*
X425450Y38100D01*
X425450Y158750D01*
X419100Y158750D01*
D19*
X419100Y158750D03*
D21*
X419100Y31750D02*
X387350Y31750D01*
X368300Y12700D01*
X419100Y6350D02*
X419100Y0D01*
X419100Y6350D02*
X438150Y25400D01*
X438150Y184150D01*
X421386Y195072D01*
D19*
X421386Y195072D03*
X438912Y204216D03*
D21*
X438912Y202438D01*
X450850Y190500D01*
X450850Y6350D01*
X444500Y0D01*
D22*
X104100Y237450D02*
X104100Y248100D01*
X104100Y237450D02*
X88900Y222250D01*
X50800Y222250D01*
X38100Y209550D01*
X38100Y31750D01*
X44450Y25400D01*
X44450Y-6350D01*
X54610Y-16256D01*
X130810Y-16256D01*
X139700Y-12700D01*
X139700Y0D01*
D24*
X215900Y209550D03*
D25*
X165100Y209550D01*
X152400Y222250D01*
X152400Y241300D01*
X139700Y254000D01*
X110000Y254000D01*
X104100Y248100D01*
D19*
X120650Y63500D03*
D21*
X120650Y38100D01*
X88900Y6350D01*
X88900Y0D01*
D23*
X209550Y95250D03*
D20*
X120650Y95250D01*
X120650Y63500D01*
D26*
X171450Y247650D03*
X184150Y247650D03*
X196850Y247650D03*
D19*
X400050Y88900D03*
D22*
X400050Y254000D01*
X393700Y266700D01*
M02*
