M48
;GenerationSoftware,Autodesk,EAGLE,9.0.0*%
;CreationDate,2018-05-04T17:55:17Z*%
FMAT,2
ICI,OFF
METRIC,TZ,000.000
T9C0.350
T8C0.500
T7C0.600
T6C0.889
T5C0.965
T4C1.000
T3C1.016
T2C1.500
T1C2.800
%
G90
M71
T1
X2250Y43560
X2250Y980
X49250Y43560
X49035Y980
T2
X2929Y39292
X2929Y29292
X7929Y34292
X429Y39292
X429Y29292
X2929Y34292
X7929Y36692
X7929Y31892
X7929Y29192
X7929Y39392
T3
X15240Y28575
X17780Y28575
T4
X10410Y24810
X4110Y24810
X7410Y19810
T5
X24130Y0
X21590Y0
X19050Y0
X16510Y0
X44450Y0
X41910Y0
X39370Y0
X36830Y0
X34290Y0
X31750Y0
X26670Y0
X29210Y0
X6350Y16510
X13970Y0
X11430Y0
X8890Y0
X6350Y13970
X6350Y11430
X6350Y8890
X6350Y6350
X6350Y3810
X23495Y5715
X23495Y8255
X6350Y0
X23495Y10795
X23495Y13335
X23495Y15875
X23495Y18415
T6
X39370Y26670
X8890Y44450
X11430Y44450
X13970Y44450
X41910Y26670
T7
X21590Y20955
X12065Y6350
X39520Y34255
X47625Y38735
X36185Y37506
X38887Y38252
X40005Y8890
X43891Y20422
X42139Y19507
X41910Y15875
X42545Y17551
X31115Y8255
X31750Y10160
X33655Y8255
X30480Y12700
X29210Y16510
X29845Y14605
X27153Y6604
X25603Y5791
X37516Y27915
X38252Y29997
X23495Y33655
X28854Y33960
X18415Y40005
X33655Y38735
X18415Y33020
X33655Y37465
X28880Y28194
X34290Y31115
X33604Y42139
X29032Y35992
X16256Y43129
X23495Y35560
X13335Y33020
X33655Y36195
X45085Y41275
X34925Y41275
X43815Y37465
X36830Y29845
X28956Y40691
X29210Y32385
X33655Y28575
X19685Y10795
X16510Y16510
X26035Y23495
X34925Y19050
T8
X19685Y24765
X18415Y24765
X17145Y24765
T9
X12065Y12700
X35560Y15240
X38100Y15240
X35560Y12700
X38100Y12700
X36830Y13970
X36830Y12065
X36830Y15875
X17780Y8255
X20955Y9525
M30