G04 EAGLE Gerber X2 export*
%TF.Part,Single*%
%TF.FileFunction,Profile,NP*%
%TF.FilePolarity,Positive*%
%TF.GenerationSoftware,Autodesk,EAGLE,9.0.0*%
%TF.CreationDate,2018-05-04T17:55:18Z*%
G75*
%MOMM*%
%FSLAX34Y34*%
%LPD*%
%AMOC8*
5,1,8,0,0,1.08239X$1,22.5*%
G01*
%ADD10C,0.254000*%


D10*
X-6350Y19050D02*
X-6696Y17140D01*
X-7067Y13787D01*
X-7144Y10413D01*
X-6928Y7046D01*
X-6418Y3710D01*
X-5620Y432D01*
X-4539Y-2765D01*
X-3184Y-5855D01*
X-1564Y-8815D01*
X307Y-11623D01*
X2416Y-14257D01*
X4746Y-16697D01*
X7281Y-18925D01*
X9999Y-20923D01*
X12882Y-22677D01*
X15907Y-24173D01*
X19050Y-25400D01*
X495300Y-25400D01*
X497275Y-24544D01*
X500600Y-22823D01*
X503761Y-20818D01*
X506736Y-18546D01*
X509502Y-16023D01*
X512037Y-13269D01*
X514322Y-10304D01*
X516341Y-7151D01*
X518077Y-3835D01*
X519517Y-380D01*
X520651Y3188D01*
X521469Y6841D01*
X521966Y10551D01*
X522137Y14291D01*
X521982Y18031D01*
X521502Y21744D01*
X520700Y25400D01*
X520700Y50800D01*
X469900Y50800D01*
X469900Y228600D01*
X520700Y228600D01*
X520700Y438150D01*
X520581Y439506D01*
X520214Y441845D01*
X519643Y444143D01*
X518875Y446383D01*
X517914Y448546D01*
X516769Y450618D01*
X515447Y452583D01*
X513959Y454424D01*
X512316Y456129D01*
X510531Y457684D01*
X508617Y459078D01*
X506589Y460300D01*
X504462Y461340D01*
X502253Y462191D01*
X499978Y462846D01*
X497654Y463300D01*
X495300Y463550D01*
X19050Y463550D01*
X17694Y463431D01*
X15355Y463063D01*
X13057Y462493D01*
X10818Y461725D01*
X8654Y460764D01*
X6582Y459619D01*
X4617Y458297D01*
X2776Y456809D01*
X1071Y455166D01*
X-484Y453381D01*
X-1878Y451467D01*
X-3100Y449439D01*
X-4140Y447312D01*
X-4991Y445103D01*
X-5646Y442828D01*
X-6100Y440504D01*
X-6350Y438150D01*
X-6350Y19050D01*
X58100Y198100D02*
X58119Y197664D01*
X58176Y197232D01*
X58270Y196806D01*
X58402Y196390D01*
X58568Y195987D01*
X58770Y195600D01*
X59004Y195232D01*
X59270Y194886D01*
X59564Y194564D01*
X59886Y194270D01*
X60232Y194004D01*
X60600Y193770D01*
X60987Y193568D01*
X61390Y193402D01*
X61806Y193270D01*
X62232Y193176D01*
X62664Y193119D01*
X63100Y193100D01*
X85100Y193100D01*
X85536Y193119D01*
X85968Y193176D01*
X86394Y193270D01*
X86810Y193402D01*
X87213Y193568D01*
X87600Y193770D01*
X87968Y194004D01*
X88314Y194270D01*
X88636Y194564D01*
X88930Y194886D01*
X89196Y195232D01*
X89430Y195600D01*
X89632Y195987D01*
X89798Y196390D01*
X89930Y196806D01*
X90024Y197232D01*
X90081Y197664D01*
X90100Y198100D01*
X90081Y198536D01*
X90024Y198968D01*
X89930Y199394D01*
X89798Y199810D01*
X89632Y200213D01*
X89430Y200600D01*
X89196Y200968D01*
X88930Y201314D01*
X88636Y201636D01*
X88314Y201930D01*
X87968Y202196D01*
X87600Y202430D01*
X87213Y202632D01*
X86810Y202798D01*
X86394Y202930D01*
X85968Y203024D01*
X85536Y203081D01*
X85100Y203100D01*
X63100Y203100D01*
X62664Y203081D01*
X62232Y203024D01*
X61806Y202930D01*
X61390Y202798D01*
X60987Y202632D01*
X60600Y202430D01*
X60232Y202196D01*
X59886Y201930D01*
X59564Y201636D01*
X59270Y201314D01*
X59004Y200968D01*
X58770Y200600D01*
X58568Y200213D01*
X58402Y199810D01*
X58270Y199394D01*
X58176Y198968D01*
X58119Y198536D01*
X58100Y198100D01*
X36100Y237100D02*
X36119Y236664D01*
X36176Y236232D01*
X36270Y235806D01*
X36402Y235390D01*
X36568Y234987D01*
X36770Y234600D01*
X37004Y234232D01*
X37270Y233886D01*
X37564Y233564D01*
X37886Y233270D01*
X38232Y233004D01*
X38600Y232770D01*
X38987Y232568D01*
X39390Y232402D01*
X39806Y232270D01*
X40232Y232176D01*
X40664Y232119D01*
X41100Y232100D01*
X41536Y232119D01*
X41968Y232176D01*
X42394Y232270D01*
X42810Y232402D01*
X43213Y232568D01*
X43600Y232770D01*
X43968Y233004D01*
X44314Y233270D01*
X44636Y233564D01*
X44930Y233886D01*
X45196Y234232D01*
X45430Y234600D01*
X45632Y234987D01*
X45798Y235390D01*
X45930Y235806D01*
X46024Y236232D01*
X46081Y236664D01*
X46100Y237100D01*
X46100Y259100D01*
X46081Y259536D01*
X46024Y259968D01*
X45930Y260394D01*
X45798Y260810D01*
X45632Y261213D01*
X45430Y261600D01*
X45196Y261968D01*
X44930Y262314D01*
X44636Y262636D01*
X44314Y262930D01*
X43968Y263196D01*
X43600Y263430D01*
X43213Y263632D01*
X42810Y263798D01*
X42394Y263930D01*
X41968Y264024D01*
X41536Y264081D01*
X41100Y264100D01*
X40664Y264081D01*
X40232Y264024D01*
X39806Y263930D01*
X39390Y263798D01*
X38987Y263632D01*
X38600Y263430D01*
X38232Y263196D01*
X37886Y262930D01*
X37564Y262636D01*
X37270Y262314D01*
X37004Y261968D01*
X36770Y261600D01*
X36568Y261213D01*
X36402Y260810D01*
X36270Y260394D01*
X36176Y259968D01*
X36119Y259536D01*
X36100Y259100D01*
X36100Y237100D01*
X99100Y237100D02*
X99119Y236664D01*
X99176Y236232D01*
X99270Y235806D01*
X99402Y235390D01*
X99568Y234987D01*
X99770Y234600D01*
X100004Y234232D01*
X100270Y233886D01*
X100564Y233564D01*
X100886Y233270D01*
X101232Y233004D01*
X101600Y232770D01*
X101987Y232568D01*
X102390Y232402D01*
X102806Y232270D01*
X103232Y232176D01*
X103664Y232119D01*
X104100Y232100D01*
X104100Y264100D01*
X103664Y264081D01*
X103232Y264024D01*
X102806Y263930D01*
X102390Y263798D01*
X101987Y263632D01*
X101600Y263430D01*
X101232Y263196D01*
X100886Y262930D01*
X100564Y262636D01*
X100270Y262314D01*
X100004Y261968D01*
X99770Y261600D01*
X99568Y261213D01*
X99402Y260810D01*
X99270Y260394D01*
X99176Y259968D01*
X99119Y259536D01*
X99100Y259100D01*
X99100Y237100D01*
X99100Y237100D02*
X99119Y236664D01*
X99176Y236232D01*
X99270Y235806D01*
X99402Y235390D01*
X99568Y234987D01*
X99770Y234600D01*
X100004Y234232D01*
X100270Y233886D01*
X100564Y233564D01*
X100886Y233270D01*
X101232Y233004D01*
X101600Y232770D01*
X101987Y232568D01*
X102390Y232402D01*
X102806Y232270D01*
X103232Y232176D01*
X103664Y232119D01*
X104100Y232100D01*
X104536Y232119D01*
X104968Y232176D01*
X105394Y232270D01*
X105810Y232402D01*
X106213Y232568D01*
X106600Y232770D01*
X106968Y233004D01*
X107314Y233270D01*
X107636Y233564D01*
X107930Y233886D01*
X108196Y234232D01*
X108430Y234600D01*
X108632Y234987D01*
X108798Y235390D01*
X108930Y235806D01*
X109024Y236232D01*
X109081Y236664D01*
X109100Y237100D01*
X109100Y259100D01*
X109081Y259536D01*
X109024Y259968D01*
X108930Y260394D01*
X108798Y260810D01*
X108632Y261213D01*
X108430Y261600D01*
X108196Y261968D01*
X107930Y262314D01*
X107636Y262636D01*
X107314Y262930D01*
X106968Y263196D01*
X106600Y263430D01*
X106213Y263632D01*
X105810Y263798D01*
X105394Y263930D01*
X104968Y264024D01*
X104536Y264081D01*
X104100Y264100D01*
X103664Y264081D01*
X103232Y264024D01*
X102806Y263930D01*
X102390Y263798D01*
X101987Y263632D01*
X101600Y263430D01*
X101232Y263196D01*
X100886Y262930D01*
X100564Y262636D01*
X100270Y262314D01*
X100004Y261968D01*
X99770Y261600D01*
X99568Y261213D01*
X99402Y260810D01*
X99270Y260394D01*
X99176Y259968D01*
X99119Y259536D01*
X99100Y259100D01*
X99100Y237100D01*
X104100Y232100D02*
X104536Y232119D01*
X104968Y232176D01*
X105394Y232270D01*
X105810Y232402D01*
X106213Y232568D01*
X106600Y232770D01*
X106968Y233004D01*
X107314Y233270D01*
X107636Y233564D01*
X107930Y233886D01*
X108196Y234232D01*
X108430Y234600D01*
X108632Y234987D01*
X108798Y235390D01*
X108930Y235806D01*
X109024Y236232D01*
X109081Y236664D01*
X109100Y237100D01*
X109100Y259100D01*
X109081Y259536D01*
X109024Y259968D01*
X108930Y260394D01*
X108798Y260810D01*
X108632Y261213D01*
X108430Y261600D01*
X108196Y261968D01*
X107930Y262314D01*
X107636Y262636D01*
X107314Y262930D01*
X106968Y263196D01*
X106600Y263430D01*
X106213Y263632D01*
X105810Y263798D01*
X105394Y263930D01*
X104968Y264024D01*
X104536Y264081D01*
X104100Y264100D01*
X104100Y232100D01*
X36500Y435100D02*
X36429Y434103D01*
X36286Y433113D01*
X36074Y432136D01*
X35792Y431176D01*
X35443Y430239D01*
X35027Y429329D01*
X34548Y428452D01*
X34007Y427610D01*
X33408Y426810D01*
X32753Y426054D01*
X32046Y425347D01*
X31290Y424692D01*
X30490Y424093D01*
X29648Y423552D01*
X28771Y423073D01*
X27861Y422657D01*
X26924Y422308D01*
X25965Y422026D01*
X24987Y421814D01*
X23998Y421671D01*
X23000Y421600D01*
X22000Y421600D01*
X21003Y421671D01*
X20013Y421814D01*
X19036Y422026D01*
X18076Y422308D01*
X17139Y422657D01*
X16229Y423073D01*
X15352Y423552D01*
X14510Y424093D01*
X13710Y424692D01*
X12954Y425347D01*
X12247Y426054D01*
X11592Y426810D01*
X10993Y427610D01*
X10452Y428452D01*
X9973Y429329D01*
X9557Y430239D01*
X9208Y431176D01*
X8926Y432136D01*
X8714Y433113D01*
X8571Y434103D01*
X8500Y435100D01*
X8500Y436100D01*
X8571Y437098D01*
X8714Y438087D01*
X8926Y439065D01*
X9208Y440024D01*
X9557Y440961D01*
X9973Y441871D01*
X10452Y442748D01*
X10993Y443590D01*
X11592Y444390D01*
X12247Y445146D01*
X12954Y445853D01*
X13710Y446508D01*
X14510Y447107D01*
X15352Y447648D01*
X16229Y448127D01*
X17139Y448543D01*
X18076Y448892D01*
X19036Y449174D01*
X20013Y449386D01*
X21003Y449529D01*
X22000Y449600D01*
X23000Y449600D01*
X23998Y449529D01*
X24987Y449386D01*
X25965Y449174D01*
X26924Y448892D01*
X27861Y448543D01*
X28771Y448127D01*
X29648Y447648D01*
X30490Y447107D01*
X31290Y446508D01*
X32046Y445853D01*
X32753Y445146D01*
X33408Y444390D01*
X34007Y443590D01*
X34548Y442748D01*
X35027Y441871D01*
X35443Y440961D01*
X35792Y440024D01*
X36074Y439065D01*
X36286Y438087D01*
X36429Y437098D01*
X36500Y436100D01*
X36500Y435100D01*
X36500Y9300D02*
X36429Y8303D01*
X36286Y7313D01*
X36074Y6336D01*
X35792Y5376D01*
X35443Y4439D01*
X35027Y3529D01*
X34548Y2652D01*
X34007Y1810D01*
X33408Y1010D01*
X32753Y254D01*
X32046Y-453D01*
X31290Y-1108D01*
X30490Y-1707D01*
X29648Y-2248D01*
X28771Y-2727D01*
X27861Y-3143D01*
X26924Y-3492D01*
X25965Y-3774D01*
X24987Y-3986D01*
X23998Y-4129D01*
X23000Y-4200D01*
X22000Y-4200D01*
X21003Y-4129D01*
X20013Y-3986D01*
X19036Y-3774D01*
X18076Y-3492D01*
X17139Y-3143D01*
X16229Y-2727D01*
X15352Y-2248D01*
X14510Y-1707D01*
X13710Y-1108D01*
X12954Y-453D01*
X12247Y254D01*
X11592Y1010D01*
X10993Y1810D01*
X10452Y2652D01*
X9973Y3529D01*
X9557Y4439D01*
X9208Y5376D01*
X8926Y6336D01*
X8714Y7313D01*
X8571Y8303D01*
X8500Y9300D01*
X8500Y10300D01*
X8571Y11298D01*
X8714Y12287D01*
X8926Y13265D01*
X9208Y14224D01*
X9557Y15161D01*
X9973Y16071D01*
X10452Y16948D01*
X10993Y17790D01*
X11592Y18590D01*
X12247Y19346D01*
X12954Y20053D01*
X13710Y20708D01*
X14510Y21307D01*
X15352Y21848D01*
X16229Y22327D01*
X17139Y22743D01*
X18076Y23092D01*
X19036Y23374D01*
X20013Y23586D01*
X21003Y23729D01*
X22000Y23800D01*
X23000Y23800D01*
X23998Y23729D01*
X24987Y23586D01*
X25965Y23374D01*
X26924Y23092D01*
X27861Y22743D01*
X28771Y22327D01*
X29648Y21848D01*
X30490Y21307D01*
X31290Y20708D01*
X32046Y20053D01*
X32753Y19346D01*
X33408Y18590D01*
X34007Y17790D01*
X34548Y16948D01*
X35027Y16071D01*
X35443Y15161D01*
X35792Y14224D01*
X36074Y13265D01*
X36286Y12287D01*
X36429Y11298D01*
X36500Y10300D01*
X36500Y9300D01*
X506500Y435100D02*
X506429Y434103D01*
X506286Y433113D01*
X506074Y432136D01*
X505792Y431176D01*
X505443Y430239D01*
X505027Y429329D01*
X504548Y428452D01*
X504007Y427610D01*
X503408Y426810D01*
X502753Y426054D01*
X502046Y425347D01*
X501290Y424692D01*
X500490Y424093D01*
X499648Y423552D01*
X498771Y423073D01*
X497861Y422657D01*
X496924Y422308D01*
X495965Y422026D01*
X494987Y421814D01*
X493998Y421671D01*
X493000Y421600D01*
X492000Y421600D01*
X491003Y421671D01*
X490013Y421814D01*
X489036Y422026D01*
X488076Y422308D01*
X487139Y422657D01*
X486229Y423073D01*
X485352Y423552D01*
X484510Y424093D01*
X483710Y424692D01*
X482954Y425347D01*
X482247Y426054D01*
X481592Y426810D01*
X480993Y427610D01*
X480452Y428452D01*
X479973Y429329D01*
X479557Y430239D01*
X479208Y431176D01*
X478926Y432136D01*
X478714Y433113D01*
X478571Y434103D01*
X478500Y435100D01*
X478500Y436100D01*
X478571Y437098D01*
X478714Y438087D01*
X478926Y439065D01*
X479208Y440024D01*
X479557Y440961D01*
X479973Y441871D01*
X480452Y442748D01*
X480993Y443590D01*
X481592Y444390D01*
X482247Y445146D01*
X482954Y445853D01*
X483710Y446508D01*
X484510Y447107D01*
X485352Y447648D01*
X486229Y448127D01*
X487139Y448543D01*
X488076Y448892D01*
X489036Y449174D01*
X490013Y449386D01*
X491003Y449529D01*
X492000Y449600D01*
X493000Y449600D01*
X493998Y449529D01*
X494987Y449386D01*
X495965Y449174D01*
X496924Y448892D01*
X497861Y448543D01*
X498771Y448127D01*
X499648Y447648D01*
X500490Y447107D01*
X501290Y446508D01*
X502046Y445853D01*
X502753Y445146D01*
X503408Y444390D01*
X504007Y443590D01*
X504548Y442748D01*
X505027Y441871D01*
X505443Y440961D01*
X505792Y440024D01*
X506074Y439065D01*
X506286Y438087D01*
X506429Y437098D01*
X506500Y436100D01*
X506500Y435100D01*
X504350Y9300D02*
X504279Y8303D01*
X504136Y7313D01*
X503924Y6336D01*
X503642Y5376D01*
X503293Y4439D01*
X502877Y3529D01*
X502398Y2652D01*
X501857Y1810D01*
X501258Y1010D01*
X500603Y254D01*
X499896Y-453D01*
X499140Y-1108D01*
X498340Y-1707D01*
X497498Y-2248D01*
X496621Y-2727D01*
X495711Y-3143D01*
X494774Y-3492D01*
X493815Y-3774D01*
X492837Y-3986D01*
X491848Y-4129D01*
X490850Y-4200D01*
X489850Y-4200D01*
X488853Y-4129D01*
X487863Y-3986D01*
X486886Y-3774D01*
X485926Y-3492D01*
X484989Y-3143D01*
X484079Y-2727D01*
X483202Y-2248D01*
X482360Y-1707D01*
X481560Y-1108D01*
X480804Y-453D01*
X480097Y254D01*
X479442Y1010D01*
X478843Y1810D01*
X478302Y2652D01*
X477823Y3529D01*
X477407Y4439D01*
X477058Y5376D01*
X476776Y6336D01*
X476564Y7313D01*
X476421Y8303D01*
X476350Y9300D01*
X476350Y10300D01*
X476421Y11298D01*
X476564Y12287D01*
X476776Y13265D01*
X477058Y14224D01*
X477407Y15161D01*
X477823Y16071D01*
X478302Y16948D01*
X478843Y17790D01*
X479442Y18590D01*
X480097Y19346D01*
X480804Y20053D01*
X481560Y20708D01*
X482360Y21307D01*
X483202Y21848D01*
X484079Y22327D01*
X484989Y22743D01*
X485926Y23092D01*
X486886Y23374D01*
X487863Y23586D01*
X488853Y23729D01*
X489850Y23800D01*
X490850Y23800D01*
X491848Y23729D01*
X492837Y23586D01*
X493815Y23374D01*
X494774Y23092D01*
X495711Y22743D01*
X496621Y22327D01*
X497498Y21848D01*
X498340Y21307D01*
X499140Y20708D01*
X499896Y20053D01*
X500603Y19346D01*
X501258Y18590D01*
X501857Y17790D01*
X502398Y16948D01*
X502877Y16071D01*
X503293Y15161D01*
X503642Y14224D01*
X503924Y13265D01*
X504136Y12287D01*
X504279Y11298D01*
X504350Y10300D01*
X504350Y9300D01*
X36500Y435100D02*
X36429Y434103D01*
X36286Y433113D01*
X36074Y432136D01*
X35792Y431176D01*
X35443Y430239D01*
X35027Y429329D01*
X34548Y428452D01*
X34007Y427610D01*
X33408Y426810D01*
X32753Y426054D01*
X32046Y425347D01*
X31290Y424692D01*
X30490Y424093D01*
X29648Y423552D01*
X28771Y423073D01*
X27861Y422657D01*
X26924Y422308D01*
X25965Y422026D01*
X24987Y421814D01*
X23998Y421671D01*
X23000Y421600D01*
X22000Y421600D01*
X21003Y421671D01*
X20013Y421814D01*
X19036Y422026D01*
X18076Y422308D01*
X17139Y422657D01*
X16229Y423073D01*
X15352Y423552D01*
X14510Y424093D01*
X13710Y424692D01*
X12954Y425347D01*
X12247Y426054D01*
X11592Y426810D01*
X10993Y427610D01*
X10452Y428452D01*
X9973Y429329D01*
X9557Y430239D01*
X9208Y431176D01*
X8926Y432136D01*
X8714Y433113D01*
X8571Y434103D01*
X8500Y435100D01*
X8500Y436100D01*
X8571Y437098D01*
X8714Y438087D01*
X8926Y439065D01*
X9208Y440024D01*
X9557Y440961D01*
X9973Y441871D01*
X10452Y442748D01*
X10993Y443590D01*
X11592Y444390D01*
X12247Y445146D01*
X12954Y445853D01*
X13710Y446508D01*
X14510Y447107D01*
X15352Y447648D01*
X16229Y448127D01*
X17139Y448543D01*
X18076Y448892D01*
X19036Y449174D01*
X20013Y449386D01*
X21003Y449529D01*
X22000Y449600D01*
X23000Y449600D01*
X23998Y449529D01*
X24987Y449386D01*
X25965Y449174D01*
X26924Y448892D01*
X27861Y448543D01*
X28771Y448127D01*
X29648Y447648D01*
X30490Y447107D01*
X31290Y446508D01*
X32046Y445853D01*
X32753Y445146D01*
X33408Y444390D01*
X34007Y443590D01*
X34548Y442748D01*
X35027Y441871D01*
X35443Y440961D01*
X35792Y440024D01*
X36074Y439065D01*
X36286Y438087D01*
X36429Y437098D01*
X36500Y436100D01*
X36500Y435100D01*
X36500Y9300D02*
X36429Y8303D01*
X36286Y7313D01*
X36074Y6336D01*
X35792Y5376D01*
X35443Y4439D01*
X35027Y3529D01*
X34548Y2652D01*
X34007Y1810D01*
X33408Y1010D01*
X32753Y254D01*
X32046Y-453D01*
X31290Y-1108D01*
X30490Y-1707D01*
X29648Y-2248D01*
X28771Y-2727D01*
X27861Y-3143D01*
X26924Y-3492D01*
X25965Y-3774D01*
X24987Y-3986D01*
X23998Y-4129D01*
X23000Y-4200D01*
X22000Y-4200D01*
X21003Y-4129D01*
X20013Y-3986D01*
X19036Y-3774D01*
X18076Y-3492D01*
X17139Y-3143D01*
X16229Y-2727D01*
X15352Y-2248D01*
X14510Y-1707D01*
X13710Y-1108D01*
X12954Y-453D01*
X12247Y254D01*
X11592Y1010D01*
X10993Y1810D01*
X10452Y2652D01*
X9973Y3529D01*
X9557Y4439D01*
X9208Y5376D01*
X8926Y6336D01*
X8714Y7313D01*
X8571Y8303D01*
X8500Y9300D01*
X8500Y10300D01*
X8571Y11298D01*
X8714Y12287D01*
X8926Y13265D01*
X9208Y14224D01*
X9557Y15161D01*
X9973Y16071D01*
X10452Y16948D01*
X10993Y17790D01*
X11592Y18590D01*
X12247Y19346D01*
X12954Y20053D01*
X13710Y20708D01*
X14510Y21307D01*
X15352Y21848D01*
X16229Y22327D01*
X17139Y22743D01*
X18076Y23092D01*
X19036Y23374D01*
X20013Y23586D01*
X21003Y23729D01*
X22000Y23800D01*
X23000Y23800D01*
X23998Y23729D01*
X24987Y23586D01*
X25965Y23374D01*
X26924Y23092D01*
X27861Y22743D01*
X28771Y22327D01*
X29648Y21848D01*
X30490Y21307D01*
X31290Y20708D01*
X32046Y20053D01*
X32753Y19346D01*
X33408Y18590D01*
X34007Y17790D01*
X34548Y16948D01*
X35027Y16071D01*
X35443Y15161D01*
X35792Y14224D01*
X36074Y13265D01*
X36286Y12287D01*
X36429Y11298D01*
X36500Y10300D01*
X36500Y9300D01*
X506500Y435100D02*
X506429Y434103D01*
X506286Y433113D01*
X506074Y432136D01*
X505792Y431176D01*
X505443Y430239D01*
X505027Y429329D01*
X504548Y428452D01*
X504007Y427610D01*
X503408Y426810D01*
X502753Y426054D01*
X502046Y425347D01*
X501290Y424692D01*
X500490Y424093D01*
X499648Y423552D01*
X498771Y423073D01*
X497861Y422657D01*
X496924Y422308D01*
X495965Y422026D01*
X494987Y421814D01*
X493998Y421671D01*
X493000Y421600D01*
X492000Y421600D01*
X491003Y421671D01*
X490013Y421814D01*
X489036Y422026D01*
X488076Y422308D01*
X487139Y422657D01*
X486229Y423073D01*
X485352Y423552D01*
X484510Y424093D01*
X483710Y424692D01*
X482954Y425347D01*
X482247Y426054D01*
X481592Y426810D01*
X480993Y427610D01*
X480452Y428452D01*
X479973Y429329D01*
X479557Y430239D01*
X479208Y431176D01*
X478926Y432136D01*
X478714Y433113D01*
X478571Y434103D01*
X478500Y435100D01*
X478500Y436100D01*
X478571Y437098D01*
X478714Y438087D01*
X478926Y439065D01*
X479208Y440024D01*
X479557Y440961D01*
X479973Y441871D01*
X480452Y442748D01*
X480993Y443590D01*
X481592Y444390D01*
X482247Y445146D01*
X482954Y445853D01*
X483710Y446508D01*
X484510Y447107D01*
X485352Y447648D01*
X486229Y448127D01*
X487139Y448543D01*
X488076Y448892D01*
X489036Y449174D01*
X490013Y449386D01*
X491003Y449529D01*
X492000Y449600D01*
X493000Y449600D01*
X493998Y449529D01*
X494987Y449386D01*
X495965Y449174D01*
X496924Y448892D01*
X497861Y448543D01*
X498771Y448127D01*
X499648Y447648D01*
X500490Y447107D01*
X501290Y446508D01*
X502046Y445853D01*
X502753Y445146D01*
X503408Y444390D01*
X504007Y443590D01*
X504548Y442748D01*
X505027Y441871D01*
X505443Y440961D01*
X505792Y440024D01*
X506074Y439065D01*
X506286Y438087D01*
X506429Y437098D01*
X506500Y436100D01*
X506500Y435100D01*
X504350Y9300D02*
X504279Y8303D01*
X504136Y7313D01*
X503924Y6336D01*
X503642Y5376D01*
X503293Y4439D01*
X502877Y3529D01*
X502398Y2652D01*
X501857Y1810D01*
X501258Y1010D01*
X500603Y254D01*
X499896Y-453D01*
X499140Y-1108D01*
X498340Y-1707D01*
X497498Y-2248D01*
X496621Y-2727D01*
X495711Y-3143D01*
X494774Y-3492D01*
X493815Y-3774D01*
X492837Y-3986D01*
X491848Y-4129D01*
X490850Y-4200D01*
X489850Y-4200D01*
X488853Y-4129D01*
X487863Y-3986D01*
X486886Y-3774D01*
X485926Y-3492D01*
X484989Y-3143D01*
X484079Y-2727D01*
X483202Y-2248D01*
X482360Y-1707D01*
X481560Y-1108D01*
X480804Y-453D01*
X480097Y254D01*
X479442Y1010D01*
X478843Y1810D01*
X478302Y2652D01*
X477823Y3529D01*
X477407Y4439D01*
X477058Y5376D01*
X476776Y6336D01*
X476564Y7313D01*
X476421Y8303D01*
X476350Y9300D01*
X476350Y10300D01*
X476421Y11298D01*
X476564Y12287D01*
X476776Y13265D01*
X477058Y14224D01*
X477407Y15161D01*
X477823Y16071D01*
X478302Y16948D01*
X478843Y17790D01*
X479442Y18590D01*
X480097Y19346D01*
X480804Y20053D01*
X481560Y20708D01*
X482360Y21307D01*
X483202Y21848D01*
X484079Y22327D01*
X484989Y22743D01*
X485926Y23092D01*
X486886Y23374D01*
X487863Y23586D01*
X488853Y23729D01*
X489850Y23800D01*
X490850Y23800D01*
X491848Y23729D01*
X492837Y23586D01*
X493815Y23374D01*
X494774Y23092D01*
X495711Y22743D01*
X496621Y22327D01*
X497498Y21848D01*
X498340Y21307D01*
X499140Y20708D01*
X499896Y20053D01*
X500603Y19346D01*
X501258Y18590D01*
X501857Y17790D01*
X502398Y16948D01*
X502877Y16071D01*
X503293Y15161D01*
X503642Y14224D01*
X503924Y13265D01*
X504136Y12287D01*
X504279Y11298D01*
X504350Y10300D01*
X504350Y9300D01*
X36786Y392548D02*
X36714Y391814D01*
X36570Y391091D01*
X36356Y390386D01*
X36074Y389705D01*
X35727Y389056D01*
X35317Y388443D01*
X34850Y387873D01*
X34329Y387352D01*
X33759Y386885D01*
X33146Y386475D01*
X32497Y386128D01*
X31816Y385846D01*
X31111Y385632D01*
X30388Y385488D01*
X29654Y385416D01*
X28918Y385416D01*
X28184Y385488D01*
X27461Y385632D01*
X26756Y385846D01*
X26075Y386128D01*
X25426Y386475D01*
X24813Y386885D01*
X24243Y387352D01*
X23722Y387873D01*
X23255Y388443D01*
X22845Y389056D01*
X22498Y389705D01*
X22216Y390386D01*
X22002Y391091D01*
X21858Y391814D01*
X21786Y392548D01*
X21786Y393284D01*
X21858Y394018D01*
X22002Y394741D01*
X22216Y395446D01*
X22498Y396127D01*
X22845Y396776D01*
X23255Y397389D01*
X23722Y397959D01*
X24243Y398480D01*
X24813Y398947D01*
X25426Y399357D01*
X26075Y399704D01*
X26756Y399986D01*
X27461Y400200D01*
X28184Y400344D01*
X28918Y400416D01*
X29654Y400416D01*
X30388Y400344D01*
X31111Y400200D01*
X31816Y399986D01*
X32497Y399704D01*
X33146Y399357D01*
X33759Y398947D01*
X34329Y398480D01*
X34850Y397959D01*
X35317Y397389D01*
X35727Y396776D01*
X36074Y396127D01*
X36356Y395446D01*
X36570Y394741D01*
X36714Y394018D01*
X36786Y393284D01*
X36786Y392548D01*
X36786Y292548D02*
X36714Y291814D01*
X36570Y291091D01*
X36356Y290386D01*
X36074Y289705D01*
X35727Y289056D01*
X35317Y288443D01*
X34850Y287873D01*
X34329Y287352D01*
X33759Y286885D01*
X33146Y286475D01*
X32497Y286128D01*
X31816Y285846D01*
X31111Y285632D01*
X30388Y285488D01*
X29654Y285416D01*
X28918Y285416D01*
X28184Y285488D01*
X27461Y285632D01*
X26756Y285846D01*
X26075Y286128D01*
X25426Y286475D01*
X24813Y286885D01*
X24243Y287352D01*
X23722Y287873D01*
X23255Y288443D01*
X22845Y289056D01*
X22498Y289705D01*
X22216Y290386D01*
X22002Y291091D01*
X21858Y291814D01*
X21786Y292548D01*
X21786Y293284D01*
X21858Y294018D01*
X22002Y294741D01*
X22216Y295446D01*
X22498Y296127D01*
X22845Y296776D01*
X23255Y297389D01*
X23722Y297959D01*
X24243Y298480D01*
X24813Y298947D01*
X25426Y299357D01*
X26075Y299704D01*
X26756Y299986D01*
X27461Y300200D01*
X28184Y300344D01*
X28918Y300416D01*
X29654Y300416D01*
X30388Y300344D01*
X31111Y300200D01*
X31816Y299986D01*
X32497Y299704D01*
X33146Y299357D01*
X33759Y298947D01*
X34329Y298480D01*
X34850Y297959D01*
X35317Y297389D01*
X35727Y296776D01*
X36074Y296127D01*
X36356Y295446D01*
X36570Y294741D01*
X36714Y294018D01*
X36786Y293284D01*
X36786Y292548D01*
X86786Y342548D02*
X86714Y341814D01*
X86570Y341091D01*
X86356Y340386D01*
X86074Y339705D01*
X85727Y339056D01*
X85317Y338443D01*
X84850Y337873D01*
X84329Y337352D01*
X83759Y336885D01*
X83146Y336475D01*
X82497Y336128D01*
X81816Y335846D01*
X81111Y335632D01*
X80388Y335488D01*
X79654Y335416D01*
X78918Y335416D01*
X78184Y335488D01*
X77461Y335632D01*
X76756Y335846D01*
X76075Y336128D01*
X75426Y336475D01*
X74813Y336885D01*
X74243Y337352D01*
X73722Y337873D01*
X73255Y338443D01*
X72845Y339056D01*
X72498Y339705D01*
X72216Y340386D01*
X72002Y341091D01*
X71858Y341814D01*
X71786Y342548D01*
X71786Y343284D01*
X71858Y344018D01*
X72002Y344741D01*
X72216Y345446D01*
X72498Y346127D01*
X72845Y346776D01*
X73255Y347389D01*
X73722Y347959D01*
X74243Y348480D01*
X74813Y348947D01*
X75426Y349357D01*
X76075Y349704D01*
X76756Y349986D01*
X77461Y350200D01*
X78184Y350344D01*
X78918Y350416D01*
X79654Y350416D01*
X80388Y350344D01*
X81111Y350200D01*
X81816Y349986D01*
X82497Y349704D01*
X83146Y349357D01*
X83759Y348947D01*
X84329Y348480D01*
X84850Y347959D01*
X85317Y347389D01*
X85727Y346776D01*
X86074Y346127D01*
X86356Y345446D01*
X86570Y344741D01*
X86714Y344018D01*
X86786Y343284D01*
X86786Y342548D01*
X11786Y392548D02*
X11714Y391814D01*
X11570Y391091D01*
X11356Y390386D01*
X11074Y389705D01*
X10727Y389056D01*
X10317Y388443D01*
X9850Y387873D01*
X9329Y387352D01*
X8759Y386885D01*
X8146Y386475D01*
X7497Y386128D01*
X6816Y385846D01*
X6111Y385632D01*
X5388Y385488D01*
X4654Y385416D01*
X3918Y385416D01*
X3184Y385488D01*
X2461Y385632D01*
X1756Y385846D01*
X1075Y386128D01*
X426Y386475D01*
X-187Y386885D01*
X-757Y387352D01*
X-1278Y387873D01*
X-1745Y388443D01*
X-2155Y389056D01*
X-2502Y389705D01*
X-2784Y390386D01*
X-2998Y391091D01*
X-3142Y391814D01*
X-3214Y392548D01*
X-3214Y393284D01*
X-3142Y394018D01*
X-2998Y394741D01*
X-2784Y395446D01*
X-2502Y396127D01*
X-2155Y396776D01*
X-1745Y397389D01*
X-1278Y397959D01*
X-757Y398480D01*
X-187Y398947D01*
X426Y399357D01*
X1075Y399704D01*
X1756Y399986D01*
X2461Y400200D01*
X3184Y400344D01*
X3918Y400416D01*
X4654Y400416D01*
X5388Y400344D01*
X6111Y400200D01*
X6816Y399986D01*
X7497Y399704D01*
X8146Y399357D01*
X8759Y398947D01*
X9329Y398480D01*
X9850Y397959D01*
X10317Y397389D01*
X10727Y396776D01*
X11074Y396127D01*
X11356Y395446D01*
X11570Y394741D01*
X11714Y394018D01*
X11786Y393284D01*
X11786Y392548D01*
X11786Y292548D02*
X11714Y291814D01*
X11570Y291091D01*
X11356Y290386D01*
X11074Y289705D01*
X10727Y289056D01*
X10317Y288443D01*
X9850Y287873D01*
X9329Y287352D01*
X8759Y286885D01*
X8146Y286475D01*
X7497Y286128D01*
X6816Y285846D01*
X6111Y285632D01*
X5388Y285488D01*
X4654Y285416D01*
X3918Y285416D01*
X3184Y285488D01*
X2461Y285632D01*
X1756Y285846D01*
X1075Y286128D01*
X426Y286475D01*
X-187Y286885D01*
X-757Y287352D01*
X-1278Y287873D01*
X-1745Y288443D01*
X-2155Y289056D01*
X-2502Y289705D01*
X-2784Y290386D01*
X-2998Y291091D01*
X-3142Y291814D01*
X-3214Y292548D01*
X-3214Y293284D01*
X-3142Y294018D01*
X-2998Y294741D01*
X-2784Y295446D01*
X-2502Y296127D01*
X-2155Y296776D01*
X-1745Y297389D01*
X-1278Y297959D01*
X-757Y298480D01*
X-187Y298947D01*
X426Y299357D01*
X1075Y299704D01*
X1756Y299986D01*
X2461Y300200D01*
X3184Y300344D01*
X3918Y300416D01*
X4654Y300416D01*
X5388Y300344D01*
X6111Y300200D01*
X6816Y299986D01*
X7497Y299704D01*
X8146Y299357D01*
X8759Y298947D01*
X9329Y298480D01*
X9850Y297959D01*
X10317Y297389D01*
X10727Y296776D01*
X11074Y296127D01*
X11356Y295446D01*
X11570Y294741D01*
X11714Y294018D01*
X11786Y293284D01*
X11786Y292548D01*
M02*
