G04 EAGLE Gerber X2 export*
%TF.Part,Single*%
%TF.FileFunction,Legend,Top,1*%
%TF.FilePolarity,Positive*%
%TF.GenerationSoftware,Autodesk,EAGLE,9.0.0*%
%TF.CreationDate,2018-05-04T17:55:18Z*%
G75*
%MOMM*%
%FSLAX34Y34*%
%LPD*%
%AMOC8*
5,1,8,0,0,1.08239X$1,22.5*%
G01*
%ADD10R,0.254000X0.025400*%
%ADD11R,0.279400X0.025400*%
%ADD12R,0.228600X0.025400*%
%ADD13R,0.025400X0.025400*%
%ADD14R,0.177800X0.025400*%
%ADD15R,0.406400X0.025400*%
%ADD16R,0.508000X0.025400*%
%ADD17R,0.635000X0.025400*%
%ADD18R,0.304800X0.025400*%
%ADD19R,0.736600X0.025400*%
%ADD20R,1.295400X0.025400*%
%ADD21R,0.762000X0.025400*%
%ADD22R,0.381000X0.025400*%
%ADD23R,0.787400X0.025400*%
%ADD24R,0.330200X0.025400*%
%ADD25R,1.600200X0.025400*%
%ADD26R,0.863600X0.025400*%
%ADD27R,1.422400X0.025400*%
%ADD28R,0.457200X0.025400*%
%ADD29R,0.812800X0.025400*%
%ADD30R,0.431800X0.025400*%
%ADD31R,0.838200X0.025400*%
%ADD32R,0.965200X0.025400*%
%ADD33R,1.473200X0.025400*%
%ADD34R,0.482600X0.025400*%
%ADD35R,1.092200X0.025400*%
%ADD36R,1.524000X0.025400*%
%ADD37R,1.193800X0.025400*%
%ADD38R,1.549400X0.025400*%
%ADD39R,0.533400X0.025400*%
%ADD40R,0.889000X0.025400*%
%ADD41R,1.320800X0.025400*%
%ADD42R,1.574800X0.025400*%
%ADD43R,0.558800X0.025400*%
%ADD44R,1.168400X0.025400*%
%ADD45R,1.016000X0.025400*%
%ADD46R,0.584200X0.025400*%
%ADD47R,1.498600X0.025400*%
%ADD48R,0.711200X0.025400*%
%ADD49R,0.914400X0.025400*%
%ADD50R,1.117600X0.025400*%
%ADD51R,0.990600X0.025400*%
%ADD52R,1.219200X0.025400*%
%ADD53R,1.066800X0.025400*%
%ADD54R,0.355600X0.025400*%
%ADD55R,0.939800X0.025400*%
%ADD56R,1.041400X0.025400*%
%ADD57R,0.609600X0.025400*%
%ADD58R,0.685800X0.025400*%
%ADD59R,0.660400X0.025400*%
%ADD60R,1.447800X0.025400*%
%ADD61R,0.152400X0.025400*%
%ADD62R,1.397000X0.025400*%
%ADD63R,0.050800X0.025400*%
%ADD64R,1.244600X0.025400*%
%ADD65R,0.025400X1.600200*%
%ADD66R,0.025400X0.304800*%
%ADD67R,0.025400X0.965200*%
%ADD68R,0.025400X1.574800*%
%ADD69R,0.025400X0.787400*%
%ADD70R,0.025400X0.762000*%
%ADD71R,0.025400X0.711200*%
%ADD72R,0.025400X0.736600*%
%ADD73R,0.025400X0.660400*%
%ADD74R,0.025400X0.635000*%
%ADD75R,0.025400X0.381000*%
%ADD76R,0.025400X0.457200*%
%ADD77R,0.025400X0.812800*%
%ADD78R,0.025400X0.482600*%
%ADD79R,0.025400X0.863600*%
%ADD80R,0.025400X0.508000*%
%ADD81R,0.025400X0.889000*%
%ADD82R,0.025400X0.914400*%
%ADD83R,0.025400X0.533400*%
%ADD84R,0.025400X0.279400*%
%ADD85R,0.025400X0.939800*%
%ADD86R,0.025400X0.838200*%
%ADD87R,0.025400X0.431800*%
%ADD88R,1.371600X0.025400*%
%ADD89R,0.025400X1.295400*%
%ADD90R,0.025400X1.397000*%
%ADD91R,0.025400X1.473200*%
%ADD92R,0.025400X1.498600*%
%ADD93R,0.025400X1.549400*%
%ADD94R,0.025400X0.355600*%
%ADD95R,0.025400X0.330200*%
%ADD96R,0.025400X1.524000*%
%ADD97R,0.025400X1.422400*%
%ADD98R,0.025400X1.346200*%
%ADD99R,0.025400X1.371600*%
%ADD100R,0.025400X1.447800*%
%ADD101R,0.025400X0.685800*%
%ADD102R,0.025400X0.609600*%
%ADD103R,0.025400X0.584200*%
%ADD104R,1.346200X0.025400*%
%ADD105R,5.867400X0.025400*%
%ADD106R,0.076200X0.025400*%
%ADD107R,0.127000X0.025400*%
%ADD108R,0.101600X0.025400*%
%ADD109R,0.203200X0.025400*%
%ADD110R,1.270000X0.025400*%
%ADD111R,8.051800X0.025400*%
%ADD112C,0.152400*%
%ADD113C,0.101600*%
%ADD114C,0.400000*%
%ADD115C,0.100000*%
%ADD116C,0.127000*%


D10*
X76073Y-14478D03*
D11*
X101600Y-14478D03*
X126746Y-14478D03*
D10*
X152273Y-14478D03*
X177673Y-14478D03*
D11*
X203200Y-14478D03*
X228346Y-14478D03*
X253492Y-14478D03*
D10*
X279273Y-14478D03*
X304673Y-14478D03*
X329819Y-14478D03*
X355727Y-14478D03*
X380873Y-14478D03*
X406273Y-14478D03*
X431673Y-14478D03*
D12*
X457200Y-14478D03*
D10*
X76073Y-14224D03*
D11*
X101600Y-14224D03*
X126746Y-14224D03*
D10*
X152273Y-14224D03*
X177673Y-14224D03*
D11*
X203200Y-14224D03*
X228346Y-14224D03*
X253492Y-14224D03*
D10*
X279273Y-14224D03*
X304673Y-14224D03*
X329819Y-14224D03*
X355727Y-14224D03*
X380873Y-14224D03*
X406273Y-14224D03*
X431673Y-14224D03*
D12*
X457200Y-14224D03*
D10*
X76073Y-13970D03*
D11*
X101600Y-13970D03*
X126746Y-13970D03*
D10*
X152273Y-13970D03*
X177673Y-13970D03*
D11*
X203200Y-13970D03*
X228346Y-13970D03*
X253492Y-13970D03*
D10*
X279273Y-13970D03*
X304673Y-13970D03*
X329819Y-13970D03*
X355727Y-13970D03*
X380873Y-13970D03*
X406273Y-13970D03*
X431673Y-13970D03*
D12*
X457200Y-13970D03*
D10*
X76073Y-13716D03*
D11*
X101600Y-13716D03*
X126746Y-13716D03*
D10*
X152273Y-13716D03*
X177673Y-13716D03*
D11*
X203200Y-13716D03*
X228346Y-13716D03*
X253492Y-13716D03*
D10*
X279273Y-13716D03*
X304673Y-13716D03*
X329819Y-13716D03*
X355727Y-13716D03*
X380873Y-13716D03*
X406273Y-13716D03*
X431673Y-13716D03*
D12*
X457200Y-13716D03*
D10*
X76073Y-13462D03*
D11*
X101600Y-13462D03*
X126746Y-13462D03*
D10*
X152273Y-13462D03*
X177673Y-13462D03*
D11*
X203200Y-13462D03*
X228346Y-13462D03*
X253492Y-13462D03*
D10*
X279273Y-13462D03*
X304673Y-13462D03*
X329819Y-13462D03*
X355727Y-13462D03*
X380873Y-13462D03*
X406273Y-13462D03*
X431673Y-13462D03*
D12*
X457200Y-13462D03*
D10*
X76073Y-13208D03*
D11*
X101600Y-13208D03*
X126746Y-13208D03*
D10*
X152273Y-13208D03*
X177673Y-13208D03*
D11*
X203200Y-13208D03*
X228346Y-13208D03*
X253492Y-13208D03*
D10*
X279273Y-13208D03*
X304673Y-13208D03*
X329819Y-13208D03*
X355727Y-13208D03*
X380873Y-13208D03*
X406273Y-13208D03*
X431673Y-13208D03*
D12*
X457200Y-13208D03*
D10*
X76073Y-12954D03*
D11*
X101600Y-12954D03*
X126746Y-12954D03*
D10*
X152273Y-12954D03*
X177673Y-12954D03*
D11*
X203200Y-12954D03*
X228346Y-12954D03*
X253492Y-12954D03*
D10*
X279273Y-12954D03*
X304673Y-12954D03*
X329819Y-12954D03*
X355727Y-12954D03*
X380873Y-12954D03*
X406273Y-12954D03*
X431673Y-12954D03*
D12*
X457200Y-12954D03*
D10*
X76073Y-12700D03*
D11*
X101600Y-12700D03*
X126746Y-12700D03*
D10*
X152273Y-12700D03*
X177673Y-12700D03*
D11*
X203200Y-12700D03*
X228346Y-12700D03*
X253492Y-12700D03*
D10*
X279273Y-12700D03*
X304673Y-12700D03*
X329819Y-12700D03*
X355727Y-12700D03*
X380873Y-12700D03*
X406273Y-12700D03*
X431673Y-12700D03*
D12*
X457200Y-12700D03*
D10*
X76073Y-12446D03*
D11*
X101600Y-12446D03*
X126746Y-12446D03*
D10*
X152273Y-12446D03*
X177673Y-12446D03*
D11*
X203200Y-12446D03*
X228346Y-12446D03*
X253492Y-12446D03*
D10*
X279273Y-12446D03*
X304673Y-12446D03*
X329819Y-12446D03*
X355727Y-12446D03*
X380873Y-12446D03*
X406273Y-12446D03*
X431673Y-12446D03*
D12*
X457200Y-12446D03*
D10*
X76073Y-12192D03*
D11*
X101600Y-12192D03*
X126746Y-12192D03*
D10*
X152273Y-12192D03*
X177673Y-12192D03*
D11*
X203200Y-12192D03*
X228346Y-12192D03*
X253492Y-12192D03*
D10*
X279273Y-12192D03*
X304673Y-12192D03*
X329819Y-12192D03*
X355727Y-12192D03*
X380873Y-12192D03*
X406273Y-12192D03*
X431673Y-12192D03*
D12*
X457200Y-12192D03*
D10*
X76073Y-11938D03*
D11*
X101600Y-11938D03*
X126746Y-11938D03*
D10*
X152273Y-11938D03*
X177673Y-11938D03*
D11*
X203200Y-11938D03*
X228346Y-11938D03*
X253492Y-11938D03*
D10*
X279273Y-11938D03*
X304673Y-11938D03*
X329819Y-11938D03*
X355727Y-11938D03*
X380873Y-11938D03*
X406273Y-11938D03*
X431673Y-11938D03*
D12*
X457200Y-11938D03*
D10*
X76073Y-11684D03*
D11*
X101600Y-11684D03*
X126746Y-11684D03*
D10*
X152273Y-11684D03*
X177673Y-11684D03*
D11*
X203200Y-11684D03*
X228346Y-11684D03*
X253492Y-11684D03*
D10*
X279273Y-11684D03*
X304673Y-11684D03*
X329819Y-11684D03*
X355727Y-11684D03*
X380873Y-11684D03*
X406273Y-11684D03*
X431673Y-11684D03*
D12*
X457200Y-11684D03*
D10*
X76073Y-11430D03*
D11*
X101600Y-11430D03*
X126746Y-11430D03*
D10*
X152273Y-11430D03*
X177673Y-11430D03*
D11*
X203200Y-11430D03*
X228346Y-11430D03*
X253492Y-11430D03*
D10*
X279273Y-11430D03*
X304673Y-11430D03*
X329819Y-11430D03*
X355727Y-11430D03*
X380873Y-11430D03*
X406273Y-11430D03*
X431673Y-11430D03*
D12*
X457200Y-11430D03*
D10*
X76073Y-11176D03*
D11*
X101600Y-11176D03*
X126746Y-11176D03*
D10*
X152273Y-11176D03*
X177673Y-11176D03*
D11*
X203200Y-11176D03*
X228346Y-11176D03*
X253492Y-11176D03*
D10*
X279273Y-11176D03*
X304673Y-11176D03*
X329819Y-11176D03*
X355727Y-11176D03*
X380873Y-11176D03*
X406273Y-11176D03*
X431673Y-11176D03*
D12*
X457200Y-11176D03*
D10*
X76073Y-10922D03*
D11*
X101600Y-10922D03*
X126746Y-10922D03*
D10*
X152273Y-10922D03*
X177673Y-10922D03*
D11*
X203200Y-10922D03*
X228346Y-10922D03*
X253492Y-10922D03*
D10*
X279273Y-10922D03*
X304673Y-10922D03*
X329819Y-10922D03*
X355727Y-10922D03*
X380873Y-10922D03*
X406273Y-10922D03*
X431673Y-10922D03*
D12*
X457200Y-10922D03*
D10*
X76073Y-10668D03*
D11*
X101600Y-10668D03*
X126746Y-10668D03*
D10*
X152273Y-10668D03*
X177673Y-10668D03*
D11*
X203200Y-10668D03*
X228346Y-10668D03*
X253492Y-10668D03*
D10*
X279273Y-10668D03*
X304673Y-10668D03*
X329819Y-10668D03*
X355727Y-10668D03*
X380873Y-10668D03*
X406273Y-10668D03*
X431673Y-10668D03*
D12*
X457200Y-10668D03*
D10*
X76073Y-10414D03*
D11*
X101600Y-10414D03*
X126746Y-10414D03*
D10*
X152273Y-10414D03*
X177673Y-10414D03*
D11*
X203200Y-10414D03*
X228346Y-10414D03*
X253492Y-10414D03*
D10*
X279273Y-10414D03*
X304673Y-10414D03*
X329819Y-10414D03*
X355727Y-10414D03*
X380873Y-10414D03*
X406273Y-10414D03*
X431673Y-10414D03*
D12*
X457200Y-10414D03*
D10*
X76073Y-10160D03*
D11*
X101600Y-10160D03*
X126746Y-10160D03*
D10*
X152273Y-10160D03*
X177673Y-10160D03*
D11*
X203200Y-10160D03*
X228346Y-10160D03*
X253492Y-10160D03*
D10*
X279273Y-10160D03*
X304673Y-10160D03*
X329819Y-10160D03*
X355727Y-10160D03*
X380873Y-10160D03*
X406273Y-10160D03*
X431673Y-10160D03*
D12*
X457200Y-10160D03*
D10*
X76073Y-9906D03*
D11*
X101600Y-9906D03*
X126746Y-9906D03*
D10*
X152273Y-9906D03*
X177673Y-9906D03*
D11*
X203200Y-9906D03*
X228346Y-9906D03*
X253492Y-9906D03*
D10*
X279273Y-9906D03*
X304673Y-9906D03*
X329819Y-9906D03*
X355727Y-9906D03*
X380873Y-9906D03*
X406273Y-9906D03*
X431673Y-9906D03*
D12*
X457200Y-9906D03*
D10*
X76073Y-9652D03*
D11*
X101600Y-9652D03*
X126746Y-9652D03*
D10*
X152273Y-9652D03*
X177673Y-9652D03*
D11*
X203200Y-9652D03*
X228346Y-9652D03*
X253492Y-9652D03*
D10*
X279273Y-9652D03*
X304673Y-9652D03*
X329819Y-9652D03*
X355727Y-9652D03*
X380873Y-9652D03*
X406273Y-9652D03*
X431673Y-9652D03*
D12*
X457200Y-9652D03*
D10*
X76073Y-9398D03*
D11*
X101600Y-9398D03*
X126746Y-9398D03*
D10*
X152273Y-9398D03*
X177673Y-9398D03*
D11*
X203200Y-9398D03*
X228346Y-9398D03*
X253492Y-9398D03*
D10*
X279273Y-9398D03*
X304673Y-9398D03*
X329819Y-9398D03*
X355727Y-9398D03*
X380873Y-9398D03*
X406273Y-9398D03*
X431673Y-9398D03*
D12*
X457200Y-9398D03*
D10*
X76073Y-9144D03*
D11*
X101600Y-9144D03*
X126746Y-9144D03*
D10*
X152273Y-9144D03*
X177673Y-9144D03*
D11*
X203200Y-9144D03*
X228346Y-9144D03*
X253492Y-9144D03*
D10*
X279273Y-9144D03*
X304673Y-9144D03*
X329819Y-9144D03*
X355727Y-9144D03*
X380873Y-9144D03*
X406273Y-9144D03*
X431673Y-9144D03*
D12*
X457200Y-9144D03*
D10*
X76073Y-8890D03*
D11*
X101600Y-8890D03*
X126746Y-8890D03*
D10*
X152273Y-8890D03*
X177673Y-8890D03*
D11*
X203200Y-8890D03*
X228346Y-8890D03*
X253492Y-8890D03*
D10*
X279273Y-8890D03*
X304673Y-8890D03*
X329819Y-8890D03*
X355727Y-8890D03*
X380873Y-8890D03*
X406273Y-8890D03*
X431673Y-8890D03*
D12*
X457200Y-8890D03*
D10*
X76073Y-8636D03*
D11*
X101600Y-8636D03*
X126746Y-8636D03*
D10*
X152273Y-8636D03*
X177673Y-8636D03*
D11*
X203200Y-8636D03*
X228346Y-8636D03*
X253492Y-8636D03*
D10*
X279273Y-8636D03*
X304673Y-8636D03*
X329819Y-8636D03*
X355727Y-8636D03*
X380873Y-8636D03*
X406273Y-8636D03*
X431673Y-8636D03*
D12*
X457200Y-8636D03*
D10*
X76073Y-8382D03*
D11*
X101600Y-8382D03*
X126746Y-8382D03*
D10*
X152273Y-8382D03*
X177673Y-8382D03*
D11*
X203200Y-8382D03*
X228346Y-8382D03*
X253492Y-8382D03*
D10*
X279273Y-8382D03*
X304673Y-8382D03*
X329819Y-8382D03*
X355727Y-8382D03*
X380873Y-8382D03*
X406273Y-8382D03*
X431673Y-8382D03*
D12*
X457200Y-8382D03*
D10*
X76073Y-8128D03*
D11*
X101600Y-8128D03*
X126746Y-8128D03*
D10*
X152273Y-8128D03*
X177673Y-8128D03*
D11*
X203200Y-8128D03*
X228346Y-8128D03*
X253492Y-8128D03*
D10*
X279273Y-8128D03*
X304673Y-8128D03*
X329819Y-8128D03*
X355727Y-8128D03*
X380873Y-8128D03*
X406273Y-8128D03*
X431673Y-8128D03*
D12*
X457200Y-8128D03*
D10*
X76073Y-7874D03*
D11*
X101600Y-7874D03*
X126746Y-7874D03*
D10*
X152273Y-7874D03*
X177673Y-7874D03*
D11*
X203200Y-7874D03*
X228346Y-7874D03*
X253492Y-7874D03*
D10*
X279273Y-7874D03*
X304673Y-7874D03*
X329819Y-7874D03*
X355727Y-7874D03*
X380873Y-7874D03*
X406273Y-7874D03*
X431673Y-7874D03*
D12*
X457200Y-7874D03*
D10*
X76073Y-7620D03*
D11*
X101600Y-7620D03*
X126746Y-7620D03*
D10*
X152273Y-7620D03*
X177673Y-7620D03*
D11*
X203200Y-7620D03*
X228346Y-7620D03*
X253492Y-7620D03*
D10*
X279273Y-7620D03*
X304673Y-7620D03*
X329819Y-7620D03*
X355727Y-7620D03*
X380873Y-7620D03*
X406273Y-7620D03*
X431673Y-7620D03*
D12*
X457200Y-7620D03*
D10*
X76073Y-7366D03*
D11*
X101600Y-7366D03*
X126746Y-7366D03*
D10*
X152273Y-7366D03*
X177673Y-7366D03*
D11*
X203200Y-7366D03*
X228346Y-7366D03*
X253492Y-7366D03*
D10*
X279273Y-7366D03*
X304673Y-7366D03*
X329819Y-7366D03*
X355727Y-7366D03*
X380873Y-7366D03*
X406273Y-7366D03*
X431673Y-7366D03*
D12*
X457200Y-7366D03*
D10*
X76073Y-7112D03*
D11*
X101600Y-7112D03*
X126746Y-7112D03*
D10*
X152273Y-7112D03*
X177673Y-7112D03*
D11*
X203200Y-7112D03*
X228346Y-7112D03*
X253492Y-7112D03*
D10*
X279273Y-7112D03*
X304673Y-7112D03*
X329819Y-7112D03*
X355727Y-7112D03*
X380873Y-7112D03*
X406273Y-7112D03*
X431673Y-7112D03*
D12*
X457200Y-7112D03*
D10*
X76073Y-6858D03*
D11*
X101600Y-6858D03*
X126746Y-6858D03*
D10*
X152273Y-6858D03*
X177673Y-6858D03*
D11*
X203200Y-6858D03*
X228346Y-6858D03*
X253492Y-6858D03*
D10*
X279273Y-6858D03*
X304673Y-6858D03*
X329819Y-6858D03*
X355727Y-6858D03*
X380873Y-6858D03*
X406273Y-6858D03*
X431673Y-6858D03*
D12*
X457200Y-6858D03*
D10*
X76073Y-6604D03*
D11*
X101600Y-6604D03*
X126746Y-6604D03*
D10*
X152273Y-6604D03*
X177673Y-6604D03*
D11*
X203200Y-6604D03*
X228346Y-6604D03*
X253492Y-6604D03*
D10*
X279273Y-6604D03*
X304673Y-6604D03*
X329819Y-6604D03*
X355727Y-6604D03*
X380873Y-6604D03*
X406273Y-6604D03*
X431673Y-6604D03*
D12*
X457200Y-6604D03*
D10*
X76073Y-6350D03*
D11*
X101600Y-6350D03*
X126746Y-6350D03*
D10*
X152273Y-6350D03*
X177673Y-6350D03*
D11*
X203200Y-6350D03*
X228346Y-6350D03*
X253492Y-6350D03*
D10*
X279273Y-6350D03*
X304673Y-6350D03*
X329819Y-6350D03*
X355727Y-6350D03*
X380873Y-6350D03*
X406273Y-6350D03*
X431673Y-6350D03*
D12*
X457200Y-6350D03*
D10*
X76073Y-6096D03*
D11*
X101600Y-6096D03*
X126746Y-6096D03*
D10*
X152273Y-6096D03*
X177673Y-6096D03*
D11*
X203200Y-6096D03*
X228346Y-6096D03*
X253492Y-6096D03*
D10*
X279273Y-6096D03*
X304673Y-6096D03*
X329819Y-6096D03*
X355727Y-6096D03*
X380873Y-6096D03*
X406273Y-6096D03*
X431673Y-6096D03*
D12*
X457200Y-6096D03*
D10*
X76073Y-5842D03*
D11*
X101600Y-5842D03*
X126746Y-5842D03*
D10*
X152273Y-5842D03*
X177673Y-5842D03*
D11*
X203200Y-5842D03*
X228346Y-5842D03*
X253492Y-5842D03*
D10*
X279273Y-5842D03*
X304673Y-5842D03*
X329819Y-5842D03*
X355727Y-5842D03*
X380873Y-5842D03*
X406273Y-5842D03*
X431673Y-5842D03*
D12*
X457200Y-5842D03*
D10*
X76073Y-5588D03*
D11*
X101600Y-5588D03*
X126746Y-5588D03*
D10*
X152273Y-5588D03*
X177673Y-5588D03*
D11*
X203200Y-5588D03*
X228346Y-5588D03*
X253492Y-5588D03*
D10*
X279273Y-5588D03*
X304673Y-5588D03*
X329819Y-5588D03*
X355727Y-5588D03*
X380873Y-5588D03*
X406273Y-5588D03*
X431673Y-5588D03*
D12*
X457200Y-5588D03*
D10*
X76073Y-5334D03*
D11*
X101600Y-5334D03*
X126746Y-5334D03*
D10*
X152273Y-5334D03*
X177673Y-5334D03*
D11*
X203200Y-5334D03*
X228346Y-5334D03*
X253492Y-5334D03*
D10*
X279273Y-5334D03*
X304673Y-5334D03*
X329819Y-5334D03*
X355727Y-5334D03*
X380873Y-5334D03*
X406273Y-5334D03*
X431673Y-5334D03*
D12*
X457200Y-5334D03*
D10*
X76073Y-5080D03*
D11*
X101600Y-5080D03*
X126746Y-5080D03*
D10*
X152273Y-5080D03*
X177673Y-5080D03*
D11*
X203200Y-5080D03*
X228346Y-5080D03*
X253492Y-5080D03*
D10*
X279273Y-5080D03*
X304673Y-5080D03*
X329819Y-5080D03*
X355727Y-5080D03*
X380873Y-5080D03*
X406273Y-5080D03*
X431673Y-5080D03*
D12*
X457200Y-5080D03*
D10*
X76073Y-4826D03*
D11*
X101600Y-4826D03*
X126746Y-4826D03*
D10*
X152273Y-4826D03*
X177673Y-4826D03*
D11*
X203200Y-4826D03*
X228346Y-4826D03*
X253492Y-4826D03*
D10*
X279273Y-4826D03*
X304673Y-4826D03*
X329819Y-4826D03*
X355727Y-4826D03*
X380873Y-4826D03*
X406273Y-4826D03*
X431673Y-4826D03*
D12*
X457200Y-4826D03*
D10*
X76073Y-4572D03*
D11*
X101600Y-4572D03*
X126746Y-4572D03*
D10*
X152273Y-4572D03*
X177673Y-4572D03*
D11*
X203200Y-4572D03*
X228346Y-4572D03*
X253492Y-4572D03*
D10*
X279273Y-4572D03*
X304673Y-4572D03*
X329819Y-4572D03*
X355727Y-4572D03*
X380873Y-4572D03*
X406273Y-4572D03*
X431673Y-4572D03*
D12*
X457200Y-4572D03*
D10*
X76073Y-4318D03*
D11*
X101600Y-4318D03*
X126746Y-4318D03*
D10*
X152273Y-4318D03*
X177673Y-4318D03*
D11*
X203200Y-4318D03*
X228346Y-4318D03*
X253492Y-4318D03*
D10*
X279273Y-4318D03*
X304673Y-4318D03*
X329819Y-4318D03*
X355727Y-4318D03*
X380873Y-4318D03*
X406273Y-4318D03*
X431673Y-4318D03*
D12*
X457200Y-4318D03*
D10*
X76073Y-4064D03*
D11*
X101600Y-4064D03*
X126746Y-4064D03*
D10*
X152273Y-4064D03*
X177673Y-4064D03*
D11*
X203200Y-4064D03*
X228346Y-4064D03*
X253492Y-4064D03*
D10*
X279273Y-4064D03*
X304673Y-4064D03*
X329819Y-4064D03*
X355727Y-4064D03*
X380873Y-4064D03*
X406273Y-4064D03*
X431673Y-4064D03*
D12*
X457200Y-4064D03*
D10*
X76073Y-3810D03*
D11*
X101600Y-3810D03*
X126746Y-3810D03*
D10*
X152273Y-3810D03*
X177673Y-3810D03*
D11*
X203200Y-3810D03*
X228346Y-3810D03*
X253492Y-3810D03*
D10*
X279273Y-3810D03*
X304673Y-3810D03*
X329819Y-3810D03*
X355727Y-3810D03*
X380873Y-3810D03*
X406273Y-3810D03*
X431673Y-3810D03*
D12*
X457200Y-3810D03*
D10*
X76073Y-3556D03*
D11*
X101600Y-3556D03*
X126746Y-3556D03*
D10*
X152273Y-3556D03*
X177673Y-3556D03*
D11*
X203200Y-3556D03*
X228346Y-3556D03*
X253492Y-3556D03*
D10*
X279273Y-3556D03*
X304673Y-3556D03*
X329819Y-3556D03*
X355727Y-3556D03*
X380873Y-3556D03*
X406273Y-3556D03*
X431673Y-3556D03*
D12*
X457200Y-3556D03*
D10*
X76073Y-3302D03*
D11*
X101600Y-3302D03*
X126746Y-3302D03*
D10*
X152273Y-3302D03*
X177673Y-3302D03*
D11*
X203200Y-3302D03*
X228346Y-3302D03*
X253492Y-3302D03*
D10*
X279273Y-3302D03*
X304673Y-3302D03*
X329819Y-3302D03*
X355727Y-3302D03*
X380873Y-3302D03*
X406273Y-3302D03*
X431673Y-3302D03*
D12*
X457200Y-3302D03*
D10*
X76073Y-3048D03*
D11*
X101600Y-3048D03*
X126746Y-3048D03*
D10*
X152273Y-3048D03*
X177673Y-3048D03*
D11*
X203200Y-3048D03*
X228346Y-3048D03*
X253492Y-3048D03*
D10*
X279273Y-3048D03*
X304673Y-3048D03*
X329819Y-3048D03*
X355727Y-3048D03*
X380873Y-3048D03*
X406273Y-3048D03*
X431673Y-3048D03*
D12*
X457200Y-3048D03*
D10*
X76073Y-2794D03*
D11*
X101600Y-2794D03*
X126746Y-2794D03*
D10*
X152273Y-2794D03*
X177673Y-2794D03*
D11*
X203200Y-2794D03*
X228346Y-2794D03*
X253492Y-2794D03*
D10*
X279273Y-2794D03*
X304673Y-2794D03*
X329819Y-2794D03*
X355727Y-2794D03*
X380873Y-2794D03*
X406273Y-2794D03*
X431673Y-2794D03*
D12*
X457200Y-2794D03*
D10*
X76073Y-2540D03*
D11*
X101600Y-2540D03*
X126746Y-2540D03*
D10*
X152273Y-2540D03*
X177673Y-2540D03*
D11*
X203200Y-2540D03*
X228346Y-2540D03*
X253492Y-2540D03*
D10*
X279273Y-2540D03*
X304673Y-2540D03*
X329819Y-2540D03*
X355727Y-2540D03*
X380873Y-2540D03*
X406273Y-2540D03*
X431673Y-2540D03*
D12*
X457200Y-2540D03*
D10*
X76073Y-2286D03*
D11*
X101600Y-2286D03*
X126746Y-2286D03*
D10*
X152273Y-2286D03*
X177673Y-2286D03*
D11*
X203200Y-2286D03*
X228346Y-2286D03*
X253492Y-2286D03*
D10*
X279273Y-2286D03*
X304673Y-2286D03*
X329819Y-2286D03*
X355727Y-2286D03*
X380873Y-2286D03*
X406273Y-2286D03*
X431673Y-2286D03*
D12*
X457200Y-2286D03*
D10*
X76073Y-2032D03*
D11*
X101600Y-2032D03*
X126746Y-2032D03*
D10*
X152273Y-2032D03*
X177673Y-2032D03*
D11*
X203200Y-2032D03*
X228346Y-2032D03*
X253492Y-2032D03*
D10*
X279273Y-2032D03*
X304673Y-2032D03*
X329819Y-2032D03*
X355727Y-2032D03*
X380873Y-2032D03*
X406273Y-2032D03*
X431673Y-2032D03*
D12*
X457200Y-2032D03*
D10*
X76073Y-1778D03*
D11*
X101600Y-1778D03*
X126746Y-1778D03*
D10*
X152273Y-1778D03*
X177673Y-1778D03*
D11*
X203200Y-1778D03*
X228346Y-1778D03*
X253492Y-1778D03*
D10*
X279273Y-1778D03*
X304673Y-1778D03*
X329819Y-1778D03*
X355727Y-1778D03*
X380873Y-1778D03*
X406273Y-1778D03*
X431673Y-1778D03*
D12*
X457200Y-1778D03*
D10*
X76073Y-1524D03*
D11*
X101600Y-1524D03*
X126746Y-1524D03*
D10*
X152273Y-1524D03*
X177673Y-1524D03*
D11*
X203200Y-1524D03*
X228346Y-1524D03*
X253492Y-1524D03*
D10*
X279273Y-1524D03*
X304673Y-1524D03*
X329819Y-1524D03*
X355727Y-1524D03*
X380873Y-1524D03*
X406273Y-1524D03*
X431673Y-1524D03*
D12*
X457200Y-1524D03*
D10*
X76073Y-1270D03*
D11*
X101600Y-1270D03*
X126746Y-1270D03*
D10*
X152273Y-1270D03*
X177673Y-1270D03*
D11*
X203200Y-1270D03*
X228346Y-1270D03*
X253492Y-1270D03*
D10*
X279273Y-1270D03*
X304673Y-1270D03*
X329819Y-1270D03*
X355727Y-1270D03*
X380873Y-1270D03*
X406273Y-1270D03*
X431673Y-1270D03*
D12*
X457200Y-1270D03*
D10*
X76073Y-1016D03*
D11*
X101600Y-1016D03*
X126746Y-1016D03*
D10*
X152273Y-1016D03*
X177673Y-1016D03*
D11*
X203200Y-1016D03*
X228346Y-1016D03*
X253492Y-1016D03*
D10*
X279273Y-1016D03*
X304673Y-1016D03*
X329819Y-1016D03*
X355727Y-1016D03*
X380873Y-1016D03*
X406273Y-1016D03*
X431673Y-1016D03*
D12*
X457200Y-1016D03*
D10*
X76073Y-762D03*
D11*
X101600Y-762D03*
X126746Y-762D03*
D10*
X152273Y-762D03*
X177673Y-762D03*
D11*
X203200Y-762D03*
X228346Y-762D03*
X253492Y-762D03*
D10*
X279273Y-762D03*
X304673Y-762D03*
X329819Y-762D03*
X355727Y-762D03*
X380873Y-762D03*
X406273Y-762D03*
X431673Y-762D03*
D12*
X457200Y-762D03*
D10*
X76073Y-508D03*
D11*
X101600Y-508D03*
X126746Y-508D03*
D10*
X152273Y-508D03*
X177673Y-508D03*
D11*
X203200Y-508D03*
X228346Y-508D03*
X253492Y-508D03*
D10*
X279273Y-508D03*
X304673Y-508D03*
X329819Y-508D03*
X355727Y-508D03*
X380873Y-508D03*
X406273Y-508D03*
X431673Y-508D03*
D12*
X457200Y-508D03*
D10*
X76073Y-254D03*
D11*
X101600Y-254D03*
X126746Y-254D03*
D10*
X152273Y-254D03*
X177673Y-254D03*
D11*
X203200Y-254D03*
X228346Y-254D03*
X253492Y-254D03*
D10*
X279273Y-254D03*
X304673Y-254D03*
X329819Y-254D03*
X355727Y-254D03*
X380873Y-254D03*
X406273Y-254D03*
X431673Y-254D03*
D12*
X457200Y-254D03*
D10*
X76073Y0D03*
D11*
X101600Y0D03*
X126746Y0D03*
D10*
X152273Y0D03*
X177673Y0D03*
D11*
X203200Y0D03*
X228346Y0D03*
X253492Y0D03*
D10*
X279273Y0D03*
X304673Y0D03*
X329819Y0D03*
X355727Y0D03*
X380873Y0D03*
X406273Y0D03*
X431673Y0D03*
D12*
X457200Y0D03*
D10*
X76073Y254D03*
D11*
X101600Y254D03*
X126746Y254D03*
D10*
X152273Y254D03*
X177673Y254D03*
D11*
X203200Y254D03*
X228346Y254D03*
X253492Y254D03*
D10*
X279273Y254D03*
X304673Y254D03*
X329819Y254D03*
X355727Y254D03*
X380873Y254D03*
X406273Y254D03*
X431673Y254D03*
D12*
X457200Y254D03*
D10*
X76073Y508D03*
D11*
X101600Y508D03*
X126746Y508D03*
D10*
X152273Y508D03*
X177673Y508D03*
D11*
X203200Y508D03*
X228346Y508D03*
X253492Y508D03*
D10*
X279273Y508D03*
X304673Y508D03*
X329819Y508D03*
X355727Y508D03*
X380873Y508D03*
X406273Y508D03*
X431673Y508D03*
D12*
X457200Y508D03*
D10*
X76073Y762D03*
D11*
X101600Y762D03*
X126746Y762D03*
D10*
X152273Y762D03*
X177673Y762D03*
D11*
X203200Y762D03*
X228346Y762D03*
X253492Y762D03*
D10*
X279273Y762D03*
X304673Y762D03*
X329819Y762D03*
X355727Y762D03*
X380873Y762D03*
X406273Y762D03*
X431673Y762D03*
D12*
X457200Y762D03*
D10*
X76073Y1016D03*
D11*
X101600Y1016D03*
X126746Y1016D03*
D10*
X152273Y1016D03*
X177673Y1016D03*
D11*
X203200Y1016D03*
X228346Y1016D03*
X253492Y1016D03*
D10*
X279273Y1016D03*
X304673Y1016D03*
X329819Y1016D03*
X355727Y1016D03*
X380873Y1016D03*
X406273Y1016D03*
X431673Y1016D03*
D12*
X457200Y1016D03*
D10*
X76073Y1270D03*
D11*
X101600Y1270D03*
X126746Y1270D03*
D10*
X152273Y1270D03*
X177673Y1270D03*
D11*
X203200Y1270D03*
X228346Y1270D03*
X253492Y1270D03*
D10*
X279273Y1270D03*
X304673Y1270D03*
X329819Y1270D03*
X355727Y1270D03*
X380873Y1270D03*
X406273Y1270D03*
X431673Y1270D03*
D12*
X457200Y1270D03*
D10*
X76073Y1524D03*
D11*
X101600Y1524D03*
X126746Y1524D03*
D10*
X152273Y1524D03*
X177673Y1524D03*
D11*
X203200Y1524D03*
X228346Y1524D03*
X253492Y1524D03*
D10*
X279273Y1524D03*
X304673Y1524D03*
X329819Y1524D03*
X355727Y1524D03*
X380873Y1524D03*
X406273Y1524D03*
X431673Y1524D03*
D12*
X457200Y1524D03*
D10*
X76073Y1778D03*
D11*
X101600Y1778D03*
X126746Y1778D03*
D10*
X152273Y1778D03*
X177673Y1778D03*
D11*
X203200Y1778D03*
X228346Y1778D03*
X253492Y1778D03*
D10*
X279273Y1778D03*
X304673Y1778D03*
X329819Y1778D03*
X355727Y1778D03*
X380873Y1778D03*
X406273Y1778D03*
X431673Y1778D03*
D12*
X457200Y1778D03*
D10*
X76073Y2032D03*
D11*
X101600Y2032D03*
X126746Y2032D03*
D10*
X152273Y2032D03*
X177673Y2032D03*
D11*
X203200Y2032D03*
X228346Y2032D03*
X253492Y2032D03*
D10*
X279273Y2032D03*
X304673Y2032D03*
X329819Y2032D03*
X355727Y2032D03*
X380873Y2032D03*
X406273Y2032D03*
X431673Y2032D03*
D12*
X457200Y2032D03*
D10*
X76073Y2286D03*
D11*
X101600Y2286D03*
X126746Y2286D03*
D10*
X152273Y2286D03*
X177673Y2286D03*
D11*
X203200Y2286D03*
X228346Y2286D03*
X253492Y2286D03*
D10*
X279273Y2286D03*
X304673Y2286D03*
X329819Y2286D03*
X355727Y2286D03*
X380873Y2286D03*
X406273Y2286D03*
X431673Y2286D03*
D12*
X457200Y2286D03*
D10*
X76073Y2540D03*
D11*
X101600Y2540D03*
X126746Y2540D03*
D10*
X152273Y2540D03*
X177673Y2540D03*
D11*
X203200Y2540D03*
X228346Y2540D03*
X253492Y2540D03*
D10*
X279273Y2540D03*
X304673Y2540D03*
X329819Y2540D03*
X355727Y2540D03*
X380873Y2540D03*
X406273Y2540D03*
X431673Y2540D03*
D12*
X457200Y2540D03*
D10*
X76073Y2794D03*
D11*
X101600Y2794D03*
X126746Y2794D03*
D10*
X152273Y2794D03*
X177673Y2794D03*
D11*
X203200Y2794D03*
X228346Y2794D03*
X253492Y2794D03*
D10*
X279273Y2794D03*
X304673Y2794D03*
X329819Y2794D03*
X355727Y2794D03*
X380873Y2794D03*
X406273Y2794D03*
X431673Y2794D03*
D12*
X457200Y2794D03*
D10*
X76073Y3048D03*
D11*
X101600Y3048D03*
X126746Y3048D03*
D10*
X152273Y3048D03*
X177673Y3048D03*
D11*
X203200Y3048D03*
X228346Y3048D03*
X253492Y3048D03*
D10*
X279273Y3048D03*
X304673Y3048D03*
X329819Y3048D03*
X355727Y3048D03*
X380873Y3048D03*
X406273Y3048D03*
X431673Y3048D03*
D12*
X457200Y3048D03*
D10*
X76073Y3302D03*
D11*
X101600Y3302D03*
X126746Y3302D03*
D10*
X152273Y3302D03*
X177673Y3302D03*
D11*
X203200Y3302D03*
X228346Y3302D03*
X253492Y3302D03*
D10*
X279273Y3302D03*
X304673Y3302D03*
X329819Y3302D03*
X355727Y3302D03*
X380873Y3302D03*
X406273Y3302D03*
X431673Y3302D03*
D12*
X457200Y3302D03*
D10*
X76073Y3556D03*
D11*
X101600Y3556D03*
X126746Y3556D03*
D10*
X152273Y3556D03*
X177673Y3556D03*
D11*
X203200Y3556D03*
X228346Y3556D03*
X253492Y3556D03*
D10*
X279273Y3556D03*
X304673Y3556D03*
X329819Y3556D03*
X355727Y3556D03*
X380873Y3556D03*
X406273Y3556D03*
X431673Y3556D03*
D12*
X457200Y3556D03*
D10*
X76073Y3810D03*
D11*
X101600Y3810D03*
X126746Y3810D03*
D10*
X152273Y3810D03*
X177673Y3810D03*
D11*
X203200Y3810D03*
X228346Y3810D03*
X253492Y3810D03*
D10*
X279273Y3810D03*
X304673Y3810D03*
X329819Y3810D03*
X355727Y3810D03*
X380873Y3810D03*
X406273Y3810D03*
X431673Y3810D03*
D12*
X457200Y3810D03*
D10*
X76073Y4064D03*
D11*
X101600Y4064D03*
X126746Y4064D03*
D10*
X152273Y4064D03*
X177673Y4064D03*
D11*
X203200Y4064D03*
X228346Y4064D03*
X253492Y4064D03*
D10*
X279273Y4064D03*
X304673Y4064D03*
X329819Y4064D03*
X355727Y4064D03*
X380873Y4064D03*
X406273Y4064D03*
X431673Y4064D03*
D12*
X457200Y4064D03*
D10*
X76073Y4318D03*
D11*
X101600Y4318D03*
X126746Y4318D03*
D10*
X152273Y4318D03*
X177673Y4318D03*
D11*
X203200Y4318D03*
X228346Y4318D03*
X253492Y4318D03*
D10*
X279273Y4318D03*
X304673Y4318D03*
X329819Y4318D03*
X355727Y4318D03*
X380873Y4318D03*
X406273Y4318D03*
X431673Y4318D03*
D12*
X457200Y4318D03*
D10*
X76073Y4572D03*
D11*
X101600Y4572D03*
X126746Y4572D03*
D10*
X152273Y4572D03*
X177673Y4572D03*
D11*
X203200Y4572D03*
X228346Y4572D03*
X253492Y4572D03*
D10*
X279273Y4572D03*
X304673Y4572D03*
X329819Y4572D03*
X355727Y4572D03*
X380873Y4572D03*
X406273Y4572D03*
X431673Y4572D03*
D12*
X457200Y4572D03*
D10*
X76073Y4826D03*
D11*
X101600Y4826D03*
X126746Y4826D03*
D10*
X152273Y4826D03*
X177673Y4826D03*
D11*
X203200Y4826D03*
X228346Y4826D03*
X253492Y4826D03*
D10*
X279273Y4826D03*
X304673Y4826D03*
X329819Y4826D03*
X355727Y4826D03*
X380873Y4826D03*
X406273Y4826D03*
X431673Y4826D03*
D12*
X457200Y4826D03*
D10*
X76073Y5080D03*
D11*
X101600Y5080D03*
X126746Y5080D03*
D10*
X152273Y5080D03*
X177673Y5080D03*
D11*
X203200Y5080D03*
X228346Y5080D03*
X253492Y5080D03*
D10*
X279273Y5080D03*
X304673Y5080D03*
X329819Y5080D03*
X355727Y5080D03*
X380873Y5080D03*
X406273Y5080D03*
X431673Y5080D03*
D12*
X457200Y5080D03*
D10*
X76073Y5334D03*
D11*
X101600Y5334D03*
X126746Y5334D03*
D10*
X152273Y5334D03*
X177673Y5334D03*
D11*
X203200Y5334D03*
X228346Y5334D03*
X253492Y5334D03*
D10*
X279273Y5334D03*
X304673Y5334D03*
X329819Y5334D03*
X355727Y5334D03*
X380873Y5334D03*
X406273Y5334D03*
X431673Y5334D03*
D12*
X457200Y5334D03*
D10*
X76073Y5588D03*
D11*
X101600Y5588D03*
X126746Y5588D03*
D10*
X152273Y5588D03*
X177673Y5588D03*
D11*
X203200Y5588D03*
X228346Y5588D03*
X253492Y5588D03*
D10*
X279273Y5588D03*
X304673Y5588D03*
X329819Y5588D03*
X355727Y5588D03*
X380873Y5588D03*
X406273Y5588D03*
X431673Y5588D03*
D12*
X457200Y5588D03*
D10*
X76073Y5842D03*
D11*
X101600Y5842D03*
X126746Y5842D03*
D10*
X152273Y5842D03*
X177673Y5842D03*
D11*
X203200Y5842D03*
X228346Y5842D03*
X253492Y5842D03*
D10*
X279273Y5842D03*
X304673Y5842D03*
X329819Y5842D03*
X355727Y5842D03*
X380873Y5842D03*
X406273Y5842D03*
X431673Y5842D03*
D12*
X457200Y5842D03*
D10*
X76073Y6096D03*
D11*
X101600Y6096D03*
X126746Y6096D03*
D10*
X152273Y6096D03*
X177673Y6096D03*
D11*
X203200Y6096D03*
X228346Y6096D03*
X253492Y6096D03*
D10*
X279273Y6096D03*
X304673Y6096D03*
X329819Y6096D03*
X355727Y6096D03*
X380873Y6096D03*
X406273Y6096D03*
X431673Y6096D03*
D12*
X457200Y6096D03*
D10*
X76073Y6350D03*
D11*
X101600Y6350D03*
X126746Y6350D03*
D10*
X152273Y6350D03*
X177673Y6350D03*
D11*
X203200Y6350D03*
X228346Y6350D03*
X253492Y6350D03*
D10*
X279273Y6350D03*
X304673Y6350D03*
X329819Y6350D03*
X355727Y6350D03*
X380873Y6350D03*
X406273Y6350D03*
X431673Y6350D03*
D12*
X457200Y6350D03*
D10*
X76073Y6604D03*
D11*
X101600Y6604D03*
X126746Y6604D03*
D10*
X152273Y6604D03*
X177673Y6604D03*
D11*
X203200Y6604D03*
X228346Y6604D03*
X253492Y6604D03*
D10*
X279273Y6604D03*
X304673Y6604D03*
X329819Y6604D03*
X355727Y6604D03*
X380873Y6604D03*
X406273Y6604D03*
X431673Y6604D03*
D12*
X457200Y6604D03*
D10*
X76073Y6858D03*
D11*
X101600Y6858D03*
X126746Y6858D03*
D10*
X152273Y6858D03*
X177673Y6858D03*
D11*
X203200Y6858D03*
X228346Y6858D03*
X253492Y6858D03*
D10*
X279273Y6858D03*
X304673Y6858D03*
X329819Y6858D03*
X355727Y6858D03*
X380873Y6858D03*
X406273Y6858D03*
X431673Y6858D03*
D12*
X457200Y6858D03*
D10*
X76073Y7112D03*
D11*
X101600Y7112D03*
X126746Y7112D03*
D10*
X152273Y7112D03*
X177673Y7112D03*
D11*
X203200Y7112D03*
X228346Y7112D03*
X253492Y7112D03*
D10*
X279273Y7112D03*
X304673Y7112D03*
X329819Y7112D03*
X355727Y7112D03*
X380873Y7112D03*
X406273Y7112D03*
X431673Y7112D03*
D12*
X457200Y7112D03*
D10*
X76073Y7366D03*
D11*
X101600Y7366D03*
X126746Y7366D03*
D10*
X152273Y7366D03*
X177673Y7366D03*
D11*
X203200Y7366D03*
X228346Y7366D03*
X253492Y7366D03*
D10*
X279273Y7366D03*
X304673Y7366D03*
X329819Y7366D03*
X355727Y7366D03*
X380873Y7366D03*
X406273Y7366D03*
X431673Y7366D03*
D12*
X457200Y7366D03*
D10*
X76073Y7620D03*
D11*
X101600Y7620D03*
X126746Y7620D03*
D10*
X152273Y7620D03*
X177673Y7620D03*
D11*
X203200Y7620D03*
X228346Y7620D03*
X253492Y7620D03*
D10*
X279273Y7620D03*
X304673Y7620D03*
X329819Y7620D03*
X355727Y7620D03*
X380873Y7620D03*
X406273Y7620D03*
X431673Y7620D03*
D12*
X457200Y7620D03*
D10*
X76073Y7874D03*
D11*
X101600Y7874D03*
X126746Y7874D03*
D10*
X152273Y7874D03*
X177673Y7874D03*
D11*
X203200Y7874D03*
X228346Y7874D03*
X253492Y7874D03*
D10*
X279273Y7874D03*
X304673Y7874D03*
X329819Y7874D03*
X355727Y7874D03*
X380873Y7874D03*
X406273Y7874D03*
X431673Y7874D03*
D12*
X457200Y7874D03*
D10*
X76073Y8128D03*
D11*
X101600Y8128D03*
X126746Y8128D03*
D10*
X152273Y8128D03*
X177673Y8128D03*
D11*
X203200Y8128D03*
X228346Y8128D03*
X253492Y8128D03*
D10*
X279273Y8128D03*
X304673Y8128D03*
X329819Y8128D03*
X355727Y8128D03*
X380873Y8128D03*
X406273Y8128D03*
X431673Y8128D03*
D12*
X457200Y8128D03*
D10*
X76073Y8382D03*
D11*
X101600Y8382D03*
X126746Y8382D03*
D10*
X152273Y8382D03*
X177673Y8382D03*
D11*
X203200Y8382D03*
X228346Y8382D03*
X253492Y8382D03*
D10*
X279273Y8382D03*
X304673Y8382D03*
X329819Y8382D03*
X355727Y8382D03*
X380873Y8382D03*
X406273Y8382D03*
X431673Y8382D03*
D12*
X457200Y8382D03*
D10*
X76073Y8636D03*
D11*
X101600Y8636D03*
X126746Y8636D03*
D10*
X152273Y8636D03*
X177673Y8636D03*
D11*
X203200Y8636D03*
X228346Y8636D03*
X253492Y8636D03*
D10*
X279273Y8636D03*
X304673Y8636D03*
X329819Y8636D03*
X355727Y8636D03*
X380873Y8636D03*
X406273Y8636D03*
X431673Y8636D03*
D12*
X457200Y8636D03*
D10*
X76073Y8890D03*
D11*
X101600Y8890D03*
X126746Y8890D03*
D10*
X152273Y8890D03*
X177673Y8890D03*
D11*
X203200Y8890D03*
X228346Y8890D03*
X253492Y8890D03*
D10*
X279273Y8890D03*
X304673Y8890D03*
X329819Y8890D03*
X355727Y8890D03*
X380873Y8890D03*
X406273Y8890D03*
X431673Y8890D03*
D12*
X457200Y8890D03*
D10*
X76073Y9144D03*
D11*
X101600Y9144D03*
X126746Y9144D03*
D10*
X152273Y9144D03*
X177673Y9144D03*
D11*
X203200Y9144D03*
X228346Y9144D03*
X253492Y9144D03*
D10*
X279273Y9144D03*
X304673Y9144D03*
X329819Y9144D03*
X355727Y9144D03*
X380873Y9144D03*
X406273Y9144D03*
X431673Y9144D03*
D12*
X457200Y9144D03*
D10*
X76073Y9398D03*
D11*
X101600Y9398D03*
X126746Y9398D03*
D10*
X152273Y9398D03*
X177673Y9398D03*
D11*
X203200Y9398D03*
X228346Y9398D03*
X253492Y9398D03*
D10*
X279273Y9398D03*
X304673Y9398D03*
X329819Y9398D03*
X355727Y9398D03*
X380873Y9398D03*
X406273Y9398D03*
X431673Y9398D03*
D12*
X457200Y9398D03*
D10*
X76073Y9652D03*
D11*
X101600Y9652D03*
X126746Y9652D03*
D10*
X152273Y9652D03*
X177673Y9652D03*
D11*
X203200Y9652D03*
X228346Y9652D03*
X253492Y9652D03*
D10*
X279273Y9652D03*
X304673Y9652D03*
X329819Y9652D03*
X355727Y9652D03*
X380873Y9652D03*
X406273Y9652D03*
X431673Y9652D03*
D12*
X457200Y9652D03*
D10*
X76073Y9906D03*
D11*
X101600Y9906D03*
X126746Y9906D03*
D10*
X152273Y9906D03*
X177673Y9906D03*
D11*
X203200Y9906D03*
X228346Y9906D03*
X253492Y9906D03*
D10*
X279273Y9906D03*
X304673Y9906D03*
X329819Y9906D03*
X355727Y9906D03*
X380873Y9906D03*
X406273Y9906D03*
X431673Y9906D03*
D12*
X457200Y9906D03*
D10*
X76073Y10160D03*
D11*
X101600Y10160D03*
X126746Y10160D03*
D10*
X152273Y10160D03*
X177673Y10160D03*
D11*
X203200Y10160D03*
X228346Y10160D03*
X253492Y10160D03*
D10*
X279273Y10160D03*
X304673Y10160D03*
X329819Y10160D03*
X355727Y10160D03*
X380873Y10160D03*
X406273Y10160D03*
X431673Y10160D03*
D12*
X457200Y10160D03*
D10*
X76073Y10414D03*
D11*
X101600Y10414D03*
X126746Y10414D03*
D10*
X152273Y10414D03*
X177673Y10414D03*
D11*
X203200Y10414D03*
X228346Y10414D03*
X253492Y10414D03*
D10*
X279273Y10414D03*
X304673Y10414D03*
X329819Y10414D03*
X355727Y10414D03*
X380873Y10414D03*
X406273Y10414D03*
X431673Y10414D03*
D12*
X457200Y10414D03*
D10*
X76073Y10668D03*
D11*
X101600Y10668D03*
X126746Y10668D03*
D10*
X152273Y10668D03*
X177673Y10668D03*
D11*
X203200Y10668D03*
X228346Y10668D03*
X253492Y10668D03*
D10*
X279273Y10668D03*
X304673Y10668D03*
X329819Y10668D03*
X355727Y10668D03*
X380873Y10668D03*
X406273Y10668D03*
X431673Y10668D03*
D12*
X457200Y10668D03*
D10*
X76073Y10922D03*
D11*
X101600Y10922D03*
X126746Y10922D03*
D10*
X152273Y10922D03*
X177673Y10922D03*
D11*
X203200Y10922D03*
X228346Y10922D03*
X253492Y10922D03*
D10*
X279273Y10922D03*
X304673Y10922D03*
X329819Y10922D03*
X355727Y10922D03*
X380873Y10922D03*
X406273Y10922D03*
X431673Y10922D03*
D12*
X457200Y10922D03*
D10*
X76073Y11176D03*
D11*
X101600Y11176D03*
X126746Y11176D03*
D10*
X152273Y11176D03*
X177673Y11176D03*
D11*
X203200Y11176D03*
X228346Y11176D03*
X253492Y11176D03*
D10*
X279273Y11176D03*
X304673Y11176D03*
X329819Y11176D03*
X355727Y11176D03*
X380873Y11176D03*
X406273Y11176D03*
X431673Y11176D03*
D12*
X457200Y11176D03*
D10*
X76073Y11430D03*
D11*
X101600Y11430D03*
X126746Y11430D03*
D10*
X152273Y11430D03*
X177673Y11430D03*
D11*
X203200Y11430D03*
X228346Y11430D03*
X253492Y11430D03*
D10*
X279273Y11430D03*
X304673Y11430D03*
X329819Y11430D03*
X355727Y11430D03*
X380873Y11430D03*
X406273Y11430D03*
X431673Y11430D03*
D12*
X457200Y11430D03*
D10*
X76073Y11684D03*
D11*
X101600Y11684D03*
X126746Y11684D03*
D10*
X152273Y11684D03*
X177673Y11684D03*
D11*
X203200Y11684D03*
X228346Y11684D03*
X253492Y11684D03*
D10*
X279273Y11684D03*
X304673Y11684D03*
X329819Y11684D03*
X355727Y11684D03*
X380873Y11684D03*
X406273Y11684D03*
X431673Y11684D03*
D12*
X457200Y11684D03*
D10*
X76073Y11938D03*
D11*
X101600Y11938D03*
X126746Y11938D03*
D10*
X152273Y11938D03*
X177673Y11938D03*
D11*
X203200Y11938D03*
X228346Y11938D03*
X253492Y11938D03*
D10*
X279273Y11938D03*
X304673Y11938D03*
X329819Y11938D03*
X355727Y11938D03*
X380873Y11938D03*
X406273Y11938D03*
X431673Y11938D03*
X76073Y12192D03*
D11*
X101600Y12192D03*
X126746Y12192D03*
D10*
X152273Y12192D03*
X177673Y12192D03*
D11*
X203200Y12192D03*
X228346Y12192D03*
X253492Y12192D03*
D10*
X279273Y12192D03*
X304673Y12192D03*
X329819Y12192D03*
X355727Y12192D03*
X380873Y12192D03*
X406273Y12192D03*
X431673Y12192D03*
D12*
X457200Y12192D03*
D10*
X76073Y12446D03*
D11*
X101600Y12446D03*
X126746Y12446D03*
D10*
X152273Y12446D03*
X177673Y12446D03*
D11*
X203200Y12446D03*
X228346Y12446D03*
X253492Y12446D03*
D10*
X279273Y12446D03*
X304673Y12446D03*
X329819Y12446D03*
X355727Y12446D03*
X380873Y12446D03*
X406273Y12446D03*
X431673Y12446D03*
D12*
X457200Y12446D03*
D10*
X76073Y12700D03*
D11*
X101600Y12700D03*
X126746Y12700D03*
D10*
X152273Y12700D03*
X177673Y12700D03*
D11*
X203200Y12700D03*
X228346Y12700D03*
X253492Y12700D03*
D10*
X279273Y12700D03*
X304673Y12700D03*
X329819Y12700D03*
X355727Y12700D03*
X380873Y12700D03*
X406273Y12700D03*
X431673Y12700D03*
D12*
X457200Y12700D03*
D10*
X76073Y12954D03*
D11*
X101600Y12954D03*
X126746Y12954D03*
D10*
X152273Y12954D03*
X177673Y12954D03*
D11*
X203200Y12954D03*
X228346Y12954D03*
X253492Y12954D03*
D10*
X279273Y12954D03*
X304673Y12954D03*
X329819Y12954D03*
X355727Y12954D03*
X380873Y12954D03*
X406273Y12954D03*
X431673Y12954D03*
D12*
X457200Y12954D03*
D10*
X76073Y13208D03*
D11*
X101600Y13208D03*
X126746Y13208D03*
D10*
X152273Y13208D03*
X177673Y13208D03*
D11*
X203200Y13208D03*
X228346Y13208D03*
X253492Y13208D03*
D10*
X279273Y13208D03*
X304673Y13208D03*
X329819Y13208D03*
X355727Y13208D03*
X380873Y13208D03*
X406273Y13208D03*
X431673Y13208D03*
D12*
X457200Y13208D03*
D10*
X76073Y13462D03*
D11*
X101600Y13462D03*
X126746Y13462D03*
D10*
X152273Y13462D03*
X177673Y13462D03*
D11*
X203200Y13462D03*
X228346Y13462D03*
X253492Y13462D03*
D10*
X279273Y13462D03*
X304673Y13462D03*
X329819Y13462D03*
X355727Y13462D03*
X380873Y13462D03*
X406273Y13462D03*
X431673Y13462D03*
D12*
X457200Y13462D03*
D10*
X76073Y13716D03*
D11*
X101600Y13716D03*
X126746Y13716D03*
D10*
X152273Y13716D03*
X177673Y13716D03*
D11*
X203200Y13716D03*
X228346Y13716D03*
X253492Y13716D03*
D10*
X279273Y13716D03*
X304673Y13716D03*
X329819Y13716D03*
X355727Y13716D03*
X380873Y13716D03*
X406273Y13716D03*
X431673Y13716D03*
D12*
X457200Y13716D03*
D10*
X76073Y13970D03*
D11*
X101600Y13970D03*
X126746Y13970D03*
D10*
X152273Y13970D03*
X177673Y13970D03*
D11*
X203200Y13970D03*
X228346Y13970D03*
X253492Y13970D03*
D10*
X279273Y13970D03*
X304673Y13970D03*
X329819Y13970D03*
X355727Y13970D03*
X380873Y13970D03*
X406273Y13970D03*
X431673Y13970D03*
D12*
X457200Y13970D03*
D10*
X76073Y14224D03*
D11*
X101600Y14224D03*
X126746Y14224D03*
D10*
X152273Y14224D03*
X177673Y14224D03*
D11*
X203200Y14224D03*
X228346Y14224D03*
X253492Y14224D03*
D10*
X279273Y14224D03*
X304673Y14224D03*
X329819Y14224D03*
X355727Y14224D03*
X380873Y14224D03*
X406273Y14224D03*
X431673Y14224D03*
D12*
X457200Y14224D03*
D10*
X76073Y14478D03*
D11*
X101600Y14478D03*
X126746Y14478D03*
D10*
X152273Y14478D03*
X177673Y14478D03*
D11*
X203200Y14478D03*
X228346Y14478D03*
X253492Y14478D03*
D10*
X279273Y14478D03*
X304673Y14478D03*
X329819Y14478D03*
X355727Y14478D03*
X380873Y14478D03*
X406273Y14478D03*
X431673Y14478D03*
D12*
X457200Y14478D03*
D10*
X76073Y14732D03*
D11*
X101600Y14732D03*
X126746Y14732D03*
D13*
X133096Y14732D03*
D10*
X152273Y14732D03*
X177673Y14732D03*
D11*
X203200Y14732D03*
X228346Y14732D03*
X253492Y14732D03*
D10*
X279273Y14732D03*
X304673Y14732D03*
X329819Y14732D03*
X355727Y14732D03*
X380873Y14732D03*
X406273Y14732D03*
X431673Y14732D03*
D12*
X457200Y14732D03*
D10*
X76073Y14986D03*
D11*
X101600Y14986D03*
X126746Y14986D03*
D14*
X133604Y14986D03*
D10*
X152273Y14986D03*
X177673Y14986D03*
D11*
X203200Y14986D03*
X228346Y14986D03*
X253492Y14986D03*
D10*
X279273Y14986D03*
X304673Y14986D03*
X329819Y14986D03*
X355727Y14986D03*
X380873Y14986D03*
X406273Y14986D03*
X431673Y14986D03*
D12*
X457200Y14986D03*
D10*
X76073Y15240D03*
D11*
X101600Y15240D03*
X126746Y15240D03*
X134112Y15240D03*
D10*
X152273Y15240D03*
X177673Y15240D03*
D11*
X203200Y15240D03*
X228346Y15240D03*
X253492Y15240D03*
D10*
X279273Y15240D03*
X304673Y15240D03*
X329819Y15240D03*
X355727Y15240D03*
X380873Y15240D03*
X406273Y15240D03*
X431673Y15240D03*
D12*
X457200Y15240D03*
D10*
X76073Y15494D03*
D11*
X101600Y15494D03*
X126746Y15494D03*
D15*
X134747Y15494D03*
D10*
X152273Y15494D03*
X177673Y15494D03*
D11*
X203200Y15494D03*
X228346Y15494D03*
X253492Y15494D03*
D10*
X279273Y15494D03*
X304673Y15494D03*
X329819Y15494D03*
X355727Y15494D03*
X380873Y15494D03*
X406273Y15494D03*
X431673Y15494D03*
D12*
X457200Y15494D03*
D10*
X76073Y15748D03*
D11*
X101600Y15748D03*
X126746Y15748D03*
D16*
X135255Y15748D03*
D10*
X152273Y15748D03*
X177673Y15748D03*
D11*
X203200Y15748D03*
X228346Y15748D03*
X253492Y15748D03*
D10*
X279273Y15748D03*
X304673Y15748D03*
X329819Y15748D03*
X355727Y15748D03*
X380873Y15748D03*
X406273Y15748D03*
X431673Y15748D03*
D12*
X457200Y15748D03*
D10*
X76073Y16002D03*
D11*
X101600Y16002D03*
X126746Y16002D03*
D17*
X135890Y16002D03*
D10*
X152273Y16002D03*
X177673Y16002D03*
D11*
X203200Y16002D03*
X228346Y16002D03*
X253492Y16002D03*
D10*
X279273Y16002D03*
X304673Y16002D03*
X329819Y16002D03*
X355727Y16002D03*
X380873Y16002D03*
X406273Y16002D03*
X431673Y16002D03*
D12*
X457200Y16002D03*
D10*
X76073Y16256D03*
D11*
X101600Y16256D03*
X108966Y16256D03*
D18*
X121793Y16256D03*
D11*
X126746Y16256D03*
D19*
X136398Y16256D03*
D10*
X152273Y16256D03*
D20*
X166116Y16256D03*
D10*
X177673Y16256D03*
D18*
X185039Y16256D03*
D11*
X203200Y16256D03*
X210566Y16256D03*
X228346Y16256D03*
D18*
X235839Y16256D03*
D11*
X253492Y16256D03*
D18*
X260985Y16256D03*
D10*
X279273Y16256D03*
D15*
X288671Y16256D03*
D21*
X297307Y16256D03*
D10*
X304673Y16256D03*
D15*
X314071Y16256D03*
D21*
X322707Y16256D03*
D10*
X329819Y16256D03*
D22*
X339344Y16256D03*
D23*
X347980Y16256D03*
D10*
X355727Y16256D03*
D18*
X363093Y16256D03*
X375793Y16256D03*
D10*
X380873Y16256D03*
D18*
X388239Y16256D03*
D24*
X401066Y16256D03*
D10*
X406273Y16256D03*
D11*
X413766Y16256D03*
D18*
X426593Y16256D03*
D10*
X431673Y16256D03*
D12*
X457200Y16256D03*
D20*
X62992Y16510D03*
D10*
X76073Y16510D03*
D25*
X88138Y16510D03*
D11*
X101600Y16510D03*
X108966Y16510D03*
D18*
X121793Y16510D03*
D11*
X126746Y16510D03*
D26*
X137033Y16510D03*
D10*
X152273Y16510D03*
D27*
X166243Y16510D03*
D10*
X177673Y16510D03*
D18*
X185039Y16510D03*
D11*
X203200Y16510D03*
X210566Y16510D03*
X228346Y16510D03*
D18*
X235839Y16510D03*
D11*
X253492Y16510D03*
D18*
X260985Y16510D03*
D10*
X279273Y16510D03*
D28*
X288417Y16510D03*
D29*
X297053Y16510D03*
D10*
X304673Y16510D03*
D28*
X313817Y16510D03*
D29*
X322453Y16510D03*
D10*
X329819Y16510D03*
D30*
X339090Y16510D03*
D31*
X347726Y16510D03*
D10*
X355727Y16510D03*
D18*
X363093Y16510D03*
X375793Y16510D03*
D10*
X380873Y16510D03*
D18*
X388239Y16510D03*
D24*
X401066Y16510D03*
D10*
X406273Y16510D03*
D11*
X413766Y16510D03*
D18*
X426593Y16510D03*
D10*
X431673Y16510D03*
D12*
X457200Y16510D03*
D27*
X62865Y16764D03*
D10*
X76073Y16764D03*
D25*
X88138Y16764D03*
D11*
X101600Y16764D03*
X108966Y16764D03*
D18*
X121793Y16764D03*
D11*
X126746Y16764D03*
D32*
X137541Y16764D03*
D10*
X152273Y16764D03*
D33*
X166243Y16764D03*
D10*
X177673Y16764D03*
D18*
X185039Y16764D03*
D11*
X203200Y16764D03*
X210566Y16764D03*
X228346Y16764D03*
D18*
X235839Y16764D03*
D11*
X253492Y16764D03*
D18*
X260985Y16764D03*
D10*
X279273Y16764D03*
D34*
X288290Y16764D03*
D31*
X296926Y16764D03*
D10*
X304673Y16764D03*
D34*
X313690Y16764D03*
D31*
X322326Y16764D03*
D10*
X329819Y16764D03*
D34*
X338836Y16764D03*
D26*
X347599Y16764D03*
D10*
X355727Y16764D03*
D18*
X363093Y16764D03*
X375793Y16764D03*
D10*
X380873Y16764D03*
D18*
X388239Y16764D03*
D24*
X401066Y16764D03*
D10*
X406273Y16764D03*
D11*
X413766Y16764D03*
D18*
X426593Y16764D03*
D10*
X431673Y16764D03*
D12*
X457200Y16764D03*
D33*
X62865Y17018D03*
D10*
X76073Y17018D03*
D25*
X88138Y17018D03*
D11*
X101600Y17018D03*
X108966Y17018D03*
D18*
X121793Y17018D03*
D11*
X126746Y17018D03*
D35*
X138176Y17018D03*
D10*
X152273Y17018D03*
D36*
X166243Y17018D03*
D10*
X177673Y17018D03*
D18*
X185039Y17018D03*
D11*
X203200Y17018D03*
X210566Y17018D03*
X228346Y17018D03*
D18*
X235839Y17018D03*
D11*
X253492Y17018D03*
D18*
X260985Y17018D03*
D10*
X279273Y17018D03*
D16*
X288163Y17018D03*
D26*
X296799Y17018D03*
D10*
X304673Y17018D03*
D16*
X313563Y17018D03*
D31*
X322326Y17018D03*
D10*
X329819Y17018D03*
D34*
X338836Y17018D03*
D26*
X347599Y17018D03*
D10*
X355727Y17018D03*
D18*
X363093Y17018D03*
X375793Y17018D03*
D10*
X380873Y17018D03*
D18*
X388239Y17018D03*
D24*
X401066Y17018D03*
D10*
X406273Y17018D03*
D11*
X413766Y17018D03*
D18*
X426593Y17018D03*
D10*
X431673Y17018D03*
D12*
X457200Y17018D03*
D36*
X62865Y17272D03*
D10*
X76073Y17272D03*
D25*
X88138Y17272D03*
D11*
X101600Y17272D03*
X108966Y17272D03*
D24*
X115316Y17272D03*
D18*
X121793Y17272D03*
D11*
X126746Y17272D03*
D37*
X138684Y17272D03*
D10*
X152273Y17272D03*
D38*
X166116Y17272D03*
D10*
X177673Y17272D03*
D18*
X185039Y17272D03*
D11*
X203200Y17272D03*
X210566Y17272D03*
X228346Y17272D03*
D18*
X235839Y17272D03*
D11*
X253492Y17272D03*
D18*
X260985Y17272D03*
D10*
X279273Y17272D03*
D39*
X288036Y17272D03*
D26*
X296799Y17272D03*
D10*
X304673Y17272D03*
D16*
X313563Y17272D03*
D26*
X322199Y17272D03*
D10*
X329819Y17272D03*
D16*
X338709Y17272D03*
D40*
X347472Y17272D03*
D10*
X355727Y17272D03*
D18*
X363093Y17272D03*
X369443Y17272D03*
X375793Y17272D03*
D10*
X380873Y17272D03*
D18*
X388239Y17272D03*
X394589Y17272D03*
D24*
X401066Y17272D03*
D10*
X406273Y17272D03*
D11*
X413766Y17272D03*
D18*
X419989Y17272D03*
X426593Y17272D03*
D10*
X431673Y17272D03*
D12*
X457200Y17272D03*
D36*
X62865Y17526D03*
D10*
X76073Y17526D03*
D25*
X88138Y17526D03*
D11*
X101600Y17526D03*
X108966Y17526D03*
D24*
X115316Y17526D03*
D18*
X121793Y17526D03*
D11*
X126746Y17526D03*
D41*
X139319Y17526D03*
D10*
X152273Y17526D03*
D38*
X166116Y17526D03*
D10*
X177673Y17526D03*
D18*
X185039Y17526D03*
D11*
X203200Y17526D03*
X210566Y17526D03*
X228346Y17526D03*
D18*
X235839Y17526D03*
D11*
X253492Y17526D03*
D18*
X260985Y17526D03*
D10*
X279273Y17526D03*
D39*
X288036Y17526D03*
D26*
X296799Y17526D03*
D10*
X304673Y17526D03*
D39*
X313436Y17526D03*
D26*
X322199Y17526D03*
D10*
X329819Y17526D03*
D39*
X338582Y17526D03*
D40*
X347472Y17526D03*
D10*
X355727Y17526D03*
D18*
X363093Y17526D03*
D24*
X369316Y17526D03*
D18*
X375793Y17526D03*
D10*
X380873Y17526D03*
D18*
X388239Y17526D03*
X394589Y17526D03*
D24*
X401066Y17526D03*
D10*
X406273Y17526D03*
D11*
X413766Y17526D03*
D24*
X420116Y17526D03*
D18*
X426593Y17526D03*
D10*
X431673Y17526D03*
D12*
X457200Y17526D03*
D42*
X62865Y17780D03*
D10*
X76073Y17780D03*
D25*
X88138Y17780D03*
D11*
X101600Y17780D03*
X108966Y17780D03*
D24*
X115316Y17780D03*
D18*
X121793Y17780D03*
D11*
X126746Y17780D03*
D27*
X139827Y17780D03*
D10*
X152273Y17780D03*
D25*
X166116Y17780D03*
D10*
X177673Y17780D03*
D25*
X191516Y17780D03*
D11*
X203200Y17780D03*
D42*
X217043Y17780D03*
D11*
X228346Y17780D03*
D42*
X242189Y17780D03*
D11*
X253492Y17780D03*
D42*
X267335Y17780D03*
D10*
X279273Y17780D03*
D39*
X288036Y17780D03*
D26*
X296799Y17780D03*
D10*
X304673Y17780D03*
D39*
X313436Y17780D03*
D26*
X322199Y17780D03*
D10*
X329819Y17780D03*
D39*
X338582Y17780D03*
D40*
X347472Y17780D03*
D10*
X355727Y17780D03*
D18*
X363093Y17780D03*
D24*
X369316Y17780D03*
D18*
X375793Y17780D03*
D10*
X380873Y17780D03*
D18*
X388239Y17780D03*
X394589Y17780D03*
D24*
X401066Y17780D03*
D10*
X406273Y17780D03*
D11*
X413766Y17780D03*
D24*
X420116Y17780D03*
D18*
X426593Y17780D03*
D10*
X431673Y17780D03*
D12*
X457200Y17780D03*
D42*
X62865Y18034D03*
D10*
X76073Y18034D03*
D25*
X88138Y18034D03*
D11*
X101600Y18034D03*
X108966Y18034D03*
D24*
X115316Y18034D03*
D18*
X121793Y18034D03*
D11*
X126746Y18034D03*
D38*
X140462Y18034D03*
D10*
X152273Y18034D03*
D25*
X166116Y18034D03*
D10*
X177673Y18034D03*
D25*
X191516Y18034D03*
D11*
X203200Y18034D03*
D42*
X217043Y18034D03*
D11*
X228346Y18034D03*
D42*
X242189Y18034D03*
D11*
X253492Y18034D03*
D42*
X267335Y18034D03*
D10*
X279273Y18034D03*
D43*
X287909Y18034D03*
D26*
X296799Y18034D03*
D10*
X304673Y18034D03*
D39*
X313436Y18034D03*
D26*
X322199Y18034D03*
D10*
X329819Y18034D03*
D39*
X338582Y18034D03*
D40*
X347472Y18034D03*
D10*
X355727Y18034D03*
D18*
X363093Y18034D03*
D24*
X369316Y18034D03*
D18*
X375793Y18034D03*
D10*
X380873Y18034D03*
D18*
X388239Y18034D03*
X394589Y18034D03*
D24*
X401066Y18034D03*
D10*
X406273Y18034D03*
D11*
X413766Y18034D03*
D24*
X420116Y18034D03*
D18*
X426593Y18034D03*
D10*
X431673Y18034D03*
D12*
X457200Y18034D03*
D42*
X62865Y18288D03*
D10*
X76073Y18288D03*
D25*
X88138Y18288D03*
D11*
X101600Y18288D03*
X108966Y18288D03*
D24*
X115316Y18288D03*
D18*
X121793Y18288D03*
D11*
X126746Y18288D03*
D25*
X140716Y18288D03*
D10*
X152273Y18288D03*
D25*
X166116Y18288D03*
D10*
X177673Y18288D03*
D25*
X191516Y18288D03*
D11*
X203200Y18288D03*
D42*
X217043Y18288D03*
D11*
X228346Y18288D03*
D42*
X242189Y18288D03*
D11*
X253492Y18288D03*
D42*
X267335Y18288D03*
D10*
X279273Y18288D03*
D43*
X287909Y18288D03*
D26*
X296799Y18288D03*
D10*
X304673Y18288D03*
D39*
X313436Y18288D03*
D26*
X322199Y18288D03*
D10*
X329819Y18288D03*
D39*
X338582Y18288D03*
D40*
X347472Y18288D03*
D10*
X355727Y18288D03*
D18*
X363093Y18288D03*
D24*
X369316Y18288D03*
D18*
X375793Y18288D03*
D10*
X380873Y18288D03*
D18*
X388239Y18288D03*
X394589Y18288D03*
D24*
X401066Y18288D03*
D10*
X406273Y18288D03*
D11*
X413766Y18288D03*
D24*
X420116Y18288D03*
D18*
X426593Y18288D03*
D10*
X431673Y18288D03*
D12*
X457200Y18288D03*
D25*
X62992Y18542D03*
D10*
X76073Y18542D03*
D25*
X88138Y18542D03*
D11*
X101600Y18542D03*
X108966Y18542D03*
D24*
X115316Y18542D03*
D18*
X121793Y18542D03*
D11*
X126746Y18542D03*
D42*
X140843Y18542D03*
D10*
X152273Y18542D03*
D25*
X166116Y18542D03*
D10*
X177673Y18542D03*
D25*
X191516Y18542D03*
D11*
X203200Y18542D03*
D42*
X217043Y18542D03*
D11*
X228346Y18542D03*
D42*
X242189Y18542D03*
D11*
X253492Y18542D03*
D42*
X267335Y18542D03*
D10*
X279273Y18542D03*
D43*
X287909Y18542D03*
D26*
X296799Y18542D03*
D10*
X304673Y18542D03*
D39*
X313436Y18542D03*
D26*
X322199Y18542D03*
D10*
X329819Y18542D03*
D39*
X338582Y18542D03*
D40*
X347472Y18542D03*
D10*
X355727Y18542D03*
D18*
X363093Y18542D03*
D24*
X369316Y18542D03*
D18*
X375793Y18542D03*
D10*
X380873Y18542D03*
D18*
X388239Y18542D03*
X394589Y18542D03*
D24*
X401066Y18542D03*
D10*
X406273Y18542D03*
D11*
X413766Y18542D03*
D24*
X420116Y18542D03*
D18*
X426593Y18542D03*
D10*
X431673Y18542D03*
D12*
X457200Y18542D03*
D25*
X62992Y18796D03*
D10*
X76073Y18796D03*
D25*
X88138Y18796D03*
D11*
X101600Y18796D03*
X108966Y18796D03*
D24*
X115316Y18796D03*
D18*
X121793Y18796D03*
D11*
X126746Y18796D03*
D33*
X141351Y18796D03*
D10*
X152273Y18796D03*
D25*
X166116Y18796D03*
D10*
X177673Y18796D03*
D25*
X191516Y18796D03*
D11*
X203200Y18796D03*
D42*
X217043Y18796D03*
D11*
X228346Y18796D03*
D42*
X242189Y18796D03*
D11*
X253492Y18796D03*
D42*
X267335Y18796D03*
D10*
X279273Y18796D03*
D43*
X287909Y18796D03*
D26*
X296799Y18796D03*
D10*
X304673Y18796D03*
D39*
X313436Y18796D03*
D26*
X322199Y18796D03*
D10*
X329819Y18796D03*
D39*
X338582Y18796D03*
D40*
X347472Y18796D03*
D10*
X355727Y18796D03*
D18*
X363093Y18796D03*
D24*
X369316Y18796D03*
D18*
X375793Y18796D03*
D10*
X380873Y18796D03*
D18*
X388239Y18796D03*
X394589Y18796D03*
D24*
X401066Y18796D03*
D10*
X406273Y18796D03*
D11*
X413766Y18796D03*
D24*
X420116Y18796D03*
D18*
X426593Y18796D03*
D10*
X431673Y18796D03*
D12*
X457200Y18796D03*
D25*
X62992Y19050D03*
D10*
X76073Y19050D03*
D25*
X88138Y19050D03*
D11*
X101600Y19050D03*
X108966Y19050D03*
D24*
X115316Y19050D03*
D18*
X121793Y19050D03*
D11*
X126746Y19050D03*
D41*
X142113Y19050D03*
D10*
X152273Y19050D03*
D25*
X166116Y19050D03*
D10*
X177673Y19050D03*
D42*
X191643Y19050D03*
D11*
X203200Y19050D03*
D42*
X217043Y19050D03*
D11*
X228346Y19050D03*
D42*
X242189Y19050D03*
D11*
X253492Y19050D03*
D42*
X267335Y19050D03*
D10*
X279273Y19050D03*
D43*
X287909Y19050D03*
D26*
X296799Y19050D03*
D10*
X304673Y19050D03*
D39*
X313436Y19050D03*
D26*
X322199Y19050D03*
D10*
X329819Y19050D03*
D39*
X338582Y19050D03*
D40*
X347472Y19050D03*
D10*
X355727Y19050D03*
D18*
X363093Y19050D03*
D24*
X369316Y19050D03*
D18*
X375793Y19050D03*
D10*
X380873Y19050D03*
D18*
X388239Y19050D03*
X394589Y19050D03*
D24*
X401066Y19050D03*
D10*
X406273Y19050D03*
D11*
X413766Y19050D03*
D24*
X420116Y19050D03*
D18*
X426593Y19050D03*
D10*
X431673Y19050D03*
D12*
X457200Y19050D03*
D25*
X62992Y19304D03*
D10*
X76073Y19304D03*
D25*
X88138Y19304D03*
D11*
X101600Y19304D03*
X108966Y19304D03*
D24*
X115316Y19304D03*
D18*
X121793Y19304D03*
D11*
X126746Y19304D03*
D44*
X142875Y19304D03*
D10*
X152273Y19304D03*
D18*
X159639Y19304D03*
D24*
X172466Y19304D03*
D10*
X177673Y19304D03*
D42*
X191643Y19304D03*
D11*
X203200Y19304D03*
D42*
X217043Y19304D03*
D11*
X228346Y19304D03*
D42*
X242189Y19304D03*
D11*
X253492Y19304D03*
D42*
X267335Y19304D03*
D10*
X279273Y19304D03*
D18*
X286639Y19304D03*
D26*
X296799Y19304D03*
D10*
X304673Y19304D03*
D18*
X312293Y19304D03*
D26*
X322199Y19304D03*
D10*
X329819Y19304D03*
D18*
X337439Y19304D03*
D40*
X347472Y19304D03*
D10*
X355727Y19304D03*
D18*
X363093Y19304D03*
D24*
X369316Y19304D03*
D18*
X375793Y19304D03*
D10*
X380873Y19304D03*
D18*
X388239Y19304D03*
X394589Y19304D03*
D24*
X401066Y19304D03*
D10*
X406273Y19304D03*
D11*
X413766Y19304D03*
D24*
X420116Y19304D03*
D18*
X426593Y19304D03*
D10*
X431673Y19304D03*
D12*
X457200Y19304D03*
D18*
X56515Y19558D03*
D24*
X69342Y19558D03*
D10*
X76073Y19558D03*
D18*
X81661Y19558D03*
D32*
X91313Y19558D03*
D11*
X101600Y19558D03*
X108966Y19558D03*
D24*
X115316Y19558D03*
D18*
X121793Y19558D03*
D11*
X126746Y19558D03*
D45*
X143637Y19558D03*
D10*
X152273Y19558D03*
D18*
X159639Y19558D03*
D24*
X172466Y19558D03*
D10*
X177673Y19558D03*
D42*
X191643Y19558D03*
D11*
X203200Y19558D03*
D42*
X217043Y19558D03*
D11*
X228346Y19558D03*
D38*
X242316Y19558D03*
D11*
X253492Y19558D03*
D38*
X267462Y19558D03*
D10*
X279273Y19558D03*
D18*
X286639Y19558D03*
D11*
X293878Y19558D03*
D18*
X299593Y19558D03*
D10*
X304673Y19558D03*
D11*
X312166Y19558D03*
X319278Y19558D03*
D18*
X324993Y19558D03*
D10*
X329819Y19558D03*
D18*
X337439Y19558D03*
D11*
X344424Y19558D03*
D24*
X350266Y19558D03*
D10*
X355727Y19558D03*
D18*
X363093Y19558D03*
D24*
X369316Y19558D03*
D18*
X375793Y19558D03*
D10*
X380873Y19558D03*
D18*
X388239Y19558D03*
X394589Y19558D03*
D24*
X401066Y19558D03*
D10*
X406273Y19558D03*
D11*
X413766Y19558D03*
D24*
X420116Y19558D03*
D18*
X426593Y19558D03*
D10*
X431673Y19558D03*
D12*
X457200Y19558D03*
D18*
X56515Y19812D03*
X69469Y19812D03*
D10*
X76073Y19812D03*
D18*
X81661Y19812D03*
X88011Y19812D03*
D11*
X101600Y19812D03*
X108966Y19812D03*
D24*
X115316Y19812D03*
D18*
X121793Y19812D03*
D11*
X126746Y19812D03*
D26*
X144399Y19812D03*
D10*
X152273Y19812D03*
D18*
X159639Y19812D03*
D24*
X172466Y19812D03*
D10*
X177673Y19812D03*
D38*
X191770Y19812D03*
D11*
X203200Y19812D03*
D38*
X217170Y19812D03*
D11*
X228346Y19812D03*
D38*
X242316Y19812D03*
D11*
X253492Y19812D03*
D38*
X267462Y19812D03*
D10*
X279273Y19812D03*
D18*
X286639Y19812D03*
D11*
X293878Y19812D03*
D18*
X299593Y19812D03*
D10*
X304673Y19812D03*
D11*
X312166Y19812D03*
X319278Y19812D03*
D18*
X324993Y19812D03*
D10*
X329819Y19812D03*
D18*
X337439Y19812D03*
D11*
X344424Y19812D03*
D24*
X350266Y19812D03*
D10*
X355727Y19812D03*
D18*
X363093Y19812D03*
D24*
X369316Y19812D03*
D18*
X375793Y19812D03*
D10*
X380873Y19812D03*
D18*
X388239Y19812D03*
X394589Y19812D03*
D24*
X401066Y19812D03*
D10*
X406273Y19812D03*
D11*
X413766Y19812D03*
D24*
X420116Y19812D03*
D18*
X426593Y19812D03*
D10*
X431673Y19812D03*
D12*
X457200Y19812D03*
D18*
X56515Y20066D03*
X69469Y20066D03*
D10*
X76073Y20066D03*
D18*
X81661Y20066D03*
X88011Y20066D03*
D11*
X101600Y20066D03*
X108966Y20066D03*
D24*
X115316Y20066D03*
D18*
X121793Y20066D03*
D11*
X126746Y20066D03*
D19*
X145034Y20066D03*
D10*
X152273Y20066D03*
D18*
X159639Y20066D03*
D24*
X172466Y20066D03*
D10*
X177673Y20066D03*
D38*
X191770Y20066D03*
D11*
X203200Y20066D03*
D36*
X217297Y20066D03*
D11*
X228346Y20066D03*
D36*
X242443Y20066D03*
D11*
X253492Y20066D03*
D36*
X267589Y20066D03*
D10*
X279273Y20066D03*
D18*
X286639Y20066D03*
D11*
X293878Y20066D03*
D18*
X299593Y20066D03*
D10*
X304673Y20066D03*
D11*
X312166Y20066D03*
X319278Y20066D03*
D18*
X324993Y20066D03*
D10*
X329819Y20066D03*
D18*
X337439Y20066D03*
D11*
X344424Y20066D03*
D24*
X350266Y20066D03*
D10*
X355727Y20066D03*
D18*
X363093Y20066D03*
D24*
X369316Y20066D03*
D18*
X375793Y20066D03*
D10*
X380873Y20066D03*
D18*
X388239Y20066D03*
X394589Y20066D03*
D24*
X401066Y20066D03*
D10*
X406273Y20066D03*
D11*
X413766Y20066D03*
D24*
X420116Y20066D03*
D18*
X426593Y20066D03*
D10*
X431673Y20066D03*
D12*
X457200Y20066D03*
D18*
X56515Y20320D03*
X69469Y20320D03*
D10*
X76073Y20320D03*
D18*
X81661Y20320D03*
X88011Y20320D03*
D11*
X101600Y20320D03*
X108966Y20320D03*
D24*
X115316Y20320D03*
D18*
X121793Y20320D03*
D11*
X126746Y20320D03*
D46*
X145796Y20320D03*
D10*
X152273Y20320D03*
D18*
X159639Y20320D03*
D24*
X172466Y20320D03*
D10*
X177673Y20320D03*
D47*
X192024Y20320D03*
D11*
X203200Y20320D03*
D47*
X217424Y20320D03*
D11*
X228346Y20320D03*
D47*
X242570Y20320D03*
D11*
X253492Y20320D03*
D33*
X267843Y20320D03*
D10*
X279273Y20320D03*
D18*
X286639Y20320D03*
D11*
X293878Y20320D03*
D18*
X299593Y20320D03*
D10*
X304673Y20320D03*
D11*
X312166Y20320D03*
X319278Y20320D03*
D18*
X324993Y20320D03*
D10*
X329819Y20320D03*
D18*
X337439Y20320D03*
D11*
X344424Y20320D03*
D24*
X350266Y20320D03*
D10*
X355727Y20320D03*
D18*
X363093Y20320D03*
D24*
X369316Y20320D03*
D18*
X375793Y20320D03*
D10*
X380873Y20320D03*
D18*
X388239Y20320D03*
X394589Y20320D03*
D24*
X401066Y20320D03*
D10*
X406273Y20320D03*
D11*
X413766Y20320D03*
D24*
X420116Y20320D03*
D18*
X426593Y20320D03*
D10*
X431673Y20320D03*
D12*
X457200Y20320D03*
D18*
X56515Y20574D03*
X69469Y20574D03*
D10*
X76073Y20574D03*
D18*
X81661Y20574D03*
X88011Y20574D03*
D11*
X101600Y20574D03*
X108966Y20574D03*
D24*
X115316Y20574D03*
D18*
X121793Y20574D03*
D11*
X126746Y20574D03*
D16*
X146177Y20574D03*
D10*
X152273Y20574D03*
D18*
X159639Y20574D03*
D24*
X172466Y20574D03*
D10*
X177673Y20574D03*
D11*
X203200Y20574D03*
X228346Y20574D03*
X253492Y20574D03*
D10*
X279273Y20574D03*
D18*
X286639Y20574D03*
D11*
X293878Y20574D03*
D18*
X299593Y20574D03*
D10*
X304673Y20574D03*
D11*
X312166Y20574D03*
X319278Y20574D03*
D18*
X324993Y20574D03*
D10*
X329819Y20574D03*
D18*
X337439Y20574D03*
D11*
X344424Y20574D03*
D24*
X350266Y20574D03*
D10*
X355727Y20574D03*
D18*
X363093Y20574D03*
D24*
X369316Y20574D03*
D18*
X375793Y20574D03*
D10*
X380873Y20574D03*
D18*
X388239Y20574D03*
X394589Y20574D03*
D24*
X401066Y20574D03*
D10*
X406273Y20574D03*
D11*
X413766Y20574D03*
D24*
X420116Y20574D03*
D18*
X426593Y20574D03*
D10*
X431673Y20574D03*
D12*
X457200Y20574D03*
D18*
X56515Y20828D03*
X69469Y20828D03*
D10*
X76073Y20828D03*
D18*
X81661Y20828D03*
X88011Y20828D03*
D11*
X101600Y20828D03*
X108966Y20828D03*
D24*
X115316Y20828D03*
D18*
X121793Y20828D03*
D11*
X126746Y20828D03*
D46*
X145796Y20828D03*
D10*
X152273Y20828D03*
D18*
X159639Y20828D03*
D24*
X172466Y20828D03*
D10*
X177673Y20828D03*
D11*
X203200Y20828D03*
X228346Y20828D03*
X253492Y20828D03*
D10*
X279273Y20828D03*
D18*
X286639Y20828D03*
D11*
X293878Y20828D03*
D18*
X299593Y20828D03*
D10*
X304673Y20828D03*
D11*
X312166Y20828D03*
X319278Y20828D03*
D18*
X324993Y20828D03*
D10*
X329819Y20828D03*
D18*
X337439Y20828D03*
D11*
X344424Y20828D03*
D24*
X350266Y20828D03*
D10*
X355727Y20828D03*
D18*
X363093Y20828D03*
D24*
X369316Y20828D03*
D18*
X375793Y20828D03*
D10*
X380873Y20828D03*
D18*
X388239Y20828D03*
X394589Y20828D03*
D24*
X401066Y20828D03*
D10*
X406273Y20828D03*
D11*
X413766Y20828D03*
D24*
X420116Y20828D03*
D18*
X426593Y20828D03*
D10*
X431673Y20828D03*
D12*
X457200Y20828D03*
D18*
X56515Y21082D03*
X69469Y21082D03*
D10*
X76073Y21082D03*
D18*
X81661Y21082D03*
X88011Y21082D03*
D11*
X101600Y21082D03*
X108966Y21082D03*
D24*
X115316Y21082D03*
D18*
X121793Y21082D03*
D11*
X126746Y21082D03*
D48*
X145161Y21082D03*
D10*
X152273Y21082D03*
D18*
X159639Y21082D03*
D24*
X172466Y21082D03*
D10*
X177673Y21082D03*
D11*
X203200Y21082D03*
X228346Y21082D03*
X253492Y21082D03*
D10*
X279273Y21082D03*
D18*
X286639Y21082D03*
D11*
X293878Y21082D03*
D18*
X299593Y21082D03*
D10*
X304673Y21082D03*
D11*
X312166Y21082D03*
X319278Y21082D03*
D18*
X324993Y21082D03*
D10*
X329819Y21082D03*
D18*
X337439Y21082D03*
D11*
X344424Y21082D03*
D24*
X350266Y21082D03*
D10*
X355727Y21082D03*
D18*
X363093Y21082D03*
D24*
X369316Y21082D03*
D18*
X375793Y21082D03*
D10*
X380873Y21082D03*
D18*
X388239Y21082D03*
X394589Y21082D03*
D24*
X401066Y21082D03*
D10*
X406273Y21082D03*
D11*
X413766Y21082D03*
D24*
X420116Y21082D03*
D18*
X426593Y21082D03*
D10*
X431673Y21082D03*
D12*
X457200Y21082D03*
D18*
X56515Y21336D03*
X62865Y21336D03*
X69469Y21336D03*
D10*
X76073Y21336D03*
D18*
X81661Y21336D03*
X88011Y21336D03*
D11*
X101600Y21336D03*
X108966Y21336D03*
D24*
X115316Y21336D03*
D18*
X121793Y21336D03*
D11*
X126746Y21336D03*
D29*
X144653Y21336D03*
D10*
X152273Y21336D03*
D18*
X159639Y21336D03*
D24*
X172466Y21336D03*
D10*
X177673Y21336D03*
D11*
X203200Y21336D03*
X228346Y21336D03*
X253492Y21336D03*
D10*
X279273Y21336D03*
D18*
X286639Y21336D03*
D11*
X293878Y21336D03*
D18*
X299593Y21336D03*
D10*
X304673Y21336D03*
D11*
X312166Y21336D03*
X319278Y21336D03*
D18*
X324993Y21336D03*
D10*
X329819Y21336D03*
D18*
X337439Y21336D03*
D11*
X344424Y21336D03*
D24*
X350266Y21336D03*
D10*
X355727Y21336D03*
D18*
X363093Y21336D03*
D24*
X369316Y21336D03*
D18*
X375793Y21336D03*
D10*
X380873Y21336D03*
D18*
X388239Y21336D03*
X394589Y21336D03*
D24*
X401066Y21336D03*
D10*
X406273Y21336D03*
D11*
X413766Y21336D03*
D24*
X420116Y21336D03*
D18*
X426593Y21336D03*
D10*
X431673Y21336D03*
D12*
X457200Y21336D03*
D18*
X56515Y21590D03*
X62865Y21590D03*
X69469Y21590D03*
D10*
X76073Y21590D03*
D18*
X81661Y21590D03*
X88011Y21590D03*
D11*
X101600Y21590D03*
X108966Y21590D03*
D24*
X115316Y21590D03*
D18*
X121793Y21590D03*
D11*
X126746Y21590D03*
D49*
X144145Y21590D03*
D10*
X152273Y21590D03*
D18*
X159639Y21590D03*
D24*
X172466Y21590D03*
D10*
X177673Y21590D03*
D11*
X203200Y21590D03*
X228346Y21590D03*
X253492Y21590D03*
D10*
X279273Y21590D03*
D18*
X286639Y21590D03*
D11*
X293878Y21590D03*
D18*
X299593Y21590D03*
D10*
X304673Y21590D03*
D11*
X312166Y21590D03*
X319278Y21590D03*
D18*
X324993Y21590D03*
D10*
X329819Y21590D03*
D18*
X337439Y21590D03*
D11*
X344424Y21590D03*
D24*
X350266Y21590D03*
D10*
X355727Y21590D03*
D18*
X363093Y21590D03*
D24*
X369316Y21590D03*
D18*
X375793Y21590D03*
D10*
X380873Y21590D03*
D18*
X388239Y21590D03*
X394589Y21590D03*
D24*
X401066Y21590D03*
D10*
X406273Y21590D03*
D11*
X413766Y21590D03*
D24*
X420116Y21590D03*
D18*
X426593Y21590D03*
D10*
X431673Y21590D03*
D12*
X457200Y21590D03*
D18*
X56515Y21844D03*
X62865Y21844D03*
X69469Y21844D03*
D10*
X76073Y21844D03*
D18*
X81661Y21844D03*
X88011Y21844D03*
D11*
X101600Y21844D03*
X108966Y21844D03*
D24*
X115316Y21844D03*
D18*
X121793Y21844D03*
D11*
X126746Y21844D03*
D45*
X143637Y21844D03*
D10*
X152273Y21844D03*
D18*
X159639Y21844D03*
D24*
X172466Y21844D03*
D10*
X177673Y21844D03*
D11*
X203200Y21844D03*
X228346Y21844D03*
X253492Y21844D03*
D10*
X279273Y21844D03*
D18*
X286639Y21844D03*
D11*
X293878Y21844D03*
D18*
X299593Y21844D03*
D10*
X304673Y21844D03*
D11*
X312166Y21844D03*
X319278Y21844D03*
D18*
X324993Y21844D03*
D10*
X329819Y21844D03*
D18*
X337439Y21844D03*
D11*
X344424Y21844D03*
D24*
X350266Y21844D03*
D10*
X355727Y21844D03*
D18*
X363093Y21844D03*
D24*
X369316Y21844D03*
D18*
X375793Y21844D03*
D10*
X380873Y21844D03*
D18*
X388239Y21844D03*
X394589Y21844D03*
D24*
X401066Y21844D03*
D10*
X406273Y21844D03*
D11*
X413766Y21844D03*
D24*
X420116Y21844D03*
D18*
X426593Y21844D03*
D10*
X431673Y21844D03*
D12*
X457200Y21844D03*
D18*
X56515Y22098D03*
X62865Y22098D03*
X69469Y22098D03*
D10*
X76073Y22098D03*
D18*
X81661Y22098D03*
X88011Y22098D03*
D11*
X101600Y22098D03*
X108966Y22098D03*
D24*
X115316Y22098D03*
D18*
X121793Y22098D03*
D11*
X126746Y22098D03*
D50*
X143129Y22098D03*
D10*
X152273Y22098D03*
D18*
X159639Y22098D03*
D24*
X172466Y22098D03*
D10*
X177673Y22098D03*
D11*
X203200Y22098D03*
X228346Y22098D03*
X253492Y22098D03*
D10*
X279273Y22098D03*
D18*
X286639Y22098D03*
D11*
X293878Y22098D03*
D18*
X299593Y22098D03*
D10*
X304673Y22098D03*
D11*
X312166Y22098D03*
X319278Y22098D03*
D18*
X324993Y22098D03*
D10*
X329819Y22098D03*
D18*
X337439Y22098D03*
D11*
X344424Y22098D03*
D24*
X350266Y22098D03*
D10*
X355727Y22098D03*
D18*
X363093Y22098D03*
D24*
X369316Y22098D03*
D18*
X375793Y22098D03*
D10*
X380873Y22098D03*
D18*
X388239Y22098D03*
X394589Y22098D03*
D24*
X401066Y22098D03*
D10*
X406273Y22098D03*
D11*
X413766Y22098D03*
D24*
X420116Y22098D03*
D18*
X426593Y22098D03*
D10*
X431673Y22098D03*
D12*
X457200Y22098D03*
D18*
X56515Y22352D03*
X62865Y22352D03*
X69469Y22352D03*
D10*
X76073Y22352D03*
D18*
X81661Y22352D03*
X88011Y22352D03*
D11*
X101600Y22352D03*
D42*
X115443Y22352D03*
D11*
X126746Y22352D03*
D44*
X142367Y22352D03*
D10*
X152273Y22352D03*
D18*
X159639Y22352D03*
D24*
X172466Y22352D03*
D10*
X177673Y22352D03*
D11*
X203200Y22352D03*
X228346Y22352D03*
X253492Y22352D03*
D10*
X279273Y22352D03*
D18*
X286639Y22352D03*
D11*
X293878Y22352D03*
D18*
X299593Y22352D03*
D10*
X304673Y22352D03*
D11*
X312166Y22352D03*
X319278Y22352D03*
D18*
X324993Y22352D03*
D10*
X329819Y22352D03*
D18*
X337439Y22352D03*
D11*
X344424Y22352D03*
D24*
X350266Y22352D03*
D10*
X355727Y22352D03*
D42*
X369443Y22352D03*
D10*
X380873Y22352D03*
D25*
X394716Y22352D03*
D10*
X406273Y22352D03*
D42*
X420243Y22352D03*
D10*
X431673Y22352D03*
D12*
X457200Y22352D03*
D18*
X56515Y22606D03*
D32*
X66167Y22606D03*
D10*
X76073Y22606D03*
D25*
X88138Y22606D03*
D11*
X101600Y22606D03*
D42*
X115443Y22606D03*
D11*
X126746Y22606D03*
D44*
X141351Y22606D03*
D10*
X152273Y22606D03*
D18*
X159639Y22606D03*
D24*
X172466Y22606D03*
D10*
X177673Y22606D03*
D11*
X203200Y22606D03*
X228346Y22606D03*
X253492Y22606D03*
D10*
X279273Y22606D03*
D45*
X290195Y22606D03*
D18*
X299593Y22606D03*
D10*
X304673Y22606D03*
D51*
X315722Y22606D03*
D18*
X324993Y22606D03*
D10*
X329819Y22606D03*
D51*
X340868Y22606D03*
D24*
X350266Y22606D03*
D10*
X355727Y22606D03*
D42*
X369443Y22606D03*
D10*
X380873Y22606D03*
D25*
X394716Y22606D03*
D10*
X406273Y22606D03*
D42*
X420243Y22606D03*
D10*
X431673Y22606D03*
D12*
X457200Y22606D03*
D18*
X56515Y22860D03*
D32*
X66167Y22860D03*
D10*
X76073Y22860D03*
D25*
X88138Y22860D03*
D11*
X101600Y22860D03*
D42*
X115443Y22860D03*
D11*
X126746Y22860D03*
D37*
X140208Y22860D03*
D10*
X152273Y22860D03*
D18*
X159639Y22860D03*
D24*
X172466Y22860D03*
D10*
X177673Y22860D03*
D11*
X203200Y22860D03*
X228346Y22860D03*
X253492Y22860D03*
D10*
X279273Y22860D03*
D45*
X290195Y22860D03*
D18*
X299593Y22860D03*
D10*
X304673Y22860D03*
D51*
X315722Y22860D03*
D18*
X324993Y22860D03*
D10*
X329819Y22860D03*
D51*
X340868Y22860D03*
D24*
X350266Y22860D03*
D10*
X355727Y22860D03*
D42*
X369443Y22860D03*
D10*
X380873Y22860D03*
D25*
X394716Y22860D03*
D10*
X406273Y22860D03*
D42*
X420243Y22860D03*
D10*
X431673Y22860D03*
D12*
X457200Y22860D03*
D18*
X56515Y23114D03*
D32*
X66167Y23114D03*
D10*
X76073Y23114D03*
D25*
X88138Y23114D03*
D11*
X101600Y23114D03*
D42*
X115443Y23114D03*
D11*
X126746Y23114D03*
D52*
X139319Y23114D03*
D10*
X152273Y23114D03*
D18*
X159639Y23114D03*
D24*
X172466Y23114D03*
D10*
X177673Y23114D03*
D11*
X203200Y23114D03*
X228346Y23114D03*
X253492Y23114D03*
D10*
X279273Y23114D03*
D45*
X290195Y23114D03*
D18*
X299593Y23114D03*
D10*
X304673Y23114D03*
D51*
X315722Y23114D03*
D18*
X324993Y23114D03*
D10*
X329819Y23114D03*
D51*
X340868Y23114D03*
D24*
X350266Y23114D03*
D10*
X355727Y23114D03*
D42*
X369443Y23114D03*
D10*
X380873Y23114D03*
D25*
X394716Y23114D03*
D10*
X406273Y23114D03*
D42*
X420243Y23114D03*
D10*
X431673Y23114D03*
D12*
X457200Y23114D03*
D18*
X56515Y23368D03*
D32*
X66167Y23368D03*
D10*
X76073Y23368D03*
D25*
X88138Y23368D03*
D11*
X101600Y23368D03*
D42*
X115443Y23368D03*
D11*
X126746Y23368D03*
D44*
X138557Y23368D03*
D10*
X152273Y23368D03*
D25*
X166116Y23368D03*
D10*
X177673Y23368D03*
D11*
X203200Y23368D03*
X228346Y23368D03*
X253492Y23368D03*
D10*
X279273Y23368D03*
D45*
X290195Y23368D03*
D18*
X299593Y23368D03*
D10*
X304673Y23368D03*
D51*
X315722Y23368D03*
D18*
X324993Y23368D03*
D10*
X329819Y23368D03*
D51*
X340868Y23368D03*
D24*
X350266Y23368D03*
D10*
X355727Y23368D03*
D42*
X369443Y23368D03*
D10*
X380873Y23368D03*
D25*
X394716Y23368D03*
D10*
X406273Y23368D03*
D42*
X420243Y23368D03*
D10*
X431673Y23368D03*
D12*
X457200Y23368D03*
D18*
X56515Y23622D03*
D32*
X66167Y23622D03*
D10*
X76073Y23622D03*
D25*
X88138Y23622D03*
D11*
X101600Y23622D03*
D42*
X115443Y23622D03*
D11*
X126746Y23622D03*
D53*
X138049Y23622D03*
D10*
X152273Y23622D03*
D25*
X166116Y23622D03*
D10*
X177673Y23622D03*
D31*
X187960Y23622D03*
D22*
X196088Y23622D03*
D11*
X203200Y23622D03*
X210566Y23622D03*
D18*
X223393Y23622D03*
D11*
X228346Y23622D03*
D54*
X237871Y23622D03*
D21*
X246507Y23622D03*
D11*
X253492Y23622D03*
D40*
X264160Y23622D03*
D10*
X279273Y23622D03*
D45*
X290195Y23622D03*
D18*
X299593Y23622D03*
D10*
X304673Y23622D03*
D51*
X315722Y23622D03*
D18*
X324993Y23622D03*
D10*
X329819Y23622D03*
D51*
X340868Y23622D03*
D24*
X350266Y23622D03*
D10*
X355727Y23622D03*
D42*
X369443Y23622D03*
D10*
X380873Y23622D03*
D25*
X394716Y23622D03*
D10*
X406273Y23622D03*
D42*
X420243Y23622D03*
D10*
X431673Y23622D03*
D49*
X441833Y27940D03*
D12*
X457200Y23622D03*
D18*
X56515Y23876D03*
D32*
X66167Y23876D03*
D10*
X76073Y23876D03*
D25*
X88138Y23876D03*
D11*
X101600Y23876D03*
D42*
X115443Y23876D03*
D11*
X126746Y23876D03*
D51*
X137668Y23876D03*
D10*
X152273Y23876D03*
D25*
X166116Y23876D03*
D10*
X177673Y23876D03*
D31*
X187960Y23876D03*
D28*
X196469Y23876D03*
D11*
X203200Y23876D03*
X210566Y23876D03*
D18*
X223393Y23876D03*
D11*
X228346Y23876D03*
D30*
X237490Y23876D03*
D29*
X246253Y23876D03*
D11*
X253492Y23876D03*
D51*
X264414Y23876D03*
D10*
X279273Y23876D03*
D51*
X290322Y23876D03*
D18*
X299593Y23876D03*
D10*
X304673Y23876D03*
D51*
X315722Y23876D03*
D18*
X324993Y23876D03*
D10*
X329819Y23876D03*
D51*
X340868Y23876D03*
D24*
X350266Y23876D03*
D10*
X355727Y23876D03*
D42*
X369443Y23876D03*
D10*
X380873Y23876D03*
D25*
X394716Y23876D03*
D10*
X406273Y23876D03*
D42*
X420243Y23876D03*
D10*
X431673Y23876D03*
D32*
X442087Y28194D03*
D12*
X457200Y23876D03*
D18*
X56515Y24130D03*
D32*
X66167Y24130D03*
D10*
X76073Y24130D03*
D42*
X88265Y24130D03*
D11*
X101600Y24130D03*
D42*
X115443Y24130D03*
D11*
X126746Y24130D03*
D40*
X137160Y24130D03*
D10*
X152273Y24130D03*
D25*
X166116Y24130D03*
D10*
X177673Y24130D03*
D31*
X187960Y24130D03*
D34*
X196596Y24130D03*
D11*
X203200Y24130D03*
X210566Y24130D03*
D18*
X223393Y24130D03*
D11*
X228346Y24130D03*
D28*
X237363Y24130D03*
D31*
X246126Y24130D03*
D11*
X253492Y24130D03*
D45*
X264541Y24130D03*
D10*
X279273Y24130D03*
D32*
X290195Y24130D03*
D18*
X299593Y24130D03*
D10*
X304673Y24130D03*
D51*
X315722Y24130D03*
D18*
X324993Y24130D03*
D10*
X329819Y24130D03*
D51*
X340868Y24130D03*
D24*
X350266Y24130D03*
D10*
X355727Y24130D03*
D42*
X369443Y24130D03*
D10*
X380873Y24130D03*
D25*
X394716Y24130D03*
D10*
X406273Y24130D03*
D42*
X420243Y24130D03*
D10*
X431673Y24130D03*
D51*
X442214Y28448D03*
D12*
X457200Y24130D03*
D18*
X56515Y24384D03*
D32*
X66167Y24384D03*
D10*
X76073Y24384D03*
D42*
X88265Y24384D03*
D11*
X101600Y24384D03*
D42*
X115443Y24384D03*
D11*
X126746Y24384D03*
D23*
X136652Y24384D03*
D10*
X152273Y24384D03*
D25*
X166116Y24384D03*
D10*
X177673Y24384D03*
D31*
X187960Y24384D03*
D16*
X196723Y24384D03*
D11*
X203200Y24384D03*
X210566Y24384D03*
D18*
X223393Y24384D03*
D11*
X228346Y24384D03*
D34*
X237236Y24384D03*
D26*
X245999Y24384D03*
D11*
X253492Y24384D03*
D45*
X264541Y24384D03*
D10*
X279273Y24384D03*
D55*
X290322Y24384D03*
D18*
X299593Y24384D03*
D10*
X304673Y24384D03*
D55*
X315722Y24384D03*
D18*
X324993Y24384D03*
D10*
X329819Y24384D03*
D55*
X340868Y24384D03*
D24*
X350266Y24384D03*
D10*
X355727Y24384D03*
D42*
X369443Y24384D03*
D10*
X380873Y24384D03*
D38*
X394716Y24384D03*
D10*
X406273Y24384D03*
D42*
X420243Y24384D03*
D10*
X431673Y24384D03*
D45*
X442341Y28702D03*
D12*
X457200Y24384D03*
D18*
X56515Y24638D03*
D32*
X66167Y24638D03*
D10*
X76073Y24638D03*
D21*
X84455Y24638D03*
X92329Y24638D03*
D11*
X101600Y24638D03*
D21*
X111379Y24638D03*
D23*
X119380Y24638D03*
D11*
X126746Y24638D03*
D48*
X136271Y24638D03*
D10*
X152273Y24638D03*
D25*
X166116Y24638D03*
D10*
X177673Y24638D03*
D31*
X187960Y24638D03*
D16*
X196723Y24638D03*
D11*
X203200Y24638D03*
X210566Y24638D03*
D18*
X223393Y24638D03*
D11*
X228346Y24638D03*
D16*
X237109Y24638D03*
D26*
X245999Y24638D03*
D11*
X253492Y24638D03*
D56*
X264668Y24638D03*
D10*
X279273Y24638D03*
D49*
X290195Y24638D03*
D18*
X299593Y24638D03*
D10*
X304673Y24638D03*
D55*
X315722Y24638D03*
D18*
X324993Y24638D03*
D10*
X329819Y24638D03*
D49*
X340995Y24638D03*
D24*
X350266Y24638D03*
D10*
X355727Y24638D03*
D19*
X365506Y24638D03*
D23*
X373380Y24638D03*
D10*
X380873Y24638D03*
D38*
X394716Y24638D03*
D10*
X406273Y24638D03*
D38*
X420116Y24638D03*
D10*
X431673Y24638D03*
D45*
X442341Y28956D03*
D12*
X457200Y24638D03*
D18*
X56515Y24892D03*
D32*
X66167Y24892D03*
D10*
X76073Y24892D03*
D21*
X84455Y24892D03*
X92329Y24892D03*
D11*
X101600Y24892D03*
D19*
X111506Y24892D03*
D21*
X119253Y24892D03*
D11*
X126746Y24892D03*
D57*
X135763Y24892D03*
D10*
X152273Y24892D03*
D42*
X166243Y24892D03*
D10*
X177673Y24892D03*
D31*
X187960Y24892D03*
D39*
X196850Y24892D03*
D11*
X203200Y24892D03*
X210566Y24892D03*
D24*
X216916Y24892D03*
D18*
X223393Y24892D03*
D11*
X228346Y24892D03*
D16*
X237109Y24892D03*
D40*
X245872Y24892D03*
D11*
X253492Y24892D03*
D56*
X264668Y24892D03*
D10*
X279273Y24892D03*
D40*
X290322Y24892D03*
D18*
X299593Y24892D03*
D10*
X304673Y24892D03*
D40*
X315722Y24892D03*
D18*
X324993Y24892D03*
D10*
X329819Y24892D03*
D26*
X340995Y24892D03*
D24*
X350266Y24892D03*
D10*
X355727Y24892D03*
D19*
X365506Y24892D03*
X373380Y24892D03*
D10*
X380873Y24892D03*
D48*
X390779Y24892D03*
D19*
X398526Y24892D03*
D10*
X406273Y24892D03*
D48*
X416179Y24892D03*
D21*
X424053Y24892D03*
D10*
X431673Y24892D03*
D56*
X442468Y29210D03*
D12*
X457200Y24892D03*
D18*
X56515Y25146D03*
D32*
X66167Y25146D03*
D10*
X76073Y25146D03*
D48*
X84455Y25146D03*
D19*
X92456Y25146D03*
D11*
X101600Y25146D03*
D58*
X111506Y25146D03*
D48*
X119253Y25146D03*
D11*
X126746Y25146D03*
D16*
X135255Y25146D03*
D10*
X152273Y25146D03*
D38*
X166116Y25146D03*
D10*
X177673Y25146D03*
D31*
X187960Y25146D03*
D39*
X196850Y25146D03*
D11*
X203200Y25146D03*
X210566Y25146D03*
D24*
X216916Y25146D03*
D18*
X223393Y25146D03*
D11*
X228346Y25146D03*
D39*
X236982Y25146D03*
D40*
X245872Y25146D03*
D11*
X253492Y25146D03*
D56*
X264668Y25146D03*
D10*
X279273Y25146D03*
D29*
X290195Y25146D03*
D18*
X299593Y25146D03*
D10*
X304673Y25146D03*
D29*
X315849Y25146D03*
D18*
X324993Y25146D03*
D10*
X329819Y25146D03*
D29*
X340995Y25146D03*
D24*
X350266Y25146D03*
D10*
X355727Y25146D03*
D59*
X365633Y25146D03*
D48*
X373253Y25146D03*
D10*
X380873Y25146D03*
D59*
X390779Y25146D03*
D58*
X398526Y25146D03*
D10*
X406273Y25146D03*
D59*
X416179Y25146D03*
D58*
X423926Y25146D03*
D10*
X431673Y25146D03*
D56*
X442468Y29464D03*
D12*
X457200Y25146D03*
D18*
X56515Y25400D03*
D32*
X66167Y25400D03*
D10*
X76073Y25400D03*
D17*
X84582Y25400D03*
D58*
X92710Y25400D03*
D11*
X101600Y25400D03*
X126746Y25400D03*
D30*
X134874Y25400D03*
D10*
X152273Y25400D03*
D38*
X166116Y25400D03*
D10*
X177673Y25400D03*
D31*
X187960Y25400D03*
D39*
X196850Y25400D03*
D11*
X203200Y25400D03*
X210566Y25400D03*
D24*
X216916Y25400D03*
D18*
X223393Y25400D03*
D11*
X228346Y25400D03*
D39*
X236982Y25400D03*
D40*
X245872Y25400D03*
D11*
X253492Y25400D03*
D56*
X264668Y25400D03*
D10*
X279273Y25400D03*
D58*
X290322Y25400D03*
D18*
X299593Y25400D03*
D10*
X304673Y25400D03*
D58*
X315722Y25400D03*
D18*
X324993Y25400D03*
D10*
X329819Y25400D03*
D58*
X340868Y25400D03*
D11*
X350266Y25400D03*
D10*
X355727Y25400D03*
X380873Y25400D03*
X406273Y25400D03*
X431673Y25400D03*
D56*
X442468Y29718D03*
D12*
X457200Y25400D03*
D10*
X76073Y25654D03*
D57*
X93091Y25654D03*
D11*
X101600Y25654D03*
X126746Y25654D03*
D24*
X134366Y25654D03*
D10*
X152273Y25654D03*
D47*
X166116Y25654D03*
D10*
X177673Y25654D03*
D31*
X187960Y25654D03*
D43*
X196977Y25654D03*
D11*
X203200Y25654D03*
X210566Y25654D03*
D24*
X216916Y25654D03*
D18*
X223393Y25654D03*
D11*
X228346Y25654D03*
D39*
X236982Y25654D03*
D40*
X245872Y25654D03*
D11*
X253492Y25654D03*
D56*
X264668Y25654D03*
D10*
X279273Y25654D03*
X304673Y25654D03*
X329819Y25654D03*
X355727Y25654D03*
X380873Y25654D03*
X406273Y25654D03*
X431673Y25654D03*
D56*
X442468Y29972D03*
D12*
X457200Y25654D03*
D10*
X76073Y25908D03*
D11*
X101600Y25908D03*
X126746Y25908D03*
D12*
X133858Y25908D03*
D10*
X152273Y25908D03*
D60*
X166116Y25908D03*
D10*
X177673Y25908D03*
D31*
X187960Y25908D03*
D43*
X196977Y25908D03*
D11*
X203200Y25908D03*
X210566Y25908D03*
D24*
X216916Y25908D03*
D18*
X223393Y25908D03*
D11*
X228346Y25908D03*
D39*
X236982Y25908D03*
D40*
X245872Y25908D03*
D11*
X253492Y25908D03*
D56*
X264668Y25908D03*
D10*
X279273Y25908D03*
X304673Y25908D03*
X329819Y25908D03*
X355727Y25908D03*
X380873Y25908D03*
X406273Y25908D03*
X431673Y25908D03*
D56*
X442468Y30226D03*
D12*
X457200Y25908D03*
D10*
X76073Y26162D03*
D11*
X101600Y26162D03*
X126746Y26162D03*
D61*
X133477Y26162D03*
D10*
X152273Y26162D03*
D62*
X166116Y26162D03*
D10*
X177673Y26162D03*
D31*
X187960Y26162D03*
D43*
X196977Y26162D03*
D11*
X203200Y26162D03*
X210566Y26162D03*
D24*
X216916Y26162D03*
D18*
X223393Y26162D03*
D11*
X228346Y26162D03*
D39*
X236982Y26162D03*
D40*
X245872Y26162D03*
D11*
X253492Y26162D03*
D56*
X264668Y26162D03*
D10*
X279273Y26162D03*
X304673Y26162D03*
X329819Y26162D03*
X355727Y26162D03*
X380873Y26162D03*
X406273Y26162D03*
X431673Y26162D03*
D56*
X442468Y30480D03*
D12*
X457200Y26162D03*
D10*
X76073Y26416D03*
D11*
X101600Y26416D03*
D63*
X107823Y26416D03*
D11*
X126746Y26416D03*
D63*
X132969Y26416D03*
D10*
X152273Y26416D03*
D64*
X166116Y26416D03*
D10*
X177673Y26416D03*
D31*
X187960Y26416D03*
D43*
X196977Y26416D03*
D11*
X203200Y26416D03*
X210566Y26416D03*
D24*
X216916Y26416D03*
D18*
X223393Y26416D03*
D11*
X228346Y26416D03*
D39*
X236982Y26416D03*
D40*
X245872Y26416D03*
D11*
X253492Y26416D03*
D56*
X264668Y26416D03*
D10*
X279273Y26416D03*
X304673Y26416D03*
X329819Y26416D03*
X355727Y26416D03*
X380873Y26416D03*
X406273Y26416D03*
X431673Y26416D03*
D56*
X442468Y30734D03*
D12*
X457200Y26416D03*
D10*
X76073Y26670D03*
D11*
X101600Y26670D03*
D61*
X108331Y26670D03*
D11*
X126746Y26670D03*
D10*
X152273Y26670D03*
X177673Y26670D03*
D31*
X187960Y26670D03*
D39*
X197104Y26670D03*
D11*
X203200Y26670D03*
X210566Y26670D03*
D24*
X216916Y26670D03*
D18*
X223393Y26670D03*
D11*
X228346Y26670D03*
D39*
X236982Y26670D03*
D40*
X245872Y26670D03*
D11*
X253492Y26670D03*
D45*
X264795Y26670D03*
D10*
X279273Y26670D03*
X304673Y26670D03*
X329819Y26670D03*
X355727Y26670D03*
X380873Y26670D03*
X406273Y26670D03*
X431673Y26670D03*
D56*
X442468Y30988D03*
D12*
X457200Y26670D03*
D10*
X76073Y26924D03*
D11*
X101600Y26924D03*
X108966Y26924D03*
X126746Y26924D03*
D10*
X152273Y26924D03*
X177673Y26924D03*
D11*
X185166Y26924D03*
X190754Y26924D03*
D18*
X198247Y26924D03*
D11*
X203200Y26924D03*
X210566Y26924D03*
D24*
X216916Y26924D03*
D18*
X223393Y26924D03*
D11*
X228346Y26924D03*
D18*
X235839Y26924D03*
X242951Y26924D03*
X248793Y26924D03*
D11*
X253492Y26924D03*
D18*
X268351Y26924D03*
D10*
X279273Y26924D03*
X304673Y26924D03*
X329819Y26924D03*
X355727Y26924D03*
X380873Y26924D03*
X406273Y26924D03*
X431673Y26924D03*
D18*
X446151Y31242D03*
D12*
X457200Y26924D03*
D10*
X76073Y27178D03*
D11*
X101600Y27178D03*
D22*
X109474Y27178D03*
D11*
X126746Y27178D03*
D10*
X152273Y27178D03*
X177673Y27178D03*
D11*
X185166Y27178D03*
X190754Y27178D03*
D18*
X198247Y27178D03*
D11*
X203200Y27178D03*
X210566Y27178D03*
D24*
X216916Y27178D03*
D18*
X223393Y27178D03*
D11*
X228346Y27178D03*
D18*
X235839Y27178D03*
X242951Y27178D03*
X248793Y27178D03*
D11*
X253492Y27178D03*
D18*
X268351Y27178D03*
D10*
X279273Y27178D03*
X304673Y27178D03*
X329819Y27178D03*
X355727Y27178D03*
X380873Y27178D03*
X406273Y27178D03*
X431673Y27178D03*
D18*
X446151Y31496D03*
D12*
X457200Y27178D03*
D10*
X76073Y27432D03*
D11*
X101600Y27432D03*
D16*
X110109Y27432D03*
D11*
X126746Y27432D03*
D10*
X152273Y27432D03*
X177673Y27432D03*
D11*
X185166Y27432D03*
X190754Y27432D03*
D18*
X198247Y27432D03*
D11*
X203200Y27432D03*
X210566Y27432D03*
D24*
X216916Y27432D03*
D18*
X223393Y27432D03*
D11*
X228346Y27432D03*
D18*
X235839Y27432D03*
X242951Y27432D03*
X248793Y27432D03*
D11*
X253492Y27432D03*
D18*
X268351Y27432D03*
D10*
X279273Y27432D03*
X304673Y27432D03*
X329819Y27432D03*
X355727Y27432D03*
X380873Y27432D03*
X406273Y27432D03*
X431673Y27432D03*
D18*
X446151Y31750D03*
D12*
X457200Y27432D03*
D10*
X76073Y27686D03*
D11*
X101600Y27686D03*
D57*
X110617Y27686D03*
D11*
X126746Y27686D03*
D10*
X152273Y27686D03*
X177673Y27686D03*
D11*
X185166Y27686D03*
X190754Y27686D03*
D18*
X198247Y27686D03*
D11*
X203200Y27686D03*
X210566Y27686D03*
D24*
X216916Y27686D03*
D18*
X223393Y27686D03*
D11*
X228346Y27686D03*
D18*
X235839Y27686D03*
X242951Y27686D03*
X248793Y27686D03*
D11*
X253492Y27686D03*
D18*
X268351Y27686D03*
D10*
X279273Y27686D03*
X304673Y27686D03*
X329819Y27686D03*
X355727Y27686D03*
X380873Y27686D03*
X406273Y27686D03*
X431673Y27686D03*
D18*
X446151Y32004D03*
D12*
X457200Y27686D03*
D10*
X76073Y27940D03*
D11*
X101600Y27940D03*
D19*
X111252Y27940D03*
D11*
X126746Y27940D03*
D25*
X140716Y27940D03*
D10*
X152273Y27940D03*
X177673Y27940D03*
D11*
X185166Y27940D03*
X190754Y27940D03*
D18*
X198247Y27940D03*
D11*
X203200Y27940D03*
X210566Y27940D03*
D24*
X216916Y27940D03*
D18*
X223393Y27940D03*
D11*
X228346Y27940D03*
D18*
X235839Y27940D03*
X242951Y27940D03*
X248793Y27940D03*
D11*
X253492Y27940D03*
D18*
X268351Y27940D03*
D10*
X279273Y27940D03*
X304673Y27940D03*
X329819Y27940D03*
X355727Y27940D03*
D18*
X363093Y27940D03*
X375793Y27940D03*
D10*
X380873Y27940D03*
D22*
X390144Y27940D03*
D21*
X398907Y27940D03*
D10*
X406273Y27940D03*
D31*
X416560Y27940D03*
D22*
X424688Y27940D03*
D10*
X431673Y27940D03*
D18*
X446151Y32258D03*
D12*
X457200Y27940D03*
D10*
X76073Y28194D03*
D11*
X101600Y28194D03*
D31*
X111760Y28194D03*
D11*
X126746Y28194D03*
D25*
X140716Y28194D03*
D10*
X152273Y28194D03*
X177673Y28194D03*
D11*
X185166Y28194D03*
X190754Y28194D03*
D18*
X198247Y28194D03*
D11*
X203200Y28194D03*
X210566Y28194D03*
D24*
X216916Y28194D03*
D18*
X223393Y28194D03*
D11*
X228346Y28194D03*
D18*
X235839Y28194D03*
X242951Y28194D03*
X248793Y28194D03*
D11*
X253492Y28194D03*
D18*
X268351Y28194D03*
D10*
X279273Y28194D03*
X304673Y28194D03*
D37*
X318516Y28194D03*
D10*
X329819Y28194D03*
X355727Y28194D03*
D18*
X363093Y28194D03*
X375793Y28194D03*
D10*
X380873Y28194D03*
D28*
X390017Y28194D03*
D29*
X398653Y28194D03*
D10*
X406273Y28194D03*
D31*
X416560Y28194D03*
D28*
X425069Y28194D03*
D10*
X431673Y28194D03*
D18*
X446151Y32512D03*
D12*
X457200Y28194D03*
D10*
X76073Y28448D03*
D58*
X84836Y28448D03*
D15*
X92837Y28448D03*
D11*
X101600Y28448D03*
D32*
X112395Y28448D03*
D11*
X126746Y28448D03*
D25*
X140716Y28448D03*
D10*
X152273Y28448D03*
X177673Y28448D03*
D11*
X185166Y28448D03*
X190754Y28448D03*
D18*
X198247Y28448D03*
D11*
X203200Y28448D03*
X210566Y28448D03*
D24*
X216916Y28448D03*
D18*
X223393Y28448D03*
D11*
X228346Y28448D03*
D18*
X235839Y28448D03*
X242951Y28448D03*
X248793Y28448D03*
D11*
X253492Y28448D03*
D18*
X268351Y28448D03*
D10*
X279273Y28448D03*
D59*
X289433Y28448D03*
D10*
X304673Y28448D03*
D62*
X318516Y28448D03*
D10*
X329819Y28448D03*
D26*
X340233Y28448D03*
D15*
X348615Y28448D03*
D10*
X355727Y28448D03*
D18*
X363093Y28448D03*
X375793Y28448D03*
D10*
X380873Y28448D03*
D34*
X389890Y28448D03*
D31*
X398526Y28448D03*
D10*
X406273Y28448D03*
D31*
X416560Y28448D03*
D34*
X425196Y28448D03*
D10*
X431673Y28448D03*
D18*
X446151Y32766D03*
D12*
X457200Y28448D03*
D10*
X76073Y28702D03*
D21*
X84963Y28702D03*
D28*
X93091Y28702D03*
D11*
X101600Y28702D03*
D53*
X112903Y28702D03*
D11*
X126746Y28702D03*
D25*
X140716Y28702D03*
D10*
X152273Y28702D03*
X177673Y28702D03*
D11*
X185166Y28702D03*
X190754Y28702D03*
D18*
X198247Y28702D03*
D11*
X203200Y28702D03*
X210566Y28702D03*
D24*
X216916Y28702D03*
D18*
X223393Y28702D03*
D11*
X228346Y28702D03*
D18*
X235839Y28702D03*
X242951Y28702D03*
X248793Y28702D03*
D11*
X253492Y28702D03*
D18*
X268351Y28702D03*
D10*
X279273Y28702D03*
D58*
X289306Y28702D03*
D10*
X304673Y28702D03*
D60*
X318516Y28702D03*
D10*
X329819Y28702D03*
D26*
X340233Y28702D03*
D28*
X348869Y28702D03*
D10*
X355727Y28702D03*
D18*
X363093Y28702D03*
X375793Y28702D03*
D10*
X380873Y28702D03*
D16*
X389763Y28702D03*
D26*
X398399Y28702D03*
D10*
X406273Y28702D03*
D31*
X416560Y28702D03*
D16*
X425323Y28702D03*
D10*
X431673Y28702D03*
D18*
X446151Y33020D03*
D12*
X457200Y28702D03*
D10*
X76073Y28956D03*
D29*
X84963Y28956D03*
D34*
X93218Y28956D03*
D11*
X101600Y28956D03*
D44*
X113411Y28956D03*
D11*
X126746Y28956D03*
D25*
X140716Y28956D03*
D10*
X152273Y28956D03*
X177673Y28956D03*
D11*
X185166Y28956D03*
X190754Y28956D03*
D18*
X198247Y28956D03*
D11*
X203200Y28956D03*
X210566Y28956D03*
D24*
X216916Y28956D03*
D18*
X223393Y28956D03*
D11*
X228346Y28956D03*
D18*
X235839Y28956D03*
X242951Y28956D03*
X248793Y28956D03*
D11*
X253492Y28956D03*
D18*
X268351Y28956D03*
D10*
X279273Y28956D03*
D48*
X289179Y28956D03*
D10*
X304673Y28956D03*
D47*
X318516Y28956D03*
D10*
X329819Y28956D03*
D26*
X340233Y28956D03*
D34*
X348996Y28956D03*
D10*
X355727Y28956D03*
D18*
X363093Y28956D03*
X375793Y28956D03*
D10*
X380873Y28956D03*
D39*
X389636Y28956D03*
D26*
X398399Y28956D03*
D10*
X406273Y28956D03*
D31*
X416560Y28956D03*
D16*
X425323Y28956D03*
D10*
X431673Y28956D03*
D18*
X446151Y33274D03*
D12*
X457200Y28956D03*
D10*
X76073Y29210D03*
D26*
X84963Y29210D03*
D16*
X93345Y29210D03*
D11*
X101600Y29210D03*
D20*
X114046Y29210D03*
D11*
X126746Y29210D03*
D25*
X140716Y29210D03*
D10*
X152273Y29210D03*
X177673Y29210D03*
D11*
X185166Y29210D03*
X190754Y29210D03*
D18*
X198247Y29210D03*
D11*
X203200Y29210D03*
X210566Y29210D03*
D24*
X216916Y29210D03*
D18*
X223393Y29210D03*
D11*
X228346Y29210D03*
D18*
X235839Y29210D03*
X242951Y29210D03*
X248793Y29210D03*
D11*
X253492Y29210D03*
D18*
X268351Y29210D03*
D10*
X279273Y29210D03*
D48*
X289179Y29210D03*
D10*
X304673Y29210D03*
D36*
X318643Y29210D03*
D10*
X329819Y29210D03*
D26*
X340233Y29210D03*
D34*
X348996Y29210D03*
D10*
X355727Y29210D03*
D18*
X363093Y29210D03*
D24*
X369316Y29210D03*
D18*
X375793Y29210D03*
D10*
X380873Y29210D03*
D39*
X389636Y29210D03*
D26*
X398399Y29210D03*
D10*
X406273Y29210D03*
D31*
X416560Y29210D03*
D39*
X425450Y29210D03*
D10*
X431673Y29210D03*
D18*
X446151Y33528D03*
D12*
X457200Y29210D03*
D10*
X76073Y29464D03*
D40*
X84836Y29464D03*
D16*
X93345Y29464D03*
D11*
X101600Y29464D03*
D62*
X114554Y29464D03*
D11*
X126746Y29464D03*
D25*
X140716Y29464D03*
D10*
X152273Y29464D03*
D30*
X161544Y29464D03*
D23*
X170180Y29464D03*
D10*
X177673Y29464D03*
D11*
X185166Y29464D03*
X190754Y29464D03*
D18*
X198247Y29464D03*
D11*
X203200Y29464D03*
X210566Y29464D03*
D24*
X216916Y29464D03*
D18*
X223393Y29464D03*
D11*
X228346Y29464D03*
D18*
X235839Y29464D03*
X242951Y29464D03*
X248793Y29464D03*
D11*
X253492Y29464D03*
D18*
X268351Y29464D03*
D10*
X279273Y29464D03*
D19*
X289052Y29464D03*
D10*
X304673Y29464D03*
D38*
X318516Y29464D03*
D10*
X329819Y29464D03*
D26*
X340233Y29464D03*
D16*
X349123Y29464D03*
D10*
X355727Y29464D03*
D18*
X363093Y29464D03*
D24*
X369316Y29464D03*
D18*
X375793Y29464D03*
D10*
X380873Y29464D03*
D39*
X389636Y29464D03*
D26*
X398399Y29464D03*
D10*
X406273Y29464D03*
D31*
X416560Y29464D03*
D39*
X425450Y29464D03*
D10*
X431673Y29464D03*
D18*
X446151Y33782D03*
D12*
X457200Y29464D03*
D10*
X76073Y29718D03*
D49*
X84963Y29718D03*
D39*
X93472Y29718D03*
D11*
X101600Y29718D03*
D36*
X115189Y29718D03*
D11*
X126746Y29718D03*
D25*
X140716Y29718D03*
D10*
X152273Y29718D03*
D28*
X161417Y29718D03*
D31*
X169926Y29718D03*
D10*
X177673Y29718D03*
D11*
X185166Y29718D03*
X190754Y29718D03*
D18*
X198247Y29718D03*
D11*
X203200Y29718D03*
D42*
X217043Y29718D03*
D11*
X228346Y29718D03*
D18*
X235839Y29718D03*
X242951Y29718D03*
X248793Y29718D03*
D11*
X253492Y29718D03*
D42*
X267589Y29718D03*
D10*
X279273Y29718D03*
D19*
X289052Y29718D03*
D10*
X304673Y29718D03*
D42*
X318643Y29718D03*
D10*
X329819Y29718D03*
D26*
X340233Y29718D03*
D16*
X349123Y29718D03*
D10*
X355727Y29718D03*
D18*
X363093Y29718D03*
D24*
X369316Y29718D03*
D18*
X375793Y29718D03*
D10*
X380873Y29718D03*
D43*
X389509Y29718D03*
D26*
X398399Y29718D03*
D10*
X406273Y29718D03*
D31*
X416560Y29718D03*
D39*
X425450Y29718D03*
D10*
X431673Y29718D03*
D42*
X445135Y34036D03*
D12*
X457200Y29718D03*
D10*
X76073Y29972D03*
D49*
X84963Y29972D03*
D39*
X93472Y29972D03*
D11*
X101600Y29972D03*
D42*
X115443Y29972D03*
D11*
X126746Y29972D03*
D25*
X140716Y29972D03*
D10*
X152273Y29972D03*
D34*
X161290Y29972D03*
D31*
X169926Y29972D03*
D10*
X177673Y29972D03*
D11*
X185166Y29972D03*
D56*
X194564Y29972D03*
D11*
X203200Y29972D03*
D42*
X217043Y29972D03*
D11*
X228346Y29972D03*
D45*
X239395Y29972D03*
D18*
X248793Y29972D03*
D11*
X253492Y29972D03*
D25*
X267462Y29972D03*
D10*
X279273Y29972D03*
D19*
X289052Y29972D03*
D10*
X304673Y29972D03*
D42*
X318643Y29972D03*
D10*
X329819Y29972D03*
D26*
X340233Y29972D03*
D39*
X349250Y29972D03*
D10*
X355727Y29972D03*
D18*
X363093Y29972D03*
D24*
X369316Y29972D03*
D18*
X375793Y29972D03*
D10*
X380873Y29972D03*
D43*
X389509Y29972D03*
D26*
X398399Y29972D03*
D10*
X406273Y29972D03*
D31*
X416560Y29972D03*
D43*
X425577Y29972D03*
D10*
X431673Y29972D03*
D42*
X445135Y34290D03*
D12*
X457200Y29972D03*
D10*
X76073Y30226D03*
D49*
X84963Y30226D03*
D39*
X93472Y30226D03*
D11*
X101600Y30226D03*
D42*
X115443Y30226D03*
D11*
X126746Y30226D03*
D25*
X140716Y30226D03*
D10*
X152273Y30226D03*
D16*
X161163Y30226D03*
D26*
X169799Y30226D03*
D10*
X177673Y30226D03*
D11*
X185166Y30226D03*
D56*
X194564Y30226D03*
D11*
X203200Y30226D03*
D42*
X217043Y30226D03*
D11*
X228346Y30226D03*
D45*
X239395Y30226D03*
D18*
X248793Y30226D03*
D11*
X253492Y30226D03*
D25*
X267462Y30226D03*
D10*
X279273Y30226D03*
D19*
X289052Y30226D03*
D10*
X304673Y30226D03*
D42*
X318643Y30226D03*
D10*
X329819Y30226D03*
D26*
X340233Y30226D03*
D39*
X349250Y30226D03*
D10*
X355727Y30226D03*
D18*
X363093Y30226D03*
D24*
X369316Y30226D03*
D18*
X375793Y30226D03*
D10*
X380873Y30226D03*
D43*
X389509Y30226D03*
D26*
X398399Y30226D03*
D10*
X406273Y30226D03*
D31*
X416560Y30226D03*
D43*
X425577Y30226D03*
D10*
X431673Y30226D03*
D42*
X445135Y34544D03*
D12*
X457200Y30226D03*
D10*
X76073Y30480D03*
D49*
X84963Y30480D03*
D39*
X93472Y30480D03*
D11*
X101600Y30480D03*
D33*
X115951Y30480D03*
D11*
X126746Y30480D03*
D25*
X140716Y30480D03*
D10*
X152273Y30480D03*
D39*
X161036Y30480D03*
D26*
X169799Y30480D03*
D10*
X177673Y30480D03*
D11*
X185166Y30480D03*
D56*
X194564Y30480D03*
D11*
X203200Y30480D03*
D42*
X217043Y30480D03*
D11*
X228346Y30480D03*
D45*
X239395Y30480D03*
D18*
X248793Y30480D03*
D11*
X253492Y30480D03*
D25*
X267462Y30480D03*
D10*
X279273Y30480D03*
D19*
X289052Y30480D03*
D10*
X304673Y30480D03*
D42*
X318643Y30480D03*
D10*
X329819Y30480D03*
D26*
X340233Y30480D03*
D39*
X349250Y30480D03*
D10*
X355727Y30480D03*
D18*
X363093Y30480D03*
D24*
X369316Y30480D03*
D18*
X375793Y30480D03*
D10*
X380873Y30480D03*
D43*
X389509Y30480D03*
D26*
X398399Y30480D03*
D10*
X406273Y30480D03*
D31*
X416560Y30480D03*
D43*
X425577Y30480D03*
D10*
X431673Y30480D03*
D42*
X445135Y34798D03*
D12*
X457200Y30480D03*
D10*
X76073Y30734D03*
D49*
X84963Y30734D03*
D39*
X93472Y30734D03*
D11*
X101600Y30734D03*
D41*
X116713Y30734D03*
D11*
X126746Y30734D03*
D25*
X140716Y30734D03*
D10*
X152273Y30734D03*
D39*
X161036Y30734D03*
D26*
X169799Y30734D03*
D10*
X177673Y30734D03*
D11*
X185166Y30734D03*
D56*
X194564Y30734D03*
D11*
X203200Y30734D03*
D42*
X217043Y30734D03*
D11*
X228346Y30734D03*
D45*
X239395Y30734D03*
D18*
X248793Y30734D03*
D11*
X253492Y30734D03*
D25*
X267462Y30734D03*
D10*
X279273Y30734D03*
D19*
X289052Y30734D03*
D10*
X304673Y30734D03*
D42*
X318643Y30734D03*
D10*
X329819Y30734D03*
D26*
X340233Y30734D03*
D39*
X349250Y30734D03*
D10*
X355727Y30734D03*
D18*
X363093Y30734D03*
D24*
X369316Y30734D03*
D18*
X375793Y30734D03*
D10*
X380873Y30734D03*
D43*
X389509Y30734D03*
D26*
X398399Y30734D03*
D10*
X406273Y30734D03*
D31*
X416560Y30734D03*
D43*
X425577Y30734D03*
D10*
X431673Y30734D03*
D42*
X445135Y35052D03*
D12*
X457200Y30734D03*
D10*
X76073Y30988D03*
D49*
X84963Y30988D03*
D39*
X93472Y30988D03*
D11*
X101600Y30988D03*
D44*
X117475Y30988D03*
D11*
X126746Y30988D03*
D10*
X152273Y30988D03*
D43*
X160909Y30988D03*
D26*
X169799Y30988D03*
D10*
X177673Y30988D03*
D11*
X185166Y30988D03*
D45*
X194437Y30988D03*
D11*
X203200Y30988D03*
D42*
X217043Y30988D03*
D11*
X228346Y30988D03*
D51*
X239268Y30988D03*
D18*
X248793Y30988D03*
D11*
X253492Y30988D03*
D25*
X267462Y30988D03*
D10*
X279273Y30988D03*
D19*
X289052Y30988D03*
D10*
X304673Y30988D03*
D42*
X318643Y30988D03*
D10*
X329819Y30988D03*
D26*
X340233Y30988D03*
D39*
X349250Y30988D03*
D10*
X355727Y30988D03*
D18*
X363093Y30988D03*
D24*
X369316Y30988D03*
D18*
X375793Y30988D03*
D10*
X380873Y30988D03*
D24*
X388366Y30988D03*
D26*
X398399Y30988D03*
D10*
X406273Y30988D03*
D31*
X416560Y30988D03*
D24*
X426720Y30988D03*
D10*
X431673Y30988D03*
D42*
X445135Y35306D03*
D12*
X457200Y30988D03*
D10*
X76073Y31242D03*
D49*
X84963Y31242D03*
D39*
X93472Y31242D03*
D11*
X101600Y31242D03*
D45*
X118237Y31242D03*
D11*
X126746Y31242D03*
D10*
X152273Y31242D03*
D43*
X160909Y31242D03*
D26*
X169799Y31242D03*
D10*
X177673Y31242D03*
D11*
X185166Y31242D03*
D45*
X194437Y31242D03*
D11*
X203200Y31242D03*
D42*
X217043Y31242D03*
D11*
X228346Y31242D03*
D51*
X239268Y31242D03*
D18*
X248793Y31242D03*
D11*
X253492Y31242D03*
D25*
X267462Y31242D03*
D10*
X279273Y31242D03*
D19*
X289052Y31242D03*
D10*
X304673Y31242D03*
D42*
X318643Y31242D03*
D10*
X329819Y31242D03*
D26*
X340233Y31242D03*
D39*
X349250Y31242D03*
D10*
X355727Y31242D03*
D18*
X363093Y31242D03*
D24*
X369316Y31242D03*
D18*
X375793Y31242D03*
D10*
X380873Y31242D03*
D18*
X388239Y31242D03*
D11*
X395478Y31242D03*
D18*
X401193Y31242D03*
D10*
X406273Y31242D03*
D11*
X413766Y31242D03*
X419354Y31242D03*
D18*
X426847Y31242D03*
D10*
X431673Y31242D03*
D42*
X445135Y35560D03*
D12*
X457200Y31242D03*
D11*
X81788Y31496D03*
D18*
X88011Y31496D03*
X94615Y31496D03*
D11*
X101600Y31496D03*
D40*
X118872Y31496D03*
D11*
X126746Y31496D03*
D10*
X152273Y31496D03*
D43*
X160909Y31496D03*
D26*
X169799Y31496D03*
D10*
X177673Y31496D03*
D11*
X185166Y31496D03*
D51*
X194564Y31496D03*
D11*
X203200Y31496D03*
D42*
X217043Y31496D03*
D11*
X228346Y31496D03*
D51*
X239268Y31496D03*
D18*
X248793Y31496D03*
D11*
X253492Y31496D03*
D25*
X267462Y31496D03*
D10*
X279273Y31496D03*
D18*
X286893Y31496D03*
D10*
X304673Y31496D03*
D11*
X312166Y31496D03*
D18*
X318643Y31496D03*
X324993Y31496D03*
D10*
X329819Y31496D03*
D18*
X337439Y31496D03*
X343027Y31496D03*
X350393Y31496D03*
D10*
X355727Y31496D03*
D18*
X363093Y31496D03*
D24*
X369316Y31496D03*
D18*
X375793Y31496D03*
D10*
X380873Y31496D03*
D18*
X388239Y31496D03*
D11*
X395478Y31496D03*
D18*
X401193Y31496D03*
D10*
X406273Y31496D03*
D11*
X413766Y31496D03*
X419354Y31496D03*
D18*
X426847Y31496D03*
D10*
X431673Y31496D03*
D42*
X445135Y35814D03*
D12*
X457200Y31496D03*
D11*
X81788Y31750D03*
X88138Y31750D03*
X94742Y31750D03*
X101600Y31750D03*
D19*
X119634Y31750D03*
D11*
X126746Y31750D03*
D10*
X152273Y31750D03*
D43*
X160909Y31750D03*
D26*
X169799Y31750D03*
D10*
X177673Y31750D03*
D11*
X185166Y31750D03*
D51*
X194564Y31750D03*
D11*
X203200Y31750D03*
D42*
X217043Y31750D03*
D11*
X228346Y31750D03*
D32*
X239395Y31750D03*
D18*
X248793Y31750D03*
D11*
X253492Y31750D03*
D25*
X267462Y31750D03*
D10*
X279273Y31750D03*
D18*
X286893Y31750D03*
D10*
X304673Y31750D03*
D11*
X312166Y31750D03*
D18*
X318643Y31750D03*
X324993Y31750D03*
D10*
X329819Y31750D03*
D18*
X337439Y31750D03*
X343027Y31750D03*
X350393Y31750D03*
D10*
X355727Y31750D03*
D18*
X363093Y31750D03*
D24*
X369316Y31750D03*
D18*
X375793Y31750D03*
D10*
X380873Y31750D03*
D18*
X388239Y31750D03*
D11*
X395478Y31750D03*
D18*
X401193Y31750D03*
D10*
X406273Y31750D03*
D11*
X413766Y31750D03*
X419354Y31750D03*
D18*
X426847Y31750D03*
D10*
X431673Y31750D03*
D42*
X445135Y36068D03*
D12*
X457200Y31750D03*
D11*
X81788Y32004D03*
X88138Y32004D03*
X94742Y32004D03*
X101600Y32004D03*
D46*
X120396Y32004D03*
D11*
X126746Y32004D03*
D10*
X152273Y32004D03*
D43*
X160909Y32004D03*
D26*
X169799Y32004D03*
D10*
X177673Y32004D03*
D11*
X185166Y32004D03*
D55*
X194564Y32004D03*
D11*
X203200Y32004D03*
D21*
X212979Y32004D03*
D23*
X220980Y32004D03*
D11*
X228346Y32004D03*
D49*
X239395Y32004D03*
D18*
X248793Y32004D03*
D11*
X253492Y32004D03*
D25*
X267462Y32004D03*
D10*
X279273Y32004D03*
D18*
X286893Y32004D03*
D10*
X304673Y32004D03*
D11*
X312166Y32004D03*
D18*
X318643Y32004D03*
X324993Y32004D03*
D10*
X329819Y32004D03*
D18*
X337439Y32004D03*
X343027Y32004D03*
X350393Y32004D03*
D10*
X355727Y32004D03*
D18*
X363093Y32004D03*
D24*
X369316Y32004D03*
D18*
X375793Y32004D03*
D10*
X380873Y32004D03*
D18*
X388239Y32004D03*
D11*
X395478Y32004D03*
D18*
X401193Y32004D03*
D10*
X406273Y32004D03*
D11*
X413766Y32004D03*
X419354Y32004D03*
D18*
X426847Y32004D03*
D10*
X431673Y32004D03*
D42*
X445135Y36322D03*
D12*
X457200Y32004D03*
D11*
X81788Y32258D03*
X88138Y32258D03*
X94742Y32258D03*
X101600Y32258D03*
D34*
X120904Y32258D03*
D11*
X126746Y32258D03*
D10*
X152273Y32258D03*
D43*
X160909Y32258D03*
D26*
X169799Y32258D03*
D10*
X177673Y32258D03*
D11*
X185166Y32258D03*
D49*
X194437Y32258D03*
D11*
X203200Y32258D03*
D19*
X213106Y32258D03*
D21*
X220853Y32258D03*
D11*
X228346Y32258D03*
D40*
X239268Y32258D03*
D18*
X248793Y32258D03*
D11*
X253492Y32258D03*
D25*
X267462Y32258D03*
D10*
X279273Y32258D03*
D18*
X286893Y32258D03*
D10*
X304673Y32258D03*
D11*
X312166Y32258D03*
D18*
X318643Y32258D03*
X324993Y32258D03*
D10*
X329819Y32258D03*
D18*
X337439Y32258D03*
X343027Y32258D03*
X350393Y32258D03*
D10*
X355727Y32258D03*
D18*
X363093Y32258D03*
D24*
X369316Y32258D03*
D18*
X375793Y32258D03*
D10*
X380873Y32258D03*
D18*
X388239Y32258D03*
D11*
X395478Y32258D03*
D18*
X401193Y32258D03*
D10*
X406273Y32258D03*
D11*
X413766Y32258D03*
X419354Y32258D03*
D18*
X426847Y32258D03*
D10*
X431673Y32258D03*
D42*
X445135Y36576D03*
D12*
X457200Y32258D03*
D11*
X81788Y32512D03*
X88138Y32512D03*
X94742Y32512D03*
X101600Y32512D03*
D43*
X120523Y32512D03*
D11*
X126746Y32512D03*
D10*
X152273Y32512D03*
D18*
X159639Y32512D03*
D11*
X166878Y32512D03*
D18*
X172593Y32512D03*
D10*
X177673Y32512D03*
D11*
X185166Y32512D03*
D31*
X194564Y32512D03*
D11*
X203200Y32512D03*
D58*
X213106Y32512D03*
D48*
X220853Y32512D03*
D11*
X228346Y32512D03*
D29*
X239395Y32512D03*
D18*
X248793Y32512D03*
D11*
X253492Y32512D03*
D25*
X267462Y32512D03*
D10*
X279273Y32512D03*
D18*
X286893Y32512D03*
D10*
X304673Y32512D03*
D11*
X312166Y32512D03*
D18*
X318643Y32512D03*
X324993Y32512D03*
D10*
X329819Y32512D03*
D18*
X337439Y32512D03*
X343027Y32512D03*
X350393Y32512D03*
D10*
X355727Y32512D03*
D18*
X363093Y32512D03*
D24*
X369316Y32512D03*
D18*
X375793Y32512D03*
D10*
X380873Y32512D03*
D18*
X388239Y32512D03*
D11*
X395478Y32512D03*
D18*
X401193Y32512D03*
D10*
X406273Y32512D03*
D11*
X413766Y32512D03*
X419354Y32512D03*
D18*
X426847Y32512D03*
D10*
X431673Y32512D03*
D42*
X445135Y36830D03*
D12*
X457200Y32512D03*
D11*
X81788Y32766D03*
X88138Y32766D03*
X94742Y32766D03*
X101600Y32766D03*
D59*
X120015Y32766D03*
D11*
X126746Y32766D03*
D10*
X152273Y32766D03*
D18*
X159639Y32766D03*
D11*
X166878Y32766D03*
D18*
X172593Y32766D03*
D10*
X177673Y32766D03*
D11*
X185166Y32766D03*
D21*
X194437Y32766D03*
D11*
X203200Y32766D03*
D46*
X213106Y32766D03*
X220726Y32766D03*
D11*
X228346Y32766D03*
D19*
X239268Y32766D03*
D18*
X248793Y32766D03*
D11*
X253492Y32766D03*
D42*
X267589Y32766D03*
D10*
X279273Y32766D03*
D18*
X286893Y32766D03*
D10*
X304673Y32766D03*
D11*
X312166Y32766D03*
D18*
X318643Y32766D03*
X324993Y32766D03*
D10*
X329819Y32766D03*
D18*
X337439Y32766D03*
X343027Y32766D03*
X350393Y32766D03*
D10*
X355727Y32766D03*
D18*
X363093Y32766D03*
D24*
X369316Y32766D03*
D18*
X375793Y32766D03*
D10*
X380873Y32766D03*
D18*
X388239Y32766D03*
D11*
X395478Y32766D03*
D18*
X401193Y32766D03*
D10*
X406273Y32766D03*
D11*
X413766Y32766D03*
X419354Y32766D03*
D18*
X426847Y32766D03*
D10*
X431673Y32766D03*
D42*
X445135Y37084D03*
D12*
X457200Y32766D03*
D11*
X81788Y33020D03*
X88138Y33020D03*
X94742Y33020D03*
X101600Y33020D03*
D21*
X119507Y33020D03*
D11*
X126746Y33020D03*
D10*
X152273Y33020D03*
D18*
X159639Y33020D03*
D11*
X166878Y33020D03*
D18*
X172593Y33020D03*
D10*
X177673Y33020D03*
D11*
X203200Y33020D03*
X228346Y33020D03*
X253492Y33020D03*
D18*
X268351Y33020D03*
D10*
X279273Y33020D03*
D18*
X286893Y33020D03*
D10*
X304673Y33020D03*
D11*
X312166Y33020D03*
D18*
X318643Y33020D03*
X324993Y33020D03*
D10*
X329819Y33020D03*
D18*
X337439Y33020D03*
X343027Y33020D03*
X350393Y33020D03*
D10*
X355727Y33020D03*
D18*
X363093Y33020D03*
D24*
X369316Y33020D03*
D18*
X375793Y33020D03*
D10*
X380873Y33020D03*
D18*
X388239Y33020D03*
D11*
X395478Y33020D03*
D18*
X401193Y33020D03*
D10*
X406273Y33020D03*
D11*
X413766Y33020D03*
X419354Y33020D03*
D18*
X426847Y33020D03*
D10*
X431673Y33020D03*
D18*
X446151Y37338D03*
D12*
X457200Y33020D03*
D11*
X81788Y33274D03*
X88138Y33274D03*
X94742Y33274D03*
X101600Y33274D03*
D40*
X118872Y33274D03*
D11*
X126746Y33274D03*
D10*
X152273Y33274D03*
D18*
X159639Y33274D03*
D11*
X166878Y33274D03*
D18*
X172593Y33274D03*
D10*
X177673Y33274D03*
D11*
X203200Y33274D03*
X228346Y33274D03*
X253492Y33274D03*
D18*
X268351Y33274D03*
D10*
X279273Y33274D03*
D18*
X286893Y33274D03*
D10*
X304673Y33274D03*
D11*
X312166Y33274D03*
D18*
X318643Y33274D03*
X324993Y33274D03*
D10*
X329819Y33274D03*
D18*
X337439Y33274D03*
X343027Y33274D03*
X350393Y33274D03*
D10*
X355727Y33274D03*
D18*
X363093Y33274D03*
D24*
X369316Y33274D03*
D18*
X375793Y33274D03*
D10*
X380873Y33274D03*
D18*
X388239Y33274D03*
D11*
X395478Y33274D03*
D18*
X401193Y33274D03*
D10*
X406273Y33274D03*
D11*
X413766Y33274D03*
X419354Y33274D03*
D18*
X426847Y33274D03*
D10*
X431673Y33274D03*
D18*
X446151Y37592D03*
D12*
X457200Y33274D03*
D11*
X81788Y33528D03*
X88138Y33528D03*
X94742Y33528D03*
X101600Y33528D03*
D51*
X118364Y33528D03*
D11*
X126746Y33528D03*
D10*
X152273Y33528D03*
D18*
X159639Y33528D03*
D11*
X166878Y33528D03*
D18*
X172593Y33528D03*
D10*
X177673Y33528D03*
D11*
X203200Y33528D03*
X228346Y33528D03*
X253492Y33528D03*
D18*
X268351Y33528D03*
D10*
X279273Y33528D03*
D18*
X286893Y33528D03*
D10*
X304673Y33528D03*
D11*
X312166Y33528D03*
D18*
X318643Y33528D03*
X324993Y33528D03*
D10*
X329819Y33528D03*
D18*
X337439Y33528D03*
X343027Y33528D03*
X350393Y33528D03*
D10*
X355727Y33528D03*
D18*
X363093Y33528D03*
D24*
X369316Y33528D03*
D18*
X375793Y33528D03*
D10*
X380873Y33528D03*
D18*
X388239Y33528D03*
D11*
X395478Y33528D03*
D18*
X401193Y33528D03*
D10*
X406273Y33528D03*
D11*
X413766Y33528D03*
X419354Y33528D03*
D18*
X426847Y33528D03*
D10*
X431673Y33528D03*
D18*
X446151Y37846D03*
D12*
X457200Y33528D03*
D11*
X81788Y33782D03*
X88138Y33782D03*
X94742Y33782D03*
X101600Y33782D03*
D35*
X117856Y33782D03*
D11*
X126746Y33782D03*
D42*
X140589Y33782D03*
D10*
X152273Y33782D03*
D18*
X159639Y33782D03*
D11*
X166878Y33782D03*
D18*
X172593Y33782D03*
D10*
X177673Y33782D03*
D11*
X203200Y33782D03*
X228346Y33782D03*
X253492Y33782D03*
D18*
X268351Y33782D03*
D10*
X279273Y33782D03*
D18*
X286893Y33782D03*
D10*
X304673Y33782D03*
D11*
X312166Y33782D03*
D18*
X318643Y33782D03*
X324993Y33782D03*
D10*
X329819Y33782D03*
D18*
X337439Y33782D03*
X343027Y33782D03*
X350393Y33782D03*
D10*
X355727Y33782D03*
D18*
X363093Y33782D03*
D24*
X369316Y33782D03*
D18*
X375793Y33782D03*
D10*
X380873Y33782D03*
D18*
X388239Y33782D03*
D11*
X395478Y33782D03*
D18*
X401193Y33782D03*
D10*
X406273Y33782D03*
D11*
X413766Y33782D03*
X419354Y33782D03*
D18*
X426847Y33782D03*
D10*
X431673Y33782D03*
D18*
X446151Y38100D03*
D12*
X457200Y33782D03*
D11*
X81788Y34036D03*
X88138Y34036D03*
X94742Y34036D03*
X101600Y34036D03*
D44*
X117221Y34036D03*
D11*
X126746Y34036D03*
D42*
X140589Y34036D03*
D10*
X152273Y34036D03*
D18*
X159639Y34036D03*
D11*
X166878Y34036D03*
D18*
X172593Y34036D03*
D10*
X177673Y34036D03*
D11*
X203200Y34036D03*
X228346Y34036D03*
X253492Y34036D03*
D18*
X268351Y34036D03*
D10*
X279273Y34036D03*
D18*
X286893Y34036D03*
D10*
X304673Y34036D03*
D11*
X312166Y34036D03*
D18*
X318643Y34036D03*
X324993Y34036D03*
D10*
X329819Y34036D03*
D18*
X337439Y34036D03*
X343027Y34036D03*
X350393Y34036D03*
D10*
X355727Y34036D03*
D42*
X369443Y34036D03*
D10*
X380873Y34036D03*
D18*
X388239Y34036D03*
D11*
X395478Y34036D03*
D18*
X401193Y34036D03*
D10*
X406273Y34036D03*
D11*
X413766Y34036D03*
D18*
X419481Y34036D03*
X426847Y34036D03*
D10*
X431673Y34036D03*
D18*
X446151Y38354D03*
D12*
X457200Y34036D03*
D11*
X81788Y34290D03*
X88138Y34290D03*
X94742Y34290D03*
X101600Y34290D03*
D44*
X116205Y34290D03*
D11*
X126746Y34290D03*
D42*
X140589Y34290D03*
D10*
X152273Y34290D03*
D18*
X159639Y34290D03*
D11*
X166878Y34290D03*
D18*
X172593Y34290D03*
D10*
X177673Y34290D03*
D11*
X203200Y34290D03*
X228346Y34290D03*
X253492Y34290D03*
D18*
X268351Y34290D03*
D10*
X279273Y34290D03*
D18*
X286893Y34290D03*
D10*
X304673Y34290D03*
D11*
X312166Y34290D03*
D18*
X318643Y34290D03*
X324993Y34290D03*
D10*
X329819Y34290D03*
D18*
X337439Y34290D03*
X343027Y34290D03*
X350393Y34290D03*
D10*
X355727Y34290D03*
D42*
X369443Y34290D03*
D10*
X380873Y34290D03*
D45*
X391795Y34290D03*
D18*
X401193Y34290D03*
D10*
X406273Y34290D03*
D11*
X413766Y34290D03*
D56*
X423164Y34290D03*
D10*
X431673Y34290D03*
D18*
X446151Y38608D03*
D12*
X457200Y34290D03*
D11*
X81788Y34544D03*
X88138Y34544D03*
D18*
X94615Y34544D03*
D11*
X101600Y34544D03*
D37*
X115316Y34544D03*
D11*
X126746Y34544D03*
D42*
X140589Y34544D03*
D10*
X152273Y34544D03*
D18*
X159639Y34544D03*
D11*
X166878Y34544D03*
D18*
X172593Y34544D03*
D10*
X177673Y34544D03*
D11*
X203200Y34544D03*
X228346Y34544D03*
X253492Y34544D03*
D18*
X268351Y34544D03*
D10*
X279273Y34544D03*
D42*
X293243Y34544D03*
D10*
X304673Y34544D03*
D11*
X312166Y34544D03*
D55*
X321818Y34544D03*
D10*
X329819Y34544D03*
D18*
X337439Y34544D03*
D56*
X346710Y34544D03*
D10*
X355727Y34544D03*
D42*
X369443Y34544D03*
D10*
X380873Y34544D03*
D45*
X391795Y34544D03*
D18*
X401193Y34544D03*
D10*
X406273Y34544D03*
D11*
X413766Y34544D03*
D56*
X423164Y34544D03*
D10*
X431673Y34544D03*
D18*
X446151Y38862D03*
D12*
X457200Y34544D03*
D16*
X82931Y34798D03*
D55*
X91440Y34798D03*
D11*
X101600Y34798D03*
D37*
X114300Y34798D03*
D11*
X126746Y34798D03*
D42*
X140589Y34798D03*
D10*
X152273Y34798D03*
D18*
X159639Y34798D03*
D11*
X166878Y34798D03*
D18*
X172593Y34798D03*
D10*
X177673Y34798D03*
D11*
X203200Y34798D03*
X228346Y34798D03*
X253492Y34798D03*
D18*
X268351Y34798D03*
D10*
X279273Y34798D03*
D42*
X293243Y34798D03*
D10*
X304673Y34798D03*
D11*
X312166Y34798D03*
D55*
X321818Y34798D03*
D10*
X329819Y34798D03*
D18*
X337439Y34798D03*
D56*
X346710Y34798D03*
D10*
X355727Y34798D03*
D42*
X369443Y34798D03*
D10*
X380873Y34798D03*
D45*
X391795Y34798D03*
D18*
X401193Y34798D03*
D10*
X406273Y34798D03*
D11*
X413766Y34798D03*
D56*
X423164Y34798D03*
D10*
X431673Y34798D03*
D18*
X446151Y39116D03*
D12*
X457200Y34798D03*
D16*
X82931Y35052D03*
D55*
X91440Y35052D03*
D11*
X101600Y35052D03*
D44*
X113411Y35052D03*
D11*
X126746Y35052D03*
D42*
X140589Y35052D03*
D10*
X152273Y35052D03*
D18*
X159639Y35052D03*
D11*
X166878Y35052D03*
D18*
X172593Y35052D03*
D10*
X177673Y35052D03*
D11*
X203200Y35052D03*
X228346Y35052D03*
X253492Y35052D03*
D10*
X279273Y35052D03*
D42*
X293243Y35052D03*
D10*
X304673Y35052D03*
D11*
X312166Y35052D03*
D55*
X321818Y35052D03*
D10*
X329819Y35052D03*
D18*
X337439Y35052D03*
D56*
X346710Y35052D03*
D10*
X355727Y35052D03*
D42*
X369443Y35052D03*
D10*
X380873Y35052D03*
D45*
X391795Y35052D03*
D18*
X401193Y35052D03*
D10*
X406273Y35052D03*
D11*
X413766Y35052D03*
D56*
X423164Y35052D03*
D10*
X431673Y35052D03*
D12*
X457200Y35052D03*
D16*
X82931Y35306D03*
D55*
X91440Y35306D03*
D11*
X101600Y35306D03*
D35*
X113030Y35306D03*
D11*
X126746Y35306D03*
D42*
X140589Y35306D03*
D10*
X152273Y35306D03*
D18*
X159639Y35306D03*
D11*
X166878Y35306D03*
D18*
X172593Y35306D03*
D10*
X177673Y35306D03*
D11*
X203200Y35306D03*
X228346Y35306D03*
X253492Y35306D03*
D10*
X279273Y35306D03*
D42*
X293243Y35306D03*
D10*
X304673Y35306D03*
D11*
X312166Y35306D03*
D55*
X321818Y35306D03*
D10*
X329819Y35306D03*
D18*
X337439Y35306D03*
D56*
X346710Y35306D03*
D10*
X355727Y35306D03*
D42*
X369443Y35306D03*
D10*
X380873Y35306D03*
D45*
X391795Y35306D03*
D18*
X401193Y35306D03*
D10*
X406273Y35306D03*
D11*
X413766Y35306D03*
D45*
X423037Y35306D03*
D10*
X431673Y35306D03*
D12*
X457200Y35306D03*
D16*
X82931Y35560D03*
D55*
X91440Y35560D03*
D11*
X101600Y35560D03*
D51*
X112522Y35560D03*
D11*
X126746Y35560D03*
D42*
X140589Y35560D03*
D10*
X152273Y35560D03*
D45*
X163195Y35560D03*
D18*
X172593Y35560D03*
D10*
X177673Y35560D03*
D11*
X203200Y35560D03*
X228346Y35560D03*
X253492Y35560D03*
D10*
X279273Y35560D03*
D42*
X293243Y35560D03*
D10*
X304673Y35560D03*
D11*
X312166Y35560D03*
D55*
X321818Y35560D03*
D10*
X329819Y35560D03*
D18*
X337439Y35560D03*
D45*
X346837Y35560D03*
D10*
X355727Y35560D03*
D42*
X369443Y35560D03*
D10*
X380873Y35560D03*
D51*
X391922Y35560D03*
D18*
X401193Y35560D03*
D10*
X406273Y35560D03*
D11*
X413766Y35560D03*
D45*
X423037Y35560D03*
D10*
X431673Y35560D03*
D12*
X457200Y35560D03*
D16*
X82931Y35814D03*
D55*
X91440Y35814D03*
D11*
X101600Y35814D03*
D40*
X112014Y35814D03*
D11*
X126746Y35814D03*
D42*
X140589Y35814D03*
D10*
X152273Y35814D03*
D45*
X163195Y35814D03*
D18*
X172593Y35814D03*
D10*
X177673Y35814D03*
D11*
X203200Y35814D03*
X228346Y35814D03*
X253492Y35814D03*
D10*
X279273Y35814D03*
D42*
X293243Y35814D03*
D10*
X304673Y35814D03*
D11*
X312166Y35814D03*
D55*
X321818Y35814D03*
D10*
X329819Y35814D03*
D18*
X337439Y35814D03*
D45*
X346837Y35814D03*
D10*
X355727Y35814D03*
D42*
X369443Y35814D03*
D10*
X380873Y35814D03*
D32*
X391795Y35814D03*
D18*
X401193Y35814D03*
D10*
X406273Y35814D03*
D11*
X413766Y35814D03*
D51*
X423164Y35814D03*
D10*
X431673Y35814D03*
D12*
X457200Y35814D03*
D16*
X82931Y36068D03*
D55*
X91440Y36068D03*
D11*
X101600Y36068D03*
D29*
X111633Y36068D03*
D11*
X126746Y36068D03*
D42*
X140589Y36068D03*
D10*
X152273Y36068D03*
D45*
X163195Y36068D03*
D18*
X172593Y36068D03*
D10*
X177673Y36068D03*
D11*
X203200Y36068D03*
X228346Y36068D03*
X253492Y36068D03*
D10*
X279273Y36068D03*
D42*
X293243Y36068D03*
D10*
X304673Y36068D03*
D11*
X312166Y36068D03*
D55*
X321818Y36068D03*
D10*
X329819Y36068D03*
D18*
X337439Y36068D03*
D51*
X346710Y36068D03*
D10*
X355727Y36068D03*
D42*
X369443Y36068D03*
D10*
X380873Y36068D03*
D32*
X391795Y36068D03*
D18*
X401193Y36068D03*
D10*
X406273Y36068D03*
D11*
X413766Y36068D03*
D51*
X423164Y36068D03*
D10*
X431673Y36068D03*
D12*
X457200Y36068D03*
D16*
X82931Y36322D03*
D55*
X91440Y36322D03*
D11*
X101600Y36322D03*
D48*
X111125Y36322D03*
D11*
X126746Y36322D03*
D42*
X140589Y36322D03*
D10*
X152273Y36322D03*
D45*
X163195Y36322D03*
D18*
X172593Y36322D03*
D10*
X177673Y36322D03*
D11*
X203200Y36322D03*
X228346Y36322D03*
X253492Y36322D03*
D10*
X279273Y36322D03*
D42*
X293243Y36322D03*
D10*
X304673Y36322D03*
D11*
X312166Y36322D03*
D55*
X321818Y36322D03*
D10*
X329819Y36322D03*
D18*
X337439Y36322D03*
D51*
X346710Y36322D03*
D10*
X355727Y36322D03*
D19*
X365506Y36322D03*
D23*
X373380Y36322D03*
D10*
X380873Y36322D03*
D49*
X391795Y36322D03*
D18*
X401193Y36322D03*
D10*
X406273Y36322D03*
D11*
X413766Y36322D03*
D55*
X423164Y36322D03*
D10*
X431673Y36322D03*
D12*
X457200Y36322D03*
D34*
X83058Y36576D03*
D40*
X91440Y36576D03*
D11*
X101600Y36576D03*
D57*
X110617Y36576D03*
D11*
X126746Y36576D03*
D48*
X136271Y36576D03*
D10*
X152273Y36576D03*
D45*
X163195Y36576D03*
D18*
X172593Y36576D03*
D10*
X177673Y36576D03*
D11*
X203200Y36576D03*
X228346Y36576D03*
X253492Y36576D03*
D10*
X279273Y36576D03*
D42*
X293243Y36576D03*
D10*
X304673Y36576D03*
D11*
X312166Y36576D03*
D40*
X321818Y36576D03*
D10*
X329819Y36576D03*
D18*
X337439Y36576D03*
D32*
X346837Y36576D03*
D10*
X355727Y36576D03*
D19*
X365506Y36576D03*
D21*
X373253Y36576D03*
D10*
X380873Y36576D03*
D40*
X391922Y36576D03*
D18*
X401193Y36576D03*
D10*
X406273Y36576D03*
D11*
X413766Y36576D03*
D40*
X423164Y36576D03*
D10*
X431673Y36576D03*
D12*
X457200Y36576D03*
D34*
X83058Y36830D03*
D31*
X91440Y36830D03*
D11*
X101600Y36830D03*
D39*
X110236Y36830D03*
D11*
X126746Y36830D03*
D19*
X136652Y36830D03*
D10*
X152273Y36830D03*
D45*
X163195Y36830D03*
D18*
X172593Y36830D03*
D10*
X177673Y36830D03*
D11*
X203200Y36830D03*
X228346Y36830D03*
X253492Y36830D03*
D10*
X279273Y36830D03*
D38*
X293370Y36830D03*
D10*
X304673Y36830D03*
D11*
X312166Y36830D03*
D40*
X321818Y36830D03*
D10*
X329819Y36830D03*
D18*
X337439Y36830D03*
D55*
X346710Y36830D03*
D10*
X355727Y36830D03*
D58*
X365506Y36830D03*
D48*
X373253Y36830D03*
D10*
X380873Y36830D03*
D29*
X391795Y36830D03*
D18*
X401193Y36830D03*
D10*
X406273Y36830D03*
D11*
X413766Y36830D03*
D31*
X423164Y36830D03*
D10*
X431673Y36830D03*
D12*
X457200Y36830D03*
D28*
X83185Y37084D03*
D29*
X91567Y37084D03*
D11*
X101600Y37084D03*
D30*
X109728Y37084D03*
D11*
X126746Y37084D03*
D48*
X137287Y37084D03*
D10*
X152273Y37084D03*
D51*
X163322Y37084D03*
D18*
X172593Y37084D03*
D10*
X177673Y37084D03*
D11*
X203200Y37084D03*
X228346Y37084D03*
X253492Y37084D03*
D10*
X279273Y37084D03*
D36*
X293497Y37084D03*
D10*
X304673Y37084D03*
D11*
X312166Y37084D03*
D31*
X321818Y37084D03*
D10*
X329819Y37084D03*
D18*
X337439Y37084D03*
D40*
X346710Y37084D03*
D10*
X355727Y37084D03*
D43*
X365633Y37084D03*
D46*
X373126Y37084D03*
D10*
X380873Y37084D03*
D48*
X391795Y37084D03*
D18*
X401193Y37084D03*
D10*
X406273Y37084D03*
D11*
X413766Y37084D03*
D19*
X423164Y37084D03*
D10*
X431673Y37084D03*
D12*
X457200Y37084D03*
D15*
X83439Y37338D03*
D19*
X91440Y37338D03*
D11*
X101600Y37338D03*
D24*
X109220Y37338D03*
D11*
X126746Y37338D03*
D48*
X137795Y37338D03*
D10*
X152273Y37338D03*
D32*
X163195Y37338D03*
D18*
X172593Y37338D03*
D10*
X177673Y37338D03*
D11*
X203200Y37338D03*
X228346Y37338D03*
X253492Y37338D03*
D10*
X279273Y37338D03*
D47*
X293624Y37338D03*
D10*
X304673Y37338D03*
D11*
X312166Y37338D03*
D58*
X321818Y37338D03*
D10*
X329819Y37338D03*
D18*
X337439Y37338D03*
D23*
X346710Y37338D03*
D10*
X355727Y37338D03*
X380873Y37338D03*
X406273Y37338D03*
X431673Y37338D03*
D12*
X457200Y37338D03*
D54*
X83693Y37592D03*
D46*
X91440Y37592D03*
D11*
X101600Y37592D03*
D10*
X108839Y37592D03*
D11*
X126746Y37592D03*
D48*
X138303Y37592D03*
D10*
X152273Y37592D03*
D55*
X163322Y37592D03*
D18*
X172593Y37592D03*
D10*
X177673Y37592D03*
D11*
X203200Y37592D03*
X228346Y37592D03*
X253492Y37592D03*
D10*
X279273Y37592D03*
X304673Y37592D03*
X329819Y37592D03*
X355727Y37592D03*
X380873Y37592D03*
X406273Y37592D03*
X431673Y37592D03*
D12*
X457200Y37592D03*
D11*
X101600Y37846D03*
D61*
X108331Y37846D03*
D11*
X126746Y37846D03*
D48*
X138811Y37846D03*
D10*
X152273Y37846D03*
D49*
X163195Y37846D03*
D18*
X172593Y37846D03*
D10*
X177673Y37846D03*
D11*
X203200Y37846D03*
X228346Y37846D03*
X253492Y37846D03*
D10*
X279273Y37846D03*
X304673Y37846D03*
X329819Y37846D03*
X355727Y37846D03*
X380873Y37846D03*
X406273Y37846D03*
X431673Y37846D03*
D12*
X457200Y37846D03*
D11*
X101600Y38100D03*
D63*
X107823Y38100D03*
D11*
X126746Y38100D03*
D48*
X139319Y38100D03*
D10*
X152273Y38100D03*
D26*
X163195Y38100D03*
D18*
X172593Y38100D03*
D10*
X177673Y38100D03*
D11*
X203200Y38100D03*
X228346Y38100D03*
X253492Y38100D03*
D10*
X279273Y38100D03*
X304673Y38100D03*
X329819Y38100D03*
X355727Y38100D03*
X380873Y38100D03*
X406273Y38100D03*
X431673Y38100D03*
D12*
X457200Y38100D03*
D11*
X101600Y38354D03*
X126746Y38354D03*
D48*
X139827Y38354D03*
D10*
X152273Y38354D03*
D23*
X163322Y38354D03*
D18*
X172593Y38354D03*
D10*
X177673Y38354D03*
D11*
X203200Y38354D03*
X228346Y38354D03*
X253492Y38354D03*
D10*
X279273Y38354D03*
X304673Y38354D03*
X329819Y38354D03*
X355727Y38354D03*
X380873Y38354D03*
X406273Y38354D03*
X431673Y38354D03*
D12*
X457200Y38354D03*
D11*
X101600Y38608D03*
X126746Y38608D03*
D48*
X140335Y38608D03*
D10*
X152273Y38608D03*
X177673Y38608D03*
D11*
X203200Y38608D03*
X228346Y38608D03*
X253492Y38608D03*
D10*
X279273Y38608D03*
X304673Y38608D03*
X329819Y38608D03*
X355727Y38608D03*
X380873Y38608D03*
X406273Y38608D03*
X431673Y38608D03*
D12*
X457200Y38608D03*
D11*
X101600Y38862D03*
X126746Y38862D03*
D48*
X140843Y38862D03*
D10*
X152273Y38862D03*
X177673Y38862D03*
D11*
X203200Y38862D03*
X228346Y38862D03*
X253492Y38862D03*
D10*
X279273Y38862D03*
X304673Y38862D03*
X329819Y38862D03*
X355727Y38862D03*
X380873Y38862D03*
X406273Y38862D03*
X431673Y38862D03*
D12*
X457200Y38862D03*
D11*
X101600Y39116D03*
X126746Y39116D03*
D48*
X141351Y39116D03*
D10*
X152273Y39116D03*
X177673Y39116D03*
D11*
X203200Y39116D03*
X228346Y39116D03*
X253492Y39116D03*
D10*
X279273Y39116D03*
X304673Y39116D03*
X329819Y39116D03*
X355727Y39116D03*
X380873Y39116D03*
X406273Y39116D03*
X431673Y39116D03*
D12*
X457200Y39116D03*
D11*
X101600Y39370D03*
X126746Y39370D03*
D48*
X141859Y39370D03*
D10*
X152273Y39370D03*
X177673Y39370D03*
D11*
X203200Y39370D03*
X228346Y39370D03*
X253492Y39370D03*
D10*
X279273Y39370D03*
X304673Y39370D03*
X329819Y39370D03*
X355727Y39370D03*
X380873Y39370D03*
X406273Y39370D03*
X431673Y39370D03*
D12*
X457200Y39370D03*
D18*
X81915Y39624D03*
D11*
X101600Y39624D03*
X126746Y39624D03*
D48*
X142367Y39624D03*
D10*
X152273Y39624D03*
X177673Y39624D03*
D11*
X203200Y39624D03*
X228346Y39624D03*
X253492Y39624D03*
D10*
X279273Y39624D03*
X304673Y39624D03*
X329819Y39624D03*
X355727Y39624D03*
X380873Y39624D03*
X406273Y39624D03*
X431673Y39624D03*
D12*
X457200Y39624D03*
D18*
X81915Y39878D03*
D11*
X101600Y39878D03*
X126746Y39878D03*
D19*
X143002Y39878D03*
D10*
X152273Y39878D03*
X177673Y39878D03*
D11*
X203200Y39878D03*
X228346Y39878D03*
X253492Y39878D03*
D18*
X81915Y40132D03*
D11*
X101600Y40132D03*
X126746Y40132D03*
D19*
X143510Y40132D03*
D10*
X152273Y40132D03*
X177673Y40132D03*
D11*
X203200Y40132D03*
X228346Y40132D03*
X253492Y40132D03*
D18*
X81915Y40386D03*
D11*
X101600Y40386D03*
X126746Y40386D03*
D19*
X144018Y40386D03*
D10*
X152273Y40386D03*
X177673Y40386D03*
D11*
X203200Y40386D03*
X228346Y40386D03*
X253492Y40386D03*
D18*
X81915Y40640D03*
D11*
X101600Y40640D03*
X126746Y40640D03*
D19*
X144526Y40640D03*
D10*
X152273Y40640D03*
X177673Y40640D03*
D11*
X203200Y40640D03*
X228346Y40640D03*
X253492Y40640D03*
D18*
X81915Y40894D03*
D11*
X101600Y40894D03*
X126746Y40894D03*
D42*
X140589Y40894D03*
D10*
X152273Y40894D03*
X177673Y40894D03*
D11*
X203200Y40894D03*
X228346Y40894D03*
X253492Y40894D03*
D18*
X81915Y41148D03*
D11*
X101600Y41148D03*
X126746Y41148D03*
D42*
X140589Y41148D03*
D10*
X152273Y41148D03*
X177673Y41148D03*
D11*
X203200Y41148D03*
X228346Y41148D03*
X253492Y41148D03*
D18*
X81915Y41402D03*
D11*
X101600Y41402D03*
X126746Y41402D03*
D42*
X140589Y41402D03*
D10*
X152273Y41402D03*
X177673Y41402D03*
D11*
X203200Y41402D03*
X228346Y41402D03*
X253492Y41402D03*
D18*
X81915Y41656D03*
D11*
X101600Y41656D03*
X126746Y41656D03*
D42*
X140589Y41656D03*
D10*
X152273Y41656D03*
X177673Y41656D03*
D11*
X203200Y41656D03*
X228346Y41656D03*
X253492Y41656D03*
D18*
X81915Y41910D03*
D11*
X101600Y41910D03*
X126746Y41910D03*
D42*
X140589Y41910D03*
D10*
X152273Y41910D03*
X177673Y41910D03*
D11*
X203200Y41910D03*
X228346Y41910D03*
X253492Y41910D03*
D18*
X81915Y42164D03*
D11*
X101600Y42164D03*
X126746Y42164D03*
D42*
X140589Y42164D03*
D10*
X152273Y42164D03*
X177673Y42164D03*
D11*
X203200Y42164D03*
X228346Y42164D03*
X253492Y42164D03*
D18*
X81915Y42418D03*
D11*
X101600Y42418D03*
X126746Y42418D03*
D42*
X140589Y42418D03*
D10*
X152273Y42418D03*
X177673Y42418D03*
D11*
X203200Y42418D03*
X228346Y42418D03*
X253492Y42418D03*
D18*
X81915Y42672D03*
D11*
X101600Y42672D03*
X126746Y42672D03*
D42*
X140589Y42672D03*
D10*
X152273Y42672D03*
X177673Y42672D03*
D11*
X203200Y42672D03*
X228346Y42672D03*
X253492Y42672D03*
D18*
X81915Y42926D03*
D11*
X101600Y42926D03*
X126746Y42926D03*
D42*
X140589Y42926D03*
D10*
X152273Y42926D03*
X177673Y42926D03*
D11*
X203200Y42926D03*
X228346Y42926D03*
X253492Y42926D03*
D42*
X88265Y43180D03*
D11*
X101600Y43180D03*
X126746Y43180D03*
D42*
X140589Y43180D03*
D10*
X152273Y43180D03*
X177673Y43180D03*
D11*
X203200Y43180D03*
X228346Y43180D03*
X253492Y43180D03*
D42*
X88265Y43434D03*
D11*
X101600Y43434D03*
X126746Y43434D03*
D42*
X140589Y43434D03*
D10*
X152273Y43434D03*
X177673Y43434D03*
D11*
X203200Y43434D03*
X228346Y43434D03*
X253492Y43434D03*
D42*
X88265Y43688D03*
D11*
X101600Y43688D03*
X126746Y43688D03*
D10*
X152273Y43688D03*
X177673Y43688D03*
D11*
X203200Y43688D03*
X228346Y43688D03*
X253492Y43688D03*
D42*
X88265Y43942D03*
D11*
X101600Y43942D03*
X126746Y43942D03*
D10*
X152273Y43942D03*
X177673Y43942D03*
D11*
X203200Y43942D03*
X228346Y43942D03*
X253492Y43942D03*
D42*
X88265Y44196D03*
D11*
X101600Y44196D03*
X126746Y44196D03*
D10*
X152273Y44196D03*
X177673Y44196D03*
D11*
X203200Y44196D03*
X228346Y44196D03*
X253492Y44196D03*
D42*
X88265Y44450D03*
D11*
X101600Y44450D03*
X126746Y44450D03*
D10*
X152273Y44450D03*
X177673Y44450D03*
D11*
X203200Y44450D03*
X228346Y44450D03*
X253492Y44450D03*
D42*
X88265Y44704D03*
D11*
X101600Y44704D03*
X126746Y44704D03*
D10*
X152273Y44704D03*
X177673Y44704D03*
D11*
X203200Y44704D03*
X228346Y44704D03*
X253492Y44704D03*
D42*
X88265Y44958D03*
D11*
X101600Y44958D03*
X126746Y44958D03*
D10*
X152273Y44958D03*
X177673Y44958D03*
D11*
X203200Y44958D03*
X228346Y44958D03*
X253492Y44958D03*
D42*
X88265Y45212D03*
D11*
X101600Y45212D03*
X126746Y45212D03*
D10*
X152273Y45212D03*
X177673Y45212D03*
D11*
X203200Y45212D03*
X228346Y45212D03*
X253492Y45212D03*
D42*
X88265Y45466D03*
D11*
X101600Y45466D03*
X126746Y45466D03*
D10*
X152273Y45466D03*
X177673Y45466D03*
D11*
X203200Y45466D03*
X228346Y45466D03*
X253492Y45466D03*
D42*
X88265Y45720D03*
D11*
X101600Y45720D03*
X126746Y45720D03*
D10*
X152273Y45720D03*
X177673Y45720D03*
D11*
X203200Y45720D03*
X228346Y45720D03*
X253492Y45720D03*
D42*
X88265Y45974D03*
D11*
X101600Y45974D03*
X126746Y45974D03*
D10*
X152273Y45974D03*
X177673Y45974D03*
D11*
X203200Y45974D03*
X228346Y45974D03*
X253492Y45974D03*
D18*
X81915Y46228D03*
D11*
X101600Y46228D03*
X126746Y46228D03*
D10*
X152273Y46228D03*
X177673Y46228D03*
D11*
X203200Y46228D03*
X228346Y46228D03*
X253492Y46228D03*
D18*
X81915Y46482D03*
D11*
X101600Y46482D03*
X126746Y46482D03*
D10*
X152273Y46482D03*
X177673Y46482D03*
D11*
X203200Y46482D03*
X228346Y46482D03*
X253492Y46482D03*
D18*
X81915Y46736D03*
D11*
X101600Y46736D03*
X126746Y46736D03*
D10*
X152273Y46736D03*
X177673Y46736D03*
D11*
X203200Y46736D03*
X228346Y46736D03*
X253492Y46736D03*
D18*
X81915Y46990D03*
D11*
X101600Y46990D03*
X126746Y46990D03*
D10*
X152273Y46990D03*
X177673Y46990D03*
D11*
X203200Y46990D03*
X228346Y46990D03*
X253492Y46990D03*
D18*
X81915Y47244D03*
D11*
X101600Y47244D03*
X126746Y47244D03*
D10*
X152273Y47244D03*
X177673Y47244D03*
D11*
X203200Y47244D03*
X228346Y47244D03*
X253492Y47244D03*
D18*
X81915Y47498D03*
D11*
X101600Y47498D03*
X126746Y47498D03*
D10*
X152273Y47498D03*
X177673Y47498D03*
D11*
X203200Y47498D03*
X228346Y47498D03*
X253492Y47498D03*
D18*
X81915Y47752D03*
D11*
X101600Y47752D03*
X126746Y47752D03*
D10*
X152273Y47752D03*
X177673Y47752D03*
D11*
X203200Y47752D03*
X228346Y47752D03*
X253492Y47752D03*
D18*
X81915Y48006D03*
D11*
X101600Y48006D03*
X126746Y48006D03*
D10*
X152273Y48006D03*
X177673Y48006D03*
D11*
X203200Y48006D03*
X228346Y48006D03*
X253492Y48006D03*
D18*
X82423Y44958D03*
D11*
X102108Y44958D03*
X127254Y44958D03*
D10*
X152781Y44958D03*
X178181Y44958D03*
D11*
X203708Y44958D03*
X228854Y44958D03*
X254000Y44958D03*
D18*
X82423Y45212D03*
D11*
X102108Y45212D03*
X127254Y45212D03*
D10*
X152781Y45212D03*
X178181Y45212D03*
D11*
X203708Y45212D03*
X228854Y45212D03*
X254000Y45212D03*
D18*
X82423Y45466D03*
D11*
X102108Y45466D03*
X127254Y45466D03*
D10*
X152781Y45466D03*
X178181Y45466D03*
D11*
X203708Y45466D03*
X228854Y45466D03*
X254000Y45466D03*
D18*
X82423Y45720D03*
D11*
X102108Y45720D03*
X127254Y45720D03*
D10*
X152781Y45720D03*
X178181Y45720D03*
X203581Y45720D03*
D11*
X228854Y45720D03*
D10*
X254127Y45720D03*
D18*
X82423Y45974D03*
D11*
X82296Y46228D03*
D65*
X150114Y151384D03*
X150368Y151384D03*
X150622Y151384D03*
X150876Y151384D03*
X151130Y151384D03*
X151384Y151384D03*
X151638Y151384D03*
X151892Y151384D03*
X152146Y151384D03*
X152400Y151384D03*
X152654Y151384D03*
X152908Y151384D03*
D66*
X153162Y157861D03*
X153162Y151511D03*
X153416Y157861D03*
X153416Y151511D03*
X153670Y157861D03*
X153670Y151511D03*
X153924Y157861D03*
X153924Y151511D03*
X154178Y157861D03*
X154178Y151511D03*
X154432Y157861D03*
X154432Y151511D03*
X154686Y157861D03*
X154686Y151511D03*
X154940Y157861D03*
X154940Y151511D03*
X155194Y157861D03*
X155194Y151511D03*
X155448Y157861D03*
X155448Y151511D03*
X155702Y157861D03*
X155702Y151511D03*
D67*
X155956Y154559D03*
D65*
X156210Y151384D03*
X156464Y151384D03*
X156718Y151384D03*
X156972Y151384D03*
X157226Y151384D03*
D68*
X157480Y151257D03*
X157734Y151257D03*
D69*
X157988Y155194D03*
D70*
X157988Y147193D03*
X158242Y155067D03*
X158242Y147193D03*
D71*
X158496Y155067D03*
D72*
X158496Y147066D03*
D73*
X158750Y155067D03*
D71*
X158750Y146939D03*
D74*
X159004Y146558D03*
D42*
X19685Y79502D03*
X19685Y79756D03*
X19685Y80010D03*
X19685Y80264D03*
X19685Y80518D03*
X19685Y80772D03*
X19685Y81026D03*
X19685Y81280D03*
X19685Y81534D03*
D73*
X161798Y154559D03*
D75*
X161798Y146812D03*
D42*
X19685Y81788D03*
D70*
X162052Y154559D03*
D76*
X162052Y146431D03*
D42*
X19685Y82042D03*
D77*
X162306Y154559D03*
D78*
X162306Y146304D03*
D42*
X19685Y82296D03*
D79*
X162560Y154559D03*
D80*
X162560Y146177D03*
D18*
X13335Y82550D03*
D11*
X19558Y82550D03*
D81*
X162814Y154686D03*
D80*
X162814Y146177D03*
D18*
X13335Y82804D03*
D11*
X19558Y82804D03*
D82*
X163068Y154559D03*
D83*
X163068Y146050D03*
D18*
X13335Y83058D03*
D11*
X19558Y83058D03*
D82*
X163322Y154559D03*
D83*
X163322Y146050D03*
D18*
X13335Y83312D03*
D11*
X19558Y83312D03*
D82*
X163576Y154559D03*
D83*
X163576Y146050D03*
D18*
X13335Y83566D03*
D11*
X19558Y83566D03*
D82*
X163830Y154559D03*
D83*
X163830Y146050D03*
D18*
X13335Y83820D03*
D11*
X19558Y83820D03*
D82*
X164084Y154559D03*
D83*
X164084Y146050D03*
D18*
X13335Y84074D03*
D11*
X19558Y84074D03*
D82*
X164338Y154559D03*
D83*
X164338Y146050D03*
D18*
X13335Y84328D03*
D11*
X19558Y84328D03*
D82*
X164592Y154559D03*
D83*
X164592Y146050D03*
D18*
X13335Y84582D03*
D11*
X19558Y84582D03*
D82*
X164846Y154559D03*
D66*
X164846Y144907D03*
D18*
X13335Y84836D03*
D11*
X19558Y84836D03*
D84*
X165100Y157734D03*
X165100Y151384D03*
X165100Y144780D03*
D18*
X13335Y85090D03*
D11*
X19558Y85090D03*
D84*
X165354Y157734D03*
X165354Y151384D03*
X165354Y144780D03*
D18*
X13335Y85344D03*
D11*
X19558Y85344D03*
D84*
X165608Y157734D03*
X165608Y151384D03*
X165608Y144780D03*
D18*
X13335Y85598D03*
D11*
X19558Y85598D03*
D84*
X165862Y157734D03*
X165862Y151384D03*
X165862Y144780D03*
D18*
X13335Y85852D03*
D11*
X19558Y85852D03*
D84*
X166116Y157734D03*
X166116Y151384D03*
X166116Y144780D03*
D18*
X13335Y86106D03*
D11*
X19558Y86106D03*
D84*
X166370Y157734D03*
X166370Y151384D03*
X166370Y144780D03*
D18*
X13335Y86360D03*
D11*
X19558Y86360D03*
D84*
X166624Y157734D03*
X166624Y151384D03*
X166624Y144780D03*
D18*
X13335Y86614D03*
D84*
X166878Y157734D03*
X166878Y151384D03*
X166878Y144780D03*
D18*
X13335Y86868D03*
D84*
X167132Y157734D03*
X167132Y151384D03*
X167132Y144780D03*
D18*
X13335Y87122D03*
D84*
X167386Y157734D03*
X167386Y151384D03*
X167386Y144780D03*
D18*
X13335Y87376D03*
D84*
X167640Y157734D03*
X167640Y151384D03*
X167640Y144780D03*
X167894Y157734D03*
X167894Y151384D03*
D66*
X167894Y144907D03*
D80*
X168148Y156591D03*
D85*
X168148Y148082D03*
D80*
X168402Y156591D03*
D85*
X168402Y148082D03*
D80*
X168656Y156591D03*
D85*
X168656Y148082D03*
D80*
X168910Y156591D03*
D85*
X168910Y148082D03*
D80*
X169164Y156591D03*
D85*
X169164Y148082D03*
D80*
X169418Y156591D03*
D85*
X169418Y148082D03*
D80*
X169672Y156591D03*
D85*
X169672Y148082D03*
D18*
X13335Y89662D03*
D80*
X169926Y156591D03*
D81*
X169926Y148082D03*
D18*
X13335Y89916D03*
D78*
X170180Y156464D03*
D81*
X170180Y148082D03*
D18*
X13335Y90170D03*
D76*
X170434Y156337D03*
D86*
X170434Y148082D03*
D18*
X13335Y90424D03*
D87*
X170688Y156210D03*
D70*
X170688Y148209D03*
D18*
X13335Y90678D03*
D75*
X170942Y155956D03*
D74*
X170942Y148082D03*
D18*
X13335Y90932D03*
X13335Y91186D03*
X13335Y91440D03*
X13335Y91694D03*
X13335Y91948D03*
X13335Y92202D03*
X13335Y92456D03*
X13335Y92710D03*
D66*
X172974Y157607D03*
D18*
X13335Y92964D03*
D66*
X173228Y157607D03*
D42*
X19685Y93218D03*
D66*
X173482Y157607D03*
D42*
X19685Y93472D03*
D66*
X173736Y157607D03*
D42*
X19685Y93726D03*
D66*
X173990Y157607D03*
D42*
X19685Y93980D03*
D66*
X174244Y157607D03*
D42*
X19685Y94234D03*
D66*
X174498Y157607D03*
D42*
X19685Y94488D03*
D66*
X174752Y157607D03*
D42*
X19685Y94742D03*
D66*
X175006Y157607D03*
D42*
X19685Y94996D03*
D66*
X175260Y157607D03*
D42*
X19685Y95250D03*
D66*
X175514Y157607D03*
D42*
X19685Y95504D03*
D66*
X175768Y157607D03*
D42*
X19685Y95758D03*
D66*
X176022Y157607D03*
D42*
X19685Y96012D03*
D66*
X176276Y157607D03*
D18*
X13335Y96266D03*
D68*
X176530Y151257D03*
D18*
X13335Y96520D03*
D68*
X176784Y151257D03*
D18*
X13335Y96774D03*
D68*
X177038Y151257D03*
D18*
X13335Y97028D03*
D68*
X177292Y151257D03*
D18*
X13335Y97282D03*
D68*
X177546Y151257D03*
D18*
X13335Y97536D03*
D68*
X177800Y151257D03*
D18*
X13335Y97790D03*
D68*
X178054Y151257D03*
D18*
X13335Y98044D03*
D68*
X178308Y151257D03*
D18*
X13335Y98298D03*
D68*
X178562Y151257D03*
D18*
X13335Y98552D03*
D68*
X178816Y151257D03*
D18*
X13335Y98806D03*
D68*
X179070Y151257D03*
D18*
X13335Y99060D03*
D68*
X179324Y151257D03*
D18*
X13335Y99314D03*
D66*
X179578Y157607D03*
D18*
X13335Y99568D03*
D66*
X179832Y157607D03*
X180086Y157607D03*
X180340Y157607D03*
X180594Y157607D03*
X180848Y157607D03*
X181102Y157607D03*
X181356Y157607D03*
X181610Y157607D03*
D42*
X19685Y101600D03*
D66*
X181864Y157607D03*
D25*
X19558Y101854D03*
D66*
X182118Y157607D03*
D25*
X19558Y102108D03*
D66*
X182372Y157607D03*
D25*
X19558Y102362D03*
D66*
X182626Y157607D03*
D25*
X19558Y102616D03*
D84*
X182880Y157734D03*
D25*
X19558Y102870D03*
X19558Y103124D03*
X19558Y103378D03*
X19558Y103632D03*
X19558Y103886D03*
X19558Y104140D03*
X19558Y104394D03*
X19558Y104648D03*
D18*
X13081Y104902D03*
D24*
X25908Y104902D03*
D18*
X13081Y105156D03*
D24*
X25908Y105156D03*
D18*
X13081Y105410D03*
D24*
X25908Y105410D03*
D18*
X13081Y105664D03*
D24*
X25908Y105664D03*
D18*
X13081Y105918D03*
D24*
X25908Y105918D03*
D18*
X13081Y106172D03*
D24*
X25908Y106172D03*
D18*
X13081Y106426D03*
D24*
X25908Y106426D03*
D18*
X13081Y106680D03*
D24*
X25908Y106680D03*
D18*
X13081Y106934D03*
D24*
X25908Y106934D03*
D18*
X13081Y107188D03*
D24*
X25908Y107188D03*
D18*
X13081Y107442D03*
D24*
X25908Y107442D03*
D25*
X19558Y107696D03*
X19558Y107950D03*
X19558Y108204D03*
X19558Y108458D03*
X19558Y108712D03*
X19558Y108966D03*
D42*
X19685Y109220D03*
D38*
X19558Y109474D03*
D36*
X19685Y109728D03*
D47*
X19558Y109982D03*
D60*
X19558Y110236D03*
D88*
X19685Y110490D03*
D68*
X80264Y152273D03*
X80518Y152273D03*
X80772Y152273D03*
X81026Y152273D03*
X81280Y152273D03*
X81534Y152273D03*
X81788Y152273D03*
X82042Y152273D03*
X82296Y152273D03*
X82550Y152273D03*
X82804Y152273D03*
X83058Y152273D03*
D42*
X19685Y113792D03*
X19685Y114046D03*
X19685Y114300D03*
X19685Y114554D03*
X19685Y114808D03*
X19685Y115062D03*
X19685Y115316D03*
X19685Y115570D03*
X19685Y115824D03*
X19685Y116078D03*
X19685Y116332D03*
X19685Y116586D03*
D89*
X86106Y152400D03*
D42*
X19685Y116840D03*
D90*
X86360Y152400D03*
D91*
X86614Y152273D03*
D92*
X86868Y152400D03*
D93*
X87122Y152400D03*
X87376Y152400D03*
D65*
X87630Y152400D03*
X87884Y152400D03*
X88138Y152400D03*
X88392Y152400D03*
X88646Y152400D03*
X88900Y152400D03*
D66*
X89154Y158877D03*
D94*
X89154Y146177D03*
D66*
X89408Y158877D03*
D95*
X89408Y146050D03*
D66*
X89662Y158877D03*
D95*
X89662Y146050D03*
D66*
X89916Y158877D03*
D95*
X89916Y146050D03*
D66*
X90170Y158877D03*
D95*
X90170Y146050D03*
D66*
X90424Y158877D03*
D95*
X90424Y146050D03*
D66*
X90678Y158877D03*
D95*
X90678Y146050D03*
D66*
X90932Y158877D03*
D95*
X90932Y146050D03*
D66*
X91186Y158877D03*
D95*
X91186Y146050D03*
D66*
X91440Y158877D03*
D95*
X91440Y146050D03*
D66*
X91694Y158877D03*
D95*
X91694Y146050D03*
D66*
X91948Y158877D03*
D95*
X91948Y146050D03*
D65*
X92202Y152400D03*
X92456Y152400D03*
X92710Y152400D03*
X92964Y152400D03*
X93218Y152400D03*
X93472Y152400D03*
D93*
X93726Y152400D03*
X93980Y152400D03*
D96*
X94234Y152273D03*
D92*
X94488Y152400D03*
D97*
X94742Y152273D03*
D98*
X94996Y152400D03*
D99*
X98044Y152273D03*
D100*
X98298Y152400D03*
D92*
X98552Y152400D03*
D93*
X98806Y152400D03*
X99060Y152400D03*
D68*
X99314Y152273D03*
D65*
X99568Y152400D03*
X99822Y152400D03*
X100076Y152400D03*
X100330Y152400D03*
X100584Y152400D03*
X100838Y152400D03*
D66*
X101092Y158877D03*
D73*
X101092Y147701D03*
D66*
X101346Y158877D03*
D101*
X101346Y147828D03*
D66*
X101600Y158877D03*
D72*
X101600Y148082D03*
D66*
X101854Y158877D03*
D69*
X101854Y148336D03*
D66*
X102108Y158877D03*
D86*
X102108Y148590D03*
D66*
X102362Y158877D03*
D81*
X102362Y148844D03*
D66*
X102616Y158877D03*
D85*
X102616Y149098D03*
D66*
X102870Y158877D03*
D102*
X102870Y151257D03*
D95*
X102870Y146050D03*
D66*
X103124Y158877D03*
D102*
X103124Y151765D03*
D95*
X103124Y146050D03*
D66*
X103378Y158877D03*
D102*
X103378Y152273D03*
D95*
X103378Y146050D03*
D66*
X103632Y158877D03*
D103*
X103632Y152654D03*
D95*
X103632Y146050D03*
D66*
X103886Y158877D03*
D103*
X103886Y153162D03*
D95*
X103886Y146050D03*
D66*
X104140Y158877D03*
D103*
X104140Y153670D03*
D95*
X104140Y146050D03*
D66*
X104394Y158877D03*
D103*
X104394Y154178D03*
D95*
X104394Y146050D03*
D81*
X104648Y155956D03*
D95*
X104648Y146050D03*
D86*
X104902Y156210D03*
D95*
X104902Y146050D03*
D65*
X105156Y152400D03*
X105410Y152400D03*
X105664Y152400D03*
X105918Y152400D03*
X106172Y152400D03*
X106426Y152400D03*
D93*
X106680Y152400D03*
X106934Y152400D03*
D96*
X107188Y152273D03*
D92*
X107442Y152400D03*
D97*
X107696Y152273D03*
D98*
X107950Y152400D03*
D36*
X501777Y242316D03*
X501777Y242570D03*
X501777Y242824D03*
X501777Y243078D03*
X501777Y243332D03*
X501777Y243586D03*
X501777Y243840D03*
X501777Y244094D03*
X501777Y244348D03*
X501777Y244602D03*
X501777Y244856D03*
D18*
X495681Y245110D03*
X501523Y245110D03*
D11*
X495554Y245364D03*
X501650Y245364D03*
X495554Y245618D03*
X501650Y245618D03*
X495554Y245872D03*
X501650Y245872D03*
X495554Y246126D03*
X501650Y246126D03*
X495554Y246380D03*
X501650Y246380D03*
X495554Y246634D03*
X501650Y246634D03*
X495554Y246888D03*
X501650Y246888D03*
X495554Y247142D03*
X501650Y247142D03*
X495554Y247396D03*
X501650Y247396D03*
X495554Y247650D03*
X501650Y247650D03*
X495554Y247904D03*
X501650Y247904D03*
X495554Y248158D03*
X501650Y248158D03*
X495554Y248412D03*
X501650Y248412D03*
X495554Y248666D03*
X501650Y248666D03*
X495554Y248920D03*
X501650Y248920D03*
X495554Y249174D03*
X495554Y249428D03*
X495554Y249682D03*
X495554Y249936D03*
D36*
X501777Y252984D03*
X501777Y253238D03*
X501777Y253492D03*
X501777Y253746D03*
X501777Y254000D03*
X501777Y254254D03*
X501777Y254508D03*
X501777Y254762D03*
X501777Y255016D03*
X501777Y255270D03*
X501777Y255524D03*
D18*
X507873Y255778D03*
X507873Y256032D03*
X507873Y256286D03*
X507873Y256540D03*
X507873Y256794D03*
X507873Y257048D03*
X507873Y257302D03*
X507873Y257556D03*
X507873Y257810D03*
X507873Y258064D03*
X507873Y258318D03*
X507873Y258572D03*
X507873Y258826D03*
X507873Y259080D03*
X507873Y259334D03*
X507873Y259588D03*
X507873Y259842D03*
D88*
X501015Y262382D03*
D27*
X501269Y262636D03*
D60*
X501396Y262890D03*
D10*
X177673Y260096D03*
D33*
X501523Y263144D03*
D10*
X177673Y260350D03*
D47*
X501650Y263398D03*
D10*
X177673Y260604D03*
D47*
X501650Y263652D03*
D10*
X177673Y260858D03*
D47*
X501650Y263906D03*
D10*
X177673Y261112D03*
D36*
X501777Y264160D03*
D10*
X177673Y261366D03*
D36*
X501777Y264414D03*
D10*
X177673Y261620D03*
D36*
X501777Y264668D03*
D10*
X177673Y261874D03*
D36*
X501777Y264922D03*
D10*
X177673Y262128D03*
D36*
X501777Y265176D03*
D10*
X177673Y262382D03*
D24*
X507746Y265430D03*
D10*
X177673Y262636D03*
D24*
X507746Y265684D03*
D10*
X177673Y262890D03*
D24*
X507746Y265938D03*
D10*
X177673Y263144D03*
D24*
X507746Y266192D03*
D10*
X177673Y263398D03*
D24*
X507746Y266446D03*
D10*
X177673Y263652D03*
D24*
X507746Y266700D03*
D10*
X177673Y263906D03*
D24*
X507746Y266954D03*
D11*
X177800Y264160D03*
D24*
X507746Y267208D03*
D35*
X153670Y264414D03*
D50*
X177673Y264414D03*
D24*
X507746Y267462D03*
D35*
X153670Y264668D03*
D50*
X177673Y264668D03*
D24*
X507746Y267716D03*
D35*
X153670Y264922D03*
D50*
X177673Y264922D03*
D24*
X507746Y267970D03*
D35*
X153670Y265176D03*
D50*
X177673Y265176D03*
D24*
X507746Y268224D03*
D35*
X153670Y265430D03*
D50*
X177673Y265430D03*
D24*
X507746Y268478D03*
D35*
X153670Y265684D03*
D50*
X177673Y265684D03*
D36*
X501777Y268732D03*
D35*
X153670Y265938D03*
D50*
X177673Y265938D03*
D36*
X501777Y268986D03*
D35*
X153670Y266192D03*
D50*
X177673Y266192D03*
D36*
X501777Y269240D03*
D35*
X153670Y266446D03*
D50*
X177673Y266446D03*
D36*
X501777Y269494D03*
D35*
X153670Y266700D03*
D50*
X177673Y260350D03*
D36*
X501777Y269748D03*
D35*
X153670Y266954D03*
D10*
X177673Y266954D03*
D47*
X501650Y270002D03*
D10*
X177673Y267208D03*
D47*
X501650Y270256D03*
D10*
X177673Y267462D03*
D47*
X501650Y270510D03*
D10*
X177673Y267716D03*
D33*
X501523Y270764D03*
D10*
X177673Y267970D03*
D60*
X501396Y271018D03*
D10*
X177673Y268224D03*
D27*
X501269Y271272D03*
D10*
X177673Y268478D03*
D104*
X500888Y271526D03*
D10*
X177673Y268732D03*
X177673Y268986D03*
X177673Y269240D03*
X177673Y269494D03*
X177673Y269748D03*
D105*
X230124Y269748D03*
D10*
X177673Y270002D03*
D105*
X230124Y270002D03*
D10*
X177673Y270256D03*
D105*
X230124Y270256D03*
D13*
X509270Y273304D03*
D10*
X177673Y270510D03*
D105*
X230124Y270510D03*
D106*
X509016Y273558D03*
D10*
X177673Y270764D03*
D105*
X230124Y270764D03*
D63*
X494411Y273812D03*
D107*
X508762Y273812D03*
D10*
X177673Y271018D03*
D105*
X230124Y271018D03*
D108*
X494665Y274066D03*
D14*
X508508Y274066D03*
D105*
X230124Y271272D03*
D61*
X494919Y274320D03*
D12*
X508254Y274320D03*
D105*
X230124Y271526D03*
D109*
X495173Y274574D03*
D11*
X508000Y274574D03*
D105*
X230124Y271780D03*
D10*
X495427Y274828D03*
D24*
X507746Y274828D03*
D105*
X230124Y272034D03*
D18*
X495681Y275082D03*
D54*
X507619Y275082D03*
D24*
X495808Y275336D03*
D15*
X507365Y275336D03*
D22*
X496062Y275590D03*
D28*
X507111Y275590D03*
D30*
X496316Y275844D03*
D16*
X506857Y275844D03*
D34*
X496570Y276098D03*
D43*
X506603Y276098D03*
D39*
X496824Y276352D03*
D57*
X506349Y276352D03*
D46*
X497078Y276606D03*
D17*
X505968Y276606D03*
X497332Y276860D03*
D57*
X505587Y276860D03*
D58*
X497586Y277114D03*
D57*
X505079Y277114D03*
D20*
X501142Y277368D03*
D37*
X501142Y277622D03*
D35*
X501142Y277876D03*
D51*
X501142Y278130D03*
D40*
X501142Y278384D03*
D23*
X501142Y278638D03*
D58*
X501142Y278892D03*
D18*
X202565Y276098D03*
D12*
X207772Y276098D03*
D24*
X213614Y276098D03*
D18*
X220091Y276098D03*
X244221Y276098D03*
D48*
X501523Y279146D03*
D18*
X202565Y276352D03*
D10*
X207899Y276352D03*
D24*
X213614Y276352D03*
X219964Y276352D03*
D48*
X229235Y276352D03*
D24*
X244094Y276352D03*
D11*
X249936Y276352D03*
X257048Y276352D03*
D23*
X501650Y279400D03*
D18*
X202565Y276606D03*
D10*
X207899Y276606D03*
D24*
X213614Y276606D03*
X219964Y276606D03*
D23*
X229108Y276606D03*
D24*
X244094Y276606D03*
D11*
X249936Y276606D03*
D18*
X256921Y276606D03*
D40*
X501650Y279654D03*
D18*
X202565Y276860D03*
D10*
X207899Y276860D03*
D24*
X213614Y276860D03*
X219964Y276860D03*
D31*
X229108Y276860D03*
D24*
X244094Y276860D03*
D11*
X249936Y276860D03*
D18*
X256921Y276860D03*
D45*
X501777Y279908D03*
D18*
X202565Y277114D03*
D11*
X207772Y277114D03*
D24*
X213614Y277114D03*
X219964Y277114D03*
D26*
X229235Y277114D03*
D24*
X244094Y277114D03*
D11*
X249936Y277114D03*
D24*
X256794Y277114D03*
D50*
X501777Y280162D03*
D18*
X202565Y277368D03*
X207899Y277368D03*
D24*
X213614Y277368D03*
X219964Y277368D03*
D40*
X229108Y277368D03*
D24*
X244094Y277368D03*
D11*
X249936Y277368D03*
D24*
X256794Y277368D03*
D52*
X501777Y280416D03*
D18*
X202565Y277622D03*
X207899Y277622D03*
D24*
X213614Y277622D03*
X219964Y277622D03*
D49*
X229235Y277622D03*
D24*
X244094Y277622D03*
D11*
X249936Y277622D03*
D54*
X256667Y277622D03*
D104*
X501904Y280670D03*
D18*
X202565Y277876D03*
X207899Y277876D03*
D24*
X213614Y277876D03*
X219964Y277876D03*
D49*
X229235Y277876D03*
D24*
X244094Y277876D03*
D11*
X249936Y277876D03*
D54*
X256667Y277876D03*
D57*
X497713Y280924D03*
D19*
X505460Y280924D03*
D18*
X202565Y278130D03*
X207899Y278130D03*
D24*
X213614Y278130D03*
X219964Y278130D03*
D49*
X229235Y278130D03*
D24*
X244094Y278130D03*
D11*
X249936Y278130D03*
D22*
X256540Y278130D03*
D57*
X497205Y281178D03*
D48*
X505841Y281178D03*
D18*
X202565Y278384D03*
D54*
X207899Y278384D03*
D24*
X213614Y278384D03*
X219964Y278384D03*
D49*
X229235Y278384D03*
D24*
X244094Y278384D03*
D11*
X249936Y278384D03*
D22*
X256540Y278384D03*
D46*
X497078Y281432D03*
D59*
X506095Y281432D03*
D18*
X202565Y278638D03*
D54*
X207899Y278638D03*
D24*
X213614Y278638D03*
X219964Y278638D03*
D49*
X229235Y278638D03*
D24*
X244094Y278638D03*
D11*
X249936Y278638D03*
D15*
X256413Y278638D03*
D39*
X496824Y281686D03*
D57*
X506349Y281686D03*
D18*
X202565Y278892D03*
D54*
X207899Y278892D03*
D24*
X213614Y278892D03*
X219964Y278892D03*
D49*
X229235Y278892D03*
D24*
X244094Y278892D03*
D11*
X249936Y278892D03*
D15*
X256413Y278892D03*
D34*
X496570Y281940D03*
D43*
X506603Y281940D03*
D18*
X202565Y279146D03*
D54*
X207899Y279146D03*
D24*
X213614Y279146D03*
X219964Y279146D03*
D18*
X226187Y279146D03*
X232283Y279146D03*
D24*
X244094Y279146D03*
D11*
X249936Y279146D03*
D30*
X256286Y279146D03*
X496316Y282194D03*
D16*
X506857Y282194D03*
D18*
X202565Y279400D03*
D15*
X207899Y279400D03*
D24*
X213614Y279400D03*
X219964Y279400D03*
D18*
X226187Y279400D03*
X232283Y279400D03*
D24*
X244094Y279400D03*
D11*
X249936Y279400D03*
D30*
X256286Y279400D03*
D15*
X496189Y282448D03*
D28*
X507111Y282448D03*
D18*
X202565Y279654D03*
D15*
X207899Y279654D03*
D24*
X213614Y279654D03*
X219964Y279654D03*
D18*
X226187Y279654D03*
X232283Y279654D03*
D24*
X244094Y279654D03*
D11*
X249936Y279654D03*
D28*
X256159Y279654D03*
D54*
X495935Y282702D03*
D15*
X507365Y282702D03*
D18*
X202565Y279908D03*
D15*
X207899Y279908D03*
D24*
X213614Y279908D03*
X219964Y279908D03*
D18*
X226187Y279908D03*
X232283Y279908D03*
D24*
X244094Y279908D03*
D11*
X249936Y279908D03*
D28*
X256159Y279908D03*
D18*
X495681Y282956D03*
D54*
X507619Y282956D03*
D18*
X202565Y280162D03*
D15*
X207899Y280162D03*
D24*
X213614Y280162D03*
X219964Y280162D03*
D18*
X226187Y280162D03*
X232283Y280162D03*
D24*
X244094Y280162D03*
D11*
X249936Y280162D03*
D34*
X256032Y280162D03*
D10*
X495427Y283210D03*
D18*
X507873Y283210D03*
X202565Y280416D03*
D30*
X208026Y280416D03*
D24*
X213614Y280416D03*
X219964Y280416D03*
D18*
X226187Y280416D03*
X232283Y280416D03*
D24*
X244094Y280416D03*
D11*
X249936Y280416D03*
D34*
X256032Y280416D03*
D109*
X495173Y283464D03*
D10*
X508127Y283464D03*
D18*
X202565Y280670D03*
D28*
X207899Y280670D03*
D24*
X213614Y280670D03*
X219964Y280670D03*
D18*
X226187Y280670D03*
X232283Y280670D03*
D24*
X244094Y280670D03*
D11*
X249936Y280670D03*
D16*
X255905Y280670D03*
D14*
X495046Y283718D03*
D109*
X508381Y283718D03*
D18*
X202565Y280924D03*
D28*
X207899Y280924D03*
D24*
X213614Y280924D03*
X219964Y280924D03*
D18*
X226187Y280924D03*
X232283Y280924D03*
D24*
X244094Y280924D03*
D11*
X249936Y280924D03*
D16*
X255905Y280924D03*
D107*
X494792Y283972D03*
D61*
X508635Y283972D03*
D18*
X202565Y281178D03*
D28*
X207899Y281178D03*
D24*
X213614Y281178D03*
X219964Y281178D03*
D18*
X226187Y281178D03*
X232283Y281178D03*
D24*
X244094Y281178D03*
D11*
X249936Y281178D03*
D16*
X255905Y281178D03*
D106*
X494538Y284226D03*
D108*
X508889Y284226D03*
D18*
X202565Y281432D03*
D34*
X208026Y281432D03*
D24*
X213614Y281432D03*
X219964Y281432D03*
D18*
X226187Y281432D03*
X232283Y281432D03*
D24*
X244094Y281432D03*
D11*
X249936Y281432D03*
D39*
X255778Y281432D03*
D13*
X494284Y284480D03*
D63*
X509143Y284480D03*
D18*
X202565Y281686D03*
D34*
X208026Y281686D03*
D24*
X213614Y281686D03*
X219964Y281686D03*
D18*
X226187Y281686D03*
X232283Y281686D03*
D24*
X244094Y281686D03*
D11*
X249936Y281686D03*
D39*
X255778Y281686D03*
D18*
X202565Y281940D03*
D16*
X207899Y281940D03*
D24*
X213614Y281940D03*
X219964Y281940D03*
D18*
X226187Y281940D03*
D24*
X244094Y281940D03*
D11*
X249936Y281940D03*
D43*
X255651Y281940D03*
D18*
X202565Y282194D03*
D16*
X207899Y282194D03*
D24*
X213614Y282194D03*
X219964Y282194D03*
D18*
X226187Y282194D03*
D24*
X244094Y282194D03*
D11*
X249936Y282194D03*
D43*
X255651Y282194D03*
D18*
X202565Y282448D03*
D39*
X208026Y282448D03*
D24*
X213614Y282448D03*
X219964Y282448D03*
D18*
X226187Y282448D03*
D24*
X244094Y282448D03*
D11*
X249936Y282448D03*
D46*
X255524Y282448D03*
D18*
X202565Y282702D03*
D39*
X208026Y282702D03*
D24*
X213614Y282702D03*
X219964Y282702D03*
D18*
X226187Y282702D03*
D24*
X244094Y282702D03*
D11*
X249936Y282702D03*
D46*
X255524Y282702D03*
D18*
X202565Y282956D03*
D39*
X208026Y282956D03*
D24*
X213614Y282956D03*
X219964Y282956D03*
D18*
X226187Y282956D03*
D24*
X244094Y282956D03*
D11*
X249936Y282956D03*
D57*
X255397Y282956D03*
D18*
X202565Y283210D03*
X206629Y283210D03*
D12*
X209550Y283210D03*
D24*
X213614Y283210D03*
X219964Y283210D03*
D18*
X226187Y283210D03*
D24*
X244094Y283210D03*
D11*
X249936Y283210D03*
D57*
X255397Y283210D03*
D18*
X202565Y283464D03*
X206629Y283464D03*
D10*
X209677Y283464D03*
D24*
X213614Y283464D03*
X219964Y283464D03*
D18*
X226187Y283464D03*
D24*
X244094Y283464D03*
D11*
X249936Y283464D03*
D17*
X255270Y283464D03*
D104*
X502412Y286512D03*
D18*
X202565Y283718D03*
X206629Y283718D03*
D10*
X209677Y283718D03*
D24*
X213614Y283718D03*
X219964Y283718D03*
D18*
X226187Y283718D03*
D24*
X244094Y283718D03*
D11*
X249936Y283718D03*
D24*
X253746Y283718D03*
D11*
X257048Y283718D03*
D60*
X502158Y286766D03*
D18*
X202565Y283972D03*
X206629Y283972D03*
D12*
X209804Y283972D03*
D24*
X213614Y283972D03*
X219964Y283972D03*
D18*
X226187Y283972D03*
D24*
X244094Y283972D03*
D11*
X249936Y283972D03*
D54*
X253619Y283972D03*
D11*
X257048Y283972D03*
D33*
X502031Y287020D03*
D18*
X202565Y284226D03*
X206629Y284226D03*
D12*
X209804Y284226D03*
D24*
X213614Y284226D03*
X219964Y284226D03*
D18*
X226187Y284226D03*
D24*
X244094Y284226D03*
D11*
X249936Y284226D03*
D24*
X253492Y284226D03*
D11*
X257048Y284226D03*
D47*
X501904Y287274D03*
D18*
X202565Y284480D03*
X206375Y284480D03*
D12*
X209804Y284480D03*
D24*
X213614Y284480D03*
X219964Y284480D03*
D18*
X226187Y284480D03*
D24*
X244094Y284480D03*
D11*
X249936Y284480D03*
D54*
X253365Y284480D03*
D11*
X257048Y284480D03*
D47*
X501904Y287528D03*
D18*
X202565Y284734D03*
X206375Y284734D03*
D10*
X209931Y284734D03*
D24*
X213614Y284734D03*
X219964Y284734D03*
D18*
X226187Y284734D03*
D24*
X244094Y284734D03*
D11*
X249936Y284734D03*
D24*
X253238Y284734D03*
D11*
X257048Y284734D03*
D36*
X501777Y287782D03*
D18*
X202565Y284988D03*
X206375Y284988D03*
D10*
X209931Y284988D03*
D24*
X213614Y284988D03*
X219964Y284988D03*
D18*
X226187Y284988D03*
D24*
X244094Y284988D03*
D17*
X251714Y284988D03*
D11*
X257048Y284988D03*
D36*
X501777Y288036D03*
D18*
X202565Y285242D03*
X206375Y285242D03*
D12*
X210058Y285242D03*
D24*
X213614Y285242D03*
X219964Y285242D03*
D18*
X226187Y285242D03*
D24*
X244094Y285242D03*
D57*
X251587Y285242D03*
D11*
X257048Y285242D03*
D36*
X501777Y288290D03*
D18*
X202565Y285496D03*
D24*
X206248Y285496D03*
D12*
X210058Y285496D03*
D24*
X213614Y285496D03*
X219964Y285496D03*
D18*
X226187Y285496D03*
D24*
X244094Y285496D03*
D57*
X251587Y285496D03*
D11*
X257048Y285496D03*
D36*
X501777Y288544D03*
D18*
X202565Y285750D03*
X206121Y285750D03*
D10*
X210185Y285750D03*
D24*
X213614Y285750D03*
X219964Y285750D03*
D18*
X226187Y285750D03*
D24*
X244094Y285750D03*
D46*
X251460Y285750D03*
D11*
X257048Y285750D03*
D36*
X501777Y288798D03*
D18*
X202565Y286004D03*
X206121Y286004D03*
D10*
X210185Y286004D03*
D24*
X213614Y286004D03*
X219964Y286004D03*
D18*
X226187Y286004D03*
D24*
X244094Y286004D03*
D46*
X251460Y286004D03*
D11*
X257048Y286004D03*
D36*
X501777Y289052D03*
D18*
X202565Y286258D03*
X206121Y286258D03*
D10*
X210185Y286258D03*
D24*
X213614Y286258D03*
X219964Y286258D03*
D18*
X226187Y286258D03*
D24*
X244094Y286258D03*
D43*
X251333Y286258D03*
D11*
X257048Y286258D03*
D36*
X501777Y289306D03*
D18*
X202565Y286512D03*
X206121Y286512D03*
D12*
X210312Y286512D03*
D24*
X213614Y286512D03*
X219964Y286512D03*
D18*
X226187Y286512D03*
X232283Y286512D03*
D24*
X244094Y286512D03*
D43*
X251333Y286512D03*
D11*
X257048Y286512D03*
D10*
X495427Y289560D03*
D18*
X502539Y289560D03*
X202565Y286766D03*
D24*
X205994Y286766D03*
D10*
X210439Y286766D03*
D24*
X213614Y286766D03*
X219964Y286766D03*
D18*
X226187Y286766D03*
X232283Y286766D03*
D24*
X244094Y286766D03*
D39*
X251206Y286766D03*
D11*
X257048Y286766D03*
D10*
X495427Y289814D03*
D18*
X502539Y289814D03*
X202565Y287020D03*
X205867Y287020D03*
D10*
X210439Y287020D03*
D24*
X213614Y287020D03*
X219964Y287020D03*
D18*
X226187Y287020D03*
X232283Y287020D03*
D24*
X244094Y287020D03*
D39*
X251206Y287020D03*
D11*
X257048Y287020D03*
D10*
X495427Y290068D03*
D18*
X502539Y290068D03*
X202565Y287274D03*
X205867Y287274D03*
D10*
X210439Y287274D03*
D24*
X213614Y287274D03*
X219964Y287274D03*
D18*
X226187Y287274D03*
X232283Y287274D03*
D24*
X244094Y287274D03*
D39*
X251206Y287274D03*
D11*
X257048Y287274D03*
D10*
X495427Y290322D03*
D18*
X502539Y290322D03*
X202565Y287528D03*
X205867Y287528D03*
D57*
X212217Y287528D03*
D24*
X219964Y287528D03*
D18*
X226187Y287528D03*
X232283Y287528D03*
D24*
X244094Y287528D03*
D16*
X251079Y287528D03*
D11*
X257048Y287528D03*
D10*
X495427Y290576D03*
D18*
X502539Y290576D03*
D17*
X204216Y287782D03*
D46*
X212344Y287782D03*
D24*
X219964Y287782D03*
D18*
X226187Y287782D03*
X232283Y287782D03*
D24*
X244094Y287782D03*
D16*
X251079Y287782D03*
D11*
X257048Y287782D03*
D10*
X495427Y290830D03*
D18*
X502539Y290830D03*
D57*
X204089Y288036D03*
D46*
X212344Y288036D03*
D24*
X219964Y288036D03*
D18*
X226187Y288036D03*
X232283Y288036D03*
D24*
X244094Y288036D03*
D34*
X250952Y288036D03*
D11*
X257048Y288036D03*
D10*
X495427Y291084D03*
D18*
X502539Y291084D03*
D57*
X204089Y288290D03*
D46*
X212344Y288290D03*
D24*
X219964Y288290D03*
D18*
X226187Y288290D03*
X232283Y288290D03*
D24*
X244094Y288290D03*
D34*
X250952Y288290D03*
D11*
X257048Y288290D03*
D10*
X495427Y291338D03*
D18*
X502539Y291338D03*
D57*
X204089Y288544D03*
D46*
X212344Y288544D03*
D24*
X219964Y288544D03*
D18*
X226187Y288544D03*
X232283Y288544D03*
D24*
X244094Y288544D03*
D28*
X250825Y288544D03*
D11*
X257048Y288544D03*
D10*
X495427Y291592D03*
D18*
X502539Y291592D03*
D57*
X204089Y288798D03*
D46*
X212344Y288798D03*
D24*
X219964Y288798D03*
D18*
X226187Y288798D03*
X232283Y288798D03*
D24*
X244094Y288798D03*
D28*
X250825Y288798D03*
D11*
X257048Y288798D03*
D10*
X495427Y291846D03*
D18*
X502539Y291846D03*
D57*
X204089Y289052D03*
D46*
X212344Y289052D03*
D24*
X219964Y289052D03*
D49*
X229235Y289052D03*
D24*
X244094Y289052D03*
D30*
X250698Y289052D03*
D11*
X257048Y289052D03*
D10*
X495427Y292100D03*
D18*
X502539Y292100D03*
D46*
X203962Y289306D03*
D43*
X212471Y289306D03*
D24*
X219964Y289306D03*
D49*
X229235Y289306D03*
D24*
X244094Y289306D03*
D30*
X250698Y289306D03*
D11*
X257048Y289306D03*
D36*
X501777Y292354D03*
D46*
X203962Y289560D03*
D43*
X212471Y289560D03*
D24*
X219964Y289560D03*
D49*
X229235Y289560D03*
D24*
X244094Y289560D03*
D15*
X250571Y289560D03*
D11*
X257048Y289560D03*
D36*
X501777Y292608D03*
D46*
X203962Y289814D03*
D43*
X212471Y289814D03*
D24*
X219964Y289814D03*
D49*
X229235Y289814D03*
D24*
X244094Y289814D03*
D15*
X250571Y289814D03*
D11*
X257048Y289814D03*
D36*
X501777Y292862D03*
D46*
X203962Y290068D03*
D43*
X212471Y290068D03*
D24*
X219964Y290068D03*
D49*
X229235Y290068D03*
D24*
X244094Y290068D03*
D22*
X250444Y290068D03*
D11*
X257048Y290068D03*
D36*
X501777Y293116D03*
D46*
X203962Y290322D03*
D43*
X212471Y290322D03*
D24*
X219964Y290322D03*
D49*
X229235Y290322D03*
D24*
X244094Y290322D03*
D22*
X250444Y290322D03*
D11*
X257048Y290322D03*
D36*
X501777Y293370D03*
D43*
X203835Y290576D03*
D39*
X212598Y290576D03*
D24*
X219964Y290576D03*
D40*
X229108Y290576D03*
D24*
X244094Y290576D03*
D54*
X250317Y290576D03*
D11*
X257048Y290576D03*
D36*
X501777Y293624D03*
D43*
X203835Y290830D03*
D39*
X212598Y290830D03*
D24*
X219964Y290830D03*
D40*
X229108Y290830D03*
D24*
X244094Y290830D03*
D54*
X250317Y290830D03*
D11*
X257048Y290830D03*
D36*
X501777Y293878D03*
D43*
X203835Y291084D03*
D39*
X212598Y291084D03*
D24*
X219964Y291084D03*
D31*
X229108Y291084D03*
D24*
X244094Y291084D03*
X250190Y291084D03*
D11*
X257048Y291084D03*
D36*
X501777Y294132D03*
D43*
X203835Y291338D03*
D39*
X212598Y291338D03*
D24*
X219964Y291338D03*
D29*
X229235Y291338D03*
D24*
X244094Y291338D03*
X250190Y291338D03*
D11*
X257048Y291338D03*
D47*
X501904Y294386D03*
D43*
X203835Y291592D03*
D39*
X212598Y291592D03*
D24*
X219964Y291592D03*
D19*
X229108Y291592D03*
D24*
X244094Y291592D03*
D18*
X250063Y291592D03*
D11*
X257048Y291592D03*
D47*
X501904Y294640D03*
D39*
X203708Y291846D03*
D16*
X212725Y291846D03*
D18*
X220091Y291846D03*
D59*
X229235Y291846D03*
D18*
X244221Y291846D03*
X250063Y291846D03*
D11*
X257048Y291846D03*
D60*
X502158Y294894D03*
D27*
X502285Y295148D03*
D47*
X501650Y297688D03*
D38*
X501650Y297942D03*
X501650Y298196D03*
X501650Y298450D03*
X501650Y298704D03*
X501650Y298958D03*
X501650Y299212D03*
X501650Y299466D03*
X501650Y299720D03*
X501650Y299974D03*
X501650Y300228D03*
X501650Y300482D03*
D30*
X496062Y300736D03*
D39*
X496570Y300990D03*
D59*
X497205Y301244D03*
D23*
X497840Y301498D03*
D49*
X498475Y301752D03*
D56*
X499110Y302006D03*
D44*
X499745Y302260D03*
D110*
X500253Y302514D03*
D88*
X501015Y302768D03*
D27*
X502031Y303022D03*
D41*
X502793Y303276D03*
D37*
X503428Y303530D03*
D35*
X503936Y303784D03*
D32*
X504571Y304038D03*
D31*
X505206Y304292D03*
D48*
X505841Y304546D03*
D19*
X505714Y304800D03*
D26*
X505079Y305054D03*
D32*
X504317Y305308D03*
D51*
X503174Y305562D03*
D45*
X502031Y305816D03*
D56*
X500888Y306070D03*
D35*
X499618Y306324D03*
D45*
X498983Y306578D03*
D49*
X498475Y306832D03*
D29*
X497967Y307086D03*
D48*
X497459Y307340D03*
D57*
X496951Y307594D03*
D16*
X496443Y307848D03*
D30*
X496062Y308102D03*
D38*
X501650Y308356D03*
X501650Y308610D03*
X501650Y308864D03*
X501650Y309118D03*
X501650Y309372D03*
X501650Y309626D03*
X501650Y309880D03*
X501650Y310134D03*
X501650Y310388D03*
X501650Y310642D03*
X501650Y310896D03*
X501650Y311150D03*
D47*
X501650Y311404D03*
D62*
X502412Y314452D03*
D60*
X502158Y314706D03*
D33*
X502031Y314960D03*
D47*
X501904Y315214D03*
D36*
X501777Y315468D03*
X501777Y315722D03*
X501777Y315976D03*
X501777Y316230D03*
X501777Y316484D03*
X501777Y316738D03*
X501777Y316992D03*
X501777Y317246D03*
D10*
X495427Y317500D03*
D18*
X502539Y317500D03*
D10*
X495427Y317754D03*
D18*
X502539Y317754D03*
D10*
X495427Y318008D03*
D18*
X502539Y318008D03*
D10*
X495427Y318262D03*
D18*
X502539Y318262D03*
D10*
X495427Y318516D03*
D18*
X502539Y318516D03*
D10*
X495427Y318770D03*
D18*
X502539Y318770D03*
D10*
X495427Y319024D03*
D18*
X502539Y319024D03*
D10*
X495427Y319278D03*
D18*
X502539Y319278D03*
D10*
X495427Y319532D03*
D18*
X502539Y319532D03*
D10*
X495427Y319786D03*
D18*
X502539Y319786D03*
D10*
X495427Y320040D03*
D18*
X502539Y320040D03*
D36*
X501777Y320294D03*
X501777Y320548D03*
X501777Y320802D03*
X501777Y321056D03*
X501777Y321310D03*
X501777Y321564D03*
X501777Y321818D03*
X501777Y322072D03*
D47*
X501904Y322326D03*
D33*
X502031Y322580D03*
D60*
X502158Y322834D03*
D62*
X502412Y323088D03*
D17*
X498602Y325882D03*
D54*
X506095Y325882D03*
D19*
X498602Y326136D03*
D30*
X506222Y326136D03*
D23*
X498602Y326390D03*
D34*
X506476Y326390D03*
D29*
X498475Y326644D03*
D34*
X506476Y326644D03*
D26*
X498475Y326898D03*
D16*
X506603Y326898D03*
D26*
X498475Y327152D03*
D16*
X506603Y327152D03*
D40*
X498602Y327406D03*
D39*
X506730Y327406D03*
D40*
X498602Y327660D03*
D39*
X506730Y327660D03*
D40*
X498602Y327914D03*
D39*
X506730Y327914D03*
D40*
X498602Y328168D03*
D39*
X506730Y328168D03*
D40*
X498602Y328422D03*
D39*
X506730Y328422D03*
D40*
X498602Y328676D03*
D39*
X506730Y328676D03*
D11*
X495554Y328930D03*
X501650Y328930D03*
X508000Y328930D03*
X495554Y329184D03*
X501650Y329184D03*
X508000Y329184D03*
X495554Y329438D03*
X501650Y329438D03*
X508000Y329438D03*
X495554Y329692D03*
X501650Y329692D03*
X508000Y329692D03*
X495554Y329946D03*
X501650Y329946D03*
X508000Y329946D03*
X495554Y330200D03*
X501650Y330200D03*
X508000Y330200D03*
X495554Y330454D03*
X501650Y330454D03*
X508000Y330454D03*
X495554Y330708D03*
X501650Y330708D03*
X508000Y330708D03*
X495554Y330962D03*
X501650Y330962D03*
X508000Y330962D03*
X495554Y331216D03*
X501650Y331216D03*
X508000Y331216D03*
X495554Y331470D03*
X501650Y331470D03*
X508000Y331470D03*
X495554Y331724D03*
X501650Y331724D03*
X508000Y331724D03*
D16*
X496697Y331978D03*
D49*
X504825Y331978D03*
D16*
X496697Y332232D03*
D49*
X504825Y332232D03*
D16*
X496697Y332486D03*
D49*
X504825Y332486D03*
D16*
X496697Y332740D03*
D49*
X504825Y332740D03*
D16*
X496697Y332994D03*
D49*
X504825Y332994D03*
D16*
X496697Y333248D03*
D49*
X504825Y333248D03*
D16*
X496697Y333502D03*
D40*
X504698Y333502D03*
D34*
X496824Y333756D03*
D26*
X504825Y333756D03*
D34*
X496824Y334010D03*
D29*
X504825Y334010D03*
D28*
X496951Y334264D03*
D23*
X504698Y334264D03*
D30*
X497078Y334518D03*
D48*
X504825Y334518D03*
D18*
X497459Y334772D03*
D43*
X504825Y334772D03*
D29*
X498221Y337820D03*
D31*
X498348Y338074D03*
D26*
X498475Y338328D03*
D40*
X498602Y338582D03*
X498602Y338836D03*
D49*
X498729Y339090D03*
X498729Y339344D03*
X498729Y339598D03*
X498729Y339852D03*
X498729Y340106D03*
X498729Y340360D03*
D55*
X504698Y340614D03*
X504698Y340868D03*
X504698Y341122D03*
X504698Y341376D03*
X504698Y341630D03*
X504698Y341884D03*
X504698Y342138D03*
X504698Y342392D03*
X504698Y342646D03*
X504698Y342900D03*
X504698Y343154D03*
D49*
X498729Y343408D03*
X498729Y343662D03*
X498729Y343916D03*
X498729Y344170D03*
X498729Y344424D03*
X498729Y344678D03*
D40*
X498602Y344932D03*
X498602Y345186D03*
X498602Y345440D03*
D26*
X498475Y345694D03*
D31*
X498348Y345948D03*
D23*
X498094Y346202D03*
D47*
X501650Y348996D03*
D36*
X501523Y349250D03*
X501523Y349504D03*
X501523Y349758D03*
X501523Y350012D03*
X501523Y350266D03*
X501523Y350520D03*
X501523Y350774D03*
X501523Y351028D03*
X501523Y351282D03*
X501523Y351536D03*
D48*
X497459Y351790D03*
D58*
X497840Y352044D03*
X498348Y352298D03*
X498856Y352552D03*
X499364Y352806D03*
X499872Y353060D03*
X500380Y353314D03*
X500888Y353568D03*
D48*
X501523Y353822D03*
X502031Y354076D03*
D58*
X502666Y354330D03*
X503174Y354584D03*
X503682Y354838D03*
X504190Y355092D03*
X504698Y355346D03*
X505206Y355600D03*
D48*
X505587Y355854D03*
D36*
X501523Y356108D03*
X501523Y356362D03*
X501523Y356616D03*
X501523Y356870D03*
X501523Y357124D03*
X501523Y357378D03*
X501523Y357632D03*
X501523Y357886D03*
X501523Y358140D03*
X501523Y358394D03*
D11*
X495554Y360680D03*
X495554Y360934D03*
X495554Y361188D03*
X495554Y361442D03*
X495554Y361696D03*
X495554Y361950D03*
X495554Y362204D03*
X495554Y362458D03*
X495554Y362712D03*
X495554Y362966D03*
X495554Y363220D03*
X495554Y363474D03*
X495554Y363728D03*
D36*
X501777Y363982D03*
X501777Y364236D03*
X501777Y364490D03*
X501777Y364744D03*
X501777Y364998D03*
X501777Y365252D03*
X501777Y365506D03*
X501777Y365760D03*
X501777Y366014D03*
X501777Y366268D03*
X501777Y366522D03*
D47*
X501650Y366776D03*
D11*
X495554Y367030D03*
X495554Y367284D03*
X495554Y367538D03*
X495554Y367792D03*
X495554Y368046D03*
X495554Y368300D03*
X495554Y368554D03*
X495554Y368808D03*
X495554Y369062D03*
X495554Y369316D03*
X495554Y369570D03*
X495554Y369824D03*
X495554Y370078D03*
D36*
X501777Y372110D03*
X501777Y372364D03*
X501777Y372618D03*
X501777Y372872D03*
X501777Y373126D03*
X501777Y373380D03*
X501777Y373634D03*
X501777Y373888D03*
X501777Y374142D03*
X501777Y374396D03*
X501777Y374650D03*
D47*
X501650Y374904D03*
D18*
X501269Y375158D03*
X501269Y375412D03*
X501269Y375666D03*
X501269Y375920D03*
X501269Y376174D03*
X501269Y376428D03*
X501269Y376682D03*
X501269Y376936D03*
X501269Y377190D03*
X501269Y377444D03*
X501269Y377698D03*
D24*
X501396Y377952D03*
D36*
X501777Y378206D03*
X501777Y378460D03*
X501777Y378714D03*
X501777Y378968D03*
X501777Y379222D03*
X501777Y379476D03*
X501777Y379730D03*
X501777Y379984D03*
X501777Y380238D03*
X501777Y380492D03*
X501777Y380746D03*
D47*
X501650Y381000D03*
D18*
X503809Y383286D03*
X503809Y383540D03*
X503809Y383794D03*
X503809Y384048D03*
X503809Y384302D03*
X503809Y384556D03*
X503809Y384810D03*
X503809Y385064D03*
X503809Y385318D03*
X503809Y385572D03*
X503809Y385826D03*
X503809Y386080D03*
X503809Y386334D03*
X503809Y386588D03*
X503809Y386842D03*
X503809Y387096D03*
X503809Y387350D03*
X503809Y387604D03*
X503809Y387858D03*
X503809Y388112D03*
D11*
X495300Y390398D03*
X507746Y390398D03*
X495300Y390652D03*
X507746Y390652D03*
X495300Y390906D03*
X507746Y390906D03*
X495300Y391160D03*
X507746Y391160D03*
X495300Y391414D03*
D18*
X501523Y391414D03*
D11*
X507746Y391414D03*
X495300Y391668D03*
D18*
X501523Y391668D03*
D11*
X507746Y391668D03*
X495300Y391922D03*
D18*
X501523Y391922D03*
D11*
X507746Y391922D03*
X495300Y392176D03*
D18*
X501523Y392176D03*
D11*
X507746Y392176D03*
X495300Y392430D03*
D18*
X501523Y392430D03*
D11*
X507746Y392430D03*
X495300Y392684D03*
D18*
X501523Y392684D03*
D11*
X507746Y392684D03*
X495300Y392938D03*
D18*
X501523Y392938D03*
D11*
X507746Y392938D03*
X495300Y393192D03*
D18*
X501523Y393192D03*
D11*
X507746Y393192D03*
X495300Y393446D03*
D18*
X501523Y393446D03*
D11*
X507746Y393446D03*
X495300Y393700D03*
D18*
X501523Y393700D03*
D11*
X507746Y393700D03*
X495300Y393954D03*
D18*
X501523Y393954D03*
D11*
X507746Y393954D03*
X495300Y394208D03*
D18*
X501523Y394208D03*
D11*
X507746Y394208D03*
X495300Y394462D03*
D18*
X501523Y394462D03*
D11*
X507746Y394462D03*
X495300Y394716D03*
D18*
X501523Y394716D03*
D11*
X507746Y394716D03*
X495300Y394970D03*
D18*
X501523Y394970D03*
D11*
X507746Y394970D03*
X495300Y395224D03*
D18*
X501523Y395224D03*
D11*
X507746Y395224D03*
X495300Y395478D03*
D18*
X501523Y395478D03*
D11*
X507746Y395478D03*
X495300Y395732D03*
D18*
X501523Y395732D03*
D11*
X507746Y395732D03*
D18*
X495427Y395986D03*
X501523Y395986D03*
X507619Y395986D03*
D36*
X501523Y396240D03*
X501523Y396494D03*
X501523Y396748D03*
X501523Y397002D03*
X501523Y397256D03*
X501523Y397510D03*
X501523Y397764D03*
X501523Y398018D03*
D47*
X501650Y398272D03*
D48*
X497713Y398526D03*
D21*
X505333Y398526D03*
D59*
X497713Y398780D03*
D58*
X505206Y398780D03*
D39*
X497840Y399034D03*
D46*
X505206Y399034D03*
D22*
X497332Y401574D03*
D21*
X505587Y401574D03*
D30*
X497078Y401828D03*
D23*
X505460Y401828D03*
D28*
X496951Y402082D03*
D29*
X505333Y402082D03*
D34*
X496824Y402336D03*
D31*
X505206Y402336D03*
D16*
X496697Y402590D03*
D31*
X505206Y402590D03*
D16*
X496697Y402844D03*
D31*
X505206Y402844D03*
D39*
X496570Y403098D03*
D31*
X505206Y403098D03*
D39*
X496570Y403352D03*
D31*
X505206Y403352D03*
D39*
X496570Y403606D03*
D31*
X505206Y403606D03*
D39*
X496570Y403860D03*
D31*
X505206Y403860D03*
D39*
X496570Y404114D03*
D31*
X505206Y404114D03*
D39*
X496570Y404368D03*
D31*
X505206Y404368D03*
D18*
X495427Y404622D03*
D11*
X502412Y404622D03*
D18*
X507873Y404622D03*
X495427Y404876D03*
D10*
X502285Y404876D03*
D18*
X507873Y404876D03*
X495427Y405130D03*
D10*
X502285Y405130D03*
D18*
X507873Y405130D03*
X495427Y405384D03*
D10*
X502285Y405384D03*
D18*
X507873Y405384D03*
X495427Y405638D03*
D10*
X502285Y405638D03*
D18*
X507873Y405638D03*
X495427Y405892D03*
D10*
X502285Y405892D03*
D18*
X507873Y405892D03*
X495427Y406146D03*
D10*
X502285Y406146D03*
D18*
X507873Y406146D03*
X495427Y406400D03*
D10*
X502285Y406400D03*
D18*
X507873Y406400D03*
X495427Y406654D03*
D10*
X502285Y406654D03*
D18*
X507873Y406654D03*
X495427Y406908D03*
D10*
X502285Y406908D03*
D18*
X507873Y406908D03*
X495427Y407162D03*
D10*
X502285Y407162D03*
D18*
X507873Y407162D03*
X495427Y407416D03*
D11*
X502158Y407416D03*
D18*
X507873Y407416D03*
D32*
X498729Y407670D03*
D18*
X507873Y407670D03*
D32*
X498729Y407924D03*
D18*
X507873Y407924D03*
D32*
X498729Y408178D03*
D18*
X507873Y408178D03*
D32*
X498729Y408432D03*
D18*
X507873Y408432D03*
D32*
X498729Y408686D03*
D18*
X507873Y408686D03*
D55*
X498856Y408940D03*
D18*
X507873Y408940D03*
D55*
X498856Y409194D03*
D18*
X507873Y409194D03*
D49*
X498729Y409448D03*
D18*
X507873Y409448D03*
D40*
X498856Y409702D03*
D18*
X507873Y409702D03*
D31*
X498856Y409956D03*
D18*
X507873Y409956D03*
D19*
X498856Y410210D03*
D18*
X507873Y410210D03*
D11*
X91186Y412242D03*
X135636Y412242D03*
X91186Y412496D03*
X135636Y412496D03*
X91186Y412750D03*
X135636Y412750D03*
X91186Y413004D03*
X135636Y413004D03*
X91186Y413258D03*
X135636Y413258D03*
X91186Y413512D03*
X135636Y413512D03*
X91186Y413766D03*
X135636Y413766D03*
X91186Y414020D03*
X135636Y414020D03*
X91186Y414274D03*
X135636Y414274D03*
X91186Y414528D03*
X135636Y414528D03*
X91186Y414782D03*
X135636Y414782D03*
X91186Y415036D03*
X135636Y415036D03*
X91186Y415290D03*
X135636Y415290D03*
X91186Y415544D03*
X135636Y415544D03*
X91186Y415798D03*
X135636Y415798D03*
X91186Y416052D03*
D35*
X114300Y416052D03*
D11*
X135636Y416052D03*
X91186Y416306D03*
D35*
X114300Y416306D03*
D11*
X135636Y416306D03*
D50*
X91313Y416560D03*
D35*
X114300Y416560D03*
D50*
X135509Y416560D03*
X91313Y416814D03*
D35*
X114300Y416814D03*
D50*
X135509Y416814D03*
X91313Y417068D03*
D35*
X114300Y417068D03*
D50*
X135509Y417068D03*
X91313Y417322D03*
D35*
X114300Y417322D03*
D50*
X135509Y417322D03*
X91313Y417576D03*
D35*
X114300Y417576D03*
D50*
X135509Y417576D03*
X91313Y417830D03*
D35*
X114300Y417830D03*
D50*
X135509Y417830D03*
X91313Y418084D03*
D35*
X114300Y418084D03*
D50*
X135509Y418084D03*
X91313Y418338D03*
D35*
X114300Y418338D03*
D50*
X135509Y418338D03*
X91313Y418592D03*
D35*
X114300Y418592D03*
D50*
X135509Y418592D03*
X91313Y418846D03*
X135509Y418846D03*
D11*
X91186Y419100D03*
X135636Y419100D03*
X91186Y419354D03*
X135636Y419354D03*
X91186Y419608D03*
X135636Y419608D03*
X91186Y419862D03*
X135636Y419862D03*
X91186Y420116D03*
X135636Y420116D03*
X91186Y420370D03*
X135636Y420370D03*
X91186Y420624D03*
X135636Y420624D03*
X91186Y420878D03*
X135636Y420878D03*
X91186Y421132D03*
X135636Y421132D03*
X91186Y421386D03*
X135636Y421386D03*
X91186Y421640D03*
X135636Y421640D03*
X91186Y421894D03*
X135636Y421894D03*
X91186Y422148D03*
X135636Y422148D03*
X91186Y422402D03*
X135636Y422402D03*
X91186Y422656D03*
X135636Y422656D03*
X91186Y422910D03*
X135636Y422910D03*
X91186Y423164D03*
X135636Y423164D03*
D111*
X225806Y431038D03*
X225806Y431292D03*
X225806Y431546D03*
X225806Y431800D03*
X225806Y432054D03*
X225806Y432308D03*
X225806Y432562D03*
X225806Y432816D03*
X225806Y433070D03*
X225806Y433324D03*
X225806Y433578D03*
X225806Y433832D03*
X225806Y434086D03*
X225806Y434340D03*
D19*
X61722Y437388D03*
D24*
X164084Y437388D03*
D18*
X170053Y437388D03*
D19*
X190754Y437388D03*
D24*
X198628Y437388D03*
D23*
X219964Y437388D03*
D57*
X237363Y437388D03*
D59*
X249301Y437388D03*
D24*
X260858Y437388D03*
D19*
X61722Y437642D03*
D24*
X164084Y437642D03*
X170180Y437642D03*
D19*
X190754Y437642D03*
D24*
X198628Y437642D03*
D11*
X204470Y437642D03*
X211582Y437642D03*
D31*
X219964Y437642D03*
D19*
X237490Y437642D03*
D23*
X249428Y437642D03*
D24*
X260858Y437642D03*
D19*
X61722Y437896D03*
D24*
X164084Y437896D03*
X170180Y437896D03*
D19*
X190754Y437896D03*
D24*
X198628Y437896D03*
D11*
X204470Y437896D03*
D18*
X211455Y437896D03*
D31*
X219964Y437896D03*
D29*
X237363Y437896D03*
D31*
X249428Y437896D03*
D24*
X260858Y437896D03*
D19*
X61722Y438150D03*
D24*
X164084Y438150D03*
X170180Y438150D03*
D19*
X190754Y438150D03*
D24*
X198628Y438150D03*
D11*
X204470Y438150D03*
D18*
X211455Y438150D03*
D31*
X219964Y438150D03*
X237490Y438150D03*
D40*
X249428Y438150D03*
D24*
X260858Y438150D03*
D19*
X61722Y438404D03*
D24*
X164084Y438404D03*
X170180Y438404D03*
D19*
X190754Y438404D03*
D24*
X198628Y438404D03*
D11*
X204470Y438404D03*
D24*
X211328Y438404D03*
D31*
X219964Y438404D03*
D26*
X237363Y438404D03*
D49*
X249301Y438404D03*
D24*
X260858Y438404D03*
D19*
X61722Y438658D03*
D24*
X164084Y438658D03*
X170180Y438658D03*
D19*
X190754Y438658D03*
D24*
X198628Y438658D03*
D11*
X204470Y438658D03*
D24*
X211328Y438658D03*
D31*
X219964Y438658D03*
D40*
X237490Y438658D03*
D55*
X249428Y438658D03*
D24*
X260858Y438658D03*
D19*
X61722Y438912D03*
D24*
X164084Y438912D03*
X170180Y438912D03*
D19*
X190754Y438912D03*
D24*
X198628Y438912D03*
D11*
X204470Y438912D03*
D54*
X211201Y438912D03*
D31*
X219964Y438912D03*
D49*
X237363Y438912D03*
D55*
X249428Y438912D03*
D24*
X260858Y438912D03*
D19*
X61722Y439166D03*
D24*
X164084Y439166D03*
X170180Y439166D03*
D19*
X190754Y439166D03*
D24*
X198628Y439166D03*
D11*
X204470Y439166D03*
D54*
X211201Y439166D03*
D31*
X219964Y439166D03*
D49*
X237363Y439166D03*
D55*
X249428Y439166D03*
D24*
X260858Y439166D03*
D19*
X61722Y439420D03*
D24*
X164084Y439420D03*
X170180Y439420D03*
D19*
X190754Y439420D03*
D24*
X198628Y439420D03*
D11*
X204470Y439420D03*
D22*
X211074Y439420D03*
D31*
X219964Y439420D03*
D49*
X237363Y439420D03*
D32*
X249301Y439420D03*
D24*
X260858Y439420D03*
D19*
X61722Y439674D03*
D24*
X164084Y439674D03*
X170180Y439674D03*
D19*
X190754Y439674D03*
D24*
X198628Y439674D03*
D11*
X204470Y439674D03*
D22*
X211074Y439674D03*
D31*
X219964Y439674D03*
D49*
X237363Y439674D03*
D32*
X249301Y439674D03*
D24*
X260858Y439674D03*
D19*
X61722Y439928D03*
D24*
X164084Y439928D03*
X170180Y439928D03*
D19*
X190754Y439928D03*
D24*
X198628Y439928D03*
D11*
X204470Y439928D03*
D15*
X210947Y439928D03*
D31*
X219964Y439928D03*
D49*
X237363Y439928D03*
D32*
X249301Y439928D03*
D24*
X260858Y439928D03*
D19*
X61722Y440182D03*
D24*
X164084Y440182D03*
X170180Y440182D03*
D19*
X190754Y440182D03*
D24*
X198628Y440182D03*
D11*
X204470Y440182D03*
D15*
X210947Y440182D03*
D31*
X219964Y440182D03*
D49*
X237363Y440182D03*
D32*
X249301Y440182D03*
D24*
X260858Y440182D03*
D18*
X59563Y440436D03*
D24*
X164084Y440436D03*
X170180Y440436D03*
D18*
X188595Y440436D03*
D24*
X198628Y440436D03*
D11*
X204470Y440436D03*
D30*
X210820Y440436D03*
D31*
X219964Y440436D03*
D49*
X237363Y440436D03*
D32*
X249301Y440436D03*
D24*
X260858Y440436D03*
D18*
X59563Y440690D03*
D24*
X164084Y440690D03*
X170180Y440690D03*
D18*
X188595Y440690D03*
D24*
X198628Y440690D03*
D11*
X204470Y440690D03*
D30*
X210820Y440690D03*
D18*
X217297Y440690D03*
X234315Y440690D03*
X240411Y440690D03*
D24*
X246126Y440690D03*
D18*
X252603Y440690D03*
D24*
X260858Y440690D03*
D18*
X59563Y440944D03*
D24*
X164084Y440944D03*
X170180Y440944D03*
D18*
X188595Y440944D03*
D24*
X198628Y440944D03*
D11*
X204470Y440944D03*
D28*
X210693Y440944D03*
D18*
X217297Y440944D03*
X234315Y440944D03*
X240411Y440944D03*
D24*
X246126Y440944D03*
D18*
X252603Y440944D03*
D24*
X260858Y440944D03*
D18*
X59563Y441198D03*
D24*
X164084Y441198D03*
X170180Y441198D03*
D18*
X188595Y441198D03*
D24*
X198628Y441198D03*
D11*
X204470Y441198D03*
D28*
X210693Y441198D03*
D18*
X217297Y441198D03*
X234315Y441198D03*
X240411Y441198D03*
D24*
X246126Y441198D03*
D18*
X252603Y441198D03*
D24*
X260858Y441198D03*
D18*
X59563Y441452D03*
D24*
X164084Y441452D03*
X170180Y441452D03*
D18*
X188595Y441452D03*
D24*
X198628Y441452D03*
D11*
X204470Y441452D03*
D34*
X210566Y441452D03*
D18*
X217297Y441452D03*
X234315Y441452D03*
X240411Y441452D03*
D24*
X246126Y441452D03*
D18*
X252603Y441452D03*
D24*
X260858Y441452D03*
D18*
X59563Y441706D03*
D24*
X164084Y441706D03*
X170180Y441706D03*
D18*
X188595Y441706D03*
D24*
X198628Y441706D03*
D11*
X204470Y441706D03*
D34*
X210566Y441706D03*
D18*
X217297Y441706D03*
X234315Y441706D03*
X240411Y441706D03*
D24*
X246126Y441706D03*
D18*
X252603Y441706D03*
D24*
X260858Y441706D03*
D18*
X59563Y441960D03*
D24*
X164084Y441960D03*
X170180Y441960D03*
D18*
X188595Y441960D03*
D24*
X198628Y441960D03*
D11*
X204470Y441960D03*
D16*
X210439Y441960D03*
D18*
X217297Y441960D03*
X234315Y441960D03*
X240411Y441960D03*
D24*
X246126Y441960D03*
D18*
X252603Y441960D03*
D24*
X260858Y441960D03*
D18*
X59563Y442214D03*
D24*
X164084Y442214D03*
X170180Y442214D03*
D18*
X188595Y442214D03*
D24*
X198628Y442214D03*
D11*
X204470Y442214D03*
D16*
X210439Y442214D03*
D18*
X217297Y442214D03*
X234315Y442214D03*
X240411Y442214D03*
D24*
X246126Y442214D03*
D18*
X252603Y442214D03*
D24*
X260858Y442214D03*
D18*
X59563Y442468D03*
D24*
X164084Y442468D03*
X170180Y442468D03*
D18*
X188595Y442468D03*
D24*
X198628Y442468D03*
D11*
X204470Y442468D03*
D39*
X210312Y442468D03*
D18*
X217297Y442468D03*
X234315Y442468D03*
X240411Y442468D03*
D24*
X246126Y442468D03*
D18*
X252603Y442468D03*
D24*
X260858Y442468D03*
D18*
X59563Y442722D03*
D24*
X164084Y442722D03*
X170180Y442722D03*
D18*
X188595Y442722D03*
D24*
X198628Y442722D03*
D11*
X204470Y442722D03*
D39*
X210312Y442722D03*
D18*
X217297Y442722D03*
X234315Y442722D03*
X240411Y442722D03*
D24*
X246126Y442722D03*
D18*
X252603Y442722D03*
D24*
X260858Y442722D03*
D18*
X59563Y442976D03*
D24*
X164084Y442976D03*
X170180Y442976D03*
D18*
X188595Y442976D03*
D24*
X198628Y442976D03*
D11*
X204470Y442976D03*
D43*
X210185Y442976D03*
D18*
X217297Y442976D03*
X234315Y442976D03*
X240411Y442976D03*
D24*
X246126Y442976D03*
D18*
X252603Y442976D03*
D24*
X260858Y442976D03*
D18*
X59563Y443230D03*
D24*
X164084Y443230D03*
X170180Y443230D03*
D18*
X188595Y443230D03*
D24*
X198628Y443230D03*
D11*
X204470Y443230D03*
D43*
X210185Y443230D03*
D18*
X217297Y443230D03*
X234315Y443230D03*
X240411Y443230D03*
D24*
X246126Y443230D03*
D18*
X252603Y443230D03*
D24*
X260858Y443230D03*
D18*
X59563Y443484D03*
D24*
X164084Y443484D03*
D18*
X170053Y443484D03*
X188595Y443484D03*
D24*
X198628Y443484D03*
D11*
X204470Y443484D03*
D46*
X210058Y443484D03*
D18*
X217297Y443484D03*
X234315Y443484D03*
X240411Y443484D03*
D24*
X246126Y443484D03*
D18*
X252603Y443484D03*
D24*
X260858Y443484D03*
D18*
X59563Y443738D03*
D24*
X164084Y443738D03*
D18*
X170053Y443738D03*
X188595Y443738D03*
D24*
X198628Y443738D03*
D11*
X204470Y443738D03*
D46*
X210058Y443738D03*
D18*
X217297Y443738D03*
X234315Y443738D03*
X240411Y443738D03*
D24*
X246126Y443738D03*
D18*
X252603Y443738D03*
D24*
X260858Y443738D03*
D18*
X59563Y443992D03*
D49*
X167005Y443992D03*
D18*
X188595Y443992D03*
D24*
X198628Y443992D03*
D11*
X204470Y443992D03*
D46*
X210058Y443992D03*
D48*
X219329Y443992D03*
D18*
X234315Y443992D03*
X240411Y443992D03*
D24*
X246126Y443992D03*
D18*
X252603Y443992D03*
D24*
X260858Y443992D03*
D18*
X59563Y444246D03*
D40*
X166878Y444246D03*
D18*
X188595Y444246D03*
D24*
X198628Y444246D03*
D11*
X204470Y444246D03*
D57*
X209931Y444246D03*
D48*
X219329Y444246D03*
D18*
X234315Y444246D03*
X240411Y444246D03*
D24*
X246126Y444246D03*
D18*
X252603Y444246D03*
D24*
X260858Y444246D03*
D18*
X59563Y444500D03*
D40*
X166878Y444500D03*
D18*
X188595Y444500D03*
D24*
X198628Y444500D03*
D11*
X204470Y444500D03*
D57*
X209931Y444500D03*
D48*
X219329Y444500D03*
D18*
X234315Y444500D03*
X240411Y444500D03*
D24*
X246126Y444500D03*
D18*
X252603Y444500D03*
D24*
X260858Y444500D03*
D18*
X59563Y444754D03*
D26*
X166751Y444754D03*
D18*
X188595Y444754D03*
D24*
X198628Y444754D03*
D11*
X204470Y444754D03*
D17*
X209804Y444754D03*
D48*
X219329Y444754D03*
D18*
X234315Y444754D03*
X240411Y444754D03*
D24*
X246126Y444754D03*
D18*
X252603Y444754D03*
D24*
X260858Y444754D03*
D18*
X59563Y445008D03*
D29*
X166497Y445008D03*
D18*
X188595Y445008D03*
D24*
X198628Y445008D03*
D11*
X204470Y445008D03*
D24*
X208280Y445008D03*
D11*
X211582Y445008D03*
D48*
X219329Y445008D03*
D18*
X234315Y445008D03*
X240411Y445008D03*
D24*
X246126Y445008D03*
D18*
X252603Y445008D03*
D24*
X260858Y445008D03*
D18*
X59563Y445262D03*
D26*
X166751Y445262D03*
D18*
X188595Y445262D03*
D24*
X198628Y445262D03*
D11*
X204470Y445262D03*
D54*
X208153Y445262D03*
D11*
X211582Y445262D03*
D48*
X219329Y445262D03*
D18*
X234315Y445262D03*
X240411Y445262D03*
D24*
X246126Y445262D03*
D18*
X252603Y445262D03*
D24*
X260858Y445262D03*
D18*
X59563Y445516D03*
D40*
X166878Y445516D03*
D18*
X188595Y445516D03*
D24*
X198628Y445516D03*
D11*
X204470Y445516D03*
D24*
X208026Y445516D03*
D11*
X211582Y445516D03*
D48*
X219329Y445516D03*
D18*
X234315Y445516D03*
X240411Y445516D03*
D24*
X246126Y445516D03*
D18*
X252603Y445516D03*
D24*
X260858Y445516D03*
D18*
X59563Y445770D03*
D40*
X166878Y445770D03*
D18*
X188595Y445770D03*
D24*
X198628Y445770D03*
D11*
X204470Y445770D03*
D54*
X207899Y445770D03*
D11*
X211582Y445770D03*
D48*
X219329Y445770D03*
D18*
X234315Y445770D03*
X240411Y445770D03*
D24*
X246126Y445770D03*
D18*
X252603Y445770D03*
D24*
X260858Y445770D03*
D18*
X59563Y446024D03*
D49*
X167005Y446024D03*
D18*
X188595Y446024D03*
D24*
X198628Y446024D03*
D11*
X204470Y446024D03*
D24*
X207772Y446024D03*
D11*
X211582Y446024D03*
D48*
X219329Y446024D03*
D18*
X234315Y446024D03*
X240411Y446024D03*
D24*
X246126Y446024D03*
D18*
X252603Y446024D03*
D24*
X260858Y446024D03*
D18*
X59563Y446278D03*
D49*
X167005Y446278D03*
D18*
X188595Y446278D03*
D24*
X198628Y446278D03*
D17*
X206248Y446278D03*
D11*
X211582Y446278D03*
D48*
X219329Y446278D03*
D18*
X234315Y446278D03*
X240411Y446278D03*
D24*
X246126Y446278D03*
D18*
X252603Y446278D03*
D24*
X260858Y446278D03*
D18*
X59563Y446532D03*
D49*
X167005Y446532D03*
D18*
X188595Y446532D03*
D24*
X198628Y446532D03*
D57*
X206121Y446532D03*
D11*
X211582Y446532D03*
D48*
X219329Y446532D03*
D18*
X234315Y446532D03*
X240411Y446532D03*
D24*
X246126Y446532D03*
D18*
X252603Y446532D03*
D24*
X260858Y446532D03*
D18*
X59563Y446786D03*
D49*
X167005Y446786D03*
D18*
X188595Y446786D03*
D24*
X198628Y446786D03*
D57*
X206121Y446786D03*
D11*
X211582Y446786D03*
D48*
X219329Y446786D03*
D18*
X234315Y446786D03*
X240411Y446786D03*
D24*
X246126Y446786D03*
D18*
X252603Y446786D03*
D24*
X260858Y446786D03*
D18*
X59563Y447040D03*
X163957Y447040D03*
X170053Y447040D03*
X188595Y447040D03*
D24*
X198628Y447040D03*
D46*
X205994Y447040D03*
D11*
X211582Y447040D03*
D18*
X217297Y447040D03*
X234315Y447040D03*
X240411Y447040D03*
D24*
X246126Y447040D03*
D18*
X252603Y447040D03*
D24*
X260858Y447040D03*
D18*
X59563Y447294D03*
X163957Y447294D03*
X170053Y447294D03*
X188595Y447294D03*
D24*
X198628Y447294D03*
D46*
X205994Y447294D03*
D11*
X211582Y447294D03*
D18*
X217297Y447294D03*
X234315Y447294D03*
X240411Y447294D03*
D24*
X246126Y447294D03*
D18*
X252603Y447294D03*
D24*
X260858Y447294D03*
D18*
X59563Y447548D03*
X163957Y447548D03*
X170053Y447548D03*
X188595Y447548D03*
D24*
X198628Y447548D03*
D43*
X205867Y447548D03*
D11*
X211582Y447548D03*
D18*
X217297Y447548D03*
X234315Y447548D03*
X240411Y447548D03*
D24*
X246126Y447548D03*
D18*
X252603Y447548D03*
D24*
X260858Y447548D03*
D18*
X59563Y447802D03*
X163957Y447802D03*
X170053Y447802D03*
X188595Y447802D03*
D24*
X198628Y447802D03*
D43*
X205867Y447802D03*
D11*
X211582Y447802D03*
D18*
X217297Y447802D03*
X234315Y447802D03*
X240411Y447802D03*
D24*
X246126Y447802D03*
D18*
X252603Y447802D03*
D24*
X260858Y447802D03*
D18*
X59563Y448056D03*
X163957Y448056D03*
X170053Y448056D03*
X188595Y448056D03*
D24*
X198628Y448056D03*
D39*
X205740Y448056D03*
D11*
X211582Y448056D03*
D18*
X217297Y448056D03*
X234315Y448056D03*
X240411Y448056D03*
D24*
X246126Y448056D03*
D18*
X252603Y448056D03*
D24*
X260858Y448056D03*
D18*
X59563Y448310D03*
X163957Y448310D03*
X170053Y448310D03*
X188595Y448310D03*
D24*
X198628Y448310D03*
D39*
X205740Y448310D03*
D11*
X211582Y448310D03*
D18*
X217297Y448310D03*
X234315Y448310D03*
X240411Y448310D03*
D24*
X246126Y448310D03*
D18*
X252603Y448310D03*
D24*
X260858Y448310D03*
D18*
X59563Y448564D03*
X163957Y448564D03*
X170053Y448564D03*
X188595Y448564D03*
D24*
X198628Y448564D03*
D16*
X205613Y448564D03*
D11*
X211582Y448564D03*
D18*
X217297Y448564D03*
X234315Y448564D03*
X240411Y448564D03*
D24*
X246126Y448564D03*
D18*
X252603Y448564D03*
D24*
X260858Y448564D03*
D18*
X59563Y448818D03*
X163957Y448818D03*
X170053Y448818D03*
X188595Y448818D03*
D24*
X198628Y448818D03*
D16*
X205613Y448818D03*
D11*
X211582Y448818D03*
D18*
X217297Y448818D03*
X234315Y448818D03*
X240411Y448818D03*
D24*
X246126Y448818D03*
D18*
X252603Y448818D03*
D24*
X260858Y448818D03*
D18*
X59563Y449072D03*
X163957Y449072D03*
X170053Y449072D03*
X188595Y449072D03*
D24*
X198628Y449072D03*
D34*
X205486Y449072D03*
D11*
X211582Y449072D03*
D18*
X217297Y449072D03*
X234315Y449072D03*
X240411Y449072D03*
D24*
X246126Y449072D03*
D18*
X252603Y449072D03*
D24*
X260858Y449072D03*
D18*
X59563Y449326D03*
X163957Y449326D03*
X170053Y449326D03*
X188595Y449326D03*
D24*
X198628Y449326D03*
D34*
X205486Y449326D03*
D11*
X211582Y449326D03*
D18*
X217297Y449326D03*
X234315Y449326D03*
X240411Y449326D03*
D24*
X246126Y449326D03*
D18*
X252603Y449326D03*
D24*
X260858Y449326D03*
D18*
X59563Y449580D03*
X163957Y449580D03*
X170053Y449580D03*
X188595Y449580D03*
D24*
X198628Y449580D03*
D28*
X205359Y449580D03*
D11*
X211582Y449580D03*
D18*
X217297Y449580D03*
X234315Y449580D03*
X240411Y449580D03*
D24*
X246126Y449580D03*
D18*
X252603Y449580D03*
D24*
X260858Y449580D03*
D18*
X59563Y449834D03*
X163957Y449834D03*
X170053Y449834D03*
X188595Y449834D03*
D24*
X198628Y449834D03*
D28*
X205359Y449834D03*
D11*
X211582Y449834D03*
D18*
X217297Y449834D03*
X234315Y449834D03*
X240411Y449834D03*
D24*
X246126Y449834D03*
D18*
X252603Y449834D03*
D24*
X260858Y449834D03*
D18*
X59563Y450088D03*
X163957Y450088D03*
X170053Y450088D03*
X188595Y450088D03*
D24*
X198628Y450088D03*
D28*
X205359Y450088D03*
D11*
X211582Y450088D03*
D24*
X217424Y450088D03*
D18*
X234315Y450088D03*
X240411Y450088D03*
D24*
X246126Y450088D03*
D18*
X252603Y450088D03*
D51*
X260858Y450088D03*
D18*
X59563Y450342D03*
D49*
X167005Y450342D03*
D18*
X188595Y450342D03*
D24*
X198628Y450342D03*
D30*
X205232Y450342D03*
D11*
X211582Y450342D03*
D31*
X219964Y450342D03*
D49*
X237363Y450342D03*
D24*
X246126Y450342D03*
D18*
X252603Y450342D03*
D51*
X260858Y450342D03*
D18*
X59563Y450596D03*
D49*
X167005Y450596D03*
D18*
X188595Y450596D03*
D24*
X198628Y450596D03*
D30*
X205232Y450596D03*
D11*
X211582Y450596D03*
D31*
X219964Y450596D03*
D49*
X237363Y450596D03*
D24*
X246126Y450596D03*
D18*
X252603Y450596D03*
D51*
X260858Y450596D03*
D18*
X59563Y450850D03*
D49*
X167005Y450850D03*
D18*
X188595Y450850D03*
D24*
X198628Y450850D03*
D15*
X205105Y450850D03*
D11*
X211582Y450850D03*
D31*
X219964Y450850D03*
D49*
X237363Y450850D03*
D24*
X246126Y450850D03*
D18*
X252603Y450850D03*
D51*
X260858Y450850D03*
D18*
X59563Y451104D03*
D49*
X167005Y451104D03*
D18*
X188595Y451104D03*
D24*
X198628Y451104D03*
D15*
X205105Y451104D03*
D11*
X211582Y451104D03*
D31*
X219964Y451104D03*
D49*
X237363Y451104D03*
D24*
X246126Y451104D03*
D18*
X252603Y451104D03*
D51*
X260858Y451104D03*
D18*
X59563Y451358D03*
D49*
X167005Y451358D03*
D18*
X188595Y451358D03*
D24*
X198628Y451358D03*
D22*
X204978Y451358D03*
D11*
X211582Y451358D03*
D31*
X219964Y451358D03*
D49*
X237363Y451358D03*
D24*
X246126Y451358D03*
D18*
X252603Y451358D03*
D51*
X260858Y451358D03*
D18*
X59563Y451612D03*
D49*
X167005Y451612D03*
D18*
X188595Y451612D03*
D24*
X198628Y451612D03*
D22*
X204978Y451612D03*
D11*
X211582Y451612D03*
D31*
X219964Y451612D03*
D49*
X237363Y451612D03*
D24*
X246126Y451612D03*
D18*
X252603Y451612D03*
D51*
X260858Y451612D03*
D18*
X59563Y451866D03*
D49*
X167005Y451866D03*
D18*
X188595Y451866D03*
D24*
X198628Y451866D03*
D54*
X204851Y451866D03*
D11*
X211582Y451866D03*
D31*
X219964Y451866D03*
D26*
X237363Y451866D03*
D24*
X246126Y451866D03*
D18*
X252603Y451866D03*
D51*
X260858Y451866D03*
D18*
X59563Y452120D03*
D40*
X166878Y452120D03*
D18*
X188595Y452120D03*
D24*
X198628Y452120D03*
D54*
X204851Y452120D03*
D11*
X211582Y452120D03*
D31*
X219964Y452120D03*
D26*
X237363Y452120D03*
D24*
X246126Y452120D03*
D18*
X252603Y452120D03*
D51*
X260858Y452120D03*
D18*
X59563Y452374D03*
D40*
X166878Y452374D03*
D18*
X188595Y452374D03*
D24*
X198628Y452374D03*
X204724Y452374D03*
D11*
X211582Y452374D03*
D31*
X219964Y452374D03*
D29*
X237363Y452374D03*
D24*
X246126Y452374D03*
D18*
X252603Y452374D03*
D51*
X260858Y452374D03*
D18*
X59563Y452628D03*
D26*
X166751Y452628D03*
D18*
X188595Y452628D03*
D24*
X198628Y452628D03*
X204724Y452628D03*
D11*
X211582Y452628D03*
D31*
X219964Y452628D03*
D21*
X237363Y452628D03*
D24*
X246126Y452628D03*
D18*
X252603Y452628D03*
D51*
X260858Y452628D03*
D18*
X59563Y452882D03*
D29*
X166497Y452882D03*
D18*
X188595Y452882D03*
D24*
X198628Y452882D03*
D18*
X204597Y452882D03*
D11*
X211582Y452882D03*
D31*
X219964Y452882D03*
D48*
X237363Y452882D03*
D24*
X246126Y452882D03*
D18*
X252603Y452882D03*
D51*
X260858Y452882D03*
D21*
X166243Y453136D03*
D18*
X204597Y453136D03*
D11*
X211582Y453136D03*
D29*
X219837Y453136D03*
D57*
X237363Y453136D03*
D11*
X438658Y16510D03*
D18*
X451485Y16510D03*
D11*
X438658Y16764D03*
D18*
X451485Y16764D03*
D11*
X438658Y17018D03*
D18*
X451485Y17018D03*
D11*
X438658Y17272D03*
D18*
X451485Y17272D03*
D11*
X438658Y17526D03*
D18*
X444881Y17526D03*
X451485Y17526D03*
D11*
X438658Y17780D03*
D24*
X445008Y17780D03*
D18*
X451485Y17780D03*
D11*
X438658Y18034D03*
D24*
X445008Y18034D03*
D18*
X451485Y18034D03*
D11*
X438658Y18288D03*
D24*
X445008Y18288D03*
D18*
X451485Y18288D03*
D11*
X438658Y18542D03*
D24*
X445008Y18542D03*
D18*
X451485Y18542D03*
D11*
X438658Y18796D03*
D24*
X445008Y18796D03*
D18*
X451485Y18796D03*
D11*
X438658Y19050D03*
D24*
X445008Y19050D03*
D18*
X451485Y19050D03*
D11*
X438658Y19304D03*
D24*
X445008Y19304D03*
D18*
X451485Y19304D03*
D11*
X438658Y19558D03*
D24*
X445008Y19558D03*
D18*
X451485Y19558D03*
D11*
X438658Y19812D03*
D24*
X445008Y19812D03*
D18*
X451485Y19812D03*
D11*
X438658Y20066D03*
D24*
X445008Y20066D03*
D18*
X451485Y20066D03*
D11*
X438658Y20320D03*
D24*
X445008Y20320D03*
D18*
X451485Y20320D03*
D11*
X438658Y20574D03*
D24*
X445008Y20574D03*
D18*
X451485Y20574D03*
D11*
X438658Y20828D03*
D24*
X445008Y20828D03*
D18*
X451485Y20828D03*
D11*
X438658Y21082D03*
D24*
X445008Y21082D03*
D18*
X451485Y21082D03*
D11*
X438658Y21336D03*
D24*
X445008Y21336D03*
D18*
X451485Y21336D03*
D11*
X438658Y21590D03*
D24*
X445008Y21590D03*
D18*
X451485Y21590D03*
D11*
X438658Y21844D03*
D24*
X445008Y21844D03*
D18*
X451485Y21844D03*
D11*
X438658Y22098D03*
D24*
X445008Y22098D03*
D18*
X451485Y22098D03*
D11*
X438658Y22352D03*
D24*
X445008Y22352D03*
D18*
X451485Y22352D03*
D42*
X445135Y22606D03*
X445135Y22860D03*
X445135Y23114D03*
X445135Y23368D03*
X445135Y23622D03*
X445135Y23876D03*
X445135Y24130D03*
X445135Y24384D03*
X445135Y24638D03*
D38*
X445008Y24892D03*
D48*
X441071Y25146D03*
D21*
X448945Y25146D03*
D59*
X441071Y25400D03*
D58*
X448818Y25400D03*
D112*
X435443Y261112D02*
X435443Y269755D01*
X432562Y269755D02*
X438324Y269755D01*
X441917Y269755D02*
X441917Y261112D01*
X441917Y265434D02*
X447679Y265434D01*
X447679Y269755D02*
X447679Y261112D01*
X451272Y261112D02*
X451272Y269755D01*
X455594Y269755D01*
X457035Y268315D01*
X457035Y265434D01*
X455594Y263993D01*
X451272Y263993D01*
X454154Y263993D02*
X457035Y261112D01*
X460628Y262553D02*
X460628Y269755D01*
X460628Y262553D02*
X462068Y261112D01*
X464949Y261112D01*
X466390Y262553D01*
X466390Y269755D01*
D113*
X363728Y367284D02*
X363728Y372618D01*
X363982Y372872D01*
X369316Y372872D01*
X423672Y372872D02*
X423672Y367284D01*
X423672Y372872D02*
X423418Y373126D01*
X418084Y373126D01*
X423672Y321818D02*
X423672Y313182D01*
X423164Y313182D01*
X422910Y312928D01*
X417576Y312928D01*
X369316Y312928D02*
X363728Y312928D01*
X363474Y313182D01*
X363474Y318770D01*
X369390Y383286D02*
X369392Y383368D01*
X369398Y383450D01*
X369408Y383532D01*
X369422Y383613D01*
X369440Y383694D01*
X369461Y383773D01*
X369487Y383852D01*
X369516Y383929D01*
X369549Y384004D01*
X369585Y384078D01*
X369625Y384150D01*
X369669Y384220D01*
X369715Y384288D01*
X369765Y384353D01*
X369819Y384416D01*
X369875Y384476D01*
X369934Y384534D01*
X369995Y384588D01*
X370059Y384640D01*
X370126Y384688D01*
X370195Y384733D01*
X370266Y384775D01*
X370339Y384814D01*
X370413Y384848D01*
X370490Y384879D01*
X370567Y384907D01*
X370646Y384930D01*
X370726Y384950D01*
X370807Y384966D01*
X370889Y384978D01*
X370971Y384986D01*
X371053Y384990D01*
X371135Y384990D01*
X371217Y384986D01*
X371299Y384978D01*
X371381Y384966D01*
X371462Y384950D01*
X371542Y384930D01*
X371621Y384907D01*
X371698Y384879D01*
X371775Y384848D01*
X371849Y384814D01*
X371922Y384775D01*
X371993Y384733D01*
X372062Y384688D01*
X372129Y384640D01*
X372193Y384588D01*
X372254Y384534D01*
X372313Y384476D01*
X372369Y384416D01*
X372423Y384353D01*
X372473Y384288D01*
X372519Y384220D01*
X372563Y384150D01*
X372603Y384078D01*
X372639Y384004D01*
X372672Y383929D01*
X372701Y383852D01*
X372727Y383773D01*
X372748Y383694D01*
X372766Y383613D01*
X372780Y383532D01*
X372790Y383450D01*
X372796Y383368D01*
X372798Y383286D01*
X372796Y383204D01*
X372790Y383122D01*
X372780Y383040D01*
X372766Y382959D01*
X372748Y382878D01*
X372727Y382799D01*
X372701Y382720D01*
X372672Y382643D01*
X372639Y382568D01*
X372603Y382494D01*
X372563Y382422D01*
X372519Y382352D01*
X372473Y382284D01*
X372423Y382219D01*
X372369Y382156D01*
X372313Y382096D01*
X372254Y382038D01*
X372193Y381984D01*
X372129Y381932D01*
X372062Y381884D01*
X371993Y381839D01*
X371922Y381797D01*
X371849Y381758D01*
X371775Y381724D01*
X371698Y381693D01*
X371621Y381665D01*
X371542Y381642D01*
X371462Y381622D01*
X371381Y381606D01*
X371299Y381594D01*
X371217Y381586D01*
X371135Y381582D01*
X371053Y381582D01*
X370971Y381586D01*
X370889Y381594D01*
X370807Y381606D01*
X370726Y381622D01*
X370646Y381642D01*
X370567Y381665D01*
X370490Y381693D01*
X370413Y381724D01*
X370339Y381758D01*
X370266Y381797D01*
X370195Y381839D01*
X370126Y381884D01*
X370059Y381932D01*
X369995Y381984D01*
X369934Y382038D01*
X369875Y382096D01*
X369819Y382156D01*
X369765Y382219D01*
X369715Y382284D01*
X369669Y382352D01*
X369625Y382422D01*
X369585Y382494D01*
X369549Y382568D01*
X369516Y382643D01*
X369487Y382720D01*
X369461Y382799D01*
X369440Y382878D01*
X369422Y382959D01*
X369408Y383040D01*
X369398Y383122D01*
X369392Y383204D01*
X369390Y383286D01*
D114*
X350000Y381660D02*
X350002Y381801D01*
X350008Y381942D01*
X350018Y382082D01*
X350032Y382222D01*
X350050Y382362D01*
X350071Y382501D01*
X350097Y382640D01*
X350126Y382778D01*
X350160Y382914D01*
X350197Y383050D01*
X350238Y383185D01*
X350283Y383319D01*
X350332Y383451D01*
X350384Y383582D01*
X350440Y383711D01*
X350500Y383838D01*
X350563Y383964D01*
X350629Y384088D01*
X350700Y384211D01*
X350773Y384331D01*
X350850Y384449D01*
X350930Y384565D01*
X351014Y384678D01*
X351100Y384789D01*
X351190Y384898D01*
X351283Y385004D01*
X351378Y385107D01*
X351477Y385208D01*
X351578Y385306D01*
X351682Y385401D01*
X351789Y385493D01*
X351898Y385582D01*
X352010Y385667D01*
X352124Y385750D01*
X352240Y385830D01*
X352359Y385906D01*
X352480Y385978D01*
X352602Y386048D01*
X352727Y386113D01*
X352853Y386176D01*
X352981Y386234D01*
X353111Y386289D01*
X353242Y386341D01*
X353375Y386388D01*
X353509Y386432D01*
X353644Y386473D01*
X353780Y386509D01*
X353917Y386541D01*
X354055Y386570D01*
X354193Y386595D01*
X354333Y386615D01*
X354473Y386632D01*
X354613Y386645D01*
X354754Y386654D01*
X354894Y386659D01*
X355035Y386660D01*
X355176Y386657D01*
X355317Y386650D01*
X355457Y386639D01*
X355597Y386624D01*
X355737Y386605D01*
X355876Y386583D01*
X356014Y386556D01*
X356152Y386526D01*
X356288Y386491D01*
X356424Y386453D01*
X356558Y386411D01*
X356692Y386365D01*
X356824Y386316D01*
X356954Y386262D01*
X357083Y386205D01*
X357210Y386145D01*
X357336Y386081D01*
X357459Y386013D01*
X357581Y385942D01*
X357701Y385868D01*
X357818Y385790D01*
X357933Y385709D01*
X358046Y385625D01*
X358157Y385538D01*
X358265Y385447D01*
X358370Y385354D01*
X358473Y385257D01*
X358573Y385158D01*
X358670Y385056D01*
X358764Y384951D01*
X358855Y384844D01*
X358943Y384734D01*
X359028Y384622D01*
X359110Y384507D01*
X359189Y384390D01*
X359264Y384271D01*
X359336Y384150D01*
X359404Y384027D01*
X359469Y383902D01*
X359531Y383775D01*
X359588Y383646D01*
X359643Y383516D01*
X359693Y383385D01*
X359740Y383252D01*
X359783Y383118D01*
X359822Y382982D01*
X359857Y382846D01*
X359889Y382709D01*
X359916Y382571D01*
X359940Y382432D01*
X359960Y382292D01*
X359976Y382152D01*
X359988Y382012D01*
X359996Y381871D01*
X360000Y381730D01*
X360000Y381590D01*
X359996Y381449D01*
X359988Y381308D01*
X359976Y381168D01*
X359960Y381028D01*
X359940Y380888D01*
X359916Y380749D01*
X359889Y380611D01*
X359857Y380474D01*
X359822Y380338D01*
X359783Y380202D01*
X359740Y380068D01*
X359693Y379935D01*
X359643Y379804D01*
X359588Y379674D01*
X359531Y379545D01*
X359469Y379418D01*
X359404Y379293D01*
X359336Y379170D01*
X359264Y379049D01*
X359189Y378930D01*
X359110Y378813D01*
X359028Y378698D01*
X358943Y378586D01*
X358855Y378476D01*
X358764Y378369D01*
X358670Y378264D01*
X358573Y378162D01*
X358473Y378063D01*
X358370Y377966D01*
X358265Y377873D01*
X358157Y377782D01*
X358046Y377695D01*
X357933Y377611D01*
X357818Y377530D01*
X357701Y377452D01*
X357581Y377378D01*
X357459Y377307D01*
X357336Y377239D01*
X357210Y377175D01*
X357083Y377115D01*
X356954Y377058D01*
X356824Y377004D01*
X356692Y376955D01*
X356558Y376909D01*
X356424Y376867D01*
X356288Y376829D01*
X356152Y376794D01*
X356014Y376764D01*
X355876Y376737D01*
X355737Y376715D01*
X355597Y376696D01*
X355457Y376681D01*
X355317Y376670D01*
X355176Y376663D01*
X355035Y376660D01*
X354894Y376661D01*
X354754Y376666D01*
X354613Y376675D01*
X354473Y376688D01*
X354333Y376705D01*
X354193Y376725D01*
X354055Y376750D01*
X353917Y376779D01*
X353780Y376811D01*
X353644Y376847D01*
X353509Y376888D01*
X353375Y376932D01*
X353242Y376979D01*
X353111Y377031D01*
X352981Y377086D01*
X352853Y377144D01*
X352727Y377207D01*
X352602Y377272D01*
X352480Y377342D01*
X352359Y377414D01*
X352240Y377490D01*
X352124Y377570D01*
X352010Y377653D01*
X351898Y377738D01*
X351789Y377827D01*
X351682Y377919D01*
X351578Y378014D01*
X351477Y378112D01*
X351378Y378213D01*
X351283Y378316D01*
X351190Y378422D01*
X351100Y378531D01*
X351014Y378642D01*
X350930Y378755D01*
X350850Y378871D01*
X350773Y378989D01*
X350700Y379109D01*
X350629Y379232D01*
X350563Y379356D01*
X350500Y379482D01*
X350440Y379609D01*
X350384Y379738D01*
X350332Y379869D01*
X350283Y380001D01*
X350238Y380135D01*
X350197Y380270D01*
X350160Y380406D01*
X350126Y380542D01*
X350097Y380680D01*
X350071Y380819D01*
X350050Y380958D01*
X350032Y381098D01*
X350018Y381238D01*
X350008Y381378D01*
X350002Y381519D01*
X350000Y381660D01*
D115*
X358700Y377960D02*
X428700Y377960D01*
D116*
X368700Y312900D02*
X363700Y312900D01*
X363700Y317900D01*
X418700Y312900D02*
X423700Y312900D01*
X423700Y317900D01*
M02*
