G04 EAGLE Gerber X2 export*
%TF.Part,Single*%
%TF.FileFunction,Soldermask,Bot,1*%
%TF.FilePolarity,Negative*%
%TF.GenerationSoftware,Autodesk,EAGLE,9.0.0*%
%TF.CreationDate,2018-05-04T17:55:18Z*%
G75*
%MOMM*%
%FSLAX34Y34*%
%LPD*%
%AMOC8*
5,1,8,0,0,1.08239X$1,22.5*%
G01*
%ADD10C,3.003200*%
%ADD11C,1.981200*%
%ADD12C,2.743200*%
%ADD13C,2.453200*%
%ADD14C,1.703200*%
%ADD15C,2.082800*%
%ADD16C,1.930400*%
%ADD17C,2.203200*%
%ADD18C,2.032000*%


D10*
X22500Y435600D03*
X22500Y9800D03*
X492500Y435600D03*
X490350Y9800D03*
D11*
X393700Y266700D03*
D12*
X29286Y342916D03*
D13*
X79286Y366916D03*
X79286Y318916D03*
X79286Y291916D03*
X79286Y393916D03*
D14*
X29286Y392916D03*
X29286Y292916D03*
X79286Y342916D03*
X4286Y392916D03*
X4286Y292916D03*
D15*
X152400Y285750D03*
X177800Y285750D03*
D16*
X88900Y444500D03*
X114300Y444500D03*
X139700Y444500D03*
D17*
X104100Y258100D02*
X104100Y238100D01*
X41100Y238100D02*
X41100Y258100D01*
X64100Y198100D02*
X84100Y198100D01*
D18*
X317500Y0D03*
X342900Y0D03*
X368300Y0D03*
X393700Y0D03*
X419100Y0D03*
X444500Y0D03*
X165100Y0D03*
X190500Y0D03*
X215900Y0D03*
X241300Y0D03*
X266700Y0D03*
X292100Y0D03*
X63500Y165100D03*
X63500Y139700D03*
X63500Y114300D03*
X63500Y88900D03*
X63500Y63500D03*
X63500Y38100D03*
X234950Y57150D03*
X234950Y82550D03*
X234950Y107950D03*
X234950Y133350D03*
X234950Y158750D03*
X234950Y184150D03*
X63500Y0D03*
X88900Y0D03*
X114300Y0D03*
X139700Y0D03*
D11*
X419100Y266700D03*
M02*
