G04 EAGLE Gerber X2 export*
%TF.Part,Single*%
%TF.FileFunction,Paste,Top*%
%TF.FilePolarity,Positive*%
%TF.GenerationSoftware,Autodesk,EAGLE,9.0.0*%
%TF.CreationDate,2018-05-04T17:52:43Z*%
G75*
%MOMM*%
%FSLAX34Y34*%
%LPD*%
%AMOC8*
5,1,8,0,0,1.08239X$1,22.5*%
G01*
%ADD10R,1.100000X1.400000*%
%ADD11R,1.000000X1.100000*%
%ADD12R,1.800000X1.600000*%
%ADD13R,1.050000X1.080000*%
%ADD14R,0.600000X1.600000*%
%ADD15R,0.600000X0.600000*%
%ADD16R,0.800000X0.800000*%
%ADD17R,1.500000X2.000000*%
%ADD18C,0.150000*%
%ADD19C,0.060000*%
%ADD20R,1.700000X2.400000*%
%ADD21R,0.900000X1.500000*%
%ADD22R,1.500000X0.900000*%
%ADD23R,6.000000X6.000000*%
%ADD24R,1.219200X2.235200*%
%ADD25R,3.600000X2.200000*%
%ADD26R,1.524000X2.286000*%


D10*
X453550Y330200D03*
X473550Y330200D03*
D11*
X438150Y404250D03*
X438150Y421250D03*
D12*
X133350Y229900D03*
X133350Y201900D03*
D13*
X269100Y311150D03*
X251600Y311150D03*
D12*
X241300Y248950D03*
X241300Y220950D03*
D13*
X320154Y402844D03*
X302654Y402844D03*
D10*
X219550Y336550D03*
X199550Y336550D03*
D13*
X218300Y361950D03*
X200800Y361950D03*
X404000Y292100D03*
X421500Y292100D03*
X319900Y336550D03*
X302400Y336550D03*
X454800Y368300D03*
X472300Y368300D03*
X302400Y285750D03*
X319900Y285750D03*
D10*
X321150Y381000D03*
X301150Y381000D03*
D13*
X319900Y361950D03*
X302400Y361950D03*
X454800Y349250D03*
X472300Y349250D03*
X320408Y418592D03*
X302908Y418592D03*
D10*
X270350Y336550D03*
X250350Y336550D03*
D13*
X454800Y311150D03*
X472300Y311150D03*
D11*
X361950Y404250D03*
X361950Y421250D03*
D14*
X250371Y393572D03*
X270350Y393600D03*
D15*
X260350Y387700D03*
X260350Y399500D03*
D14*
X168729Y317628D03*
X148750Y317600D03*
D15*
X158750Y323500D03*
X158750Y311700D03*
D14*
X168729Y412878D03*
X148750Y412850D03*
D15*
X158750Y418750D03*
X158750Y406950D03*
D16*
X438150Y278250D03*
X438150Y293250D03*
D17*
X173750Y349250D03*
X143750Y349250D03*
X173750Y381000D03*
X143750Y381000D03*
D11*
X472050Y292100D03*
X455050Y292100D03*
X201050Y311150D03*
X218050Y311150D03*
X353450Y266700D03*
X370450Y266700D03*
X218050Y412750D03*
X201050Y412750D03*
X319650Y311150D03*
X302650Y311150D03*
D13*
X218300Y387350D03*
X200800Y387350D03*
D18*
X379426Y329316D02*
X407926Y329316D01*
X379426Y329316D02*
X379426Y357816D01*
X407926Y357816D01*
X407926Y329316D01*
X407926Y330815D02*
X379426Y330815D01*
X379426Y332314D02*
X407926Y332314D01*
X407926Y333813D02*
X379426Y333813D01*
X379426Y335312D02*
X407926Y335312D01*
X407926Y336811D02*
X379426Y336811D01*
X379426Y338310D02*
X407926Y338310D01*
X407926Y339809D02*
X379426Y339809D01*
X379426Y341308D02*
X407926Y341308D01*
X407926Y342807D02*
X379426Y342807D01*
X379426Y344306D02*
X407926Y344306D01*
X407926Y345805D02*
X379426Y345805D01*
X379426Y347304D02*
X407926Y347304D01*
X407926Y348803D02*
X379426Y348803D01*
X379426Y350302D02*
X407926Y350302D01*
X407926Y351801D02*
X379426Y351801D01*
X379426Y353300D02*
X407926Y353300D01*
X407926Y354799D02*
X379426Y354799D01*
X379426Y356298D02*
X407926Y356298D01*
X407926Y357797D02*
X379426Y357797D01*
D19*
X361750Y364260D02*
X361750Y365660D01*
X367650Y365660D01*
X367650Y364260D01*
X361750Y364260D01*
X361750Y364859D02*
X367650Y364859D01*
X367650Y365458D02*
X361750Y365458D01*
X361750Y361660D02*
X361750Y360260D01*
X361750Y361660D02*
X367650Y361660D01*
X367650Y360260D01*
X361750Y360260D01*
X361750Y360859D02*
X367650Y360859D01*
X367650Y361458D02*
X361750Y361458D01*
X361750Y357660D02*
X361750Y356260D01*
X361750Y357660D02*
X367650Y357660D01*
X367650Y356260D01*
X361750Y356260D01*
X361750Y356859D02*
X367650Y356859D01*
X367650Y357458D02*
X361750Y357458D01*
X361750Y353660D02*
X361750Y352260D01*
X361750Y353660D02*
X367650Y353660D01*
X367650Y352260D01*
X361750Y352260D01*
X361750Y352859D02*
X367650Y352859D01*
X367650Y353458D02*
X361750Y353458D01*
X361750Y349660D02*
X361750Y348260D01*
X361750Y349660D02*
X367650Y349660D01*
X367650Y348260D01*
X361750Y348260D01*
X361750Y348859D02*
X367650Y348859D01*
X367650Y349458D02*
X361750Y349458D01*
X361750Y345660D02*
X361750Y344260D01*
X361750Y345660D02*
X367650Y345660D01*
X367650Y344260D01*
X361750Y344260D01*
X361750Y344859D02*
X367650Y344859D01*
X367650Y345458D02*
X361750Y345458D01*
X361750Y341660D02*
X361750Y340260D01*
X361750Y341660D02*
X367650Y341660D01*
X367650Y340260D01*
X361750Y340260D01*
X361750Y340859D02*
X367650Y340859D01*
X367650Y341458D02*
X361750Y341458D01*
X361750Y337660D02*
X361750Y336260D01*
X361750Y337660D02*
X367650Y337660D01*
X367650Y336260D01*
X361750Y336260D01*
X361750Y336859D02*
X367650Y336859D01*
X367650Y337458D02*
X361750Y337458D01*
X361750Y333660D02*
X361750Y332260D01*
X361750Y333660D02*
X367650Y333660D01*
X367650Y332260D01*
X361750Y332260D01*
X361750Y332859D02*
X367650Y332859D01*
X367650Y333458D02*
X361750Y333458D01*
X361750Y329660D02*
X361750Y328260D01*
X361750Y329660D02*
X367650Y329660D01*
X367650Y328260D01*
X361750Y328260D01*
X361750Y328859D02*
X367650Y328859D01*
X367650Y329458D02*
X361750Y329458D01*
X361750Y325660D02*
X361750Y324260D01*
X361750Y325660D02*
X367650Y325660D01*
X367650Y324260D01*
X361750Y324260D01*
X361750Y324859D02*
X367650Y324859D01*
X367650Y325458D02*
X361750Y325458D01*
X361750Y321660D02*
X361750Y320260D01*
X361750Y321660D02*
X367650Y321660D01*
X367650Y320260D01*
X361750Y320260D01*
X361750Y320859D02*
X367650Y320859D01*
X367650Y321458D02*
X361750Y321458D01*
X371000Y311010D02*
X372400Y311010D01*
X371000Y311010D02*
X371000Y316910D01*
X372400Y316910D01*
X372400Y311010D01*
X372400Y311609D02*
X371000Y311609D01*
X371000Y312208D02*
X372400Y312208D01*
X372400Y312807D02*
X371000Y312807D01*
X371000Y313406D02*
X372400Y313406D01*
X372400Y314005D02*
X371000Y314005D01*
X371000Y314604D02*
X372400Y314604D01*
X372400Y315203D02*
X371000Y315203D01*
X371000Y315802D02*
X372400Y315802D01*
X372400Y316401D02*
X371000Y316401D01*
X375000Y311010D02*
X376400Y311010D01*
X375000Y311010D02*
X375000Y316910D01*
X376400Y316910D01*
X376400Y311010D01*
X376400Y311609D02*
X375000Y311609D01*
X375000Y312208D02*
X376400Y312208D01*
X376400Y312807D02*
X375000Y312807D01*
X375000Y313406D02*
X376400Y313406D01*
X376400Y314005D02*
X375000Y314005D01*
X375000Y314604D02*
X376400Y314604D01*
X376400Y315203D02*
X375000Y315203D01*
X375000Y315802D02*
X376400Y315802D01*
X376400Y316401D02*
X375000Y316401D01*
X379000Y311010D02*
X380400Y311010D01*
X379000Y311010D02*
X379000Y316910D01*
X380400Y316910D01*
X380400Y311010D01*
X380400Y311609D02*
X379000Y311609D01*
X379000Y312208D02*
X380400Y312208D01*
X380400Y312807D02*
X379000Y312807D01*
X379000Y313406D02*
X380400Y313406D01*
X380400Y314005D02*
X379000Y314005D01*
X379000Y314604D02*
X380400Y314604D01*
X380400Y315203D02*
X379000Y315203D01*
X379000Y315802D02*
X380400Y315802D01*
X380400Y316401D02*
X379000Y316401D01*
X383000Y311010D02*
X384400Y311010D01*
X383000Y311010D02*
X383000Y316910D01*
X384400Y316910D01*
X384400Y311010D01*
X384400Y311609D02*
X383000Y311609D01*
X383000Y312208D02*
X384400Y312208D01*
X384400Y312807D02*
X383000Y312807D01*
X383000Y313406D02*
X384400Y313406D01*
X384400Y314005D02*
X383000Y314005D01*
X383000Y314604D02*
X384400Y314604D01*
X384400Y315203D02*
X383000Y315203D01*
X383000Y315802D02*
X384400Y315802D01*
X384400Y316401D02*
X383000Y316401D01*
X387000Y311010D02*
X388400Y311010D01*
X387000Y311010D02*
X387000Y316910D01*
X388400Y316910D01*
X388400Y311010D01*
X388400Y311609D02*
X387000Y311609D01*
X387000Y312208D02*
X388400Y312208D01*
X388400Y312807D02*
X387000Y312807D01*
X387000Y313406D02*
X388400Y313406D01*
X388400Y314005D02*
X387000Y314005D01*
X387000Y314604D02*
X388400Y314604D01*
X388400Y315203D02*
X387000Y315203D01*
X387000Y315802D02*
X388400Y315802D01*
X388400Y316401D02*
X387000Y316401D01*
X391000Y311010D02*
X392400Y311010D01*
X391000Y311010D02*
X391000Y316910D01*
X392400Y316910D01*
X392400Y311010D01*
X392400Y311609D02*
X391000Y311609D01*
X391000Y312208D02*
X392400Y312208D01*
X392400Y312807D02*
X391000Y312807D01*
X391000Y313406D02*
X392400Y313406D01*
X392400Y314005D02*
X391000Y314005D01*
X391000Y314604D02*
X392400Y314604D01*
X392400Y315203D02*
X391000Y315203D01*
X391000Y315802D02*
X392400Y315802D01*
X392400Y316401D02*
X391000Y316401D01*
X395000Y311010D02*
X396400Y311010D01*
X395000Y311010D02*
X395000Y316910D01*
X396400Y316910D01*
X396400Y311010D01*
X396400Y311609D02*
X395000Y311609D01*
X395000Y312208D02*
X396400Y312208D01*
X396400Y312807D02*
X395000Y312807D01*
X395000Y313406D02*
X396400Y313406D01*
X396400Y314005D02*
X395000Y314005D01*
X395000Y314604D02*
X396400Y314604D01*
X396400Y315203D02*
X395000Y315203D01*
X395000Y315802D02*
X396400Y315802D01*
X396400Y316401D02*
X395000Y316401D01*
X399000Y311010D02*
X400400Y311010D01*
X399000Y311010D02*
X399000Y316910D01*
X400400Y316910D01*
X400400Y311010D01*
X400400Y311609D02*
X399000Y311609D01*
X399000Y312208D02*
X400400Y312208D01*
X400400Y312807D02*
X399000Y312807D01*
X399000Y313406D02*
X400400Y313406D01*
X400400Y314005D02*
X399000Y314005D01*
X399000Y314604D02*
X400400Y314604D01*
X400400Y315203D02*
X399000Y315203D01*
X399000Y315802D02*
X400400Y315802D01*
X400400Y316401D02*
X399000Y316401D01*
X403000Y311010D02*
X404400Y311010D01*
X403000Y311010D02*
X403000Y316910D01*
X404400Y316910D01*
X404400Y311010D01*
X404400Y311609D02*
X403000Y311609D01*
X403000Y312208D02*
X404400Y312208D01*
X404400Y312807D02*
X403000Y312807D01*
X403000Y313406D02*
X404400Y313406D01*
X404400Y314005D02*
X403000Y314005D01*
X403000Y314604D02*
X404400Y314604D01*
X404400Y315203D02*
X403000Y315203D01*
X403000Y315802D02*
X404400Y315802D01*
X404400Y316401D02*
X403000Y316401D01*
X407000Y311010D02*
X408400Y311010D01*
X407000Y311010D02*
X407000Y316910D01*
X408400Y316910D01*
X408400Y311010D01*
X408400Y311609D02*
X407000Y311609D01*
X407000Y312208D02*
X408400Y312208D01*
X408400Y312807D02*
X407000Y312807D01*
X407000Y313406D02*
X408400Y313406D01*
X408400Y314005D02*
X407000Y314005D01*
X407000Y314604D02*
X408400Y314604D01*
X408400Y315203D02*
X407000Y315203D01*
X407000Y315802D02*
X408400Y315802D01*
X408400Y316401D02*
X407000Y316401D01*
X411000Y311010D02*
X412400Y311010D01*
X411000Y311010D02*
X411000Y316910D01*
X412400Y316910D01*
X412400Y311010D01*
X412400Y311609D02*
X411000Y311609D01*
X411000Y312208D02*
X412400Y312208D01*
X412400Y312807D02*
X411000Y312807D01*
X411000Y313406D02*
X412400Y313406D01*
X412400Y314005D02*
X411000Y314005D01*
X411000Y314604D02*
X412400Y314604D01*
X412400Y315203D02*
X411000Y315203D01*
X411000Y315802D02*
X412400Y315802D01*
X412400Y316401D02*
X411000Y316401D01*
X415000Y311010D02*
X416400Y311010D01*
X415000Y311010D02*
X415000Y316910D01*
X416400Y316910D01*
X416400Y311010D01*
X416400Y311609D02*
X415000Y311609D01*
X415000Y312208D02*
X416400Y312208D01*
X416400Y312807D02*
X415000Y312807D01*
X415000Y313406D02*
X416400Y313406D01*
X416400Y314005D02*
X415000Y314005D01*
X415000Y314604D02*
X416400Y314604D01*
X416400Y315203D02*
X415000Y315203D01*
X415000Y315802D02*
X416400Y315802D01*
X416400Y316401D02*
X415000Y316401D01*
X425650Y320260D02*
X425650Y321660D01*
X425650Y320260D02*
X419750Y320260D01*
X419750Y321660D01*
X425650Y321660D01*
X425650Y320859D02*
X419750Y320859D01*
X419750Y321458D02*
X425650Y321458D01*
X425650Y324260D02*
X425650Y325660D01*
X425650Y324260D02*
X419750Y324260D01*
X419750Y325660D01*
X425650Y325660D01*
X425650Y324859D02*
X419750Y324859D01*
X419750Y325458D02*
X425650Y325458D01*
X425650Y328260D02*
X425650Y329660D01*
X425650Y328260D02*
X419750Y328260D01*
X419750Y329660D01*
X425650Y329660D01*
X425650Y328859D02*
X419750Y328859D01*
X419750Y329458D02*
X425650Y329458D01*
X425650Y332260D02*
X425650Y333660D01*
X425650Y332260D02*
X419750Y332260D01*
X419750Y333660D01*
X425650Y333660D01*
X425650Y332859D02*
X419750Y332859D01*
X419750Y333458D02*
X425650Y333458D01*
X425650Y336260D02*
X425650Y337660D01*
X425650Y336260D02*
X419750Y336260D01*
X419750Y337660D01*
X425650Y337660D01*
X425650Y336859D02*
X419750Y336859D01*
X419750Y337458D02*
X425650Y337458D01*
X425650Y340260D02*
X425650Y341660D01*
X425650Y340260D02*
X419750Y340260D01*
X419750Y341660D01*
X425650Y341660D01*
X425650Y340859D02*
X419750Y340859D01*
X419750Y341458D02*
X425650Y341458D01*
X425650Y344260D02*
X425650Y345660D01*
X425650Y344260D02*
X419750Y344260D01*
X419750Y345660D01*
X425650Y345660D01*
X425650Y344859D02*
X419750Y344859D01*
X419750Y345458D02*
X425650Y345458D01*
X425650Y348260D02*
X425650Y349660D01*
X425650Y348260D02*
X419750Y348260D01*
X419750Y349660D01*
X425650Y349660D01*
X425650Y348859D02*
X419750Y348859D01*
X419750Y349458D02*
X425650Y349458D01*
X425650Y352260D02*
X425650Y353660D01*
X425650Y352260D02*
X419750Y352260D01*
X419750Y353660D01*
X425650Y353660D01*
X425650Y352859D02*
X419750Y352859D01*
X419750Y353458D02*
X425650Y353458D01*
X425650Y356260D02*
X425650Y357660D01*
X425650Y356260D02*
X419750Y356260D01*
X419750Y357660D01*
X425650Y357660D01*
X425650Y356859D02*
X419750Y356859D01*
X419750Y357458D02*
X425650Y357458D01*
X425650Y360260D02*
X425650Y361660D01*
X425650Y360260D02*
X419750Y360260D01*
X419750Y361660D01*
X425650Y361660D01*
X425650Y360859D02*
X419750Y360859D01*
X419750Y361458D02*
X425650Y361458D01*
X425650Y364260D02*
X425650Y365660D01*
X425650Y364260D02*
X419750Y364260D01*
X419750Y365660D01*
X425650Y365660D01*
X425650Y364859D02*
X419750Y364859D01*
X419750Y365458D02*
X425650Y365458D01*
X416400Y374910D02*
X415000Y374910D01*
X416400Y374910D02*
X416400Y369010D01*
X415000Y369010D01*
X415000Y374910D01*
X415000Y369609D02*
X416400Y369609D01*
X416400Y370208D02*
X415000Y370208D01*
X415000Y370807D02*
X416400Y370807D01*
X416400Y371406D02*
X415000Y371406D01*
X415000Y372005D02*
X416400Y372005D01*
X416400Y372604D02*
X415000Y372604D01*
X415000Y373203D02*
X416400Y373203D01*
X416400Y373802D02*
X415000Y373802D01*
X415000Y374401D02*
X416400Y374401D01*
X412400Y374910D02*
X411000Y374910D01*
X412400Y374910D02*
X412400Y369010D01*
X411000Y369010D01*
X411000Y374910D01*
X411000Y369609D02*
X412400Y369609D01*
X412400Y370208D02*
X411000Y370208D01*
X411000Y370807D02*
X412400Y370807D01*
X412400Y371406D02*
X411000Y371406D01*
X411000Y372005D02*
X412400Y372005D01*
X412400Y372604D02*
X411000Y372604D01*
X411000Y373203D02*
X412400Y373203D01*
X412400Y373802D02*
X411000Y373802D01*
X411000Y374401D02*
X412400Y374401D01*
X408400Y374910D02*
X407000Y374910D01*
X408400Y374910D02*
X408400Y369010D01*
X407000Y369010D01*
X407000Y374910D01*
X407000Y369609D02*
X408400Y369609D01*
X408400Y370208D02*
X407000Y370208D01*
X407000Y370807D02*
X408400Y370807D01*
X408400Y371406D02*
X407000Y371406D01*
X407000Y372005D02*
X408400Y372005D01*
X408400Y372604D02*
X407000Y372604D01*
X407000Y373203D02*
X408400Y373203D01*
X408400Y373802D02*
X407000Y373802D01*
X407000Y374401D02*
X408400Y374401D01*
X404400Y374910D02*
X403000Y374910D01*
X404400Y374910D02*
X404400Y369010D01*
X403000Y369010D01*
X403000Y374910D01*
X403000Y369609D02*
X404400Y369609D01*
X404400Y370208D02*
X403000Y370208D01*
X403000Y370807D02*
X404400Y370807D01*
X404400Y371406D02*
X403000Y371406D01*
X403000Y372005D02*
X404400Y372005D01*
X404400Y372604D02*
X403000Y372604D01*
X403000Y373203D02*
X404400Y373203D01*
X404400Y373802D02*
X403000Y373802D01*
X403000Y374401D02*
X404400Y374401D01*
X400400Y374910D02*
X399000Y374910D01*
X400400Y374910D02*
X400400Y369010D01*
X399000Y369010D01*
X399000Y374910D01*
X399000Y369609D02*
X400400Y369609D01*
X400400Y370208D02*
X399000Y370208D01*
X399000Y370807D02*
X400400Y370807D01*
X400400Y371406D02*
X399000Y371406D01*
X399000Y372005D02*
X400400Y372005D01*
X400400Y372604D02*
X399000Y372604D01*
X399000Y373203D02*
X400400Y373203D01*
X400400Y373802D02*
X399000Y373802D01*
X399000Y374401D02*
X400400Y374401D01*
X396400Y374910D02*
X395000Y374910D01*
X396400Y374910D02*
X396400Y369010D01*
X395000Y369010D01*
X395000Y374910D01*
X395000Y369609D02*
X396400Y369609D01*
X396400Y370208D02*
X395000Y370208D01*
X395000Y370807D02*
X396400Y370807D01*
X396400Y371406D02*
X395000Y371406D01*
X395000Y372005D02*
X396400Y372005D01*
X396400Y372604D02*
X395000Y372604D01*
X395000Y373203D02*
X396400Y373203D01*
X396400Y373802D02*
X395000Y373802D01*
X395000Y374401D02*
X396400Y374401D01*
X392400Y374910D02*
X391000Y374910D01*
X392400Y374910D02*
X392400Y369010D01*
X391000Y369010D01*
X391000Y374910D01*
X391000Y369609D02*
X392400Y369609D01*
X392400Y370208D02*
X391000Y370208D01*
X391000Y370807D02*
X392400Y370807D01*
X392400Y371406D02*
X391000Y371406D01*
X391000Y372005D02*
X392400Y372005D01*
X392400Y372604D02*
X391000Y372604D01*
X391000Y373203D02*
X392400Y373203D01*
X392400Y373802D02*
X391000Y373802D01*
X391000Y374401D02*
X392400Y374401D01*
X388400Y374910D02*
X387000Y374910D01*
X388400Y374910D02*
X388400Y369010D01*
X387000Y369010D01*
X387000Y374910D01*
X387000Y369609D02*
X388400Y369609D01*
X388400Y370208D02*
X387000Y370208D01*
X387000Y370807D02*
X388400Y370807D01*
X388400Y371406D02*
X387000Y371406D01*
X387000Y372005D02*
X388400Y372005D01*
X388400Y372604D02*
X387000Y372604D01*
X387000Y373203D02*
X388400Y373203D01*
X388400Y373802D02*
X387000Y373802D01*
X387000Y374401D02*
X388400Y374401D01*
X384400Y374910D02*
X383000Y374910D01*
X384400Y374910D02*
X384400Y369010D01*
X383000Y369010D01*
X383000Y374910D01*
X383000Y369609D02*
X384400Y369609D01*
X384400Y370208D02*
X383000Y370208D01*
X383000Y370807D02*
X384400Y370807D01*
X384400Y371406D02*
X383000Y371406D01*
X383000Y372005D02*
X384400Y372005D01*
X384400Y372604D02*
X383000Y372604D01*
X383000Y373203D02*
X384400Y373203D01*
X384400Y373802D02*
X383000Y373802D01*
X383000Y374401D02*
X384400Y374401D01*
X380400Y374910D02*
X379000Y374910D01*
X380400Y374910D02*
X380400Y369010D01*
X379000Y369010D01*
X379000Y374910D01*
X379000Y369609D02*
X380400Y369609D01*
X380400Y370208D02*
X379000Y370208D01*
X379000Y370807D02*
X380400Y370807D01*
X380400Y371406D02*
X379000Y371406D01*
X379000Y372005D02*
X380400Y372005D01*
X380400Y372604D02*
X379000Y372604D01*
X379000Y373203D02*
X380400Y373203D01*
X380400Y373802D02*
X379000Y373802D01*
X379000Y374401D02*
X380400Y374401D01*
X376400Y374910D02*
X375000Y374910D01*
X376400Y374910D02*
X376400Y369010D01*
X375000Y369010D01*
X375000Y374910D01*
X375000Y369609D02*
X376400Y369609D01*
X376400Y370208D02*
X375000Y370208D01*
X375000Y370807D02*
X376400Y370807D01*
X376400Y371406D02*
X375000Y371406D01*
X375000Y372005D02*
X376400Y372005D01*
X376400Y372604D02*
X375000Y372604D01*
X375000Y373203D02*
X376400Y373203D01*
X376400Y373802D02*
X375000Y373802D01*
X375000Y374401D02*
X376400Y374401D01*
X372400Y374910D02*
X371000Y374910D01*
X372400Y374910D02*
X372400Y369010D01*
X371000Y369010D01*
X371000Y374910D01*
X371000Y369609D02*
X372400Y369609D01*
X372400Y370208D02*
X371000Y370208D01*
X371000Y370807D02*
X372400Y370807D01*
X372400Y371406D02*
X371000Y371406D01*
X371000Y372005D02*
X372400Y372005D01*
X372400Y372604D02*
X371000Y372604D01*
X371000Y373203D02*
X372400Y373203D01*
X372400Y373802D02*
X371000Y373802D01*
X371000Y374401D02*
X372400Y374401D01*
D20*
X381550Y412750D03*
X418550Y412750D03*
D21*
X445300Y229700D03*
X432600Y229700D03*
X419900Y229700D03*
X407200Y229700D03*
X394500Y229700D03*
X381800Y229700D03*
X369100Y229700D03*
X356400Y229700D03*
X343700Y229700D03*
X331000Y229700D03*
X318300Y229700D03*
X305600Y229700D03*
X292900Y229700D03*
X280200Y229700D03*
D22*
X265300Y196850D03*
X265300Y184150D03*
X265300Y171450D03*
X265300Y158750D03*
X265300Y146050D03*
X265300Y133350D03*
X265300Y120650D03*
X265300Y107950D03*
X265300Y95250D03*
X265300Y82550D03*
D21*
X280200Y49700D03*
X292900Y49700D03*
X305600Y49700D03*
X318300Y49700D03*
X331000Y49700D03*
X343700Y49700D03*
X356400Y49700D03*
X369100Y49700D03*
X381800Y49700D03*
X394500Y49700D03*
X407200Y49700D03*
X419900Y49700D03*
X432600Y49700D03*
X445300Y49700D03*
D23*
X368300Y139700D03*
D11*
X120000Y180200D03*
X137000Y180200D03*
X119656Y156350D03*
X136656Y156350D03*
D24*
X161436Y183812D03*
X184550Y183812D03*
X207664Y183812D03*
D25*
X184550Y245790D03*
D13*
X191442Y156042D03*
X208942Y156042D03*
D26*
X89916Y65278D03*
X89916Y131318D03*
X135636Y65278D03*
X135636Y131318D03*
X166624Y65024D03*
X166624Y131064D03*
X212344Y65024D03*
X212344Y131064D03*
M02*
