M48
;GenerationSoftware,Autodesk,EAGLE,9.0.0*%
;CreationDate,2018-05-01T01:03:05Z*%
FMAT,2
ICI,OFF
METRIC,TZ,000.000
T8C0.350
T7C0.600
T6C0.889
T5C0.900
T4C1.000
T3C1.016
T2C1.500
T1C2.750
%
G90
M71
T1
X2635Y-465
X2635Y22535
X60635Y-465
X60635Y22535
T2
X2929Y6432
X7929Y16532
X7929Y6332
X7929Y9032
X7929Y13832
X2929Y11432
X429Y6432
X429Y16432
X7929Y11432
X2929Y16432
T3
X58792Y2769
X16510Y5715
X13970Y5715
X61332Y2769
T4
X17665Y-1735
X17665Y805
X20205Y-1735
X20205Y805
X22745Y-1735
X22745Y805
X25285Y-1735
X25285Y805
X27825Y-1735
X27825Y805
X30365Y-1735
X30365Y805
X32905Y-1735
X32905Y805
X10045Y805
X12585Y-1735
X10045Y-1735
X7505Y805
X7505Y-1735
X40525Y805
X43065Y-1735
X43065Y805
X40525Y-1735
X35445Y-1735
X45605Y-1735
X45605Y805
X48145Y-1735
X48145Y805
X15125Y805
X15125Y-1735
X12585Y805
X35445Y805
X37985Y-1735
X37985Y805
X55765Y805
X55765Y-1735
X53225Y805
X53225Y-1735
X50685Y805
X50685Y-1735
T5
X30480Y24130
X33020Y24130
X35560Y24130
X38100Y24130
X43180Y24130
X45720Y24130
X48260Y24130
X40640Y24130
T6
X12700Y24130
X10160Y24130
X7620Y24130
X39446Y4166
T7
X36246Y5055
X36982Y7137
X22225Y10795
X27584Y11100
X17145Y17145
X32385Y15875
X17145Y10160
X32385Y14605
X45085Y17780
X31826Y21234
X28245Y5334
X33020Y8255
X32334Y19279
X36728Y-432
X27762Y13132
X14986Y20269
X22225Y12700
X12065Y10160
X32385Y13335
X24130Y5080
X32614Y5715
X27940Y9525
X27686Y17831
X35560Y6985
X42545Y14605
X33655Y18415
X43815Y18415
X47625Y13970
X37617Y15392
X34915Y14646
X38100Y11430
T8
X23180Y7305
M30