G75*
%MOIN*%
%OFA0B0*%
%FSLAX25Y25*%
%IPPOS*%
%LPD*%
%AMOC8*
5,1,8,0,0,1.08239X$1,22.5*
%
%ADD10C,0.00394*%
%ADD11C,0.00000*%
%ADD12C,0.00500*%
D10*
X0021006Y0001312D02*
X0022674Y0001212D01*
X0021074Y0001312D02*
X0020783Y0001364D01*
X0020494Y0001423D01*
X0020205Y0001488D01*
X0019919Y0001561D01*
X0019634Y0001640D01*
X0019352Y0001727D01*
X0019071Y0001820D01*
X0018793Y0001920D01*
X0018517Y0002027D01*
X0018245Y0002140D01*
X0017974Y0002260D01*
X0017707Y0002387D01*
X0017443Y0002519D01*
X0017183Y0002659D01*
X0016925Y0002804D01*
X0016672Y0002956D01*
X0016422Y0003114D01*
X0016176Y0003278D01*
X0015934Y0003447D01*
X0015696Y0003623D01*
X0015463Y0003804D01*
X0015234Y0003991D01*
X0015009Y0004183D01*
X0014790Y0004381D01*
X0014575Y0004584D01*
X0014365Y0004792D01*
X0014160Y0005005D01*
X0013961Y0005223D01*
X0013767Y0005446D01*
X0013578Y0005674D01*
X0013395Y0005906D01*
X0013218Y0006142D01*
X0013046Y0006383D01*
X0012880Y0006627D01*
X0012720Y0006876D01*
X0012567Y0007128D01*
X0012419Y0007384D01*
X0012278Y0007644D01*
X0012143Y0007907D01*
X0012014Y0008173D01*
X0011892Y0008442D01*
X0011776Y0008714D01*
X0011668Y0008989D01*
X0011565Y0009266D01*
X0011470Y0009546D01*
X0011381Y0009828D01*
X0011299Y0010112D01*
X0011225Y0010398D01*
X0011157Y0010685D01*
X0011096Y0010974D01*
X0011042Y0011265D01*
X0010995Y0011557D01*
X0010955Y0011850D01*
X0010922Y0012143D01*
X0010897Y0012438D01*
X0010878Y0012733D01*
X0010867Y0013028D01*
X0010863Y0013324D01*
D11*
X0019261Y0015030D02*
X0019263Y0015177D01*
X0019269Y0015323D01*
X0019279Y0015469D01*
X0019293Y0015615D01*
X0019311Y0015761D01*
X0019332Y0015906D01*
X0019358Y0016050D01*
X0019388Y0016194D01*
X0019421Y0016336D01*
X0019458Y0016478D01*
X0019499Y0016619D01*
X0019544Y0016758D01*
X0019593Y0016897D01*
X0019645Y0017034D01*
X0019702Y0017169D01*
X0019761Y0017303D01*
X0019825Y0017435D01*
X0019892Y0017565D01*
X0019962Y0017694D01*
X0020036Y0017821D01*
X0020113Y0017945D01*
X0020194Y0018068D01*
X0020278Y0018188D01*
X0020365Y0018306D01*
X0020455Y0018421D01*
X0020548Y0018534D01*
X0020645Y0018645D01*
X0020744Y0018753D01*
X0020846Y0018858D01*
X0020951Y0018960D01*
X0021059Y0019059D01*
X0021170Y0019156D01*
X0021283Y0019249D01*
X0021398Y0019339D01*
X0021516Y0019426D01*
X0021636Y0019510D01*
X0021759Y0019591D01*
X0021883Y0019668D01*
X0022010Y0019742D01*
X0022139Y0019812D01*
X0022269Y0019879D01*
X0022401Y0019943D01*
X0022535Y0020002D01*
X0022670Y0020059D01*
X0022807Y0020111D01*
X0022946Y0020160D01*
X0023085Y0020205D01*
X0023226Y0020246D01*
X0023368Y0020283D01*
X0023510Y0020316D01*
X0023654Y0020346D01*
X0023798Y0020372D01*
X0023943Y0020393D01*
X0024089Y0020411D01*
X0024235Y0020425D01*
X0024381Y0020435D01*
X0024527Y0020441D01*
X0024674Y0020443D01*
X0024821Y0020441D01*
X0024967Y0020435D01*
X0025113Y0020425D01*
X0025259Y0020411D01*
X0025405Y0020393D01*
X0025550Y0020372D01*
X0025694Y0020346D01*
X0025838Y0020316D01*
X0025980Y0020283D01*
X0026122Y0020246D01*
X0026263Y0020205D01*
X0026402Y0020160D01*
X0026541Y0020111D01*
X0026678Y0020059D01*
X0026813Y0020002D01*
X0026947Y0019943D01*
X0027079Y0019879D01*
X0027209Y0019812D01*
X0027338Y0019742D01*
X0027465Y0019668D01*
X0027589Y0019591D01*
X0027712Y0019510D01*
X0027832Y0019426D01*
X0027950Y0019339D01*
X0028065Y0019249D01*
X0028178Y0019156D01*
X0028289Y0019059D01*
X0028397Y0018960D01*
X0028502Y0018858D01*
X0028604Y0018753D01*
X0028703Y0018645D01*
X0028800Y0018534D01*
X0028893Y0018421D01*
X0028983Y0018306D01*
X0029070Y0018188D01*
X0029154Y0018068D01*
X0029235Y0017945D01*
X0029312Y0017821D01*
X0029386Y0017694D01*
X0029456Y0017565D01*
X0029523Y0017435D01*
X0029587Y0017303D01*
X0029646Y0017169D01*
X0029703Y0017034D01*
X0029755Y0016897D01*
X0029804Y0016758D01*
X0029849Y0016619D01*
X0029890Y0016478D01*
X0029927Y0016336D01*
X0029960Y0016194D01*
X0029990Y0016050D01*
X0030016Y0015906D01*
X0030037Y0015761D01*
X0030055Y0015615D01*
X0030069Y0015469D01*
X0030079Y0015323D01*
X0030085Y0015177D01*
X0030087Y0015030D01*
X0030085Y0014883D01*
X0030079Y0014737D01*
X0030069Y0014591D01*
X0030055Y0014445D01*
X0030037Y0014299D01*
X0030016Y0014154D01*
X0029990Y0014010D01*
X0029960Y0013866D01*
X0029927Y0013724D01*
X0029890Y0013582D01*
X0029849Y0013441D01*
X0029804Y0013302D01*
X0029755Y0013163D01*
X0029703Y0013026D01*
X0029646Y0012891D01*
X0029587Y0012757D01*
X0029523Y0012625D01*
X0029456Y0012495D01*
X0029386Y0012366D01*
X0029312Y0012239D01*
X0029235Y0012115D01*
X0029154Y0011992D01*
X0029070Y0011872D01*
X0028983Y0011754D01*
X0028893Y0011639D01*
X0028800Y0011526D01*
X0028703Y0011415D01*
X0028604Y0011307D01*
X0028502Y0011202D01*
X0028397Y0011100D01*
X0028289Y0011001D01*
X0028178Y0010904D01*
X0028065Y0010811D01*
X0027950Y0010721D01*
X0027832Y0010634D01*
X0027712Y0010550D01*
X0027589Y0010469D01*
X0027465Y0010392D01*
X0027338Y0010318D01*
X0027209Y0010248D01*
X0027079Y0010181D01*
X0026947Y0010117D01*
X0026813Y0010058D01*
X0026678Y0010001D01*
X0026541Y0009949D01*
X0026402Y0009900D01*
X0026263Y0009855D01*
X0026122Y0009814D01*
X0025980Y0009777D01*
X0025838Y0009744D01*
X0025694Y0009714D01*
X0025550Y0009688D01*
X0025405Y0009667D01*
X0025259Y0009649D01*
X0025113Y0009635D01*
X0024967Y0009625D01*
X0024821Y0009619D01*
X0024674Y0009617D01*
X0024527Y0009619D01*
X0024381Y0009625D01*
X0024235Y0009635D01*
X0024089Y0009649D01*
X0023943Y0009667D01*
X0023798Y0009688D01*
X0023654Y0009714D01*
X0023510Y0009744D01*
X0023368Y0009777D01*
X0023226Y0009814D01*
X0023085Y0009855D01*
X0022946Y0009900D01*
X0022807Y0009949D01*
X0022670Y0010001D01*
X0022535Y0010058D01*
X0022401Y0010117D01*
X0022269Y0010181D01*
X0022139Y0010248D01*
X0022010Y0010318D01*
X0021883Y0010392D01*
X0021759Y0010469D01*
X0021636Y0010550D01*
X0021516Y0010634D01*
X0021398Y0010721D01*
X0021283Y0010811D01*
X0021170Y0010904D01*
X0021059Y0011001D01*
X0020951Y0011100D01*
X0020846Y0011202D01*
X0020744Y0011307D01*
X0020645Y0011415D01*
X0020548Y0011526D01*
X0020455Y0011639D01*
X0020365Y0011754D01*
X0020278Y0011872D01*
X0020194Y0011992D01*
X0020113Y0012115D01*
X0020036Y0012239D01*
X0019962Y0012366D01*
X0019892Y0012495D01*
X0019825Y0012625D01*
X0019761Y0012757D01*
X0019702Y0012891D01*
X0019645Y0013026D01*
X0019593Y0013163D01*
X0019544Y0013302D01*
X0019499Y0013441D01*
X0019458Y0013582D01*
X0019421Y0013724D01*
X0019388Y0013866D01*
X0019358Y0014010D01*
X0019332Y0014154D01*
X0019311Y0014299D01*
X0019293Y0014445D01*
X0019279Y0014591D01*
X0019269Y0014737D01*
X0019263Y0014883D01*
X0019261Y0015030D01*
X0013034Y0042181D02*
X0013036Y0042289D01*
X0013042Y0042398D01*
X0013052Y0042506D01*
X0013066Y0042613D01*
X0013084Y0042720D01*
X0013105Y0042827D01*
X0013131Y0042932D01*
X0013161Y0043037D01*
X0013194Y0043140D01*
X0013231Y0043242D01*
X0013272Y0043342D01*
X0013316Y0043441D01*
X0013365Y0043539D01*
X0013416Y0043634D01*
X0013471Y0043727D01*
X0013530Y0043819D01*
X0013592Y0043908D01*
X0013657Y0043995D01*
X0013725Y0044079D01*
X0013796Y0044161D01*
X0013870Y0044240D01*
X0013947Y0044316D01*
X0014027Y0044390D01*
X0014110Y0044460D01*
X0014195Y0044528D01*
X0014282Y0044592D01*
X0014372Y0044653D01*
X0014464Y0044711D01*
X0014558Y0044765D01*
X0014654Y0044816D01*
X0014751Y0044863D01*
X0014851Y0044907D01*
X0014952Y0044947D01*
X0015054Y0044983D01*
X0015157Y0045015D01*
X0015262Y0045044D01*
X0015368Y0045068D01*
X0015474Y0045089D01*
X0015581Y0045106D01*
X0015689Y0045119D01*
X0015797Y0045128D01*
X0015906Y0045133D01*
X0016014Y0045134D01*
X0016123Y0045131D01*
X0016231Y0045124D01*
X0016339Y0045113D01*
X0016446Y0045098D01*
X0016553Y0045079D01*
X0016659Y0045056D01*
X0016764Y0045030D01*
X0016869Y0044999D01*
X0016971Y0044965D01*
X0017073Y0044927D01*
X0017173Y0044885D01*
X0017272Y0044840D01*
X0017369Y0044791D01*
X0017463Y0044738D01*
X0017556Y0044682D01*
X0017647Y0044623D01*
X0017736Y0044560D01*
X0017822Y0044495D01*
X0017906Y0044426D01*
X0017987Y0044354D01*
X0018065Y0044279D01*
X0018141Y0044201D01*
X0018214Y0044120D01*
X0018284Y0044037D01*
X0018350Y0043952D01*
X0018414Y0043864D01*
X0018474Y0043773D01*
X0018531Y0043681D01*
X0018584Y0043586D01*
X0018634Y0043490D01*
X0018680Y0043392D01*
X0018723Y0043292D01*
X0018762Y0043191D01*
X0018797Y0043088D01*
X0018829Y0042985D01*
X0018856Y0042880D01*
X0018880Y0042774D01*
X0018900Y0042667D01*
X0018916Y0042560D01*
X0018928Y0042452D01*
X0018936Y0042344D01*
X0018940Y0042235D01*
X0018940Y0042127D01*
X0018936Y0042018D01*
X0018928Y0041910D01*
X0018916Y0041802D01*
X0018900Y0041695D01*
X0018880Y0041588D01*
X0018856Y0041482D01*
X0018829Y0041377D01*
X0018797Y0041274D01*
X0018762Y0041171D01*
X0018723Y0041070D01*
X0018680Y0040970D01*
X0018634Y0040872D01*
X0018584Y0040776D01*
X0018531Y0040681D01*
X0018474Y0040589D01*
X0018414Y0040498D01*
X0018350Y0040410D01*
X0018284Y0040325D01*
X0018214Y0040242D01*
X0018141Y0040161D01*
X0018065Y0040083D01*
X0017987Y0040008D01*
X0017906Y0039936D01*
X0017822Y0039867D01*
X0017736Y0039802D01*
X0017647Y0039739D01*
X0017556Y0039680D01*
X0017464Y0039624D01*
X0017369Y0039571D01*
X0017272Y0039522D01*
X0017173Y0039477D01*
X0017073Y0039435D01*
X0016971Y0039397D01*
X0016869Y0039363D01*
X0016764Y0039332D01*
X0016659Y0039306D01*
X0016553Y0039283D01*
X0016446Y0039264D01*
X0016339Y0039249D01*
X0016231Y0039238D01*
X0016123Y0039231D01*
X0016014Y0039228D01*
X0015906Y0039229D01*
X0015797Y0039234D01*
X0015689Y0039243D01*
X0015581Y0039256D01*
X0015474Y0039273D01*
X0015368Y0039294D01*
X0015262Y0039318D01*
X0015157Y0039347D01*
X0015054Y0039379D01*
X0014952Y0039415D01*
X0014851Y0039455D01*
X0014751Y0039499D01*
X0014654Y0039546D01*
X0014558Y0039597D01*
X0014464Y0039651D01*
X0014372Y0039709D01*
X0014282Y0039770D01*
X0014195Y0039834D01*
X0014110Y0039902D01*
X0014027Y0039972D01*
X0013947Y0040046D01*
X0013870Y0040122D01*
X0013796Y0040201D01*
X0013725Y0040283D01*
X0013657Y0040367D01*
X0013592Y0040454D01*
X0013530Y0040543D01*
X0013471Y0040635D01*
X0013416Y0040728D01*
X0013365Y0040823D01*
X0013316Y0040921D01*
X0013272Y0041020D01*
X0013231Y0041120D01*
X0013194Y0041222D01*
X0013161Y0041325D01*
X0013131Y0041430D01*
X0013105Y0041535D01*
X0013084Y0041642D01*
X0013066Y0041749D01*
X0013052Y0041856D01*
X0013042Y0041964D01*
X0013036Y0042073D01*
X0013034Y0042181D01*
X0022877Y0042181D02*
X0022879Y0042289D01*
X0022885Y0042398D01*
X0022895Y0042506D01*
X0022909Y0042613D01*
X0022927Y0042720D01*
X0022948Y0042827D01*
X0022974Y0042932D01*
X0023004Y0043037D01*
X0023037Y0043140D01*
X0023074Y0043242D01*
X0023115Y0043342D01*
X0023159Y0043441D01*
X0023208Y0043539D01*
X0023259Y0043634D01*
X0023314Y0043727D01*
X0023373Y0043819D01*
X0023435Y0043908D01*
X0023500Y0043995D01*
X0023568Y0044079D01*
X0023639Y0044161D01*
X0023713Y0044240D01*
X0023790Y0044316D01*
X0023870Y0044390D01*
X0023953Y0044460D01*
X0024038Y0044528D01*
X0024125Y0044592D01*
X0024215Y0044653D01*
X0024307Y0044711D01*
X0024401Y0044765D01*
X0024497Y0044816D01*
X0024594Y0044863D01*
X0024694Y0044907D01*
X0024795Y0044947D01*
X0024897Y0044983D01*
X0025000Y0045015D01*
X0025105Y0045044D01*
X0025211Y0045068D01*
X0025317Y0045089D01*
X0025424Y0045106D01*
X0025532Y0045119D01*
X0025640Y0045128D01*
X0025749Y0045133D01*
X0025857Y0045134D01*
X0025966Y0045131D01*
X0026074Y0045124D01*
X0026182Y0045113D01*
X0026289Y0045098D01*
X0026396Y0045079D01*
X0026502Y0045056D01*
X0026607Y0045030D01*
X0026712Y0044999D01*
X0026814Y0044965D01*
X0026916Y0044927D01*
X0027016Y0044885D01*
X0027115Y0044840D01*
X0027212Y0044791D01*
X0027306Y0044738D01*
X0027399Y0044682D01*
X0027490Y0044623D01*
X0027579Y0044560D01*
X0027665Y0044495D01*
X0027749Y0044426D01*
X0027830Y0044354D01*
X0027908Y0044279D01*
X0027984Y0044201D01*
X0028057Y0044120D01*
X0028127Y0044037D01*
X0028193Y0043952D01*
X0028257Y0043864D01*
X0028317Y0043773D01*
X0028374Y0043681D01*
X0028427Y0043586D01*
X0028477Y0043490D01*
X0028523Y0043392D01*
X0028566Y0043292D01*
X0028605Y0043191D01*
X0028640Y0043088D01*
X0028672Y0042985D01*
X0028699Y0042880D01*
X0028723Y0042774D01*
X0028743Y0042667D01*
X0028759Y0042560D01*
X0028771Y0042452D01*
X0028779Y0042344D01*
X0028783Y0042235D01*
X0028783Y0042127D01*
X0028779Y0042018D01*
X0028771Y0041910D01*
X0028759Y0041802D01*
X0028743Y0041695D01*
X0028723Y0041588D01*
X0028699Y0041482D01*
X0028672Y0041377D01*
X0028640Y0041274D01*
X0028605Y0041171D01*
X0028566Y0041070D01*
X0028523Y0040970D01*
X0028477Y0040872D01*
X0028427Y0040776D01*
X0028374Y0040681D01*
X0028317Y0040589D01*
X0028257Y0040498D01*
X0028193Y0040410D01*
X0028127Y0040325D01*
X0028057Y0040242D01*
X0027984Y0040161D01*
X0027908Y0040083D01*
X0027830Y0040008D01*
X0027749Y0039936D01*
X0027665Y0039867D01*
X0027579Y0039802D01*
X0027490Y0039739D01*
X0027399Y0039680D01*
X0027307Y0039624D01*
X0027212Y0039571D01*
X0027115Y0039522D01*
X0027016Y0039477D01*
X0026916Y0039435D01*
X0026814Y0039397D01*
X0026712Y0039363D01*
X0026607Y0039332D01*
X0026502Y0039306D01*
X0026396Y0039283D01*
X0026289Y0039264D01*
X0026182Y0039249D01*
X0026074Y0039238D01*
X0025966Y0039231D01*
X0025857Y0039228D01*
X0025749Y0039229D01*
X0025640Y0039234D01*
X0025532Y0039243D01*
X0025424Y0039256D01*
X0025317Y0039273D01*
X0025211Y0039294D01*
X0025105Y0039318D01*
X0025000Y0039347D01*
X0024897Y0039379D01*
X0024795Y0039415D01*
X0024694Y0039455D01*
X0024594Y0039499D01*
X0024497Y0039546D01*
X0024401Y0039597D01*
X0024307Y0039651D01*
X0024215Y0039709D01*
X0024125Y0039770D01*
X0024038Y0039834D01*
X0023953Y0039902D01*
X0023870Y0039972D01*
X0023790Y0040046D01*
X0023713Y0040122D01*
X0023639Y0040201D01*
X0023568Y0040283D01*
X0023500Y0040367D01*
X0023435Y0040454D01*
X0023373Y0040543D01*
X0023314Y0040635D01*
X0023259Y0040728D01*
X0023208Y0040823D01*
X0023159Y0040921D01*
X0023115Y0041020D01*
X0023074Y0041120D01*
X0023037Y0041222D01*
X0023004Y0041325D01*
X0022974Y0041430D01*
X0022948Y0041535D01*
X0022927Y0041642D01*
X0022909Y0041749D01*
X0022895Y0041856D01*
X0022885Y0041964D01*
X0022879Y0042073D01*
X0022877Y0042181D01*
X0042562Y0061867D02*
X0042564Y0061975D01*
X0042570Y0062084D01*
X0042580Y0062192D01*
X0042594Y0062299D01*
X0042612Y0062406D01*
X0042633Y0062513D01*
X0042659Y0062618D01*
X0042689Y0062723D01*
X0042722Y0062826D01*
X0042759Y0062928D01*
X0042800Y0063028D01*
X0042844Y0063127D01*
X0042893Y0063225D01*
X0042944Y0063320D01*
X0042999Y0063413D01*
X0043058Y0063505D01*
X0043120Y0063594D01*
X0043185Y0063681D01*
X0043253Y0063765D01*
X0043324Y0063847D01*
X0043398Y0063926D01*
X0043475Y0064002D01*
X0043555Y0064076D01*
X0043638Y0064146D01*
X0043723Y0064214D01*
X0043810Y0064278D01*
X0043900Y0064339D01*
X0043992Y0064397D01*
X0044086Y0064451D01*
X0044182Y0064502D01*
X0044279Y0064549D01*
X0044379Y0064593D01*
X0044480Y0064633D01*
X0044582Y0064669D01*
X0044685Y0064701D01*
X0044790Y0064730D01*
X0044896Y0064754D01*
X0045002Y0064775D01*
X0045109Y0064792D01*
X0045217Y0064805D01*
X0045325Y0064814D01*
X0045434Y0064819D01*
X0045542Y0064820D01*
X0045651Y0064817D01*
X0045759Y0064810D01*
X0045867Y0064799D01*
X0045974Y0064784D01*
X0046081Y0064765D01*
X0046187Y0064742D01*
X0046292Y0064716D01*
X0046397Y0064685D01*
X0046499Y0064651D01*
X0046601Y0064613D01*
X0046701Y0064571D01*
X0046800Y0064526D01*
X0046897Y0064477D01*
X0046991Y0064424D01*
X0047084Y0064368D01*
X0047175Y0064309D01*
X0047264Y0064246D01*
X0047350Y0064181D01*
X0047434Y0064112D01*
X0047515Y0064040D01*
X0047593Y0063965D01*
X0047669Y0063887D01*
X0047742Y0063806D01*
X0047812Y0063723D01*
X0047878Y0063638D01*
X0047942Y0063550D01*
X0048002Y0063459D01*
X0048059Y0063367D01*
X0048112Y0063272D01*
X0048162Y0063176D01*
X0048208Y0063078D01*
X0048251Y0062978D01*
X0048290Y0062877D01*
X0048325Y0062774D01*
X0048357Y0062671D01*
X0048384Y0062566D01*
X0048408Y0062460D01*
X0048428Y0062353D01*
X0048444Y0062246D01*
X0048456Y0062138D01*
X0048464Y0062030D01*
X0048468Y0061921D01*
X0048468Y0061813D01*
X0048464Y0061704D01*
X0048456Y0061596D01*
X0048444Y0061488D01*
X0048428Y0061381D01*
X0048408Y0061274D01*
X0048384Y0061168D01*
X0048357Y0061063D01*
X0048325Y0060960D01*
X0048290Y0060857D01*
X0048251Y0060756D01*
X0048208Y0060656D01*
X0048162Y0060558D01*
X0048112Y0060462D01*
X0048059Y0060367D01*
X0048002Y0060275D01*
X0047942Y0060184D01*
X0047878Y0060096D01*
X0047812Y0060011D01*
X0047742Y0059928D01*
X0047669Y0059847D01*
X0047593Y0059769D01*
X0047515Y0059694D01*
X0047434Y0059622D01*
X0047350Y0059553D01*
X0047264Y0059488D01*
X0047175Y0059425D01*
X0047084Y0059366D01*
X0046992Y0059310D01*
X0046897Y0059257D01*
X0046800Y0059208D01*
X0046701Y0059163D01*
X0046601Y0059121D01*
X0046499Y0059083D01*
X0046397Y0059049D01*
X0046292Y0059018D01*
X0046187Y0058992D01*
X0046081Y0058969D01*
X0045974Y0058950D01*
X0045867Y0058935D01*
X0045759Y0058924D01*
X0045651Y0058917D01*
X0045542Y0058914D01*
X0045434Y0058915D01*
X0045325Y0058920D01*
X0045217Y0058929D01*
X0045109Y0058942D01*
X0045002Y0058959D01*
X0044896Y0058980D01*
X0044790Y0059004D01*
X0044685Y0059033D01*
X0044582Y0059065D01*
X0044480Y0059101D01*
X0044379Y0059141D01*
X0044279Y0059185D01*
X0044182Y0059232D01*
X0044086Y0059283D01*
X0043992Y0059337D01*
X0043900Y0059395D01*
X0043810Y0059456D01*
X0043723Y0059520D01*
X0043638Y0059588D01*
X0043555Y0059658D01*
X0043475Y0059732D01*
X0043398Y0059808D01*
X0043324Y0059887D01*
X0043253Y0059969D01*
X0043185Y0060053D01*
X0043120Y0060140D01*
X0043058Y0060229D01*
X0042999Y0060321D01*
X0042944Y0060414D01*
X0042893Y0060509D01*
X0042844Y0060607D01*
X0042800Y0060706D01*
X0042759Y0060806D01*
X0042722Y0060908D01*
X0042689Y0061011D01*
X0042659Y0061116D01*
X0042633Y0061221D01*
X0042612Y0061328D01*
X0042594Y0061435D01*
X0042580Y0061542D01*
X0042570Y0061650D01*
X0042564Y0061759D01*
X0042562Y0061867D01*
X0022877Y0081552D02*
X0022879Y0081660D01*
X0022885Y0081769D01*
X0022895Y0081877D01*
X0022909Y0081984D01*
X0022927Y0082091D01*
X0022948Y0082198D01*
X0022974Y0082303D01*
X0023004Y0082408D01*
X0023037Y0082511D01*
X0023074Y0082613D01*
X0023115Y0082713D01*
X0023159Y0082812D01*
X0023208Y0082910D01*
X0023259Y0083005D01*
X0023314Y0083098D01*
X0023373Y0083190D01*
X0023435Y0083279D01*
X0023500Y0083366D01*
X0023568Y0083450D01*
X0023639Y0083532D01*
X0023713Y0083611D01*
X0023790Y0083687D01*
X0023870Y0083761D01*
X0023953Y0083831D01*
X0024038Y0083899D01*
X0024125Y0083963D01*
X0024215Y0084024D01*
X0024307Y0084082D01*
X0024401Y0084136D01*
X0024497Y0084187D01*
X0024594Y0084234D01*
X0024694Y0084278D01*
X0024795Y0084318D01*
X0024897Y0084354D01*
X0025000Y0084386D01*
X0025105Y0084415D01*
X0025211Y0084439D01*
X0025317Y0084460D01*
X0025424Y0084477D01*
X0025532Y0084490D01*
X0025640Y0084499D01*
X0025749Y0084504D01*
X0025857Y0084505D01*
X0025966Y0084502D01*
X0026074Y0084495D01*
X0026182Y0084484D01*
X0026289Y0084469D01*
X0026396Y0084450D01*
X0026502Y0084427D01*
X0026607Y0084401D01*
X0026712Y0084370D01*
X0026814Y0084336D01*
X0026916Y0084298D01*
X0027016Y0084256D01*
X0027115Y0084211D01*
X0027212Y0084162D01*
X0027306Y0084109D01*
X0027399Y0084053D01*
X0027490Y0083994D01*
X0027579Y0083931D01*
X0027665Y0083866D01*
X0027749Y0083797D01*
X0027830Y0083725D01*
X0027908Y0083650D01*
X0027984Y0083572D01*
X0028057Y0083491D01*
X0028127Y0083408D01*
X0028193Y0083323D01*
X0028257Y0083235D01*
X0028317Y0083144D01*
X0028374Y0083052D01*
X0028427Y0082957D01*
X0028477Y0082861D01*
X0028523Y0082763D01*
X0028566Y0082663D01*
X0028605Y0082562D01*
X0028640Y0082459D01*
X0028672Y0082356D01*
X0028699Y0082251D01*
X0028723Y0082145D01*
X0028743Y0082038D01*
X0028759Y0081931D01*
X0028771Y0081823D01*
X0028779Y0081715D01*
X0028783Y0081606D01*
X0028783Y0081498D01*
X0028779Y0081389D01*
X0028771Y0081281D01*
X0028759Y0081173D01*
X0028743Y0081066D01*
X0028723Y0080959D01*
X0028699Y0080853D01*
X0028672Y0080748D01*
X0028640Y0080645D01*
X0028605Y0080542D01*
X0028566Y0080441D01*
X0028523Y0080341D01*
X0028477Y0080243D01*
X0028427Y0080147D01*
X0028374Y0080052D01*
X0028317Y0079960D01*
X0028257Y0079869D01*
X0028193Y0079781D01*
X0028127Y0079696D01*
X0028057Y0079613D01*
X0027984Y0079532D01*
X0027908Y0079454D01*
X0027830Y0079379D01*
X0027749Y0079307D01*
X0027665Y0079238D01*
X0027579Y0079173D01*
X0027490Y0079110D01*
X0027399Y0079051D01*
X0027307Y0078995D01*
X0027212Y0078942D01*
X0027115Y0078893D01*
X0027016Y0078848D01*
X0026916Y0078806D01*
X0026814Y0078768D01*
X0026712Y0078734D01*
X0026607Y0078703D01*
X0026502Y0078677D01*
X0026396Y0078654D01*
X0026289Y0078635D01*
X0026182Y0078620D01*
X0026074Y0078609D01*
X0025966Y0078602D01*
X0025857Y0078599D01*
X0025749Y0078600D01*
X0025640Y0078605D01*
X0025532Y0078614D01*
X0025424Y0078627D01*
X0025317Y0078644D01*
X0025211Y0078665D01*
X0025105Y0078689D01*
X0025000Y0078718D01*
X0024897Y0078750D01*
X0024795Y0078786D01*
X0024694Y0078826D01*
X0024594Y0078870D01*
X0024497Y0078917D01*
X0024401Y0078968D01*
X0024307Y0079022D01*
X0024215Y0079080D01*
X0024125Y0079141D01*
X0024038Y0079205D01*
X0023953Y0079273D01*
X0023870Y0079343D01*
X0023790Y0079417D01*
X0023713Y0079493D01*
X0023639Y0079572D01*
X0023568Y0079654D01*
X0023500Y0079738D01*
X0023435Y0079825D01*
X0023373Y0079914D01*
X0023314Y0080006D01*
X0023259Y0080099D01*
X0023208Y0080194D01*
X0023159Y0080292D01*
X0023115Y0080391D01*
X0023074Y0080491D01*
X0023037Y0080593D01*
X0023004Y0080696D01*
X0022974Y0080801D01*
X0022948Y0080906D01*
X0022927Y0081013D01*
X0022909Y0081120D01*
X0022895Y0081227D01*
X0022885Y0081335D01*
X0022879Y0081444D01*
X0022877Y0081552D01*
X0013034Y0081552D02*
X0013036Y0081660D01*
X0013042Y0081769D01*
X0013052Y0081877D01*
X0013066Y0081984D01*
X0013084Y0082091D01*
X0013105Y0082198D01*
X0013131Y0082303D01*
X0013161Y0082408D01*
X0013194Y0082511D01*
X0013231Y0082613D01*
X0013272Y0082713D01*
X0013316Y0082812D01*
X0013365Y0082910D01*
X0013416Y0083005D01*
X0013471Y0083098D01*
X0013530Y0083190D01*
X0013592Y0083279D01*
X0013657Y0083366D01*
X0013725Y0083450D01*
X0013796Y0083532D01*
X0013870Y0083611D01*
X0013947Y0083687D01*
X0014027Y0083761D01*
X0014110Y0083831D01*
X0014195Y0083899D01*
X0014282Y0083963D01*
X0014372Y0084024D01*
X0014464Y0084082D01*
X0014558Y0084136D01*
X0014654Y0084187D01*
X0014751Y0084234D01*
X0014851Y0084278D01*
X0014952Y0084318D01*
X0015054Y0084354D01*
X0015157Y0084386D01*
X0015262Y0084415D01*
X0015368Y0084439D01*
X0015474Y0084460D01*
X0015581Y0084477D01*
X0015689Y0084490D01*
X0015797Y0084499D01*
X0015906Y0084504D01*
X0016014Y0084505D01*
X0016123Y0084502D01*
X0016231Y0084495D01*
X0016339Y0084484D01*
X0016446Y0084469D01*
X0016553Y0084450D01*
X0016659Y0084427D01*
X0016764Y0084401D01*
X0016869Y0084370D01*
X0016971Y0084336D01*
X0017073Y0084298D01*
X0017173Y0084256D01*
X0017272Y0084211D01*
X0017369Y0084162D01*
X0017463Y0084109D01*
X0017556Y0084053D01*
X0017647Y0083994D01*
X0017736Y0083931D01*
X0017822Y0083866D01*
X0017906Y0083797D01*
X0017987Y0083725D01*
X0018065Y0083650D01*
X0018141Y0083572D01*
X0018214Y0083491D01*
X0018284Y0083408D01*
X0018350Y0083323D01*
X0018414Y0083235D01*
X0018474Y0083144D01*
X0018531Y0083052D01*
X0018584Y0082957D01*
X0018634Y0082861D01*
X0018680Y0082763D01*
X0018723Y0082663D01*
X0018762Y0082562D01*
X0018797Y0082459D01*
X0018829Y0082356D01*
X0018856Y0082251D01*
X0018880Y0082145D01*
X0018900Y0082038D01*
X0018916Y0081931D01*
X0018928Y0081823D01*
X0018936Y0081715D01*
X0018940Y0081606D01*
X0018940Y0081498D01*
X0018936Y0081389D01*
X0018928Y0081281D01*
X0018916Y0081173D01*
X0018900Y0081066D01*
X0018880Y0080959D01*
X0018856Y0080853D01*
X0018829Y0080748D01*
X0018797Y0080645D01*
X0018762Y0080542D01*
X0018723Y0080441D01*
X0018680Y0080341D01*
X0018634Y0080243D01*
X0018584Y0080147D01*
X0018531Y0080052D01*
X0018474Y0079960D01*
X0018414Y0079869D01*
X0018350Y0079781D01*
X0018284Y0079696D01*
X0018214Y0079613D01*
X0018141Y0079532D01*
X0018065Y0079454D01*
X0017987Y0079379D01*
X0017906Y0079307D01*
X0017822Y0079238D01*
X0017736Y0079173D01*
X0017647Y0079110D01*
X0017556Y0079051D01*
X0017464Y0078995D01*
X0017369Y0078942D01*
X0017272Y0078893D01*
X0017173Y0078848D01*
X0017073Y0078806D01*
X0016971Y0078768D01*
X0016869Y0078734D01*
X0016764Y0078703D01*
X0016659Y0078677D01*
X0016553Y0078654D01*
X0016446Y0078635D01*
X0016339Y0078620D01*
X0016231Y0078609D01*
X0016123Y0078602D01*
X0016014Y0078599D01*
X0015906Y0078600D01*
X0015797Y0078605D01*
X0015689Y0078614D01*
X0015581Y0078627D01*
X0015474Y0078644D01*
X0015368Y0078665D01*
X0015262Y0078689D01*
X0015157Y0078718D01*
X0015054Y0078750D01*
X0014952Y0078786D01*
X0014851Y0078826D01*
X0014751Y0078870D01*
X0014654Y0078917D01*
X0014558Y0078968D01*
X0014464Y0079022D01*
X0014372Y0079080D01*
X0014282Y0079141D01*
X0014195Y0079205D01*
X0014110Y0079273D01*
X0014027Y0079343D01*
X0013947Y0079417D01*
X0013870Y0079493D01*
X0013796Y0079572D01*
X0013725Y0079654D01*
X0013657Y0079738D01*
X0013592Y0079825D01*
X0013530Y0079914D01*
X0013471Y0080006D01*
X0013416Y0080099D01*
X0013365Y0080194D01*
X0013316Y0080292D01*
X0013272Y0080391D01*
X0013231Y0080491D01*
X0013194Y0080593D01*
X0013161Y0080696D01*
X0013131Y0080801D01*
X0013105Y0080906D01*
X0013084Y0081013D01*
X0013066Y0081120D01*
X0013052Y0081227D01*
X0013042Y0081335D01*
X0013036Y0081444D01*
X0013034Y0081552D01*
X0019261Y0105581D02*
X0019263Y0105728D01*
X0019269Y0105874D01*
X0019279Y0106020D01*
X0019293Y0106166D01*
X0019311Y0106312D01*
X0019332Y0106457D01*
X0019358Y0106601D01*
X0019388Y0106745D01*
X0019421Y0106887D01*
X0019458Y0107029D01*
X0019499Y0107170D01*
X0019544Y0107309D01*
X0019593Y0107448D01*
X0019645Y0107585D01*
X0019702Y0107720D01*
X0019761Y0107854D01*
X0019825Y0107986D01*
X0019892Y0108116D01*
X0019962Y0108245D01*
X0020036Y0108372D01*
X0020113Y0108496D01*
X0020194Y0108619D01*
X0020278Y0108739D01*
X0020365Y0108857D01*
X0020455Y0108972D01*
X0020548Y0109085D01*
X0020645Y0109196D01*
X0020744Y0109304D01*
X0020846Y0109409D01*
X0020951Y0109511D01*
X0021059Y0109610D01*
X0021170Y0109707D01*
X0021283Y0109800D01*
X0021398Y0109890D01*
X0021516Y0109977D01*
X0021636Y0110061D01*
X0021759Y0110142D01*
X0021883Y0110219D01*
X0022010Y0110293D01*
X0022139Y0110363D01*
X0022269Y0110430D01*
X0022401Y0110494D01*
X0022535Y0110553D01*
X0022670Y0110610D01*
X0022807Y0110662D01*
X0022946Y0110711D01*
X0023085Y0110756D01*
X0023226Y0110797D01*
X0023368Y0110834D01*
X0023510Y0110867D01*
X0023654Y0110897D01*
X0023798Y0110923D01*
X0023943Y0110944D01*
X0024089Y0110962D01*
X0024235Y0110976D01*
X0024381Y0110986D01*
X0024527Y0110992D01*
X0024674Y0110994D01*
X0024821Y0110992D01*
X0024967Y0110986D01*
X0025113Y0110976D01*
X0025259Y0110962D01*
X0025405Y0110944D01*
X0025550Y0110923D01*
X0025694Y0110897D01*
X0025838Y0110867D01*
X0025980Y0110834D01*
X0026122Y0110797D01*
X0026263Y0110756D01*
X0026402Y0110711D01*
X0026541Y0110662D01*
X0026678Y0110610D01*
X0026813Y0110553D01*
X0026947Y0110494D01*
X0027079Y0110430D01*
X0027209Y0110363D01*
X0027338Y0110293D01*
X0027465Y0110219D01*
X0027589Y0110142D01*
X0027712Y0110061D01*
X0027832Y0109977D01*
X0027950Y0109890D01*
X0028065Y0109800D01*
X0028178Y0109707D01*
X0028289Y0109610D01*
X0028397Y0109511D01*
X0028502Y0109409D01*
X0028604Y0109304D01*
X0028703Y0109196D01*
X0028800Y0109085D01*
X0028893Y0108972D01*
X0028983Y0108857D01*
X0029070Y0108739D01*
X0029154Y0108619D01*
X0029235Y0108496D01*
X0029312Y0108372D01*
X0029386Y0108245D01*
X0029456Y0108116D01*
X0029523Y0107986D01*
X0029587Y0107854D01*
X0029646Y0107720D01*
X0029703Y0107585D01*
X0029755Y0107448D01*
X0029804Y0107309D01*
X0029849Y0107170D01*
X0029890Y0107029D01*
X0029927Y0106887D01*
X0029960Y0106745D01*
X0029990Y0106601D01*
X0030016Y0106457D01*
X0030037Y0106312D01*
X0030055Y0106166D01*
X0030069Y0106020D01*
X0030079Y0105874D01*
X0030085Y0105728D01*
X0030087Y0105581D01*
X0030085Y0105434D01*
X0030079Y0105288D01*
X0030069Y0105142D01*
X0030055Y0104996D01*
X0030037Y0104850D01*
X0030016Y0104705D01*
X0029990Y0104561D01*
X0029960Y0104417D01*
X0029927Y0104275D01*
X0029890Y0104133D01*
X0029849Y0103992D01*
X0029804Y0103853D01*
X0029755Y0103714D01*
X0029703Y0103577D01*
X0029646Y0103442D01*
X0029587Y0103308D01*
X0029523Y0103176D01*
X0029456Y0103046D01*
X0029386Y0102917D01*
X0029312Y0102790D01*
X0029235Y0102666D01*
X0029154Y0102543D01*
X0029070Y0102423D01*
X0028983Y0102305D01*
X0028893Y0102190D01*
X0028800Y0102077D01*
X0028703Y0101966D01*
X0028604Y0101858D01*
X0028502Y0101753D01*
X0028397Y0101651D01*
X0028289Y0101552D01*
X0028178Y0101455D01*
X0028065Y0101362D01*
X0027950Y0101272D01*
X0027832Y0101185D01*
X0027712Y0101101D01*
X0027589Y0101020D01*
X0027465Y0100943D01*
X0027338Y0100869D01*
X0027209Y0100799D01*
X0027079Y0100732D01*
X0026947Y0100668D01*
X0026813Y0100609D01*
X0026678Y0100552D01*
X0026541Y0100500D01*
X0026402Y0100451D01*
X0026263Y0100406D01*
X0026122Y0100365D01*
X0025980Y0100328D01*
X0025838Y0100295D01*
X0025694Y0100265D01*
X0025550Y0100239D01*
X0025405Y0100218D01*
X0025259Y0100200D01*
X0025113Y0100186D01*
X0024967Y0100176D01*
X0024821Y0100170D01*
X0024674Y0100168D01*
X0024527Y0100170D01*
X0024381Y0100176D01*
X0024235Y0100186D01*
X0024089Y0100200D01*
X0023943Y0100218D01*
X0023798Y0100239D01*
X0023654Y0100265D01*
X0023510Y0100295D01*
X0023368Y0100328D01*
X0023226Y0100365D01*
X0023085Y0100406D01*
X0022946Y0100451D01*
X0022807Y0100500D01*
X0022670Y0100552D01*
X0022535Y0100609D01*
X0022401Y0100668D01*
X0022269Y0100732D01*
X0022139Y0100799D01*
X0022010Y0100869D01*
X0021883Y0100943D01*
X0021759Y0101020D01*
X0021636Y0101101D01*
X0021516Y0101185D01*
X0021398Y0101272D01*
X0021283Y0101362D01*
X0021170Y0101455D01*
X0021059Y0101552D01*
X0020951Y0101651D01*
X0020846Y0101753D01*
X0020744Y0101858D01*
X0020645Y0101966D01*
X0020548Y0102077D01*
X0020455Y0102190D01*
X0020365Y0102305D01*
X0020278Y0102423D01*
X0020194Y0102543D01*
X0020113Y0102666D01*
X0020036Y0102790D01*
X0019962Y0102917D01*
X0019892Y0103046D01*
X0019825Y0103176D01*
X0019761Y0103308D01*
X0019702Y0103442D01*
X0019645Y0103577D01*
X0019593Y0103714D01*
X0019544Y0103853D01*
X0019499Y0103992D01*
X0019458Y0104133D01*
X0019421Y0104275D01*
X0019388Y0104417D01*
X0019358Y0104561D01*
X0019332Y0104705D01*
X0019311Y0104850D01*
X0019293Y0104996D01*
X0019279Y0105142D01*
X0019269Y0105288D01*
X0019263Y0105434D01*
X0019261Y0105581D01*
X0247607Y0105581D02*
X0247609Y0105728D01*
X0247615Y0105874D01*
X0247625Y0106020D01*
X0247639Y0106166D01*
X0247657Y0106312D01*
X0247678Y0106457D01*
X0247704Y0106601D01*
X0247734Y0106745D01*
X0247767Y0106887D01*
X0247804Y0107029D01*
X0247845Y0107170D01*
X0247890Y0107309D01*
X0247939Y0107448D01*
X0247991Y0107585D01*
X0248048Y0107720D01*
X0248107Y0107854D01*
X0248171Y0107986D01*
X0248238Y0108116D01*
X0248308Y0108245D01*
X0248382Y0108372D01*
X0248459Y0108496D01*
X0248540Y0108619D01*
X0248624Y0108739D01*
X0248711Y0108857D01*
X0248801Y0108972D01*
X0248894Y0109085D01*
X0248991Y0109196D01*
X0249090Y0109304D01*
X0249192Y0109409D01*
X0249297Y0109511D01*
X0249405Y0109610D01*
X0249516Y0109707D01*
X0249629Y0109800D01*
X0249744Y0109890D01*
X0249862Y0109977D01*
X0249982Y0110061D01*
X0250105Y0110142D01*
X0250229Y0110219D01*
X0250356Y0110293D01*
X0250485Y0110363D01*
X0250615Y0110430D01*
X0250747Y0110494D01*
X0250881Y0110553D01*
X0251016Y0110610D01*
X0251153Y0110662D01*
X0251292Y0110711D01*
X0251431Y0110756D01*
X0251572Y0110797D01*
X0251714Y0110834D01*
X0251856Y0110867D01*
X0252000Y0110897D01*
X0252144Y0110923D01*
X0252289Y0110944D01*
X0252435Y0110962D01*
X0252581Y0110976D01*
X0252727Y0110986D01*
X0252873Y0110992D01*
X0253020Y0110994D01*
X0253167Y0110992D01*
X0253313Y0110986D01*
X0253459Y0110976D01*
X0253605Y0110962D01*
X0253751Y0110944D01*
X0253896Y0110923D01*
X0254040Y0110897D01*
X0254184Y0110867D01*
X0254326Y0110834D01*
X0254468Y0110797D01*
X0254609Y0110756D01*
X0254748Y0110711D01*
X0254887Y0110662D01*
X0255024Y0110610D01*
X0255159Y0110553D01*
X0255293Y0110494D01*
X0255425Y0110430D01*
X0255555Y0110363D01*
X0255684Y0110293D01*
X0255811Y0110219D01*
X0255935Y0110142D01*
X0256058Y0110061D01*
X0256178Y0109977D01*
X0256296Y0109890D01*
X0256411Y0109800D01*
X0256524Y0109707D01*
X0256635Y0109610D01*
X0256743Y0109511D01*
X0256848Y0109409D01*
X0256950Y0109304D01*
X0257049Y0109196D01*
X0257146Y0109085D01*
X0257239Y0108972D01*
X0257329Y0108857D01*
X0257416Y0108739D01*
X0257500Y0108619D01*
X0257581Y0108496D01*
X0257658Y0108372D01*
X0257732Y0108245D01*
X0257802Y0108116D01*
X0257869Y0107986D01*
X0257933Y0107854D01*
X0257992Y0107720D01*
X0258049Y0107585D01*
X0258101Y0107448D01*
X0258150Y0107309D01*
X0258195Y0107170D01*
X0258236Y0107029D01*
X0258273Y0106887D01*
X0258306Y0106745D01*
X0258336Y0106601D01*
X0258362Y0106457D01*
X0258383Y0106312D01*
X0258401Y0106166D01*
X0258415Y0106020D01*
X0258425Y0105874D01*
X0258431Y0105728D01*
X0258433Y0105581D01*
X0258431Y0105434D01*
X0258425Y0105288D01*
X0258415Y0105142D01*
X0258401Y0104996D01*
X0258383Y0104850D01*
X0258362Y0104705D01*
X0258336Y0104561D01*
X0258306Y0104417D01*
X0258273Y0104275D01*
X0258236Y0104133D01*
X0258195Y0103992D01*
X0258150Y0103853D01*
X0258101Y0103714D01*
X0258049Y0103577D01*
X0257992Y0103442D01*
X0257933Y0103308D01*
X0257869Y0103176D01*
X0257802Y0103046D01*
X0257732Y0102917D01*
X0257658Y0102790D01*
X0257581Y0102666D01*
X0257500Y0102543D01*
X0257416Y0102423D01*
X0257329Y0102305D01*
X0257239Y0102190D01*
X0257146Y0102077D01*
X0257049Y0101966D01*
X0256950Y0101858D01*
X0256848Y0101753D01*
X0256743Y0101651D01*
X0256635Y0101552D01*
X0256524Y0101455D01*
X0256411Y0101362D01*
X0256296Y0101272D01*
X0256178Y0101185D01*
X0256058Y0101101D01*
X0255935Y0101020D01*
X0255811Y0100943D01*
X0255684Y0100869D01*
X0255555Y0100799D01*
X0255425Y0100732D01*
X0255293Y0100668D01*
X0255159Y0100609D01*
X0255024Y0100552D01*
X0254887Y0100500D01*
X0254748Y0100451D01*
X0254609Y0100406D01*
X0254468Y0100365D01*
X0254326Y0100328D01*
X0254184Y0100295D01*
X0254040Y0100265D01*
X0253896Y0100239D01*
X0253751Y0100218D01*
X0253605Y0100200D01*
X0253459Y0100186D01*
X0253313Y0100176D01*
X0253167Y0100170D01*
X0253020Y0100168D01*
X0252873Y0100170D01*
X0252727Y0100176D01*
X0252581Y0100186D01*
X0252435Y0100200D01*
X0252289Y0100218D01*
X0252144Y0100239D01*
X0252000Y0100265D01*
X0251856Y0100295D01*
X0251714Y0100328D01*
X0251572Y0100365D01*
X0251431Y0100406D01*
X0251292Y0100451D01*
X0251153Y0100500D01*
X0251016Y0100552D01*
X0250881Y0100609D01*
X0250747Y0100668D01*
X0250615Y0100732D01*
X0250485Y0100799D01*
X0250356Y0100869D01*
X0250229Y0100943D01*
X0250105Y0101020D01*
X0249982Y0101101D01*
X0249862Y0101185D01*
X0249744Y0101272D01*
X0249629Y0101362D01*
X0249516Y0101455D01*
X0249405Y0101552D01*
X0249297Y0101651D01*
X0249192Y0101753D01*
X0249090Y0101858D01*
X0248991Y0101966D01*
X0248894Y0102077D01*
X0248801Y0102190D01*
X0248711Y0102305D01*
X0248624Y0102423D01*
X0248540Y0102543D01*
X0248459Y0102666D01*
X0248382Y0102790D01*
X0248308Y0102917D01*
X0248238Y0103046D01*
X0248171Y0103176D01*
X0248107Y0103308D01*
X0248048Y0103442D01*
X0247991Y0103577D01*
X0247939Y0103714D01*
X0247890Y0103853D01*
X0247845Y0103992D01*
X0247804Y0104133D01*
X0247767Y0104275D01*
X0247734Y0104417D01*
X0247704Y0104561D01*
X0247678Y0104705D01*
X0247657Y0104850D01*
X0247639Y0104996D01*
X0247625Y0105142D01*
X0247615Y0105288D01*
X0247609Y0105434D01*
X0247607Y0105581D01*
X0247607Y0015030D02*
X0247609Y0015177D01*
X0247615Y0015323D01*
X0247625Y0015469D01*
X0247639Y0015615D01*
X0247657Y0015761D01*
X0247678Y0015906D01*
X0247704Y0016050D01*
X0247734Y0016194D01*
X0247767Y0016336D01*
X0247804Y0016478D01*
X0247845Y0016619D01*
X0247890Y0016758D01*
X0247939Y0016897D01*
X0247991Y0017034D01*
X0248048Y0017169D01*
X0248107Y0017303D01*
X0248171Y0017435D01*
X0248238Y0017565D01*
X0248308Y0017694D01*
X0248382Y0017821D01*
X0248459Y0017945D01*
X0248540Y0018068D01*
X0248624Y0018188D01*
X0248711Y0018306D01*
X0248801Y0018421D01*
X0248894Y0018534D01*
X0248991Y0018645D01*
X0249090Y0018753D01*
X0249192Y0018858D01*
X0249297Y0018960D01*
X0249405Y0019059D01*
X0249516Y0019156D01*
X0249629Y0019249D01*
X0249744Y0019339D01*
X0249862Y0019426D01*
X0249982Y0019510D01*
X0250105Y0019591D01*
X0250229Y0019668D01*
X0250356Y0019742D01*
X0250485Y0019812D01*
X0250615Y0019879D01*
X0250747Y0019943D01*
X0250881Y0020002D01*
X0251016Y0020059D01*
X0251153Y0020111D01*
X0251292Y0020160D01*
X0251431Y0020205D01*
X0251572Y0020246D01*
X0251714Y0020283D01*
X0251856Y0020316D01*
X0252000Y0020346D01*
X0252144Y0020372D01*
X0252289Y0020393D01*
X0252435Y0020411D01*
X0252581Y0020425D01*
X0252727Y0020435D01*
X0252873Y0020441D01*
X0253020Y0020443D01*
X0253167Y0020441D01*
X0253313Y0020435D01*
X0253459Y0020425D01*
X0253605Y0020411D01*
X0253751Y0020393D01*
X0253896Y0020372D01*
X0254040Y0020346D01*
X0254184Y0020316D01*
X0254326Y0020283D01*
X0254468Y0020246D01*
X0254609Y0020205D01*
X0254748Y0020160D01*
X0254887Y0020111D01*
X0255024Y0020059D01*
X0255159Y0020002D01*
X0255293Y0019943D01*
X0255425Y0019879D01*
X0255555Y0019812D01*
X0255684Y0019742D01*
X0255811Y0019668D01*
X0255935Y0019591D01*
X0256058Y0019510D01*
X0256178Y0019426D01*
X0256296Y0019339D01*
X0256411Y0019249D01*
X0256524Y0019156D01*
X0256635Y0019059D01*
X0256743Y0018960D01*
X0256848Y0018858D01*
X0256950Y0018753D01*
X0257049Y0018645D01*
X0257146Y0018534D01*
X0257239Y0018421D01*
X0257329Y0018306D01*
X0257416Y0018188D01*
X0257500Y0018068D01*
X0257581Y0017945D01*
X0257658Y0017821D01*
X0257732Y0017694D01*
X0257802Y0017565D01*
X0257869Y0017435D01*
X0257933Y0017303D01*
X0257992Y0017169D01*
X0258049Y0017034D01*
X0258101Y0016897D01*
X0258150Y0016758D01*
X0258195Y0016619D01*
X0258236Y0016478D01*
X0258273Y0016336D01*
X0258306Y0016194D01*
X0258336Y0016050D01*
X0258362Y0015906D01*
X0258383Y0015761D01*
X0258401Y0015615D01*
X0258415Y0015469D01*
X0258425Y0015323D01*
X0258431Y0015177D01*
X0258433Y0015030D01*
X0258431Y0014883D01*
X0258425Y0014737D01*
X0258415Y0014591D01*
X0258401Y0014445D01*
X0258383Y0014299D01*
X0258362Y0014154D01*
X0258336Y0014010D01*
X0258306Y0013866D01*
X0258273Y0013724D01*
X0258236Y0013582D01*
X0258195Y0013441D01*
X0258150Y0013302D01*
X0258101Y0013163D01*
X0258049Y0013026D01*
X0257992Y0012891D01*
X0257933Y0012757D01*
X0257869Y0012625D01*
X0257802Y0012495D01*
X0257732Y0012366D01*
X0257658Y0012239D01*
X0257581Y0012115D01*
X0257500Y0011992D01*
X0257416Y0011872D01*
X0257329Y0011754D01*
X0257239Y0011639D01*
X0257146Y0011526D01*
X0257049Y0011415D01*
X0256950Y0011307D01*
X0256848Y0011202D01*
X0256743Y0011100D01*
X0256635Y0011001D01*
X0256524Y0010904D01*
X0256411Y0010811D01*
X0256296Y0010721D01*
X0256178Y0010634D01*
X0256058Y0010550D01*
X0255935Y0010469D01*
X0255811Y0010392D01*
X0255684Y0010318D01*
X0255555Y0010248D01*
X0255425Y0010181D01*
X0255293Y0010117D01*
X0255159Y0010058D01*
X0255024Y0010001D01*
X0254887Y0009949D01*
X0254748Y0009900D01*
X0254609Y0009855D01*
X0254468Y0009814D01*
X0254326Y0009777D01*
X0254184Y0009744D01*
X0254040Y0009714D01*
X0253896Y0009688D01*
X0253751Y0009667D01*
X0253605Y0009649D01*
X0253459Y0009635D01*
X0253313Y0009625D01*
X0253167Y0009619D01*
X0253020Y0009617D01*
X0252873Y0009619D01*
X0252727Y0009625D01*
X0252581Y0009635D01*
X0252435Y0009649D01*
X0252289Y0009667D01*
X0252144Y0009688D01*
X0252000Y0009714D01*
X0251856Y0009744D01*
X0251714Y0009777D01*
X0251572Y0009814D01*
X0251431Y0009855D01*
X0251292Y0009900D01*
X0251153Y0009949D01*
X0251016Y0010001D01*
X0250881Y0010058D01*
X0250747Y0010117D01*
X0250615Y0010181D01*
X0250485Y0010248D01*
X0250356Y0010318D01*
X0250229Y0010392D01*
X0250105Y0010469D01*
X0249982Y0010550D01*
X0249862Y0010634D01*
X0249744Y0010721D01*
X0249629Y0010811D01*
X0249516Y0010904D01*
X0249405Y0011001D01*
X0249297Y0011100D01*
X0249192Y0011202D01*
X0249090Y0011307D01*
X0248991Y0011415D01*
X0248894Y0011526D01*
X0248801Y0011639D01*
X0248711Y0011754D01*
X0248624Y0011872D01*
X0248540Y0011992D01*
X0248459Y0012115D01*
X0248382Y0012239D01*
X0248308Y0012366D01*
X0248238Y0012495D01*
X0248171Y0012625D01*
X0248107Y0012757D01*
X0248048Y0012891D01*
X0247991Y0013026D01*
X0247939Y0013163D01*
X0247890Y0013302D01*
X0247845Y0013441D01*
X0247804Y0013582D01*
X0247767Y0013724D01*
X0247734Y0013866D01*
X0247704Y0014010D01*
X0247678Y0014154D01*
X0247657Y0014299D01*
X0247639Y0014445D01*
X0247625Y0014591D01*
X0247615Y0014737D01*
X0247609Y0014883D01*
X0247607Y0015030D01*
D12*
X0254989Y0001250D02*
X0255274Y0001253D01*
X0255560Y0001264D01*
X0255845Y0001281D01*
X0256129Y0001305D01*
X0256413Y0001336D01*
X0256696Y0001374D01*
X0256977Y0001419D01*
X0257258Y0001470D01*
X0257538Y0001528D01*
X0257816Y0001593D01*
X0258092Y0001665D01*
X0258366Y0001743D01*
X0258639Y0001828D01*
X0258909Y0001920D01*
X0259177Y0002018D01*
X0259443Y0002122D01*
X0259706Y0002233D01*
X0259966Y0002350D01*
X0260224Y0002473D01*
X0260478Y0002603D01*
X0260729Y0002739D01*
X0260977Y0002880D01*
X0261221Y0003028D01*
X0261462Y0003181D01*
X0261698Y0003341D01*
X0261931Y0003506D01*
X0262160Y0003676D01*
X0262385Y0003852D01*
X0262605Y0004034D01*
X0262821Y0004220D01*
X0263032Y0004412D01*
X0263239Y0004609D01*
X0263441Y0004811D01*
X0263638Y0005018D01*
X0263830Y0005229D01*
X0264016Y0005445D01*
X0264198Y0005665D01*
X0264374Y0005890D01*
X0264544Y0006119D01*
X0264709Y0006352D01*
X0264869Y0006588D01*
X0265022Y0006829D01*
X0265170Y0007073D01*
X0265311Y0007321D01*
X0265447Y0007572D01*
X0265577Y0007826D01*
X0265700Y0008084D01*
X0265817Y0008344D01*
X0265928Y0008607D01*
X0266032Y0008873D01*
X0266130Y0009141D01*
X0266222Y0009411D01*
X0266307Y0009684D01*
X0266385Y0009958D01*
X0266457Y0010234D01*
X0266522Y0010512D01*
X0266580Y0010792D01*
X0266631Y0011073D01*
X0266676Y0011354D01*
X0266714Y0011637D01*
X0266745Y0011921D01*
X0266769Y0012205D01*
X0266786Y0012490D01*
X0266797Y0012776D01*
X0266800Y0013061D01*
X0266800Y0107549D01*
X0266799Y0107549D02*
X0266747Y0107883D01*
X0266687Y0108216D01*
X0266619Y0108547D01*
X0266543Y0108876D01*
X0266459Y0109204D01*
X0266367Y0109529D01*
X0266268Y0109852D01*
X0266160Y0110172D01*
X0266045Y0110490D01*
X0265922Y0110805D01*
X0265791Y0111117D01*
X0265653Y0111425D01*
X0265507Y0111730D01*
X0265354Y0112031D01*
X0265194Y0112329D01*
X0265026Y0112623D01*
X0264852Y0112912D01*
X0264670Y0113197D01*
X0264482Y0113478D01*
X0264287Y0113754D01*
X0264085Y0114025D01*
X0263877Y0114291D01*
X0263662Y0114552D01*
X0263441Y0114808D01*
X0263214Y0115058D01*
X0262981Y0115303D01*
X0262742Y0115542D01*
X0262497Y0115775D01*
X0262247Y0116002D01*
X0261991Y0116223D01*
X0261730Y0116438D01*
X0261464Y0116646D01*
X0261193Y0116848D01*
X0260917Y0117043D01*
X0260636Y0117231D01*
X0260351Y0117413D01*
X0260062Y0117587D01*
X0259768Y0117755D01*
X0259470Y0117915D01*
X0259169Y0118068D01*
X0258864Y0118214D01*
X0258556Y0118352D01*
X0258244Y0118483D01*
X0257929Y0118606D01*
X0257611Y0118721D01*
X0257291Y0118829D01*
X0256968Y0118928D01*
X0256643Y0119020D01*
X0256315Y0119104D01*
X0255986Y0119180D01*
X0255655Y0119248D01*
X0255322Y0119308D01*
X0254988Y0119360D01*
X0254989Y0119360D02*
X0022706Y0119360D01*
X0022421Y0119357D01*
X0022135Y0119346D01*
X0021850Y0119329D01*
X0021566Y0119305D01*
X0021282Y0119274D01*
X0020999Y0119236D01*
X0020718Y0119191D01*
X0020437Y0119140D01*
X0020157Y0119082D01*
X0019879Y0119017D01*
X0019603Y0118945D01*
X0019329Y0118867D01*
X0019056Y0118782D01*
X0018786Y0118690D01*
X0018518Y0118592D01*
X0018252Y0118488D01*
X0017989Y0118377D01*
X0017729Y0118260D01*
X0017471Y0118137D01*
X0017217Y0118007D01*
X0016966Y0117871D01*
X0016718Y0117730D01*
X0016474Y0117582D01*
X0016233Y0117429D01*
X0015997Y0117269D01*
X0015764Y0117104D01*
X0015535Y0116934D01*
X0015310Y0116758D01*
X0015090Y0116576D01*
X0014874Y0116390D01*
X0014663Y0116198D01*
X0014456Y0116001D01*
X0014254Y0115799D01*
X0014057Y0115592D01*
X0013865Y0115381D01*
X0013679Y0115165D01*
X0013497Y0114945D01*
X0013321Y0114720D01*
X0013151Y0114491D01*
X0012986Y0114258D01*
X0012826Y0114022D01*
X0012673Y0113781D01*
X0012525Y0113537D01*
X0012384Y0113289D01*
X0012248Y0113038D01*
X0012118Y0112784D01*
X0011995Y0112526D01*
X0011878Y0112266D01*
X0011767Y0112003D01*
X0011663Y0111737D01*
X0011565Y0111469D01*
X0011473Y0111199D01*
X0011388Y0110926D01*
X0011310Y0110652D01*
X0011238Y0110376D01*
X0011173Y0110098D01*
X0011115Y0109818D01*
X0011064Y0109537D01*
X0011019Y0109256D01*
X0010981Y0108973D01*
X0010950Y0108689D01*
X0010926Y0108405D01*
X0010909Y0108120D01*
X0010898Y0107834D01*
X0010895Y0107549D01*
X0010894Y0107549D02*
X0010894Y0013061D01*
X0022706Y0001250D02*
X0254989Y0001250D01*
M02*
