%
M48
M72
T01C0.0236
T02C0.0350
T03C0.0354
T04C0.0394
T05C0.0400
T06C0.0591
T07C0.1083
%
T01
X9930Y2686
X10930Y3686
X12550Y3786
X14270Y3936
X15430Y4436
X15990Y4496
X14430Y4936
X12430Y5436
X12290Y6056
X12360Y6856
X14180Y6936
X14180Y7436
X15176Y7452
X16240Y7746
X18180Y7436
X20180Y7186
X19180Y8686
X18680Y8936
X14680Y8936
X14160Y9276
X13960Y10046
X12330Y8706
X14180Y7936
X16430Y6186
X15700Y3676
X15890Y1516
X8180Y5686
X10180Y5936
X10180Y6686
X8180Y8436
X7330Y9666
X6180Y5686
T02
X16960Y3326
X6430Y11186
X5430Y11186
X4430Y11186
T03
X13430Y11186
X14430Y11186
X15430Y11186
X16430Y11186
X17430Y11186
X18430Y11186
X19430Y11186
X20430Y11186
T04
X20385Y2003
X21385Y2003
X22385Y2003
X23385Y2003
X23385Y1003
X22385Y1003
X21385Y1003
X20385Y1003
X19385Y1003
X18385Y1003
X17385Y1003
X16385Y1003
X15385Y1003
X14385Y1003
X13385Y1003
X12385Y1003
X11385Y1003
X10385Y1003
X9385Y1003
X8385Y1003
X7385Y1003
X6385Y1003
X5385Y1003
X4385Y1003
X4385Y2003
X5385Y2003
X6385Y2003
X7385Y2003
X8385Y2003
X9385Y2003
X10385Y2003
X11385Y2003
X12385Y2003
X13385Y2003
X14385Y2003
X15385Y2003
X16385Y2003
X17385Y2003
X18385Y2003
X19385Y2003
T05
X7930Y3936
X6930Y3936
T06
X4551Y4179
X2583Y4218
X1599Y4218
X4551Y5242
X4551Y6187
X4551Y7132
X2583Y6187
X2583Y8155
X1599Y8155
X4551Y8195
T07
X2467Y1503
X2467Y10558
X25302Y10558
X25302Y1503
M30
