G75*
%MOIN*%
%OFA0B0*%
%FSLAX25Y25*%
%IPPOS*%
%LPD*%
%AMOC8*
5,1,8,0,0,1.08239X$1,22.5*
%
%ADD10C,0.07000*%
%ADD11R,0.04331X0.05512*%
%ADD12R,0.03937X0.04331*%
%ADD13R,0.05512X0.04331*%
%ADD14R,0.04134X0.04252*%
%ADD15C,0.10000*%
%ADD16C,0.08858*%
%ADD17R,0.02362X0.06299*%
%ADD18R,0.02362X0.02362*%
%ADD19R,0.03150X0.03150*%
%ADD20C,0.07400*%
%ADD21C,0.00800*%
%ADD22R,0.05000X0.02500*%
%ADD23R,0.05906X0.07874*%
%ADD24C,0.00591*%
%ADD25C,0.00236*%
%ADD26R,0.06693X0.09449*%
%ADD27C,0.06800*%
%ADD28R,0.02165X0.04724*%
%ADD29R,0.07000X0.07000*%
%ADD30C,0.01600*%
%ADD31C,0.01000*%
%ADD32C,0.00900*%
%ADD33C,0.03962*%
%ADD34C,0.01200*%
%ADD35C,0.02400*%
D10*
X0043847Y0010030D03*
X0053847Y0010030D03*
X0063847Y0010030D03*
X0073847Y0010030D03*
X0083847Y0010030D03*
X0093847Y0010030D03*
X0103847Y0010030D03*
X0113847Y0010030D03*
X0123847Y0010030D03*
X0133847Y0010030D03*
X0143847Y0010030D03*
X0153847Y0010030D03*
X0163847Y0010030D03*
X0173847Y0010030D03*
X0183847Y0010030D03*
X0193847Y0010030D03*
X0203847Y0010030D03*
X0213847Y0010030D03*
X0223847Y0010030D03*
X0233847Y0010030D03*
X0223847Y0020030D03*
X0213847Y0020030D03*
X0203847Y0020030D03*
X0193847Y0020030D03*
X0183847Y0020030D03*
X0173847Y0020030D03*
X0163847Y0020030D03*
X0153847Y0020030D03*
X0143847Y0020030D03*
X0133847Y0020030D03*
X0123847Y0020030D03*
X0113847Y0020030D03*
X0103847Y0020030D03*
X0093847Y0020030D03*
X0083847Y0020030D03*
X0073847Y0020030D03*
X0063847Y0020030D03*
X0053847Y0020030D03*
X0043847Y0020030D03*
X0169600Y0033260D03*
D11*
X0187863Y0056860D03*
X0195737Y0056860D03*
X0135737Y0076860D03*
X0127863Y0076860D03*
X0115737Y0061860D03*
X0107863Y0061860D03*
X0095737Y0059360D03*
X0087863Y0059360D03*
D12*
X0088454Y0049360D03*
X0095146Y0049360D03*
X0128454Y0049360D03*
X0135146Y0049360D03*
X0153454Y0031860D03*
X0160146Y0031860D03*
X0188454Y0041860D03*
X0195146Y0041860D03*
X0181800Y0086014D03*
X0181800Y0092707D03*
X0151800Y0092707D03*
X0151800Y0086014D03*
X0095146Y0089360D03*
X0088454Y0089360D03*
D13*
X0099300Y0040797D03*
X0099300Y0032923D03*
X0119300Y0032923D03*
X0119300Y0040797D03*
D14*
X0130855Y0039360D03*
X0137745Y0039360D03*
X0115245Y0054360D03*
X0108355Y0054360D03*
X0128355Y0059360D03*
X0135245Y0059360D03*
X0135245Y0069360D03*
X0128355Y0069360D03*
X0128455Y0085460D03*
X0135345Y0085460D03*
X0135445Y0091660D03*
X0128555Y0091660D03*
X0095245Y0079360D03*
X0088355Y0079360D03*
X0088355Y0069360D03*
X0095245Y0069360D03*
X0168355Y0041860D03*
X0175245Y0041860D03*
X0188355Y0049360D03*
X0195245Y0049360D03*
X0195245Y0064360D03*
X0188355Y0064360D03*
X0188355Y0071860D03*
X0195245Y0071860D03*
D15*
X0025830Y0061867D03*
D16*
X0045515Y0071315D03*
X0045515Y0081945D03*
X0045515Y0052418D03*
X0045515Y0041788D03*
D17*
X0067863Y0051900D03*
X0075729Y0051911D03*
X0107871Y0081810D03*
X0115737Y0081821D03*
X0075729Y0089411D03*
X0067863Y0089400D03*
D18*
X0071800Y0091722D03*
X0071800Y0087077D03*
X0111800Y0084144D03*
X0111800Y0079498D03*
X0071800Y0054222D03*
X0071800Y0049577D03*
D19*
X0181800Y0042313D03*
X0181800Y0036407D03*
D20*
X0079300Y0039360D03*
X0069300Y0039360D03*
X0134300Y0111860D03*
X0144300Y0111860D03*
X0154300Y0111860D03*
X0164300Y0111860D03*
X0174300Y0111860D03*
X0184300Y0111860D03*
X0194300Y0111860D03*
X0204300Y0111860D03*
D21*
X0111800Y0093360D02*
X0111800Y0090360D01*
D22*
X0111800Y0089860D03*
X0111800Y0093860D03*
D23*
X0077706Y0076860D03*
X0065894Y0076860D03*
X0065894Y0064360D03*
X0077706Y0064360D03*
D24*
X0158690Y0056250D02*
X0169910Y0056250D01*
X0158690Y0056250D02*
X0158690Y0067470D01*
X0169910Y0067470D01*
X0169910Y0056250D01*
X0169910Y0056840D02*
X0158690Y0056840D01*
X0158690Y0057430D02*
X0169910Y0057430D01*
X0169910Y0058020D02*
X0158690Y0058020D01*
X0158690Y0058610D02*
X0169910Y0058610D01*
X0169910Y0059200D02*
X0158690Y0059200D01*
X0158690Y0059790D02*
X0169910Y0059790D01*
X0169910Y0060380D02*
X0158690Y0060380D01*
X0158690Y0060970D02*
X0169910Y0060970D01*
X0169910Y0061560D02*
X0158690Y0061560D01*
X0158690Y0062150D02*
X0169910Y0062150D01*
X0169910Y0062740D02*
X0158690Y0062740D01*
X0158690Y0063330D02*
X0169910Y0063330D01*
X0169910Y0063920D02*
X0158690Y0063920D01*
X0158690Y0064510D02*
X0169910Y0064510D01*
X0169910Y0065100D02*
X0158690Y0065100D01*
X0158690Y0065690D02*
X0169910Y0065690D01*
X0169910Y0066280D02*
X0158690Y0066280D01*
X0158690Y0066870D02*
X0169910Y0066870D01*
X0169910Y0067460D02*
X0158690Y0067460D01*
D25*
X0151722Y0067671D02*
X0151722Y0067121D01*
X0151722Y0067671D02*
X0154044Y0067671D01*
X0154044Y0067121D01*
X0151722Y0067121D01*
X0151722Y0067356D02*
X0154044Y0067356D01*
X0154044Y0067591D02*
X0151722Y0067591D01*
X0151722Y0068696D02*
X0151722Y0069246D01*
X0154044Y0069246D01*
X0154044Y0068696D01*
X0151722Y0068696D01*
X0151722Y0068931D02*
X0154044Y0068931D01*
X0154044Y0069166D02*
X0151722Y0069166D01*
X0151722Y0070270D02*
X0151722Y0070820D01*
X0154044Y0070820D01*
X0154044Y0070270D01*
X0151722Y0070270D01*
X0151722Y0070505D02*
X0154044Y0070505D01*
X0154044Y0070740D02*
X0151722Y0070740D01*
X0155364Y0074462D02*
X0155914Y0074462D01*
X0155914Y0072140D01*
X0155364Y0072140D01*
X0155364Y0074462D01*
X0155364Y0072375D02*
X0155914Y0072375D01*
X0155914Y0072610D02*
X0155364Y0072610D01*
X0155364Y0072845D02*
X0155914Y0072845D01*
X0155914Y0073080D02*
X0155364Y0073080D01*
X0155364Y0073315D02*
X0155914Y0073315D01*
X0155914Y0073550D02*
X0155364Y0073550D01*
X0155364Y0073785D02*
X0155914Y0073785D01*
X0155914Y0074020D02*
X0155364Y0074020D01*
X0155364Y0074255D02*
X0155914Y0074255D01*
X0156938Y0074462D02*
X0157488Y0074462D01*
X0157488Y0072140D01*
X0156938Y0072140D01*
X0156938Y0074462D01*
X0156938Y0072375D02*
X0157488Y0072375D01*
X0157488Y0072610D02*
X0156938Y0072610D01*
X0156938Y0072845D02*
X0157488Y0072845D01*
X0157488Y0073080D02*
X0156938Y0073080D01*
X0156938Y0073315D02*
X0157488Y0073315D01*
X0157488Y0073550D02*
X0156938Y0073550D01*
X0156938Y0073785D02*
X0157488Y0073785D01*
X0157488Y0074020D02*
X0156938Y0074020D01*
X0156938Y0074255D02*
X0157488Y0074255D01*
X0158513Y0074462D02*
X0159063Y0074462D01*
X0159063Y0072140D01*
X0158513Y0072140D01*
X0158513Y0074462D01*
X0158513Y0072375D02*
X0159063Y0072375D01*
X0159063Y0072610D02*
X0158513Y0072610D01*
X0158513Y0072845D02*
X0159063Y0072845D01*
X0159063Y0073080D02*
X0158513Y0073080D01*
X0158513Y0073315D02*
X0159063Y0073315D01*
X0159063Y0073550D02*
X0158513Y0073550D01*
X0158513Y0073785D02*
X0159063Y0073785D01*
X0159063Y0074020D02*
X0158513Y0074020D01*
X0158513Y0074255D02*
X0159063Y0074255D01*
X0160088Y0074462D02*
X0160638Y0074462D01*
X0160638Y0072140D01*
X0160088Y0072140D01*
X0160088Y0074462D01*
X0160088Y0072375D02*
X0160638Y0072375D01*
X0160638Y0072610D02*
X0160088Y0072610D01*
X0160088Y0072845D02*
X0160638Y0072845D01*
X0160638Y0073080D02*
X0160088Y0073080D01*
X0160088Y0073315D02*
X0160638Y0073315D01*
X0160638Y0073550D02*
X0160088Y0073550D01*
X0160088Y0073785D02*
X0160638Y0073785D01*
X0160638Y0074020D02*
X0160088Y0074020D01*
X0160088Y0074255D02*
X0160638Y0074255D01*
X0161663Y0074462D02*
X0162213Y0074462D01*
X0162213Y0072140D01*
X0161663Y0072140D01*
X0161663Y0074462D01*
X0161663Y0072375D02*
X0162213Y0072375D01*
X0162213Y0072610D02*
X0161663Y0072610D01*
X0161663Y0072845D02*
X0162213Y0072845D01*
X0162213Y0073080D02*
X0161663Y0073080D01*
X0161663Y0073315D02*
X0162213Y0073315D01*
X0162213Y0073550D02*
X0161663Y0073550D01*
X0161663Y0073785D02*
X0162213Y0073785D01*
X0162213Y0074020D02*
X0161663Y0074020D01*
X0161663Y0074255D02*
X0162213Y0074255D01*
X0163238Y0074462D02*
X0163788Y0074462D01*
X0163788Y0072140D01*
X0163238Y0072140D01*
X0163238Y0074462D01*
X0163238Y0072375D02*
X0163788Y0072375D01*
X0163788Y0072610D02*
X0163238Y0072610D01*
X0163238Y0072845D02*
X0163788Y0072845D01*
X0163788Y0073080D02*
X0163238Y0073080D01*
X0163238Y0073315D02*
X0163788Y0073315D01*
X0163788Y0073550D02*
X0163238Y0073550D01*
X0163238Y0073785D02*
X0163788Y0073785D01*
X0163788Y0074020D02*
X0163238Y0074020D01*
X0163238Y0074255D02*
X0163788Y0074255D01*
X0164812Y0074462D02*
X0165362Y0074462D01*
X0165362Y0072140D01*
X0164812Y0072140D01*
X0164812Y0074462D01*
X0164812Y0072375D02*
X0165362Y0072375D01*
X0165362Y0072610D02*
X0164812Y0072610D01*
X0164812Y0072845D02*
X0165362Y0072845D01*
X0165362Y0073080D02*
X0164812Y0073080D01*
X0164812Y0073315D02*
X0165362Y0073315D01*
X0165362Y0073550D02*
X0164812Y0073550D01*
X0164812Y0073785D02*
X0165362Y0073785D01*
X0165362Y0074020D02*
X0164812Y0074020D01*
X0164812Y0074255D02*
X0165362Y0074255D01*
X0166387Y0074462D02*
X0166937Y0074462D01*
X0166937Y0072140D01*
X0166387Y0072140D01*
X0166387Y0074462D01*
X0166387Y0072375D02*
X0166937Y0072375D01*
X0166937Y0072610D02*
X0166387Y0072610D01*
X0166387Y0072845D02*
X0166937Y0072845D01*
X0166937Y0073080D02*
X0166387Y0073080D01*
X0166387Y0073315D02*
X0166937Y0073315D01*
X0166937Y0073550D02*
X0166387Y0073550D01*
X0166387Y0073785D02*
X0166937Y0073785D01*
X0166937Y0074020D02*
X0166387Y0074020D01*
X0166387Y0074255D02*
X0166937Y0074255D01*
X0167962Y0074462D02*
X0168512Y0074462D01*
X0168512Y0072140D01*
X0167962Y0072140D01*
X0167962Y0074462D01*
X0167962Y0072375D02*
X0168512Y0072375D01*
X0168512Y0072610D02*
X0167962Y0072610D01*
X0167962Y0072845D02*
X0168512Y0072845D01*
X0168512Y0073080D02*
X0167962Y0073080D01*
X0167962Y0073315D02*
X0168512Y0073315D01*
X0168512Y0073550D02*
X0167962Y0073550D01*
X0167962Y0073785D02*
X0168512Y0073785D01*
X0168512Y0074020D02*
X0167962Y0074020D01*
X0167962Y0074255D02*
X0168512Y0074255D01*
X0169537Y0074462D02*
X0170087Y0074462D01*
X0170087Y0072140D01*
X0169537Y0072140D01*
X0169537Y0074462D01*
X0169537Y0072375D02*
X0170087Y0072375D01*
X0170087Y0072610D02*
X0169537Y0072610D01*
X0169537Y0072845D02*
X0170087Y0072845D01*
X0170087Y0073080D02*
X0169537Y0073080D01*
X0169537Y0073315D02*
X0170087Y0073315D01*
X0170087Y0073550D02*
X0169537Y0073550D01*
X0169537Y0073785D02*
X0170087Y0073785D01*
X0170087Y0074020D02*
X0169537Y0074020D01*
X0169537Y0074255D02*
X0170087Y0074255D01*
X0171112Y0074462D02*
X0171662Y0074462D01*
X0171662Y0072140D01*
X0171112Y0072140D01*
X0171112Y0074462D01*
X0171112Y0072375D02*
X0171662Y0072375D01*
X0171662Y0072610D02*
X0171112Y0072610D01*
X0171112Y0072845D02*
X0171662Y0072845D01*
X0171662Y0073080D02*
X0171112Y0073080D01*
X0171112Y0073315D02*
X0171662Y0073315D01*
X0171662Y0073550D02*
X0171112Y0073550D01*
X0171112Y0073785D02*
X0171662Y0073785D01*
X0171662Y0074020D02*
X0171112Y0074020D01*
X0171112Y0074255D02*
X0171662Y0074255D01*
X0172686Y0074462D02*
X0173236Y0074462D01*
X0173236Y0072140D01*
X0172686Y0072140D01*
X0172686Y0074462D01*
X0172686Y0072375D02*
X0173236Y0072375D01*
X0173236Y0072610D02*
X0172686Y0072610D01*
X0172686Y0072845D02*
X0173236Y0072845D01*
X0173236Y0073080D02*
X0172686Y0073080D01*
X0172686Y0073315D02*
X0173236Y0073315D01*
X0173236Y0073550D02*
X0172686Y0073550D01*
X0172686Y0073785D02*
X0173236Y0073785D01*
X0173236Y0074020D02*
X0172686Y0074020D01*
X0172686Y0074255D02*
X0173236Y0074255D01*
X0176878Y0070820D02*
X0176878Y0070270D01*
X0174556Y0070270D01*
X0174556Y0070820D01*
X0176878Y0070820D01*
X0176878Y0070505D02*
X0174556Y0070505D01*
X0174556Y0070740D02*
X0176878Y0070740D01*
X0176878Y0069246D02*
X0176878Y0068696D01*
X0174556Y0068696D01*
X0174556Y0069246D01*
X0176878Y0069246D01*
X0176878Y0068931D02*
X0174556Y0068931D01*
X0174556Y0069166D02*
X0176878Y0069166D01*
X0176878Y0067671D02*
X0176878Y0067121D01*
X0174556Y0067121D01*
X0174556Y0067671D01*
X0176878Y0067671D01*
X0176878Y0067356D02*
X0174556Y0067356D01*
X0174556Y0067591D02*
X0176878Y0067591D01*
X0176878Y0066096D02*
X0176878Y0065546D01*
X0174556Y0065546D01*
X0174556Y0066096D01*
X0176878Y0066096D01*
X0176878Y0065781D02*
X0174556Y0065781D01*
X0174556Y0066016D02*
X0176878Y0066016D01*
X0176878Y0064521D02*
X0176878Y0063971D01*
X0174556Y0063971D01*
X0174556Y0064521D01*
X0176878Y0064521D01*
X0176878Y0064206D02*
X0174556Y0064206D01*
X0174556Y0064441D02*
X0176878Y0064441D01*
X0176878Y0062946D02*
X0176878Y0062396D01*
X0174556Y0062396D01*
X0174556Y0062946D01*
X0176878Y0062946D01*
X0176878Y0062631D02*
X0174556Y0062631D01*
X0174556Y0062866D02*
X0176878Y0062866D01*
X0176878Y0061372D02*
X0176878Y0060822D01*
X0174556Y0060822D01*
X0174556Y0061372D01*
X0176878Y0061372D01*
X0176878Y0061057D02*
X0174556Y0061057D01*
X0174556Y0061292D02*
X0176878Y0061292D01*
X0176878Y0059797D02*
X0176878Y0059247D01*
X0174556Y0059247D01*
X0174556Y0059797D01*
X0176878Y0059797D01*
X0176878Y0059482D02*
X0174556Y0059482D01*
X0174556Y0059717D02*
X0176878Y0059717D01*
X0176878Y0058222D02*
X0176878Y0057672D01*
X0174556Y0057672D01*
X0174556Y0058222D01*
X0176878Y0058222D01*
X0176878Y0057907D02*
X0174556Y0057907D01*
X0174556Y0058142D02*
X0176878Y0058142D01*
X0176878Y0056647D02*
X0176878Y0056097D01*
X0174556Y0056097D01*
X0174556Y0056647D01*
X0176878Y0056647D01*
X0176878Y0056332D02*
X0174556Y0056332D01*
X0174556Y0056567D02*
X0176878Y0056567D01*
X0176878Y0055072D02*
X0176878Y0054522D01*
X0174556Y0054522D01*
X0174556Y0055072D01*
X0176878Y0055072D01*
X0176878Y0054757D02*
X0174556Y0054757D01*
X0174556Y0054992D02*
X0176878Y0054992D01*
X0176878Y0053498D02*
X0176878Y0052948D01*
X0174556Y0052948D01*
X0174556Y0053498D01*
X0176878Y0053498D01*
X0176878Y0053183D02*
X0174556Y0053183D01*
X0174556Y0053418D02*
X0176878Y0053418D01*
X0173236Y0049306D02*
X0172686Y0049306D01*
X0172686Y0051628D01*
X0173236Y0051628D01*
X0173236Y0049306D01*
X0173236Y0049541D02*
X0172686Y0049541D01*
X0172686Y0049776D02*
X0173236Y0049776D01*
X0173236Y0050011D02*
X0172686Y0050011D01*
X0172686Y0050246D02*
X0173236Y0050246D01*
X0173236Y0050481D02*
X0172686Y0050481D01*
X0172686Y0050716D02*
X0173236Y0050716D01*
X0173236Y0050951D02*
X0172686Y0050951D01*
X0172686Y0051186D02*
X0173236Y0051186D01*
X0173236Y0051421D02*
X0172686Y0051421D01*
X0171662Y0049306D02*
X0171112Y0049306D01*
X0171112Y0051628D01*
X0171662Y0051628D01*
X0171662Y0049306D01*
X0171662Y0049541D02*
X0171112Y0049541D01*
X0171112Y0049776D02*
X0171662Y0049776D01*
X0171662Y0050011D02*
X0171112Y0050011D01*
X0171112Y0050246D02*
X0171662Y0050246D01*
X0171662Y0050481D02*
X0171112Y0050481D01*
X0171112Y0050716D02*
X0171662Y0050716D01*
X0171662Y0050951D02*
X0171112Y0050951D01*
X0171112Y0051186D02*
X0171662Y0051186D01*
X0171662Y0051421D02*
X0171112Y0051421D01*
X0170087Y0049306D02*
X0169537Y0049306D01*
X0169537Y0051628D01*
X0170087Y0051628D01*
X0170087Y0049306D01*
X0170087Y0049541D02*
X0169537Y0049541D01*
X0169537Y0049776D02*
X0170087Y0049776D01*
X0170087Y0050011D02*
X0169537Y0050011D01*
X0169537Y0050246D02*
X0170087Y0050246D01*
X0170087Y0050481D02*
X0169537Y0050481D01*
X0169537Y0050716D02*
X0170087Y0050716D01*
X0170087Y0050951D02*
X0169537Y0050951D01*
X0169537Y0051186D02*
X0170087Y0051186D01*
X0170087Y0051421D02*
X0169537Y0051421D01*
X0168512Y0049306D02*
X0167962Y0049306D01*
X0167962Y0051628D01*
X0168512Y0051628D01*
X0168512Y0049306D01*
X0168512Y0049541D02*
X0167962Y0049541D01*
X0167962Y0049776D02*
X0168512Y0049776D01*
X0168512Y0050011D02*
X0167962Y0050011D01*
X0167962Y0050246D02*
X0168512Y0050246D01*
X0168512Y0050481D02*
X0167962Y0050481D01*
X0167962Y0050716D02*
X0168512Y0050716D01*
X0168512Y0050951D02*
X0167962Y0050951D01*
X0167962Y0051186D02*
X0168512Y0051186D01*
X0168512Y0051421D02*
X0167962Y0051421D01*
X0166937Y0049306D02*
X0166387Y0049306D01*
X0166387Y0051628D01*
X0166937Y0051628D01*
X0166937Y0049306D01*
X0166937Y0049541D02*
X0166387Y0049541D01*
X0166387Y0049776D02*
X0166937Y0049776D01*
X0166937Y0050011D02*
X0166387Y0050011D01*
X0166387Y0050246D02*
X0166937Y0050246D01*
X0166937Y0050481D02*
X0166387Y0050481D01*
X0166387Y0050716D02*
X0166937Y0050716D01*
X0166937Y0050951D02*
X0166387Y0050951D01*
X0166387Y0051186D02*
X0166937Y0051186D01*
X0166937Y0051421D02*
X0166387Y0051421D01*
X0165362Y0049306D02*
X0164812Y0049306D01*
X0164812Y0051628D01*
X0165362Y0051628D01*
X0165362Y0049306D01*
X0165362Y0049541D02*
X0164812Y0049541D01*
X0164812Y0049776D02*
X0165362Y0049776D01*
X0165362Y0050011D02*
X0164812Y0050011D01*
X0164812Y0050246D02*
X0165362Y0050246D01*
X0165362Y0050481D02*
X0164812Y0050481D01*
X0164812Y0050716D02*
X0165362Y0050716D01*
X0165362Y0050951D02*
X0164812Y0050951D01*
X0164812Y0051186D02*
X0165362Y0051186D01*
X0165362Y0051421D02*
X0164812Y0051421D01*
X0163788Y0049306D02*
X0163238Y0049306D01*
X0163238Y0051628D01*
X0163788Y0051628D01*
X0163788Y0049306D01*
X0163788Y0049541D02*
X0163238Y0049541D01*
X0163238Y0049776D02*
X0163788Y0049776D01*
X0163788Y0050011D02*
X0163238Y0050011D01*
X0163238Y0050246D02*
X0163788Y0050246D01*
X0163788Y0050481D02*
X0163238Y0050481D01*
X0163238Y0050716D02*
X0163788Y0050716D01*
X0163788Y0050951D02*
X0163238Y0050951D01*
X0163238Y0051186D02*
X0163788Y0051186D01*
X0163788Y0051421D02*
X0163238Y0051421D01*
X0162213Y0049306D02*
X0161663Y0049306D01*
X0161663Y0051628D01*
X0162213Y0051628D01*
X0162213Y0049306D01*
X0162213Y0049541D02*
X0161663Y0049541D01*
X0161663Y0049776D02*
X0162213Y0049776D01*
X0162213Y0050011D02*
X0161663Y0050011D01*
X0161663Y0050246D02*
X0162213Y0050246D01*
X0162213Y0050481D02*
X0161663Y0050481D01*
X0161663Y0050716D02*
X0162213Y0050716D01*
X0162213Y0050951D02*
X0161663Y0050951D01*
X0161663Y0051186D02*
X0162213Y0051186D01*
X0162213Y0051421D02*
X0161663Y0051421D01*
X0160638Y0049306D02*
X0160088Y0049306D01*
X0160088Y0051628D01*
X0160638Y0051628D01*
X0160638Y0049306D01*
X0160638Y0049541D02*
X0160088Y0049541D01*
X0160088Y0049776D02*
X0160638Y0049776D01*
X0160638Y0050011D02*
X0160088Y0050011D01*
X0160088Y0050246D02*
X0160638Y0050246D01*
X0160638Y0050481D02*
X0160088Y0050481D01*
X0160088Y0050716D02*
X0160638Y0050716D01*
X0160638Y0050951D02*
X0160088Y0050951D01*
X0160088Y0051186D02*
X0160638Y0051186D01*
X0160638Y0051421D02*
X0160088Y0051421D01*
X0159063Y0049306D02*
X0158513Y0049306D01*
X0158513Y0051628D01*
X0159063Y0051628D01*
X0159063Y0049306D01*
X0159063Y0049541D02*
X0158513Y0049541D01*
X0158513Y0049776D02*
X0159063Y0049776D01*
X0159063Y0050011D02*
X0158513Y0050011D01*
X0158513Y0050246D02*
X0159063Y0050246D01*
X0159063Y0050481D02*
X0158513Y0050481D01*
X0158513Y0050716D02*
X0159063Y0050716D01*
X0159063Y0050951D02*
X0158513Y0050951D01*
X0158513Y0051186D02*
X0159063Y0051186D01*
X0159063Y0051421D02*
X0158513Y0051421D01*
X0157488Y0049306D02*
X0156938Y0049306D01*
X0156938Y0051628D01*
X0157488Y0051628D01*
X0157488Y0049306D01*
X0157488Y0049541D02*
X0156938Y0049541D01*
X0156938Y0049776D02*
X0157488Y0049776D01*
X0157488Y0050011D02*
X0156938Y0050011D01*
X0156938Y0050246D02*
X0157488Y0050246D01*
X0157488Y0050481D02*
X0156938Y0050481D01*
X0156938Y0050716D02*
X0157488Y0050716D01*
X0157488Y0050951D02*
X0156938Y0050951D01*
X0156938Y0051186D02*
X0157488Y0051186D01*
X0157488Y0051421D02*
X0156938Y0051421D01*
X0155914Y0049306D02*
X0155364Y0049306D01*
X0155364Y0051628D01*
X0155914Y0051628D01*
X0155914Y0049306D01*
X0155914Y0049541D02*
X0155364Y0049541D01*
X0155364Y0049776D02*
X0155914Y0049776D01*
X0155914Y0050011D02*
X0155364Y0050011D01*
X0155364Y0050246D02*
X0155914Y0050246D01*
X0155914Y0050481D02*
X0155364Y0050481D01*
X0155364Y0050716D02*
X0155914Y0050716D01*
X0155914Y0050951D02*
X0155364Y0050951D01*
X0155364Y0051186D02*
X0155914Y0051186D01*
X0155914Y0051421D02*
X0155364Y0051421D01*
X0151722Y0052948D02*
X0151722Y0053498D01*
X0154044Y0053498D01*
X0154044Y0052948D01*
X0151722Y0052948D01*
X0151722Y0053183D02*
X0154044Y0053183D01*
X0154044Y0053418D02*
X0151722Y0053418D01*
X0151722Y0054522D02*
X0151722Y0055072D01*
X0154044Y0055072D01*
X0154044Y0054522D01*
X0151722Y0054522D01*
X0151722Y0054757D02*
X0154044Y0054757D01*
X0154044Y0054992D02*
X0151722Y0054992D01*
X0151722Y0056097D02*
X0151722Y0056647D01*
X0154044Y0056647D01*
X0154044Y0056097D01*
X0151722Y0056097D01*
X0151722Y0056332D02*
X0154044Y0056332D01*
X0154044Y0056567D02*
X0151722Y0056567D01*
X0151722Y0057672D02*
X0151722Y0058222D01*
X0154044Y0058222D01*
X0154044Y0057672D01*
X0151722Y0057672D01*
X0151722Y0057907D02*
X0154044Y0057907D01*
X0154044Y0058142D02*
X0151722Y0058142D01*
X0151722Y0059247D02*
X0151722Y0059797D01*
X0154044Y0059797D01*
X0154044Y0059247D01*
X0151722Y0059247D01*
X0151722Y0059482D02*
X0154044Y0059482D01*
X0154044Y0059717D02*
X0151722Y0059717D01*
X0151722Y0060822D02*
X0151722Y0061372D01*
X0154044Y0061372D01*
X0154044Y0060822D01*
X0151722Y0060822D01*
X0151722Y0061057D02*
X0154044Y0061057D01*
X0154044Y0061292D02*
X0151722Y0061292D01*
X0151722Y0062396D02*
X0151722Y0062946D01*
X0154044Y0062946D01*
X0154044Y0062396D01*
X0151722Y0062396D01*
X0151722Y0062631D02*
X0154044Y0062631D01*
X0154044Y0062866D02*
X0151722Y0062866D01*
X0151722Y0063971D02*
X0151722Y0064521D01*
X0154044Y0064521D01*
X0154044Y0063971D01*
X0151722Y0063971D01*
X0151722Y0064206D02*
X0154044Y0064206D01*
X0154044Y0064441D02*
X0151722Y0064441D01*
X0151722Y0065546D02*
X0151722Y0066096D01*
X0154044Y0066096D01*
X0154044Y0065546D01*
X0151722Y0065546D01*
X0151722Y0065781D02*
X0154044Y0065781D01*
X0154044Y0066016D02*
X0151722Y0066016D01*
D26*
X0159517Y0089360D03*
X0174083Y0089360D03*
D27*
X0064300Y0111860D03*
X0054300Y0111860D03*
X0044300Y0111860D03*
D28*
X0105560Y0041979D03*
X0113040Y0041979D03*
X0113040Y0031742D03*
X0109300Y0031742D03*
X0105560Y0031742D03*
D29*
X0233847Y0020030D03*
D30*
X0196233Y0037895D02*
X0193699Y0035360D01*
X0189523Y0035360D01*
X0189275Y0035257D01*
X0189700Y0036283D01*
X0189700Y0037295D01*
X0190899Y0037295D01*
X0191782Y0037660D01*
X0192265Y0038144D01*
X0192483Y0038018D01*
X0192941Y0037895D01*
X0194962Y0037895D01*
X0194962Y0041676D01*
X0195331Y0041676D01*
X0195331Y0042044D01*
X0198915Y0042044D01*
X0198915Y0044263D01*
X0198792Y0044720D01*
X0198555Y0045131D01*
X0198220Y0045466D01*
X0198035Y0045573D01*
X0198417Y0045794D01*
X0198752Y0046129D01*
X0198989Y0046539D01*
X0199112Y0046997D01*
X0199112Y0049127D01*
X0195478Y0049127D01*
X0195478Y0045826D01*
X0195331Y0045826D01*
X0195331Y0042045D01*
X0194962Y0042045D01*
X0194962Y0045434D01*
X0195011Y0045434D01*
X0195011Y0049127D01*
X0195478Y0049127D01*
X0195478Y0049594D01*
X0195011Y0049594D01*
X0195011Y0052304D01*
X0195454Y0052304D01*
X0195454Y0056577D01*
X0196020Y0056577D01*
X0196020Y0053286D01*
X0195478Y0053286D01*
X0195478Y0049594D01*
X0199112Y0049594D01*
X0199112Y0051723D01*
X0198989Y0052181D01*
X0198785Y0052535D01*
X0199008Y0052664D01*
X0199343Y0052999D01*
X0199580Y0053410D01*
X0199702Y0053867D01*
X0199702Y0056578D01*
X0196020Y0056578D01*
X0196020Y0057143D01*
X0199702Y0057143D01*
X0199702Y0059853D01*
X0199580Y0060311D01*
X0199343Y0060721D01*
X0199008Y0061056D01*
X0198785Y0061185D01*
X0198989Y0061539D01*
X0199112Y0061997D01*
X0199112Y0064127D01*
X0195478Y0064127D01*
X0195478Y0060434D01*
X0196020Y0060434D01*
X0196020Y0057143D01*
X0195454Y0057143D01*
X0195454Y0061416D01*
X0195011Y0061416D01*
X0195011Y0064127D01*
X0195478Y0064127D01*
X0195478Y0064594D01*
X0195011Y0064594D01*
X0195011Y0067934D01*
X0195011Y0071627D01*
X0195478Y0071627D01*
X0195478Y0064594D01*
X0199112Y0064594D01*
X0199112Y0066723D01*
X0198989Y0067181D01*
X0198752Y0067591D01*
X0198417Y0067927D01*
X0198099Y0068110D01*
X0198417Y0068294D01*
X0198752Y0068629D01*
X0198989Y0069039D01*
X0199112Y0069497D01*
X0199112Y0071627D01*
X0195478Y0071627D01*
X0195478Y0072094D01*
X0195011Y0072094D01*
X0195011Y0075786D01*
X0192941Y0075786D01*
X0192483Y0075664D01*
X0192265Y0075538D01*
X0191782Y0076021D01*
X0190899Y0076386D01*
X0185811Y0076386D01*
X0184929Y0076021D01*
X0184254Y0075346D01*
X0183888Y0074464D01*
X0183888Y0071821D01*
X0178516Y0071821D01*
X0178414Y0071999D01*
X0178056Y0072356D01*
X0177619Y0072608D01*
X0177131Y0072739D01*
X0175717Y0072739D01*
X0175155Y0072739D01*
X0175155Y0073301D01*
X0174237Y0073301D01*
X0174237Y0073301D01*
X0175155Y0073301D01*
X0175155Y0074715D01*
X0175024Y0075203D01*
X0174772Y0075640D01*
X0174691Y0075721D01*
X0175430Y0076460D01*
X0187377Y0076460D01*
X0188443Y0076902D01*
X0193443Y0081902D01*
X0194258Y0082718D01*
X0194545Y0083410D01*
X0195514Y0084379D01*
X0196181Y0085989D01*
X0196181Y0087732D01*
X0195755Y0088760D01*
X0209499Y0088760D01*
X0211500Y0086759D01*
X0211500Y0053256D01*
X0199745Y0041406D01*
X0198915Y0040576D01*
X0198915Y0041676D01*
X0195331Y0041676D01*
X0195331Y0037895D01*
X0196233Y0037895D01*
X0195979Y0037641D02*
X0191735Y0037641D01*
X0189600Y0036042D02*
X0194381Y0036042D01*
X0194962Y0039239D02*
X0195331Y0039239D01*
X0195331Y0040838D02*
X0194962Y0040838D01*
X0194962Y0042436D02*
X0195331Y0042436D01*
X0195331Y0044035D02*
X0194962Y0044035D01*
X0195011Y0045633D02*
X0195331Y0045633D01*
X0195478Y0047232D02*
X0195011Y0047232D01*
X0195011Y0048830D02*
X0195478Y0048830D01*
X0195478Y0050429D02*
X0195011Y0050429D01*
X0195011Y0052027D02*
X0195478Y0052027D01*
X0195454Y0053626D02*
X0196020Y0053626D01*
X0196020Y0055225D02*
X0195454Y0055225D01*
X0196020Y0056823D02*
X0211500Y0056823D01*
X0211500Y0055225D02*
X0199702Y0055225D01*
X0199638Y0053626D02*
X0211500Y0053626D01*
X0210281Y0052027D02*
X0199030Y0052027D01*
X0199112Y0050429D02*
X0208695Y0050429D01*
X0207110Y0048830D02*
X0199112Y0048830D01*
X0199112Y0047232D02*
X0205524Y0047232D01*
X0203938Y0045633D02*
X0198139Y0045633D01*
X0198915Y0044035D02*
X0202352Y0044035D01*
X0200767Y0042436D02*
X0198915Y0042436D01*
X0198915Y0040838D02*
X0199176Y0040838D01*
X0179669Y0048830D02*
X0175755Y0048830D01*
X0175755Y0048804D02*
X0175755Y0051029D01*
X0177131Y0051029D01*
X0177619Y0051160D01*
X0178056Y0051412D01*
X0178414Y0051769D01*
X0178666Y0052207D01*
X0178797Y0052694D01*
X0178797Y0052879D01*
X0179013Y0053095D01*
X0179397Y0054021D01*
X0179397Y0055574D01*
X0179392Y0055585D01*
X0179397Y0055596D01*
X0179397Y0057149D01*
X0179392Y0057160D01*
X0179397Y0057170D01*
X0179397Y0058723D01*
X0179392Y0058734D01*
X0179397Y0058745D01*
X0179397Y0059771D01*
X0179788Y0059771D01*
X0181400Y0058159D01*
X0181400Y0051283D01*
X0181611Y0050773D01*
X0179341Y0048503D01*
X0178900Y0047437D01*
X0178900Y0045937D01*
X0178866Y0045922D01*
X0178387Y0045444D01*
X0178007Y0045664D01*
X0177549Y0045786D01*
X0175478Y0045786D01*
X0175478Y0042094D01*
X0175011Y0042094D01*
X0175011Y0045786D01*
X0172941Y0045786D01*
X0172483Y0045664D01*
X0172265Y0045537D01*
X0171782Y0046021D01*
X0170899Y0046386D01*
X0169700Y0046386D01*
X0169700Y0046646D01*
X0169721Y0046787D01*
X0170588Y0046787D01*
X0170599Y0046792D01*
X0170610Y0046787D01*
X0172163Y0046787D01*
X0172174Y0046792D01*
X0172185Y0046787D01*
X0173738Y0046787D01*
X0174663Y0047170D01*
X0175372Y0047879D01*
X0175755Y0048804D01*
X0174725Y0047232D02*
X0178900Y0047232D01*
X0178577Y0045633D02*
X0178059Y0045633D01*
X0175478Y0045633D02*
X0175011Y0045633D01*
X0175011Y0044035D02*
X0175478Y0044035D01*
X0175478Y0042436D02*
X0175011Y0042436D01*
X0175011Y0041627D02*
X0175478Y0041627D01*
X0175478Y0037934D01*
X0177549Y0037934D01*
X0177825Y0038008D01*
X0177825Y0034355D01*
X0178191Y0033473D01*
X0178866Y0032798D01*
X0179440Y0032560D01*
X0177623Y0032560D01*
X0176557Y0032119D01*
X0175741Y0031303D01*
X0174775Y0030337D01*
X0175500Y0032087D01*
X0175500Y0034434D01*
X0174602Y0036602D01*
X0173270Y0037934D01*
X0175011Y0037934D01*
X0175011Y0041627D01*
X0175011Y0040838D02*
X0175478Y0040838D01*
X0175478Y0039239D02*
X0175011Y0039239D01*
X0173563Y0037641D02*
X0177825Y0037641D01*
X0177825Y0036042D02*
X0174834Y0036042D01*
X0175496Y0034444D02*
X0177825Y0034444D01*
X0178818Y0032845D02*
X0175500Y0032845D01*
X0175685Y0031247D02*
X0175152Y0031247D01*
X0152619Y0036426D02*
X0151008Y0036426D01*
X0150126Y0036060D01*
X0149450Y0035385D01*
X0149085Y0034503D01*
X0149085Y0029217D01*
X0149450Y0028335D01*
X0150126Y0027660D01*
X0151008Y0027295D01*
X0151300Y0027295D01*
X0151300Y0026263D01*
X0151619Y0025493D01*
X0150505Y0025031D01*
X0148847Y0023373D01*
X0147189Y0025031D01*
X0145021Y0025930D01*
X0142674Y0025930D01*
X0140505Y0025031D01*
X0138847Y0023373D01*
X0137189Y0025031D01*
X0135021Y0025930D01*
X0132674Y0025930D01*
X0130505Y0025031D01*
X0128847Y0023373D01*
X0127189Y0025031D01*
X0125021Y0025930D01*
X0122674Y0025930D01*
X0120505Y0025031D01*
X0118847Y0023373D01*
X0117189Y0025031D01*
X0115085Y0025903D01*
X0115583Y0026401D01*
X0116040Y0027504D01*
X0116040Y0027903D01*
X0116157Y0028020D01*
X0116523Y0028902D01*
X0116523Y0028958D01*
X0119017Y0028958D01*
X0119017Y0032640D01*
X0119583Y0032640D01*
X0119583Y0028958D01*
X0122293Y0028958D01*
X0122751Y0029081D01*
X0123161Y0029318D01*
X0123496Y0029653D01*
X0123733Y0030063D01*
X0123856Y0030521D01*
X0123856Y0032641D01*
X0119583Y0032641D01*
X0119583Y0033206D01*
X0123856Y0033206D01*
X0123856Y0033799D01*
X0124629Y0033479D01*
X0126371Y0033479D01*
X0127982Y0034146D01*
X0128670Y0034834D01*
X0133399Y0034834D01*
X0134282Y0035200D01*
X0134765Y0035683D01*
X0134983Y0035557D01*
X0135441Y0035434D01*
X0137511Y0035434D01*
X0137511Y0039127D01*
X0137978Y0039127D01*
X0137978Y0035434D01*
X0140049Y0035434D01*
X0140507Y0035557D01*
X0140917Y0035794D01*
X0141252Y0036129D01*
X0141489Y0036539D01*
X0141612Y0036997D01*
X0141612Y0039127D01*
X0137978Y0039127D01*
X0137978Y0039594D01*
X0141612Y0039594D01*
X0141612Y0041160D01*
X0146100Y0041160D01*
X0146100Y0039524D01*
X0146587Y0038348D01*
X0147487Y0037447D01*
X0148663Y0036960D01*
X0149937Y0036960D01*
X0150661Y0037260D01*
X0152619Y0037260D01*
X0152619Y0036426D01*
X0150108Y0036042D02*
X0141166Y0036042D01*
X0141612Y0037641D02*
X0147294Y0037641D01*
X0146218Y0039239D02*
X0137978Y0039239D01*
X0137745Y0039360D02*
X0136800Y0037805D01*
X0137511Y0037641D02*
X0137978Y0037641D01*
X0137978Y0036042D02*
X0137511Y0036042D01*
X0130855Y0039360D02*
X0126800Y0039360D01*
X0128279Y0034444D02*
X0149085Y0034444D01*
X0149085Y0032845D02*
X0119583Y0032845D01*
X0119583Y0031247D02*
X0119017Y0031247D01*
X0119017Y0029648D02*
X0119583Y0029648D01*
X0116170Y0028050D02*
X0149736Y0028050D01*
X0149085Y0029648D02*
X0123492Y0029648D01*
X0123856Y0031247D02*
X0149085Y0031247D01*
X0151300Y0026451D02*
X0115604Y0026451D01*
X0117368Y0024853D02*
X0120327Y0024853D01*
X0127368Y0024853D02*
X0130327Y0024853D01*
X0137368Y0024853D02*
X0140327Y0024853D01*
X0147368Y0024853D02*
X0150327Y0024853D01*
X0149300Y0040160D02*
X0149300Y0044360D01*
X0119300Y0044360D01*
X0119300Y0040797D01*
X0115185Y0036597D02*
X0114565Y0037217D01*
X0111480Y0037217D01*
X0110598Y0037582D01*
X0109923Y0038257D01*
X0109557Y0039139D01*
X0109557Y0043660D01*
X0109043Y0043660D01*
X0109043Y0039139D01*
X0108677Y0038257D01*
X0108002Y0037582D01*
X0107120Y0037217D01*
X0104000Y0037217D01*
X0103424Y0037455D01*
X0103187Y0037218D01*
X0103415Y0037123D01*
X0104015Y0036523D01*
X0105094Y0036523D01*
X0105141Y0036504D01*
X0107120Y0036504D01*
X0108002Y0036139D01*
X0108237Y0035904D01*
X0109300Y0035904D01*
X0110363Y0035904D01*
X0110598Y0036139D01*
X0111480Y0036504D01*
X0114600Y0036504D01*
X0115176Y0036266D01*
X0115413Y0036503D01*
X0115185Y0036597D01*
X0110502Y0036042D02*
X0108098Y0036042D01*
X0109300Y0035904D02*
X0109300Y0031742D01*
X0109300Y0031742D01*
X0109300Y0035904D01*
X0109300Y0036860D02*
X0109300Y0031742D01*
X0109300Y0032845D02*
X0109300Y0032845D01*
X0109300Y0034444D02*
X0109300Y0034444D01*
X0108061Y0037641D02*
X0110539Y0037641D01*
X0109557Y0039239D02*
X0109043Y0039239D01*
X0109043Y0040838D02*
X0109557Y0040838D01*
X0109557Y0042436D02*
X0109043Y0042436D01*
X0105560Y0041979D02*
X0105560Y0045620D01*
X0106800Y0046860D01*
X0116800Y0046860D01*
X0119300Y0044360D01*
X0112155Y0050060D02*
X0106163Y0050060D01*
X0104987Y0049573D01*
X0104775Y0049360D01*
X0099800Y0049360D01*
X0099800Y0055108D01*
X0099937Y0055245D01*
X0099988Y0055369D01*
X0100929Y0054979D01*
X0102671Y0054979D01*
X0104282Y0055646D01*
X0104488Y0055853D01*
X0104488Y0054594D01*
X0108122Y0054594D01*
X0108122Y0058286D01*
X0107580Y0058286D01*
X0107580Y0061577D01*
X0108146Y0061577D01*
X0108146Y0057304D01*
X0108589Y0057304D01*
X0108589Y0054594D01*
X0108122Y0054594D01*
X0108122Y0054127D01*
X0108589Y0054127D01*
X0108589Y0050434D01*
X0110659Y0050434D01*
X0111117Y0050557D01*
X0111335Y0050683D01*
X0111818Y0050200D01*
X0112155Y0050060D01*
X0111589Y0050429D02*
X0099800Y0050429D01*
X0099800Y0052027D02*
X0104488Y0052027D01*
X0104488Y0051997D02*
X0104611Y0051539D01*
X0104848Y0051129D01*
X0105183Y0050794D01*
X0105593Y0050557D01*
X0106051Y0050434D01*
X0108122Y0050434D01*
X0108122Y0054127D01*
X0104488Y0054127D01*
X0104488Y0051997D01*
X0104488Y0053626D02*
X0099800Y0053626D01*
X0099917Y0055225D02*
X0100336Y0055225D01*
X0103264Y0055225D02*
X0104488Y0055225D01*
X0107863Y0054852D02*
X0108355Y0054360D01*
X0107863Y0054852D02*
X0107863Y0061860D01*
X0107580Y0061619D02*
X0105607Y0061619D01*
X0105624Y0061578D02*
X0105514Y0061842D01*
X0105213Y0062143D01*
X0107580Y0062143D01*
X0107580Y0061578D01*
X0105624Y0061578D01*
X0107580Y0062143D02*
X0107580Y0066416D01*
X0105461Y0066416D01*
X0105003Y0066293D01*
X0104592Y0066056D01*
X0104257Y0065721D01*
X0104020Y0065311D01*
X0103898Y0064853D01*
X0103898Y0063233D01*
X0103679Y0063324D01*
X0101443Y0065560D01*
X0100599Y0066404D01*
X0099712Y0066771D01*
X0099712Y0071964D01*
X0099346Y0072846D01*
X0098671Y0073521D01*
X0097789Y0073886D01*
X0092701Y0073886D01*
X0091818Y0073521D01*
X0091800Y0073502D01*
X0091782Y0073521D01*
X0090899Y0073886D01*
X0087407Y0073886D01*
X0088355Y0074834D01*
X0090899Y0074834D01*
X0091782Y0075200D01*
X0092265Y0075683D01*
X0092483Y0075557D01*
X0092941Y0075434D01*
X0095011Y0075434D01*
X0095011Y0079127D01*
X0095478Y0079127D01*
X0095478Y0075434D01*
X0097549Y0075434D01*
X0098007Y0075557D01*
X0098417Y0075794D01*
X0098752Y0076129D01*
X0098989Y0076539D01*
X0099112Y0076997D01*
X0099112Y0079127D01*
X0095478Y0079127D01*
X0095478Y0079594D01*
X0095011Y0079594D01*
X0095011Y0083286D01*
X0092941Y0083286D01*
X0092483Y0083164D01*
X0092265Y0083038D01*
X0091782Y0083521D01*
X0090899Y0083886D01*
X0086181Y0083886D01*
X0086181Y0084795D01*
X0090899Y0084795D01*
X0091782Y0085160D01*
X0092265Y0085644D01*
X0092483Y0085518D01*
X0092941Y0085395D01*
X0094962Y0085395D01*
X0094962Y0089176D01*
X0095331Y0089176D01*
X0095331Y0089544D01*
X0098915Y0089544D01*
X0098915Y0091763D01*
X0098792Y0092220D01*
X0098555Y0092631D01*
X0098220Y0092966D01*
X0097810Y0093203D01*
X0097352Y0093326D01*
X0095331Y0093326D01*
X0095331Y0089545D01*
X0094962Y0089545D01*
X0094962Y0093326D01*
X0092941Y0093326D01*
X0092483Y0093203D01*
X0092265Y0093077D01*
X0091782Y0093560D01*
X0090899Y0093926D01*
X0086008Y0093926D01*
X0085126Y0093560D01*
X0084450Y0092885D01*
X0084316Y0092560D01*
X0079310Y0092560D01*
X0079310Y0093038D01*
X0078945Y0093920D01*
X0078269Y0094595D01*
X0077387Y0094960D01*
X0074070Y0094960D01*
X0073359Y0094666D01*
X0073218Y0094704D01*
X0071800Y0094704D01*
X0070382Y0094704D01*
X0070220Y0094660D01*
X0069521Y0094949D01*
X0066204Y0094949D01*
X0065322Y0094584D01*
X0064647Y0093909D01*
X0064282Y0093027D01*
X0064282Y0091043D01*
X0057941Y0085460D01*
X0056814Y0085460D01*
X0051434Y0085501D01*
X0051304Y0085814D01*
X0049383Y0087735D01*
X0046873Y0088774D01*
X0044157Y0088774D01*
X0041647Y0087735D01*
X0039726Y0085814D01*
X0038686Y0083304D01*
X0038686Y0080587D01*
X0039726Y0078077D01*
X0041172Y0076630D01*
X0039726Y0075184D01*
X0038686Y0072674D01*
X0038686Y0069957D01*
X0039726Y0067447D01*
X0039928Y0067244D01*
X0038942Y0066258D01*
X0037762Y0063409D01*
X0037762Y0060324D01*
X0038942Y0057475D01*
X0039928Y0056489D01*
X0039726Y0056286D01*
X0038686Y0053776D01*
X0038686Y0051059D01*
X0039726Y0048549D01*
X0041172Y0047103D01*
X0039726Y0045656D01*
X0038686Y0043146D01*
X0038686Y0040429D01*
X0039726Y0037919D01*
X0041647Y0035998D01*
X0044157Y0034959D01*
X0046873Y0034959D01*
X0049383Y0035998D01*
X0051304Y0037919D01*
X0051428Y0038219D01*
X0058740Y0038257D01*
X0058871Y0038215D01*
X0059452Y0038261D01*
X0060035Y0038264D01*
X0060162Y0038317D01*
X0060299Y0038328D01*
X0060818Y0038593D01*
X0061355Y0038819D01*
X0061452Y0038917D01*
X0061574Y0038979D01*
X0061953Y0039423D01*
X0062363Y0039837D01*
X0062415Y0039964D01*
X0067861Y0046350D01*
X0069521Y0046350D01*
X0070220Y0046639D01*
X0070382Y0046596D01*
X0071800Y0046596D01*
X0073218Y0046596D01*
X0073392Y0046642D01*
X0074070Y0046361D01*
X0077387Y0046361D01*
X0078269Y0046726D01*
X0078945Y0047402D01*
X0079310Y0048284D01*
X0079310Y0053154D01*
X0079318Y0053146D01*
X0080929Y0052479D01*
X0082671Y0052479D01*
X0084282Y0053146D01*
X0085514Y0054379D01*
X0085690Y0054804D01*
X0087580Y0054804D01*
X0087580Y0059077D01*
X0088146Y0059077D01*
X0088146Y0054804D01*
X0090265Y0054804D01*
X0090723Y0054927D01*
X0091134Y0055164D01*
X0091443Y0055473D01*
X0091537Y0055245D01*
X0092212Y0054570D01*
X0093094Y0054204D01*
X0093800Y0054204D01*
X0093800Y0053926D01*
X0092701Y0053926D01*
X0091818Y0053560D01*
X0091335Y0053077D01*
X0091117Y0053203D01*
X0090659Y0053326D01*
X0088638Y0053326D01*
X0088638Y0049545D01*
X0088269Y0049545D01*
X0088269Y0053326D01*
X0086248Y0053326D01*
X0085790Y0053203D01*
X0085380Y0052966D01*
X0085045Y0052631D01*
X0084808Y0052220D01*
X0084685Y0051763D01*
X0084685Y0049544D01*
X0088269Y0049544D01*
X0088269Y0049360D01*
X0081800Y0049360D01*
X0081800Y0044927D01*
X0080513Y0045460D01*
X0078087Y0045460D01*
X0075845Y0044532D01*
X0074129Y0042816D01*
X0073932Y0042342D01*
X0073495Y0042943D01*
X0072883Y0043555D01*
X0072183Y0044064D01*
X0071411Y0044457D01*
X0070588Y0044725D01*
X0069733Y0044860D01*
X0069500Y0044860D01*
X0069500Y0039560D01*
X0069100Y0039560D01*
X0069100Y0039160D01*
X0063800Y0039160D01*
X0063800Y0038927D01*
X0063935Y0038072D01*
X0064203Y0037249D01*
X0064596Y0036478D01*
X0065105Y0035777D01*
X0065717Y0035165D01*
X0066417Y0034656D01*
X0066998Y0034360D01*
X0015944Y0034360D01*
X0015944Y0034429D01*
X0017530Y0034429D01*
X0020379Y0035609D01*
X0020909Y0036139D01*
X0021438Y0035609D01*
X0024288Y0034429D01*
X0027372Y0034429D01*
X0030221Y0035609D01*
X0032402Y0037790D01*
X0033583Y0040639D01*
X0033583Y0043724D01*
X0032402Y0046573D01*
X0030221Y0048754D01*
X0027372Y0049934D01*
X0024288Y0049934D01*
X0021438Y0048754D01*
X0020909Y0048224D01*
X0020379Y0048754D01*
X0017530Y0049934D01*
X0015944Y0049934D01*
X0015944Y0073799D01*
X0017530Y0073799D01*
X0020379Y0074979D01*
X0020909Y0075509D01*
X0021438Y0074979D01*
X0024288Y0073799D01*
X0027372Y0073799D01*
X0030221Y0074979D01*
X0032402Y0077160D01*
X0033583Y0080009D01*
X0033583Y0083094D01*
X0032402Y0085943D01*
X0030221Y0088124D01*
X0027372Y0089304D01*
X0024288Y0089304D01*
X0021438Y0088124D01*
X0020909Y0087594D01*
X0020379Y0088124D01*
X0017530Y0089304D01*
X0015944Y0089304D01*
X0015944Y0100274D01*
X0016501Y0099310D01*
X0018403Y0097408D01*
X0020732Y0096063D01*
X0023329Y0095367D01*
X0026019Y0095367D01*
X0028616Y0096063D01*
X0030945Y0097408D01*
X0032847Y0099310D01*
X0034191Y0101638D01*
X0034887Y0104236D01*
X0034887Y0106925D01*
X0034191Y0109523D01*
X0032847Y0111852D01*
X0030945Y0113753D01*
X0029981Y0114310D01*
X0039037Y0114310D01*
X0038500Y0113014D01*
X0038500Y0110707D01*
X0039383Y0108575D01*
X0041015Y0106943D01*
X0043146Y0106060D01*
X0045454Y0106060D01*
X0047585Y0106943D01*
X0049217Y0108575D01*
X0049630Y0109572D01*
X0049853Y0109135D01*
X0050334Y0108473D01*
X0050912Y0107894D01*
X0051575Y0107413D01*
X0052304Y0107041D01*
X0053082Y0106788D01*
X0053891Y0106660D01*
X0054225Y0106660D01*
X0054225Y0111785D01*
X0054375Y0111785D01*
X0054375Y0106660D01*
X0054709Y0106660D01*
X0055518Y0106788D01*
X0056296Y0107041D01*
X0057025Y0107413D01*
X0057688Y0107894D01*
X0058266Y0108473D01*
X0058747Y0109135D01*
X0058970Y0109572D01*
X0059383Y0108575D01*
X0061015Y0106943D01*
X0063146Y0106060D01*
X0065454Y0106060D01*
X0067585Y0106943D01*
X0069217Y0108575D01*
X0070100Y0110707D01*
X0070100Y0113014D01*
X0069563Y0114310D01*
X0086800Y0114310D01*
X0086800Y0094360D01*
X0104300Y0094360D01*
X0104300Y0085461D01*
X0104290Y0085437D01*
X0104290Y0078183D01*
X0104300Y0078159D01*
X0104300Y0076860D01*
X0105096Y0076860D01*
X0105330Y0076626D01*
X0105506Y0076553D01*
X0106841Y0075218D01*
X0107657Y0074402D01*
X0108723Y0073960D01*
X0116400Y0073960D01*
X0116400Y0068179D01*
X0116151Y0068201D01*
X0115012Y0067844D01*
X0114097Y0067078D01*
X0114064Y0067016D01*
X0113094Y0067016D01*
X0112212Y0066651D01*
X0111537Y0065976D01*
X0111443Y0065748D01*
X0111134Y0066056D01*
X0110723Y0066293D01*
X0110265Y0066416D01*
X0108146Y0066416D01*
X0108146Y0062143D01*
X0107580Y0062143D01*
X0107580Y0063217D02*
X0108146Y0063217D01*
X0108146Y0064816D02*
X0107580Y0064816D01*
X0107580Y0066414D02*
X0108146Y0066414D01*
X0110273Y0066414D02*
X0111975Y0066414D01*
X0115549Y0068013D02*
X0099712Y0068013D01*
X0100574Y0066414D02*
X0105453Y0066414D01*
X0103898Y0064816D02*
X0102187Y0064816D01*
X0107580Y0060020D02*
X0108146Y0060020D01*
X0108146Y0058422D02*
X0107580Y0058422D01*
X0108122Y0056823D02*
X0108589Y0056823D01*
X0108589Y0055225D02*
X0108122Y0055225D01*
X0108122Y0053626D02*
X0108589Y0053626D01*
X0108589Y0052027D02*
X0108122Y0052027D01*
X0095146Y0049360D02*
X0092800Y0044260D01*
X0088000Y0044260D01*
X0086200Y0041760D01*
X0083700Y0039260D01*
X0079300Y0039360D01*
X0073972Y0042436D02*
X0073863Y0042436D01*
X0075348Y0044035D02*
X0072223Y0044035D01*
X0069500Y0044035D02*
X0069100Y0044035D01*
X0069300Y0044360D02*
X0071800Y0046860D01*
X0071800Y0046596D02*
X0071800Y0049577D01*
X0071800Y0049577D01*
X0071800Y0054222D01*
X0071800Y0054222D01*
X0071800Y0052558D01*
X0071800Y0049577D01*
X0071800Y0049577D01*
X0071800Y0046596D01*
X0071800Y0047232D02*
X0071800Y0047232D01*
X0071800Y0048830D02*
X0071800Y0048830D01*
X0071800Y0050429D02*
X0071800Y0050429D01*
X0071800Y0052027D02*
X0071800Y0052027D01*
X0071800Y0053626D02*
X0071800Y0053626D01*
X0075729Y0054331D02*
X0075729Y0051911D01*
X0075729Y0054331D02*
X0075300Y0055860D01*
X0072394Y0057860D01*
X0065894Y0064360D01*
X0066800Y0064360D01*
X0066800Y0066860D01*
X0069300Y0069360D01*
X0069300Y0069460D01*
X0070100Y0070260D01*
X0082100Y0070260D01*
X0084000Y0072160D01*
X0084000Y0075005D01*
X0088355Y0079360D01*
X0081800Y0080955D02*
X0077706Y0076860D01*
X0071800Y0079360D02*
X0071800Y0081860D01*
X0074300Y0084360D01*
X0076400Y0084360D01*
X0076500Y0084460D01*
X0076500Y0086140D01*
X0075729Y0089411D01*
X0075779Y0089360D01*
X0088454Y0089360D01*
X0094962Y0088793D02*
X0095331Y0088793D01*
X0095331Y0089176D02*
X0095331Y0085395D01*
X0097352Y0085395D01*
X0097810Y0085518D01*
X0098220Y0085755D01*
X0098555Y0086090D01*
X0098792Y0086500D01*
X0098915Y0086958D01*
X0098915Y0089176D01*
X0095331Y0089176D01*
X0095245Y0089262D02*
X0095146Y0089360D01*
X0095245Y0089262D02*
X0095245Y0079360D01*
X0101800Y0079360D01*
X0101800Y0076860D01*
X0104300Y0077604D02*
X0099112Y0077604D01*
X0098628Y0076005D02*
X0106054Y0076005D01*
X0107652Y0074407D02*
X0087927Y0074407D01*
X0095011Y0076005D02*
X0095478Y0076005D01*
X0095478Y0077604D02*
X0095011Y0077604D01*
X0095478Y0079202D02*
X0104290Y0079202D01*
X0104290Y0080801D02*
X0099112Y0080801D01*
X0099112Y0081723D02*
X0099112Y0079594D01*
X0095478Y0079594D01*
X0095478Y0083286D01*
X0097549Y0083286D01*
X0098007Y0083164D01*
X0098417Y0082927D01*
X0098752Y0082591D01*
X0098989Y0082181D01*
X0099112Y0081723D01*
X0098863Y0082399D02*
X0104290Y0082399D01*
X0104290Y0083998D02*
X0086181Y0083998D01*
X0081800Y0084360D02*
X0081800Y0080955D01*
X0092217Y0085596D02*
X0092347Y0085596D01*
X0094962Y0085596D02*
X0095331Y0085596D01*
X0097946Y0085596D02*
X0104300Y0085596D01*
X0104300Y0087195D02*
X0098915Y0087195D01*
X0098915Y0088793D02*
X0104300Y0088793D01*
X0104300Y0090392D02*
X0098915Y0090392D01*
X0098854Y0091990D02*
X0104300Y0091990D01*
X0104300Y0093589D02*
X0091713Y0093589D01*
X0094962Y0091990D02*
X0095331Y0091990D01*
X0095331Y0090392D02*
X0094962Y0090392D01*
X0094962Y0087195D02*
X0095331Y0087195D01*
X0095478Y0082399D02*
X0095011Y0082399D01*
X0095011Y0080801D02*
X0095478Y0080801D01*
X0099362Y0072808D02*
X0116400Y0072808D01*
X0116400Y0071210D02*
X0099712Y0071210D01*
X0099712Y0069611D02*
X0116400Y0069611D01*
X0122900Y0063060D02*
X0122900Y0060560D01*
X0128122Y0059127D02*
X0128589Y0059127D01*
X0128589Y0055434D01*
X0128631Y0055434D01*
X0127601Y0054404D01*
X0127362Y0054165D01*
X0127460Y0055434D01*
X0128122Y0055434D01*
X0128122Y0059127D01*
X0128122Y0058422D02*
X0128589Y0058422D01*
X0128589Y0056823D02*
X0128122Y0056823D01*
X0128422Y0055225D02*
X0127443Y0055225D01*
X0149300Y0053223D02*
X0149300Y0044360D01*
X0152500Y0044035D02*
X0155541Y0044035D01*
X0155519Y0044089D02*
X0155945Y0043060D01*
X0152500Y0043060D01*
X0152500Y0050323D01*
X0153445Y0050323D01*
X0153445Y0049053D01*
X0153576Y0048565D01*
X0153828Y0048127D01*
X0154185Y0047770D01*
X0154623Y0047518D01*
X0155110Y0047387D01*
X0155639Y0047387D01*
X0156163Y0047387D01*
X0155519Y0045832D01*
X0155519Y0044089D01*
X0155519Y0045633D02*
X0152500Y0045633D01*
X0152500Y0047232D02*
X0156099Y0047232D01*
X0155639Y0047387D02*
X0155639Y0047892D01*
X0155639Y0047892D01*
X0155639Y0047387D01*
X0153504Y0048830D02*
X0152500Y0048830D01*
X0155639Y0050467D02*
X0157213Y0050467D01*
X0157213Y0050467D01*
X0155639Y0050467D01*
X0155639Y0050467D01*
X0163259Y0053921D02*
X0163165Y0054155D01*
X0163500Y0054155D01*
X0163500Y0061060D01*
X0165100Y0061060D01*
X0165100Y0054155D01*
X0170186Y0054155D01*
X0170719Y0054298D01*
X0171197Y0054573D01*
X0171587Y0054963D01*
X0171863Y0055441D01*
X0172005Y0055974D01*
X0172005Y0060064D01*
X0172038Y0060051D01*
X0172038Y0058745D01*
X0172042Y0058734D01*
X0172038Y0058723D01*
X0172038Y0057170D01*
X0172042Y0057160D01*
X0172038Y0057149D01*
X0172038Y0055596D01*
X0172042Y0055585D01*
X0172038Y0055574D01*
X0172038Y0054146D01*
X0170610Y0054146D01*
X0170599Y0054142D01*
X0170588Y0054146D01*
X0169035Y0054146D01*
X0169024Y0054142D01*
X0169013Y0054146D01*
X0167461Y0054146D01*
X0167450Y0054142D01*
X0167439Y0054146D01*
X0165886Y0054146D01*
X0165875Y0054142D01*
X0165864Y0054146D01*
X0164311Y0054146D01*
X0163513Y0053815D01*
X0163259Y0053921D01*
X0163500Y0055225D02*
X0165100Y0055225D01*
X0165100Y0056823D02*
X0163500Y0056823D01*
X0163500Y0058422D02*
X0165100Y0058422D01*
X0165100Y0060020D02*
X0163500Y0060020D01*
X0163500Y0061060D02*
X0159100Y0061060D01*
X0159100Y0062660D01*
X0163500Y0062660D01*
X0163500Y0061060D01*
X0163500Y0061619D02*
X0159100Y0061619D01*
X0163500Y0062660D02*
X0163500Y0067560D01*
X0165100Y0067560D01*
X0165100Y0062660D01*
X0169692Y0062660D01*
X0170041Y0061818D01*
X0170799Y0061060D01*
X0165100Y0061060D01*
X0165100Y0062660D01*
X0163500Y0062660D01*
X0163500Y0063217D02*
X0165100Y0063217D01*
X0165100Y0061619D02*
X0170240Y0061619D01*
X0172005Y0060020D02*
X0172038Y0060020D01*
X0172005Y0058422D02*
X0172038Y0058422D01*
X0172005Y0056823D02*
X0172038Y0056823D01*
X0172038Y0055225D02*
X0171738Y0055225D01*
X0178563Y0052027D02*
X0181400Y0052027D01*
X0181400Y0053626D02*
X0179233Y0053626D01*
X0179397Y0055225D02*
X0181400Y0055225D01*
X0181400Y0056823D02*
X0179397Y0056823D01*
X0179397Y0058422D02*
X0181137Y0058422D01*
X0181268Y0050429D02*
X0175755Y0050429D01*
X0172431Y0045633D02*
X0172169Y0045633D01*
X0195454Y0058422D02*
X0196020Y0058422D01*
X0199702Y0058422D02*
X0211500Y0058422D01*
X0211500Y0060020D02*
X0199658Y0060020D01*
X0199010Y0061619D02*
X0211500Y0061619D01*
X0211500Y0063217D02*
X0199112Y0063217D01*
X0199112Y0064816D02*
X0211500Y0064816D01*
X0211500Y0066414D02*
X0199112Y0066414D01*
X0198268Y0068013D02*
X0211500Y0068013D01*
X0211500Y0069611D02*
X0199112Y0069611D01*
X0199112Y0071210D02*
X0211500Y0071210D01*
X0211500Y0072808D02*
X0199112Y0072808D01*
X0199112Y0072094D02*
X0199112Y0074223D01*
X0198989Y0074681D01*
X0198752Y0075091D01*
X0198417Y0075427D01*
X0198007Y0075664D01*
X0197549Y0075786D01*
X0195478Y0075786D01*
X0195478Y0072094D01*
X0199112Y0072094D01*
X0199063Y0074407D02*
X0211500Y0074407D01*
X0211500Y0076005D02*
X0191797Y0076005D01*
X0189145Y0077604D02*
X0211500Y0077604D01*
X0211500Y0079202D02*
X0190743Y0079202D01*
X0192342Y0080801D02*
X0211500Y0080801D01*
X0211500Y0082399D02*
X0193940Y0082399D01*
X0193443Y0081902D02*
X0193443Y0081902D01*
X0195133Y0083998D02*
X0211500Y0083998D01*
X0211500Y0085596D02*
X0196018Y0085596D01*
X0196181Y0087195D02*
X0211064Y0087195D01*
X0190002Y0090857D02*
X0189318Y0090574D01*
X0188086Y0089342D01*
X0187419Y0087732D01*
X0187419Y0085989D01*
X0187978Y0084639D01*
X0185599Y0082260D01*
X0185574Y0082260D01*
X0185803Y0082489D01*
X0186168Y0083371D01*
X0186168Y0088657D01*
X0185803Y0089539D01*
X0185456Y0089885D01*
X0185568Y0090304D01*
X0185568Y0091966D01*
X0185823Y0091860D01*
X0188999Y0091860D01*
X0190002Y0090857D01*
X0189136Y0090392D02*
X0185568Y0090392D01*
X0186112Y0088793D02*
X0187859Y0088793D01*
X0187419Y0087195D02*
X0186168Y0087195D01*
X0186168Y0085596D02*
X0187581Y0085596D01*
X0187336Y0083998D02*
X0186168Y0083998D01*
X0185738Y0082399D02*
X0185713Y0082399D01*
X0181800Y0086014D02*
X0180954Y0086860D01*
X0179300Y0086860D01*
X0176800Y0089360D01*
X0174083Y0089360D01*
X0159517Y0089360D02*
X0158457Y0089360D01*
X0158457Y0086860D01*
X0151984Y0090579D02*
X0151984Y0092522D01*
X0151616Y0092522D01*
X0151616Y0090579D01*
X0151984Y0090579D01*
X0151984Y0091990D02*
X0151616Y0091990D01*
X0151616Y0092522D02*
X0148031Y0092522D01*
X0148031Y0090304D01*
X0148144Y0089885D01*
X0147797Y0089539D01*
X0147431Y0088657D01*
X0147431Y0087830D01*
X0145148Y0090113D01*
X0145314Y0090279D01*
X0145981Y0091889D01*
X0145981Y0093632D01*
X0145314Y0095242D01*
X0144082Y0096474D01*
X0144002Y0096507D01*
X0143618Y0097641D01*
X0144357Y0096902D01*
X0145423Y0096460D01*
X0148982Y0096460D01*
X0148726Y0096312D01*
X0148391Y0095977D01*
X0148154Y0095567D01*
X0148031Y0095109D01*
X0148031Y0092891D01*
X0151616Y0092891D01*
X0151616Y0092522D01*
X0151800Y0092510D02*
X0151800Y0092707D01*
X0148031Y0091990D02*
X0145981Y0091990D01*
X0145981Y0093589D02*
X0148031Y0093589D01*
X0148052Y0095187D02*
X0145337Y0095187D01*
X0144637Y0096786D02*
X0143908Y0096786D01*
X0137987Y0096186D02*
X0132901Y0096186D01*
X0132018Y0095821D01*
X0131535Y0095337D01*
X0131317Y0095464D01*
X0130859Y0095586D01*
X0128789Y0095586D01*
X0128789Y0091894D01*
X0128322Y0091894D01*
X0128322Y0095586D01*
X0126251Y0095586D01*
X0125793Y0095464D01*
X0125383Y0095227D01*
X0125048Y0094891D01*
X0124811Y0094481D01*
X0124688Y0094023D01*
X0124688Y0091894D01*
X0128322Y0091894D01*
X0128322Y0091427D01*
X0128789Y0091427D01*
X0128789Y0089386D01*
X0128689Y0089386D01*
X0128689Y0085694D01*
X0128222Y0085694D01*
X0128222Y0087734D01*
X0128322Y0087734D01*
X0128322Y0091427D01*
X0124688Y0091427D01*
X0124688Y0089297D01*
X0124811Y0088839D01*
X0124922Y0088647D01*
X0124711Y0088281D01*
X0124588Y0087823D01*
X0124588Y0085694D01*
X0128222Y0085694D01*
X0128222Y0085227D01*
X0124588Y0085227D01*
X0124588Y0084460D01*
X0124300Y0084460D01*
X0124300Y0114310D01*
X0128712Y0114310D01*
X0128200Y0113074D01*
X0128200Y0110647D01*
X0129129Y0108405D01*
X0130845Y0106689D01*
X0133087Y0105760D01*
X0135499Y0105760D01*
X0137101Y0104158D01*
X0135886Y0102942D01*
X0135219Y0101332D01*
X0135219Y0099589D01*
X0135886Y0097979D01*
X0137118Y0096746D01*
X0137908Y0096419D01*
X0137987Y0096186D01*
X0137079Y0096786D02*
X0124300Y0096786D01*
X0124300Y0098384D02*
X0135718Y0098384D01*
X0135219Y0099983D02*
X0124300Y0099983D01*
X0124300Y0101581D02*
X0135322Y0101581D01*
X0136124Y0103180D02*
X0124300Y0103180D01*
X0124300Y0104778D02*
X0136481Y0104778D01*
X0131598Y0106377D02*
X0124300Y0106377D01*
X0124300Y0107975D02*
X0129558Y0107975D01*
X0128644Y0109574D02*
X0124300Y0109574D01*
X0124300Y0111172D02*
X0128200Y0111172D01*
X0128200Y0112771D02*
X0124300Y0112771D01*
X0124300Y0095187D02*
X0125344Y0095187D01*
X0124300Y0094360D02*
X0114300Y0094360D01*
X0111800Y0093860D01*
X0124300Y0093589D02*
X0124688Y0093589D01*
X0124300Y0094360D02*
X0128555Y0091660D01*
X0128555Y0087060D01*
X0128689Y0087195D02*
X0128222Y0087195D01*
X0128322Y0088793D02*
X0128689Y0088793D01*
X0128789Y0090392D02*
X0128322Y0090392D01*
X0128322Y0091990D02*
X0128789Y0091990D01*
X0128789Y0093589D02*
X0128322Y0093589D01*
X0128322Y0095187D02*
X0128789Y0095187D01*
X0124688Y0091990D02*
X0124300Y0091990D01*
X0124300Y0090392D02*
X0124688Y0090392D01*
X0124838Y0088793D02*
X0124300Y0088793D01*
X0124300Y0087195D02*
X0124588Y0087195D01*
X0124300Y0085596D02*
X0128222Y0085596D01*
X0145361Y0090392D02*
X0148031Y0090392D01*
X0147488Y0088793D02*
X0146468Y0088793D01*
X0161469Y0077747D02*
X0162808Y0077757D01*
X0162869Y0077735D01*
X0163078Y0077441D01*
X0163347Y0076981D01*
X0162736Y0076981D01*
X0162725Y0076976D01*
X0162714Y0076981D01*
X0161638Y0076981D01*
X0161638Y0077339D01*
X0161469Y0077747D01*
X0161529Y0077604D02*
X0162962Y0077604D01*
X0153564Y0075160D02*
X0153445Y0074715D01*
X0153445Y0073395D01*
X0151015Y0073395D01*
X0151015Y0073622D01*
X0150573Y0074688D01*
X0150101Y0075160D01*
X0153564Y0075160D01*
X0153445Y0074407D02*
X0150690Y0074407D01*
X0163500Y0066414D02*
X0165100Y0066414D01*
X0165100Y0064816D02*
X0163500Y0064816D01*
X0175717Y0071871D02*
X0175717Y0072739D01*
X0175717Y0071871D01*
X0175717Y0071871D01*
X0175155Y0072808D02*
X0183888Y0072808D01*
X0183888Y0074407D02*
X0175155Y0074407D01*
X0174975Y0076005D02*
X0184913Y0076005D01*
X0195011Y0074407D02*
X0195478Y0074407D01*
X0195478Y0072808D02*
X0195011Y0072808D01*
X0195011Y0071210D02*
X0195478Y0071210D01*
X0195478Y0069611D02*
X0195011Y0069611D01*
X0195011Y0068013D02*
X0195478Y0068013D01*
X0195478Y0066414D02*
X0195011Y0066414D01*
X0195011Y0064816D02*
X0195478Y0064816D01*
X0195478Y0063217D02*
X0195011Y0063217D01*
X0195011Y0061619D02*
X0195478Y0061619D01*
X0195454Y0060020D02*
X0196020Y0060020D01*
X0146100Y0040838D02*
X0141612Y0040838D01*
X0102077Y0040838D02*
X0099583Y0040838D01*
X0099583Y0041080D02*
X0099583Y0040515D01*
X0102077Y0040515D01*
X0102077Y0041080D01*
X0099583Y0041080D01*
X0099300Y0040797D02*
X0092837Y0034334D01*
X0092837Y0032760D01*
X0094144Y0032845D02*
X0089123Y0032845D01*
X0090189Y0034444D02*
X0094144Y0034444D01*
X0094144Y0035566D02*
X0094144Y0030280D01*
X0094509Y0029398D01*
X0095185Y0028723D01*
X0095308Y0028672D01*
X0094919Y0027732D01*
X0094919Y0025989D01*
X0094943Y0025930D01*
X0092674Y0025930D01*
X0090505Y0025031D01*
X0088847Y0023373D01*
X0087189Y0025031D01*
X0085021Y0025930D01*
X0084513Y0025930D01*
X0094744Y0041276D01*
X0094744Y0041080D01*
X0099017Y0041080D01*
X0099017Y0040515D01*
X0094744Y0040515D01*
X0094744Y0038395D01*
X0094867Y0037937D01*
X0095104Y0037527D01*
X0095413Y0037218D01*
X0095185Y0037123D01*
X0094509Y0036448D01*
X0094144Y0035566D01*
X0094341Y0036042D02*
X0091255Y0036042D01*
X0092320Y0037641D02*
X0095038Y0037641D01*
X0094744Y0039239D02*
X0093386Y0039239D01*
X0094452Y0040838D02*
X0099017Y0040838D01*
X0084300Y0049360D02*
X0081800Y0046860D01*
X0081800Y0047232D02*
X0078775Y0047232D01*
X0079310Y0048830D02*
X0081800Y0048830D01*
X0084300Y0049360D02*
X0088454Y0049360D01*
X0088269Y0050429D02*
X0088638Y0050429D01*
X0088638Y0052027D02*
X0088269Y0052027D01*
X0084756Y0052027D02*
X0079310Y0052027D01*
X0079310Y0050429D02*
X0084685Y0050429D01*
X0084762Y0053626D02*
X0091977Y0053626D01*
X0091557Y0055225D02*
X0091194Y0055225D01*
X0088146Y0055225D02*
X0087580Y0055225D01*
X0087580Y0056823D02*
X0088146Y0056823D01*
X0088146Y0058422D02*
X0087580Y0058422D01*
X0087580Y0059643D02*
X0087580Y0063916D01*
X0085461Y0063916D01*
X0085003Y0063793D01*
X0084592Y0063556D01*
X0084257Y0063221D01*
X0084020Y0062811D01*
X0083898Y0062353D01*
X0083898Y0060733D01*
X0083058Y0061081D01*
X0083058Y0067194D01*
X0083888Y0067537D01*
X0083888Y0066757D01*
X0084254Y0065875D01*
X0084929Y0065200D01*
X0085811Y0064834D01*
X0087083Y0064834D01*
X0087145Y0064772D01*
X0087522Y0064371D01*
X0087566Y0064351D01*
X0088146Y0063772D01*
X0088146Y0059643D01*
X0087580Y0059643D01*
X0087580Y0060020D02*
X0088146Y0060020D01*
X0088146Y0061619D02*
X0087580Y0061619D01*
X0087580Y0063217D02*
X0088146Y0063217D01*
X0087102Y0064816D02*
X0083058Y0064816D01*
X0083058Y0066414D02*
X0084030Y0066414D01*
X0084255Y0063217D02*
X0083058Y0063217D01*
X0083058Y0061619D02*
X0083898Y0061619D01*
X0081800Y0056860D02*
X0076800Y0061860D01*
X0076800Y0063455D01*
X0077706Y0064360D01*
X0068280Y0057449D02*
X0066204Y0057449D01*
X0065322Y0057084D01*
X0064647Y0056409D01*
X0064282Y0055527D01*
X0064282Y0053249D01*
X0057632Y0045452D01*
X0051403Y0045419D01*
X0051304Y0045656D01*
X0049858Y0047103D01*
X0051304Y0048549D01*
X0052344Y0051059D01*
X0052344Y0053776D01*
X0051304Y0056286D01*
X0051101Y0056489D01*
X0052087Y0057475D01*
X0053268Y0060324D01*
X0053268Y0063409D01*
X0052087Y0066258D01*
X0051101Y0067244D01*
X0051304Y0067447D01*
X0052344Y0069957D01*
X0052344Y0072674D01*
X0051304Y0075184D01*
X0049858Y0076630D01*
X0051304Y0078077D01*
X0051397Y0078301D01*
X0056071Y0078266D01*
X0056084Y0078260D01*
X0056786Y0078260D01*
X0057489Y0078255D01*
X0057502Y0078260D01*
X0059186Y0078260D01*
X0059786Y0078222D01*
X0059898Y0078260D01*
X0060016Y0078260D01*
X0060542Y0078478D01*
X0060542Y0072446D01*
X0060907Y0071564D01*
X0061582Y0070889D01*
X0062254Y0070610D01*
X0061582Y0070332D01*
X0060907Y0069657D01*
X0060542Y0068775D01*
X0060542Y0059946D01*
X0060907Y0059064D01*
X0061582Y0058389D01*
X0062464Y0058023D01*
X0067706Y0058023D01*
X0068280Y0057449D01*
X0065062Y0056823D02*
X0051435Y0056823D01*
X0051744Y0055225D02*
X0064282Y0055225D01*
X0064282Y0053626D02*
X0052344Y0053626D01*
X0052344Y0052027D02*
X0063240Y0052027D01*
X0061877Y0050429D02*
X0052083Y0050429D01*
X0051421Y0048830D02*
X0060514Y0048830D01*
X0059150Y0047232D02*
X0049987Y0047232D01*
X0051314Y0045633D02*
X0057787Y0045633D01*
X0064523Y0042436D02*
X0064737Y0042436D01*
X0064596Y0042243D02*
X0064203Y0041471D01*
X0063935Y0040648D01*
X0063800Y0039793D01*
X0063800Y0039560D01*
X0069100Y0039560D01*
X0069100Y0044860D01*
X0068867Y0044860D01*
X0068012Y0044725D01*
X0067189Y0044457D01*
X0066417Y0044064D01*
X0065717Y0043555D01*
X0065105Y0042943D01*
X0064596Y0042243D01*
X0065887Y0044035D02*
X0066377Y0044035D01*
X0067250Y0045633D02*
X0081800Y0045633D01*
X0069300Y0044360D02*
X0069300Y0039360D01*
X0069100Y0039239D02*
X0061796Y0039239D01*
X0063160Y0040838D02*
X0063997Y0040838D01*
X0064076Y0037641D02*
X0051026Y0037641D01*
X0049427Y0036042D02*
X0064912Y0036042D01*
X0066834Y0034444D02*
X0027409Y0034444D01*
X0030655Y0036042D02*
X0041603Y0036042D01*
X0040004Y0037641D02*
X0032253Y0037641D01*
X0033003Y0039239D02*
X0039179Y0039239D01*
X0038686Y0040838D02*
X0033583Y0040838D01*
X0033583Y0042436D02*
X0038686Y0042436D01*
X0039054Y0044035D02*
X0033454Y0044035D01*
X0032792Y0045633D02*
X0039716Y0045633D01*
X0041043Y0047232D02*
X0031743Y0047232D01*
X0030037Y0048830D02*
X0039609Y0048830D01*
X0038947Y0050429D02*
X0015944Y0050429D01*
X0015944Y0052027D02*
X0038686Y0052027D01*
X0038686Y0053626D02*
X0015944Y0053626D01*
X0015944Y0055225D02*
X0024345Y0055225D01*
X0024500Y0055183D02*
X0023639Y0055414D01*
X0022816Y0055755D01*
X0022044Y0056200D01*
X0021337Y0056743D01*
X0020706Y0057373D01*
X0020164Y0058081D01*
X0019718Y0058853D01*
X0019377Y0059676D01*
X0019146Y0060537D01*
X0019060Y0061190D01*
X0025153Y0061190D01*
X0025153Y0062543D01*
X0019060Y0062543D01*
X0019146Y0063196D01*
X0019377Y0064057D01*
X0019718Y0064881D01*
X0020164Y0065653D01*
X0020706Y0066360D01*
X0021337Y0066990D01*
X0022044Y0067533D01*
X0022816Y0067978D01*
X0023639Y0068319D01*
X0024500Y0068550D01*
X0025154Y0068636D01*
X0025154Y0062543D01*
X0026506Y0062543D01*
X0026506Y0068636D01*
X0027159Y0068550D01*
X0028020Y0068319D01*
X0028844Y0067978D01*
X0029616Y0067533D01*
X0030323Y0066990D01*
X0030953Y0066360D01*
X0031496Y0065653D01*
X0031942Y0064881D01*
X0032283Y0064057D01*
X0032514Y0063196D01*
X0032600Y0062543D01*
X0026506Y0062543D01*
X0026506Y0061190D01*
X0026506Y0055097D01*
X0027159Y0055183D01*
X0028020Y0055414D01*
X0028844Y0055755D01*
X0029616Y0056200D01*
X0030323Y0056743D01*
X0030953Y0057373D01*
X0031496Y0058081D01*
X0031942Y0058853D01*
X0032283Y0059676D01*
X0032514Y0060537D01*
X0032600Y0061190D01*
X0026506Y0061190D01*
X0025154Y0061190D01*
X0025154Y0055097D01*
X0024500Y0055183D01*
X0025154Y0055225D02*
X0026506Y0055225D01*
X0027315Y0055225D02*
X0039286Y0055225D01*
X0039594Y0056823D02*
X0030403Y0056823D01*
X0031693Y0058422D02*
X0038550Y0058422D01*
X0037888Y0060020D02*
X0032375Y0060020D01*
X0032508Y0063217D02*
X0037762Y0063217D01*
X0037762Y0061619D02*
X0026506Y0061619D01*
X0025153Y0061619D02*
X0015944Y0061619D01*
X0015944Y0063217D02*
X0019152Y0063217D01*
X0019691Y0064816D02*
X0015944Y0064816D01*
X0015944Y0066414D02*
X0020761Y0066414D01*
X0022899Y0068013D02*
X0015944Y0068013D01*
X0015944Y0069611D02*
X0038829Y0069611D01*
X0038686Y0071210D02*
X0015944Y0071210D01*
X0015944Y0072808D02*
X0038741Y0072808D01*
X0039404Y0074407D02*
X0028839Y0074407D01*
X0031248Y0076005D02*
X0040547Y0076005D01*
X0040199Y0077604D02*
X0032586Y0077604D01*
X0033248Y0079202D02*
X0039259Y0079202D01*
X0038686Y0080801D02*
X0033583Y0080801D01*
X0033583Y0082399D02*
X0038686Y0082399D01*
X0038973Y0083998D02*
X0033208Y0083998D01*
X0032546Y0085596D02*
X0039635Y0085596D01*
X0041107Y0087195D02*
X0031151Y0087195D01*
X0028606Y0088793D02*
X0061727Y0088793D01*
X0063542Y0090392D02*
X0015944Y0090392D01*
X0015944Y0091990D02*
X0064282Y0091990D01*
X0064515Y0093589D02*
X0015944Y0093589D01*
X0015944Y0095187D02*
X0086800Y0095187D01*
X0085195Y0093589D02*
X0079082Y0093589D01*
X0071800Y0093589D02*
X0071800Y0093589D01*
X0071800Y0094704D02*
X0071800Y0091723D01*
X0071800Y0091723D01*
X0071800Y0094704D01*
X0071800Y0091990D02*
X0071800Y0091990D01*
X0071800Y0091722D02*
X0071800Y0087077D01*
X0071800Y0087077D01*
X0071800Y0090058D01*
X0071800Y0091722D01*
X0071800Y0091722D01*
X0071800Y0090392D02*
X0071800Y0090392D01*
X0071800Y0088793D02*
X0071800Y0088793D01*
X0071800Y0087195D02*
X0071800Y0087195D01*
X0059911Y0087195D02*
X0049923Y0087195D01*
X0051394Y0085596D02*
X0058095Y0085596D01*
X0069300Y0076860D02*
X0071800Y0079360D01*
X0069300Y0076860D02*
X0065894Y0076860D01*
X0060542Y0077604D02*
X0050831Y0077604D01*
X0050483Y0076005D02*
X0060542Y0076005D01*
X0060542Y0074407D02*
X0051626Y0074407D01*
X0052288Y0072808D02*
X0060542Y0072808D01*
X0061261Y0071210D02*
X0052344Y0071210D01*
X0052201Y0069611D02*
X0060888Y0069611D01*
X0060542Y0068013D02*
X0051539Y0068013D01*
X0051931Y0066414D02*
X0060542Y0066414D01*
X0060542Y0064816D02*
X0052685Y0064816D01*
X0053268Y0063217D02*
X0060542Y0063217D01*
X0060542Y0061619D02*
X0053268Y0061619D01*
X0053142Y0060020D02*
X0060542Y0060020D01*
X0061549Y0058422D02*
X0052479Y0058422D01*
X0038345Y0064816D02*
X0031969Y0064816D01*
X0030899Y0066414D02*
X0039098Y0066414D01*
X0039491Y0068013D02*
X0028761Y0068013D01*
X0026506Y0068013D02*
X0025154Y0068013D01*
X0025154Y0066414D02*
X0026506Y0066414D01*
X0026506Y0064816D02*
X0025154Y0064816D01*
X0025154Y0063217D02*
X0026506Y0063217D01*
X0026506Y0060020D02*
X0025154Y0060020D01*
X0025154Y0058422D02*
X0026506Y0058422D01*
X0026506Y0056823D02*
X0025154Y0056823D01*
X0021257Y0056823D02*
X0015944Y0056823D01*
X0015944Y0058422D02*
X0019967Y0058422D01*
X0019285Y0060020D02*
X0015944Y0060020D01*
X0020194Y0048830D02*
X0021623Y0048830D01*
X0021005Y0036042D02*
X0020812Y0036042D01*
X0017566Y0034444D02*
X0024251Y0034444D01*
X0069100Y0040838D02*
X0069500Y0040838D01*
X0069500Y0042436D02*
X0069100Y0042436D01*
X0088058Y0031247D02*
X0094144Y0031247D01*
X0094406Y0029648D02*
X0086992Y0029648D01*
X0085926Y0028050D02*
X0095051Y0028050D01*
X0094919Y0026451D02*
X0084861Y0026451D01*
X0087368Y0024853D02*
X0090327Y0024853D01*
X0094300Y0068415D02*
X0095245Y0069360D01*
X0086800Y0096786D02*
X0029868Y0096786D01*
X0031922Y0098384D02*
X0086800Y0098384D01*
X0086800Y0099983D02*
X0033235Y0099983D01*
X0034158Y0101581D02*
X0086800Y0101581D01*
X0086800Y0103180D02*
X0034604Y0103180D01*
X0034887Y0104778D02*
X0086800Y0104778D01*
X0086800Y0106377D02*
X0066218Y0106377D01*
X0068618Y0107975D02*
X0086800Y0107975D01*
X0086800Y0109574D02*
X0069631Y0109574D01*
X0070100Y0111172D02*
X0086800Y0111172D01*
X0086800Y0112771D02*
X0070100Y0112771D01*
X0059982Y0107975D02*
X0057769Y0107975D01*
X0054375Y0107975D02*
X0054225Y0107975D01*
X0054225Y0109574D02*
X0054375Y0109574D01*
X0054375Y0111172D02*
X0054225Y0111172D01*
X0054300Y0111860D02*
X0054300Y0099360D01*
X0046218Y0106377D02*
X0062382Y0106377D01*
X0050831Y0107975D02*
X0048618Y0107975D01*
X0042382Y0106377D02*
X0034887Y0106377D01*
X0034606Y0107975D02*
X0039982Y0107975D01*
X0038969Y0109574D02*
X0034162Y0109574D01*
X0033239Y0111172D02*
X0038500Y0111172D01*
X0038500Y0112771D02*
X0031928Y0112771D01*
X0016113Y0099983D02*
X0015944Y0099983D01*
X0015944Y0098384D02*
X0017426Y0098384D01*
X0015944Y0096786D02*
X0019480Y0096786D01*
X0018763Y0088793D02*
X0023054Y0088793D01*
X0022820Y0074407D02*
X0018997Y0074407D01*
D31*
X0095146Y0089360D02*
X0099300Y0089360D01*
X0101800Y0086860D01*
X0111800Y0086860D01*
X0111800Y0084144D01*
X0111800Y0079498D01*
X0109300Y0076860D02*
X0119300Y0076860D01*
X0119300Y0065160D01*
X0116479Y0065160D01*
X0119300Y0065160D02*
X0127400Y0065260D01*
X0127400Y0065660D01*
X0138000Y0065660D01*
X0140989Y0062671D01*
X0139864Y0061097D02*
X0137900Y0063060D01*
X0122900Y0063060D01*
X0128000Y0059005D02*
X0128355Y0059360D01*
X0128000Y0059005D02*
X0128000Y0056460D01*
X0128700Y0055660D01*
X0125600Y0055660D01*
X0124300Y0054360D01*
X0128700Y0055660D02*
X0143400Y0055660D01*
X0146487Y0057947D01*
X0148700Y0057947D01*
X0150275Y0056372D01*
X0147237Y0054797D02*
X0147262Y0053223D01*
X0149300Y0053223D01*
X0152883Y0053223D01*
X0155337Y0054797D02*
X0156200Y0055660D01*
X0156200Y0059160D01*
X0155800Y0059560D01*
X0155900Y0059560D01*
X0156200Y0059860D01*
X0156200Y0069460D01*
X0157200Y0070460D01*
X0166500Y0070460D01*
X0170900Y0070260D01*
X0171800Y0069360D01*
X0171800Y0069260D01*
X0172100Y0068960D01*
X0172500Y0068560D01*
X0172500Y0063460D01*
X0173289Y0062671D01*
X0175717Y0062671D01*
X0180989Y0062671D01*
X0184300Y0059360D01*
X0184300Y0051860D01*
X0185550Y0050610D01*
X0181800Y0046860D01*
X0181800Y0042313D01*
X0186800Y0041860D02*
X0188454Y0041860D01*
X0186800Y0041860D02*
X0186800Y0036860D01*
X0184300Y0036860D01*
X0181800Y0036407D01*
X0187300Y0029660D02*
X0190100Y0032460D01*
X0194900Y0032460D01*
X0201800Y0039360D01*
X0214200Y0051860D01*
X0214400Y0052060D01*
X0214400Y0087960D01*
X0210700Y0091660D01*
X0193300Y0091660D01*
X0190200Y0094760D01*
X0186400Y0094760D01*
X0182500Y0098660D01*
X0173500Y0098660D01*
X0172800Y0099360D01*
X0146000Y0099360D01*
X0136000Y0109360D01*
X0134300Y0111860D01*
X0144300Y0111860D02*
X0149800Y0106360D01*
X0152300Y0106360D01*
X0156300Y0102360D01*
X0172800Y0102360D01*
X0174500Y0100660D01*
X0183500Y0100660D01*
X0187200Y0096960D01*
X0191300Y0096960D01*
X0194300Y0093960D01*
X0212800Y0093960D01*
X0216500Y0090260D01*
X0216500Y0050960D01*
X0195000Y0029460D01*
X0195000Y0029360D01*
X0190700Y0029360D01*
X0188200Y0026860D01*
X0179300Y0026860D01*
X0173847Y0021407D01*
X0173847Y0020030D01*
X0169000Y0025260D02*
X0163847Y0020107D01*
X0163847Y0020030D01*
X0158900Y0015160D02*
X0158900Y0026460D01*
X0159300Y0026860D01*
X0160146Y0031860D02*
X0161000Y0032714D01*
X0157000Y0036760D01*
X0149300Y0040160D02*
X0166800Y0040160D01*
X0166662Y0041998D01*
X0166662Y0050467D01*
X0166700Y0047260D01*
X0166800Y0046860D01*
X0166800Y0043415D01*
X0168355Y0041860D01*
X0175245Y0041860D02*
X0175245Y0045305D01*
X0176800Y0046860D01*
X0179300Y0046860D01*
X0179300Y0051860D01*
X0177938Y0053223D01*
X0175717Y0053223D01*
X0172138Y0053223D01*
X0171400Y0053960D01*
X0163913Y0053960D01*
X0163513Y0054360D01*
X0163513Y0061073D01*
X0163513Y0054360D02*
X0163513Y0050467D01*
X0160363Y0050467D02*
X0160400Y0053260D01*
X0155639Y0050467D02*
X0155600Y0048060D01*
X0155639Y0048199D02*
X0154300Y0044360D01*
X0159900Y0044960D02*
X0160363Y0047697D01*
X0147262Y0053223D02*
X0144000Y0053460D01*
X0142314Y0064246D02*
X0138900Y0067660D01*
X0138900Y0067260D01*
X0139300Y0066860D01*
X0138900Y0067660D02*
X0138500Y0067660D01*
X0136800Y0069360D01*
X0135245Y0069360D01*
X0135245Y0076368D01*
X0135737Y0076860D01*
X0128355Y0076368D02*
X0127863Y0076860D01*
X0128355Y0076368D02*
X0128355Y0069360D01*
X0127555Y0068560D01*
X0123600Y0068560D01*
X0115737Y0061860D02*
X0115245Y0058868D01*
X0115245Y0054360D01*
X0126800Y0039360D02*
X0126800Y0039160D01*
X0125500Y0037860D01*
X0137745Y0039360D02*
X0142700Y0039360D01*
X0169000Y0025260D02*
X0173800Y0025260D01*
X0178200Y0029660D01*
X0187300Y0029660D01*
X0191800Y0026860D02*
X0195700Y0026860D01*
X0218100Y0049260D01*
X0218200Y0049260D01*
X0219300Y0050360D01*
X0219300Y0090960D01*
X0213900Y0096360D01*
X0195100Y0096360D01*
X0192100Y0099360D01*
X0188200Y0099360D01*
X0184700Y0102860D01*
X0175900Y0102860D01*
X0174300Y0104460D01*
X0161700Y0104460D01*
X0154300Y0111860D01*
X0164300Y0111860D02*
X0166800Y0109360D01*
X0166800Y0106860D01*
X0167300Y0106360D01*
X0175500Y0106360D01*
X0176900Y0104960D01*
X0185800Y0104960D01*
X0189100Y0101660D01*
X0193200Y0101660D01*
X0196300Y0098660D01*
X0210300Y0098660D01*
X0211300Y0099360D01*
X0214300Y0099360D01*
X0222200Y0091460D01*
X0222200Y0050360D01*
X0205500Y0033660D01*
X0205500Y0033560D01*
X0198600Y0026660D01*
X0198600Y0017460D01*
X0195900Y0014760D01*
X0169200Y0014760D01*
X0164469Y0010030D01*
X0163847Y0010030D01*
X0183847Y0020030D02*
X0184969Y0020030D01*
X0191800Y0026860D01*
X0203847Y0028907D02*
X0224300Y0049360D01*
X0224300Y0094360D01*
X0216800Y0101860D01*
X0210500Y0101860D01*
X0209600Y0100960D01*
X0197700Y0100960D01*
X0194700Y0103960D01*
X0189800Y0103960D01*
X0186900Y0106860D01*
X0179300Y0106860D01*
X0174300Y0111860D01*
X0184300Y0111860D02*
X0185800Y0110360D01*
X0186400Y0110360D01*
X0190500Y0106260D01*
X0195800Y0106260D01*
X0198700Y0103360D01*
X0208400Y0103360D01*
X0209400Y0104360D01*
X0219300Y0104360D01*
X0226800Y0096860D01*
X0226800Y0049360D01*
X0214300Y0036860D01*
X0214300Y0020482D01*
X0218800Y0015160D02*
X0218900Y0038760D01*
X0229300Y0049360D01*
X0229300Y0099360D01*
X0221800Y0106860D01*
X0208600Y0106860D01*
X0207500Y0105760D01*
X0200400Y0105760D01*
X0194300Y0111860D01*
X0204300Y0111860D02*
X0221800Y0111860D01*
X0231800Y0101860D01*
X0231800Y0049360D01*
X0223947Y0040607D01*
X0223847Y0020030D01*
X0218800Y0015160D02*
X0199800Y0015160D01*
X0194969Y0010030D01*
X0203847Y0020030D02*
X0203847Y0028907D01*
X0195146Y0041860D02*
X0201800Y0046860D01*
X0201800Y0049360D01*
X0201800Y0056860D01*
X0201800Y0064360D01*
X0201800Y0071860D01*
X0195245Y0071860D01*
X0188355Y0071860D02*
X0186800Y0069360D01*
X0186410Y0068971D01*
X0181800Y0066860D02*
X0184300Y0064360D01*
X0188355Y0064360D01*
X0187863Y0063868D01*
X0187863Y0056860D01*
X0195737Y0056860D02*
X0201800Y0056860D01*
X0201800Y0049360D02*
X0195245Y0049360D01*
X0188355Y0049360D02*
X0186800Y0049360D01*
X0185550Y0050610D01*
X0195245Y0064360D02*
X0201800Y0064360D01*
X0181800Y0066860D02*
X0179300Y0066860D01*
X0178764Y0067396D01*
X0175717Y0068971D02*
X0175707Y0068960D01*
X0172100Y0068960D01*
X0177985Y0070545D02*
X0180550Y0073110D01*
X0181800Y0074360D01*
X0180550Y0073110D02*
X0179300Y0074360D01*
X0179300Y0076860D01*
X0174300Y0076860D01*
X0174300Y0079360D02*
X0186800Y0079360D01*
X0191800Y0084360D01*
X0191800Y0086860D01*
X0186800Y0089360D02*
X0185146Y0092707D01*
X0181800Y0092707D01*
X0166000Y0082960D02*
X0168200Y0079860D01*
X0169800Y0079860D02*
X0171600Y0081660D01*
X0165200Y0079460D02*
X0164700Y0080160D01*
X0163300Y0080660D01*
X0149500Y0080560D01*
X0146200Y0083460D01*
X0146200Y0084960D01*
X0141800Y0089360D01*
X0135645Y0089360D01*
X0135445Y0091660D01*
X0141600Y0092760D02*
X0141600Y0094560D01*
X0139600Y0100460D01*
X0148650Y0092510D02*
X0146800Y0089360D01*
X0148650Y0092510D02*
X0151800Y0092510D01*
X0154300Y0086860D02*
X0158457Y0086860D01*
X0159866Y0085451D01*
X0154300Y0086860D02*
X0153454Y0086014D01*
X0151800Y0086014D01*
X0141800Y0079360D02*
X0148115Y0073045D01*
X0148115Y0070545D01*
X0147190Y0068971D02*
X0141800Y0074360D01*
X0151761Y0074522D02*
X0152761Y0075522D01*
X0155639Y0075522D01*
X0157213Y0077747D02*
X0156800Y0078160D01*
X0160363Y0075423D02*
X0162400Y0077460D01*
X0157200Y0070960D02*
X0157200Y0070460D01*
X0150339Y0065821D02*
X0149300Y0066860D01*
X0144300Y0066860D01*
X0141800Y0069360D01*
X0109300Y0076860D02*
X0107871Y0078289D01*
X0107871Y0081810D01*
X0111800Y0086860D02*
X0111800Y0089860D01*
X0092837Y0032760D02*
X0086237Y0028160D01*
D32*
X0135245Y0059360D02*
X0144300Y0059360D01*
X0144462Y0059522D01*
X0152883Y0059522D01*
X0155383Y0059522D01*
X0155421Y0059560D01*
X0155800Y0059560D01*
X0152883Y0061097D02*
X0139864Y0061097D01*
X0140989Y0062671D02*
X0152883Y0062671D01*
X0152883Y0064246D02*
X0142314Y0064246D01*
X0147190Y0068971D02*
X0152883Y0068971D01*
X0152883Y0070545D02*
X0148115Y0070545D01*
X0150339Y0065821D02*
X0152883Y0065821D01*
X0157200Y0070960D02*
X0157213Y0073301D01*
X0157213Y0077747D01*
X0157400Y0078160D02*
X0158788Y0076772D01*
X0158788Y0073301D01*
X0160363Y0073301D02*
X0160363Y0075423D01*
X0155639Y0075522D02*
X0155639Y0073301D01*
X0166662Y0073301D02*
X0166500Y0070460D01*
X0166662Y0073301D02*
X0166600Y0076860D01*
X0166600Y0077060D01*
X0165200Y0079460D01*
X0168200Y0079860D02*
X0168237Y0073301D01*
X0169812Y0073301D02*
X0169800Y0079860D01*
X0171387Y0076447D02*
X0174300Y0079360D01*
X0174300Y0076860D02*
X0172961Y0075522D01*
X0172961Y0073301D01*
X0171387Y0073301D02*
X0171387Y0076447D01*
X0175717Y0070545D02*
X0177985Y0070545D01*
X0175717Y0068971D02*
X0186410Y0068971D01*
X0178764Y0067396D02*
X0175717Y0067396D01*
X0152883Y0057947D02*
X0148700Y0057947D01*
X0150275Y0056372D02*
X0152883Y0056372D01*
X0152883Y0054797D02*
X0155337Y0054797D01*
X0152883Y0054797D02*
X0147237Y0054797D01*
X0155639Y0050467D02*
X0155639Y0048199D01*
X0155600Y0048060D02*
X0157200Y0048060D01*
X0157213Y0050467D01*
X0158788Y0050467D02*
X0158800Y0048060D01*
X0157200Y0048060D01*
X0160363Y0047697D02*
X0160363Y0050467D01*
D33*
X0159900Y0044960D03*
X0154300Y0044360D03*
X0144300Y0049360D03*
X0142700Y0039360D03*
X0157000Y0036760D03*
X0125500Y0037860D03*
X0109300Y0036860D03*
X0099300Y0026860D03*
X0124300Y0054360D03*
X0122900Y0060560D03*
X0123600Y0068560D03*
X0141800Y0069360D03*
X0141800Y0074360D03*
X0151761Y0074522D03*
X0162400Y0077460D03*
X0181800Y0074360D03*
X0201800Y0071860D03*
X0191800Y0086860D03*
X0186800Y0089360D03*
X0146800Y0089360D03*
X0141600Y0092760D03*
X0139600Y0100460D03*
X0123300Y0087060D03*
X0141800Y0079360D03*
X0164300Y0061860D03*
X0101800Y0059360D03*
X0101800Y0066860D03*
X0081800Y0056860D03*
X0061800Y0056860D03*
X0081800Y0084360D03*
X0073300Y0096660D03*
X0158900Y0015160D03*
D34*
X0159300Y0026860D02*
X0154300Y0026860D01*
X0154300Y0031014D01*
X0153454Y0031860D01*
X0159300Y0026860D02*
X0164300Y0026860D01*
X0169600Y0033260D01*
X0144300Y0049360D02*
X0135146Y0049360D01*
X0130900Y0053460D02*
X0129300Y0051860D01*
X0129300Y0050207D01*
X0128454Y0049360D01*
X0130900Y0053460D02*
X0144000Y0053460D01*
X0115737Y0061860D02*
X0115800Y0063860D01*
X0116479Y0065160D01*
X0107863Y0061860D02*
X0106800Y0060423D01*
X0106800Y0061860D01*
X0101800Y0066860D01*
X0101800Y0076860D01*
X0115737Y0081821D02*
X0116800Y0081860D01*
X0121800Y0081860D01*
X0123300Y0081460D01*
X0135300Y0081460D01*
X0135345Y0085460D01*
X0140700Y0085460D01*
X0148000Y0078160D01*
X0156800Y0078160D01*
X0157400Y0078160D01*
X0155800Y0082960D02*
X0166000Y0082960D01*
X0171600Y0081660D02*
X0181300Y0081660D01*
X0181800Y0081860D01*
X0181800Y0086014D01*
X0155800Y0082960D02*
X0151800Y0086014D01*
X0128555Y0087060D02*
X0128455Y0085460D01*
X0128555Y0087060D02*
X0123300Y0087060D01*
X0095146Y0089360D02*
X0094300Y0090207D01*
X0094300Y0094360D01*
X0079300Y0094360D01*
X0077000Y0096660D01*
X0073300Y0096660D01*
X0071800Y0091722D01*
X0071800Y0087077D01*
X0054300Y0091860D02*
X0051800Y0089360D01*
X0034300Y0089360D01*
X0034300Y0069360D01*
X0025830Y0061867D01*
X0061800Y0056860D02*
X0069300Y0056860D01*
X0071800Y0054222D01*
X0071800Y0049577D01*
X0071800Y0046860D01*
X0081800Y0046860D01*
X0086800Y0051860D02*
X0088454Y0049360D01*
X0086800Y0051860D02*
X0086800Y0056860D01*
X0087863Y0059360D01*
X0094300Y0061860D02*
X0089300Y0066860D01*
X0088355Y0069360D01*
X0095245Y0069360D02*
X0095900Y0068705D01*
X0095900Y0066060D01*
X0098100Y0063860D01*
X0098900Y0063860D01*
X0101800Y0060960D01*
X0101800Y0059360D01*
X0096800Y0056860D02*
X0095737Y0059360D01*
X0094300Y0061860D01*
X0096800Y0056860D02*
X0096800Y0049360D01*
X0095146Y0049360D01*
X0099300Y0040797D02*
X0100363Y0040797D01*
X0104300Y0036860D01*
X0109300Y0036860D01*
X0113040Y0031742D02*
X0113040Y0028100D01*
X0111800Y0026860D01*
X0099300Y0026860D01*
X0193847Y0010030D02*
X0194969Y0010030D01*
X0213847Y0020030D02*
X0214300Y0020482D01*
X0054300Y0091860D02*
X0054300Y0099360D01*
D35*
X0067863Y0089400D02*
X0059300Y0081860D01*
X0056800Y0081860D01*
X0045515Y0081945D01*
X0067863Y0051900D02*
X0059300Y0041860D01*
X0045515Y0041788D01*
X0050600Y0028160D02*
X0044300Y0021860D01*
X0044300Y0020482D01*
X0043847Y0020030D01*
X0050600Y0028160D02*
X0086237Y0028160D01*
X0099300Y0026860D02*
X0099300Y0032923D01*
X0104378Y0032923D01*
X0105560Y0031742D01*
M02*
