G75*
%MOIN*%
%OFA0B0*%
%FSLAX25Y25*%
%IPPOS*%
%LPD*%
%AMOC8*
5,1,8,0,0,1.08239X$1,22.5*
%
%ADD10R,0.04331X0.05512*%
%ADD11R,0.03937X0.04331*%
%ADD12R,0.05512X0.04331*%
%ADD13R,0.04134X0.04252*%
%ADD14R,0.02362X0.06299*%
%ADD15R,0.02362X0.02362*%
%ADD16R,0.03150X0.03150*%
%ADD17R,0.05906X0.07874*%
%ADD18C,0.00591*%
%ADD19C,0.00236*%
%ADD20R,0.06693X0.09449*%
%ADD21R,0.02165X0.04724*%
D10*
X0087863Y0059360D03*
X0095737Y0059360D03*
X0107863Y0061860D03*
X0115737Y0061860D03*
X0127863Y0076860D03*
X0135737Y0076860D03*
X0187863Y0056860D03*
X0195737Y0056860D03*
D11*
X0195146Y0041860D03*
X0188454Y0041860D03*
X0160146Y0031860D03*
X0153454Y0031860D03*
X0135146Y0049360D03*
X0128454Y0049360D03*
X0095146Y0049360D03*
X0088454Y0049360D03*
X0151800Y0086014D03*
X0151800Y0092707D03*
X0181800Y0092707D03*
X0181800Y0086014D03*
X0095146Y0089360D03*
X0088454Y0089360D03*
D12*
X0099300Y0040797D03*
X0099300Y0032923D03*
X0119300Y0032923D03*
X0119300Y0040797D03*
D13*
X0130855Y0039360D03*
X0137745Y0039360D03*
X0115245Y0054360D03*
X0108355Y0054360D03*
X0128355Y0059360D03*
X0135245Y0059360D03*
X0135245Y0069360D03*
X0128355Y0069360D03*
X0128455Y0085460D03*
X0135345Y0085460D03*
X0135445Y0091660D03*
X0128555Y0091660D03*
X0095245Y0079360D03*
X0088355Y0079360D03*
X0088355Y0069360D03*
X0095245Y0069360D03*
X0168355Y0041860D03*
X0175245Y0041860D03*
X0188355Y0049360D03*
X0195245Y0049360D03*
X0195245Y0064360D03*
X0188355Y0064360D03*
X0188355Y0071860D03*
X0195245Y0071860D03*
D14*
X0115737Y0081821D03*
X0107871Y0081810D03*
X0075729Y0089411D03*
X0067863Y0089400D03*
X0067863Y0051900D03*
X0075729Y0051911D03*
D15*
X0071800Y0049577D03*
X0071800Y0054222D03*
X0111800Y0079498D03*
X0111800Y0084144D03*
X0071800Y0087077D03*
X0071800Y0091722D03*
D16*
X0181800Y0042313D03*
X0181800Y0036407D03*
D17*
X0077706Y0064360D03*
X0065894Y0064360D03*
X0065894Y0076860D03*
X0077706Y0076860D03*
D18*
X0158690Y0056250D02*
X0169910Y0056250D01*
X0158690Y0056250D02*
X0158690Y0067470D01*
X0169910Y0067470D01*
X0169910Y0056250D01*
X0169910Y0056840D02*
X0158690Y0056840D01*
X0158690Y0057430D02*
X0169910Y0057430D01*
X0169910Y0058020D02*
X0158690Y0058020D01*
X0158690Y0058610D02*
X0169910Y0058610D01*
X0169910Y0059200D02*
X0158690Y0059200D01*
X0158690Y0059790D02*
X0169910Y0059790D01*
X0169910Y0060380D02*
X0158690Y0060380D01*
X0158690Y0060970D02*
X0169910Y0060970D01*
X0169910Y0061560D02*
X0158690Y0061560D01*
X0158690Y0062150D02*
X0169910Y0062150D01*
X0169910Y0062740D02*
X0158690Y0062740D01*
X0158690Y0063330D02*
X0169910Y0063330D01*
X0169910Y0063920D02*
X0158690Y0063920D01*
X0158690Y0064510D02*
X0169910Y0064510D01*
X0169910Y0065100D02*
X0158690Y0065100D01*
X0158690Y0065690D02*
X0169910Y0065690D01*
X0169910Y0066280D02*
X0158690Y0066280D01*
X0158690Y0066870D02*
X0169910Y0066870D01*
X0169910Y0067460D02*
X0158690Y0067460D01*
D19*
X0151722Y0067671D02*
X0151722Y0067121D01*
X0151722Y0067671D02*
X0154044Y0067671D01*
X0154044Y0067121D01*
X0151722Y0067121D01*
X0151722Y0067356D02*
X0154044Y0067356D01*
X0154044Y0067591D02*
X0151722Y0067591D01*
X0151722Y0068696D02*
X0151722Y0069246D01*
X0154044Y0069246D01*
X0154044Y0068696D01*
X0151722Y0068696D01*
X0151722Y0068931D02*
X0154044Y0068931D01*
X0154044Y0069166D02*
X0151722Y0069166D01*
X0151722Y0070270D02*
X0151722Y0070820D01*
X0154044Y0070820D01*
X0154044Y0070270D01*
X0151722Y0070270D01*
X0151722Y0070505D02*
X0154044Y0070505D01*
X0154044Y0070740D02*
X0151722Y0070740D01*
X0155364Y0074462D02*
X0155914Y0074462D01*
X0155914Y0072140D01*
X0155364Y0072140D01*
X0155364Y0074462D01*
X0155364Y0072375D02*
X0155914Y0072375D01*
X0155914Y0072610D02*
X0155364Y0072610D01*
X0155364Y0072845D02*
X0155914Y0072845D01*
X0155914Y0073080D02*
X0155364Y0073080D01*
X0155364Y0073315D02*
X0155914Y0073315D01*
X0155914Y0073550D02*
X0155364Y0073550D01*
X0155364Y0073785D02*
X0155914Y0073785D01*
X0155914Y0074020D02*
X0155364Y0074020D01*
X0155364Y0074255D02*
X0155914Y0074255D01*
X0156938Y0074462D02*
X0157488Y0074462D01*
X0157488Y0072140D01*
X0156938Y0072140D01*
X0156938Y0074462D01*
X0156938Y0072375D02*
X0157488Y0072375D01*
X0157488Y0072610D02*
X0156938Y0072610D01*
X0156938Y0072845D02*
X0157488Y0072845D01*
X0157488Y0073080D02*
X0156938Y0073080D01*
X0156938Y0073315D02*
X0157488Y0073315D01*
X0157488Y0073550D02*
X0156938Y0073550D01*
X0156938Y0073785D02*
X0157488Y0073785D01*
X0157488Y0074020D02*
X0156938Y0074020D01*
X0156938Y0074255D02*
X0157488Y0074255D01*
X0158513Y0074462D02*
X0159063Y0074462D01*
X0159063Y0072140D01*
X0158513Y0072140D01*
X0158513Y0074462D01*
X0158513Y0072375D02*
X0159063Y0072375D01*
X0159063Y0072610D02*
X0158513Y0072610D01*
X0158513Y0072845D02*
X0159063Y0072845D01*
X0159063Y0073080D02*
X0158513Y0073080D01*
X0158513Y0073315D02*
X0159063Y0073315D01*
X0159063Y0073550D02*
X0158513Y0073550D01*
X0158513Y0073785D02*
X0159063Y0073785D01*
X0159063Y0074020D02*
X0158513Y0074020D01*
X0158513Y0074255D02*
X0159063Y0074255D01*
X0160088Y0074462D02*
X0160638Y0074462D01*
X0160638Y0072140D01*
X0160088Y0072140D01*
X0160088Y0074462D01*
X0160088Y0072375D02*
X0160638Y0072375D01*
X0160638Y0072610D02*
X0160088Y0072610D01*
X0160088Y0072845D02*
X0160638Y0072845D01*
X0160638Y0073080D02*
X0160088Y0073080D01*
X0160088Y0073315D02*
X0160638Y0073315D01*
X0160638Y0073550D02*
X0160088Y0073550D01*
X0160088Y0073785D02*
X0160638Y0073785D01*
X0160638Y0074020D02*
X0160088Y0074020D01*
X0160088Y0074255D02*
X0160638Y0074255D01*
X0161663Y0074462D02*
X0162213Y0074462D01*
X0162213Y0072140D01*
X0161663Y0072140D01*
X0161663Y0074462D01*
X0161663Y0072375D02*
X0162213Y0072375D01*
X0162213Y0072610D02*
X0161663Y0072610D01*
X0161663Y0072845D02*
X0162213Y0072845D01*
X0162213Y0073080D02*
X0161663Y0073080D01*
X0161663Y0073315D02*
X0162213Y0073315D01*
X0162213Y0073550D02*
X0161663Y0073550D01*
X0161663Y0073785D02*
X0162213Y0073785D01*
X0162213Y0074020D02*
X0161663Y0074020D01*
X0161663Y0074255D02*
X0162213Y0074255D01*
X0163238Y0074462D02*
X0163788Y0074462D01*
X0163788Y0072140D01*
X0163238Y0072140D01*
X0163238Y0074462D01*
X0163238Y0072375D02*
X0163788Y0072375D01*
X0163788Y0072610D02*
X0163238Y0072610D01*
X0163238Y0072845D02*
X0163788Y0072845D01*
X0163788Y0073080D02*
X0163238Y0073080D01*
X0163238Y0073315D02*
X0163788Y0073315D01*
X0163788Y0073550D02*
X0163238Y0073550D01*
X0163238Y0073785D02*
X0163788Y0073785D01*
X0163788Y0074020D02*
X0163238Y0074020D01*
X0163238Y0074255D02*
X0163788Y0074255D01*
X0164812Y0074462D02*
X0165362Y0074462D01*
X0165362Y0072140D01*
X0164812Y0072140D01*
X0164812Y0074462D01*
X0164812Y0072375D02*
X0165362Y0072375D01*
X0165362Y0072610D02*
X0164812Y0072610D01*
X0164812Y0072845D02*
X0165362Y0072845D01*
X0165362Y0073080D02*
X0164812Y0073080D01*
X0164812Y0073315D02*
X0165362Y0073315D01*
X0165362Y0073550D02*
X0164812Y0073550D01*
X0164812Y0073785D02*
X0165362Y0073785D01*
X0165362Y0074020D02*
X0164812Y0074020D01*
X0164812Y0074255D02*
X0165362Y0074255D01*
X0166387Y0074462D02*
X0166937Y0074462D01*
X0166937Y0072140D01*
X0166387Y0072140D01*
X0166387Y0074462D01*
X0166387Y0072375D02*
X0166937Y0072375D01*
X0166937Y0072610D02*
X0166387Y0072610D01*
X0166387Y0072845D02*
X0166937Y0072845D01*
X0166937Y0073080D02*
X0166387Y0073080D01*
X0166387Y0073315D02*
X0166937Y0073315D01*
X0166937Y0073550D02*
X0166387Y0073550D01*
X0166387Y0073785D02*
X0166937Y0073785D01*
X0166937Y0074020D02*
X0166387Y0074020D01*
X0166387Y0074255D02*
X0166937Y0074255D01*
X0167962Y0074462D02*
X0168512Y0074462D01*
X0168512Y0072140D01*
X0167962Y0072140D01*
X0167962Y0074462D01*
X0167962Y0072375D02*
X0168512Y0072375D01*
X0168512Y0072610D02*
X0167962Y0072610D01*
X0167962Y0072845D02*
X0168512Y0072845D01*
X0168512Y0073080D02*
X0167962Y0073080D01*
X0167962Y0073315D02*
X0168512Y0073315D01*
X0168512Y0073550D02*
X0167962Y0073550D01*
X0167962Y0073785D02*
X0168512Y0073785D01*
X0168512Y0074020D02*
X0167962Y0074020D01*
X0167962Y0074255D02*
X0168512Y0074255D01*
X0169537Y0074462D02*
X0170087Y0074462D01*
X0170087Y0072140D01*
X0169537Y0072140D01*
X0169537Y0074462D01*
X0169537Y0072375D02*
X0170087Y0072375D01*
X0170087Y0072610D02*
X0169537Y0072610D01*
X0169537Y0072845D02*
X0170087Y0072845D01*
X0170087Y0073080D02*
X0169537Y0073080D01*
X0169537Y0073315D02*
X0170087Y0073315D01*
X0170087Y0073550D02*
X0169537Y0073550D01*
X0169537Y0073785D02*
X0170087Y0073785D01*
X0170087Y0074020D02*
X0169537Y0074020D01*
X0169537Y0074255D02*
X0170087Y0074255D01*
X0171112Y0074462D02*
X0171662Y0074462D01*
X0171662Y0072140D01*
X0171112Y0072140D01*
X0171112Y0074462D01*
X0171112Y0072375D02*
X0171662Y0072375D01*
X0171662Y0072610D02*
X0171112Y0072610D01*
X0171112Y0072845D02*
X0171662Y0072845D01*
X0171662Y0073080D02*
X0171112Y0073080D01*
X0171112Y0073315D02*
X0171662Y0073315D01*
X0171662Y0073550D02*
X0171112Y0073550D01*
X0171112Y0073785D02*
X0171662Y0073785D01*
X0171662Y0074020D02*
X0171112Y0074020D01*
X0171112Y0074255D02*
X0171662Y0074255D01*
X0172686Y0074462D02*
X0173236Y0074462D01*
X0173236Y0072140D01*
X0172686Y0072140D01*
X0172686Y0074462D01*
X0172686Y0072375D02*
X0173236Y0072375D01*
X0173236Y0072610D02*
X0172686Y0072610D01*
X0172686Y0072845D02*
X0173236Y0072845D01*
X0173236Y0073080D02*
X0172686Y0073080D01*
X0172686Y0073315D02*
X0173236Y0073315D01*
X0173236Y0073550D02*
X0172686Y0073550D01*
X0172686Y0073785D02*
X0173236Y0073785D01*
X0173236Y0074020D02*
X0172686Y0074020D01*
X0172686Y0074255D02*
X0173236Y0074255D01*
X0176878Y0070820D02*
X0176878Y0070270D01*
X0174556Y0070270D01*
X0174556Y0070820D01*
X0176878Y0070820D01*
X0176878Y0070505D02*
X0174556Y0070505D01*
X0174556Y0070740D02*
X0176878Y0070740D01*
X0176878Y0069246D02*
X0176878Y0068696D01*
X0174556Y0068696D01*
X0174556Y0069246D01*
X0176878Y0069246D01*
X0176878Y0068931D02*
X0174556Y0068931D01*
X0174556Y0069166D02*
X0176878Y0069166D01*
X0176878Y0067671D02*
X0176878Y0067121D01*
X0174556Y0067121D01*
X0174556Y0067671D01*
X0176878Y0067671D01*
X0176878Y0067356D02*
X0174556Y0067356D01*
X0174556Y0067591D02*
X0176878Y0067591D01*
X0176878Y0066096D02*
X0176878Y0065546D01*
X0174556Y0065546D01*
X0174556Y0066096D01*
X0176878Y0066096D01*
X0176878Y0065781D02*
X0174556Y0065781D01*
X0174556Y0066016D02*
X0176878Y0066016D01*
X0176878Y0064521D02*
X0176878Y0063971D01*
X0174556Y0063971D01*
X0174556Y0064521D01*
X0176878Y0064521D01*
X0176878Y0064206D02*
X0174556Y0064206D01*
X0174556Y0064441D02*
X0176878Y0064441D01*
X0176878Y0062946D02*
X0176878Y0062396D01*
X0174556Y0062396D01*
X0174556Y0062946D01*
X0176878Y0062946D01*
X0176878Y0062631D02*
X0174556Y0062631D01*
X0174556Y0062866D02*
X0176878Y0062866D01*
X0176878Y0061372D02*
X0176878Y0060822D01*
X0174556Y0060822D01*
X0174556Y0061372D01*
X0176878Y0061372D01*
X0176878Y0061057D02*
X0174556Y0061057D01*
X0174556Y0061292D02*
X0176878Y0061292D01*
X0176878Y0059797D02*
X0176878Y0059247D01*
X0174556Y0059247D01*
X0174556Y0059797D01*
X0176878Y0059797D01*
X0176878Y0059482D02*
X0174556Y0059482D01*
X0174556Y0059717D02*
X0176878Y0059717D01*
X0176878Y0058222D02*
X0176878Y0057672D01*
X0174556Y0057672D01*
X0174556Y0058222D01*
X0176878Y0058222D01*
X0176878Y0057907D02*
X0174556Y0057907D01*
X0174556Y0058142D02*
X0176878Y0058142D01*
X0176878Y0056647D02*
X0176878Y0056097D01*
X0174556Y0056097D01*
X0174556Y0056647D01*
X0176878Y0056647D01*
X0176878Y0056332D02*
X0174556Y0056332D01*
X0174556Y0056567D02*
X0176878Y0056567D01*
X0176878Y0055072D02*
X0176878Y0054522D01*
X0174556Y0054522D01*
X0174556Y0055072D01*
X0176878Y0055072D01*
X0176878Y0054757D02*
X0174556Y0054757D01*
X0174556Y0054992D02*
X0176878Y0054992D01*
X0176878Y0053498D02*
X0176878Y0052948D01*
X0174556Y0052948D01*
X0174556Y0053498D01*
X0176878Y0053498D01*
X0176878Y0053183D02*
X0174556Y0053183D01*
X0174556Y0053418D02*
X0176878Y0053418D01*
X0173236Y0049306D02*
X0172686Y0049306D01*
X0172686Y0051628D01*
X0173236Y0051628D01*
X0173236Y0049306D01*
X0173236Y0049541D02*
X0172686Y0049541D01*
X0172686Y0049776D02*
X0173236Y0049776D01*
X0173236Y0050011D02*
X0172686Y0050011D01*
X0172686Y0050246D02*
X0173236Y0050246D01*
X0173236Y0050481D02*
X0172686Y0050481D01*
X0172686Y0050716D02*
X0173236Y0050716D01*
X0173236Y0050951D02*
X0172686Y0050951D01*
X0172686Y0051186D02*
X0173236Y0051186D01*
X0173236Y0051421D02*
X0172686Y0051421D01*
X0171662Y0049306D02*
X0171112Y0049306D01*
X0171112Y0051628D01*
X0171662Y0051628D01*
X0171662Y0049306D01*
X0171662Y0049541D02*
X0171112Y0049541D01*
X0171112Y0049776D02*
X0171662Y0049776D01*
X0171662Y0050011D02*
X0171112Y0050011D01*
X0171112Y0050246D02*
X0171662Y0050246D01*
X0171662Y0050481D02*
X0171112Y0050481D01*
X0171112Y0050716D02*
X0171662Y0050716D01*
X0171662Y0050951D02*
X0171112Y0050951D01*
X0171112Y0051186D02*
X0171662Y0051186D01*
X0171662Y0051421D02*
X0171112Y0051421D01*
X0170087Y0049306D02*
X0169537Y0049306D01*
X0169537Y0051628D01*
X0170087Y0051628D01*
X0170087Y0049306D01*
X0170087Y0049541D02*
X0169537Y0049541D01*
X0169537Y0049776D02*
X0170087Y0049776D01*
X0170087Y0050011D02*
X0169537Y0050011D01*
X0169537Y0050246D02*
X0170087Y0050246D01*
X0170087Y0050481D02*
X0169537Y0050481D01*
X0169537Y0050716D02*
X0170087Y0050716D01*
X0170087Y0050951D02*
X0169537Y0050951D01*
X0169537Y0051186D02*
X0170087Y0051186D01*
X0170087Y0051421D02*
X0169537Y0051421D01*
X0168512Y0049306D02*
X0167962Y0049306D01*
X0167962Y0051628D01*
X0168512Y0051628D01*
X0168512Y0049306D01*
X0168512Y0049541D02*
X0167962Y0049541D01*
X0167962Y0049776D02*
X0168512Y0049776D01*
X0168512Y0050011D02*
X0167962Y0050011D01*
X0167962Y0050246D02*
X0168512Y0050246D01*
X0168512Y0050481D02*
X0167962Y0050481D01*
X0167962Y0050716D02*
X0168512Y0050716D01*
X0168512Y0050951D02*
X0167962Y0050951D01*
X0167962Y0051186D02*
X0168512Y0051186D01*
X0168512Y0051421D02*
X0167962Y0051421D01*
X0166937Y0049306D02*
X0166387Y0049306D01*
X0166387Y0051628D01*
X0166937Y0051628D01*
X0166937Y0049306D01*
X0166937Y0049541D02*
X0166387Y0049541D01*
X0166387Y0049776D02*
X0166937Y0049776D01*
X0166937Y0050011D02*
X0166387Y0050011D01*
X0166387Y0050246D02*
X0166937Y0050246D01*
X0166937Y0050481D02*
X0166387Y0050481D01*
X0166387Y0050716D02*
X0166937Y0050716D01*
X0166937Y0050951D02*
X0166387Y0050951D01*
X0166387Y0051186D02*
X0166937Y0051186D01*
X0166937Y0051421D02*
X0166387Y0051421D01*
X0165362Y0049306D02*
X0164812Y0049306D01*
X0164812Y0051628D01*
X0165362Y0051628D01*
X0165362Y0049306D01*
X0165362Y0049541D02*
X0164812Y0049541D01*
X0164812Y0049776D02*
X0165362Y0049776D01*
X0165362Y0050011D02*
X0164812Y0050011D01*
X0164812Y0050246D02*
X0165362Y0050246D01*
X0165362Y0050481D02*
X0164812Y0050481D01*
X0164812Y0050716D02*
X0165362Y0050716D01*
X0165362Y0050951D02*
X0164812Y0050951D01*
X0164812Y0051186D02*
X0165362Y0051186D01*
X0165362Y0051421D02*
X0164812Y0051421D01*
X0163788Y0049306D02*
X0163238Y0049306D01*
X0163238Y0051628D01*
X0163788Y0051628D01*
X0163788Y0049306D01*
X0163788Y0049541D02*
X0163238Y0049541D01*
X0163238Y0049776D02*
X0163788Y0049776D01*
X0163788Y0050011D02*
X0163238Y0050011D01*
X0163238Y0050246D02*
X0163788Y0050246D01*
X0163788Y0050481D02*
X0163238Y0050481D01*
X0163238Y0050716D02*
X0163788Y0050716D01*
X0163788Y0050951D02*
X0163238Y0050951D01*
X0163238Y0051186D02*
X0163788Y0051186D01*
X0163788Y0051421D02*
X0163238Y0051421D01*
X0162213Y0049306D02*
X0161663Y0049306D01*
X0161663Y0051628D01*
X0162213Y0051628D01*
X0162213Y0049306D01*
X0162213Y0049541D02*
X0161663Y0049541D01*
X0161663Y0049776D02*
X0162213Y0049776D01*
X0162213Y0050011D02*
X0161663Y0050011D01*
X0161663Y0050246D02*
X0162213Y0050246D01*
X0162213Y0050481D02*
X0161663Y0050481D01*
X0161663Y0050716D02*
X0162213Y0050716D01*
X0162213Y0050951D02*
X0161663Y0050951D01*
X0161663Y0051186D02*
X0162213Y0051186D01*
X0162213Y0051421D02*
X0161663Y0051421D01*
X0160638Y0049306D02*
X0160088Y0049306D01*
X0160088Y0051628D01*
X0160638Y0051628D01*
X0160638Y0049306D01*
X0160638Y0049541D02*
X0160088Y0049541D01*
X0160088Y0049776D02*
X0160638Y0049776D01*
X0160638Y0050011D02*
X0160088Y0050011D01*
X0160088Y0050246D02*
X0160638Y0050246D01*
X0160638Y0050481D02*
X0160088Y0050481D01*
X0160088Y0050716D02*
X0160638Y0050716D01*
X0160638Y0050951D02*
X0160088Y0050951D01*
X0160088Y0051186D02*
X0160638Y0051186D01*
X0160638Y0051421D02*
X0160088Y0051421D01*
X0159063Y0049306D02*
X0158513Y0049306D01*
X0158513Y0051628D01*
X0159063Y0051628D01*
X0159063Y0049306D01*
X0159063Y0049541D02*
X0158513Y0049541D01*
X0158513Y0049776D02*
X0159063Y0049776D01*
X0159063Y0050011D02*
X0158513Y0050011D01*
X0158513Y0050246D02*
X0159063Y0050246D01*
X0159063Y0050481D02*
X0158513Y0050481D01*
X0158513Y0050716D02*
X0159063Y0050716D01*
X0159063Y0050951D02*
X0158513Y0050951D01*
X0158513Y0051186D02*
X0159063Y0051186D01*
X0159063Y0051421D02*
X0158513Y0051421D01*
X0157488Y0049306D02*
X0156938Y0049306D01*
X0156938Y0051628D01*
X0157488Y0051628D01*
X0157488Y0049306D01*
X0157488Y0049541D02*
X0156938Y0049541D01*
X0156938Y0049776D02*
X0157488Y0049776D01*
X0157488Y0050011D02*
X0156938Y0050011D01*
X0156938Y0050246D02*
X0157488Y0050246D01*
X0157488Y0050481D02*
X0156938Y0050481D01*
X0156938Y0050716D02*
X0157488Y0050716D01*
X0157488Y0050951D02*
X0156938Y0050951D01*
X0156938Y0051186D02*
X0157488Y0051186D01*
X0157488Y0051421D02*
X0156938Y0051421D01*
X0155914Y0049306D02*
X0155364Y0049306D01*
X0155364Y0051628D01*
X0155914Y0051628D01*
X0155914Y0049306D01*
X0155914Y0049541D02*
X0155364Y0049541D01*
X0155364Y0049776D02*
X0155914Y0049776D01*
X0155914Y0050011D02*
X0155364Y0050011D01*
X0155364Y0050246D02*
X0155914Y0050246D01*
X0155914Y0050481D02*
X0155364Y0050481D01*
X0155364Y0050716D02*
X0155914Y0050716D01*
X0155914Y0050951D02*
X0155364Y0050951D01*
X0155364Y0051186D02*
X0155914Y0051186D01*
X0155914Y0051421D02*
X0155364Y0051421D01*
X0151722Y0052948D02*
X0151722Y0053498D01*
X0154044Y0053498D01*
X0154044Y0052948D01*
X0151722Y0052948D01*
X0151722Y0053183D02*
X0154044Y0053183D01*
X0154044Y0053418D02*
X0151722Y0053418D01*
X0151722Y0054522D02*
X0151722Y0055072D01*
X0154044Y0055072D01*
X0154044Y0054522D01*
X0151722Y0054522D01*
X0151722Y0054757D02*
X0154044Y0054757D01*
X0154044Y0054992D02*
X0151722Y0054992D01*
X0151722Y0056097D02*
X0151722Y0056647D01*
X0154044Y0056647D01*
X0154044Y0056097D01*
X0151722Y0056097D01*
X0151722Y0056332D02*
X0154044Y0056332D01*
X0154044Y0056567D02*
X0151722Y0056567D01*
X0151722Y0057672D02*
X0151722Y0058222D01*
X0154044Y0058222D01*
X0154044Y0057672D01*
X0151722Y0057672D01*
X0151722Y0057907D02*
X0154044Y0057907D01*
X0154044Y0058142D02*
X0151722Y0058142D01*
X0151722Y0059247D02*
X0151722Y0059797D01*
X0154044Y0059797D01*
X0154044Y0059247D01*
X0151722Y0059247D01*
X0151722Y0059482D02*
X0154044Y0059482D01*
X0154044Y0059717D02*
X0151722Y0059717D01*
X0151722Y0060822D02*
X0151722Y0061372D01*
X0154044Y0061372D01*
X0154044Y0060822D01*
X0151722Y0060822D01*
X0151722Y0061057D02*
X0154044Y0061057D01*
X0154044Y0061292D02*
X0151722Y0061292D01*
X0151722Y0062396D02*
X0151722Y0062946D01*
X0154044Y0062946D01*
X0154044Y0062396D01*
X0151722Y0062396D01*
X0151722Y0062631D02*
X0154044Y0062631D01*
X0154044Y0062866D02*
X0151722Y0062866D01*
X0151722Y0063971D02*
X0151722Y0064521D01*
X0154044Y0064521D01*
X0154044Y0063971D01*
X0151722Y0063971D01*
X0151722Y0064206D02*
X0154044Y0064206D01*
X0154044Y0064441D02*
X0151722Y0064441D01*
X0151722Y0065546D02*
X0151722Y0066096D01*
X0154044Y0066096D01*
X0154044Y0065546D01*
X0151722Y0065546D01*
X0151722Y0065781D02*
X0154044Y0065781D01*
X0154044Y0066016D02*
X0151722Y0066016D01*
D20*
X0159517Y0089360D03*
X0174083Y0089360D03*
D21*
X0113040Y0041979D03*
X0105560Y0041979D03*
X0105560Y0031742D03*
X0109300Y0031742D03*
X0113040Y0031742D03*
M02*
