G75*
%MOIN*%
%OFA0B0*%
%FSLAX25Y25*%
%IPPOS*%
%LPD*%
%AMOC8*
5,1,8,0,0,1.08239X$1,22.5*
%
%ADD10C,0.07000*%
%ADD11C,0.10000*%
%ADD12C,0.08858*%
%ADD13C,0.07400*%
%ADD14C,0.06800*%
%ADD15R,0.07000X0.07000*%
%ADD16C,0.03962*%
%ADD17C,0.01000*%
%ADD18C,0.01200*%
%ADD19C,0.01600*%
%ADD20C,0.03200*%
%ADD21C,0.02400*%
D10*
X0043847Y0010030D03*
X0053847Y0010030D03*
X0063847Y0010030D03*
X0073847Y0010030D03*
X0083847Y0010030D03*
X0093847Y0010030D03*
X0103847Y0010030D03*
X0113847Y0010030D03*
X0123847Y0010030D03*
X0133847Y0010030D03*
X0143847Y0010030D03*
X0153847Y0010030D03*
X0163847Y0010030D03*
X0173847Y0010030D03*
X0183847Y0010030D03*
X0193847Y0010030D03*
X0203847Y0010030D03*
X0213847Y0010030D03*
X0223847Y0010030D03*
X0233847Y0010030D03*
X0223847Y0020030D03*
X0213847Y0020030D03*
X0203847Y0020030D03*
X0193847Y0020030D03*
X0183847Y0020030D03*
X0173847Y0020030D03*
X0163847Y0020030D03*
X0153847Y0020030D03*
X0143847Y0020030D03*
X0133847Y0020030D03*
X0123847Y0020030D03*
X0113847Y0020030D03*
X0103847Y0020030D03*
X0093847Y0020030D03*
X0083847Y0020030D03*
X0073847Y0020030D03*
X0063847Y0020030D03*
X0053847Y0020030D03*
X0043847Y0020030D03*
X0169600Y0033260D03*
D11*
X0025830Y0061867D03*
D12*
X0045515Y0071315D03*
X0045515Y0081945D03*
X0045515Y0052418D03*
X0045515Y0041788D03*
D13*
X0069300Y0039360D03*
X0079300Y0039360D03*
X0134300Y0111860D03*
X0144300Y0111860D03*
X0154300Y0111860D03*
X0164300Y0111860D03*
X0174300Y0111860D03*
X0184300Y0111860D03*
X0194300Y0111860D03*
X0204300Y0111860D03*
D14*
X0064300Y0111860D03*
X0054300Y0111860D03*
X0044300Y0111860D03*
D15*
X0233847Y0020030D03*
D16*
X0158900Y0015160D03*
X0157000Y0036760D03*
X0142700Y0039360D03*
X0154300Y0044360D03*
X0159900Y0044960D03*
X0144300Y0049360D03*
X0124300Y0054360D03*
X0122900Y0060560D03*
X0123600Y0068560D03*
X0141800Y0069360D03*
X0141800Y0074360D03*
X0151761Y0074522D03*
X0162400Y0077460D03*
X0181800Y0074360D03*
X0201800Y0071860D03*
X0191800Y0086860D03*
X0186800Y0089360D03*
X0146800Y0089360D03*
X0141600Y0092760D03*
X0139600Y0100460D03*
X0123300Y0087060D03*
X0141800Y0079360D03*
X0164300Y0061860D03*
X0125500Y0037860D03*
X0109300Y0036860D03*
X0099300Y0026860D03*
X0081800Y0056860D03*
X0101800Y0059360D03*
X0101800Y0066860D03*
X0081800Y0084360D03*
X0073300Y0096660D03*
X0061800Y0056860D03*
D17*
X0101800Y0066860D02*
X0102000Y0066860D01*
X0103500Y0068360D01*
X0123400Y0068360D01*
X0124300Y0069260D02*
X0124300Y0069360D01*
X0136800Y0074360D02*
X0141800Y0079360D01*
X0146800Y0081860D02*
X0146800Y0049360D01*
X0146800Y0036860D01*
X0144300Y0034360D01*
X0126800Y0034360D01*
X0125800Y0037860D01*
X0125500Y0037860D01*
X0126800Y0041860D02*
X0124300Y0044360D01*
X0124300Y0054360D01*
X0119300Y0049360D01*
X0119366Y0036874D01*
X0119400Y0030560D01*
X0151900Y0030560D01*
X0151800Y0044360D01*
X0154300Y0044360D01*
X0154300Y0049360D01*
X0159300Y0054360D01*
X0159300Y0056860D01*
X0164300Y0061860D01*
X0164300Y0066860D01*
X0161800Y0066860D01*
X0162400Y0077460D01*
X0166800Y0082460D01*
X0166800Y0089360D01*
X0146800Y0089360D01*
X0141800Y0086860D02*
X0146800Y0081860D01*
X0141800Y0086860D02*
X0141600Y0092760D01*
X0139600Y0100460D02*
X0139300Y0101860D01*
X0184300Y0101860D01*
X0191800Y0094360D01*
X0191800Y0086860D01*
X0186800Y0089360D02*
X0166800Y0089360D01*
X0151961Y0074522D02*
X0151800Y0074360D01*
X0159300Y0066860D01*
X0161800Y0066860D01*
X0164300Y0066860D02*
X0181800Y0066860D01*
X0181800Y0074360D01*
X0181800Y0066860D02*
X0196800Y0066860D01*
X0201800Y0071860D01*
X0159900Y0044960D02*
X0157000Y0036760D01*
X0142700Y0039360D02*
X0139300Y0041860D01*
X0126800Y0041860D01*
X0144300Y0049360D02*
X0146800Y0049360D01*
X0139300Y0071860D02*
X0141800Y0074360D01*
X0151761Y0074522D02*
X0151961Y0074522D01*
X0159000Y0015260D02*
X0158900Y0015160D01*
X0159000Y0015260D02*
X0199100Y0015260D01*
X0203847Y0010513D01*
X0203847Y0010030D01*
D18*
X0218700Y0016160D02*
X0218700Y0024960D01*
X0216800Y0026860D01*
X0226800Y0026860D02*
X0228700Y0024960D01*
X0228700Y0017060D01*
X0227600Y0015960D01*
X0227600Y0015060D01*
X0232631Y0010030D01*
X0233847Y0010030D01*
X0234300Y0009360D02*
X0229300Y0014360D01*
X0227500Y0014360D01*
X0226400Y0015060D01*
X0219800Y0015060D01*
X0219900Y0014960D01*
X0219900Y0015060D01*
X0219000Y0015960D01*
X0218900Y0015960D01*
X0218700Y0016160D01*
X0141800Y0069360D02*
X0124300Y0069360D01*
X0124300Y0069260D02*
X0123600Y0068560D01*
X0123400Y0068360D01*
X0136800Y0074360D02*
X0091800Y0074360D01*
X0081800Y0071860D02*
X0139300Y0071860D01*
X0123300Y0087060D02*
X0124300Y0089360D01*
X0129800Y0096560D01*
X0146900Y0096560D01*
X0146800Y0089360D01*
X0074300Y0095660D02*
X0074300Y0066860D01*
X0059300Y0066860D01*
X0059300Y0056860D01*
X0056800Y0056860D01*
X0056800Y0034360D01*
X0059300Y0056860D02*
X0061800Y0056860D01*
X0074300Y0095660D02*
X0073300Y0096660D01*
D19*
X0068300Y0096786D02*
X0086800Y0096786D01*
X0086800Y0098384D02*
X0068300Y0098384D01*
X0068300Y0099983D02*
X0086800Y0099983D01*
X0086800Y0101581D02*
X0068300Y0101581D01*
X0068300Y0103180D02*
X0086800Y0103180D01*
X0086800Y0104778D02*
X0068300Y0104778D01*
X0068300Y0106377D02*
X0086800Y0106377D01*
X0086800Y0107975D02*
X0068618Y0107975D01*
X0068300Y0107658D02*
X0069217Y0108575D01*
X0070100Y0110707D01*
X0070100Y0113014D01*
X0069563Y0114310D01*
X0086800Y0114310D01*
X0086800Y0094360D01*
X0104300Y0094360D01*
X0104300Y0077360D01*
X0093325Y0077360D01*
X0086181Y0084505D01*
X0086181Y0085232D01*
X0085514Y0086842D01*
X0084282Y0088074D01*
X0082671Y0088741D01*
X0080929Y0088741D01*
X0079318Y0088074D01*
X0078086Y0086842D01*
X0077419Y0085232D01*
X0077419Y0083489D01*
X0078086Y0081879D01*
X0079318Y0080646D01*
X0080929Y0079979D01*
X0081656Y0079979D01*
X0086775Y0074860D01*
X0082919Y0074860D01*
X0082437Y0075060D01*
X0081163Y0075060D01*
X0079987Y0074573D01*
X0079087Y0073673D01*
X0078600Y0072497D01*
X0078600Y0059856D01*
X0078086Y0059342D01*
X0077419Y0057732D01*
X0077419Y0055989D01*
X0078086Y0054379D01*
X0079318Y0053146D01*
X0080929Y0052479D01*
X0082671Y0052479D01*
X0084282Y0053146D01*
X0085514Y0054379D01*
X0086181Y0055989D01*
X0086181Y0057732D01*
X0085514Y0059342D01*
X0085000Y0059856D01*
X0085000Y0068860D01*
X0121800Y0068860D01*
X0121800Y0064847D01*
X0120418Y0064274D01*
X0119186Y0063042D01*
X0119032Y0062670D01*
X0118694Y0062560D01*
X0104796Y0062560D01*
X0104282Y0063074D01*
X0102671Y0063741D01*
X0100929Y0063741D01*
X0099318Y0063074D01*
X0098086Y0061842D01*
X0097419Y0060232D01*
X0097419Y0058489D01*
X0098086Y0056879D01*
X0099318Y0055646D01*
X0100929Y0054979D01*
X0102671Y0054979D01*
X0104282Y0055646D01*
X0104796Y0056160D01*
X0119073Y0056160D01*
X0119582Y0056120D01*
X0119706Y0056160D01*
X0119837Y0056160D01*
X0120308Y0056355D01*
X0120396Y0056384D01*
X0119919Y0055232D01*
X0119919Y0054080D01*
X0117652Y0051813D01*
X0117644Y0051810D01*
X0117245Y0051406D01*
X0116841Y0051003D01*
X0116838Y0050996D01*
X0116833Y0050990D01*
X0116618Y0050464D01*
X0116400Y0049937D01*
X0116400Y0049929D01*
X0116397Y0049922D01*
X0116400Y0049360D01*
X0081800Y0049360D01*
X0081800Y0044927D01*
X0080513Y0045460D01*
X0078087Y0045460D01*
X0075845Y0044532D01*
X0074129Y0042816D01*
X0073932Y0042342D01*
X0073495Y0042943D01*
X0072883Y0043555D01*
X0072183Y0044064D01*
X0071411Y0044457D01*
X0070588Y0044725D01*
X0069733Y0044860D01*
X0069500Y0044860D01*
X0069500Y0039560D01*
X0069100Y0039560D01*
X0069100Y0039160D01*
X0063800Y0039160D01*
X0063800Y0038927D01*
X0063935Y0038072D01*
X0064203Y0037249D01*
X0064596Y0036478D01*
X0065105Y0035777D01*
X0065717Y0035165D01*
X0066417Y0034656D01*
X0066998Y0034360D01*
X0015944Y0034360D01*
X0015944Y0034429D01*
X0017530Y0034429D01*
X0020379Y0035609D01*
X0020909Y0036139D01*
X0021438Y0035609D01*
X0024288Y0034429D01*
X0027372Y0034429D01*
X0030221Y0035609D01*
X0032402Y0037790D01*
X0033583Y0040639D01*
X0033583Y0043724D01*
X0032402Y0046573D01*
X0030221Y0048754D01*
X0027372Y0049934D01*
X0024288Y0049934D01*
X0021438Y0048754D01*
X0020909Y0048224D01*
X0020379Y0048754D01*
X0017530Y0049934D01*
X0015944Y0049934D01*
X0015944Y0073799D01*
X0017530Y0073799D01*
X0020379Y0074979D01*
X0020909Y0075509D01*
X0021438Y0074979D01*
X0024288Y0073799D01*
X0027372Y0073799D01*
X0030221Y0074979D01*
X0032402Y0077160D01*
X0032800Y0078120D01*
X0032800Y0059816D01*
X0032724Y0059484D01*
X0032800Y0059028D01*
X0032800Y0058565D01*
X0032930Y0058250D01*
X0032986Y0057915D01*
X0033232Y0057522D01*
X0033409Y0057094D01*
X0033649Y0056854D01*
X0033830Y0056566D01*
X0034207Y0056297D01*
X0034534Y0055969D01*
X0034848Y0055839D01*
X0038686Y0053102D01*
X0038686Y0051059D01*
X0039726Y0048549D01*
X0041172Y0047103D01*
X0039726Y0045656D01*
X0038686Y0043146D01*
X0038686Y0040429D01*
X0039726Y0037919D01*
X0041647Y0035998D01*
X0044157Y0034959D01*
X0046873Y0034959D01*
X0049383Y0035998D01*
X0051304Y0037919D01*
X0052344Y0040429D01*
X0052344Y0043146D01*
X0051304Y0045656D01*
X0049858Y0047103D01*
X0051304Y0048549D01*
X0052344Y0051059D01*
X0052344Y0053776D01*
X0051304Y0056286D01*
X0051101Y0056489D01*
X0052087Y0057475D01*
X0053268Y0060324D01*
X0053268Y0063409D01*
X0052087Y0066258D01*
X0051101Y0067244D01*
X0051304Y0067447D01*
X0051476Y0067860D01*
X0055096Y0067860D01*
X0056566Y0068469D01*
X0057691Y0069594D01*
X0060191Y0072094D01*
X0060800Y0073565D01*
X0060800Y0085203D01*
X0067691Y0092094D01*
X0068300Y0093565D01*
X0068300Y0107658D01*
X0069631Y0109574D02*
X0086800Y0109574D01*
X0086800Y0111172D02*
X0070100Y0111172D01*
X0070100Y0112771D02*
X0086800Y0112771D01*
X0060300Y0107658D02*
X0060300Y0096017D01*
X0054534Y0090251D01*
X0053409Y0089126D01*
X0052800Y0087656D01*
X0052800Y0076017D01*
X0052643Y0075860D01*
X0050628Y0075860D01*
X0049858Y0076630D01*
X0051304Y0078077D01*
X0052344Y0080587D01*
X0052344Y0083304D01*
X0051304Y0085814D01*
X0049383Y0087735D01*
X0046873Y0088774D01*
X0044371Y0088774D01*
X0046566Y0090969D01*
X0047691Y0092094D01*
X0048300Y0093565D01*
X0048300Y0107658D01*
X0049217Y0108575D01*
X0049630Y0109572D01*
X0049853Y0109135D01*
X0050334Y0108473D01*
X0050912Y0107894D01*
X0051575Y0107413D01*
X0052304Y0107041D01*
X0053082Y0106788D01*
X0053891Y0106660D01*
X0054225Y0106660D01*
X0054225Y0111785D01*
X0054375Y0111785D01*
X0054375Y0106660D01*
X0054709Y0106660D01*
X0055518Y0106788D01*
X0056296Y0107041D01*
X0057025Y0107413D01*
X0057688Y0107894D01*
X0058266Y0108473D01*
X0058747Y0109135D01*
X0058970Y0109572D01*
X0059383Y0108575D01*
X0060300Y0107658D01*
X0059982Y0107975D02*
X0057769Y0107975D01*
X0060300Y0106377D02*
X0048300Y0106377D01*
X0048618Y0107975D02*
X0050831Y0107975D01*
X0054225Y0107975D02*
X0054375Y0107975D01*
X0054375Y0109574D02*
X0054225Y0109574D01*
X0054225Y0111172D02*
X0054375Y0111172D01*
X0060300Y0104778D02*
X0048300Y0104778D01*
X0048300Y0103180D02*
X0060300Y0103180D01*
X0060300Y0101581D02*
X0048300Y0101581D01*
X0048300Y0099983D02*
X0060300Y0099983D01*
X0060300Y0098384D02*
X0048300Y0098384D01*
X0048300Y0096786D02*
X0060300Y0096786D01*
X0059470Y0095187D02*
X0048300Y0095187D01*
X0048300Y0093589D02*
X0057872Y0093589D01*
X0056273Y0091990D02*
X0047587Y0091990D01*
X0045988Y0090392D02*
X0054675Y0090392D01*
X0053271Y0088793D02*
X0044390Y0088793D01*
X0049923Y0087195D02*
X0052800Y0087195D01*
X0052800Y0085596D02*
X0051394Y0085596D01*
X0052057Y0083998D02*
X0052800Y0083998D01*
X0052800Y0082399D02*
X0052344Y0082399D01*
X0052344Y0080801D02*
X0052800Y0080801D01*
X0052800Y0079202D02*
X0051771Y0079202D01*
X0050831Y0077604D02*
X0052800Y0077604D01*
X0052788Y0076005D02*
X0050483Y0076005D01*
X0059306Y0071210D02*
X0078600Y0071210D01*
X0078600Y0069611D02*
X0057708Y0069611D01*
X0055463Y0068013D02*
X0078600Y0068013D01*
X0078600Y0066414D02*
X0051931Y0066414D01*
X0052685Y0064816D02*
X0078600Y0064816D01*
X0078600Y0063217D02*
X0053268Y0063217D01*
X0053268Y0061619D02*
X0078600Y0061619D01*
X0078600Y0060020D02*
X0053142Y0060020D01*
X0052479Y0058422D02*
X0077705Y0058422D01*
X0077419Y0056823D02*
X0051435Y0056823D01*
X0051744Y0055225D02*
X0077735Y0055225D01*
X0078838Y0053626D02*
X0052344Y0053626D01*
X0052344Y0052027D02*
X0117866Y0052027D01*
X0116604Y0050429D02*
X0052083Y0050429D01*
X0051421Y0048830D02*
X0081800Y0048830D01*
X0081800Y0047232D02*
X0049987Y0047232D01*
X0051314Y0045633D02*
X0081800Y0045633D01*
X0075348Y0044035D02*
X0072223Y0044035D01*
X0073863Y0042436D02*
X0073972Y0042436D01*
X0069500Y0042436D02*
X0069100Y0042436D01*
X0069100Y0044035D02*
X0069500Y0044035D01*
X0069100Y0044860D02*
X0068867Y0044860D01*
X0068012Y0044725D01*
X0067189Y0044457D01*
X0066417Y0044064D01*
X0065717Y0043555D01*
X0065105Y0042943D01*
X0064596Y0042243D01*
X0064203Y0041471D01*
X0063935Y0040648D01*
X0063800Y0039793D01*
X0063800Y0039560D01*
X0069100Y0039560D01*
X0069100Y0044860D01*
X0066377Y0044035D02*
X0051976Y0044035D01*
X0052344Y0042436D02*
X0064737Y0042436D01*
X0063997Y0040838D02*
X0052344Y0040838D01*
X0051851Y0039239D02*
X0069100Y0039239D01*
X0069300Y0039360D02*
X0066800Y0039360D01*
X0056800Y0034360D01*
X0036800Y0034360D01*
X0034300Y0036860D01*
X0034300Y0054360D01*
X0029294Y0061867D01*
X0025830Y0061867D01*
X0026506Y0061619D02*
X0032800Y0061619D01*
X0032600Y0061190D02*
X0026506Y0061190D01*
X0026506Y0055097D01*
X0027159Y0055183D01*
X0028020Y0055414D01*
X0028844Y0055755D01*
X0029616Y0056200D01*
X0030323Y0056743D01*
X0030953Y0057373D01*
X0031496Y0058081D01*
X0031942Y0058853D01*
X0032283Y0059676D01*
X0032514Y0060537D01*
X0032600Y0061190D01*
X0032800Y0060020D02*
X0032375Y0060020D01*
X0032600Y0062543D02*
X0032514Y0063196D01*
X0032283Y0064057D01*
X0031942Y0064881D01*
X0031496Y0065653D01*
X0030953Y0066360D01*
X0030323Y0066990D01*
X0029616Y0067533D01*
X0028844Y0067978D01*
X0028020Y0068319D01*
X0027159Y0068550D01*
X0026506Y0068636D01*
X0026506Y0062543D01*
X0025154Y0062543D01*
X0025154Y0068636D01*
X0024500Y0068550D01*
X0023639Y0068319D01*
X0022816Y0067978D01*
X0022044Y0067533D01*
X0021337Y0066990D01*
X0020706Y0066360D01*
X0020164Y0065653D01*
X0019718Y0064881D01*
X0019377Y0064057D01*
X0019146Y0063196D01*
X0019060Y0062543D01*
X0025153Y0062543D01*
X0025153Y0061190D01*
X0019060Y0061190D01*
X0019146Y0060537D01*
X0019377Y0059676D01*
X0019718Y0058853D01*
X0020164Y0058081D01*
X0020706Y0057373D01*
X0021337Y0056743D01*
X0022044Y0056200D01*
X0022816Y0055755D01*
X0023639Y0055414D01*
X0024500Y0055183D01*
X0025154Y0055097D01*
X0025154Y0061190D01*
X0026506Y0061190D01*
X0026506Y0062543D01*
X0032600Y0062543D01*
X0032508Y0063217D02*
X0032800Y0063217D01*
X0032800Y0064816D02*
X0031969Y0064816D01*
X0032800Y0066414D02*
X0030899Y0066414D01*
X0032800Y0068013D02*
X0028761Y0068013D01*
X0026506Y0068013D02*
X0025154Y0068013D01*
X0025154Y0066414D02*
X0026506Y0066414D01*
X0026506Y0064816D02*
X0025154Y0064816D01*
X0025154Y0063217D02*
X0026506Y0063217D01*
X0025153Y0061619D02*
X0015944Y0061619D01*
X0015944Y0063217D02*
X0019152Y0063217D01*
X0019691Y0064816D02*
X0015944Y0064816D01*
X0015944Y0066414D02*
X0020761Y0066414D01*
X0022899Y0068013D02*
X0015944Y0068013D01*
X0015944Y0069611D02*
X0032800Y0069611D01*
X0032800Y0071210D02*
X0015944Y0071210D01*
X0015944Y0072808D02*
X0032800Y0072808D01*
X0032800Y0074407D02*
X0028839Y0074407D01*
X0031248Y0076005D02*
X0032800Y0076005D01*
X0032800Y0077604D02*
X0032586Y0077604D01*
X0022820Y0074407D02*
X0018997Y0074407D01*
X0019285Y0060020D02*
X0015944Y0060020D01*
X0015944Y0058422D02*
X0019967Y0058422D01*
X0021257Y0056823D02*
X0015944Y0056823D01*
X0015944Y0055225D02*
X0024345Y0055225D01*
X0025154Y0055225D02*
X0026506Y0055225D01*
X0027315Y0055225D02*
X0035710Y0055225D01*
X0033669Y0056823D02*
X0030403Y0056823D01*
X0031693Y0058422D02*
X0032859Y0058422D01*
X0026506Y0058422D02*
X0025154Y0058422D01*
X0025154Y0056823D02*
X0026506Y0056823D01*
X0026506Y0060020D02*
X0025154Y0060020D01*
X0015944Y0053626D02*
X0037952Y0053626D01*
X0038686Y0052027D02*
X0015944Y0052027D01*
X0015944Y0050429D02*
X0038947Y0050429D01*
X0039609Y0048830D02*
X0030037Y0048830D01*
X0031743Y0047232D02*
X0041043Y0047232D01*
X0039716Y0045633D02*
X0032792Y0045633D01*
X0033454Y0044035D02*
X0039054Y0044035D01*
X0038686Y0042436D02*
X0033583Y0042436D01*
X0033583Y0040838D02*
X0038686Y0040838D01*
X0039179Y0039239D02*
X0033003Y0039239D01*
X0032253Y0037641D02*
X0040004Y0037641D01*
X0041603Y0036042D02*
X0030655Y0036042D01*
X0027409Y0034444D02*
X0066834Y0034444D01*
X0064912Y0036042D02*
X0049427Y0036042D01*
X0051026Y0037641D02*
X0064076Y0037641D01*
X0069100Y0040838D02*
X0069500Y0040838D01*
X0089300Y0031860D02*
X0096800Y0044360D01*
X0126800Y0044360D01*
X0126800Y0046860D01*
X0128300Y0066360D01*
X0138604Y0066360D01*
X0139318Y0065646D01*
X0140929Y0064979D01*
X0142671Y0064979D01*
X0143900Y0065488D01*
X0143900Y0053741D01*
X0143429Y0053741D01*
X0141818Y0053074D01*
X0140586Y0051842D01*
X0139919Y0050232D01*
X0139919Y0048489D01*
X0140586Y0046879D01*
X0141818Y0045646D01*
X0143429Y0044979D01*
X0143900Y0044979D01*
X0143900Y0038061D01*
X0143099Y0037260D01*
X0129881Y0037260D01*
X0129881Y0038732D01*
X0129214Y0040342D01*
X0127982Y0041574D01*
X0126371Y0042241D01*
X0124629Y0042241D01*
X0123018Y0041574D01*
X0121786Y0040342D01*
X0121119Y0038732D01*
X0121119Y0036989D01*
X0121786Y0035379D01*
X0123018Y0034146D01*
X0123901Y0033780D01*
X0124057Y0033404D01*
X0124170Y0033009D01*
X0124276Y0032875D01*
X0124341Y0032718D01*
X0124632Y0032427D01*
X0124887Y0032105D01*
X0125037Y0032022D01*
X0125157Y0031902D01*
X0125537Y0031745D01*
X0125896Y0031545D01*
X0126065Y0031526D01*
X0126223Y0031460D01*
X0126634Y0031460D01*
X0127042Y0031413D01*
X0127206Y0031460D01*
X0144877Y0031460D01*
X0145943Y0031902D01*
X0148443Y0034402D01*
X0149258Y0035218D01*
X0149700Y0036283D01*
X0149700Y0082437D01*
X0149258Y0083503D01*
X0148443Y0084319D01*
X0144660Y0088102D01*
X0144610Y0089574D01*
X0145314Y0090279D01*
X0145981Y0091889D01*
X0145981Y0093632D01*
X0145314Y0095242D01*
X0144082Y0096474D01*
X0142475Y0097140D01*
X0143314Y0097979D01*
X0143721Y0098960D01*
X0183099Y0098960D01*
X0188900Y0093159D01*
X0188900Y0090156D01*
X0188086Y0089342D01*
X0187419Y0087732D01*
X0187419Y0085989D01*
X0188086Y0084379D01*
X0189318Y0083146D01*
X0190929Y0082479D01*
X0192671Y0082479D01*
X0194282Y0083146D01*
X0195514Y0084379D01*
X0196181Y0085989D01*
X0196181Y0087732D01*
X0195514Y0089342D01*
X0194700Y0090156D01*
X0194700Y0094937D01*
X0194258Y0096003D01*
X0193443Y0096819D01*
X0185943Y0104319D01*
X0184877Y0104760D01*
X0140667Y0104760D01*
X0140471Y0104841D01*
X0138729Y0104841D01*
X0137118Y0104174D01*
X0135886Y0102942D01*
X0135219Y0101332D01*
X0135219Y0099589D01*
X0135886Y0097979D01*
X0137118Y0096746D01*
X0138725Y0096081D01*
X0137886Y0095242D01*
X0137219Y0093632D01*
X0137219Y0091889D01*
X0137886Y0090279D01*
X0138814Y0089350D01*
X0138900Y0086811D01*
X0138900Y0086283D01*
X0138919Y0086236D01*
X0138921Y0086185D01*
X0139140Y0085705D01*
X0139341Y0085218D01*
X0139377Y0085182D01*
X0139399Y0085135D01*
X0139784Y0084775D01*
X0140850Y0083709D01*
X0139318Y0083074D01*
X0138086Y0081842D01*
X0137419Y0080232D01*
X0137419Y0079080D01*
X0135699Y0077360D01*
X0129146Y0077360D01*
X0129300Y0079360D01*
X0124300Y0081860D01*
X0124300Y0114310D01*
X0128712Y0114310D01*
X0128200Y0113074D01*
X0128200Y0110647D01*
X0129129Y0108405D01*
X0130845Y0106689D01*
X0133087Y0105760D01*
X0135513Y0105760D01*
X0137755Y0106689D01*
X0139300Y0108234D01*
X0140845Y0106689D01*
X0143087Y0105760D01*
X0145513Y0105760D01*
X0147755Y0106689D01*
X0149300Y0108234D01*
X0150845Y0106689D01*
X0153087Y0105760D01*
X0155513Y0105760D01*
X0157755Y0106689D01*
X0159300Y0108234D01*
X0160845Y0106689D01*
X0163087Y0105760D01*
X0165513Y0105760D01*
X0167755Y0106689D01*
X0169300Y0108234D01*
X0170845Y0106689D01*
X0173087Y0105760D01*
X0175513Y0105760D01*
X0177755Y0106689D01*
X0179300Y0108234D01*
X0180845Y0106689D01*
X0183087Y0105760D01*
X0185513Y0105760D01*
X0187755Y0106689D01*
X0189300Y0108234D01*
X0190845Y0106689D01*
X0193087Y0105760D01*
X0195513Y0105760D01*
X0197755Y0106689D01*
X0199300Y0108234D01*
X0200845Y0106689D01*
X0203087Y0105760D01*
X0205513Y0105760D01*
X0207755Y0106689D01*
X0209471Y0108405D01*
X0210400Y0110647D01*
X0210400Y0113074D01*
X0209888Y0114310D01*
X0247714Y0114310D01*
X0246749Y0113753D01*
X0244848Y0111852D01*
X0243503Y0109523D01*
X0242807Y0106925D01*
X0242807Y0104236D01*
X0243503Y0101638D01*
X0244848Y0099310D01*
X0246749Y0097408D01*
X0249078Y0096063D01*
X0251676Y0095367D01*
X0254365Y0095367D01*
X0256963Y0096063D01*
X0259292Y0097408D01*
X0261193Y0099310D01*
X0261750Y0100274D01*
X0261750Y0024675D01*
X0255516Y0024935D01*
X0254365Y0025243D01*
X0251676Y0025243D01*
X0251197Y0025115D01*
X0238517Y0025643D01*
X0237825Y0025930D01*
X0231637Y0025930D01*
X0231544Y0025933D01*
X0231243Y0026660D01*
X0230400Y0027503D01*
X0230400Y0027576D01*
X0229852Y0028899D01*
X0228839Y0029912D01*
X0227516Y0030460D01*
X0174826Y0030460D01*
X0175500Y0032087D01*
X0175500Y0034434D01*
X0174602Y0036602D01*
X0172942Y0038262D01*
X0170774Y0039160D01*
X0168426Y0039160D01*
X0166258Y0038262D01*
X0164598Y0036602D01*
X0163700Y0034434D01*
X0163700Y0032087D01*
X0164374Y0030460D01*
X0122900Y0030460D01*
X0089300Y0031860D01*
X0089891Y0032845D02*
X0124289Y0032845D01*
X0122721Y0034444D02*
X0090850Y0034444D01*
X0091809Y0036042D02*
X0121511Y0036042D01*
X0121119Y0037641D02*
X0092768Y0037641D01*
X0093727Y0039239D02*
X0121329Y0039239D01*
X0122282Y0040838D02*
X0094687Y0040838D01*
X0095646Y0042436D02*
X0143900Y0042436D01*
X0143900Y0044035D02*
X0096605Y0044035D01*
X0109300Y0036860D02*
X0119353Y0036860D01*
X0119366Y0036874D01*
X0128718Y0040838D02*
X0143900Y0040838D01*
X0143900Y0039239D02*
X0129671Y0039239D01*
X0129881Y0037641D02*
X0143479Y0037641D01*
X0148485Y0034444D02*
X0153217Y0034444D01*
X0153286Y0034279D02*
X0154518Y0033046D01*
X0156129Y0032379D01*
X0157871Y0032379D01*
X0159482Y0033046D01*
X0160714Y0034279D01*
X0161381Y0035889D01*
X0161381Y0037632D01*
X0160843Y0038930D01*
X0161539Y0040897D01*
X0162382Y0041246D01*
X0163614Y0042479D01*
X0164281Y0044089D01*
X0164281Y0045832D01*
X0163614Y0047442D01*
X0162382Y0048674D01*
X0160771Y0049341D01*
X0159029Y0049341D01*
X0157418Y0048674D01*
X0156186Y0047442D01*
X0155519Y0045832D01*
X0155519Y0044089D01*
X0156057Y0042791D01*
X0155361Y0040823D01*
X0154518Y0040474D01*
X0153286Y0039242D01*
X0152619Y0037632D01*
X0152619Y0035889D01*
X0153286Y0034279D01*
X0152619Y0036042D02*
X0149600Y0036042D01*
X0149700Y0037641D02*
X0152623Y0037641D01*
X0153285Y0039239D02*
X0149700Y0039239D01*
X0149700Y0040838D02*
X0155366Y0040838D01*
X0155931Y0042436D02*
X0149700Y0042436D01*
X0149700Y0044035D02*
X0155541Y0044035D01*
X0155519Y0045633D02*
X0149700Y0045633D01*
X0149700Y0047232D02*
X0156099Y0047232D01*
X0157795Y0048830D02*
X0149700Y0048830D01*
X0149700Y0050429D02*
X0261750Y0050429D01*
X0261750Y0052027D02*
X0149700Y0052027D01*
X0149700Y0053626D02*
X0261750Y0053626D01*
X0261750Y0055225D02*
X0149700Y0055225D01*
X0149700Y0056823D02*
X0261750Y0056823D01*
X0261750Y0058422D02*
X0149700Y0058422D01*
X0149700Y0060020D02*
X0261750Y0060020D01*
X0261750Y0061619D02*
X0149700Y0061619D01*
X0149700Y0063217D02*
X0261750Y0063217D01*
X0261750Y0064816D02*
X0149700Y0064816D01*
X0149700Y0066414D02*
X0261750Y0066414D01*
X0261750Y0068013D02*
X0149700Y0068013D01*
X0149700Y0069611D02*
X0261750Y0069611D01*
X0261750Y0071210D02*
X0149700Y0071210D01*
X0149700Y0072808D02*
X0261750Y0072808D01*
X0261750Y0074407D02*
X0149700Y0074407D01*
X0149700Y0076005D02*
X0261750Y0076005D01*
X0261750Y0077604D02*
X0149700Y0077604D01*
X0149700Y0079202D02*
X0261750Y0079202D01*
X0261750Y0080801D02*
X0149700Y0080801D01*
X0149700Y0082399D02*
X0261750Y0082399D01*
X0261750Y0083998D02*
X0195133Y0083998D01*
X0196018Y0085596D02*
X0261750Y0085596D01*
X0261750Y0087195D02*
X0196181Y0087195D01*
X0195741Y0088793D02*
X0261750Y0088793D01*
X0261750Y0090392D02*
X0194700Y0090392D01*
X0194700Y0091990D02*
X0261750Y0091990D01*
X0261750Y0093589D02*
X0194700Y0093589D01*
X0194596Y0095187D02*
X0261750Y0095187D01*
X0261750Y0096786D02*
X0258214Y0096786D01*
X0260268Y0098384D02*
X0261750Y0098384D01*
X0261750Y0099983D02*
X0261582Y0099983D01*
X0247827Y0096786D02*
X0193476Y0096786D01*
X0191877Y0098384D02*
X0245773Y0098384D01*
X0244459Y0099983D02*
X0190279Y0099983D01*
X0188680Y0101581D02*
X0243536Y0101581D01*
X0243090Y0103180D02*
X0187082Y0103180D01*
X0187002Y0106377D02*
X0191598Y0106377D01*
X0189558Y0107975D02*
X0189042Y0107975D01*
X0181598Y0106377D02*
X0177002Y0106377D01*
X0179042Y0107975D02*
X0179558Y0107975D01*
X0171598Y0106377D02*
X0167002Y0106377D01*
X0169042Y0107975D02*
X0169558Y0107975D01*
X0161598Y0106377D02*
X0157002Y0106377D01*
X0159042Y0107975D02*
X0159558Y0107975D01*
X0151598Y0106377D02*
X0147002Y0106377D01*
X0149042Y0107975D02*
X0149558Y0107975D01*
X0141598Y0106377D02*
X0137002Y0106377D01*
X0139042Y0107975D02*
X0139558Y0107975D01*
X0138577Y0104778D02*
X0124300Y0104778D01*
X0124300Y0103180D02*
X0136124Y0103180D01*
X0135322Y0101581D02*
X0124300Y0101581D01*
X0124300Y0099983D02*
X0135219Y0099983D01*
X0135718Y0098384D02*
X0124300Y0098384D01*
X0124300Y0096786D02*
X0137079Y0096786D01*
X0137863Y0095187D02*
X0124300Y0095187D01*
X0124300Y0093589D02*
X0137219Y0093589D01*
X0137219Y0091990D02*
X0124300Y0091990D01*
X0124300Y0090392D02*
X0137839Y0090392D01*
X0138833Y0088793D02*
X0124300Y0088793D01*
X0124300Y0087195D02*
X0138887Y0087195D01*
X0139185Y0085596D02*
X0124300Y0085596D01*
X0124300Y0083998D02*
X0140561Y0083998D01*
X0138643Y0082399D02*
X0124300Y0082399D01*
X0126419Y0080801D02*
X0137655Y0080801D01*
X0137419Y0079202D02*
X0129288Y0079202D01*
X0129165Y0077604D02*
X0135942Y0077604D01*
X0148764Y0083998D02*
X0188467Y0083998D01*
X0187581Y0085596D02*
X0147165Y0085596D01*
X0145567Y0087195D02*
X0187419Y0087195D01*
X0187859Y0088793D02*
X0144636Y0088793D01*
X0145361Y0090392D02*
X0188900Y0090392D01*
X0188900Y0091990D02*
X0145981Y0091990D01*
X0145981Y0093589D02*
X0188470Y0093589D01*
X0186872Y0095187D02*
X0145337Y0095187D01*
X0143330Y0096786D02*
X0185273Y0096786D01*
X0183675Y0098384D02*
X0143482Y0098384D01*
X0140623Y0104778D02*
X0242807Y0104778D01*
X0242807Y0106377D02*
X0207002Y0106377D01*
X0209042Y0107975D02*
X0243088Y0107975D01*
X0243533Y0109574D02*
X0209956Y0109574D01*
X0210400Y0111172D02*
X0244455Y0111172D01*
X0245767Y0112771D02*
X0210400Y0112771D01*
X0201598Y0106377D02*
X0197002Y0106377D01*
X0199042Y0107975D02*
X0199558Y0107975D01*
X0131598Y0106377D02*
X0124300Y0106377D01*
X0124300Y0107975D02*
X0129558Y0107975D01*
X0128644Y0109574D02*
X0124300Y0109574D01*
X0124300Y0111172D02*
X0128200Y0111172D01*
X0128200Y0112771D02*
X0124300Y0112771D01*
X0104300Y0093589D02*
X0068300Y0093589D01*
X0068300Y0095187D02*
X0086800Y0095187D01*
X0085161Y0087195D02*
X0104300Y0087195D01*
X0104300Y0088793D02*
X0064390Y0088793D01*
X0062791Y0087195D02*
X0078439Y0087195D01*
X0077570Y0085596D02*
X0061193Y0085596D01*
X0060800Y0083998D02*
X0077419Y0083998D01*
X0077870Y0082399D02*
X0060800Y0082399D01*
X0060800Y0080801D02*
X0079164Y0080801D01*
X0082433Y0079202D02*
X0060800Y0079202D01*
X0060800Y0077604D02*
X0084031Y0077604D01*
X0085630Y0076005D02*
X0060800Y0076005D01*
X0060800Y0074407D02*
X0079821Y0074407D01*
X0078729Y0072808D02*
X0060487Y0072808D01*
X0081800Y0071860D02*
X0081800Y0056860D01*
X0085865Y0055225D02*
X0100336Y0055225D01*
X0098141Y0056823D02*
X0086181Y0056823D01*
X0085895Y0058422D02*
X0097447Y0058422D01*
X0097419Y0060020D02*
X0085000Y0060020D01*
X0085000Y0061619D02*
X0097993Y0061619D01*
X0099663Y0063217D02*
X0085000Y0063217D01*
X0085000Y0064816D02*
X0121725Y0064816D01*
X0121800Y0066414D02*
X0085000Y0066414D01*
X0085000Y0068013D02*
X0121800Y0068013D01*
X0119361Y0063217D02*
X0103937Y0063217D01*
X0101800Y0059360D02*
X0119200Y0059360D01*
X0122900Y0060560D01*
X0127812Y0060020D02*
X0143900Y0060020D01*
X0143900Y0061619D02*
X0127935Y0061619D01*
X0128058Y0063217D02*
X0143900Y0063217D01*
X0143900Y0064816D02*
X0128181Y0064816D01*
X0127689Y0058422D02*
X0143900Y0058422D01*
X0143900Y0056823D02*
X0127566Y0056823D01*
X0127443Y0055225D02*
X0143900Y0055225D01*
X0143150Y0053626D02*
X0127320Y0053626D01*
X0127197Y0052027D02*
X0140771Y0052027D01*
X0140001Y0050429D02*
X0127075Y0050429D01*
X0126952Y0048830D02*
X0139919Y0048830D01*
X0140439Y0047232D02*
X0126829Y0047232D01*
X0126800Y0045633D02*
X0141849Y0045633D01*
X0160953Y0039239D02*
X0261750Y0039239D01*
X0261750Y0037641D02*
X0173563Y0037641D01*
X0174834Y0036042D02*
X0261750Y0036042D01*
X0261750Y0034444D02*
X0175496Y0034444D01*
X0175500Y0032845D02*
X0261750Y0032845D01*
X0261750Y0031247D02*
X0175152Y0031247D01*
X0164048Y0031247D02*
X0104022Y0031247D01*
X0146886Y0032845D02*
X0155003Y0032845D01*
X0158997Y0032845D02*
X0163700Y0032845D01*
X0163704Y0034444D02*
X0160783Y0034444D01*
X0161381Y0036042D02*
X0164366Y0036042D01*
X0165637Y0037641D02*
X0161377Y0037641D01*
X0161518Y0040838D02*
X0261750Y0040838D01*
X0261750Y0042436D02*
X0163572Y0042436D01*
X0164259Y0044035D02*
X0261750Y0044035D01*
X0261750Y0045633D02*
X0164281Y0045633D01*
X0163701Y0047232D02*
X0261750Y0047232D01*
X0261750Y0048830D02*
X0162005Y0048830D01*
X0119919Y0055225D02*
X0103264Y0055225D01*
X0119465Y0053626D02*
X0084762Y0053626D01*
X0091800Y0074360D02*
X0081800Y0084360D01*
X0086030Y0085596D02*
X0104300Y0085596D01*
X0104300Y0083998D02*
X0086688Y0083998D01*
X0088287Y0082399D02*
X0104300Y0082399D01*
X0104300Y0080801D02*
X0089885Y0080801D01*
X0091484Y0079202D02*
X0104300Y0079202D01*
X0104300Y0077604D02*
X0093082Y0077604D01*
X0104300Y0090392D02*
X0065988Y0090392D01*
X0067587Y0091990D02*
X0104300Y0091990D01*
X0045515Y0053145D02*
X0045515Y0052418D01*
X0021623Y0048830D02*
X0020194Y0048830D01*
X0020812Y0036042D02*
X0021005Y0036042D01*
X0024251Y0034444D02*
X0017566Y0034444D01*
X0229103Y0029648D02*
X0261750Y0029648D01*
X0261750Y0028050D02*
X0230204Y0028050D01*
X0231330Y0026451D02*
X0261750Y0026451D01*
X0261750Y0024853D02*
X0257478Y0024853D01*
D20*
X0064300Y0094360D02*
X0064300Y0111860D01*
X0044300Y0111860D02*
X0044300Y0094360D01*
X0036800Y0086860D01*
X0036800Y0059360D01*
X0045515Y0053145D01*
X0046800Y0071860D02*
X0054300Y0071860D01*
X0056800Y0074360D01*
X0056800Y0086860D01*
X0064300Y0094360D01*
D21*
X0046800Y0071860D02*
X0045515Y0071315D01*
X0099300Y0026860D02*
X0216800Y0026860D01*
X0226800Y0026860D01*
M02*
