G04 EAGLE Gerber X2 export*
%TF.Part,Single*%
%TF.FileFunction,Copper,L1,Top,Mixed*%
%TF.FilePolarity,Positive*%
%TF.GenerationSoftware,Autodesk,EAGLE,9.0.0*%
%TF.CreationDate,2018-05-01T01:03:05Z*%
G75*
%MOMM*%
%FSLAX34Y34*%
%LPD*%
%AMOC8*
5,1,8,0,0,1.08239X$1,22.5*%
G01*
%ADD10C,1.778000*%
%ADD11R,1.100000X1.400000*%
%ADD12R,1.000000X1.100000*%
%ADD13R,1.050000X1.080000*%
%ADD14R,1.400000X1.100000*%
%ADD15C,2.540000*%
%ADD16C,2.250000*%
%ADD17R,0.600000X1.600000*%
%ADD18R,0.600000X0.600000*%
%ADD19R,0.800000X0.800000*%
%ADD20C,1.879600*%
%ADD21C,0.203200*%
%ADD22R,1.270000X0.635000*%
%ADD23R,1.500000X2.000000*%
%ADD24C,0.150000*%
%ADD25C,0.060000*%
%ADD26R,1.700000X2.400000*%
%ADD27C,1.727200*%
%ADD28R,1.778000X1.778000*%
%ADD29C,0.406400*%
%ADD30C,0.254000*%
%ADD31C,0.228600*%
%ADD32C,1.006400*%
%ADD33C,0.304800*%
%ADD34C,0.609600*%
%ADD35C,0.756400*%

G36*
X133979Y42431D02*
X133979Y42431D01*
X134106Y42434D01*
X134179Y42451D01*
X134254Y42459D01*
X134375Y42496D01*
X134498Y42524D01*
X134567Y42555D01*
X134639Y42577D01*
X134750Y42637D01*
X134866Y42689D01*
X134927Y42733D01*
X134993Y42769D01*
X135090Y42849D01*
X135193Y42923D01*
X135245Y42978D01*
X135302Y43026D01*
X135382Y43125D01*
X135468Y43217D01*
X135508Y43281D01*
X135555Y43340D01*
X135613Y43452D01*
X135679Y43560D01*
X135706Y43631D01*
X135740Y43697D01*
X135775Y43819D01*
X135819Y43937D01*
X135831Y44012D01*
X135852Y44084D01*
X135862Y44210D01*
X135882Y44335D01*
X135878Y44410D01*
X135885Y44486D01*
X135870Y44611D01*
X135865Y44737D01*
X135846Y44811D01*
X135838Y44885D01*
X135799Y45005D01*
X135768Y45128D01*
X135736Y45197D01*
X135713Y45268D01*
X135651Y45378D01*
X135597Y45493D01*
X135552Y45553D01*
X135515Y45619D01*
X135432Y45715D01*
X135357Y45816D01*
X135301Y45866D01*
X135252Y45924D01*
X135152Y46001D01*
X135058Y46086D01*
X134984Y46132D01*
X134934Y46170D01*
X134868Y46203D01*
X134776Y46260D01*
X133443Y46939D01*
X131922Y48044D01*
X130594Y49372D01*
X129489Y50893D01*
X128636Y52567D01*
X128055Y54354D01*
X128015Y54611D01*
X139192Y54611D01*
X139210Y54612D01*
X139227Y54611D01*
X139410Y54632D01*
X139592Y54651D01*
X139609Y54656D01*
X139627Y54658D01*
X139802Y54715D01*
X139977Y54769D01*
X139993Y54777D01*
X140010Y54783D01*
X140170Y54873D01*
X140331Y54960D01*
X140345Y54972D01*
X140361Y54981D01*
X140500Y55101D01*
X140641Y55218D01*
X140652Y55232D01*
X140665Y55244D01*
X140778Y55389D01*
X140893Y55532D01*
X140901Y55548D01*
X140912Y55562D01*
X140994Y55727D01*
X141034Y55803D01*
X141186Y55889D01*
X141348Y55977D01*
X141361Y55988D01*
X141377Y55997D01*
X141516Y56117D01*
X141657Y56235D01*
X141668Y56248D01*
X141682Y56260D01*
X141794Y56405D01*
X141909Y56548D01*
X141917Y56564D01*
X141928Y56578D01*
X142010Y56743D01*
X142095Y56906D01*
X142100Y56923D01*
X142108Y56939D01*
X142155Y57117D01*
X142206Y57292D01*
X142208Y57310D01*
X142212Y57327D01*
X142239Y57658D01*
X142239Y68835D01*
X142496Y68795D01*
X144283Y68214D01*
X145957Y67361D01*
X147478Y66256D01*
X148806Y64928D01*
X149823Y63529D01*
X149937Y63400D01*
X150049Y63267D01*
X150071Y63249D01*
X150091Y63228D01*
X150228Y63124D01*
X150364Y63016D01*
X150389Y63003D01*
X150412Y62986D01*
X150568Y62911D01*
X150722Y62833D01*
X150750Y62825D01*
X150776Y62812D01*
X150943Y62770D01*
X151109Y62723D01*
X151138Y62721D01*
X151166Y62714D01*
X151339Y62705D01*
X151511Y62692D01*
X151539Y62695D01*
X151568Y62694D01*
X151739Y62720D01*
X151910Y62740D01*
X151937Y62749D01*
X151966Y62754D01*
X152129Y62813D01*
X152292Y62867D01*
X152317Y62881D01*
X152345Y62891D01*
X152492Y62981D01*
X152642Y63066D01*
X152664Y63085D01*
X152689Y63100D01*
X152816Y63218D01*
X152946Y63331D01*
X152963Y63354D01*
X152985Y63373D01*
X153086Y63513D01*
X153191Y63650D01*
X153206Y63679D01*
X153221Y63699D01*
X153256Y63776D01*
X153343Y63945D01*
X153687Y64776D01*
X157474Y68563D01*
X162422Y70613D01*
X167778Y70613D01*
X170673Y69414D01*
X170686Y69410D01*
X170697Y69404D01*
X170877Y69352D01*
X171058Y69297D01*
X171071Y69296D01*
X171084Y69292D01*
X171272Y69277D01*
X171459Y69259D01*
X171472Y69260D01*
X171486Y69259D01*
X171673Y69281D01*
X171859Y69301D01*
X171872Y69305D01*
X171885Y69306D01*
X172065Y69365D01*
X172244Y69421D01*
X172255Y69427D01*
X172268Y69431D01*
X172433Y69524D01*
X172597Y69614D01*
X172607Y69622D01*
X172619Y69629D01*
X172761Y69752D01*
X172905Y69873D01*
X172913Y69883D01*
X172924Y69892D01*
X173039Y70041D01*
X173156Y70188D01*
X173162Y70200D01*
X173170Y70210D01*
X173254Y70379D01*
X173340Y70546D01*
X173344Y70559D01*
X173350Y70571D01*
X173399Y70754D01*
X173450Y70933D01*
X173451Y70947D01*
X173454Y70960D01*
X173481Y71290D01*
X173481Y80519D01*
X187882Y80519D01*
X187900Y80521D01*
X187917Y80519D01*
X188100Y80540D01*
X188282Y80559D01*
X188299Y80564D01*
X188317Y80566D01*
X188492Y80623D01*
X188667Y80677D01*
X188683Y80685D01*
X188700Y80691D01*
X188860Y80781D01*
X189021Y80869D01*
X189035Y80880D01*
X189051Y80889D01*
X189190Y81009D01*
X189210Y81026D01*
X189219Y81027D01*
X189236Y81032D01*
X189253Y81034D01*
X189428Y81091D01*
X189604Y81145D01*
X189619Y81153D01*
X189636Y81159D01*
X189796Y81249D01*
X189958Y81337D01*
X189971Y81348D01*
X189987Y81357D01*
X190126Y81477D01*
X190267Y81595D01*
X190278Y81608D01*
X190292Y81620D01*
X190404Y81764D01*
X190519Y81908D01*
X190527Y81924D01*
X190538Y81938D01*
X190620Y82103D01*
X190705Y82266D01*
X190710Y82283D01*
X190718Y82299D01*
X190765Y82477D01*
X190816Y82652D01*
X190818Y82670D01*
X190822Y82687D01*
X190849Y83018D01*
X190849Y90591D01*
X193685Y90591D01*
X194331Y90418D01*
X194654Y90231D01*
X194795Y90167D01*
X194933Y90097D01*
X194978Y90085D01*
X195020Y90065D01*
X195172Y90031D01*
X195321Y89989D01*
X195368Y89986D01*
X195413Y89975D01*
X195568Y89971D01*
X195723Y89960D01*
X195769Y89966D01*
X195815Y89964D01*
X195968Y89991D01*
X196122Y90010D01*
X196166Y90025D01*
X196212Y90033D01*
X196357Y90089D01*
X196504Y90138D01*
X196544Y90162D01*
X196587Y90178D01*
X196718Y90262D01*
X196853Y90339D01*
X196893Y90373D01*
X196927Y90395D01*
X196989Y90455D01*
X197106Y90554D01*
X198048Y91496D01*
X199541Y92115D01*
X201930Y92115D01*
X201948Y92117D01*
X201966Y92115D01*
X202148Y92136D01*
X202331Y92155D01*
X202348Y92160D01*
X202365Y92162D01*
X202540Y92219D01*
X202716Y92273D01*
X202731Y92281D01*
X202748Y92287D01*
X202908Y92377D01*
X203070Y92465D01*
X203083Y92476D01*
X203099Y92485D01*
X203238Y92605D01*
X203379Y92722D01*
X203390Y92736D01*
X203404Y92748D01*
X203516Y92893D01*
X203631Y93036D01*
X203639Y93052D01*
X203650Y93066D01*
X203732Y93231D01*
X203817Y93393D01*
X203822Y93410D01*
X203830Y93426D01*
X203877Y93605D01*
X203928Y93780D01*
X203930Y93798D01*
X203934Y93815D01*
X203961Y94146D01*
X203961Y94854D01*
X203959Y94872D01*
X203961Y94890D01*
X203940Y95072D01*
X203921Y95255D01*
X203916Y95272D01*
X203914Y95289D01*
X203857Y95464D01*
X203803Y95640D01*
X203795Y95655D01*
X203789Y95672D01*
X203699Y95832D01*
X203611Y95994D01*
X203600Y96007D01*
X203591Y96023D01*
X203471Y96162D01*
X203354Y96303D01*
X203340Y96314D01*
X203328Y96328D01*
X203183Y96440D01*
X203040Y96555D01*
X203024Y96563D01*
X203010Y96574D01*
X202845Y96656D01*
X202683Y96741D01*
X202666Y96746D01*
X202650Y96754D01*
X202471Y96801D01*
X202296Y96852D01*
X202278Y96854D01*
X202261Y96858D01*
X201930Y96885D01*
X200541Y96885D01*
X199048Y97504D01*
X197904Y98647D01*
X197819Y98854D01*
X197812Y98865D01*
X197808Y98878D01*
X197718Y99042D01*
X197629Y99208D01*
X197620Y99219D01*
X197613Y99231D01*
X197492Y99374D01*
X197372Y99519D01*
X197362Y99527D01*
X197353Y99538D01*
X197205Y99654D01*
X197059Y99773D01*
X197048Y99779D01*
X197037Y99787D01*
X196869Y99872D01*
X196703Y99960D01*
X196690Y99963D01*
X196678Y99970D01*
X196497Y100020D01*
X196317Y100073D01*
X196303Y100074D01*
X196290Y100078D01*
X196102Y100091D01*
X195915Y100107D01*
X195902Y100106D01*
X195889Y100107D01*
X195702Y100083D01*
X195515Y100062D01*
X195502Y100058D01*
X195489Y100056D01*
X195312Y99997D01*
X195132Y99939D01*
X195120Y99933D01*
X195108Y99928D01*
X194945Y99834D01*
X194781Y99743D01*
X194770Y99734D01*
X194759Y99727D01*
X194506Y99513D01*
X193910Y98917D01*
X193331Y98582D01*
X192685Y98409D01*
X189599Y98409D01*
X189599Y107232D01*
X189597Y107250D01*
X189599Y107267D01*
X189578Y107450D01*
X189559Y107632D01*
X189554Y107649D01*
X189552Y107667D01*
X189495Y107842D01*
X189464Y107942D01*
X189468Y107949D01*
X189515Y108127D01*
X189566Y108302D01*
X189568Y108320D01*
X189572Y108337D01*
X189599Y108668D01*
X189599Y119156D01*
X189597Y119182D01*
X189599Y119209D01*
X189577Y119383D01*
X189559Y119556D01*
X189552Y119582D01*
X189548Y119608D01*
X189492Y119774D01*
X189441Y119941D01*
X189429Y119965D01*
X189420Y119990D01*
X189333Y120142D01*
X189249Y120295D01*
X189232Y120316D01*
X189219Y120339D01*
X189004Y120592D01*
X187533Y122063D01*
X187532Y122064D01*
X187404Y122169D01*
X187256Y122290D01*
X186508Y123087D01*
X186487Y123105D01*
X186464Y123133D01*
X186306Y123290D01*
X186285Y123307D01*
X186268Y123328D01*
X186130Y123435D01*
X185995Y123545D01*
X185971Y123558D01*
X185950Y123574D01*
X185793Y123652D01*
X185639Y123734D01*
X185613Y123742D01*
X185589Y123754D01*
X185420Y123799D01*
X185253Y123849D01*
X185226Y123851D01*
X185200Y123858D01*
X184870Y123885D01*
X182041Y123885D01*
X180548Y124504D01*
X179404Y125648D01*
X178785Y127141D01*
X178785Y128720D01*
X178784Y128733D01*
X178785Y128746D01*
X178764Y128933D01*
X178745Y129120D01*
X178741Y129133D01*
X178740Y129146D01*
X178683Y129324D01*
X178627Y129505D01*
X178621Y129517D01*
X178617Y129530D01*
X178525Y129694D01*
X178435Y129859D01*
X178427Y129870D01*
X178420Y129881D01*
X178298Y130024D01*
X178178Y130169D01*
X178167Y130177D01*
X178159Y130187D01*
X178010Y130303D01*
X177864Y130421D01*
X177852Y130427D01*
X177842Y130435D01*
X177673Y130520D01*
X177507Y130606D01*
X177494Y130610D01*
X177482Y130616D01*
X177301Y130666D01*
X177120Y130718D01*
X177106Y130719D01*
X177093Y130722D01*
X176905Y130735D01*
X176718Y130751D01*
X176705Y130749D01*
X176692Y130750D01*
X176504Y130725D01*
X176319Y130704D01*
X176306Y130700D01*
X176293Y130698D01*
X175977Y130596D01*
X173869Y129723D01*
X173849Y129713D01*
X173828Y129706D01*
X173671Y129617D01*
X173514Y129533D01*
X173497Y129519D01*
X173477Y129508D01*
X173341Y129390D01*
X173203Y129277D01*
X173189Y129259D01*
X173172Y129245D01*
X173063Y129103D01*
X172950Y128964D01*
X172939Y128944D01*
X172926Y128927D01*
X172846Y128767D01*
X172763Y128607D01*
X172756Y128586D01*
X172746Y128566D01*
X172700Y128393D01*
X172650Y128221D01*
X172648Y128199D01*
X172642Y128177D01*
X172615Y127847D01*
X172615Y112321D01*
X172617Y112299D01*
X172615Y112277D01*
X172637Y112099D01*
X172655Y111920D01*
X172661Y111899D01*
X172664Y111877D01*
X172720Y111707D01*
X172773Y111535D01*
X172783Y111516D01*
X172790Y111495D01*
X172879Y111339D01*
X172965Y111181D01*
X172979Y111164D01*
X172990Y111145D01*
X173108Y111009D01*
X173222Y110872D01*
X173240Y110858D01*
X173254Y110841D01*
X173396Y110732D01*
X173536Y110620D01*
X173556Y110610D01*
X173574Y110596D01*
X173869Y110444D01*
X176001Y109561D01*
X176014Y109557D01*
X176025Y109551D01*
X176206Y109499D01*
X176386Y109445D01*
X176399Y109444D01*
X176412Y109440D01*
X176600Y109424D01*
X176787Y109407D01*
X176800Y109408D01*
X176814Y109407D01*
X177001Y109429D01*
X177187Y109448D01*
X177200Y109452D01*
X177213Y109454D01*
X177393Y109512D01*
X177572Y109568D01*
X177583Y109575D01*
X177596Y109579D01*
X177760Y109671D01*
X177925Y109761D01*
X177935Y109770D01*
X177947Y109777D01*
X178089Y109899D01*
X178233Y110021D01*
X178241Y110031D01*
X178252Y110040D01*
X178367Y110188D01*
X178484Y110335D01*
X178490Y110347D01*
X178498Y110358D01*
X178582Y110527D01*
X178668Y110694D01*
X178672Y110706D01*
X178678Y110718D01*
X178727Y110902D01*
X178778Y111081D01*
X178779Y111094D01*
X178782Y111107D01*
X178809Y111438D01*
X178809Y115285D01*
X178982Y115931D01*
X179317Y116510D01*
X179790Y116983D01*
X180369Y117318D01*
X181015Y117491D01*
X184101Y117491D01*
X184101Y108668D01*
X184102Y108650D01*
X184101Y108633D01*
X184122Y108450D01*
X184141Y108268D01*
X184146Y108251D01*
X184148Y108233D01*
X184205Y108058D01*
X184236Y107958D01*
X184232Y107951D01*
X184184Y107773D01*
X184134Y107598D01*
X184132Y107580D01*
X184128Y107563D01*
X184101Y107232D01*
X184101Y98409D01*
X181332Y98409D01*
X181310Y98407D01*
X181287Y98409D01*
X181110Y98387D01*
X180931Y98369D01*
X180910Y98363D01*
X180888Y98360D01*
X180718Y98304D01*
X180546Y98251D01*
X180527Y98241D01*
X180505Y98234D01*
X180351Y98145D01*
X180192Y98060D01*
X180175Y98045D01*
X180156Y98034D01*
X180021Y97917D01*
X179883Y97802D01*
X179869Y97784D01*
X179852Y97770D01*
X179743Y97628D01*
X179631Y97488D01*
X179620Y97468D01*
X179607Y97450D01*
X179455Y97155D01*
X179162Y96447D01*
X176603Y93888D01*
X173260Y92503D01*
X169640Y92503D01*
X166002Y94010D01*
X165896Y94067D01*
X165887Y94069D01*
X165878Y94074D01*
X165694Y94127D01*
X165510Y94182D01*
X165500Y94183D01*
X165491Y94185D01*
X165300Y94201D01*
X165109Y94218D01*
X165099Y94217D01*
X165090Y94218D01*
X164899Y94196D01*
X164709Y94175D01*
X164700Y94172D01*
X164690Y94171D01*
X164508Y94112D01*
X164325Y94054D01*
X164316Y94049D01*
X164307Y94046D01*
X164141Y93953D01*
X163972Y93860D01*
X163965Y93853D01*
X163957Y93849D01*
X163812Y93724D01*
X163665Y93599D01*
X163659Y93592D01*
X163652Y93585D01*
X163535Y93435D01*
X163415Y93284D01*
X163411Y93275D01*
X163405Y93267D01*
X163320Y93095D01*
X163233Y92925D01*
X163230Y92916D01*
X163226Y92907D01*
X163175Y92719D01*
X163124Y92537D01*
X163124Y92527D01*
X163121Y92518D01*
X163094Y92187D01*
X163094Y80219D01*
X162475Y78726D01*
X161332Y77582D01*
X159838Y76963D01*
X152221Y76963D01*
X150870Y77523D01*
X150779Y77550D01*
X150691Y77587D01*
X150587Y77608D01*
X150485Y77639D01*
X150390Y77648D01*
X150296Y77667D01*
X150190Y77667D01*
X150084Y77677D01*
X149989Y77668D01*
X149894Y77668D01*
X149765Y77644D01*
X149683Y77636D01*
X149634Y77620D01*
X149567Y77608D01*
X149385Y77559D01*
X148081Y77559D01*
X148081Y83100D01*
X148081Y94900D01*
X148080Y94917D01*
X148081Y94935D01*
X148060Y95118D01*
X148041Y95300D01*
X148036Y95317D01*
X148034Y95335D01*
X147977Y95510D01*
X147923Y95685D01*
X147915Y95701D01*
X147909Y95718D01*
X147819Y95878D01*
X147732Y96039D01*
X147720Y96053D01*
X147711Y96068D01*
X147591Y96208D01*
X147474Y96348D01*
X147460Y96360D01*
X147448Y96373D01*
X147303Y96486D01*
X147160Y96601D01*
X147144Y96609D01*
X147130Y96620D01*
X146965Y96702D01*
X146803Y96786D01*
X146786Y96791D01*
X146770Y96799D01*
X146592Y96847D01*
X146416Y96898D01*
X146398Y96899D01*
X146381Y96904D01*
X146050Y96931D01*
X146032Y96929D01*
X146015Y96931D01*
X146014Y96931D01*
X145832Y96909D01*
X145649Y96891D01*
X145632Y96886D01*
X145614Y96884D01*
X145440Y96827D01*
X145264Y96773D01*
X145249Y96764D01*
X145232Y96759D01*
X145071Y96668D01*
X144910Y96581D01*
X144897Y96570D01*
X144881Y96561D01*
X144742Y96441D01*
X144601Y96323D01*
X144590Y96309D01*
X144576Y96298D01*
X144464Y96153D01*
X144349Y96010D01*
X144340Y95994D01*
X144330Y95980D01*
X144248Y95815D01*
X144163Y95652D01*
X144158Y95635D01*
X144150Y95619D01*
X144102Y95441D01*
X144052Y95265D01*
X144050Y95248D01*
X144046Y95230D01*
X144019Y94900D01*
X144019Y83100D01*
X144019Y77559D01*
X142716Y77559D01*
X142562Y77601D01*
X142467Y77616D01*
X142375Y77641D01*
X142269Y77648D01*
X142164Y77666D01*
X142069Y77662D01*
X141974Y77669D01*
X141868Y77655D01*
X141762Y77651D01*
X141669Y77629D01*
X141574Y77617D01*
X141450Y77577D01*
X141370Y77558D01*
X141324Y77536D01*
X141258Y77515D01*
X139859Y76935D01*
X136045Y76935D01*
X135939Y76925D01*
X135832Y76924D01*
X135739Y76905D01*
X135645Y76895D01*
X135542Y76864D01*
X135437Y76842D01*
X135350Y76805D01*
X135260Y76777D01*
X135166Y76726D01*
X135067Y76684D01*
X134989Y76631D01*
X134906Y76585D01*
X134824Y76517D01*
X134735Y76456D01*
X134655Y76376D01*
X134597Y76328D01*
X134559Y76281D01*
X134500Y76222D01*
X120665Y60003D01*
X120576Y59873D01*
X120512Y59790D01*
X120503Y59779D01*
X120502Y59777D01*
X120480Y59748D01*
X120458Y59703D01*
X120436Y59672D01*
X120401Y59592D01*
X120361Y59513D01*
X119594Y58737D01*
X119554Y58688D01*
X119492Y58627D01*
X118781Y57793D01*
X118710Y57748D01*
X118574Y57668D01*
X118536Y57636D01*
X118504Y57615D01*
X118441Y57555D01*
X118374Y57497D01*
X117368Y57074D01*
X117313Y57044D01*
X117232Y57011D01*
X116256Y56513D01*
X116173Y56498D01*
X116017Y56477D01*
X115970Y56461D01*
X115932Y56454D01*
X115851Y56422D01*
X115767Y56395D01*
X114676Y56389D01*
X114613Y56383D01*
X114526Y56383D01*
X113434Y56296D01*
X113350Y56314D01*
X113198Y56354D01*
X113149Y56358D01*
X113111Y56366D01*
X113024Y56368D01*
X112868Y56380D01*
X94296Y56282D01*
X94279Y56280D01*
X94262Y56282D01*
X94079Y56259D01*
X93895Y56240D01*
X93879Y56235D01*
X93862Y56233D01*
X93687Y56175D01*
X93511Y56120D01*
X93496Y56112D01*
X93480Y56106D01*
X93319Y56015D01*
X93158Y55926D01*
X93145Y55915D01*
X93130Y55907D01*
X92990Y55785D01*
X92850Y55667D01*
X92839Y55654D01*
X92827Y55642D01*
X92714Y55496D01*
X92599Y55352D01*
X92592Y55337D01*
X92581Y55323D01*
X92430Y55028D01*
X92269Y54641D01*
X87961Y50333D01*
X82332Y48001D01*
X76240Y48001D01*
X70611Y50333D01*
X66303Y54641D01*
X63971Y60270D01*
X63971Y66362D01*
X66303Y71991D01*
X69691Y75380D01*
X69703Y75393D01*
X69716Y75405D01*
X69830Y75549D01*
X69946Y75691D01*
X69955Y75707D01*
X69966Y75721D01*
X70049Y75885D01*
X70135Y76047D01*
X70140Y76064D01*
X70148Y76080D01*
X70198Y76257D01*
X70250Y76433D01*
X70252Y76451D01*
X70256Y76468D01*
X70270Y76651D01*
X70286Y76834D01*
X70284Y76852D01*
X70286Y76869D01*
X70263Y77051D01*
X70243Y77234D01*
X70237Y77251D01*
X70235Y77269D01*
X70177Y77442D01*
X70121Y77618D01*
X70113Y77634D01*
X70107Y77650D01*
X70015Y77810D01*
X69927Y77970D01*
X69915Y77984D01*
X69906Y77999D01*
X69691Y78252D01*
X66303Y81641D01*
X63971Y87270D01*
X63971Y93362D01*
X66303Y98991D01*
X66533Y99221D01*
X66544Y99235D01*
X66557Y99246D01*
X66671Y99390D01*
X66788Y99532D01*
X66796Y99548D01*
X66807Y99562D01*
X66891Y99727D01*
X66976Y99888D01*
X66981Y99905D01*
X66989Y99921D01*
X67039Y100099D01*
X67091Y100274D01*
X67093Y100292D01*
X67097Y100309D01*
X67111Y100492D01*
X67127Y100675D01*
X67125Y100693D01*
X67127Y100710D01*
X67104Y100892D01*
X67084Y101075D01*
X67079Y101092D01*
X67076Y101110D01*
X67018Y101284D01*
X66963Y101459D01*
X66954Y101475D01*
X66948Y101492D01*
X66857Y101650D01*
X66768Y101811D01*
X66756Y101825D01*
X66747Y101840D01*
X66533Y102093D01*
X64314Y104312D01*
X61625Y110803D01*
X61625Y117829D01*
X64314Y124320D01*
X66533Y126539D01*
X66544Y126552D01*
X66557Y126564D01*
X66671Y126708D01*
X66788Y126850D01*
X66796Y126866D01*
X66807Y126880D01*
X66890Y127044D01*
X66976Y127206D01*
X66981Y127223D01*
X66989Y127239D01*
X67039Y127416D01*
X67091Y127592D01*
X67093Y127609D01*
X67097Y127627D01*
X67111Y127809D01*
X67127Y127993D01*
X67125Y128010D01*
X67127Y128028D01*
X67104Y128210D01*
X67084Y128393D01*
X67079Y128410D01*
X67076Y128428D01*
X67018Y128601D01*
X66963Y128777D01*
X66954Y128792D01*
X66948Y128809D01*
X66856Y128969D01*
X66768Y129129D01*
X66756Y129143D01*
X66747Y129158D01*
X66533Y129411D01*
X66303Y129641D01*
X63971Y135270D01*
X63971Y141362D01*
X66303Y146991D01*
X69691Y150380D01*
X69703Y150394D01*
X69716Y150405D01*
X69830Y150549D01*
X69946Y150691D01*
X69955Y150707D01*
X69966Y150721D01*
X70049Y150885D01*
X70135Y151047D01*
X70140Y151064D01*
X70148Y151080D01*
X70198Y151257D01*
X70250Y151433D01*
X70252Y151451D01*
X70256Y151468D01*
X70270Y151651D01*
X70286Y151834D01*
X70284Y151852D01*
X70286Y151869D01*
X70263Y152051D01*
X70243Y152234D01*
X70238Y152251D01*
X70235Y152269D01*
X70177Y152443D01*
X70121Y152618D01*
X70113Y152634D01*
X70107Y152650D01*
X70015Y152810D01*
X69927Y152970D01*
X69915Y152984D01*
X69906Y152999D01*
X69691Y153252D01*
X66303Y156641D01*
X63971Y162270D01*
X63971Y168362D01*
X66303Y173991D01*
X70611Y178299D01*
X76240Y180631D01*
X82332Y180631D01*
X87961Y178299D01*
X92269Y173991D01*
X92444Y173570D01*
X92451Y173557D01*
X92455Y173543D01*
X92545Y173380D01*
X92634Y173215D01*
X92643Y173203D01*
X92650Y173191D01*
X92771Y173049D01*
X92890Y172904D01*
X92902Y172895D01*
X92911Y172884D01*
X93058Y172768D01*
X93203Y172651D01*
X93216Y172644D01*
X93227Y172635D01*
X93394Y172550D01*
X93559Y172464D01*
X93574Y172459D01*
X93587Y172453D01*
X93766Y172403D01*
X93946Y172351D01*
X93961Y172349D01*
X93975Y172345D01*
X94305Y172316D01*
X107969Y172213D01*
X107975Y172213D01*
X107984Y172213D01*
X110848Y172213D01*
X111011Y172229D01*
X111174Y172239D01*
X111211Y172249D01*
X111249Y172253D01*
X111405Y172301D01*
X111563Y172343D01*
X111597Y172360D01*
X111634Y172371D01*
X111777Y172449D01*
X111924Y172521D01*
X111959Y172547D01*
X111988Y172563D01*
X112055Y172618D01*
X112190Y172719D01*
X128296Y186900D01*
X128358Y186967D01*
X128428Y187026D01*
X128495Y187114D01*
X128571Y187195D01*
X128618Y187273D01*
X128674Y187344D01*
X128723Y187443D01*
X128781Y187538D01*
X128813Y187623D01*
X128854Y187705D01*
X128882Y187812D01*
X128920Y187916D01*
X128934Y188006D01*
X128958Y188094D01*
X128969Y188231D01*
X128982Y188313D01*
X128980Y188361D01*
X128985Y188425D01*
X128985Y193059D01*
X129604Y194552D01*
X130748Y195696D01*
X132241Y196315D01*
X139859Y196315D01*
X141258Y195735D01*
X141350Y195707D01*
X141438Y195670D01*
X141542Y195649D01*
X141644Y195618D01*
X141739Y195609D01*
X141833Y195590D01*
X141939Y195590D01*
X142045Y195580D01*
X142140Y195590D01*
X142235Y195590D01*
X142363Y195613D01*
X142445Y195622D01*
X142494Y195637D01*
X142562Y195649D01*
X142715Y195691D01*
X144019Y195691D01*
X144019Y190150D01*
X144019Y178350D01*
X144020Y178333D01*
X144019Y178315D01*
X144040Y178132D01*
X144058Y177950D01*
X144064Y177933D01*
X144066Y177915D01*
X144123Y177740D01*
X144177Y177565D01*
X144185Y177549D01*
X144191Y177532D01*
X144281Y177372D01*
X144368Y177211D01*
X144380Y177197D01*
X144389Y177182D01*
X144509Y177042D01*
X144626Y176902D01*
X144640Y176890D01*
X144652Y176877D01*
X144797Y176764D01*
X144940Y176649D01*
X144956Y176641D01*
X144970Y176630D01*
X145135Y176548D01*
X145297Y176464D01*
X145314Y176459D01*
X145330Y176451D01*
X145508Y176403D01*
X145684Y176352D01*
X145702Y176351D01*
X145719Y176346D01*
X146050Y176319D01*
X146068Y176321D01*
X146085Y176319D01*
X146086Y176319D01*
X146268Y176341D01*
X146451Y176359D01*
X146468Y176364D01*
X146486Y176366D01*
X146660Y176423D01*
X146836Y176477D01*
X146851Y176486D01*
X146868Y176491D01*
X147029Y176582D01*
X147190Y176669D01*
X147203Y176680D01*
X147219Y176689D01*
X147358Y176809D01*
X147499Y176927D01*
X147510Y176941D01*
X147524Y176952D01*
X147636Y177097D01*
X147751Y177240D01*
X147760Y177256D01*
X147770Y177270D01*
X147852Y177435D01*
X147937Y177598D01*
X147942Y177615D01*
X147950Y177631D01*
X147998Y177809D01*
X148048Y177985D01*
X148050Y178002D01*
X148054Y178020D01*
X148081Y178350D01*
X148081Y190150D01*
X148081Y195691D01*
X149384Y195691D01*
X149485Y195664D01*
X149579Y195648D01*
X149671Y195623D01*
X149777Y195616D01*
X149882Y195599D01*
X149978Y195602D01*
X150073Y195596D01*
X150179Y195609D01*
X150285Y195613D01*
X150377Y195635D01*
X150472Y195648D01*
X150597Y195688D01*
X150676Y195707D01*
X150723Y195728D01*
X150788Y195749D01*
X152221Y196343D01*
X159838Y196343D01*
X161332Y195724D01*
X162475Y194580D01*
X163094Y193087D01*
X163094Y192278D01*
X163096Y192260D01*
X163094Y192242D01*
X163116Y192060D01*
X163134Y191877D01*
X163139Y191860D01*
X163141Y191843D01*
X163198Y191668D01*
X163252Y191492D01*
X163261Y191477D01*
X163266Y191460D01*
X163357Y191300D01*
X163444Y191138D01*
X163455Y191125D01*
X163464Y191109D01*
X163584Y190970D01*
X163702Y190829D01*
X163716Y190818D01*
X163727Y190804D01*
X163872Y190692D01*
X164015Y190577D01*
X164031Y190569D01*
X164045Y190558D01*
X164210Y190476D01*
X164373Y190391D01*
X164390Y190386D01*
X164406Y190378D01*
X164584Y190331D01*
X164760Y190280D01*
X164777Y190278D01*
X164795Y190274D01*
X165125Y190247D01*
X177840Y190247D01*
X177863Y190249D01*
X177885Y190247D01*
X178062Y190269D01*
X178241Y190287D01*
X178262Y190293D01*
X178284Y190296D01*
X178455Y190352D01*
X178626Y190405D01*
X178645Y190415D01*
X178667Y190422D01*
X178823Y190511D01*
X178980Y190597D01*
X178997Y190611D01*
X179016Y190622D01*
X179152Y190740D01*
X179289Y190854D01*
X179303Y190872D01*
X179320Y190886D01*
X179429Y191029D01*
X179541Y191168D01*
X179552Y191188D01*
X179565Y191206D01*
X179717Y191501D01*
X179904Y191953D01*
X181048Y193096D01*
X182541Y193715D01*
X194159Y193715D01*
X195652Y193096D01*
X196594Y192154D01*
X196715Y192056D01*
X196830Y191952D01*
X196870Y191928D01*
X196906Y191899D01*
X197043Y191826D01*
X197176Y191747D01*
X197221Y191732D01*
X197262Y191710D01*
X197410Y191666D01*
X197557Y191615D01*
X197603Y191609D01*
X197648Y191595D01*
X197802Y191581D01*
X197956Y191560D01*
X198002Y191563D01*
X198049Y191559D01*
X198203Y191576D01*
X198357Y191585D01*
X198402Y191597D01*
X198449Y191602D01*
X198597Y191649D01*
X198746Y191689D01*
X198794Y191712D01*
X198833Y191724D01*
X198908Y191766D01*
X199046Y191831D01*
X199369Y192018D01*
X200015Y192191D01*
X202851Y192191D01*
X202851Y184618D01*
X202852Y184600D01*
X202851Y184583D01*
X202872Y184400D01*
X202891Y184218D01*
X202896Y184201D01*
X202898Y184183D01*
X202911Y184142D01*
X202884Y184048D01*
X202882Y184030D01*
X202878Y184013D01*
X202851Y183682D01*
X202851Y176109D01*
X200015Y176109D01*
X199369Y176282D01*
X199046Y176469D01*
X198905Y176533D01*
X198767Y176603D01*
X198722Y176615D01*
X198680Y176635D01*
X198528Y176669D01*
X198379Y176711D01*
X198332Y176714D01*
X198287Y176725D01*
X198132Y176729D01*
X197977Y176740D01*
X197931Y176734D01*
X197885Y176736D01*
X197732Y176709D01*
X197578Y176690D01*
X197534Y176675D01*
X197488Y176667D01*
X197343Y176611D01*
X197196Y176562D01*
X197156Y176538D01*
X197113Y176522D01*
X196982Y176438D01*
X196847Y176361D01*
X196807Y176327D01*
X196773Y176305D01*
X196711Y176245D01*
X196594Y176146D01*
X195652Y175204D01*
X194159Y174585D01*
X182578Y174585D01*
X182560Y174583D01*
X182542Y174585D01*
X182360Y174564D01*
X182177Y174545D01*
X182160Y174540D01*
X182143Y174538D01*
X181968Y174481D01*
X181792Y174427D01*
X181777Y174419D01*
X181760Y174413D01*
X181600Y174323D01*
X181438Y174235D01*
X181425Y174224D01*
X181409Y174215D01*
X181270Y174095D01*
X181129Y173978D01*
X181118Y173964D01*
X181104Y173952D01*
X180992Y173807D01*
X180877Y173664D01*
X180869Y173648D01*
X180858Y173634D01*
X180776Y173469D01*
X180691Y173307D01*
X180686Y173290D01*
X180678Y173274D01*
X180631Y173095D01*
X180580Y172920D01*
X180578Y172902D01*
X180574Y172885D01*
X180547Y172554D01*
X180547Y170246D01*
X180549Y170228D01*
X180547Y170210D01*
X180568Y170028D01*
X180587Y169845D01*
X180592Y169828D01*
X180594Y169811D01*
X180651Y169636D01*
X180705Y169460D01*
X180713Y169445D01*
X180719Y169428D01*
X180809Y169268D01*
X180897Y169106D01*
X180908Y169093D01*
X180917Y169077D01*
X181037Y168938D01*
X181154Y168797D01*
X181168Y168786D01*
X181180Y168772D01*
X181325Y168660D01*
X181468Y168545D01*
X181484Y168537D01*
X181498Y168526D01*
X181663Y168444D01*
X181825Y168359D01*
X181842Y168354D01*
X181858Y168346D01*
X182037Y168299D01*
X182212Y168248D01*
X182230Y168246D01*
X182247Y168242D01*
X182578Y168215D01*
X194159Y168215D01*
X195652Y167596D01*
X196594Y166654D01*
X196715Y166556D01*
X196830Y166452D01*
X196870Y166428D01*
X196906Y166399D01*
X197043Y166326D01*
X197176Y166247D01*
X197221Y166232D01*
X197262Y166210D01*
X197410Y166166D01*
X197557Y166115D01*
X197603Y166109D01*
X197648Y166095D01*
X197802Y166081D01*
X197956Y166060D01*
X198002Y166063D01*
X198049Y166059D01*
X198203Y166076D01*
X198357Y166085D01*
X198402Y166097D01*
X198449Y166102D01*
X198597Y166149D01*
X198746Y166189D01*
X198794Y166212D01*
X198833Y166224D01*
X198908Y166266D01*
X199046Y166331D01*
X199369Y166518D01*
X200015Y166691D01*
X202976Y166691D01*
X202976Y159343D01*
X202977Y159325D01*
X202976Y159308D01*
X202997Y159125D01*
X203016Y158943D01*
X203021Y158926D01*
X203023Y158908D01*
X203074Y158752D01*
X203059Y158698D01*
X203009Y158523D01*
X203007Y158505D01*
X203003Y158488D01*
X202976Y158157D01*
X202976Y150809D01*
X200015Y150809D01*
X199369Y150982D01*
X199046Y151169D01*
X198905Y151233D01*
X198767Y151303D01*
X198722Y151315D01*
X198680Y151335D01*
X198528Y151369D01*
X198379Y151411D01*
X198332Y151414D01*
X198287Y151425D01*
X198132Y151429D01*
X197977Y151440D01*
X197931Y151434D01*
X197885Y151436D01*
X197732Y151409D01*
X197578Y151390D01*
X197534Y151375D01*
X197488Y151367D01*
X197343Y151311D01*
X197196Y151262D01*
X197156Y151238D01*
X197113Y151222D01*
X196982Y151138D01*
X196847Y151061D01*
X196807Y151027D01*
X196773Y151005D01*
X196711Y150945D01*
X196594Y150846D01*
X195652Y149904D01*
X194159Y149285D01*
X188099Y149285D01*
X188072Y149283D01*
X188045Y149285D01*
X187872Y149263D01*
X187698Y149245D01*
X187673Y149238D01*
X187646Y149234D01*
X187480Y149178D01*
X187313Y149127D01*
X187290Y149115D01*
X187264Y149106D01*
X187113Y149019D01*
X186959Y148935D01*
X186939Y148918D01*
X186915Y148905D01*
X186662Y148690D01*
X184254Y146282D01*
X184249Y146275D01*
X184242Y146270D01*
X184122Y146120D01*
X183999Y145971D01*
X183995Y145963D01*
X183990Y145956D01*
X183900Y145784D01*
X183811Y145615D01*
X183808Y145606D01*
X183804Y145599D01*
X183751Y145414D01*
X183696Y145229D01*
X183695Y145220D01*
X183693Y145212D01*
X183677Y145021D01*
X183659Y144828D01*
X183660Y144819D01*
X183660Y144810D01*
X183682Y144621D01*
X183703Y144428D01*
X183706Y144419D01*
X183707Y144411D01*
X183766Y144229D01*
X183824Y144044D01*
X183829Y144036D01*
X183831Y144028D01*
X183927Y143859D01*
X184019Y143692D01*
X184025Y143685D01*
X184029Y143677D01*
X184155Y143531D01*
X184280Y143385D01*
X184287Y143379D01*
X184293Y143372D01*
X184444Y143255D01*
X184596Y143135D01*
X184604Y143131D01*
X184611Y143126D01*
X184783Y143040D01*
X184955Y142953D01*
X184963Y142950D01*
X184971Y142946D01*
X185157Y142896D01*
X185342Y142845D01*
X185351Y142844D01*
X185360Y142842D01*
X185691Y142815D01*
X194159Y142815D01*
X195826Y142124D01*
X195920Y142076D01*
X196081Y141991D01*
X196098Y141986D01*
X196115Y141978D01*
X196292Y141928D01*
X196467Y141876D01*
X196485Y141875D01*
X196502Y141870D01*
X196684Y141856D01*
X196868Y141840D01*
X196886Y141842D01*
X196904Y141840D01*
X197085Y141863D01*
X197268Y141883D01*
X197285Y141889D01*
X197303Y141891D01*
X197476Y141949D01*
X197652Y142005D01*
X197668Y142014D01*
X197685Y142019D01*
X197843Y142111D01*
X197849Y142114D01*
X199541Y142815D01*
X211659Y142815D01*
X213152Y142196D01*
X214296Y141052D01*
X214915Y139559D01*
X214915Y126774D01*
X214917Y126751D01*
X214915Y126729D01*
X214937Y126552D01*
X214955Y126373D01*
X214961Y126352D01*
X214964Y126330D01*
X215020Y126160D01*
X215073Y125988D01*
X215083Y125968D01*
X215090Y125947D01*
X215179Y125791D01*
X215265Y125634D01*
X215279Y125617D01*
X215290Y125598D01*
X215408Y125462D01*
X215522Y125325D01*
X215540Y125311D01*
X215554Y125294D01*
X215696Y125185D01*
X215836Y125073D01*
X215856Y125062D01*
X215874Y125049D01*
X216169Y124897D01*
X218050Y124118D01*
X225586Y116582D01*
X225610Y116562D01*
X225630Y116539D01*
X225766Y116435D01*
X225897Y116327D01*
X225925Y116312D01*
X225950Y116293D01*
X226245Y116142D01*
X226801Y115911D01*
X226814Y115907D01*
X226825Y115901D01*
X227006Y115849D01*
X227186Y115795D01*
X227199Y115794D01*
X227212Y115790D01*
X227400Y115774D01*
X227587Y115757D01*
X227600Y115758D01*
X227614Y115757D01*
X227801Y115779D01*
X227987Y115798D01*
X228000Y115802D01*
X228013Y115804D01*
X228193Y115862D01*
X228372Y115918D01*
X228383Y115925D01*
X228396Y115929D01*
X228560Y116021D01*
X228725Y116111D01*
X228735Y116120D01*
X228747Y116127D01*
X228889Y116249D01*
X229033Y116370D01*
X229041Y116381D01*
X229052Y116390D01*
X229166Y116537D01*
X229284Y116685D01*
X229290Y116697D01*
X229298Y116708D01*
X229382Y116876D01*
X229468Y117043D01*
X229472Y117056D01*
X229478Y117068D01*
X229527Y117251D01*
X229578Y117431D01*
X229579Y117444D01*
X229582Y117457D01*
X229609Y117788D01*
X229609Y121635D01*
X229782Y122281D01*
X230117Y122860D01*
X230590Y123333D01*
X231169Y123668D01*
X231815Y123841D01*
X234901Y123841D01*
X234901Y117049D01*
X230919Y117049D01*
X230911Y117048D01*
X230902Y117049D01*
X230709Y117028D01*
X230519Y117009D01*
X230510Y117007D01*
X230501Y117006D01*
X230318Y116948D01*
X230134Y116891D01*
X230126Y116887D01*
X230117Y116884D01*
X229950Y116791D01*
X229780Y116699D01*
X229773Y116694D01*
X229765Y116689D01*
X229618Y116565D01*
X229471Y116442D01*
X229465Y116435D01*
X229458Y116429D01*
X229338Y116277D01*
X229218Y116128D01*
X229214Y116120D01*
X229208Y116113D01*
X229121Y115940D01*
X229033Y115771D01*
X229030Y115762D01*
X229026Y115754D01*
X228974Y115569D01*
X228921Y115384D01*
X228921Y115375D01*
X228918Y115366D01*
X228904Y115174D01*
X228888Y114982D01*
X228889Y114974D01*
X228889Y114965D01*
X228913Y114773D01*
X228935Y114583D01*
X228938Y114574D01*
X228939Y114565D01*
X229000Y114383D01*
X229060Y114200D01*
X229065Y114192D01*
X229067Y114184D01*
X229164Y114016D01*
X229258Y113849D01*
X229264Y113842D01*
X229268Y113835D01*
X229483Y113582D01*
X229962Y113103D01*
X230085Y112805D01*
X230096Y112785D01*
X230103Y112764D01*
X230191Y112608D01*
X230276Y112450D01*
X230290Y112433D01*
X230301Y112413D01*
X230418Y112277D01*
X230532Y112139D01*
X230549Y112125D01*
X230564Y112108D01*
X230705Y111999D01*
X230845Y111886D01*
X230864Y111875D01*
X230882Y111862D01*
X231042Y111782D01*
X231201Y111699D01*
X231222Y111692D01*
X231243Y111682D01*
X231416Y111636D01*
X231588Y111586D01*
X231610Y111584D01*
X231631Y111578D01*
X231962Y111551D01*
X234901Y111551D01*
X234901Y105222D01*
X234902Y105204D01*
X234901Y105186D01*
X234922Y105004D01*
X234941Y104821D01*
X234946Y104804D01*
X234948Y104787D01*
X235005Y104612D01*
X235059Y104436D01*
X235067Y104421D01*
X235073Y104404D01*
X235163Y104244D01*
X235250Y104082D01*
X235262Y104069D01*
X235271Y104053D01*
X235391Y103914D01*
X235508Y103773D01*
X235522Y103762D01*
X235534Y103748D01*
X235679Y103636D01*
X235822Y103521D01*
X235838Y103513D01*
X235852Y103502D01*
X236017Y103420D01*
X236179Y103335D01*
X236196Y103330D01*
X236212Y103322D01*
X236276Y103305D01*
X236276Y97874D01*
X231109Y97874D01*
X231109Y99041D01*
X231108Y99050D01*
X231109Y99059D01*
X231089Y99249D01*
X231069Y99441D01*
X231067Y99450D01*
X231066Y99459D01*
X231008Y99641D01*
X230951Y99826D01*
X230947Y99834D01*
X230944Y99843D01*
X230851Y100011D01*
X230759Y100180D01*
X230754Y100187D01*
X230749Y100195D01*
X230624Y100342D01*
X230502Y100489D01*
X230495Y100495D01*
X230489Y100502D01*
X230338Y100622D01*
X230188Y100742D01*
X230180Y100746D01*
X230173Y100752D01*
X230000Y100839D01*
X229831Y100927D01*
X229822Y100930D01*
X229814Y100934D01*
X229628Y100986D01*
X229444Y101039D01*
X229435Y101039D01*
X229426Y101042D01*
X229234Y101056D01*
X229042Y101072D01*
X229034Y101071D01*
X229025Y101071D01*
X228833Y101047D01*
X228643Y101025D01*
X228634Y101022D01*
X228625Y101021D01*
X228443Y100960D01*
X228260Y100900D01*
X228252Y100895D01*
X228244Y100893D01*
X228076Y100796D01*
X227909Y100702D01*
X227902Y100696D01*
X227895Y100692D01*
X227642Y100477D01*
X227403Y100238D01*
X224742Y99136D01*
X224741Y99136D01*
X224060Y98853D01*
X220440Y98853D01*
X218425Y99688D01*
X218408Y99693D01*
X218392Y99701D01*
X218216Y99751D01*
X218040Y99804D01*
X218022Y99806D01*
X218005Y99811D01*
X217822Y99825D01*
X217639Y99843D01*
X217621Y99841D01*
X217604Y99842D01*
X217421Y99820D01*
X217239Y99801D01*
X217222Y99796D01*
X217204Y99793D01*
X217029Y99735D01*
X216854Y99681D01*
X216839Y99672D01*
X216822Y99667D01*
X216661Y99575D01*
X216501Y99488D01*
X216488Y99476D01*
X216472Y99467D01*
X216334Y99347D01*
X216193Y99229D01*
X216182Y99215D01*
X216168Y99203D01*
X216057Y99058D01*
X215942Y98914D01*
X215934Y98898D01*
X215923Y98884D01*
X215808Y98660D01*
X215734Y98585D01*
X215717Y98565D01*
X215696Y98547D01*
X215589Y98409D01*
X215479Y98274D01*
X215466Y98250D01*
X215450Y98229D01*
X215372Y98072D01*
X215290Y97918D01*
X215282Y97893D01*
X215270Y97868D01*
X215225Y97699D01*
X215175Y97532D01*
X215173Y97506D01*
X215166Y97480D01*
X215139Y97149D01*
X215139Y82550D01*
X215141Y82532D01*
X215139Y82514D01*
X215160Y82332D01*
X215179Y82149D01*
X215184Y82132D01*
X215186Y82115D01*
X215243Y81940D01*
X215297Y81764D01*
X215305Y81749D01*
X215311Y81732D01*
X215401Y81572D01*
X215489Y81410D01*
X215500Y81397D01*
X215509Y81381D01*
X215629Y81242D01*
X215746Y81101D01*
X215760Y81090D01*
X215772Y81077D01*
X215917Y80964D01*
X216060Y80849D01*
X216076Y80841D01*
X216090Y80830D01*
X216255Y80748D01*
X216417Y80663D01*
X216434Y80658D01*
X216450Y80650D01*
X216629Y80603D01*
X216804Y80552D01*
X216822Y80550D01*
X216839Y80546D01*
X217170Y80519D01*
X228923Y80519D01*
X228954Y80522D01*
X228985Y80520D01*
X229154Y80542D01*
X229323Y80559D01*
X229353Y80568D01*
X229384Y80572D01*
X229700Y80673D01*
X230243Y80898D01*
X230410Y80919D01*
X230584Y80937D01*
X230610Y80945D01*
X230636Y80948D01*
X230802Y81003D01*
X230969Y81055D01*
X230992Y81068D01*
X231018Y81076D01*
X231169Y81163D01*
X231323Y81247D01*
X231343Y81264D01*
X231367Y81277D01*
X231454Y81351D01*
X233737Y82297D01*
X248552Y82297D01*
X248556Y82297D01*
X248561Y82297D01*
X248756Y82317D01*
X248952Y82337D01*
X248957Y82338D01*
X248961Y82338D01*
X249148Y82397D01*
X249337Y82455D01*
X249341Y82457D01*
X249346Y82458D01*
X249518Y82552D01*
X249691Y82647D01*
X249695Y82649D01*
X249699Y82652D01*
X249851Y82780D01*
X250001Y82904D01*
X250003Y82908D01*
X250007Y82911D01*
X250129Y83064D01*
X250253Y83218D01*
X250255Y83222D01*
X250258Y83226D01*
X250348Y83401D01*
X250438Y83575D01*
X250440Y83580D01*
X250442Y83584D01*
X250496Y83775D01*
X250550Y83962D01*
X250550Y83967D01*
X250551Y83971D01*
X250567Y84166D01*
X250583Y84364D01*
X250582Y84368D01*
X250583Y84372D01*
X250559Y84567D01*
X250536Y84763D01*
X250534Y84768D01*
X250534Y84772D01*
X250472Y84958D01*
X250411Y85146D01*
X250409Y85150D01*
X250407Y85154D01*
X250309Y85326D01*
X250213Y85497D01*
X250210Y85500D01*
X250208Y85504D01*
X250079Y85652D01*
X249950Y85801D01*
X249946Y85804D01*
X249943Y85808D01*
X249788Y85927D01*
X249632Y86048D01*
X249628Y86050D01*
X249624Y86053D01*
X249329Y86205D01*
X248847Y86404D01*
X247906Y87346D01*
X247785Y87444D01*
X247670Y87548D01*
X247630Y87572D01*
X247594Y87601D01*
X247457Y87674D01*
X247324Y87753D01*
X247279Y87768D01*
X247238Y87790D01*
X247090Y87834D01*
X246943Y87885D01*
X246897Y87891D01*
X246852Y87905D01*
X246698Y87919D01*
X246544Y87940D01*
X246498Y87937D01*
X246451Y87941D01*
X246297Y87924D01*
X246143Y87915D01*
X246098Y87903D01*
X246051Y87898D01*
X245903Y87851D01*
X245754Y87811D01*
X245706Y87788D01*
X245667Y87776D01*
X245592Y87734D01*
X245454Y87669D01*
X245131Y87482D01*
X244485Y87309D01*
X241524Y87309D01*
X241524Y94657D01*
X241522Y94675D01*
X241524Y94692D01*
X241503Y94875D01*
X241484Y95057D01*
X241479Y95074D01*
X241477Y95092D01*
X241426Y95248D01*
X241440Y95302D01*
X241491Y95477D01*
X241493Y95495D01*
X241497Y95512D01*
X241524Y95843D01*
X241524Y102728D01*
X241522Y102746D01*
X241524Y102764D01*
X241503Y102946D01*
X241484Y103129D01*
X241479Y103146D01*
X241477Y103163D01*
X241420Y103338D01*
X241366Y103514D01*
X241358Y103529D01*
X241352Y103546D01*
X241262Y103706D01*
X241174Y103868D01*
X241163Y103881D01*
X241154Y103897D01*
X241034Y104036D01*
X240917Y104177D01*
X240903Y104188D01*
X240891Y104202D01*
X240746Y104314D01*
X240603Y104429D01*
X240587Y104437D01*
X240573Y104448D01*
X240408Y104530D01*
X240399Y104535D01*
X240399Y113582D01*
X240397Y113600D01*
X240399Y113617D01*
X240378Y113800D01*
X240359Y113982D01*
X240354Y113999D01*
X240352Y114017D01*
X240295Y114191D01*
X240264Y114292D01*
X240268Y114299D01*
X240315Y114477D01*
X240366Y114652D01*
X240368Y114670D01*
X240372Y114687D01*
X240399Y115018D01*
X240399Y123841D01*
X243485Y123841D01*
X244131Y123668D01*
X244710Y123333D01*
X245306Y122737D01*
X245316Y122729D01*
X245325Y122719D01*
X245472Y122601D01*
X245617Y122482D01*
X245629Y122476D01*
X245640Y122468D01*
X245807Y122382D01*
X245973Y122294D01*
X245986Y122290D01*
X245998Y122284D01*
X246179Y122232D01*
X246359Y122179D01*
X246372Y122178D01*
X246385Y122174D01*
X246572Y122160D01*
X246760Y122142D01*
X246773Y122144D01*
X246787Y122143D01*
X246972Y122165D01*
X247160Y122186D01*
X247173Y122190D01*
X247186Y122192D01*
X247364Y122250D01*
X247544Y122307D01*
X247556Y122314D01*
X247568Y122318D01*
X247732Y122411D01*
X247896Y122502D01*
X247907Y122511D01*
X247918Y122518D01*
X248059Y122641D01*
X248203Y122763D01*
X248212Y122773D01*
X248222Y122782D01*
X248336Y122931D01*
X248453Y123079D01*
X248459Y123090D01*
X248467Y123101D01*
X248619Y123396D01*
X248704Y123603D01*
X249848Y124746D01*
X251341Y125365D01*
X253401Y125365D01*
X253534Y125378D01*
X253668Y125382D01*
X253734Y125398D01*
X253802Y125405D01*
X253929Y125444D01*
X254060Y125474D01*
X254122Y125503D01*
X254187Y125523D01*
X254304Y125586D01*
X254426Y125642D01*
X254481Y125682D01*
X254541Y125715D01*
X254643Y125800D01*
X254752Y125879D01*
X254798Y125929D01*
X254850Y125972D01*
X254934Y126076D01*
X255024Y126175D01*
X255051Y126217D01*
X256802Y127682D01*
X258924Y128347D01*
X259154Y128327D01*
X259262Y128328D01*
X259370Y128319D01*
X259463Y128330D01*
X259556Y128331D01*
X259662Y128353D01*
X259769Y128366D01*
X259858Y128395D01*
X259950Y128415D01*
X260049Y128457D01*
X260152Y128491D01*
X260234Y128537D01*
X260320Y128574D01*
X260409Y128636D01*
X260503Y128689D01*
X260574Y128750D01*
X260651Y128803D01*
X260726Y128881D01*
X260808Y128952D01*
X260865Y129026D01*
X260930Y129094D01*
X260988Y129185D01*
X261054Y129270D01*
X261096Y129354D01*
X261146Y129433D01*
X261185Y129534D01*
X261234Y129631D01*
X261258Y129721D01*
X261292Y129808D01*
X261310Y129915D01*
X261338Y130019D01*
X261347Y130131D01*
X261360Y130205D01*
X261358Y130266D01*
X261365Y130350D01*
X261365Y145034D01*
X261363Y145052D01*
X261365Y145070D01*
X261344Y145252D01*
X261325Y145435D01*
X261320Y145452D01*
X261318Y145469D01*
X261261Y145644D01*
X261207Y145820D01*
X261199Y145835D01*
X261193Y145852D01*
X261103Y146012D01*
X261015Y146174D01*
X261004Y146187D01*
X260995Y146203D01*
X260875Y146342D01*
X260758Y146483D01*
X260744Y146494D01*
X260732Y146508D01*
X260587Y146620D01*
X260444Y146735D01*
X260428Y146743D01*
X260414Y146754D01*
X260249Y146836D01*
X260087Y146921D01*
X260070Y146926D01*
X260054Y146934D01*
X259875Y146981D01*
X259700Y147032D01*
X259682Y147034D01*
X259665Y147038D01*
X259334Y147065D01*
X240239Y147065D01*
X238278Y147877D01*
X236492Y149664D01*
X233100Y153056D01*
X233076Y153075D01*
X233055Y153099D01*
X232920Y153203D01*
X232788Y153311D01*
X232761Y153325D01*
X232736Y153344D01*
X232441Y153496D01*
X232368Y153526D01*
X232058Y153836D01*
X232037Y153853D01*
X232020Y153874D01*
X231882Y153981D01*
X231746Y154091D01*
X231723Y154104D01*
X231702Y154120D01*
X231545Y154198D01*
X231391Y154280D01*
X231365Y154288D01*
X231341Y154300D01*
X231172Y154345D01*
X231005Y154395D01*
X230978Y154397D01*
X230952Y154404D01*
X230631Y154430D01*
X230631Y155698D01*
X230628Y155730D01*
X230630Y155761D01*
X230608Y155930D01*
X230606Y155953D01*
X230606Y173936D01*
X230631Y174246D01*
X230631Y196850D01*
X230629Y196868D01*
X230631Y196886D01*
X230610Y197068D01*
X230591Y197251D01*
X230586Y197268D01*
X230584Y197285D01*
X230527Y197460D01*
X230473Y197636D01*
X230465Y197651D01*
X230459Y197668D01*
X230369Y197828D01*
X230281Y197990D01*
X230270Y198003D01*
X230261Y198019D01*
X230142Y198157D01*
X230024Y198299D01*
X230010Y198310D01*
X229998Y198324D01*
X229853Y198436D01*
X229710Y198551D01*
X229694Y198559D01*
X229680Y198570D01*
X229515Y198652D01*
X229353Y198737D01*
X229336Y198742D01*
X229320Y198750D01*
X229141Y198797D01*
X228966Y198848D01*
X228948Y198850D01*
X228931Y198854D01*
X228600Y198881D01*
X186181Y198881D01*
X186181Y247523D01*
X186179Y247541D01*
X186181Y247559D01*
X186160Y247741D01*
X186141Y247924D01*
X186136Y247941D01*
X186134Y247958D01*
X186077Y248133D01*
X186023Y248309D01*
X186015Y248324D01*
X186009Y248341D01*
X185919Y248501D01*
X185831Y248663D01*
X185820Y248676D01*
X185811Y248692D01*
X185691Y248831D01*
X185574Y248972D01*
X185560Y248983D01*
X185548Y248997D01*
X185403Y249109D01*
X185260Y249224D01*
X185244Y249232D01*
X185230Y249243D01*
X185065Y249325D01*
X184903Y249410D01*
X184886Y249415D01*
X184870Y249423D01*
X184691Y249470D01*
X184516Y249521D01*
X184498Y249523D01*
X184481Y249527D01*
X184150Y249554D01*
X140368Y249554D01*
X140355Y249553D01*
X140341Y249554D01*
X140155Y249533D01*
X139967Y249514D01*
X139955Y249510D01*
X139941Y249509D01*
X139762Y249451D01*
X139583Y249396D01*
X139571Y249390D01*
X139558Y249386D01*
X139393Y249294D01*
X139229Y249204D01*
X139218Y249196D01*
X139207Y249189D01*
X139063Y249067D01*
X138919Y248947D01*
X138911Y248936D01*
X138901Y248928D01*
X138784Y248779D01*
X138667Y248633D01*
X138661Y248621D01*
X138653Y248611D01*
X138568Y248441D01*
X138481Y248276D01*
X138478Y248263D01*
X138472Y248251D01*
X138422Y248068D01*
X138370Y247889D01*
X138369Y247875D01*
X138365Y247862D01*
X138352Y247674D01*
X138337Y247487D01*
X138339Y247474D01*
X138338Y247461D01*
X138362Y247273D01*
X138384Y247088D01*
X138388Y247075D01*
X138390Y247062D01*
X138491Y246746D01*
X139701Y243826D01*
X139701Y238774D01*
X137767Y234106D01*
X134194Y230533D01*
X129526Y228599D01*
X124474Y228599D01*
X119806Y230533D01*
X116233Y234106D01*
X115339Y236265D01*
X115277Y236380D01*
X115223Y236499D01*
X115182Y236557D01*
X115148Y236619D01*
X115065Y236720D01*
X114989Y236827D01*
X114937Y236875D01*
X114892Y236930D01*
X114790Y237012D01*
X114695Y237102D01*
X114634Y237139D01*
X114579Y237184D01*
X114464Y237244D01*
X114352Y237313D01*
X114286Y237338D01*
X114223Y237371D01*
X114097Y237407D01*
X113975Y237453D01*
X113905Y237464D01*
X113836Y237484D01*
X113706Y237495D01*
X113577Y237515D01*
X113506Y237512D01*
X113435Y237518D01*
X113306Y237504D01*
X113175Y237498D01*
X113106Y237481D01*
X113035Y237473D01*
X112911Y237433D01*
X112784Y237402D01*
X112719Y237372D01*
X112652Y237350D01*
X112538Y237286D01*
X112419Y237231D01*
X112362Y237188D01*
X112300Y237154D01*
X112201Y237069D01*
X112096Y236991D01*
X112049Y236938D01*
X111995Y236892D01*
X111914Y236789D01*
X111826Y236692D01*
X111783Y236622D01*
X111746Y236575D01*
X111712Y236507D01*
X111652Y236409D01*
X111159Y235442D01*
X110125Y234019D01*
X108881Y232775D01*
X107458Y231741D01*
X105891Y230942D01*
X104217Y230398D01*
X103822Y230336D01*
X103822Y241109D01*
X103820Y241127D01*
X103821Y241145D01*
X103800Y241327D01*
X103782Y241510D01*
X103777Y241527D01*
X103775Y241545D01*
X103718Y241719D01*
X103664Y241895D01*
X103655Y241911D01*
X103650Y241927D01*
X103559Y242088D01*
X103472Y242249D01*
X103461Y242263D01*
X103452Y242278D01*
X103332Y242417D01*
X103214Y242558D01*
X103200Y242569D01*
X103189Y242583D01*
X103044Y242695D01*
X102900Y242810D01*
X102885Y242819D01*
X102871Y242830D01*
X102706Y242912D01*
X102543Y242996D01*
X102526Y243001D01*
X102510Y243009D01*
X102332Y243057D01*
X102156Y243107D01*
X102138Y243109D01*
X102121Y243113D01*
X101791Y243141D01*
X101409Y243141D01*
X101392Y243139D01*
X101374Y243140D01*
X101192Y243119D01*
X101009Y243101D01*
X100992Y243095D01*
X100974Y243093D01*
X100799Y243036D01*
X100624Y242983D01*
X100608Y242974D01*
X100591Y242968D01*
X100431Y242878D01*
X100270Y242791D01*
X100256Y242779D01*
X100241Y242771D01*
X100101Y242650D01*
X99961Y242533D01*
X99949Y242519D01*
X99936Y242507D01*
X99823Y242362D01*
X99708Y242219D01*
X99700Y242203D01*
X99689Y242189D01*
X99607Y242024D01*
X99523Y241862D01*
X99518Y241845D01*
X99510Y241829D01*
X99462Y241651D01*
X99411Y241475D01*
X99410Y241457D01*
X99405Y241440D01*
X99378Y241109D01*
X99378Y230336D01*
X98983Y230398D01*
X97309Y230942D01*
X95742Y231741D01*
X94319Y232775D01*
X93075Y234019D01*
X92041Y235442D01*
X91548Y236409D01*
X91477Y236520D01*
X91415Y236634D01*
X91369Y236688D01*
X91331Y236748D01*
X91240Y236842D01*
X91155Y236942D01*
X91100Y236987D01*
X91051Y237038D01*
X90943Y237112D01*
X90841Y237193D01*
X90778Y237226D01*
X90719Y237266D01*
X90599Y237318D01*
X90482Y237377D01*
X90414Y237397D01*
X90349Y237425D01*
X90221Y237451D01*
X90095Y237487D01*
X90024Y237492D01*
X89955Y237507D01*
X89824Y237508D01*
X89694Y237518D01*
X89623Y237509D01*
X89552Y237510D01*
X89424Y237485D01*
X89294Y237469D01*
X89227Y237447D01*
X89157Y237434D01*
X89036Y237384D01*
X88912Y237343D01*
X88850Y237308D01*
X88784Y237281D01*
X88676Y237208D01*
X88562Y237143D01*
X88508Y237097D01*
X88449Y237057D01*
X88357Y236965D01*
X88258Y236879D01*
X88215Y236823D01*
X88165Y236772D01*
X88093Y236664D01*
X88013Y236560D01*
X87976Y236487D01*
X87942Y236437D01*
X87914Y236366D01*
X87861Y236265D01*
X86967Y234106D01*
X83394Y230533D01*
X78726Y228599D01*
X73674Y228599D01*
X69006Y230533D01*
X65433Y234106D01*
X63499Y238774D01*
X63499Y243826D01*
X64709Y246746D01*
X64712Y246759D01*
X64719Y246770D01*
X64770Y246950D01*
X64825Y247131D01*
X64826Y247144D01*
X64830Y247157D01*
X64845Y247345D01*
X64863Y247532D01*
X64862Y247545D01*
X64863Y247559D01*
X64841Y247745D01*
X64821Y247932D01*
X64817Y247945D01*
X64816Y247958D01*
X64758Y248137D01*
X64702Y248317D01*
X64695Y248328D01*
X64691Y248341D01*
X64599Y248505D01*
X64508Y248670D01*
X64500Y248680D01*
X64493Y248692D01*
X64371Y248834D01*
X64249Y248978D01*
X64239Y248986D01*
X64230Y248997D01*
X64082Y249111D01*
X63934Y249229D01*
X63922Y249235D01*
X63912Y249243D01*
X63744Y249327D01*
X63576Y249413D01*
X63563Y249417D01*
X63551Y249423D01*
X63369Y249472D01*
X63189Y249523D01*
X63176Y249524D01*
X63163Y249527D01*
X62832Y249554D01*
X39829Y249554D01*
X39756Y249547D01*
X39683Y249549D01*
X39556Y249527D01*
X39429Y249514D01*
X39358Y249493D01*
X39286Y249480D01*
X39167Y249434D01*
X39044Y249396D01*
X38979Y249361D01*
X38911Y249335D01*
X38803Y249266D01*
X38690Y249204D01*
X38633Y249158D01*
X38572Y249118D01*
X38479Y249029D01*
X38380Y248947D01*
X38335Y248890D01*
X38282Y248839D01*
X38208Y248733D01*
X38128Y248633D01*
X38094Y248568D01*
X38053Y248508D01*
X38002Y248390D01*
X37942Y248276D01*
X37922Y248205D01*
X37893Y248138D01*
X37867Y248012D01*
X37831Y247889D01*
X37825Y247816D01*
X37810Y247744D01*
X37809Y247616D01*
X37798Y247487D01*
X37807Y247415D01*
X37806Y247341D01*
X37830Y247215D01*
X37845Y247088D01*
X37868Y247018D01*
X37882Y246946D01*
X37930Y246827D01*
X37970Y246705D01*
X38006Y246641D01*
X38034Y246573D01*
X38105Y246466D01*
X38168Y246354D01*
X38216Y246299D01*
X38256Y246238D01*
X38347Y246147D01*
X38431Y246050D01*
X38489Y246005D01*
X38541Y245953D01*
X38680Y245856D01*
X38749Y245803D01*
X38779Y245788D01*
X38814Y245764D01*
X41032Y244483D01*
X45483Y240032D01*
X48631Y234579D01*
X50261Y228498D01*
X50261Y222202D01*
X48631Y216121D01*
X45483Y210668D01*
X41032Y206217D01*
X35579Y203069D01*
X29498Y201439D01*
X23202Y201439D01*
X17121Y203069D01*
X11668Y206217D01*
X7217Y210668D01*
X5936Y212886D01*
X5893Y212946D01*
X5858Y213010D01*
X5776Y213109D01*
X5701Y213213D01*
X5648Y213263D01*
X5601Y213320D01*
X5501Y213400D01*
X5406Y213488D01*
X5344Y213526D01*
X5287Y213572D01*
X5173Y213631D01*
X5063Y213698D01*
X4995Y213724D01*
X4930Y213757D01*
X4806Y213793D01*
X4686Y213837D01*
X4613Y213849D01*
X4543Y213869D01*
X4414Y213879D01*
X4288Y213899D01*
X4215Y213896D01*
X4141Y213902D01*
X4014Y213887D01*
X3885Y213881D01*
X3814Y213863D01*
X3742Y213855D01*
X3619Y213815D01*
X3495Y213784D01*
X3429Y213753D01*
X3359Y213730D01*
X3247Y213667D01*
X3131Y213612D01*
X3072Y213568D01*
X3008Y213532D01*
X2911Y213448D01*
X2808Y213371D01*
X2759Y213317D01*
X2703Y213269D01*
X2625Y213167D01*
X2539Y213072D01*
X2502Y213009D01*
X2457Y212951D01*
X2399Y212836D01*
X2334Y212725D01*
X2310Y212656D01*
X2277Y212590D01*
X2244Y212466D01*
X2202Y212345D01*
X2192Y212272D01*
X2173Y212202D01*
X2159Y212032D01*
X2147Y211946D01*
X2149Y211913D01*
X2146Y211871D01*
X2146Y184008D01*
X2148Y183990D01*
X2146Y183972D01*
X2167Y183790D01*
X2186Y183607D01*
X2191Y183590D01*
X2193Y183573D01*
X2250Y183398D01*
X2304Y183222D01*
X2312Y183207D01*
X2318Y183190D01*
X2408Y183030D01*
X2496Y182868D01*
X2507Y182855D01*
X2516Y182839D01*
X2636Y182700D01*
X2753Y182559D01*
X2767Y182548D01*
X2779Y182534D01*
X2924Y182422D01*
X3067Y182307D01*
X3083Y182299D01*
X3097Y182288D01*
X3262Y182206D01*
X3424Y182121D01*
X3441Y182116D01*
X3457Y182108D01*
X3636Y182061D01*
X3811Y182010D01*
X3829Y182008D01*
X3846Y182004D01*
X4177Y181977D01*
X7799Y181977D01*
X14290Y179288D01*
X15350Y178228D01*
X15364Y178217D01*
X15375Y178203D01*
X15519Y178090D01*
X15661Y177973D01*
X15677Y177965D01*
X15691Y177954D01*
X15855Y177871D01*
X16017Y177785D01*
X16034Y177780D01*
X16050Y177771D01*
X16227Y177722D01*
X16403Y177670D01*
X16421Y177668D01*
X16438Y177663D01*
X16621Y177650D01*
X16804Y177633D01*
X16822Y177635D01*
X16839Y177634D01*
X17021Y177657D01*
X17204Y177677D01*
X17221Y177682D01*
X17239Y177684D01*
X17413Y177743D01*
X17588Y177798D01*
X17604Y177807D01*
X17620Y177813D01*
X17779Y177904D01*
X17940Y177993D01*
X17954Y178005D01*
X17969Y178014D01*
X18222Y178228D01*
X19282Y179288D01*
X25773Y181977D01*
X32799Y181977D01*
X39290Y179288D01*
X44258Y174320D01*
X46947Y167829D01*
X46947Y160803D01*
X44258Y154312D01*
X39290Y149344D01*
X32799Y146655D01*
X25773Y146655D01*
X19282Y149344D01*
X18222Y150404D01*
X18209Y150415D01*
X18197Y150429D01*
X18052Y150543D01*
X17911Y150659D01*
X17895Y150667D01*
X17881Y150678D01*
X17717Y150762D01*
X17555Y150847D01*
X17538Y150852D01*
X17522Y150861D01*
X17345Y150910D01*
X17169Y150962D01*
X17151Y150964D01*
X17134Y150969D01*
X16951Y150982D01*
X16768Y150999D01*
X16750Y150997D01*
X16733Y150998D01*
X16551Y150975D01*
X16368Y150955D01*
X16351Y150950D01*
X16333Y150948D01*
X16160Y150889D01*
X15984Y150834D01*
X15968Y150825D01*
X15952Y150819D01*
X15793Y150728D01*
X15632Y150639D01*
X15618Y150627D01*
X15603Y150618D01*
X15350Y150404D01*
X14290Y149344D01*
X7799Y146655D01*
X4177Y146655D01*
X4159Y146653D01*
X4141Y146655D01*
X3959Y146634D01*
X3776Y146615D01*
X3759Y146610D01*
X3742Y146608D01*
X3567Y146551D01*
X3391Y146497D01*
X3376Y146489D01*
X3359Y146483D01*
X3199Y146393D01*
X3037Y146305D01*
X3024Y146294D01*
X3008Y146285D01*
X2869Y146165D01*
X2728Y146048D01*
X2717Y146034D01*
X2703Y146022D01*
X2591Y145877D01*
X2476Y145734D01*
X2468Y145718D01*
X2457Y145704D01*
X2375Y145539D01*
X2290Y145377D01*
X2285Y145360D01*
X2277Y145344D01*
X2230Y145165D01*
X2179Y144990D01*
X2177Y144972D01*
X2173Y144955D01*
X2146Y144624D01*
X2146Y84008D01*
X2148Y83990D01*
X2146Y83972D01*
X2167Y83790D01*
X2186Y83607D01*
X2191Y83590D01*
X2193Y83573D01*
X2250Y83398D01*
X2304Y83222D01*
X2312Y83207D01*
X2318Y83190D01*
X2408Y83030D01*
X2496Y82868D01*
X2507Y82855D01*
X2516Y82839D01*
X2636Y82700D01*
X2753Y82559D01*
X2767Y82548D01*
X2779Y82534D01*
X2924Y82422D01*
X3067Y82307D01*
X3083Y82299D01*
X3097Y82288D01*
X3262Y82206D01*
X3424Y82121D01*
X3441Y82116D01*
X3457Y82108D01*
X3636Y82061D01*
X3811Y82010D01*
X3829Y82008D01*
X3846Y82004D01*
X4177Y81977D01*
X7799Y81977D01*
X14290Y79288D01*
X15350Y78228D01*
X15364Y78217D01*
X15375Y78203D01*
X15519Y78090D01*
X15661Y77973D01*
X15677Y77965D01*
X15691Y77954D01*
X15855Y77871D01*
X16017Y77785D01*
X16034Y77780D01*
X16050Y77771D01*
X16227Y77722D01*
X16403Y77670D01*
X16421Y77668D01*
X16438Y77663D01*
X16621Y77650D01*
X16804Y77633D01*
X16822Y77635D01*
X16839Y77634D01*
X17021Y77657D01*
X17204Y77677D01*
X17221Y77682D01*
X17239Y77684D01*
X17413Y77743D01*
X17588Y77798D01*
X17604Y77807D01*
X17620Y77813D01*
X17779Y77904D01*
X17940Y77993D01*
X17954Y78005D01*
X17969Y78014D01*
X18222Y78228D01*
X19282Y79288D01*
X25773Y81977D01*
X32799Y81977D01*
X39290Y79288D01*
X44258Y74320D01*
X46947Y67829D01*
X46947Y60803D01*
X44258Y54312D01*
X39290Y49344D01*
X32799Y46655D01*
X25773Y46655D01*
X19282Y49344D01*
X18222Y50404D01*
X18209Y50415D01*
X18197Y50429D01*
X18052Y50543D01*
X17911Y50659D01*
X17895Y50667D01*
X17881Y50678D01*
X17717Y50762D01*
X17555Y50847D01*
X17538Y50852D01*
X17522Y50861D01*
X17345Y50910D01*
X17169Y50962D01*
X17151Y50964D01*
X17134Y50969D01*
X16951Y50982D01*
X16768Y50999D01*
X16750Y50997D01*
X16733Y50998D01*
X16551Y50975D01*
X16368Y50955D01*
X16351Y50950D01*
X16333Y50948D01*
X16160Y50889D01*
X15984Y50834D01*
X15968Y50825D01*
X15952Y50819D01*
X15793Y50728D01*
X15632Y50639D01*
X15618Y50627D01*
X15603Y50618D01*
X15350Y50404D01*
X14290Y49344D01*
X7799Y46655D01*
X4177Y46655D01*
X4159Y46653D01*
X4141Y46655D01*
X3959Y46634D01*
X3776Y46615D01*
X3759Y46610D01*
X3742Y46608D01*
X3567Y46551D01*
X3391Y46497D01*
X3376Y46489D01*
X3359Y46483D01*
X3199Y46393D01*
X3037Y46305D01*
X3024Y46294D01*
X3008Y46285D01*
X2869Y46165D01*
X2728Y46048D01*
X2717Y46034D01*
X2703Y46022D01*
X2591Y45877D01*
X2476Y45734D01*
X2468Y45718D01*
X2457Y45704D01*
X2375Y45539D01*
X2290Y45377D01*
X2285Y45360D01*
X2277Y45344D01*
X2230Y45165D01*
X2179Y44990D01*
X2177Y44972D01*
X2173Y44955D01*
X2146Y44624D01*
X2146Y44450D01*
X2148Y44432D01*
X2146Y44414D01*
X2167Y44232D01*
X2186Y44049D01*
X2191Y44032D01*
X2193Y44015D01*
X2250Y43840D01*
X2304Y43664D01*
X2312Y43649D01*
X2318Y43632D01*
X2408Y43472D01*
X2496Y43310D01*
X2507Y43297D01*
X2516Y43281D01*
X2636Y43142D01*
X2753Y43001D01*
X2767Y42990D01*
X2779Y42977D01*
X2924Y42864D01*
X3067Y42749D01*
X3083Y42741D01*
X3097Y42730D01*
X3262Y42648D01*
X3424Y42563D01*
X3441Y42558D01*
X3457Y42550D01*
X3636Y42503D01*
X3811Y42452D01*
X3829Y42450D01*
X3846Y42446D01*
X4177Y42419D01*
X133854Y42419D01*
X133979Y42431D01*
G37*
G36*
X575629Y16058D02*
X575629Y16058D01*
X575638Y16058D01*
X575831Y16080D01*
X576029Y16101D01*
X576034Y16102D01*
X576039Y16103D01*
X576223Y16162D01*
X576413Y16223D01*
X576417Y16225D01*
X576422Y16226D01*
X576591Y16321D01*
X576766Y16417D01*
X576769Y16420D01*
X576773Y16423D01*
X576922Y16550D01*
X577073Y16678D01*
X577076Y16682D01*
X577079Y16685D01*
X577201Y16840D01*
X577322Y16994D01*
X577324Y16998D01*
X577327Y17002D01*
X577415Y17176D01*
X577505Y17353D01*
X577506Y17357D01*
X577508Y17361D01*
X577560Y17550D01*
X577613Y17741D01*
X577613Y17745D01*
X577614Y17750D01*
X577627Y17943D01*
X577642Y18142D01*
X577641Y18147D01*
X577642Y18151D01*
X577616Y18348D01*
X577592Y18542D01*
X577590Y18546D01*
X577589Y18551D01*
X577526Y18737D01*
X577463Y18923D01*
X577461Y18927D01*
X577459Y18932D01*
X577362Y19099D01*
X577262Y19272D01*
X577259Y19276D01*
X577257Y19280D01*
X577235Y19304D01*
X577048Y19525D01*
X576507Y20066D01*
X574457Y25014D01*
X574457Y30370D01*
X576507Y35318D01*
X580294Y39105D01*
X585053Y41076D01*
X585242Y41155D01*
X590598Y41155D01*
X595546Y39105D01*
X599333Y35318D01*
X599677Y34487D01*
X599759Y34335D01*
X599836Y34181D01*
X599854Y34158D01*
X599867Y34132D01*
X599977Y33999D01*
X600084Y33863D01*
X600106Y33844D01*
X600124Y33822D01*
X600258Y33713D01*
X600389Y33601D01*
X600414Y33586D01*
X600437Y33568D01*
X600589Y33488D01*
X600740Y33403D01*
X600768Y33395D01*
X600793Y33381D01*
X600959Y33333D01*
X601123Y33279D01*
X601152Y33276D01*
X601179Y33268D01*
X601352Y33253D01*
X601523Y33234D01*
X601552Y33236D01*
X601581Y33233D01*
X601752Y33253D01*
X601924Y33267D01*
X601952Y33275D01*
X601981Y33279D01*
X602145Y33331D01*
X602311Y33380D01*
X602336Y33393D01*
X602364Y33402D01*
X602514Y33486D01*
X602668Y33566D01*
X602690Y33584D01*
X602715Y33598D01*
X602846Y33710D01*
X602981Y33819D01*
X603002Y33843D01*
X603021Y33860D01*
X603074Y33927D01*
X603197Y34071D01*
X604214Y35470D01*
X605542Y36798D01*
X607063Y37903D01*
X608737Y38756D01*
X610524Y39337D01*
X610781Y39377D01*
X610781Y28200D01*
X610782Y28182D01*
X610781Y28165D01*
X610802Y27982D01*
X610821Y27800D01*
X610826Y27783D01*
X610828Y27765D01*
X610885Y27590D01*
X610939Y27415D01*
X610947Y27399D01*
X610953Y27382D01*
X611043Y27222D01*
X611130Y27061D01*
X611142Y27047D01*
X611151Y27031D01*
X611271Y26892D01*
X611388Y26751D01*
X611402Y26740D01*
X611414Y26727D01*
X611559Y26614D01*
X611702Y26499D01*
X611718Y26491D01*
X611732Y26480D01*
X611897Y26398D01*
X611973Y26358D01*
X612059Y26206D01*
X612147Y26044D01*
X612158Y26031D01*
X612167Y26015D01*
X612287Y25876D01*
X612405Y25735D01*
X612418Y25724D01*
X612430Y25710D01*
X612575Y25598D01*
X612718Y25483D01*
X612734Y25475D01*
X612748Y25464D01*
X612913Y25382D01*
X613076Y25297D01*
X613093Y25292D01*
X613109Y25284D01*
X613287Y25236D01*
X613462Y25186D01*
X613480Y25184D01*
X613497Y25180D01*
X613828Y25153D01*
X625005Y25153D01*
X624965Y24896D01*
X624384Y23109D01*
X623531Y21435D01*
X622437Y19929D01*
X622404Y19873D01*
X622364Y19822D01*
X622303Y19700D01*
X622234Y19581D01*
X622213Y19520D01*
X622184Y19462D01*
X622148Y19331D01*
X622103Y19201D01*
X622095Y19136D01*
X622077Y19074D01*
X622068Y18937D01*
X622050Y18802D01*
X622054Y18737D01*
X622050Y18672D01*
X622068Y18537D01*
X622077Y18400D01*
X622094Y18337D01*
X622102Y18273D01*
X622146Y18144D01*
X622182Y18011D01*
X622211Y17953D01*
X622232Y17892D01*
X622301Y17774D01*
X622362Y17651D01*
X622402Y17600D01*
X622435Y17544D01*
X622526Y17442D01*
X622610Y17334D01*
X622659Y17291D01*
X622702Y17243D01*
X622811Y17161D01*
X622915Y17071D01*
X622972Y17039D01*
X623023Y17001D01*
X623147Y16941D01*
X623266Y16874D01*
X623328Y16854D01*
X623386Y16826D01*
X623519Y16792D01*
X623649Y16750D01*
X623714Y16743D01*
X623776Y16727D01*
X623965Y16714D01*
X624049Y16704D01*
X624075Y16706D01*
X624107Y16704D01*
X628550Y16763D01*
X628554Y16764D01*
X628559Y16763D01*
X628753Y16786D01*
X628950Y16808D01*
X628954Y16810D01*
X628958Y16810D01*
X629146Y16872D01*
X629333Y16932D01*
X629337Y16934D01*
X629341Y16935D01*
X629513Y17032D01*
X629685Y17128D01*
X629688Y17131D01*
X629692Y17133D01*
X629841Y17261D01*
X629991Y17390D01*
X629993Y17393D01*
X629997Y17396D01*
X630117Y17551D01*
X630239Y17707D01*
X630241Y17711D01*
X630243Y17714D01*
X630331Y17891D01*
X630420Y18067D01*
X630421Y18071D01*
X630423Y18075D01*
X630475Y18268D01*
X630526Y18455D01*
X630526Y18459D01*
X630527Y18464D01*
X630554Y18794D01*
X630554Y211871D01*
X630547Y211944D01*
X630549Y212017D01*
X630527Y212144D01*
X630514Y212271D01*
X630493Y212342D01*
X630480Y212414D01*
X630434Y212533D01*
X630396Y212656D01*
X630361Y212721D01*
X630335Y212789D01*
X630266Y212898D01*
X630204Y213010D01*
X630158Y213067D01*
X630118Y213128D01*
X630029Y213221D01*
X629947Y213320D01*
X629890Y213366D01*
X629839Y213418D01*
X629733Y213491D01*
X629633Y213572D01*
X629568Y213606D01*
X629508Y213647D01*
X629390Y213698D01*
X629276Y213757D01*
X629205Y213778D01*
X629138Y213807D01*
X629012Y213833D01*
X628889Y213869D01*
X628816Y213875D01*
X628744Y213890D01*
X628616Y213891D01*
X628487Y213902D01*
X628415Y213893D01*
X628341Y213894D01*
X628215Y213870D01*
X628088Y213855D01*
X628018Y213832D01*
X627946Y213818D01*
X627827Y213770D01*
X627705Y213730D01*
X627641Y213694D01*
X627573Y213666D01*
X627466Y213595D01*
X627354Y213532D01*
X627299Y213484D01*
X627238Y213444D01*
X627147Y213353D01*
X627050Y213269D01*
X627005Y213211D01*
X626953Y213159D01*
X626856Y213019D01*
X626803Y212951D01*
X626788Y212921D01*
X626764Y212886D01*
X625483Y210668D01*
X621032Y206217D01*
X615579Y203069D01*
X609498Y201439D01*
X603202Y201439D01*
X597121Y203069D01*
X591668Y206217D01*
X587217Y210668D01*
X584069Y216121D01*
X582439Y222202D01*
X582439Y228498D01*
X584069Y234579D01*
X587217Y240032D01*
X591668Y244483D01*
X593886Y245764D01*
X593946Y245807D01*
X594010Y245842D01*
X594109Y245924D01*
X594213Y245999D01*
X594263Y246052D01*
X594320Y246099D01*
X594400Y246199D01*
X594488Y246294D01*
X594526Y246356D01*
X594572Y246413D01*
X594631Y246527D01*
X594698Y246637D01*
X594724Y246705D01*
X594757Y246770D01*
X594793Y246894D01*
X594837Y247014D01*
X594849Y247087D01*
X594869Y247157D01*
X594879Y247286D01*
X594899Y247412D01*
X594896Y247485D01*
X594902Y247559D01*
X594887Y247686D01*
X594881Y247815D01*
X594863Y247886D01*
X594855Y247958D01*
X594815Y248081D01*
X594784Y248205D01*
X594753Y248271D01*
X594730Y248341D01*
X594667Y248453D01*
X594612Y248569D01*
X594568Y248628D01*
X594532Y248692D01*
X594448Y248789D01*
X594371Y248892D01*
X594317Y248941D01*
X594269Y248997D01*
X594167Y249075D01*
X594072Y249161D01*
X594009Y249198D01*
X593951Y249243D01*
X593836Y249301D01*
X593725Y249366D01*
X593656Y249390D01*
X593590Y249423D01*
X593466Y249456D01*
X593345Y249498D01*
X593272Y249508D01*
X593202Y249527D01*
X593032Y249541D01*
X592946Y249553D01*
X592913Y249551D01*
X592871Y249554D01*
X531244Y249554D01*
X531235Y249553D01*
X531226Y249554D01*
X531034Y249533D01*
X530843Y249514D01*
X530835Y249512D01*
X530826Y249511D01*
X530644Y249453D01*
X530459Y249396D01*
X530451Y249392D01*
X530442Y249389D01*
X530274Y249296D01*
X530104Y249204D01*
X530098Y249199D01*
X530090Y249194D01*
X529942Y249069D01*
X529795Y248947D01*
X529790Y248940D01*
X529783Y248934D01*
X529663Y248782D01*
X529543Y248633D01*
X529539Y248625D01*
X529533Y248618D01*
X529446Y248446D01*
X529357Y248276D01*
X529355Y248267D01*
X529351Y248259D01*
X529299Y248073D01*
X529246Y247889D01*
X529245Y247880D01*
X529243Y247871D01*
X529229Y247679D01*
X529213Y247487D01*
X529214Y247479D01*
X529213Y247470D01*
X529238Y247277D01*
X529260Y247088D01*
X529263Y247079D01*
X529264Y247070D01*
X529325Y246887D01*
X529385Y246705D01*
X529389Y246697D01*
X529392Y246689D01*
X529487Y246523D01*
X529583Y246354D01*
X529589Y246347D01*
X529593Y246340D01*
X529808Y246087D01*
X531858Y244036D01*
X556973Y218922D01*
X557785Y216961D01*
X557785Y82749D01*
X557789Y82702D01*
X557788Y82639D01*
X557838Y81718D01*
X557812Y81622D01*
X557810Y81595D01*
X557805Y81575D01*
X557803Y81533D01*
X557455Y80693D01*
X557441Y80647D01*
X557416Y80590D01*
X557109Y79719D01*
X557048Y79640D01*
X557036Y79617D01*
X557024Y79600D01*
X557006Y79562D01*
X556363Y78919D01*
X556356Y78911D01*
X556349Y78905D01*
X556325Y78874D01*
X556287Y78839D01*
X538344Y58839D01*
X538245Y58703D01*
X538141Y58571D01*
X538126Y58541D01*
X538107Y58514D01*
X538036Y58362D01*
X537960Y58211D01*
X537951Y58179D01*
X537937Y58149D01*
X537898Y57986D01*
X537854Y57823D01*
X537851Y57786D01*
X537844Y57757D01*
X537841Y57671D01*
X537825Y57493D01*
X537649Y21203D01*
X537651Y21176D01*
X537649Y21149D01*
X537670Y20976D01*
X537687Y20802D01*
X537695Y20776D01*
X537698Y20749D01*
X537753Y20584D01*
X537803Y20417D01*
X537816Y20393D01*
X537824Y20367D01*
X537911Y20215D01*
X537993Y20062D01*
X538010Y20041D01*
X538024Y20017D01*
X538138Y19886D01*
X538249Y19751D01*
X538270Y19734D01*
X538288Y19714D01*
X538426Y19607D01*
X538562Y19497D01*
X538586Y19485D01*
X538607Y19468D01*
X538903Y19317D01*
X539588Y19033D01*
X541426Y17195D01*
X541436Y17186D01*
X541445Y17176D01*
X541592Y17059D01*
X541737Y16940D01*
X541749Y16933D01*
X541760Y16925D01*
X541927Y16839D01*
X542093Y16751D01*
X542106Y16747D01*
X542118Y16741D01*
X542298Y16690D01*
X542479Y16636D01*
X542492Y16635D01*
X542505Y16632D01*
X542691Y16617D01*
X542880Y16600D01*
X542894Y16601D01*
X542907Y16600D01*
X543091Y16623D01*
X543280Y16643D01*
X543293Y16647D01*
X543306Y16649D01*
X543484Y16708D01*
X543664Y16765D01*
X543676Y16771D01*
X543689Y16776D01*
X543853Y16869D01*
X544016Y16960D01*
X544027Y16968D01*
X544038Y16975D01*
X544181Y17099D01*
X544323Y17220D01*
X544332Y17231D01*
X544342Y17239D01*
X544456Y17388D01*
X544573Y17536D01*
X544579Y17548D01*
X544587Y17559D01*
X544739Y17854D01*
X545314Y19242D01*
X546458Y20386D01*
X547951Y21005D01*
X567349Y21005D01*
X568842Y20386D01*
X569986Y19242D01*
X570644Y17653D01*
X570645Y17649D01*
X570654Y17619D01*
X570658Y17587D01*
X570713Y17426D01*
X570763Y17264D01*
X570778Y17236D01*
X570788Y17206D01*
X570873Y17059D01*
X570955Y16910D01*
X570975Y16885D01*
X570990Y16858D01*
X571104Y16731D01*
X571212Y16600D01*
X571237Y16581D01*
X571258Y16557D01*
X571394Y16454D01*
X571526Y16348D01*
X571554Y16334D01*
X571579Y16315D01*
X571733Y16241D01*
X571883Y16162D01*
X571914Y16154D01*
X571942Y16140D01*
X572107Y16098D01*
X572270Y16051D01*
X572302Y16049D01*
X572332Y16041D01*
X572663Y16018D01*
X575629Y16058D01*
G37*
G36*
X341786Y14514D02*
X341786Y14514D01*
X341803Y14513D01*
X341985Y14536D01*
X342168Y14556D01*
X342185Y14561D01*
X342203Y14563D01*
X342376Y14622D01*
X342552Y14677D01*
X342568Y14686D01*
X342584Y14691D01*
X342744Y14783D01*
X342904Y14872D01*
X342918Y14883D01*
X342933Y14892D01*
X343186Y15107D01*
X347112Y19033D01*
X349568Y20050D01*
X349584Y20058D01*
X349601Y20064D01*
X349762Y20154D01*
X349923Y20240D01*
X349937Y20252D01*
X349952Y20260D01*
X350092Y20380D01*
X350233Y20497D01*
X350245Y20510D01*
X350258Y20522D01*
X350372Y20667D01*
X350487Y20809D01*
X350495Y20825D01*
X350506Y20839D01*
X350589Y21004D01*
X350674Y21166D01*
X350679Y21183D01*
X350687Y21199D01*
X350736Y21376D01*
X350787Y21552D01*
X350789Y21570D01*
X350794Y21587D01*
X350806Y21771D01*
X350822Y21953D01*
X350820Y21971D01*
X350821Y21989D01*
X350797Y22172D01*
X350777Y22353D01*
X350771Y22370D01*
X350769Y22388D01*
X350668Y22704D01*
X350011Y24288D01*
X350011Y26504D01*
X350009Y26522D01*
X350011Y26540D01*
X349990Y26722D01*
X349971Y26905D01*
X349966Y26922D01*
X349964Y26939D01*
X349907Y27114D01*
X349853Y27290D01*
X349845Y27305D01*
X349839Y27322D01*
X349749Y27482D01*
X349661Y27644D01*
X349650Y27657D01*
X349641Y27673D01*
X349521Y27812D01*
X349404Y27953D01*
X349390Y27964D01*
X349378Y27978D01*
X349233Y28090D01*
X349090Y28205D01*
X349074Y28213D01*
X349060Y28224D01*
X348895Y28306D01*
X348733Y28391D01*
X348716Y28396D01*
X348700Y28404D01*
X348521Y28451D01*
X348346Y28502D01*
X348328Y28504D01*
X348311Y28508D01*
X347980Y28535D01*
X347641Y28535D01*
X346148Y29154D01*
X345004Y30298D01*
X344385Y31791D01*
X344385Y44409D01*
X345004Y45902D01*
X346148Y47046D01*
X347641Y47665D01*
X351330Y47665D01*
X351348Y47667D01*
X351366Y47665D01*
X351548Y47686D01*
X351731Y47705D01*
X351748Y47710D01*
X351765Y47712D01*
X351940Y47769D01*
X352116Y47823D01*
X352131Y47831D01*
X352148Y47837D01*
X352308Y47927D01*
X352470Y48015D01*
X352483Y48026D01*
X352499Y48035D01*
X352638Y48155D01*
X352779Y48272D01*
X352790Y48286D01*
X352804Y48298D01*
X352916Y48443D01*
X353031Y48586D01*
X353039Y48602D01*
X353050Y48616D01*
X353132Y48781D01*
X353217Y48943D01*
X353222Y48960D01*
X353230Y48976D01*
X353277Y49154D01*
X353328Y49330D01*
X353330Y49348D01*
X353334Y49365D01*
X353361Y49696D01*
X353361Y51816D01*
X353359Y51834D01*
X353361Y51852D01*
X353340Y52034D01*
X353321Y52217D01*
X353316Y52234D01*
X353314Y52251D01*
X353257Y52426D01*
X353203Y52602D01*
X353195Y52617D01*
X353189Y52634D01*
X353099Y52794D01*
X353011Y52956D01*
X353000Y52969D01*
X352991Y52985D01*
X352871Y53124D01*
X352754Y53265D01*
X352740Y53276D01*
X352728Y53290D01*
X352583Y53402D01*
X352440Y53517D01*
X352424Y53525D01*
X352410Y53536D01*
X352245Y53618D01*
X352083Y53703D01*
X352066Y53708D01*
X352050Y53716D01*
X351871Y53763D01*
X351696Y53814D01*
X351678Y53816D01*
X351661Y53820D01*
X351330Y53847D01*
X346356Y53847D01*
X346325Y53844D01*
X346294Y53846D01*
X346125Y53824D01*
X345956Y53807D01*
X345926Y53798D01*
X345895Y53794D01*
X345579Y53693D01*
X344113Y53085D01*
X341687Y53085D01*
X339446Y54013D01*
X337731Y55728D01*
X336803Y57969D01*
X336803Y61722D01*
X336801Y61740D01*
X336803Y61758D01*
X336782Y61940D01*
X336763Y62123D01*
X336758Y62140D01*
X336756Y62157D01*
X336699Y62332D01*
X336645Y62508D01*
X336637Y62523D01*
X336631Y62540D01*
X336541Y62700D01*
X336453Y62862D01*
X336442Y62875D01*
X336433Y62891D01*
X336313Y63030D01*
X336196Y63171D01*
X336182Y63182D01*
X336170Y63196D01*
X336026Y63308D01*
X335882Y63423D01*
X335866Y63431D01*
X335852Y63442D01*
X335687Y63524D01*
X335525Y63609D01*
X335508Y63614D01*
X335492Y63622D01*
X335313Y63669D01*
X335138Y63720D01*
X335120Y63722D01*
X335103Y63726D01*
X334772Y63753D01*
X323372Y63753D01*
X323354Y63751D01*
X323336Y63753D01*
X323154Y63732D01*
X322971Y63713D01*
X322954Y63708D01*
X322937Y63706D01*
X322762Y63649D01*
X322586Y63595D01*
X322571Y63587D01*
X322554Y63581D01*
X322394Y63491D01*
X322232Y63403D01*
X322219Y63392D01*
X322203Y63383D01*
X322064Y63263D01*
X321923Y63146D01*
X321912Y63132D01*
X321898Y63120D01*
X321786Y62975D01*
X321671Y62832D01*
X321663Y62816D01*
X321652Y62802D01*
X321570Y62637D01*
X321485Y62475D01*
X321480Y62458D01*
X321472Y62442D01*
X321425Y62263D01*
X321374Y62088D01*
X321372Y62070D01*
X321368Y62053D01*
X321341Y61722D01*
X321341Y59774D01*
X314143Y59774D01*
X314125Y59772D01*
X314108Y59774D01*
X313925Y59753D01*
X313743Y59734D01*
X313726Y59729D01*
X313708Y59727D01*
X313533Y59670D01*
X313358Y59616D01*
X313342Y59608D01*
X313325Y59602D01*
X313165Y59512D01*
X313004Y59424D01*
X312990Y59413D01*
X312974Y59404D01*
X312835Y59284D01*
X312694Y59167D01*
X312683Y59153D01*
X312670Y59141D01*
X312557Y58996D01*
X312442Y58853D01*
X312434Y58837D01*
X312423Y58823D01*
X312341Y58658D01*
X312257Y58496D01*
X312252Y58479D01*
X312244Y58463D01*
X312241Y58451D01*
X312171Y58430D01*
X312156Y58422D01*
X312139Y58416D01*
X311979Y58326D01*
X311817Y58238D01*
X311804Y58227D01*
X311788Y58218D01*
X311649Y58098D01*
X311508Y57980D01*
X311497Y57967D01*
X311483Y57955D01*
X311371Y57810D01*
X311256Y57667D01*
X311248Y57651D01*
X311237Y57637D01*
X311155Y57472D01*
X311070Y57309D01*
X311065Y57292D01*
X311057Y57276D01*
X311009Y57098D01*
X310959Y56923D01*
X310957Y56905D01*
X310953Y56888D01*
X310926Y56557D01*
X310926Y49209D01*
X307965Y49209D01*
X307319Y49382D01*
X306996Y49569D01*
X306855Y49633D01*
X306717Y49703D01*
X306672Y49715D01*
X306630Y49735D01*
X306478Y49769D01*
X306329Y49811D01*
X306282Y49814D01*
X306237Y49825D01*
X306082Y49829D01*
X305927Y49840D01*
X305881Y49834D01*
X305835Y49836D01*
X305682Y49809D01*
X305528Y49790D01*
X305484Y49775D01*
X305438Y49767D01*
X305293Y49711D01*
X305146Y49662D01*
X305106Y49638D01*
X305063Y49622D01*
X304932Y49538D01*
X304797Y49461D01*
X304757Y49427D01*
X304723Y49405D01*
X304661Y49345D01*
X304544Y49246D01*
X303602Y48304D01*
X302109Y47685D01*
X290499Y47685D01*
X290473Y47683D01*
X290446Y47685D01*
X290272Y47663D01*
X290099Y47645D01*
X290073Y47638D01*
X290047Y47634D01*
X289881Y47579D01*
X289714Y47527D01*
X289690Y47514D01*
X289665Y47506D01*
X289513Y47419D01*
X289360Y47335D01*
X289339Y47318D01*
X289316Y47305D01*
X289063Y47090D01*
X287601Y45628D01*
X284258Y44243D01*
X280639Y44243D01*
X279049Y44902D01*
X279036Y44905D01*
X279025Y44912D01*
X278845Y44963D01*
X278664Y45018D01*
X278651Y45019D01*
X278638Y45023D01*
X278450Y45038D01*
X278263Y45056D01*
X278250Y45055D01*
X278236Y45056D01*
X278050Y45034D01*
X277863Y45015D01*
X277850Y45010D01*
X277837Y45009D01*
X277658Y44951D01*
X277478Y44895D01*
X277467Y44888D01*
X277454Y44884D01*
X277290Y44792D01*
X277125Y44701D01*
X277115Y44693D01*
X277103Y44686D01*
X276961Y44564D01*
X276817Y44442D01*
X276809Y44432D01*
X276798Y44423D01*
X276684Y44275D01*
X276566Y44127D01*
X276560Y44115D01*
X276552Y44105D01*
X276468Y43937D01*
X276382Y43769D01*
X276378Y43756D01*
X276372Y43744D01*
X276323Y43562D01*
X276320Y43549D01*
X267418Y43549D01*
X267400Y43547D01*
X267383Y43549D01*
X267200Y43528D01*
X267018Y43509D01*
X267001Y43504D01*
X266983Y43502D01*
X266808Y43445D01*
X266708Y43414D01*
X266701Y43418D01*
X266523Y43465D01*
X266348Y43516D01*
X266330Y43518D01*
X266313Y43522D01*
X265982Y43549D01*
X257159Y43549D01*
X257159Y46635D01*
X257332Y47281D01*
X257667Y47860D01*
X258263Y48456D01*
X258271Y48466D01*
X258281Y48475D01*
X258398Y48621D01*
X258518Y48767D01*
X258524Y48779D01*
X258532Y48790D01*
X258618Y48956D01*
X258706Y49123D01*
X258710Y49136D01*
X258716Y49148D01*
X258768Y49329D01*
X258821Y49509D01*
X258822Y49522D01*
X258826Y49535D01*
X258840Y49722D01*
X258858Y49910D01*
X258856Y49923D01*
X258857Y49937D01*
X258835Y50121D01*
X258814Y50310D01*
X258810Y50323D01*
X258808Y50336D01*
X258750Y50514D01*
X258693Y50694D01*
X258686Y50706D01*
X258682Y50718D01*
X258589Y50880D01*
X258498Y51046D01*
X258489Y51057D01*
X258482Y51068D01*
X258359Y51209D01*
X258237Y51353D01*
X258227Y51362D01*
X258218Y51372D01*
X258069Y51486D01*
X257921Y51603D01*
X257910Y51609D01*
X257899Y51617D01*
X257604Y51769D01*
X257397Y51854D01*
X256254Y52998D01*
X255635Y54491D01*
X255635Y67109D01*
X255712Y67295D01*
X255716Y67308D01*
X255722Y67319D01*
X255774Y67500D01*
X255829Y67680D01*
X255830Y67693D01*
X255834Y67706D01*
X255849Y67895D01*
X255867Y68081D01*
X255866Y68094D01*
X255867Y68108D01*
X255845Y68294D01*
X255825Y68481D01*
X255821Y68494D01*
X255820Y68507D01*
X255762Y68686D01*
X255706Y68866D01*
X255699Y68877D01*
X255695Y68890D01*
X255603Y69054D01*
X255512Y69219D01*
X255504Y69229D01*
X255497Y69241D01*
X255374Y69383D01*
X255253Y69527D01*
X255243Y69535D01*
X255234Y69546D01*
X255086Y69660D01*
X254938Y69778D01*
X254926Y69784D01*
X254916Y69792D01*
X254747Y69876D01*
X254580Y69962D01*
X254567Y69966D01*
X254555Y69972D01*
X254373Y70021D01*
X254193Y70072D01*
X254179Y70073D01*
X254166Y70076D01*
X253836Y70103D01*
X240430Y70103D01*
X240408Y70101D01*
X240385Y70103D01*
X240208Y70081D01*
X240029Y70063D01*
X240008Y70057D01*
X239986Y70054D01*
X239816Y69998D01*
X239644Y69945D01*
X239625Y69935D01*
X239604Y69928D01*
X239448Y69839D01*
X239290Y69753D01*
X239273Y69739D01*
X239254Y69728D01*
X239118Y69610D01*
X238981Y69496D01*
X238967Y69478D01*
X238950Y69464D01*
X238840Y69321D01*
X238729Y69182D01*
X238718Y69162D01*
X238705Y69144D01*
X238553Y68849D01*
X238452Y68605D01*
X236245Y66398D01*
X233361Y65203D01*
X230239Y65203D01*
X227355Y66398D01*
X225148Y68605D01*
X224310Y70627D01*
X224300Y70647D01*
X224293Y70668D01*
X224204Y70825D01*
X224120Y70982D01*
X224106Y70999D01*
X224095Y71019D01*
X223978Y71154D01*
X223864Y71293D01*
X223846Y71307D01*
X223832Y71324D01*
X223690Y71433D01*
X223551Y71546D01*
X223531Y71557D01*
X223514Y71570D01*
X223353Y71650D01*
X223195Y71733D01*
X223173Y71740D01*
X223153Y71750D01*
X222979Y71796D01*
X222808Y71846D01*
X222786Y71848D01*
X222764Y71854D01*
X222434Y71881D01*
X209550Y71881D01*
X209525Y71879D01*
X209499Y71881D01*
X209324Y71859D01*
X209149Y71841D01*
X209125Y71834D01*
X209100Y71831D01*
X208933Y71775D01*
X208764Y71723D01*
X208742Y71711D01*
X208718Y71703D01*
X208565Y71615D01*
X208410Y71531D01*
X208391Y71515D01*
X208369Y71502D01*
X208236Y71386D01*
X208101Y71274D01*
X208085Y71254D01*
X208066Y71237D01*
X207860Y70977D01*
X176651Y24163D01*
X176646Y24154D01*
X176639Y24146D01*
X176552Y23977D01*
X176462Y23807D01*
X176459Y23798D01*
X176454Y23789D01*
X176401Y23605D01*
X176346Y23421D01*
X176345Y23411D01*
X176343Y23402D01*
X176327Y23211D01*
X176309Y23021D01*
X176311Y23011D01*
X176310Y23000D01*
X176332Y22811D01*
X176352Y22620D01*
X176355Y22610D01*
X176357Y22601D01*
X176416Y22419D01*
X176473Y22236D01*
X176478Y22227D01*
X176481Y22218D01*
X176577Y22049D01*
X176668Y21884D01*
X176674Y21876D01*
X176679Y21867D01*
X176804Y21722D01*
X176928Y21576D01*
X176936Y21570D01*
X176943Y21562D01*
X177092Y21446D01*
X177244Y21326D01*
X177253Y21322D01*
X177261Y21316D01*
X177432Y21231D01*
X177602Y21144D01*
X177612Y21141D01*
X177621Y21136D01*
X177807Y21086D01*
X177990Y21035D01*
X178000Y21034D01*
X178010Y21032D01*
X178341Y21005D01*
X179227Y21005D01*
X183988Y19033D01*
X187914Y15107D01*
X187928Y15096D01*
X187939Y15082D01*
X188083Y14969D01*
X188225Y14852D01*
X188241Y14844D01*
X188255Y14833D01*
X188419Y14749D01*
X188581Y14663D01*
X188598Y14658D01*
X188614Y14650D01*
X188791Y14601D01*
X188967Y14549D01*
X188985Y14547D01*
X189002Y14542D01*
X189185Y14529D01*
X189368Y14512D01*
X189386Y14514D01*
X189403Y14513D01*
X189585Y14536D01*
X189768Y14556D01*
X189785Y14561D01*
X189803Y14563D01*
X189977Y14622D01*
X190152Y14677D01*
X190168Y14686D01*
X190184Y14691D01*
X190344Y14783D01*
X190504Y14872D01*
X190518Y14883D01*
X190533Y14892D01*
X190786Y15107D01*
X194712Y19033D01*
X198892Y20764D01*
X199473Y21005D01*
X204627Y21005D01*
X209388Y19033D01*
X213314Y15107D01*
X213328Y15096D01*
X213339Y15082D01*
X213483Y14969D01*
X213625Y14852D01*
X213641Y14844D01*
X213655Y14833D01*
X213819Y14749D01*
X213981Y14663D01*
X213998Y14658D01*
X214014Y14650D01*
X214191Y14601D01*
X214367Y14549D01*
X214385Y14547D01*
X214402Y14542D01*
X214585Y14529D01*
X214768Y14512D01*
X214786Y14514D01*
X214803Y14513D01*
X214985Y14536D01*
X215168Y14556D01*
X215185Y14561D01*
X215203Y14563D01*
X215377Y14622D01*
X215552Y14677D01*
X215568Y14686D01*
X215584Y14691D01*
X215744Y14783D01*
X215904Y14872D01*
X215918Y14883D01*
X215933Y14892D01*
X216186Y15107D01*
X220112Y19033D01*
X224292Y20764D01*
X224873Y21005D01*
X230027Y21005D01*
X234788Y19033D01*
X238714Y15107D01*
X238728Y15096D01*
X238739Y15082D01*
X238883Y14969D01*
X239025Y14852D01*
X239041Y14844D01*
X239055Y14833D01*
X239219Y14749D01*
X239381Y14663D01*
X239398Y14658D01*
X239414Y14650D01*
X239591Y14601D01*
X239767Y14549D01*
X239785Y14547D01*
X239802Y14542D01*
X239985Y14529D01*
X240168Y14512D01*
X240186Y14514D01*
X240203Y14513D01*
X240385Y14536D01*
X240568Y14556D01*
X240585Y14561D01*
X240603Y14563D01*
X240777Y14622D01*
X240952Y14677D01*
X240968Y14686D01*
X240984Y14691D01*
X241144Y14783D01*
X241304Y14872D01*
X241318Y14883D01*
X241333Y14892D01*
X241586Y15107D01*
X245512Y19033D01*
X249692Y20764D01*
X250273Y21005D01*
X255427Y21005D01*
X260188Y19033D01*
X264114Y15107D01*
X264128Y15096D01*
X264139Y15082D01*
X264283Y14969D01*
X264425Y14852D01*
X264441Y14844D01*
X264455Y14833D01*
X264619Y14749D01*
X264781Y14663D01*
X264798Y14658D01*
X264814Y14650D01*
X264991Y14601D01*
X265167Y14549D01*
X265185Y14547D01*
X265202Y14542D01*
X265385Y14529D01*
X265568Y14512D01*
X265586Y14514D01*
X265603Y14513D01*
X265785Y14536D01*
X265968Y14556D01*
X265985Y14561D01*
X266003Y14563D01*
X266177Y14622D01*
X266352Y14677D01*
X266368Y14686D01*
X266384Y14691D01*
X266544Y14783D01*
X266704Y14872D01*
X266718Y14883D01*
X266733Y14892D01*
X266986Y15107D01*
X270912Y19033D01*
X275092Y20764D01*
X275673Y21005D01*
X280827Y21005D01*
X285588Y19033D01*
X289514Y15107D01*
X289528Y15096D01*
X289539Y15082D01*
X289683Y14969D01*
X289825Y14852D01*
X289841Y14844D01*
X289855Y14833D01*
X290019Y14749D01*
X290181Y14663D01*
X290198Y14658D01*
X290214Y14650D01*
X290391Y14601D01*
X290567Y14549D01*
X290585Y14547D01*
X290602Y14542D01*
X290785Y14529D01*
X290968Y14512D01*
X290986Y14514D01*
X291003Y14513D01*
X291185Y14536D01*
X291368Y14556D01*
X291385Y14561D01*
X291403Y14563D01*
X291577Y14622D01*
X291752Y14677D01*
X291768Y14686D01*
X291784Y14691D01*
X291944Y14783D01*
X292104Y14872D01*
X292118Y14883D01*
X292133Y14892D01*
X292386Y15107D01*
X296312Y19033D01*
X300492Y20764D01*
X301073Y21005D01*
X306227Y21005D01*
X310988Y19033D01*
X314914Y15107D01*
X314928Y15096D01*
X314939Y15082D01*
X315083Y14969D01*
X315225Y14852D01*
X315241Y14844D01*
X315255Y14833D01*
X315419Y14749D01*
X315581Y14663D01*
X315598Y14658D01*
X315614Y14650D01*
X315791Y14601D01*
X315967Y14549D01*
X315985Y14547D01*
X316002Y14542D01*
X316185Y14529D01*
X316368Y14512D01*
X316386Y14514D01*
X316403Y14513D01*
X316585Y14536D01*
X316768Y14556D01*
X316785Y14561D01*
X316803Y14563D01*
X316977Y14622D01*
X317152Y14677D01*
X317168Y14686D01*
X317184Y14691D01*
X317344Y14783D01*
X317504Y14872D01*
X317518Y14883D01*
X317533Y14892D01*
X317786Y15107D01*
X321712Y19033D01*
X325892Y20764D01*
X326473Y21005D01*
X331627Y21005D01*
X336388Y19033D01*
X340314Y15107D01*
X340327Y15096D01*
X340339Y15082D01*
X340483Y14968D01*
X340625Y14852D01*
X340641Y14844D01*
X340655Y14833D01*
X340819Y14749D01*
X340981Y14663D01*
X340998Y14658D01*
X341014Y14650D01*
X341191Y14601D01*
X341367Y14549D01*
X341385Y14547D01*
X341402Y14542D01*
X341585Y14529D01*
X341768Y14512D01*
X341786Y14514D01*
G37*
G36*
X444490Y44699D02*
X444490Y44699D01*
X444499Y44699D01*
X444688Y44723D01*
X444881Y44747D01*
X444889Y44750D01*
X444898Y44751D01*
X445214Y44852D01*
X445471Y44959D01*
X455673Y44959D01*
X455699Y44961D01*
X455726Y44959D01*
X455900Y44981D01*
X456074Y44999D01*
X456099Y45006D01*
X456126Y45010D01*
X456291Y45065D01*
X456458Y45117D01*
X456482Y45130D01*
X456507Y45138D01*
X456659Y45225D01*
X456812Y45309D01*
X456833Y45326D01*
X456856Y45339D01*
X457109Y45554D01*
X463547Y51992D01*
X463553Y51999D01*
X463560Y52004D01*
X463680Y52154D01*
X463802Y52303D01*
X463807Y52311D01*
X463812Y52318D01*
X463901Y52488D01*
X463991Y52659D01*
X463994Y52668D01*
X463998Y52675D01*
X464050Y52859D01*
X464106Y53045D01*
X464107Y53054D01*
X464109Y53062D01*
X464125Y53254D01*
X464142Y53446D01*
X464141Y53455D01*
X464142Y53464D01*
X464120Y53653D01*
X464099Y53846D01*
X464096Y53855D01*
X464095Y53863D01*
X464036Y54045D01*
X463977Y54230D01*
X463973Y54238D01*
X463970Y54246D01*
X463875Y54415D01*
X463782Y54582D01*
X463777Y54589D01*
X463772Y54597D01*
X463646Y54743D01*
X463522Y54889D01*
X463515Y54895D01*
X463509Y54902D01*
X463358Y55019D01*
X463206Y55139D01*
X463198Y55143D01*
X463191Y55148D01*
X463019Y55234D01*
X462847Y55321D01*
X462838Y55324D01*
X462830Y55328D01*
X462644Y55378D01*
X462459Y55429D01*
X462450Y55430D01*
X462442Y55432D01*
X462111Y55459D01*
X461849Y55459D01*
X461849Y61001D01*
X466891Y61001D01*
X466891Y60239D01*
X466892Y60230D01*
X466891Y60221D01*
X466912Y60028D01*
X466931Y59838D01*
X466933Y59830D01*
X466934Y59821D01*
X466993Y59636D01*
X467049Y59454D01*
X467053Y59446D01*
X467056Y59437D01*
X467149Y59269D01*
X467241Y59099D01*
X467246Y59093D01*
X467251Y59085D01*
X467375Y58938D01*
X467498Y58790D01*
X467505Y58785D01*
X467511Y58778D01*
X467663Y58658D01*
X467812Y58538D01*
X467820Y58534D01*
X467827Y58528D01*
X468000Y58440D01*
X468169Y58352D01*
X468178Y58350D01*
X468186Y58346D01*
X468372Y58294D01*
X468556Y58241D01*
X468565Y58240D01*
X468574Y58238D01*
X468767Y58224D01*
X468958Y58208D01*
X468966Y58209D01*
X468975Y58208D01*
X469168Y58233D01*
X469357Y58255D01*
X469366Y58258D01*
X469375Y58259D01*
X469557Y58320D01*
X469740Y58380D01*
X469748Y58384D01*
X469756Y58387D01*
X469923Y58483D01*
X470091Y58578D01*
X470098Y58584D01*
X470105Y58588D01*
X470358Y58803D01*
X472468Y60912D01*
X472470Y60915D01*
X472473Y60918D01*
X502330Y91015D01*
X502344Y91033D01*
X502362Y91048D01*
X502471Y91189D01*
X502584Y91328D01*
X502595Y91348D01*
X502608Y91366D01*
X502688Y91525D01*
X502771Y91684D01*
X502777Y91706D01*
X502788Y91726D01*
X502834Y91899D01*
X502884Y92071D01*
X502886Y92093D01*
X502892Y92115D01*
X502919Y92446D01*
X502919Y177543D01*
X502917Y177569D01*
X502919Y177596D01*
X502897Y177770D01*
X502879Y177944D01*
X502872Y177969D01*
X502868Y177996D01*
X502813Y178161D01*
X502761Y178328D01*
X502748Y178352D01*
X502740Y178377D01*
X502653Y178529D01*
X502569Y178682D01*
X502552Y178703D01*
X502539Y178726D01*
X502324Y178979D01*
X497241Y184062D01*
X497220Y184079D01*
X497203Y184100D01*
X497065Y184207D01*
X496930Y184317D01*
X496906Y184330D01*
X496885Y184346D01*
X496728Y184424D01*
X496574Y184506D01*
X496548Y184514D01*
X496524Y184526D01*
X496355Y184571D01*
X496188Y184621D01*
X496161Y184623D01*
X496136Y184630D01*
X495805Y184657D01*
X460896Y184657D01*
X460882Y184656D01*
X460869Y184657D01*
X460683Y184636D01*
X460495Y184617D01*
X460482Y184613D01*
X460469Y184612D01*
X460291Y184555D01*
X460110Y184499D01*
X460098Y184493D01*
X460086Y184489D01*
X459922Y184397D01*
X459756Y184307D01*
X459746Y184299D01*
X459734Y184292D01*
X459591Y184170D01*
X459447Y184050D01*
X459439Y184039D01*
X459428Y184031D01*
X459312Y183882D01*
X459195Y183736D01*
X459189Y183724D01*
X459180Y183714D01*
X459095Y183544D01*
X459009Y183379D01*
X459006Y183366D01*
X458999Y183354D01*
X458950Y183171D01*
X458898Y182992D01*
X458897Y182978D01*
X458893Y182965D01*
X458880Y182777D01*
X458865Y182590D01*
X458866Y182577D01*
X458866Y182564D01*
X458890Y182376D01*
X458912Y182191D01*
X458916Y182178D01*
X458918Y182165D01*
X459019Y181849D01*
X459947Y179609D01*
X459947Y175990D01*
X458562Y172647D01*
X456386Y170472D01*
X456367Y170448D01*
X456343Y170427D01*
X456239Y170292D01*
X456131Y170160D01*
X456117Y170133D01*
X456098Y170108D01*
X455946Y169813D01*
X455373Y168428D01*
X441172Y154227D01*
X439211Y153415D01*
X409271Y153415D01*
X409245Y153413D01*
X409218Y153415D01*
X409044Y153393D01*
X408871Y153375D01*
X408845Y153368D01*
X408819Y153364D01*
X408653Y153308D01*
X408486Y153257D01*
X408462Y153245D01*
X408437Y153236D01*
X408285Y153149D01*
X408132Y153065D01*
X408111Y153048D01*
X408088Y153035D01*
X407835Y152820D01*
X405958Y150943D01*
X405946Y150929D01*
X405932Y150917D01*
X405818Y150773D01*
X405702Y150631D01*
X405694Y150615D01*
X405683Y150601D01*
X405599Y150437D01*
X405514Y150276D01*
X405509Y150258D01*
X405501Y150242D01*
X405451Y150065D01*
X405399Y149890D01*
X405397Y149872D01*
X405393Y149854D01*
X405379Y149672D01*
X405363Y149489D01*
X405365Y149471D01*
X405363Y149453D01*
X405386Y149272D01*
X405406Y149088D01*
X405411Y149071D01*
X405414Y149053D01*
X405472Y148879D01*
X405528Y148705D01*
X405536Y148689D01*
X405542Y148672D01*
X405633Y148513D01*
X405722Y148352D01*
X405734Y148338D01*
X405743Y148323D01*
X405958Y148070D01*
X405973Y148055D01*
X406347Y147407D01*
X406541Y146684D01*
X406541Y145392D01*
X406239Y145392D01*
X406221Y145390D01*
X406203Y145391D01*
X406021Y145370D01*
X405838Y145352D01*
X405821Y145346D01*
X405804Y145344D01*
X405629Y145287D01*
X405453Y145234D01*
X405438Y145225D01*
X405421Y145220D01*
X405261Y145129D01*
X405099Y145042D01*
X405086Y145030D01*
X405070Y145022D01*
X404931Y144901D01*
X404790Y144784D01*
X404779Y144770D01*
X404765Y144758D01*
X404653Y144613D01*
X404538Y144470D01*
X404530Y144454D01*
X404519Y144440D01*
X404437Y144275D01*
X404352Y144113D01*
X404347Y144096D01*
X404339Y144080D01*
X404292Y143902D01*
X404241Y143726D01*
X404239Y143708D01*
X404235Y143691D01*
X404208Y143360D01*
X404209Y143342D01*
X404208Y143325D01*
X404229Y143142D01*
X404248Y142959D01*
X404253Y142942D01*
X404255Y142925D01*
X404312Y142750D01*
X404366Y142575D01*
X404374Y142559D01*
X404380Y142542D01*
X404470Y142382D01*
X404558Y142220D01*
X404569Y142207D01*
X404578Y142191D01*
X404698Y142052D01*
X404815Y141911D01*
X404829Y141900D01*
X404841Y141887D01*
X404986Y141774D01*
X405129Y141659D01*
X405145Y141651D01*
X405159Y141640D01*
X405324Y141558D01*
X405486Y141473D01*
X405503Y141468D01*
X405519Y141460D01*
X405698Y141413D01*
X405873Y141362D01*
X405891Y141361D01*
X405908Y141356D01*
X406239Y141329D01*
X406643Y141329D01*
X406645Y141322D01*
X406699Y141147D01*
X406707Y141131D01*
X406713Y141114D01*
X406803Y140954D01*
X406890Y140793D01*
X406902Y140779D01*
X406911Y140763D01*
X407031Y140624D01*
X407148Y140483D01*
X407162Y140472D01*
X407174Y140459D01*
X407319Y140346D01*
X407462Y140231D01*
X407478Y140223D01*
X407492Y140212D01*
X407657Y140130D01*
X407819Y140046D01*
X407836Y140041D01*
X407852Y140033D01*
X407969Y140001D01*
X407969Y139726D01*
X407970Y139708D01*
X407969Y139691D01*
X407990Y139508D01*
X408008Y139326D01*
X408014Y139309D01*
X408016Y139291D01*
X408073Y139116D01*
X408127Y138941D01*
X408135Y138925D01*
X408141Y138908D01*
X408231Y138748D01*
X408318Y138587D01*
X408330Y138573D01*
X408339Y138557D01*
X408459Y138418D01*
X408576Y138277D01*
X408590Y138266D01*
X408602Y138253D01*
X408747Y138140D01*
X408890Y138025D01*
X408906Y138017D01*
X408920Y138006D01*
X409085Y137924D01*
X409247Y137840D01*
X409264Y137835D01*
X409280Y137827D01*
X409458Y137779D01*
X409634Y137728D01*
X409652Y137727D01*
X409669Y137722D01*
X410000Y137695D01*
X410018Y137697D01*
X410035Y137695D01*
X410036Y137695D01*
X410218Y137717D01*
X410401Y137735D01*
X410418Y137740D01*
X410436Y137742D01*
X410610Y137799D01*
X410786Y137853D01*
X410801Y137861D01*
X410818Y137867D01*
X410979Y137957D01*
X411140Y138045D01*
X411153Y138056D01*
X411169Y138065D01*
X411308Y138185D01*
X411449Y138303D01*
X411460Y138316D01*
X411474Y138328D01*
X411586Y138473D01*
X411701Y138616D01*
X411710Y138632D01*
X411720Y138646D01*
X411802Y138811D01*
X411887Y138974D01*
X411892Y138991D01*
X411900Y139007D01*
X411948Y139185D01*
X411998Y139360D01*
X412000Y139378D01*
X412004Y139395D01*
X412031Y139726D01*
X412031Y139901D01*
X413324Y139901D01*
X414046Y139707D01*
X414694Y139333D01*
X415223Y138804D01*
X415351Y138584D01*
X415404Y138510D01*
X415448Y138430D01*
X415521Y138347D01*
X415585Y138257D01*
X415652Y138195D01*
X415712Y138126D01*
X415799Y138058D01*
X415880Y137982D01*
X415958Y137935D01*
X416030Y137879D01*
X416129Y137830D01*
X416223Y137772D01*
X416309Y137740D01*
X416390Y137700D01*
X416497Y137671D01*
X416601Y137633D01*
X416691Y137619D01*
X416779Y137595D01*
X416916Y137584D01*
X416999Y137571D01*
X417047Y137573D01*
X417110Y137568D01*
X430754Y137568D01*
X430772Y137570D01*
X430790Y137568D01*
X430972Y137590D01*
X431155Y137608D01*
X431172Y137613D01*
X431189Y137615D01*
X431364Y137672D01*
X431540Y137726D01*
X431555Y137734D01*
X431572Y137740D01*
X431732Y137830D01*
X431894Y137918D01*
X431907Y137929D01*
X431923Y137938D01*
X432062Y138058D01*
X432203Y138176D01*
X432214Y138189D01*
X432228Y138201D01*
X432340Y138346D01*
X432455Y138489D01*
X432463Y138505D01*
X432474Y138519D01*
X432556Y138684D01*
X432641Y138847D01*
X432646Y138864D01*
X432654Y138880D01*
X432701Y139058D01*
X432752Y139233D01*
X432754Y139251D01*
X432758Y139268D01*
X432785Y139599D01*
X432785Y145909D01*
X433404Y147402D01*
X434548Y148546D01*
X436041Y149165D01*
X448159Y149165D01*
X449652Y148546D01*
X450594Y147604D01*
X450715Y147506D01*
X450830Y147402D01*
X450870Y147378D01*
X450906Y147349D01*
X451043Y147276D01*
X451176Y147197D01*
X451221Y147182D01*
X451262Y147160D01*
X451410Y147116D01*
X451557Y147065D01*
X451603Y147059D01*
X451648Y147045D01*
X451802Y147031D01*
X451956Y147010D01*
X452002Y147013D01*
X452049Y147009D01*
X452203Y147026D01*
X452357Y147035D01*
X452402Y147047D01*
X452449Y147052D01*
X452597Y147099D01*
X452746Y147139D01*
X452794Y147162D01*
X452833Y147174D01*
X452908Y147216D01*
X453046Y147281D01*
X453369Y147468D01*
X454015Y147641D01*
X456976Y147641D01*
X456976Y140293D01*
X456977Y140275D01*
X456976Y140258D01*
X456997Y140075D01*
X457016Y139893D01*
X457021Y139876D01*
X457023Y139858D01*
X457074Y139702D01*
X457059Y139648D01*
X457009Y139473D01*
X457007Y139455D01*
X457003Y139438D01*
X456976Y139107D01*
X456976Y121243D01*
X456977Y121225D01*
X456976Y121208D01*
X456997Y121025D01*
X457016Y120843D01*
X457021Y120826D01*
X457023Y120808D01*
X457074Y120652D01*
X457059Y120598D01*
X457009Y120423D01*
X457007Y120405D01*
X457003Y120388D01*
X456976Y120057D01*
X456976Y113172D01*
X456977Y113154D01*
X456976Y113136D01*
X456997Y112954D01*
X457016Y112771D01*
X457021Y112754D01*
X457023Y112737D01*
X457080Y112562D01*
X457134Y112386D01*
X457142Y112371D01*
X457148Y112354D01*
X457238Y112194D01*
X457325Y112032D01*
X457337Y112019D01*
X457346Y112003D01*
X457466Y111864D01*
X457583Y111723D01*
X457597Y111712D01*
X457609Y111698D01*
X457754Y111586D01*
X457897Y111471D01*
X457913Y111463D01*
X457927Y111452D01*
X458092Y111370D01*
X458101Y111365D01*
X458101Y102318D01*
X458102Y102300D01*
X458101Y102283D01*
X458122Y102100D01*
X458141Y101918D01*
X458146Y101901D01*
X458148Y101883D01*
X458205Y101708D01*
X458236Y101608D01*
X458232Y101601D01*
X458184Y101423D01*
X458134Y101248D01*
X458132Y101230D01*
X458128Y101213D01*
X458101Y100882D01*
X458101Y91837D01*
X458028Y91796D01*
X457867Y91710D01*
X457854Y91698D01*
X457838Y91689D01*
X457699Y91569D01*
X457558Y91452D01*
X457547Y91438D01*
X457533Y91426D01*
X457421Y91281D01*
X457306Y91138D01*
X457298Y91122D01*
X457287Y91108D01*
X457205Y90944D01*
X457120Y90781D01*
X457115Y90764D01*
X457107Y90748D01*
X457059Y90569D01*
X457009Y90394D01*
X457007Y90376D01*
X457003Y90359D01*
X456976Y90028D01*
X456976Y83143D01*
X456977Y83125D01*
X456976Y83108D01*
X456997Y82925D01*
X457016Y82743D01*
X457021Y82726D01*
X457023Y82708D01*
X457074Y82552D01*
X457059Y82498D01*
X457009Y82323D01*
X457007Y82305D01*
X457003Y82288D01*
X456976Y81957D01*
X456976Y73273D01*
X456934Y73119D01*
X456884Y72944D01*
X456882Y72926D01*
X456878Y72909D01*
X456851Y72578D01*
X456851Y63968D01*
X456852Y63950D01*
X456851Y63933D01*
X456872Y63750D01*
X456891Y63568D01*
X456896Y63551D01*
X456898Y63533D01*
X456911Y63492D01*
X456884Y63398D01*
X456882Y63380D01*
X456878Y63363D01*
X456851Y63032D01*
X456851Y55459D01*
X454015Y55459D01*
X453369Y55632D01*
X453046Y55819D01*
X452905Y55883D01*
X452767Y55953D01*
X452722Y55965D01*
X452680Y55985D01*
X452528Y56019D01*
X452379Y56061D01*
X452332Y56064D01*
X452287Y56075D01*
X452132Y56079D01*
X451977Y56090D01*
X451931Y56084D01*
X451885Y56086D01*
X451732Y56059D01*
X451578Y56040D01*
X451534Y56025D01*
X451488Y56017D01*
X451343Y55961D01*
X451196Y55912D01*
X451156Y55888D01*
X451113Y55872D01*
X450982Y55788D01*
X450847Y55711D01*
X450807Y55677D01*
X450773Y55655D01*
X450711Y55595D01*
X450594Y55496D01*
X449652Y54554D01*
X448159Y53935D01*
X445516Y53935D01*
X445498Y53933D01*
X445480Y53935D01*
X445298Y53914D01*
X445115Y53895D01*
X445098Y53890D01*
X445081Y53888D01*
X444906Y53831D01*
X444730Y53777D01*
X444715Y53769D01*
X444698Y53763D01*
X444538Y53673D01*
X444376Y53585D01*
X444363Y53574D01*
X444347Y53565D01*
X444208Y53445D01*
X444067Y53328D01*
X444056Y53314D01*
X444042Y53302D01*
X443930Y53157D01*
X443815Y53014D01*
X443807Y52998D01*
X443796Y52984D01*
X443714Y52819D01*
X443629Y52657D01*
X443624Y52640D01*
X443616Y52624D01*
X443569Y52445D01*
X443518Y52270D01*
X443516Y52252D01*
X443512Y52235D01*
X443485Y51904D01*
X443485Y49739D01*
X442560Y47506D01*
X442557Y47498D01*
X442553Y47490D01*
X442499Y47304D01*
X442443Y47121D01*
X442443Y47112D01*
X442440Y47103D01*
X442424Y46913D01*
X442405Y46720D01*
X442406Y46711D01*
X442406Y46702D01*
X442427Y46512D01*
X442447Y46320D01*
X442450Y46311D01*
X442451Y46302D01*
X442509Y46120D01*
X442567Y45935D01*
X442571Y45927D01*
X442574Y45919D01*
X442667Y45752D01*
X442760Y45582D01*
X442766Y45575D01*
X442770Y45567D01*
X442894Y45422D01*
X443019Y45274D01*
X443026Y45268D01*
X443032Y45262D01*
X443183Y45143D01*
X443334Y45023D01*
X443342Y45019D01*
X443349Y45013D01*
X443522Y44927D01*
X443692Y44839D01*
X443701Y44837D01*
X443709Y44833D01*
X443895Y44782D01*
X444080Y44729D01*
X444088Y44729D01*
X444097Y44726D01*
X444289Y44713D01*
X444481Y44698D01*
X444490Y44699D01*
G37*
G36*
X110073Y70591D02*
X110073Y70591D01*
X110174Y70601D01*
X110276Y70602D01*
X110374Y70622D01*
X110473Y70633D01*
X110570Y70663D01*
X110670Y70684D01*
X110762Y70723D01*
X110857Y70753D01*
X110947Y70802D01*
X111040Y70842D01*
X111123Y70898D01*
X111210Y70946D01*
X111288Y71012D01*
X111372Y71070D01*
X111458Y71155D01*
X111518Y71206D01*
X111553Y71250D01*
X111607Y71304D01*
X128499Y91108D01*
X128584Y91229D01*
X128674Y91346D01*
X128698Y91395D01*
X128729Y91439D01*
X128788Y91574D01*
X128854Y91707D01*
X128868Y91759D01*
X128889Y91808D01*
X128920Y91953D01*
X128958Y92096D01*
X128963Y92157D01*
X128973Y92202D01*
X128974Y92287D01*
X128985Y92426D01*
X128985Y97809D01*
X129604Y99302D01*
X130748Y100446D01*
X132241Y101065D01*
X137109Y101065D01*
X137118Y101066D01*
X137127Y101065D01*
X137320Y101086D01*
X137510Y101105D01*
X137518Y101107D01*
X137527Y101108D01*
X137712Y101167D01*
X137895Y101223D01*
X137903Y101227D01*
X137911Y101230D01*
X138080Y101323D01*
X138249Y101415D01*
X138256Y101420D01*
X138264Y101425D01*
X138411Y101549D01*
X138558Y101672D01*
X138564Y101679D01*
X138571Y101685D01*
X138690Y101837D01*
X138810Y101986D01*
X138815Y101994D01*
X138820Y102001D01*
X138908Y102174D01*
X138996Y102343D01*
X138998Y102352D01*
X139003Y102360D01*
X139054Y102546D01*
X139107Y102730D01*
X139108Y102739D01*
X139111Y102748D01*
X139125Y102941D01*
X139140Y103132D01*
X139139Y103140D01*
X139140Y103149D01*
X139116Y103342D01*
X139093Y103531D01*
X139091Y103540D01*
X139089Y103549D01*
X139028Y103731D01*
X138969Y103914D01*
X138964Y103922D01*
X138961Y103930D01*
X138865Y104097D01*
X138771Y104265D01*
X138765Y104272D01*
X138760Y104279D01*
X138546Y104532D01*
X137088Y105990D01*
X137067Y106007D01*
X137049Y106028D01*
X136911Y106135D01*
X136776Y106245D01*
X136752Y106258D01*
X136731Y106274D01*
X136574Y106352D01*
X136420Y106434D01*
X136395Y106442D01*
X136371Y106454D01*
X136201Y106499D01*
X136034Y106549D01*
X136008Y106551D01*
X135982Y106558D01*
X135651Y106585D01*
X122741Y106585D01*
X121248Y107204D01*
X120104Y108348D01*
X119485Y109841D01*
X119485Y131459D01*
X120104Y132952D01*
X121248Y134096D01*
X122581Y134648D01*
X122589Y134653D01*
X122598Y134655D01*
X122766Y134747D01*
X122936Y134839D01*
X122943Y134844D01*
X122951Y134849D01*
X123097Y134972D01*
X123247Y135095D01*
X123252Y135102D01*
X123259Y135108D01*
X123379Y135258D01*
X123500Y135408D01*
X123504Y135416D01*
X123510Y135422D01*
X123598Y135593D01*
X123687Y135764D01*
X123690Y135773D01*
X123694Y135781D01*
X123746Y135965D01*
X123800Y136150D01*
X123801Y136159D01*
X123804Y136168D01*
X123818Y136359D01*
X123835Y136552D01*
X123834Y136561D01*
X123835Y136569D01*
X123811Y136760D01*
X123790Y136952D01*
X123787Y136960D01*
X123786Y136969D01*
X123725Y137152D01*
X123667Y137335D01*
X123662Y137343D01*
X123660Y137351D01*
X123564Y137519D01*
X123470Y137686D01*
X123465Y137693D01*
X123460Y137701D01*
X123334Y137846D01*
X123209Y137992D01*
X123201Y137998D01*
X123196Y138005D01*
X123042Y138122D01*
X122892Y138241D01*
X122884Y138245D01*
X122876Y138250D01*
X122581Y138402D01*
X121248Y138954D01*
X120104Y140098D01*
X119485Y141591D01*
X119485Y156509D01*
X119484Y156522D01*
X119485Y156536D01*
X119464Y156722D01*
X119445Y156910D01*
X119441Y156923D01*
X119440Y156936D01*
X119383Y157114D01*
X119327Y157295D01*
X119321Y157306D01*
X119317Y157319D01*
X119225Y157483D01*
X119135Y157649D01*
X119127Y157659D01*
X119120Y157671D01*
X118997Y157814D01*
X118878Y157958D01*
X118867Y157966D01*
X118859Y157976D01*
X118710Y158092D01*
X118564Y158210D01*
X118552Y158216D01*
X118542Y158225D01*
X118373Y158309D01*
X118207Y158396D01*
X118194Y158399D01*
X118182Y158405D01*
X118000Y158455D01*
X117820Y158507D01*
X117806Y158508D01*
X117793Y158512D01*
X117607Y158525D01*
X117418Y158540D01*
X117405Y158538D01*
X117392Y158539D01*
X117206Y158515D01*
X117019Y158493D01*
X117006Y158489D01*
X116993Y158487D01*
X116677Y158386D01*
X115682Y157974D01*
X115652Y157971D01*
X115484Y157959D01*
X115448Y157950D01*
X115418Y157947D01*
X115336Y157922D01*
X115288Y157910D01*
X114139Y157983D01*
X114084Y157981D01*
X114010Y157987D01*
X109733Y157987D01*
X109709Y157985D01*
X109686Y157987D01*
X109588Y157975D01*
X107932Y157987D01*
X107925Y157987D01*
X107917Y157987D01*
X106266Y157987D01*
X106113Y158001D01*
X94242Y158090D01*
X94212Y158088D01*
X94182Y158090D01*
X94012Y158069D01*
X93841Y158053D01*
X93812Y158045D01*
X93783Y158041D01*
X93620Y157987D01*
X93455Y157938D01*
X93429Y157924D01*
X93400Y157915D01*
X93252Y157830D01*
X93100Y157749D01*
X93077Y157730D01*
X93051Y157715D01*
X92922Y157603D01*
X92789Y157494D01*
X92770Y157470D01*
X92747Y157451D01*
X92643Y157315D01*
X92534Y157182D01*
X92520Y157155D01*
X92502Y157132D01*
X92350Y156836D01*
X92269Y156641D01*
X88881Y153252D01*
X88869Y153239D01*
X88856Y153227D01*
X88742Y153083D01*
X88626Y152941D01*
X88617Y152925D01*
X88606Y152911D01*
X88523Y152747D01*
X88437Y152585D01*
X88432Y152568D01*
X88424Y152552D01*
X88374Y152375D01*
X88322Y152199D01*
X88320Y152181D01*
X88316Y152164D01*
X88302Y151981D01*
X88286Y151798D01*
X88288Y151780D01*
X88286Y151763D01*
X88309Y151581D01*
X88329Y151398D01*
X88335Y151381D01*
X88337Y151363D01*
X88395Y151190D01*
X88451Y151014D01*
X88459Y150998D01*
X88465Y150982D01*
X88557Y150822D01*
X88645Y150662D01*
X88657Y150648D01*
X88666Y150633D01*
X88881Y150380D01*
X92269Y146991D01*
X94601Y141362D01*
X94601Y135270D01*
X92269Y129641D01*
X92039Y129411D01*
X92028Y129397D01*
X92015Y129386D01*
X91901Y129242D01*
X91784Y129100D01*
X91776Y129084D01*
X91765Y129070D01*
X91681Y128905D01*
X91596Y128744D01*
X91591Y128727D01*
X91583Y128711D01*
X91533Y128533D01*
X91481Y128358D01*
X91479Y128340D01*
X91475Y128323D01*
X91461Y128140D01*
X91445Y127957D01*
X91447Y127939D01*
X91445Y127922D01*
X91468Y127740D01*
X91488Y127557D01*
X91493Y127540D01*
X91496Y127522D01*
X91554Y127348D01*
X91609Y127173D01*
X91618Y127157D01*
X91624Y127140D01*
X91715Y126982D01*
X91804Y126821D01*
X91816Y126807D01*
X91825Y126792D01*
X92039Y126539D01*
X94258Y124320D01*
X96947Y117829D01*
X96947Y110803D01*
X94258Y104312D01*
X92039Y102093D01*
X92028Y102080D01*
X92015Y102068D01*
X91901Y101924D01*
X91784Y101782D01*
X91776Y101766D01*
X91765Y101752D01*
X91682Y101588D01*
X91596Y101426D01*
X91591Y101409D01*
X91583Y101393D01*
X91533Y101216D01*
X91481Y101040D01*
X91479Y101023D01*
X91475Y101005D01*
X91461Y100822D01*
X91445Y100639D01*
X91447Y100622D01*
X91445Y100604D01*
X91468Y100422D01*
X91488Y100239D01*
X91493Y100222D01*
X91496Y100204D01*
X91554Y100031D01*
X91609Y99855D01*
X91618Y99840D01*
X91624Y99823D01*
X91716Y99663D01*
X91804Y99503D01*
X91816Y99489D01*
X91825Y99474D01*
X92039Y99221D01*
X92269Y98991D01*
X94601Y93362D01*
X94601Y87270D01*
X92269Y81641D01*
X88881Y78252D01*
X88869Y78238D01*
X88856Y78227D01*
X88742Y78083D01*
X88626Y77941D01*
X88617Y77925D01*
X88606Y77911D01*
X88523Y77747D01*
X88437Y77585D01*
X88432Y77568D01*
X88424Y77552D01*
X88374Y77375D01*
X88322Y77199D01*
X88320Y77181D01*
X88316Y77164D01*
X88302Y76981D01*
X88286Y76798D01*
X88288Y76780D01*
X88286Y76763D01*
X88309Y76580D01*
X88329Y76398D01*
X88334Y76381D01*
X88337Y76363D01*
X88395Y76189D01*
X88451Y76014D01*
X88459Y75998D01*
X88465Y75982D01*
X88557Y75822D01*
X88645Y75662D01*
X88657Y75648D01*
X88666Y75633D01*
X88881Y75380D01*
X92269Y71991D01*
X92364Y71761D01*
X92377Y71737D01*
X92386Y71711D01*
X92472Y71560D01*
X92554Y71407D01*
X92572Y71385D01*
X92586Y71361D01*
X92700Y71230D01*
X92811Y71096D01*
X92832Y71079D01*
X92851Y71058D01*
X92989Y70952D01*
X93124Y70842D01*
X93148Y70830D01*
X93170Y70813D01*
X93326Y70736D01*
X93480Y70655D01*
X93507Y70648D01*
X93531Y70635D01*
X93699Y70591D01*
X93866Y70542D01*
X93894Y70540D01*
X93921Y70533D01*
X94252Y70507D01*
X110073Y70591D01*
G37*
G36*
X280150Y169675D02*
X280150Y169675D01*
X280168Y169673D01*
X280350Y169694D01*
X280533Y169713D01*
X280550Y169718D01*
X280567Y169720D01*
X280742Y169777D01*
X280918Y169831D01*
X280933Y169839D01*
X280950Y169845D01*
X281110Y169935D01*
X281272Y170023D01*
X281285Y170034D01*
X281301Y170043D01*
X281440Y170163D01*
X281581Y170280D01*
X281592Y170294D01*
X281606Y170306D01*
X281718Y170451D01*
X281833Y170594D01*
X281841Y170610D01*
X281852Y170624D01*
X281934Y170789D01*
X282019Y170951D01*
X282024Y170968D01*
X282032Y170984D01*
X282079Y171163D01*
X282130Y171338D01*
X282132Y171356D01*
X282136Y171373D01*
X282156Y171620D01*
X289361Y171620D01*
X289379Y171621D01*
X289396Y171620D01*
X289579Y171641D01*
X289761Y171660D01*
X289778Y171665D01*
X289796Y171667D01*
X289971Y171724D01*
X290146Y171778D01*
X290162Y171786D01*
X290179Y171792D01*
X290339Y171882D01*
X290500Y171969D01*
X290514Y171981D01*
X290530Y171990D01*
X290669Y172110D01*
X290810Y172227D01*
X290821Y172241D01*
X290834Y172253D01*
X290947Y172398D01*
X291062Y172541D01*
X291070Y172557D01*
X291081Y172571D01*
X291163Y172736D01*
X291247Y172898D01*
X291252Y172915D01*
X291260Y172931D01*
X291263Y172943D01*
X291333Y172964D01*
X291348Y172972D01*
X291365Y172978D01*
X291525Y173068D01*
X291687Y173156D01*
X291700Y173167D01*
X291716Y173176D01*
X291855Y173296D01*
X291996Y173414D01*
X292007Y173427D01*
X292021Y173439D01*
X292133Y173584D01*
X292248Y173727D01*
X292256Y173743D01*
X292267Y173757D01*
X292349Y173922D01*
X292434Y174085D01*
X292439Y174102D01*
X292447Y174118D01*
X292494Y174296D01*
X292545Y174471D01*
X292547Y174489D01*
X292551Y174506D01*
X292578Y174837D01*
X292578Y183250D01*
X292603Y183301D01*
X292688Y183463D01*
X292693Y183480D01*
X292701Y183496D01*
X292748Y183675D01*
X292799Y183850D01*
X292801Y183868D01*
X292805Y183885D01*
X292832Y184216D01*
X292832Y189399D01*
X292830Y189417D01*
X292832Y189434D01*
X292811Y189617D01*
X292792Y189799D01*
X292787Y189816D01*
X292785Y189834D01*
X292734Y189990D01*
X292748Y190044D01*
X292799Y190219D01*
X292801Y190237D01*
X292805Y190254D01*
X292832Y190585D01*
X292832Y197933D01*
X295793Y197933D01*
X296439Y197760D01*
X296761Y197573D01*
X296903Y197509D01*
X297041Y197439D01*
X297086Y197427D01*
X297128Y197407D01*
X297280Y197373D01*
X297429Y197331D01*
X297475Y197328D01*
X297521Y197317D01*
X297676Y197313D01*
X297831Y197302D01*
X297877Y197308D01*
X297923Y197306D01*
X298076Y197333D01*
X298230Y197352D01*
X298274Y197367D01*
X298320Y197375D01*
X298465Y197431D01*
X298612Y197480D01*
X298652Y197503D01*
X298695Y197520D01*
X298827Y197604D01*
X298961Y197681D01*
X299000Y197715D01*
X299035Y197737D01*
X299097Y197797D01*
X299214Y197896D01*
X300156Y198838D01*
X301649Y199457D01*
X314164Y199457D01*
X314312Y199471D01*
X314459Y199478D01*
X314511Y199491D01*
X314565Y199497D01*
X314706Y199540D01*
X314850Y199576D01*
X314899Y199599D01*
X314950Y199615D01*
X315080Y199685D01*
X315214Y199749D01*
X315257Y199781D01*
X315304Y199807D01*
X315417Y199901D01*
X315536Y199990D01*
X315572Y200030D01*
X315613Y200064D01*
X315706Y200180D01*
X315805Y200290D01*
X315832Y200336D01*
X315865Y200378D01*
X315934Y200509D01*
X316009Y200637D01*
X316026Y200688D01*
X316051Y200735D01*
X316092Y200877D01*
X316140Y201017D01*
X316148Y201071D01*
X316162Y201122D01*
X316174Y201270D01*
X316194Y201416D01*
X316191Y201470D01*
X316195Y201524D01*
X316178Y201670D01*
X316169Y201818D01*
X316154Y201877D01*
X316148Y201923D01*
X316122Y202004D01*
X316088Y202140D01*
X315888Y202732D01*
X315849Y202817D01*
X315819Y202906D01*
X315766Y203000D01*
X315721Y203098D01*
X315666Y203174D01*
X315620Y203256D01*
X315549Y203337D01*
X315486Y203425D01*
X315417Y203489D01*
X315355Y203559D01*
X315270Y203625D01*
X315190Y203699D01*
X315111Y203747D01*
X315036Y203805D01*
X314917Y203866D01*
X314847Y203909D01*
X314800Y203926D01*
X314741Y203956D01*
X313109Y204632D01*
X310550Y207191D01*
X309165Y210534D01*
X309165Y214154D01*
X310550Y217497D01*
X313352Y220299D01*
X313363Y220313D01*
X313377Y220324D01*
X313491Y220468D01*
X313607Y220610D01*
X313616Y220626D01*
X313627Y220640D01*
X313710Y220804D01*
X313796Y220966D01*
X313801Y220983D01*
X313809Y220999D01*
X313858Y221176D01*
X313911Y221352D01*
X313912Y221370D01*
X313917Y221387D01*
X313930Y221570D01*
X313947Y221753D01*
X313945Y221771D01*
X313946Y221788D01*
X313923Y221971D01*
X313904Y222153D01*
X313898Y222170D01*
X313896Y222188D01*
X313838Y222362D01*
X313782Y222537D01*
X313773Y222553D01*
X313768Y222570D01*
X313676Y222729D01*
X313587Y222889D01*
X313576Y222903D01*
X313567Y222918D01*
X313352Y223171D01*
X309281Y227242D01*
X309260Y227259D01*
X309243Y227280D01*
X309105Y227386D01*
X308970Y227497D01*
X308946Y227510D01*
X308925Y227526D01*
X308769Y227604D01*
X308614Y227686D01*
X308588Y227694D01*
X308564Y227706D01*
X308395Y227751D01*
X308228Y227801D01*
X308201Y227803D01*
X308176Y227810D01*
X307845Y227837D01*
X302122Y227837D01*
X297174Y229887D01*
X293387Y233674D01*
X291337Y238622D01*
X291337Y243978D01*
X292484Y246746D01*
X292488Y246759D01*
X292494Y246770D01*
X292545Y246950D01*
X292600Y247131D01*
X292601Y247144D01*
X292605Y247157D01*
X292621Y247345D01*
X292638Y247532D01*
X292637Y247545D01*
X292638Y247559D01*
X292616Y247745D01*
X292597Y247932D01*
X292593Y247945D01*
X292591Y247958D01*
X292533Y248137D01*
X292477Y248317D01*
X292470Y248328D01*
X292466Y248341D01*
X292374Y248505D01*
X292284Y248670D01*
X292275Y248680D01*
X292268Y248692D01*
X292146Y248834D01*
X292024Y248978D01*
X292014Y248986D01*
X292005Y248997D01*
X291857Y249111D01*
X291710Y249229D01*
X291698Y249235D01*
X291687Y249243D01*
X291519Y249327D01*
X291351Y249413D01*
X291339Y249417D01*
X291327Y249423D01*
X291144Y249472D01*
X290964Y249523D01*
X290951Y249524D01*
X290938Y249527D01*
X290607Y249554D01*
X279400Y249554D01*
X279382Y249552D01*
X279364Y249554D01*
X279182Y249533D01*
X278999Y249514D01*
X278982Y249509D01*
X278965Y249507D01*
X278790Y249450D01*
X278614Y249396D01*
X278599Y249388D01*
X278582Y249382D01*
X278422Y249292D01*
X278260Y249204D01*
X278247Y249193D01*
X278231Y249184D01*
X278092Y249064D01*
X277951Y248947D01*
X277940Y248933D01*
X277927Y248921D01*
X277814Y248776D01*
X277699Y248633D01*
X277691Y248617D01*
X277680Y248603D01*
X277598Y248438D01*
X277513Y248276D01*
X277508Y248259D01*
X277500Y248243D01*
X277453Y248064D01*
X277402Y247889D01*
X277400Y247871D01*
X277396Y247854D01*
X277369Y247523D01*
X277369Y171704D01*
X277371Y171686D01*
X277369Y171668D01*
X277390Y171486D01*
X277409Y171303D01*
X277414Y171286D01*
X277416Y171269D01*
X277473Y171094D01*
X277527Y170918D01*
X277535Y170903D01*
X277541Y170886D01*
X277631Y170726D01*
X277719Y170564D01*
X277730Y170551D01*
X277739Y170535D01*
X277859Y170396D01*
X277976Y170255D01*
X277990Y170244D01*
X278002Y170230D01*
X278147Y170118D01*
X278290Y170003D01*
X278306Y169995D01*
X278320Y169984D01*
X278485Y169902D01*
X278647Y169817D01*
X278664Y169812D01*
X278681Y169804D01*
X278859Y169757D01*
X279034Y169706D01*
X279052Y169704D01*
X279069Y169700D01*
X279400Y169673D01*
X280132Y169673D01*
X280150Y169675D01*
G37*
G36*
X407655Y32199D02*
X407655Y32199D01*
X407660Y32199D01*
X407858Y32224D01*
X408051Y32248D01*
X408055Y32249D01*
X408059Y32250D01*
X408244Y32312D01*
X408433Y32374D01*
X408437Y32376D01*
X408441Y32378D01*
X408609Y32474D01*
X408783Y32574D01*
X408786Y32577D01*
X408790Y32579D01*
X409043Y32793D01*
X411498Y35248D01*
X413284Y37035D01*
X415245Y37847D01*
X419455Y37847D01*
X419460Y37847D01*
X419464Y37847D01*
X419658Y37867D01*
X419856Y37887D01*
X419860Y37888D01*
X419865Y37888D01*
X420053Y37947D01*
X420241Y38005D01*
X420245Y38007D01*
X420249Y38008D01*
X420424Y38104D01*
X420595Y38197D01*
X420598Y38199D01*
X420602Y38202D01*
X420754Y38329D01*
X420904Y38454D01*
X420907Y38458D01*
X420910Y38461D01*
X421034Y38616D01*
X421157Y38768D01*
X421159Y38772D01*
X421161Y38775D01*
X421254Y38956D01*
X421342Y39125D01*
X421343Y39130D01*
X421345Y39134D01*
X421399Y39323D01*
X421453Y39512D01*
X421454Y39517D01*
X421455Y39521D01*
X421470Y39713D01*
X421486Y39914D01*
X421486Y39918D01*
X421486Y39922D01*
X421463Y40116D01*
X421439Y40313D01*
X421438Y40318D01*
X421437Y40322D01*
X421376Y40507D01*
X421315Y40696D01*
X421312Y40700D01*
X421311Y40704D01*
X421215Y40873D01*
X421117Y41047D01*
X421114Y41050D01*
X421111Y41054D01*
X420984Y41201D01*
X420853Y41351D01*
X420850Y41354D01*
X420847Y41358D01*
X420690Y41478D01*
X420535Y41598D01*
X420531Y41600D01*
X420528Y41603D01*
X420233Y41755D01*
X419147Y42204D01*
X418004Y43348D01*
X417385Y44841D01*
X417385Y53716D01*
X417377Y53798D01*
X417379Y53880D01*
X417357Y53998D01*
X417345Y54117D01*
X417321Y54195D01*
X417307Y54276D01*
X417262Y54387D01*
X417227Y54502D01*
X417188Y54574D01*
X417158Y54650D01*
X417092Y54750D01*
X417035Y54856D01*
X416983Y54919D01*
X416938Y54988D01*
X416854Y55073D01*
X416778Y55165D01*
X416714Y55216D01*
X416656Y55275D01*
X416557Y55342D01*
X416464Y55417D01*
X416391Y55455D01*
X416323Y55501D01*
X416213Y55548D01*
X416107Y55603D01*
X416028Y55625D01*
X415952Y55657D01*
X415835Y55681D01*
X415720Y55714D01*
X415638Y55721D01*
X415557Y55737D01*
X415438Y55737D01*
X415318Y55747D01*
X415237Y55737D01*
X415155Y55738D01*
X415005Y55710D01*
X414919Y55700D01*
X414880Y55688D01*
X414828Y55678D01*
X414385Y55559D01*
X411424Y55559D01*
X411424Y62907D01*
X411422Y62925D01*
X411424Y62942D01*
X411403Y63125D01*
X411384Y63307D01*
X411379Y63324D01*
X411377Y63342D01*
X411326Y63498D01*
X411340Y63552D01*
X411391Y63727D01*
X411393Y63745D01*
X411397Y63762D01*
X411424Y64093D01*
X411424Y71441D01*
X414385Y71441D01*
X415031Y71268D01*
X415766Y70843D01*
X415907Y70779D01*
X416045Y70709D01*
X416090Y70697D01*
X416133Y70677D01*
X416284Y70643D01*
X416433Y70601D01*
X416480Y70598D01*
X416525Y70587D01*
X416680Y70583D01*
X416835Y70572D01*
X416881Y70578D01*
X416927Y70576D01*
X417080Y70603D01*
X417234Y70622D01*
X417278Y70637D01*
X417324Y70645D01*
X417469Y70701D01*
X417616Y70750D01*
X417656Y70774D01*
X417700Y70790D01*
X417830Y70874D01*
X417965Y70951D01*
X418005Y70985D01*
X418039Y71007D01*
X418101Y71067D01*
X418218Y71166D01*
X419233Y72182D01*
X419253Y72193D01*
X419388Y72309D01*
X419526Y72424D01*
X419540Y72441D01*
X419558Y72456D01*
X419667Y72597D01*
X419780Y72736D01*
X419790Y72756D01*
X419804Y72774D01*
X419884Y72935D01*
X419967Y73093D01*
X419973Y73114D01*
X419984Y73134D01*
X420030Y73308D01*
X420080Y73479D01*
X420082Y73501D01*
X420088Y73523D01*
X420115Y73854D01*
X420115Y77261D01*
X420927Y79222D01*
X426407Y84702D01*
X426422Y84719D01*
X426439Y84734D01*
X426549Y84875D01*
X426662Y85013D01*
X426673Y85033D01*
X426687Y85051D01*
X426767Y85211D01*
X426851Y85369D01*
X426857Y85390D01*
X426868Y85410D01*
X426915Y85584D01*
X426966Y85755D01*
X426968Y85777D01*
X426974Y85799D01*
X426986Y85977D01*
X427002Y86156D01*
X427000Y86178D01*
X427001Y86200D01*
X426978Y86378D01*
X426959Y86556D01*
X426952Y86577D01*
X426949Y86600D01*
X426848Y86916D01*
X426465Y87839D01*
X426465Y104899D01*
X426463Y104925D01*
X426465Y104952D01*
X426443Y105126D01*
X426425Y105300D01*
X426418Y105325D01*
X426414Y105352D01*
X426359Y105517D01*
X426307Y105684D01*
X426294Y105708D01*
X426286Y105733D01*
X426199Y105885D01*
X426115Y106038D01*
X426098Y106059D01*
X426085Y106082D01*
X425870Y106335D01*
X421775Y110431D01*
X421754Y110448D01*
X421737Y110468D01*
X421599Y110575D01*
X421463Y110686D01*
X421440Y110698D01*
X421419Y110715D01*
X421262Y110793D01*
X421108Y110874D01*
X421082Y110882D01*
X421058Y110894D01*
X420889Y110939D01*
X420722Y110989D01*
X420695Y110991D01*
X420669Y110998D01*
X420339Y111025D01*
X419346Y111025D01*
X419328Y111024D01*
X419310Y111025D01*
X419128Y111004D01*
X418945Y110986D01*
X418928Y110980D01*
X418911Y110978D01*
X418736Y110921D01*
X418560Y110867D01*
X418545Y110859D01*
X418528Y110853D01*
X418368Y110763D01*
X418206Y110676D01*
X418193Y110664D01*
X418177Y110656D01*
X418038Y110535D01*
X417897Y110418D01*
X417886Y110404D01*
X417872Y110392D01*
X417760Y110247D01*
X417645Y110104D01*
X417637Y110088D01*
X417626Y110074D01*
X417544Y109909D01*
X417459Y109747D01*
X417454Y109730D01*
X417446Y109714D01*
X417399Y109536D01*
X417348Y109360D01*
X417346Y109342D01*
X417342Y109325D01*
X417315Y108994D01*
X417315Y106472D01*
X417303Y106352D01*
X417306Y106324D01*
X417304Y106297D01*
X417315Y106217D01*
X417315Y102472D01*
X417303Y102352D01*
X417306Y102324D01*
X417304Y102297D01*
X417315Y102217D01*
X417315Y98472D01*
X417303Y98352D01*
X417306Y98324D01*
X417304Y98297D01*
X417315Y98217D01*
X417315Y94792D01*
X416650Y93188D01*
X416386Y92923D01*
X416369Y92902D01*
X416348Y92885D01*
X416241Y92747D01*
X416131Y92612D01*
X416118Y92588D01*
X416102Y92567D01*
X416024Y92410D01*
X415942Y92256D01*
X415934Y92230D01*
X415922Y92206D01*
X415877Y92037D01*
X415827Y91870D01*
X415825Y91843D01*
X415818Y91818D01*
X415791Y91487D01*
X415791Y91286D01*
X415597Y90564D01*
X415223Y89916D01*
X414694Y89387D01*
X414046Y89013D01*
X413324Y88819D01*
X410096Y88819D01*
X410078Y88818D01*
X410060Y88819D01*
X409878Y88798D01*
X409695Y88780D01*
X409678Y88774D01*
X409661Y88772D01*
X409486Y88715D01*
X409310Y88661D01*
X409295Y88653D01*
X409278Y88647D01*
X409118Y88557D01*
X408956Y88470D01*
X408943Y88458D01*
X408927Y88450D01*
X408788Y88329D01*
X408647Y88212D01*
X408636Y88198D01*
X408622Y88186D01*
X408510Y88041D01*
X408395Y87898D01*
X408387Y87882D01*
X408376Y87868D01*
X408294Y87703D01*
X408209Y87541D01*
X408204Y87524D01*
X408196Y87508D01*
X408149Y87330D01*
X408098Y87154D01*
X408096Y87136D01*
X408092Y87119D01*
X408065Y86788D01*
X408065Y81542D01*
X407400Y79938D01*
X406172Y78710D01*
X404568Y78045D01*
X401112Y78045D01*
X400991Y78057D01*
X400964Y78054D01*
X400937Y78056D01*
X400857Y78045D01*
X397112Y78045D01*
X396991Y78057D01*
X396964Y78054D01*
X396937Y78056D01*
X396857Y78045D01*
X394769Y78045D01*
X394700Y78039D01*
X394631Y78041D01*
X394500Y78019D01*
X394369Y78006D01*
X394302Y77985D01*
X394234Y77974D01*
X394110Y77926D01*
X393984Y77887D01*
X393923Y77854D01*
X393858Y77829D01*
X393746Y77759D01*
X393630Y77696D01*
X393577Y77651D01*
X393518Y77614D01*
X393422Y77522D01*
X393321Y77438D01*
X393277Y77384D01*
X393227Y77336D01*
X393151Y77227D01*
X393068Y77124D01*
X393036Y77063D01*
X392996Y77005D01*
X392944Y76884D01*
X392883Y76767D01*
X392864Y76700D01*
X392836Y76636D01*
X392795Y76463D01*
X392771Y76380D01*
X392769Y76350D01*
X392760Y76313D01*
X392707Y75954D01*
X392703Y75883D01*
X392685Y75655D01*
X392685Y74996D01*
X392687Y74978D01*
X392685Y74960D01*
X392706Y74778D01*
X392725Y74595D01*
X392730Y74578D01*
X392732Y74561D01*
X392789Y74386D01*
X392843Y74210D01*
X392851Y74195D01*
X392857Y74178D01*
X392947Y74018D01*
X393035Y73856D01*
X393046Y73843D01*
X393055Y73827D01*
X393175Y73688D01*
X393292Y73547D01*
X393306Y73536D01*
X393318Y73522D01*
X393463Y73410D01*
X393606Y73295D01*
X393622Y73287D01*
X393636Y73276D01*
X393801Y73194D01*
X393963Y73109D01*
X393980Y73104D01*
X393996Y73096D01*
X394175Y73049D01*
X394350Y72998D01*
X394368Y72996D01*
X394385Y72992D01*
X394716Y72965D01*
X397359Y72965D01*
X398852Y72346D01*
X399794Y71404D01*
X399915Y71306D01*
X400030Y71202D01*
X400070Y71178D01*
X400106Y71149D01*
X400243Y71076D01*
X400376Y70997D01*
X400421Y70982D01*
X400462Y70960D01*
X400610Y70916D01*
X400757Y70865D01*
X400803Y70859D01*
X400848Y70845D01*
X401002Y70831D01*
X401156Y70810D01*
X401202Y70813D01*
X401249Y70809D01*
X401403Y70826D01*
X401557Y70835D01*
X401602Y70847D01*
X401649Y70852D01*
X401797Y70899D01*
X401946Y70939D01*
X401994Y70962D01*
X402033Y70974D01*
X402108Y71016D01*
X402246Y71081D01*
X402569Y71268D01*
X403215Y71441D01*
X406176Y71441D01*
X406176Y64093D01*
X406177Y64075D01*
X406176Y64058D01*
X406197Y63875D01*
X406216Y63693D01*
X406221Y63676D01*
X406223Y63658D01*
X406274Y63502D01*
X406259Y63448D01*
X406209Y63273D01*
X406207Y63255D01*
X406203Y63238D01*
X406176Y62907D01*
X406176Y55559D01*
X403783Y55559D01*
X403775Y55558D01*
X403766Y55559D01*
X403574Y55538D01*
X403383Y55519D01*
X403374Y55517D01*
X403365Y55516D01*
X403183Y55458D01*
X402998Y55401D01*
X402990Y55397D01*
X402981Y55394D01*
X402813Y55301D01*
X402644Y55209D01*
X402637Y55204D01*
X402629Y55199D01*
X402482Y55075D01*
X402335Y54952D01*
X402329Y54945D01*
X402322Y54939D01*
X402202Y54787D01*
X402082Y54638D01*
X402078Y54630D01*
X402073Y54623D01*
X401985Y54450D01*
X401897Y54281D01*
X401894Y54272D01*
X401890Y54264D01*
X401838Y54078D01*
X401785Y53894D01*
X401785Y53885D01*
X401782Y53876D01*
X401768Y53683D01*
X401752Y53492D01*
X401753Y53484D01*
X401753Y53475D01*
X401777Y53282D01*
X401799Y53093D01*
X401802Y53084D01*
X401803Y53075D01*
X401865Y52892D01*
X401924Y52710D01*
X401929Y52702D01*
X401931Y52694D01*
X402028Y52527D01*
X402122Y52359D01*
X402128Y52352D01*
X402132Y52345D01*
X402347Y52092D01*
X405445Y48994D01*
X407417Y44233D01*
X407417Y39079D01*
X405730Y35007D01*
X405729Y35003D01*
X405727Y34999D01*
X405670Y34809D01*
X405614Y34622D01*
X405613Y34617D01*
X405612Y34613D01*
X405594Y34415D01*
X405575Y34221D01*
X405576Y34217D01*
X405575Y34212D01*
X405597Y34013D01*
X405617Y33820D01*
X405618Y33816D01*
X405619Y33812D01*
X405678Y33624D01*
X405737Y33436D01*
X405739Y33432D01*
X405740Y33428D01*
X405836Y33254D01*
X405930Y33083D01*
X405933Y33079D01*
X405935Y33075D01*
X406062Y32926D01*
X406189Y32775D01*
X406193Y32772D01*
X406196Y32768D01*
X406349Y32647D01*
X406504Y32524D01*
X406508Y32522D01*
X406512Y32519D01*
X406689Y32429D01*
X406862Y32340D01*
X406867Y32339D01*
X406871Y32337D01*
X407063Y32283D01*
X407250Y32230D01*
X407254Y32230D01*
X407258Y32229D01*
X407460Y32214D01*
X407651Y32199D01*
X407655Y32199D01*
G37*
G36*
X365532Y91093D02*
X365532Y91093D01*
X365605Y91093D01*
X365772Y91123D01*
X365858Y91134D01*
X365890Y91145D01*
X365924Y91151D01*
X366127Y91151D01*
X366153Y91154D01*
X366180Y91152D01*
X366354Y91174D01*
X366527Y91191D01*
X366553Y91199D01*
X366579Y91202D01*
X366745Y91258D01*
X366912Y91309D01*
X366936Y91322D01*
X366961Y91330D01*
X367113Y91418D01*
X367266Y91501D01*
X367287Y91518D01*
X367310Y91531D01*
X367563Y91746D01*
X367828Y92010D01*
X369432Y92675D01*
X372888Y92675D01*
X373008Y92663D01*
X373035Y92666D01*
X373063Y92664D01*
X373143Y92675D01*
X376568Y92675D01*
X378223Y91990D01*
X378248Y91982D01*
X378272Y91970D01*
X378441Y91924D01*
X378608Y91873D01*
X378635Y91871D01*
X378661Y91864D01*
X378836Y91852D01*
X379009Y91835D01*
X379035Y91838D01*
X379062Y91836D01*
X379236Y91859D01*
X379409Y91877D01*
X379435Y91885D01*
X379461Y91888D01*
X379777Y91990D01*
X381432Y92675D01*
X384888Y92675D01*
X385008Y92663D01*
X385035Y92666D01*
X385063Y92664D01*
X385143Y92675D01*
X388888Y92675D01*
X389008Y92663D01*
X389035Y92666D01*
X389063Y92664D01*
X389143Y92675D01*
X392888Y92675D01*
X393008Y92663D01*
X393035Y92666D01*
X393063Y92664D01*
X393143Y92675D01*
X396888Y92675D01*
X397008Y92663D01*
X397035Y92666D01*
X397063Y92664D01*
X397143Y92675D01*
X400654Y92675D01*
X400672Y92677D01*
X400690Y92675D01*
X400872Y92697D01*
X401055Y92715D01*
X401072Y92720D01*
X401089Y92722D01*
X401264Y92779D01*
X401440Y92833D01*
X401455Y92841D01*
X401472Y92847D01*
X401632Y92937D01*
X401794Y93025D01*
X401807Y93036D01*
X401823Y93045D01*
X401962Y93165D01*
X402103Y93283D01*
X402114Y93296D01*
X402128Y93308D01*
X402240Y93453D01*
X402355Y93596D01*
X402363Y93612D01*
X402374Y93626D01*
X402456Y93790D01*
X402541Y93954D01*
X402546Y93971D01*
X402554Y93987D01*
X402601Y94165D01*
X402652Y94340D01*
X402654Y94358D01*
X402658Y94375D01*
X402685Y94706D01*
X402685Y98248D01*
X402697Y98368D01*
X402694Y98395D01*
X402696Y98423D01*
X402685Y98503D01*
X402685Y102248D01*
X402697Y102368D01*
X402694Y102395D01*
X402696Y102423D01*
X402685Y102503D01*
X402685Y106248D01*
X402697Y106368D01*
X402694Y106395D01*
X402696Y106423D01*
X402685Y106503D01*
X402685Y109704D01*
X402683Y109726D01*
X402685Y109748D01*
X402663Y109926D01*
X402645Y110104D01*
X402639Y110125D01*
X402636Y110147D01*
X402580Y110318D01*
X402527Y110489D01*
X402517Y110509D01*
X402510Y110530D01*
X402421Y110686D01*
X402335Y110843D01*
X402321Y110860D01*
X402310Y110879D01*
X402192Y111015D01*
X402078Y111152D01*
X402061Y111166D01*
X402046Y111183D01*
X401904Y111293D01*
X401764Y111405D01*
X401744Y111415D01*
X401727Y111428D01*
X401432Y111580D01*
X401350Y111614D01*
X401337Y111618D01*
X401325Y111624D01*
X401145Y111676D01*
X400964Y111731D01*
X400951Y111732D01*
X400938Y111736D01*
X400750Y111751D01*
X400564Y111769D01*
X400550Y111767D01*
X400536Y111769D01*
X400349Y111747D01*
X400163Y111727D01*
X400150Y111723D01*
X400137Y111722D01*
X399958Y111663D01*
X399779Y111608D01*
X399767Y111601D01*
X399754Y111597D01*
X399591Y111505D01*
X399425Y111414D01*
X399415Y111406D01*
X399403Y111399D01*
X399277Y111290D01*
X399305Y111345D01*
X399394Y111515D01*
X399396Y111524D01*
X399400Y111532D01*
X399452Y111718D01*
X399505Y111902D01*
X399506Y111911D01*
X399508Y111920D01*
X399522Y112112D01*
X399538Y112304D01*
X399537Y112312D01*
X399537Y112321D01*
X399513Y112514D01*
X399491Y112703D01*
X399488Y112712D01*
X399487Y112721D01*
X399426Y112904D01*
X399366Y113086D01*
X399362Y113094D01*
X399359Y113102D01*
X399263Y113268D01*
X399168Y113437D01*
X399162Y113444D01*
X399158Y113451D01*
X398943Y113704D01*
X397305Y115342D01*
X396573Y117109D01*
X396563Y117129D01*
X396556Y117150D01*
X396468Y117307D01*
X396383Y117464D01*
X396369Y117481D01*
X396358Y117501D01*
X396241Y117637D01*
X396127Y117775D01*
X396110Y117789D01*
X396095Y117805D01*
X395954Y117915D01*
X395814Y118028D01*
X395794Y118039D01*
X395777Y118052D01*
X395616Y118132D01*
X395458Y118215D01*
X395436Y118221D01*
X395416Y118231D01*
X395243Y118278D01*
X395071Y118328D01*
X395049Y118330D01*
X395028Y118336D01*
X394697Y118363D01*
X385063Y118363D01*
X385063Y128778D01*
X385061Y128796D01*
X385063Y128814D01*
X385041Y128996D01*
X385023Y129179D01*
X385018Y129196D01*
X385016Y129213D01*
X384959Y129388D01*
X384905Y129564D01*
X384897Y129579D01*
X384891Y129596D01*
X384801Y129756D01*
X384713Y129918D01*
X384702Y129931D01*
X384693Y129947D01*
X384573Y130086D01*
X384456Y130227D01*
X384442Y130238D01*
X384430Y130252D01*
X384285Y130364D01*
X384142Y130479D01*
X384126Y130487D01*
X384112Y130498D01*
X383947Y130580D01*
X383785Y130665D01*
X383768Y130670D01*
X383751Y130678D01*
X383573Y130725D01*
X383398Y130776D01*
X383380Y130778D01*
X383363Y130782D01*
X383032Y130809D01*
X378968Y130809D01*
X378950Y130807D01*
X378933Y130809D01*
X378750Y130788D01*
X378567Y130769D01*
X378550Y130764D01*
X378533Y130762D01*
X378358Y130705D01*
X378183Y130651D01*
X378167Y130643D01*
X378150Y130637D01*
X377990Y130547D01*
X377828Y130459D01*
X377815Y130448D01*
X377799Y130439D01*
X377660Y130319D01*
X377519Y130202D01*
X377508Y130188D01*
X377495Y130176D01*
X377382Y130031D01*
X377267Y129888D01*
X377259Y129872D01*
X377248Y129858D01*
X377166Y129693D01*
X377081Y129531D01*
X377076Y129514D01*
X377068Y129498D01*
X377021Y129319D01*
X376970Y129144D01*
X376969Y129126D01*
X376964Y129109D01*
X376937Y128778D01*
X376937Y118363D01*
X367792Y118363D01*
X367774Y118361D01*
X367756Y118363D01*
X367574Y118341D01*
X367391Y118323D01*
X367374Y118318D01*
X367357Y118316D01*
X367182Y118259D01*
X367006Y118205D01*
X366991Y118197D01*
X366974Y118191D01*
X366814Y118101D01*
X366652Y118013D01*
X366639Y118002D01*
X366623Y117993D01*
X366484Y117873D01*
X366343Y117756D01*
X366332Y117742D01*
X366318Y117730D01*
X366206Y117585D01*
X366091Y117442D01*
X366083Y117426D01*
X366072Y117412D01*
X365990Y117247D01*
X365905Y117085D01*
X365900Y117068D01*
X365892Y117051D01*
X365845Y116873D01*
X365794Y116698D01*
X365792Y116680D01*
X365788Y116663D01*
X365761Y116332D01*
X365761Y112268D01*
X365763Y112250D01*
X365761Y112233D01*
X365782Y112050D01*
X365801Y111867D01*
X365806Y111850D01*
X365808Y111833D01*
X365865Y111658D01*
X365919Y111483D01*
X365927Y111467D01*
X365933Y111450D01*
X366023Y111290D01*
X366111Y111128D01*
X366122Y111115D01*
X366131Y111099D01*
X366251Y110960D01*
X366368Y110819D01*
X366382Y110808D01*
X366394Y110795D01*
X366539Y110682D01*
X366682Y110567D01*
X366698Y110559D01*
X366712Y110548D01*
X366877Y110466D01*
X367039Y110381D01*
X367056Y110376D01*
X367072Y110368D01*
X367251Y110321D01*
X367426Y110270D01*
X367444Y110269D01*
X367461Y110264D01*
X367792Y110237D01*
X376937Y110237D01*
X376937Y96759D01*
X366815Y96759D01*
X366793Y96757D01*
X366770Y96759D01*
X366593Y96737D01*
X366414Y96719D01*
X366393Y96713D01*
X366371Y96710D01*
X366201Y96654D01*
X366029Y96601D01*
X366010Y96591D01*
X365989Y96584D01*
X365833Y96495D01*
X365675Y96409D01*
X365658Y96395D01*
X365639Y96384D01*
X365504Y96266D01*
X365366Y96152D01*
X365352Y96134D01*
X365335Y96120D01*
X365226Y95978D01*
X365114Y95838D01*
X365103Y95818D01*
X365090Y95800D01*
X364954Y95535D01*
X363969Y94551D01*
X363923Y94494D01*
X363869Y94444D01*
X363795Y94339D01*
X363714Y94239D01*
X363680Y94174D01*
X363637Y94114D01*
X363586Y93997D01*
X363525Y93883D01*
X363505Y93813D01*
X363475Y93746D01*
X363447Y93621D01*
X363411Y93498D01*
X363404Y93424D01*
X363388Y93353D01*
X363386Y93225D01*
X363374Y93097D01*
X363382Y93024D01*
X363381Y92950D01*
X363404Y92824D01*
X363418Y92696D01*
X363440Y92626D01*
X363453Y92554D01*
X363500Y92435D01*
X363539Y92312D01*
X363575Y92248D01*
X363602Y92180D01*
X363672Y92073D01*
X363734Y91960D01*
X363782Y91904D01*
X363821Y91843D01*
X363911Y91751D01*
X363994Y91653D01*
X364052Y91608D01*
X364103Y91555D01*
X364209Y91483D01*
X364310Y91404D01*
X364376Y91370D01*
X364436Y91329D01*
X364555Y91279D01*
X364669Y91221D01*
X364740Y91201D01*
X364808Y91173D01*
X364933Y91148D01*
X365057Y91113D01*
X365130Y91108D01*
X365202Y91093D01*
X365330Y91093D01*
X365459Y91084D01*
X365532Y91093D01*
G37*
G36*
X338181Y178233D02*
X338181Y178233D01*
X338190Y178232D01*
X338379Y178254D01*
X338572Y178275D01*
X338581Y178278D01*
X338589Y178279D01*
X338771Y178338D01*
X338956Y178397D01*
X338964Y178401D01*
X338972Y178404D01*
X339141Y178499D01*
X339308Y178592D01*
X339315Y178597D01*
X339323Y178602D01*
X339469Y178728D01*
X339615Y178852D01*
X339621Y178859D01*
X339628Y178865D01*
X339745Y179016D01*
X339865Y179168D01*
X339869Y179176D01*
X339874Y179183D01*
X339960Y179355D01*
X340047Y179527D01*
X340050Y179536D01*
X340054Y179544D01*
X340104Y179730D01*
X340155Y179915D01*
X340156Y179924D01*
X340158Y179932D01*
X340185Y180263D01*
X340185Y181959D01*
X340804Y183452D01*
X341399Y184048D01*
X341457Y184118D01*
X341522Y184182D01*
X341584Y184273D01*
X341654Y184359D01*
X341697Y184440D01*
X341748Y184515D01*
X341791Y184617D01*
X341843Y184715D01*
X341869Y184802D01*
X341904Y184886D01*
X341926Y184995D01*
X341958Y185101D01*
X341966Y185191D01*
X341984Y185281D01*
X341984Y185391D01*
X341994Y185502D01*
X341984Y185593D01*
X341985Y185683D01*
X341960Y185819D01*
X341951Y185902D01*
X341936Y185948D01*
X341925Y186010D01*
X341709Y186815D01*
X341709Y190151D01*
X346751Y190151D01*
X346751Y187246D01*
X346752Y187228D01*
X346751Y187210D01*
X346772Y187028D01*
X346791Y186845D01*
X346796Y186828D01*
X346798Y186811D01*
X346855Y186636D01*
X346909Y186460D01*
X346917Y186445D01*
X346923Y186428D01*
X347013Y186268D01*
X347100Y186106D01*
X347112Y186093D01*
X347121Y186077D01*
X347241Y185938D01*
X347358Y185797D01*
X347372Y185786D01*
X347384Y185772D01*
X347529Y185660D01*
X347672Y185545D01*
X347688Y185537D01*
X347702Y185526D01*
X347867Y185444D01*
X348029Y185359D01*
X348046Y185354D01*
X348062Y185346D01*
X348241Y185299D01*
X348416Y185248D01*
X348434Y185246D01*
X348451Y185242D01*
X348782Y185215D01*
X349718Y185215D01*
X349736Y185217D01*
X349754Y185215D01*
X349936Y185236D01*
X350119Y185255D01*
X350136Y185260D01*
X350153Y185262D01*
X350328Y185319D01*
X350504Y185373D01*
X350519Y185381D01*
X350536Y185387D01*
X350696Y185477D01*
X350858Y185565D01*
X350871Y185576D01*
X350887Y185585D01*
X351026Y185705D01*
X351167Y185822D01*
X351178Y185836D01*
X351192Y185848D01*
X351304Y185993D01*
X351419Y186136D01*
X351427Y186152D01*
X351438Y186166D01*
X351520Y186331D01*
X351605Y186493D01*
X351610Y186510D01*
X351618Y186526D01*
X351665Y186705D01*
X351716Y186880D01*
X351718Y186898D01*
X351722Y186915D01*
X351749Y187246D01*
X351749Y192182D01*
X351747Y192200D01*
X351749Y192217D01*
X351728Y192400D01*
X351709Y192582D01*
X351704Y192599D01*
X351702Y192617D01*
X351645Y192792D01*
X351591Y192967D01*
X351583Y192983D01*
X351577Y193000D01*
X351487Y193160D01*
X351399Y193321D01*
X351388Y193335D01*
X351379Y193351D01*
X351259Y193490D01*
X351142Y193631D01*
X351128Y193642D01*
X351116Y193655D01*
X350971Y193768D01*
X350828Y193883D01*
X350812Y193891D01*
X350798Y193902D01*
X350633Y193984D01*
X350606Y193998D01*
X350551Y194096D01*
X350463Y194258D01*
X350452Y194271D01*
X350443Y194287D01*
X350323Y194426D01*
X350205Y194567D01*
X350192Y194578D01*
X350180Y194592D01*
X350035Y194704D01*
X349892Y194819D01*
X349876Y194827D01*
X349862Y194838D01*
X349697Y194920D01*
X349534Y195005D01*
X349517Y195010D01*
X349501Y195018D01*
X349323Y195065D01*
X349148Y195116D01*
X349130Y195118D01*
X349113Y195122D01*
X348782Y195149D01*
X341709Y195149D01*
X341709Y198485D01*
X341882Y199131D01*
X342217Y199710D01*
X342690Y200183D01*
X343109Y200425D01*
X343168Y200468D01*
X343233Y200503D01*
X343331Y200585D01*
X343436Y200660D01*
X343486Y200713D01*
X343542Y200760D01*
X343623Y200860D01*
X343710Y200954D01*
X343748Y201017D01*
X343794Y201074D01*
X343853Y201188D01*
X343921Y201298D01*
X343946Y201366D01*
X343980Y201431D01*
X344015Y201555D01*
X344060Y201675D01*
X344071Y201748D01*
X344091Y201818D01*
X344102Y201947D01*
X344121Y202073D01*
X344118Y202146D01*
X344124Y202220D01*
X344109Y202347D01*
X344103Y202475D01*
X344086Y202547D01*
X344077Y202619D01*
X344037Y202742D01*
X344006Y202866D01*
X343975Y202932D01*
X343952Y203002D01*
X343889Y203114D01*
X343834Y203230D01*
X343791Y203289D01*
X343754Y203353D01*
X343671Y203450D01*
X343594Y203553D01*
X343539Y203602D01*
X343491Y203658D01*
X343390Y203736D01*
X343294Y203822D01*
X343231Y203859D01*
X343173Y203904D01*
X343058Y203961D01*
X342948Y204027D01*
X342878Y204051D01*
X342813Y204084D01*
X342689Y204117D01*
X342567Y204159D01*
X342495Y204169D01*
X342424Y204188D01*
X342255Y204202D01*
X342168Y204214D01*
X342135Y204212D01*
X342093Y204215D01*
X333457Y204215D01*
X331496Y205027D01*
X329903Y206621D01*
X329796Y206709D01*
X329693Y206803D01*
X329640Y206836D01*
X329592Y206876D01*
X329469Y206941D01*
X329350Y207013D01*
X329291Y207035D01*
X329236Y207064D01*
X329102Y207104D01*
X328972Y207152D01*
X328910Y207161D01*
X328850Y207179D01*
X328711Y207192D01*
X328574Y207213D01*
X328511Y207210D01*
X328449Y207215D01*
X328311Y207200D01*
X328172Y207194D01*
X328111Y207179D01*
X328049Y207172D01*
X327916Y207130D01*
X327781Y207096D01*
X327725Y207069D01*
X327665Y207050D01*
X327543Y206983D01*
X327417Y206923D01*
X327367Y206886D01*
X327313Y206856D01*
X327206Y206766D01*
X327095Y206682D01*
X327053Y206636D01*
X327006Y206595D01*
X326919Y206486D01*
X326826Y206382D01*
X326795Y206328D01*
X326756Y206279D01*
X326693Y206155D01*
X326622Y206035D01*
X326602Y205976D01*
X326574Y205920D01*
X326536Y205786D01*
X326491Y205655D01*
X326482Y205593D01*
X326466Y205532D01*
X326455Y205394D01*
X326437Y205256D01*
X326441Y205193D01*
X326436Y205131D01*
X326454Y204993D01*
X326463Y204854D01*
X326480Y204785D01*
X326487Y204731D01*
X326512Y204655D01*
X326543Y204532D01*
X327519Y201652D01*
X327558Y201566D01*
X327588Y201477D01*
X327641Y201383D01*
X327686Y201285D01*
X327741Y201209D01*
X327787Y201127D01*
X327858Y201046D01*
X327921Y200958D01*
X327990Y200895D01*
X328052Y200824D01*
X328137Y200758D01*
X328217Y200685D01*
X328297Y200636D01*
X328371Y200578D01*
X328460Y200533D01*
X331054Y197939D01*
X332439Y194596D01*
X332439Y190976D01*
X331054Y187633D01*
X330919Y187498D01*
X330908Y187484D01*
X330894Y187473D01*
X330780Y187329D01*
X330664Y187187D01*
X330655Y187171D01*
X330644Y187157D01*
X330561Y186994D01*
X330475Y186831D01*
X330470Y186814D01*
X330462Y186798D01*
X330413Y186621D01*
X330360Y186445D01*
X330359Y186427D01*
X330354Y186410D01*
X330341Y186227D01*
X330324Y186044D01*
X330326Y186026D01*
X330325Y186009D01*
X330348Y185826D01*
X330367Y185644D01*
X330373Y185627D01*
X330375Y185609D01*
X330434Y185435D01*
X330489Y185260D01*
X330498Y185244D01*
X330503Y185227D01*
X330595Y185068D01*
X330684Y184908D01*
X330695Y184894D01*
X330704Y184879D01*
X330919Y184626D01*
X336718Y178827D01*
X336725Y178821D01*
X336730Y178814D01*
X336880Y178694D01*
X337029Y178572D01*
X337037Y178567D01*
X337044Y178562D01*
X337215Y178473D01*
X337385Y178383D01*
X337393Y178381D01*
X337401Y178376D01*
X337587Y178323D01*
X337771Y178268D01*
X337780Y178267D01*
X337788Y178265D01*
X337980Y178249D01*
X338172Y178232D01*
X338181Y178233D01*
G37*
G36*
X435125Y164087D02*
X435125Y164087D01*
X435152Y164085D01*
X435326Y164107D01*
X435500Y164125D01*
X435525Y164132D01*
X435552Y164136D01*
X435717Y164191D01*
X435884Y164243D01*
X435908Y164256D01*
X435933Y164264D01*
X436085Y164351D01*
X436238Y164435D01*
X436259Y164452D01*
X436282Y164465D01*
X436535Y164680D01*
X442578Y170723D01*
X442592Y170740D01*
X442609Y170754D01*
X442719Y170895D01*
X442833Y171034D01*
X442844Y171054D01*
X442857Y171071D01*
X442938Y171231D01*
X443022Y171390D01*
X443028Y171411D01*
X443038Y171431D01*
X443085Y171604D01*
X443137Y171776D01*
X443139Y171798D01*
X443144Y171819D01*
X443157Y171998D01*
X443173Y172177D01*
X443171Y172199D01*
X443172Y172221D01*
X443149Y172399D01*
X443130Y172577D01*
X443123Y172598D01*
X443120Y172620D01*
X443018Y172936D01*
X441753Y175991D01*
X441753Y179610D01*
X443138Y182953D01*
X445697Y185512D01*
X447059Y186076D01*
X447071Y186082D01*
X447084Y186086D01*
X447248Y186177D01*
X447414Y186266D01*
X447425Y186275D01*
X447436Y186281D01*
X447579Y186402D01*
X447725Y186523D01*
X447733Y186533D01*
X447743Y186542D01*
X447860Y186690D01*
X447978Y186835D01*
X447985Y186847D01*
X447993Y186858D01*
X448078Y187026D01*
X448165Y187192D01*
X448169Y187205D01*
X448175Y187217D01*
X448226Y187398D01*
X448279Y187578D01*
X448280Y187592D01*
X448283Y187605D01*
X448297Y187793D01*
X448313Y187979D01*
X448312Y187993D01*
X448313Y188006D01*
X448289Y188193D01*
X448268Y188379D01*
X448264Y188392D01*
X448262Y188406D01*
X448203Y188583D01*
X448145Y188763D01*
X448138Y188775D01*
X448134Y188787D01*
X448040Y188950D01*
X447949Y189114D01*
X447940Y189124D01*
X447933Y189136D01*
X447718Y189389D01*
X445171Y191936D01*
X445150Y191953D01*
X445133Y191974D01*
X444995Y192081D01*
X444860Y192191D01*
X444836Y192204D01*
X444815Y192220D01*
X444658Y192298D01*
X444504Y192380D01*
X444478Y192388D01*
X444454Y192400D01*
X444285Y192445D01*
X444118Y192495D01*
X444091Y192497D01*
X444066Y192504D01*
X443735Y192531D01*
X436073Y192531D01*
X435799Y192645D01*
X435786Y192648D01*
X435775Y192655D01*
X435594Y192706D01*
X435414Y192761D01*
X435401Y192762D01*
X435388Y192766D01*
X435199Y192781D01*
X435013Y192799D01*
X435000Y192798D01*
X434986Y192799D01*
X434800Y192777D01*
X434613Y192758D01*
X434600Y192754D01*
X434587Y192752D01*
X434408Y192694D01*
X434228Y192638D01*
X434217Y192631D01*
X434204Y192627D01*
X434040Y192534D01*
X433875Y192444D01*
X433865Y192436D01*
X433853Y192429D01*
X433711Y192306D01*
X433567Y192185D01*
X433559Y192175D01*
X433548Y192166D01*
X433434Y192018D01*
X433316Y191871D01*
X433310Y191859D01*
X433302Y191848D01*
X433218Y191680D01*
X433132Y191512D01*
X433128Y191499D01*
X433122Y191487D01*
X433073Y191305D01*
X433022Y191125D01*
X433021Y191112D01*
X433018Y191099D01*
X432991Y190768D01*
X432991Y186815D01*
X432775Y186010D01*
X432760Y185920D01*
X432736Y185832D01*
X432728Y185722D01*
X432710Y185613D01*
X432713Y185522D01*
X432706Y185431D01*
X432720Y185321D01*
X432724Y185210D01*
X432745Y185122D01*
X432757Y185031D01*
X432792Y184926D01*
X432818Y184819D01*
X432856Y184736D01*
X432885Y184650D01*
X432940Y184554D01*
X432987Y184453D01*
X433040Y184380D01*
X433086Y184301D01*
X433175Y184196D01*
X433224Y184128D01*
X433260Y184096D01*
X433301Y184048D01*
X433896Y183452D01*
X434515Y181959D01*
X434515Y169341D01*
X433896Y167848D01*
X433601Y167552D01*
X433595Y167545D01*
X433588Y167540D01*
X433468Y167390D01*
X433346Y167241D01*
X433341Y167233D01*
X433336Y167226D01*
X433247Y167056D01*
X433157Y166885D01*
X433154Y166876D01*
X433150Y166869D01*
X433098Y166685D01*
X433042Y166499D01*
X433041Y166490D01*
X433039Y166482D01*
X433023Y166291D01*
X433006Y166098D01*
X433007Y166089D01*
X433006Y166080D01*
X433028Y165891D01*
X433049Y165698D01*
X433052Y165689D01*
X433053Y165681D01*
X433113Y165498D01*
X433171Y165314D01*
X433175Y165306D01*
X433178Y165298D01*
X433273Y165129D01*
X433366Y164962D01*
X433371Y164955D01*
X433376Y164947D01*
X433501Y164802D01*
X433626Y164655D01*
X433633Y164649D01*
X433639Y164642D01*
X433790Y164525D01*
X433942Y164405D01*
X433950Y164401D01*
X433957Y164396D01*
X434129Y164310D01*
X434301Y164223D01*
X434309Y164220D01*
X434317Y164216D01*
X434505Y164166D01*
X434689Y164115D01*
X434698Y164114D01*
X434706Y164112D01*
X435037Y164085D01*
X435099Y164085D01*
X435125Y164087D01*
G37*
G36*
X359792Y64518D02*
X359792Y64518D01*
X359805Y64517D01*
X359991Y64538D01*
X360179Y64557D01*
X360192Y64561D01*
X360205Y64562D01*
X360383Y64619D01*
X360564Y64675D01*
X360576Y64681D01*
X360588Y64685D01*
X360752Y64777D01*
X360918Y64867D01*
X360928Y64875D01*
X360940Y64882D01*
X361083Y65004D01*
X361227Y65124D01*
X361235Y65135D01*
X361246Y65143D01*
X361362Y65292D01*
X361479Y65438D01*
X361485Y65450D01*
X361494Y65460D01*
X361579Y65630D01*
X361665Y65795D01*
X361668Y65808D01*
X361675Y65820D01*
X361724Y66003D01*
X361776Y66182D01*
X361777Y66196D01*
X361781Y66209D01*
X361794Y66397D01*
X361809Y66584D01*
X361808Y66597D01*
X361808Y66610D01*
X361784Y66798D01*
X361762Y66983D01*
X361758Y66996D01*
X361756Y67009D01*
X361655Y67325D01*
X360727Y69565D01*
X360727Y73184D01*
X362209Y76761D01*
X362213Y76774D01*
X362219Y76786D01*
X362271Y76966D01*
X362326Y77146D01*
X362327Y77160D01*
X362331Y77173D01*
X362346Y77360D01*
X362364Y77547D01*
X362362Y77560D01*
X362363Y77574D01*
X362341Y77761D01*
X362322Y77948D01*
X362318Y77960D01*
X362316Y77974D01*
X362258Y78153D01*
X362202Y78332D01*
X362196Y78344D01*
X362192Y78356D01*
X362099Y78521D01*
X362009Y78685D01*
X362000Y78695D01*
X361994Y78707D01*
X361871Y78849D01*
X361750Y78993D01*
X361739Y79002D01*
X361731Y79012D01*
X361582Y79127D01*
X361435Y79244D01*
X361423Y79250D01*
X361412Y79259D01*
X361244Y79342D01*
X361077Y79428D01*
X361064Y79432D01*
X361052Y79438D01*
X360915Y79475D01*
X360890Y79565D01*
X360880Y79585D01*
X360873Y79606D01*
X360788Y79764D01*
X360706Y79923D01*
X360691Y79943D01*
X360682Y79960D01*
X360631Y80020D01*
X360503Y80186D01*
X360503Y80187D01*
X360460Y80225D01*
X360424Y80269D01*
X360311Y80360D01*
X360204Y80456D01*
X360154Y80486D01*
X360110Y80522D01*
X359982Y80588D01*
X359857Y80662D01*
X359803Y80681D01*
X359752Y80707D01*
X359614Y80747D01*
X359477Y80795D01*
X359421Y80803D01*
X359366Y80818D01*
X359222Y80830D01*
X359079Y80850D01*
X359021Y80847D01*
X358964Y80851D01*
X358821Y80835D01*
X358677Y80826D01*
X358621Y80811D01*
X358564Y80804D01*
X358427Y80760D01*
X358288Y80723D01*
X358236Y80697D01*
X358182Y80680D01*
X358056Y80609D01*
X357926Y80545D01*
X357881Y80510D01*
X357831Y80482D01*
X357722Y80388D01*
X357607Y80299D01*
X357570Y80256D01*
X357526Y80219D01*
X357438Y80104D01*
X357343Y79996D01*
X357315Y79946D01*
X357280Y79900D01*
X357215Y79771D01*
X357210Y79761D01*
X357204Y79763D01*
X356556Y80137D01*
X356027Y80666D01*
X355653Y81314D01*
X355459Y82036D01*
X355459Y84994D01*
X355457Y85012D01*
X355459Y85030D01*
X355438Y85212D01*
X355419Y85395D01*
X355414Y85412D01*
X355412Y85430D01*
X355355Y85604D01*
X355301Y85780D01*
X355293Y85795D01*
X355287Y85812D01*
X355197Y85973D01*
X355109Y86134D01*
X355098Y86147D01*
X355089Y86163D01*
X354969Y86302D01*
X354852Y86443D01*
X354838Y86454D01*
X354826Y86468D01*
X354681Y86580D01*
X354538Y86695D01*
X354522Y86704D01*
X354508Y86715D01*
X354343Y86797D01*
X354181Y86881D01*
X354164Y86886D01*
X354148Y86894D01*
X353969Y86942D01*
X353794Y86992D01*
X353776Y86994D01*
X353759Y86998D01*
X353428Y87025D01*
X351028Y87025D01*
X351010Y87024D01*
X350992Y87025D01*
X350810Y87004D01*
X350627Y86986D01*
X350610Y86980D01*
X350593Y86978D01*
X350418Y86921D01*
X350242Y86867D01*
X350227Y86859D01*
X350210Y86853D01*
X350050Y86763D01*
X349888Y86676D01*
X349875Y86664D01*
X349859Y86656D01*
X349720Y86535D01*
X349579Y86418D01*
X349568Y86404D01*
X349554Y86392D01*
X349442Y86247D01*
X349327Y86104D01*
X349319Y86088D01*
X349308Y86074D01*
X349226Y85909D01*
X349141Y85747D01*
X349136Y85730D01*
X349128Y85714D01*
X349081Y85536D01*
X349030Y85360D01*
X349028Y85342D01*
X349024Y85325D01*
X348997Y84994D01*
X348997Y66548D01*
X348999Y66530D01*
X348997Y66512D01*
X349018Y66330D01*
X349037Y66147D01*
X349042Y66130D01*
X349044Y66113D01*
X349101Y65938D01*
X349155Y65762D01*
X349163Y65747D01*
X349169Y65730D01*
X349259Y65570D01*
X349347Y65408D01*
X349358Y65395D01*
X349367Y65379D01*
X349487Y65240D01*
X349604Y65099D01*
X349618Y65088D01*
X349630Y65074D01*
X349775Y64962D01*
X349918Y64847D01*
X349934Y64839D01*
X349948Y64828D01*
X350113Y64746D01*
X350275Y64661D01*
X350292Y64656D01*
X350308Y64648D01*
X350487Y64601D01*
X350662Y64550D01*
X350680Y64548D01*
X350697Y64544D01*
X351028Y64517D01*
X359778Y64517D01*
X359792Y64518D01*
G37*
%LPC*%
G36*
X385063Y96759D02*
X385063Y96759D01*
X385063Y110237D01*
X397507Y110237D01*
X397516Y110238D01*
X397525Y110237D01*
X397716Y110258D01*
X397908Y110277D01*
X397916Y110279D01*
X397925Y110280D01*
X398107Y110338D01*
X398292Y110395D01*
X398300Y110399D01*
X398309Y110402D01*
X398477Y110495D01*
X398646Y110587D01*
X398653Y110592D01*
X398661Y110597D01*
X398801Y110715D01*
X398768Y110649D01*
X398682Y110482D01*
X398679Y110469D01*
X398672Y110457D01*
X398624Y110275D01*
X398572Y110095D01*
X398571Y110081D01*
X398568Y110068D01*
X398541Y109738D01*
X398541Y99617D01*
X398316Y98780D01*
X397883Y98029D01*
X397271Y97417D01*
X396520Y96984D01*
X395683Y96759D01*
X385063Y96759D01*
G37*
%LPD*%
G36*
X353446Y141570D02*
X353446Y141570D01*
X353464Y141568D01*
X353646Y141590D01*
X353829Y141608D01*
X353846Y141613D01*
X353863Y141615D01*
X354038Y141672D01*
X354214Y141726D01*
X354229Y141734D01*
X354246Y141740D01*
X354406Y141830D01*
X354568Y141918D01*
X354581Y141929D01*
X354597Y141938D01*
X354736Y142058D01*
X354877Y142176D01*
X354888Y142189D01*
X354902Y142201D01*
X355014Y142346D01*
X355129Y142489D01*
X355137Y142505D01*
X355148Y142519D01*
X355230Y142684D01*
X355315Y142847D01*
X355320Y142864D01*
X355328Y142880D01*
X355375Y143058D01*
X355426Y143233D01*
X355428Y143251D01*
X355432Y143268D01*
X355459Y143599D01*
X355459Y146684D01*
X355693Y147556D01*
X355706Y147637D01*
X355729Y147716D01*
X355739Y147836D01*
X355758Y147954D01*
X355755Y148036D01*
X355762Y148118D01*
X355748Y148236D01*
X355744Y148356D01*
X355725Y148436D01*
X355715Y148517D01*
X355678Y148631D01*
X355650Y148748D01*
X355616Y148822D01*
X355590Y148900D01*
X355531Y149004D01*
X355481Y149113D01*
X355433Y149179D01*
X355392Y149251D01*
X355314Y149341D01*
X355243Y149438D01*
X355183Y149493D01*
X355129Y149556D01*
X355035Y149629D01*
X354946Y149710D01*
X354876Y149752D01*
X354811Y149802D01*
X354704Y149856D01*
X354601Y149917D01*
X354524Y149945D01*
X354450Y149982D01*
X354335Y150013D01*
X354222Y150053D01*
X354141Y150065D01*
X354062Y150086D01*
X353910Y150099D01*
X353824Y150111D01*
X353783Y150109D01*
X353731Y150113D01*
X344935Y150113D01*
X344926Y150112D01*
X344917Y150113D01*
X344725Y150092D01*
X344534Y150073D01*
X344526Y150071D01*
X344517Y150070D01*
X344335Y150012D01*
X344150Y149955D01*
X344142Y149951D01*
X344133Y149948D01*
X343963Y149854D01*
X343795Y149763D01*
X343789Y149758D01*
X343781Y149753D01*
X343633Y149628D01*
X343486Y149506D01*
X343481Y149499D01*
X343474Y149493D01*
X343355Y149342D01*
X343234Y149192D01*
X343230Y149184D01*
X343224Y149177D01*
X343137Y149006D01*
X343048Y148835D01*
X343046Y148826D01*
X343042Y148818D01*
X342990Y148633D01*
X342937Y148448D01*
X342936Y148439D01*
X342934Y148430D01*
X342920Y148237D01*
X342904Y148046D01*
X342905Y148038D01*
X342904Y148029D01*
X342929Y147836D01*
X342951Y147647D01*
X342954Y147638D01*
X342955Y147629D01*
X343016Y147446D01*
X343076Y147264D01*
X343080Y147256D01*
X343083Y147248D01*
X343178Y147082D01*
X343274Y146913D01*
X343280Y146906D01*
X343284Y146899D01*
X343499Y146646D01*
X344412Y145732D01*
X345225Y143771D01*
X345225Y143599D01*
X345226Y143581D01*
X345225Y143564D01*
X345246Y143381D01*
X345264Y143199D01*
X345270Y143182D01*
X345272Y143164D01*
X345329Y142989D01*
X345383Y142814D01*
X345391Y142798D01*
X345397Y142781D01*
X345487Y142621D01*
X345574Y142460D01*
X345586Y142446D01*
X345594Y142430D01*
X345715Y142291D01*
X345832Y142150D01*
X345846Y142139D01*
X345858Y142126D01*
X346003Y142013D01*
X346146Y141898D01*
X346162Y141890D01*
X346176Y141879D01*
X346341Y141797D01*
X346503Y141713D01*
X346520Y141708D01*
X346536Y141700D01*
X346714Y141652D01*
X346890Y141601D01*
X346908Y141600D01*
X346925Y141595D01*
X347256Y141568D01*
X353428Y141568D01*
X353446Y141570D01*
G37*
G36*
X287344Y92737D02*
X287344Y92737D01*
X287459Y92742D01*
X287544Y92762D01*
X287630Y92773D01*
X287739Y92810D01*
X287850Y92837D01*
X287929Y92874D01*
X288012Y92902D01*
X288111Y92959D01*
X288215Y93007D01*
X288285Y93059D01*
X288361Y93103D01*
X288471Y93196D01*
X288539Y93246D01*
X288569Y93279D01*
X288614Y93317D01*
X289220Y93924D01*
X291838Y96542D01*
X291844Y96549D01*
X291851Y96554D01*
X291971Y96704D01*
X292093Y96853D01*
X292097Y96861D01*
X292103Y96868D01*
X292191Y97038D01*
X292282Y97209D01*
X292284Y97218D01*
X292288Y97225D01*
X292341Y97410D01*
X292397Y97595D01*
X292397Y97604D01*
X292400Y97612D01*
X292415Y97803D01*
X292433Y97996D01*
X292432Y98005D01*
X292433Y98014D01*
X292410Y98203D01*
X292390Y98396D01*
X292387Y98405D01*
X292386Y98413D01*
X292326Y98595D01*
X292324Y98602D01*
X292324Y107357D01*
X292322Y107375D01*
X292324Y107392D01*
X292303Y107575D01*
X292284Y107757D01*
X292279Y107774D01*
X292277Y107792D01*
X292220Y107967D01*
X292166Y108142D01*
X292158Y108158D01*
X292152Y108175D01*
X292062Y108335D01*
X291974Y108496D01*
X291963Y108510D01*
X291954Y108526D01*
X291834Y108665D01*
X291717Y108806D01*
X291703Y108817D01*
X291691Y108830D01*
X291546Y108943D01*
X291403Y109058D01*
X291387Y109066D01*
X291373Y109077D01*
X291208Y109159D01*
X291046Y109243D01*
X291029Y109248D01*
X291013Y109256D01*
X290834Y109304D01*
X290659Y109355D01*
X290641Y109356D01*
X290624Y109361D01*
X290293Y109388D01*
X289107Y109388D01*
X289089Y109386D01*
X289071Y109388D01*
X288889Y109366D01*
X288706Y109348D01*
X288689Y109343D01*
X288672Y109341D01*
X288497Y109284D01*
X288321Y109230D01*
X288306Y109222D01*
X288289Y109216D01*
X288129Y109126D01*
X287967Y109038D01*
X287954Y109027D01*
X287938Y109018D01*
X287799Y108898D01*
X287658Y108780D01*
X287647Y108767D01*
X287633Y108755D01*
X287521Y108610D01*
X287406Y108467D01*
X287398Y108451D01*
X287387Y108437D01*
X287304Y108271D01*
X287220Y108109D01*
X287215Y108092D01*
X287207Y108076D01*
X287159Y107898D01*
X287109Y107723D01*
X287107Y107705D01*
X287103Y107688D01*
X287076Y107357D01*
X287076Y99974D01*
X287025Y99969D01*
X286889Y99928D01*
X286752Y99894D01*
X286698Y99869D01*
X286640Y99851D01*
X286515Y99784D01*
X286387Y99724D01*
X286339Y99688D01*
X286286Y99659D01*
X286177Y99569D01*
X286063Y99485D01*
X286023Y99440D01*
X285976Y99402D01*
X285888Y99292D01*
X285793Y99187D01*
X285762Y99135D01*
X285724Y99088D01*
X285659Y98963D01*
X285586Y98841D01*
X285566Y98784D01*
X285539Y98731D01*
X285499Y98595D01*
X285452Y98461D01*
X285441Y98393D01*
X285427Y98344D01*
X285420Y98262D01*
X285400Y98134D01*
X285152Y94909D01*
X285154Y94822D01*
X285146Y94736D01*
X285158Y94622D01*
X285161Y94507D01*
X285180Y94422D01*
X285189Y94335D01*
X285224Y94226D01*
X285249Y94114D01*
X285285Y94034D01*
X285311Y93952D01*
X285366Y93851D01*
X285413Y93746D01*
X285464Y93675D01*
X285506Y93599D01*
X285580Y93512D01*
X285647Y93418D01*
X285710Y93358D01*
X285766Y93292D01*
X285856Y93221D01*
X285940Y93142D01*
X286014Y93097D01*
X286082Y93043D01*
X286185Y92991D01*
X286282Y92930D01*
X286364Y92900D01*
X286441Y92860D01*
X286552Y92829D01*
X286659Y92789D01*
X286745Y92776D01*
X286829Y92752D01*
X286944Y92744D01*
X287057Y92726D01*
X287144Y92729D01*
X287231Y92723D01*
X287344Y92737D01*
G37*
%LPC*%
G36*
X33035Y118065D02*
X33035Y118065D01*
X33035Y129090D01*
X34196Y128779D01*
X36041Y128014D01*
X37771Y127015D01*
X39357Y125799D01*
X40769Y124387D01*
X41985Y122801D01*
X42984Y121071D01*
X43749Y119226D01*
X44060Y118065D01*
X33035Y118065D01*
G37*
%LPD*%
%LPC*%
G36*
X33035Y110567D02*
X33035Y110567D01*
X44060Y110567D01*
X43749Y109406D01*
X42984Y107561D01*
X41985Y105831D01*
X40769Y104245D01*
X39357Y102833D01*
X37771Y101617D01*
X36041Y100618D01*
X34196Y99853D01*
X33035Y99542D01*
X33035Y110567D01*
G37*
%LPD*%
%LPC*%
G36*
X14512Y118065D02*
X14512Y118065D01*
X14823Y119226D01*
X15588Y121071D01*
X16587Y122801D01*
X17803Y124387D01*
X19215Y125799D01*
X20801Y127015D01*
X22531Y128014D01*
X24376Y128779D01*
X25537Y129090D01*
X25537Y118065D01*
X14512Y118065D01*
G37*
%LPD*%
%LPC*%
G36*
X24376Y99853D02*
X24376Y99853D01*
X22531Y100618D01*
X20801Y101617D01*
X19215Y102833D01*
X17803Y104245D01*
X16587Y105831D01*
X15588Y107561D01*
X14823Y109406D01*
X14512Y110567D01*
X25537Y110567D01*
X25537Y99542D01*
X24376Y99853D01*
G37*
%LPD*%
%LPC*%
G36*
X463599Y104349D02*
X463599Y104349D01*
X463599Y110678D01*
X463597Y110696D01*
X463599Y110714D01*
X463578Y110896D01*
X463559Y111079D01*
X463554Y111096D01*
X463552Y111113D01*
X463495Y111288D01*
X463441Y111464D01*
X463433Y111479D01*
X463427Y111496D01*
X463337Y111656D01*
X463249Y111818D01*
X463238Y111831D01*
X463229Y111847D01*
X463109Y111986D01*
X462992Y112127D01*
X462978Y112138D01*
X462966Y112152D01*
X462821Y112264D01*
X462678Y112379D01*
X462662Y112387D01*
X462648Y112398D01*
X462483Y112480D01*
X462321Y112565D01*
X462304Y112570D01*
X462288Y112578D01*
X462224Y112595D01*
X462224Y118026D01*
X467391Y118026D01*
X467391Y114915D01*
X467218Y114269D01*
X466832Y113601D01*
X466824Y113585D01*
X466814Y113570D01*
X466742Y113402D01*
X466666Y113234D01*
X466662Y113217D01*
X466655Y113200D01*
X466617Y113021D01*
X466576Y112842D01*
X466575Y112824D01*
X466572Y112806D01*
X466570Y112623D01*
X466565Y112439D01*
X466568Y112422D01*
X466568Y112404D01*
X466602Y112224D01*
X466634Y112043D01*
X466640Y112026D01*
X466643Y112008D01*
X466713Y111838D01*
X466779Y111667D01*
X466789Y111652D01*
X466795Y111636D01*
X466897Y111482D01*
X466996Y111328D01*
X467008Y111315D01*
X467018Y111300D01*
X467148Y111170D01*
X467275Y111038D01*
X467290Y111028D01*
X467302Y111015D01*
X467575Y110826D01*
X467910Y110633D01*
X468383Y110160D01*
X468718Y109581D01*
X468891Y108935D01*
X468891Y104349D01*
X463599Y104349D01*
G37*
%LPD*%
%LPC*%
G36*
X462224Y85174D02*
X462224Y85174D01*
X462224Y90609D01*
X462354Y90649D01*
X462369Y90657D01*
X462386Y90663D01*
X462546Y90753D01*
X462708Y90840D01*
X462721Y90852D01*
X462737Y90861D01*
X462876Y90981D01*
X463017Y91098D01*
X463028Y91112D01*
X463042Y91124D01*
X463154Y91269D01*
X463269Y91412D01*
X463277Y91428D01*
X463288Y91442D01*
X463370Y91607D01*
X463455Y91769D01*
X463460Y91786D01*
X463468Y91802D01*
X463515Y91981D01*
X463566Y92156D01*
X463568Y92174D01*
X463572Y92191D01*
X463599Y92522D01*
X463599Y98851D01*
X468891Y98851D01*
X468891Y94265D01*
X468718Y93619D01*
X468383Y93040D01*
X467910Y92567D01*
X467575Y92374D01*
X467561Y92363D01*
X467545Y92356D01*
X467397Y92246D01*
X467248Y92139D01*
X467236Y92126D01*
X467222Y92115D01*
X467099Y91978D01*
X466974Y91844D01*
X466965Y91829D01*
X466953Y91816D01*
X466859Y91657D01*
X466763Y91501D01*
X466757Y91484D01*
X466748Y91469D01*
X466688Y91296D01*
X466624Y91123D01*
X466622Y91105D01*
X466616Y91089D01*
X466591Y90906D01*
X466563Y90725D01*
X466563Y90708D01*
X466561Y90690D01*
X466573Y90505D01*
X466581Y90323D01*
X466585Y90306D01*
X466586Y90288D01*
X466633Y90110D01*
X466678Y89932D01*
X466685Y89916D01*
X466690Y89899D01*
X466832Y89599D01*
X467218Y88931D01*
X467391Y88285D01*
X467391Y85174D01*
X462224Y85174D01*
G37*
%LPD*%
%LPC*%
G36*
X461849Y65999D02*
X461849Y65999D01*
X461849Y72406D01*
X461894Y72462D01*
X461902Y72478D01*
X461913Y72492D01*
X461995Y72657D01*
X462080Y72819D01*
X462085Y72836D01*
X462093Y72852D01*
X462140Y73031D01*
X462191Y73206D01*
X462193Y73224D01*
X462197Y73241D01*
X462224Y73572D01*
X462224Y79926D01*
X467391Y79926D01*
X467391Y76815D01*
X467218Y76169D01*
X466883Y75590D01*
X466410Y75117D01*
X465670Y74690D01*
X465552Y74605D01*
X465428Y74526D01*
X465388Y74487D01*
X465343Y74455D01*
X465244Y74348D01*
X465138Y74246D01*
X465107Y74201D01*
X465069Y74160D01*
X464992Y74035D01*
X464909Y73915D01*
X464887Y73865D01*
X464858Y73817D01*
X464808Y73680D01*
X464750Y73546D01*
X464738Y73491D01*
X464719Y73439D01*
X464697Y73295D01*
X464667Y73152D01*
X464666Y73096D01*
X464658Y73041D01*
X464664Y72896D01*
X464663Y72749D01*
X464673Y72694D01*
X464676Y72639D01*
X464711Y72497D01*
X464738Y72354D01*
X464759Y72302D01*
X464773Y72248D01*
X464835Y72116D01*
X464890Y71981D01*
X464921Y71935D01*
X464945Y71884D01*
X465032Y71767D01*
X465113Y71645D01*
X465152Y71606D01*
X465185Y71562D01*
X465294Y71464D01*
X465397Y71360D01*
X465449Y71324D01*
X465485Y71293D01*
X465557Y71250D01*
X465670Y71172D01*
X465910Y71033D01*
X466383Y70560D01*
X466718Y69981D01*
X466891Y69335D01*
X466891Y65999D01*
X461849Y65999D01*
G37*
%LPD*%
%LPC*%
G36*
X462224Y123274D02*
X462224Y123274D01*
X462224Y137076D01*
X467391Y137076D01*
X467391Y133965D01*
X467218Y133319D01*
X466883Y132740D01*
X466410Y132267D01*
X465834Y131934D01*
X465715Y131849D01*
X465592Y131770D01*
X465552Y131732D01*
X465507Y131699D01*
X465407Y131592D01*
X465302Y131491D01*
X465270Y131445D01*
X465232Y131405D01*
X465156Y131280D01*
X465073Y131160D01*
X465051Y131109D01*
X465022Y131061D01*
X464971Y130924D01*
X464913Y130790D01*
X464902Y130736D01*
X464883Y130684D01*
X464860Y130539D01*
X464830Y130396D01*
X464830Y130341D01*
X464821Y130286D01*
X464828Y130140D01*
X464826Y129993D01*
X464837Y129939D01*
X464839Y129884D01*
X464874Y129742D01*
X464902Y129598D01*
X464923Y129547D01*
X464936Y129493D01*
X464999Y129361D01*
X465054Y129225D01*
X465084Y129179D01*
X465108Y129129D01*
X465196Y129011D01*
X465276Y128890D01*
X465316Y128851D01*
X465349Y128806D01*
X465458Y128708D01*
X465561Y128605D01*
X465613Y128569D01*
X465648Y128537D01*
X465720Y128494D01*
X465834Y128416D01*
X466410Y128083D01*
X466883Y127610D01*
X467218Y127031D01*
X467391Y126385D01*
X467391Y123274D01*
X462224Y123274D01*
G37*
%LPD*%
%LPC*%
G36*
X615859Y30231D02*
X615859Y30231D01*
X615859Y39377D01*
X616116Y39337D01*
X617903Y38756D01*
X619577Y37903D01*
X621098Y36798D01*
X622426Y35470D01*
X623531Y33949D01*
X624384Y32275D01*
X624965Y30488D01*
X625005Y30231D01*
X615859Y30231D01*
G37*
%LPD*%
%LPC*%
G36*
X128015Y59689D02*
X128015Y59689D01*
X128055Y59946D01*
X128636Y61733D01*
X129489Y63407D01*
X130594Y64928D01*
X131922Y66256D01*
X133443Y67361D01*
X135117Y68214D01*
X136904Y68795D01*
X137161Y68835D01*
X137161Y59689D01*
X128015Y59689D01*
G37*
%LPD*%
%LPC*%
G36*
X282163Y176868D02*
X282163Y176868D01*
X282163Y179979D01*
X282336Y180625D01*
X282739Y181322D01*
X282777Y181405D01*
X282823Y181484D01*
X282859Y181588D01*
X282905Y181689D01*
X282925Y181778D01*
X282955Y181864D01*
X282970Y181974D01*
X282995Y182082D01*
X282998Y182173D01*
X283010Y182263D01*
X283003Y182373D01*
X283006Y182484D01*
X282991Y182574D01*
X282985Y182665D01*
X282956Y182772D01*
X282937Y182881D01*
X282904Y182966D01*
X282881Y183054D01*
X282822Y183178D01*
X282792Y183256D01*
X282766Y183297D01*
X282739Y183354D01*
X282590Y183611D01*
X282417Y184257D01*
X282417Y187368D01*
X287584Y187368D01*
X287584Y180986D01*
X287559Y180935D01*
X287474Y180773D01*
X287469Y180756D01*
X287461Y180740D01*
X287413Y180561D01*
X287363Y180386D01*
X287361Y180368D01*
X287357Y180351D01*
X287330Y180020D01*
X287330Y176868D01*
X282163Y176868D01*
G37*
%LPD*%
G36*
X377036Y150666D02*
X377036Y150666D01*
X377063Y150664D01*
X377143Y150675D01*
X378579Y150675D01*
X378729Y150690D01*
X378880Y150697D01*
X378929Y150710D01*
X378980Y150715D01*
X379124Y150759D01*
X379270Y150796D01*
X379316Y150818D01*
X379365Y150833D01*
X379497Y150905D01*
X379633Y150970D01*
X379674Y151000D01*
X379719Y151025D01*
X379834Y151121D01*
X379955Y151212D01*
X379989Y151250D01*
X380028Y151283D01*
X380122Y151400D01*
X380223Y151513D01*
X380248Y151557D01*
X380280Y151596D01*
X380350Y151730D01*
X380426Y151860D01*
X380442Y151909D01*
X380466Y151954D01*
X380507Y152098D01*
X380556Y152241D01*
X380563Y152292D01*
X380577Y152340D01*
X380590Y152491D01*
X380609Y152640D01*
X380606Y152691D01*
X380610Y152742D01*
X380593Y152891D01*
X380582Y153042D01*
X380569Y153091D01*
X380563Y153142D01*
X380516Y153285D01*
X380477Y153430D01*
X380452Y153482D01*
X380438Y153524D01*
X380396Y153599D01*
X380334Y153730D01*
X379651Y154900D01*
X379607Y154961D01*
X379549Y155057D01*
X379017Y155802D01*
X378985Y155838D01*
X378960Y155879D01*
X378853Y155990D01*
X378752Y156105D01*
X378714Y156134D01*
X378680Y156169D01*
X378554Y156256D01*
X378432Y156350D01*
X378389Y156371D01*
X378349Y156398D01*
X378126Y156499D01*
X378070Y156526D01*
X378059Y156529D01*
X378047Y156535D01*
X377893Y156590D01*
X377710Y156635D01*
X377526Y156683D01*
X377513Y156684D01*
X377502Y156687D01*
X377441Y156690D01*
X377195Y156708D01*
X373795Y156683D01*
X373789Y156683D01*
X373783Y156683D01*
X373591Y156662D01*
X373395Y156641D01*
X373389Y156639D01*
X373383Y156638D01*
X373196Y156578D01*
X373011Y156520D01*
X373006Y156517D01*
X373000Y156515D01*
X372828Y156419D01*
X372658Y156325D01*
X372653Y156321D01*
X372648Y156319D01*
X372502Y156193D01*
X372351Y156065D01*
X372347Y156061D01*
X372342Y156057D01*
X372223Y155904D01*
X372101Y155750D01*
X372098Y155744D01*
X372094Y155740D01*
X372007Y155566D01*
X371918Y155391D01*
X371916Y155385D01*
X371913Y155380D01*
X371862Y155192D01*
X371809Y155003D01*
X371809Y154997D01*
X371807Y154992D01*
X371794Y154795D01*
X371779Y154602D01*
X371780Y154596D01*
X371779Y154590D01*
X371805Y154392D01*
X371829Y154202D01*
X371831Y154197D01*
X371832Y154191D01*
X371933Y153875D01*
X372208Y153212D01*
X372208Y152706D01*
X372210Y152688D01*
X372208Y152671D01*
X372230Y152488D01*
X372248Y152306D01*
X372253Y152289D01*
X372255Y152271D01*
X372312Y152096D01*
X372366Y151921D01*
X372374Y151905D01*
X372380Y151888D01*
X372470Y151728D01*
X372558Y151567D01*
X372569Y151553D01*
X372578Y151537D01*
X372698Y151398D01*
X372815Y151257D01*
X372829Y151246D01*
X372841Y151233D01*
X372986Y151120D01*
X373129Y151005D01*
X373145Y150997D01*
X373159Y150986D01*
X373324Y150904D01*
X373486Y150820D01*
X373503Y150815D01*
X373519Y150807D01*
X373698Y150759D01*
X373873Y150708D01*
X373891Y150707D01*
X373908Y150702D01*
X374239Y150675D01*
X376888Y150675D01*
X377009Y150663D01*
X377036Y150666D01*
G37*
%LPC*%
G36*
X269449Y32759D02*
X269449Y32759D01*
X269449Y38051D01*
X276241Y38051D01*
X276241Y34965D01*
X276068Y34319D01*
X275733Y33740D01*
X275260Y33267D01*
X274681Y32932D01*
X274035Y32759D01*
X269449Y32759D01*
G37*
%LPD*%
%LPC*%
G36*
X259365Y32759D02*
X259365Y32759D01*
X258719Y32932D01*
X258140Y33267D01*
X257667Y33740D01*
X257332Y34319D01*
X257159Y34965D01*
X257159Y38051D01*
X263951Y38051D01*
X263951Y32759D01*
X259365Y32759D01*
G37*
%LPD*%
G36*
X363017Y83331D02*
X363017Y83331D01*
X363035Y83329D01*
X363218Y83351D01*
X363400Y83369D01*
X363417Y83374D01*
X363435Y83376D01*
X363610Y83433D01*
X363785Y83487D01*
X363801Y83495D01*
X363818Y83501D01*
X363978Y83591D01*
X364139Y83679D01*
X364153Y83690D01*
X364168Y83699D01*
X364308Y83819D01*
X364448Y83936D01*
X364460Y83950D01*
X364473Y83962D01*
X364586Y84107D01*
X364701Y84250D01*
X364709Y84266D01*
X364720Y84280D01*
X364802Y84445D01*
X364886Y84607D01*
X364891Y84624D01*
X364899Y84641D01*
X364947Y84819D01*
X364998Y84994D01*
X364999Y85012D01*
X365004Y85029D01*
X365031Y85360D01*
X365029Y85378D01*
X365031Y85396D01*
X365009Y85578D01*
X364991Y85761D01*
X364986Y85778D01*
X364984Y85796D01*
X364927Y85970D01*
X364873Y86146D01*
X364864Y86162D01*
X364859Y86179D01*
X364768Y86339D01*
X364681Y86500D01*
X364670Y86514D01*
X364661Y86529D01*
X364541Y86668D01*
X364423Y86809D01*
X364409Y86820D01*
X364398Y86834D01*
X364253Y86946D01*
X364110Y87062D01*
X364094Y87070D01*
X364080Y87081D01*
X363915Y87163D01*
X363752Y87247D01*
X363735Y87252D01*
X363719Y87260D01*
X363541Y87308D01*
X363365Y87358D01*
X363348Y87360D01*
X363330Y87365D01*
X363000Y87392D01*
X359000Y87392D01*
X358983Y87390D01*
X358965Y87391D01*
X358782Y87370D01*
X358600Y87352D01*
X358583Y87346D01*
X358565Y87344D01*
X358390Y87287D01*
X358215Y87234D01*
X358199Y87225D01*
X358182Y87220D01*
X358022Y87129D01*
X357861Y87042D01*
X357847Y87030D01*
X357832Y87022D01*
X357692Y86901D01*
X357552Y86784D01*
X357540Y86770D01*
X357527Y86758D01*
X357414Y86613D01*
X357299Y86470D01*
X357291Y86454D01*
X357280Y86440D01*
X357198Y86275D01*
X357114Y86113D01*
X357109Y86096D01*
X357101Y86080D01*
X357053Y85902D01*
X357002Y85726D01*
X357001Y85708D01*
X356996Y85691D01*
X356969Y85360D01*
X356971Y85342D01*
X356969Y85325D01*
X356991Y85142D01*
X357009Y84959D01*
X357014Y84942D01*
X357016Y84925D01*
X357073Y84750D01*
X357127Y84575D01*
X357136Y84559D01*
X357141Y84542D01*
X357232Y84382D01*
X357319Y84220D01*
X357330Y84207D01*
X357339Y84191D01*
X357459Y84052D01*
X357577Y83911D01*
X357591Y83900D01*
X357602Y83887D01*
X357747Y83774D01*
X357890Y83659D01*
X357906Y83651D01*
X357920Y83640D01*
X358085Y83558D01*
X358248Y83473D01*
X358265Y83468D01*
X358281Y83460D01*
X358459Y83413D01*
X358635Y83362D01*
X358652Y83361D01*
X358670Y83356D01*
X359000Y83329D01*
X363000Y83329D01*
X363017Y83331D01*
G37*
%LPC*%
G36*
X207849Y186649D02*
X207849Y186649D01*
X207849Y192191D01*
X210685Y192191D01*
X211331Y192018D01*
X211910Y191683D01*
X212383Y191210D01*
X212718Y190631D01*
X212891Y189985D01*
X212891Y186649D01*
X207849Y186649D01*
G37*
%LPD*%
%LPC*%
G36*
X207849Y176109D02*
X207849Y176109D01*
X207849Y181651D01*
X212891Y181651D01*
X212891Y178315D01*
X212718Y177669D01*
X212383Y177090D01*
X211910Y176617D01*
X211331Y176282D01*
X210685Y176109D01*
X207849Y176109D01*
G37*
%LPD*%
%LPC*%
G36*
X180809Y85049D02*
X180809Y85049D01*
X180809Y88385D01*
X180982Y89031D01*
X181317Y89610D01*
X181790Y90083D01*
X182369Y90418D01*
X183015Y90591D01*
X185851Y90591D01*
X185851Y85049D01*
X180809Y85049D01*
G37*
%LPD*%
%LPC*%
G36*
X462224Y142324D02*
X462224Y142324D01*
X462224Y147641D01*
X465185Y147641D01*
X465831Y147468D01*
X466410Y147133D01*
X466883Y146660D01*
X467218Y146081D01*
X467391Y145435D01*
X467391Y142324D01*
X462224Y142324D01*
G37*
%LPD*%
%LPC*%
G36*
X208224Y161374D02*
X208224Y161374D01*
X208224Y166691D01*
X211185Y166691D01*
X211831Y166518D01*
X212410Y166183D01*
X212883Y165710D01*
X213218Y165131D01*
X213391Y164485D01*
X213391Y161374D01*
X208224Y161374D01*
G37*
%LPD*%
%LPC*%
G36*
X208224Y150809D02*
X208224Y150809D01*
X208224Y156126D01*
X213391Y156126D01*
X213391Y153015D01*
X213218Y152369D01*
X212883Y151790D01*
X212410Y151317D01*
X211831Y150982D01*
X211185Y150809D01*
X208224Y150809D01*
G37*
%LPD*%
%LPC*%
G36*
X316174Y49209D02*
X316174Y49209D01*
X316174Y54526D01*
X321341Y54526D01*
X321341Y51415D01*
X321168Y50769D01*
X320833Y50190D01*
X320360Y49717D01*
X319781Y49382D01*
X319135Y49209D01*
X316174Y49209D01*
G37*
%LPD*%
%LPC*%
G36*
X282417Y192616D02*
X282417Y192616D01*
X282417Y195727D01*
X282590Y196373D01*
X282925Y196952D01*
X283398Y197425D01*
X283977Y197760D01*
X284623Y197933D01*
X287584Y197933D01*
X287584Y192616D01*
X282417Y192616D01*
G37*
%LPD*%
%LPC*%
G36*
X233315Y87309D02*
X233315Y87309D01*
X232669Y87482D01*
X232090Y87817D01*
X231617Y88290D01*
X231282Y88869D01*
X231109Y89515D01*
X231109Y92626D01*
X236276Y92626D01*
X236276Y87309D01*
X233315Y87309D01*
G37*
%LPD*%
%LPC*%
G36*
X380999Y114299D02*
X380999Y114299D01*
X380999Y114301D01*
X381001Y114301D01*
X381001Y114299D01*
X380999Y114299D01*
G37*
%LPD*%
D10*
X394462Y41656D03*
D11*
X440850Y101600D03*
X460850Y101600D03*
D12*
X425450Y175650D03*
X425450Y192650D03*
D13*
X256400Y95250D03*
X238900Y95250D03*
D14*
X266700Y60800D03*
X266700Y40800D03*
D13*
X307454Y174244D03*
X289954Y174244D03*
D11*
X206850Y107950D03*
X186850Y107950D03*
D13*
X205600Y133350D03*
X188100Y133350D03*
X391300Y63500D03*
X408800Y63500D03*
X307200Y107950D03*
X289700Y107950D03*
X442100Y139700D03*
X459600Y139700D03*
X296050Y57150D03*
X313550Y57150D03*
D11*
X308450Y152400D03*
X288450Y152400D03*
D13*
X307200Y133350D03*
X289700Y133350D03*
X442100Y120650D03*
X459600Y120650D03*
X307708Y189992D03*
X290208Y189992D03*
D11*
X257650Y114300D03*
X237650Y114300D03*
D13*
X442100Y82550D03*
X459600Y82550D03*
D12*
X349250Y175650D03*
X349250Y192650D03*
D15*
X29286Y114316D03*
D16*
X79286Y138316D03*
X79286Y90316D03*
X79286Y63316D03*
X79286Y165316D03*
D17*
X237671Y164972D03*
X257650Y165000D03*
D18*
X247650Y159100D03*
X247650Y170900D03*
D17*
X156029Y89028D03*
X136050Y89000D03*
D18*
X146050Y94900D03*
X146050Y83100D03*
D17*
X156029Y184278D03*
X136050Y184250D03*
D18*
X146050Y190150D03*
X146050Y178350D03*
D19*
X425450Y49650D03*
X425450Y64650D03*
D20*
X139700Y57150D03*
X165100Y57150D03*
D21*
X247650Y186690D02*
X247650Y194310D01*
D22*
X247650Y195580D03*
X247650Y185420D03*
D23*
X161050Y120650D03*
X131050Y120650D03*
X161050Y152400D03*
X131050Y152400D03*
D12*
X459350Y63500D03*
X442350Y63500D03*
X188350Y82550D03*
X205350Y82550D03*
X353450Y38100D03*
X370450Y38100D03*
X205350Y184150D03*
X188350Y184150D03*
X306950Y82550D03*
X289950Y82550D03*
D13*
X205600Y158750D03*
X188100Y158750D03*
D24*
X366750Y100050D02*
X395250Y100050D01*
X366750Y100050D02*
X366750Y128550D01*
X395250Y128550D01*
X395250Y100050D01*
X395250Y101549D02*
X366750Y101549D01*
X366750Y103048D02*
X395250Y103048D01*
X395250Y104547D02*
X366750Y104547D01*
X366750Y106046D02*
X395250Y106046D01*
X395250Y107545D02*
X366750Y107545D01*
X366750Y109044D02*
X395250Y109044D01*
X395250Y110543D02*
X366750Y110543D01*
X366750Y112042D02*
X395250Y112042D01*
X395250Y113541D02*
X366750Y113541D01*
X366750Y115040D02*
X395250Y115040D01*
X395250Y116539D02*
X366750Y116539D01*
X366750Y118038D02*
X395250Y118038D01*
X395250Y119537D02*
X366750Y119537D01*
X366750Y121036D02*
X395250Y121036D01*
X395250Y122535D02*
X366750Y122535D01*
X366750Y124034D02*
X395250Y124034D01*
X395250Y125533D02*
X366750Y125533D01*
X366750Y127032D02*
X395250Y127032D01*
X395250Y128531D02*
X366750Y128531D01*
D25*
X349050Y135660D02*
X349050Y137060D01*
X354950Y137060D01*
X354950Y135660D01*
X349050Y135660D01*
X349050Y136259D02*
X354950Y136259D01*
X354950Y136858D02*
X349050Y136858D01*
X349050Y133060D02*
X349050Y131660D01*
X349050Y133060D02*
X354950Y133060D01*
X354950Y131660D01*
X349050Y131660D01*
X349050Y132259D02*
X354950Y132259D01*
X354950Y132858D02*
X349050Y132858D01*
X349050Y129060D02*
X349050Y127660D01*
X349050Y129060D02*
X354950Y129060D01*
X354950Y127660D01*
X349050Y127660D01*
X349050Y128259D02*
X354950Y128259D01*
X354950Y128858D02*
X349050Y128858D01*
X349050Y125060D02*
X349050Y123660D01*
X349050Y125060D02*
X354950Y125060D01*
X354950Y123660D01*
X349050Y123660D01*
X349050Y124259D02*
X354950Y124259D01*
X354950Y124858D02*
X349050Y124858D01*
X349050Y121060D02*
X349050Y119660D01*
X349050Y121060D02*
X354950Y121060D01*
X354950Y119660D01*
X349050Y119660D01*
X349050Y120259D02*
X354950Y120259D01*
X354950Y120858D02*
X349050Y120858D01*
X349050Y117060D02*
X349050Y115660D01*
X349050Y117060D02*
X354950Y117060D01*
X354950Y115660D01*
X349050Y115660D01*
X349050Y116259D02*
X354950Y116259D01*
X354950Y116858D02*
X349050Y116858D01*
X349050Y113060D02*
X349050Y111660D01*
X349050Y113060D02*
X354950Y113060D01*
X354950Y111660D01*
X349050Y111660D01*
X349050Y112259D02*
X354950Y112259D01*
X354950Y112858D02*
X349050Y112858D01*
X349050Y109060D02*
X349050Y107660D01*
X349050Y109060D02*
X354950Y109060D01*
X354950Y107660D01*
X349050Y107660D01*
X349050Y108259D02*
X354950Y108259D01*
X354950Y108858D02*
X349050Y108858D01*
X349050Y105060D02*
X349050Y103660D01*
X349050Y105060D02*
X354950Y105060D01*
X354950Y103660D01*
X349050Y103660D01*
X349050Y104259D02*
X354950Y104259D01*
X354950Y104858D02*
X349050Y104858D01*
X349050Y101060D02*
X349050Y99660D01*
X349050Y101060D02*
X354950Y101060D01*
X354950Y99660D01*
X349050Y99660D01*
X349050Y100259D02*
X354950Y100259D01*
X354950Y100858D02*
X349050Y100858D01*
X349050Y97060D02*
X349050Y95660D01*
X349050Y97060D02*
X354950Y97060D01*
X354950Y95660D01*
X349050Y95660D01*
X349050Y96259D02*
X354950Y96259D01*
X354950Y96858D02*
X349050Y96858D01*
X349050Y93060D02*
X349050Y91660D01*
X349050Y93060D02*
X354950Y93060D01*
X354950Y91660D01*
X349050Y91660D01*
X349050Y92259D02*
X354950Y92259D01*
X354950Y92858D02*
X349050Y92858D01*
X358300Y82410D02*
X359700Y82410D01*
X358300Y82410D02*
X358300Y88310D01*
X359700Y88310D01*
X359700Y82410D01*
X359700Y83009D02*
X358300Y83009D01*
X358300Y83608D02*
X359700Y83608D01*
X359700Y84207D02*
X358300Y84207D01*
X358300Y84806D02*
X359700Y84806D01*
X359700Y85405D02*
X358300Y85405D01*
X358300Y86004D02*
X359700Y86004D01*
X359700Y86603D02*
X358300Y86603D01*
X358300Y87202D02*
X359700Y87202D01*
X359700Y87801D02*
X358300Y87801D01*
X362300Y82410D02*
X363700Y82410D01*
X362300Y82410D02*
X362300Y88310D01*
X363700Y88310D01*
X363700Y82410D01*
X363700Y83009D02*
X362300Y83009D01*
X362300Y83608D02*
X363700Y83608D01*
X363700Y84207D02*
X362300Y84207D01*
X362300Y84806D02*
X363700Y84806D01*
X363700Y85405D02*
X362300Y85405D01*
X362300Y86004D02*
X363700Y86004D01*
X363700Y86603D02*
X362300Y86603D01*
X362300Y87202D02*
X363700Y87202D01*
X363700Y87801D02*
X362300Y87801D01*
X366300Y82410D02*
X367700Y82410D01*
X366300Y82410D02*
X366300Y88310D01*
X367700Y88310D01*
X367700Y82410D01*
X367700Y83009D02*
X366300Y83009D01*
X366300Y83608D02*
X367700Y83608D01*
X367700Y84207D02*
X366300Y84207D01*
X366300Y84806D02*
X367700Y84806D01*
X367700Y85405D02*
X366300Y85405D01*
X366300Y86004D02*
X367700Y86004D01*
X367700Y86603D02*
X366300Y86603D01*
X366300Y87202D02*
X367700Y87202D01*
X367700Y87801D02*
X366300Y87801D01*
X370300Y82410D02*
X371700Y82410D01*
X370300Y82410D02*
X370300Y88310D01*
X371700Y88310D01*
X371700Y82410D01*
X371700Y83009D02*
X370300Y83009D01*
X370300Y83608D02*
X371700Y83608D01*
X371700Y84207D02*
X370300Y84207D01*
X370300Y84806D02*
X371700Y84806D01*
X371700Y85405D02*
X370300Y85405D01*
X370300Y86004D02*
X371700Y86004D01*
X371700Y86603D02*
X370300Y86603D01*
X370300Y87202D02*
X371700Y87202D01*
X371700Y87801D02*
X370300Y87801D01*
X374300Y82410D02*
X375700Y82410D01*
X374300Y82410D02*
X374300Y88310D01*
X375700Y88310D01*
X375700Y82410D01*
X375700Y83009D02*
X374300Y83009D01*
X374300Y83608D02*
X375700Y83608D01*
X375700Y84207D02*
X374300Y84207D01*
X374300Y84806D02*
X375700Y84806D01*
X375700Y85405D02*
X374300Y85405D01*
X374300Y86004D02*
X375700Y86004D01*
X375700Y86603D02*
X374300Y86603D01*
X374300Y87202D02*
X375700Y87202D01*
X375700Y87801D02*
X374300Y87801D01*
X378300Y82410D02*
X379700Y82410D01*
X378300Y82410D02*
X378300Y88310D01*
X379700Y88310D01*
X379700Y82410D01*
X379700Y83009D02*
X378300Y83009D01*
X378300Y83608D02*
X379700Y83608D01*
X379700Y84207D02*
X378300Y84207D01*
X378300Y84806D02*
X379700Y84806D01*
X379700Y85405D02*
X378300Y85405D01*
X378300Y86004D02*
X379700Y86004D01*
X379700Y86603D02*
X378300Y86603D01*
X378300Y87202D02*
X379700Y87202D01*
X379700Y87801D02*
X378300Y87801D01*
X382300Y82410D02*
X383700Y82410D01*
X382300Y82410D02*
X382300Y88310D01*
X383700Y88310D01*
X383700Y82410D01*
X383700Y83009D02*
X382300Y83009D01*
X382300Y83608D02*
X383700Y83608D01*
X383700Y84207D02*
X382300Y84207D01*
X382300Y84806D02*
X383700Y84806D01*
X383700Y85405D02*
X382300Y85405D01*
X382300Y86004D02*
X383700Y86004D01*
X383700Y86603D02*
X382300Y86603D01*
X382300Y87202D02*
X383700Y87202D01*
X383700Y87801D02*
X382300Y87801D01*
X386300Y82410D02*
X387700Y82410D01*
X386300Y82410D02*
X386300Y88310D01*
X387700Y88310D01*
X387700Y82410D01*
X387700Y83009D02*
X386300Y83009D01*
X386300Y83608D02*
X387700Y83608D01*
X387700Y84207D02*
X386300Y84207D01*
X386300Y84806D02*
X387700Y84806D01*
X387700Y85405D02*
X386300Y85405D01*
X386300Y86004D02*
X387700Y86004D01*
X387700Y86603D02*
X386300Y86603D01*
X386300Y87202D02*
X387700Y87202D01*
X387700Y87801D02*
X386300Y87801D01*
X390300Y82410D02*
X391700Y82410D01*
X390300Y82410D02*
X390300Y88310D01*
X391700Y88310D01*
X391700Y82410D01*
X391700Y83009D02*
X390300Y83009D01*
X390300Y83608D02*
X391700Y83608D01*
X391700Y84207D02*
X390300Y84207D01*
X390300Y84806D02*
X391700Y84806D01*
X391700Y85405D02*
X390300Y85405D01*
X390300Y86004D02*
X391700Y86004D01*
X391700Y86603D02*
X390300Y86603D01*
X390300Y87202D02*
X391700Y87202D01*
X391700Y87801D02*
X390300Y87801D01*
X394300Y82410D02*
X395700Y82410D01*
X394300Y82410D02*
X394300Y88310D01*
X395700Y88310D01*
X395700Y82410D01*
X395700Y83009D02*
X394300Y83009D01*
X394300Y83608D02*
X395700Y83608D01*
X395700Y84207D02*
X394300Y84207D01*
X394300Y84806D02*
X395700Y84806D01*
X395700Y85405D02*
X394300Y85405D01*
X394300Y86004D02*
X395700Y86004D01*
X395700Y86603D02*
X394300Y86603D01*
X394300Y87202D02*
X395700Y87202D01*
X395700Y87801D02*
X394300Y87801D01*
X398300Y82410D02*
X399700Y82410D01*
X398300Y82410D02*
X398300Y88310D01*
X399700Y88310D01*
X399700Y82410D01*
X399700Y83009D02*
X398300Y83009D01*
X398300Y83608D02*
X399700Y83608D01*
X399700Y84207D02*
X398300Y84207D01*
X398300Y84806D02*
X399700Y84806D01*
X399700Y85405D02*
X398300Y85405D01*
X398300Y86004D02*
X399700Y86004D01*
X399700Y86603D02*
X398300Y86603D01*
X398300Y87202D02*
X399700Y87202D01*
X399700Y87801D02*
X398300Y87801D01*
X402300Y82410D02*
X403700Y82410D01*
X402300Y82410D02*
X402300Y88310D01*
X403700Y88310D01*
X403700Y82410D01*
X403700Y83009D02*
X402300Y83009D01*
X402300Y83608D02*
X403700Y83608D01*
X403700Y84207D02*
X402300Y84207D01*
X402300Y84806D02*
X403700Y84806D01*
X403700Y85405D02*
X402300Y85405D01*
X402300Y86004D02*
X403700Y86004D01*
X403700Y86603D02*
X402300Y86603D01*
X402300Y87202D02*
X403700Y87202D01*
X403700Y87801D02*
X402300Y87801D01*
X412950Y91660D02*
X412950Y93060D01*
X412950Y91660D02*
X407050Y91660D01*
X407050Y93060D01*
X412950Y93060D01*
X412950Y92259D02*
X407050Y92259D01*
X407050Y92858D02*
X412950Y92858D01*
X412950Y95660D02*
X412950Y97060D01*
X412950Y95660D02*
X407050Y95660D01*
X407050Y97060D01*
X412950Y97060D01*
X412950Y96259D02*
X407050Y96259D01*
X407050Y96858D02*
X412950Y96858D01*
X412950Y99660D02*
X412950Y101060D01*
X412950Y99660D02*
X407050Y99660D01*
X407050Y101060D01*
X412950Y101060D01*
X412950Y100259D02*
X407050Y100259D01*
X407050Y100858D02*
X412950Y100858D01*
X412950Y103660D02*
X412950Y105060D01*
X412950Y103660D02*
X407050Y103660D01*
X407050Y105060D01*
X412950Y105060D01*
X412950Y104259D02*
X407050Y104259D01*
X407050Y104858D02*
X412950Y104858D01*
X412950Y107660D02*
X412950Y109060D01*
X412950Y107660D02*
X407050Y107660D01*
X407050Y109060D01*
X412950Y109060D01*
X412950Y108259D02*
X407050Y108259D01*
X407050Y108858D02*
X412950Y108858D01*
X412950Y111660D02*
X412950Y113060D01*
X412950Y111660D02*
X407050Y111660D01*
X407050Y113060D01*
X412950Y113060D01*
X412950Y112259D02*
X407050Y112259D01*
X407050Y112858D02*
X412950Y112858D01*
X412950Y115660D02*
X412950Y117060D01*
X412950Y115660D02*
X407050Y115660D01*
X407050Y117060D01*
X412950Y117060D01*
X412950Y116259D02*
X407050Y116259D01*
X407050Y116858D02*
X412950Y116858D01*
X412950Y119660D02*
X412950Y121060D01*
X412950Y119660D02*
X407050Y119660D01*
X407050Y121060D01*
X412950Y121060D01*
X412950Y120259D02*
X407050Y120259D01*
X407050Y120858D02*
X412950Y120858D01*
X412950Y123660D02*
X412950Y125060D01*
X412950Y123660D02*
X407050Y123660D01*
X407050Y125060D01*
X412950Y125060D01*
X412950Y124259D02*
X407050Y124259D01*
X407050Y124858D02*
X412950Y124858D01*
X412950Y127660D02*
X412950Y129060D01*
X412950Y127660D02*
X407050Y127660D01*
X407050Y129060D01*
X412950Y129060D01*
X412950Y128259D02*
X407050Y128259D01*
X407050Y128858D02*
X412950Y128858D01*
X412950Y131660D02*
X412950Y133060D01*
X412950Y131660D02*
X407050Y131660D01*
X407050Y133060D01*
X412950Y133060D01*
X412950Y132259D02*
X407050Y132259D01*
X407050Y132858D02*
X412950Y132858D01*
X412950Y135660D02*
X412950Y137060D01*
X412950Y135660D02*
X407050Y135660D01*
X407050Y137060D01*
X412950Y137060D01*
X412950Y136259D02*
X407050Y136259D01*
X407050Y136858D02*
X412950Y136858D01*
X403700Y146310D02*
X402300Y146310D01*
X403700Y146310D02*
X403700Y140410D01*
X402300Y140410D01*
X402300Y146310D01*
X402300Y141009D02*
X403700Y141009D01*
X403700Y141608D02*
X402300Y141608D01*
X402300Y142207D02*
X403700Y142207D01*
X403700Y142806D02*
X402300Y142806D01*
X402300Y143405D02*
X403700Y143405D01*
X403700Y144004D02*
X402300Y144004D01*
X402300Y144603D02*
X403700Y144603D01*
X403700Y145202D02*
X402300Y145202D01*
X402300Y145801D02*
X403700Y145801D01*
X399700Y146310D02*
X398300Y146310D01*
X399700Y146310D02*
X399700Y140410D01*
X398300Y140410D01*
X398300Y146310D01*
X398300Y141009D02*
X399700Y141009D01*
X399700Y141608D02*
X398300Y141608D01*
X398300Y142207D02*
X399700Y142207D01*
X399700Y142806D02*
X398300Y142806D01*
X398300Y143405D02*
X399700Y143405D01*
X399700Y144004D02*
X398300Y144004D01*
X398300Y144603D02*
X399700Y144603D01*
X399700Y145202D02*
X398300Y145202D01*
X398300Y145801D02*
X399700Y145801D01*
X395700Y146310D02*
X394300Y146310D01*
X395700Y146310D02*
X395700Y140410D01*
X394300Y140410D01*
X394300Y146310D01*
X394300Y141009D02*
X395700Y141009D01*
X395700Y141608D02*
X394300Y141608D01*
X394300Y142207D02*
X395700Y142207D01*
X395700Y142806D02*
X394300Y142806D01*
X394300Y143405D02*
X395700Y143405D01*
X395700Y144004D02*
X394300Y144004D01*
X394300Y144603D02*
X395700Y144603D01*
X395700Y145202D02*
X394300Y145202D01*
X394300Y145801D02*
X395700Y145801D01*
X391700Y146310D02*
X390300Y146310D01*
X391700Y146310D02*
X391700Y140410D01*
X390300Y140410D01*
X390300Y146310D01*
X390300Y141009D02*
X391700Y141009D01*
X391700Y141608D02*
X390300Y141608D01*
X390300Y142207D02*
X391700Y142207D01*
X391700Y142806D02*
X390300Y142806D01*
X390300Y143405D02*
X391700Y143405D01*
X391700Y144004D02*
X390300Y144004D01*
X390300Y144603D02*
X391700Y144603D01*
X391700Y145202D02*
X390300Y145202D01*
X390300Y145801D02*
X391700Y145801D01*
X387700Y146310D02*
X386300Y146310D01*
X387700Y146310D02*
X387700Y140410D01*
X386300Y140410D01*
X386300Y146310D01*
X386300Y141009D02*
X387700Y141009D01*
X387700Y141608D02*
X386300Y141608D01*
X386300Y142207D02*
X387700Y142207D01*
X387700Y142806D02*
X386300Y142806D01*
X386300Y143405D02*
X387700Y143405D01*
X387700Y144004D02*
X386300Y144004D01*
X386300Y144603D02*
X387700Y144603D01*
X387700Y145202D02*
X386300Y145202D01*
X386300Y145801D02*
X387700Y145801D01*
X383700Y146310D02*
X382300Y146310D01*
X383700Y146310D02*
X383700Y140410D01*
X382300Y140410D01*
X382300Y146310D01*
X382300Y141009D02*
X383700Y141009D01*
X383700Y141608D02*
X382300Y141608D01*
X382300Y142207D02*
X383700Y142207D01*
X383700Y142806D02*
X382300Y142806D01*
X382300Y143405D02*
X383700Y143405D01*
X383700Y144004D02*
X382300Y144004D01*
X382300Y144603D02*
X383700Y144603D01*
X383700Y145202D02*
X382300Y145202D01*
X382300Y145801D02*
X383700Y145801D01*
X379700Y146310D02*
X378300Y146310D01*
X379700Y146310D02*
X379700Y140410D01*
X378300Y140410D01*
X378300Y146310D01*
X378300Y141009D02*
X379700Y141009D01*
X379700Y141608D02*
X378300Y141608D01*
X378300Y142207D02*
X379700Y142207D01*
X379700Y142806D02*
X378300Y142806D01*
X378300Y143405D02*
X379700Y143405D01*
X379700Y144004D02*
X378300Y144004D01*
X378300Y144603D02*
X379700Y144603D01*
X379700Y145202D02*
X378300Y145202D01*
X378300Y145801D02*
X379700Y145801D01*
X375700Y146310D02*
X374300Y146310D01*
X375700Y146310D02*
X375700Y140410D01*
X374300Y140410D01*
X374300Y146310D01*
X374300Y141009D02*
X375700Y141009D01*
X375700Y141608D02*
X374300Y141608D01*
X374300Y142207D02*
X375700Y142207D01*
X375700Y142806D02*
X374300Y142806D01*
X374300Y143405D02*
X375700Y143405D01*
X375700Y144004D02*
X374300Y144004D01*
X374300Y144603D02*
X375700Y144603D01*
X375700Y145202D02*
X374300Y145202D01*
X374300Y145801D02*
X375700Y145801D01*
X371700Y146310D02*
X370300Y146310D01*
X371700Y146310D02*
X371700Y140410D01*
X370300Y140410D01*
X370300Y146310D01*
X370300Y141009D02*
X371700Y141009D01*
X371700Y141608D02*
X370300Y141608D01*
X370300Y142207D02*
X371700Y142207D01*
X371700Y142806D02*
X370300Y142806D01*
X370300Y143405D02*
X371700Y143405D01*
X371700Y144004D02*
X370300Y144004D01*
X370300Y144603D02*
X371700Y144603D01*
X371700Y145202D02*
X370300Y145202D01*
X370300Y145801D02*
X371700Y145801D01*
X367700Y146310D02*
X366300Y146310D01*
X367700Y146310D02*
X367700Y140410D01*
X366300Y140410D01*
X366300Y146310D01*
X366300Y141009D02*
X367700Y141009D01*
X367700Y141608D02*
X366300Y141608D01*
X366300Y142207D02*
X367700Y142207D01*
X367700Y142806D02*
X366300Y142806D01*
X366300Y143405D02*
X367700Y143405D01*
X367700Y144004D02*
X366300Y144004D01*
X366300Y144603D02*
X367700Y144603D01*
X367700Y145202D02*
X366300Y145202D01*
X366300Y145801D02*
X367700Y145801D01*
X363700Y146310D02*
X362300Y146310D01*
X363700Y146310D02*
X363700Y140410D01*
X362300Y140410D01*
X362300Y146310D01*
X362300Y141009D02*
X363700Y141009D01*
X363700Y141608D02*
X362300Y141608D01*
X362300Y142207D02*
X363700Y142207D01*
X363700Y142806D02*
X362300Y142806D01*
X362300Y143405D02*
X363700Y143405D01*
X363700Y144004D02*
X362300Y144004D01*
X362300Y144603D02*
X363700Y144603D01*
X363700Y145202D02*
X362300Y145202D01*
X362300Y145801D02*
X363700Y145801D01*
X359700Y146310D02*
X358300Y146310D01*
X359700Y146310D02*
X359700Y140410D01*
X358300Y140410D01*
X358300Y146310D01*
X358300Y141009D02*
X359700Y141009D01*
X359700Y141608D02*
X358300Y141608D01*
X358300Y142207D02*
X359700Y142207D01*
X359700Y142806D02*
X358300Y142806D01*
X358300Y143405D02*
X359700Y143405D01*
X359700Y144004D02*
X358300Y144004D01*
X358300Y144603D02*
X359700Y144603D01*
X359700Y145202D02*
X358300Y145202D01*
X358300Y145801D02*
X359700Y145801D01*
D26*
X368850Y184150D03*
X405850Y184150D03*
D27*
X76200Y241300D03*
X101600Y241300D03*
X127000Y241300D03*
D28*
X557650Y8050D03*
D10*
X557650Y-17350D03*
X532250Y8050D03*
X532250Y-17350D03*
X506850Y8050D03*
X506850Y-17350D03*
X481450Y8050D03*
X481450Y-17350D03*
X456050Y8050D03*
X456050Y-17350D03*
X430650Y8050D03*
X430650Y-17350D03*
X405250Y8050D03*
X405250Y-17350D03*
X379850Y8050D03*
X379850Y-17350D03*
X354450Y8050D03*
X354450Y-17350D03*
X329050Y8050D03*
X329050Y-17350D03*
X303650Y8050D03*
X303650Y-17350D03*
X278250Y8050D03*
X278250Y-17350D03*
X252850Y8050D03*
X252850Y-17350D03*
X227450Y8050D03*
X227450Y-17350D03*
X202050Y8050D03*
X202050Y-17350D03*
X176650Y8050D03*
X176650Y-17350D03*
X151250Y8050D03*
X151250Y-17350D03*
X125850Y8050D03*
X125850Y-17350D03*
X100450Y8050D03*
X100450Y-17350D03*
X75050Y8050D03*
X75050Y-17350D03*
D20*
X482600Y241300D03*
X457200Y241300D03*
X431800Y241300D03*
X406400Y241300D03*
X381000Y241300D03*
X355600Y241300D03*
X330200Y241300D03*
X304800Y241300D03*
X613320Y27692D03*
X587920Y27692D03*
D29*
X349250Y192150D02*
X349250Y192650D01*
D30*
X410000Y92360D02*
X415640Y92360D01*
X419100Y88900D01*
X460850Y101600D02*
X476250Y101600D01*
X476250Y139700D02*
X459600Y139700D01*
X476250Y120650D02*
X476250Y101600D01*
X476250Y82550D02*
X459600Y82550D01*
X476250Y82550D02*
X476250Y101600D01*
D31*
X415760Y136360D02*
X410000Y136360D01*
D30*
X415760Y136360D02*
X422275Y142875D01*
D31*
X403000Y143360D02*
X403000Y149000D01*
X406400Y152400D01*
D30*
X419100Y152400D01*
X419100Y146050D01*
X422275Y142875D01*
D32*
X476250Y139700D03*
X381000Y114300D03*
D30*
X359000Y85360D02*
X358902Y79248D01*
D31*
X362966Y79248D01*
X367030Y79248D01*
X362966Y79248D02*
X363000Y85360D01*
X367000Y85360D02*
X367030Y79248D01*
X352000Y104360D02*
X341376Y104360D01*
D30*
X335754Y104360D01*
X327914Y98552D01*
X290576Y98552D01*
X288798Y100584D01*
X288798Y107048D01*
X289700Y107950D01*
D31*
X345376Y100360D02*
X352000Y100360D01*
D30*
X345376Y100360D02*
X341376Y104360D01*
X379000Y95250D02*
X379000Y85360D01*
X379000Y95250D02*
X379000Y112300D01*
X400908Y92360D02*
X410000Y92360D01*
X400908Y92360D02*
X399034Y94234D01*
X380016Y94234D01*
X379000Y95250D01*
D31*
X371000Y143360D02*
X371000Y148750D01*
X359000Y149000D02*
X359000Y143360D01*
D33*
X289954Y174244D02*
X290208Y178308D01*
D32*
X349152Y146460D03*
D30*
X351692Y149000D02*
X359000Y149000D01*
X351692Y149000D02*
X349152Y146460D01*
X371000Y148750D02*
X376174Y153924D01*
D32*
X376174Y153924D03*
D30*
X349250Y192150D02*
X341250Y192150D01*
X336550Y184150D01*
X425450Y192650D02*
X433950Y192650D01*
X438150Y184150D01*
D32*
X438150Y184150D03*
X336550Y184150D03*
D30*
X422275Y142875D02*
X425450Y146050D01*
D32*
X425450Y146050D03*
D30*
X476250Y76200D02*
X459350Y63500D01*
X476250Y76200D02*
X476250Y82550D01*
X476250Y120650D02*
X459600Y120650D01*
X476250Y120650D02*
X476250Y139700D01*
X408800Y72250D02*
X408800Y63500D01*
X408800Y72250D02*
X412750Y76200D01*
X419100Y76200D01*
X419100Y88900D01*
D31*
X359000Y85360D02*
X359000Y79600D01*
D30*
X355600Y69850D01*
D32*
X355600Y69850D03*
D29*
X313550Y57150D02*
X311150Y53200D01*
X290208Y178308D02*
X290208Y189992D01*
X279400Y196850D01*
X254000Y196850D01*
X247650Y195580D01*
D33*
X276860Y178308D02*
X290208Y178308D01*
D32*
X276860Y178308D03*
D30*
X282702Y98552D02*
X290576Y98552D01*
X282702Y98552D02*
X279400Y95250D01*
D32*
X279400Y95250D03*
X326136Y57150D03*
D30*
X313550Y57150D01*
D32*
X241300Y50800D03*
D33*
X228600Y50800D01*
D34*
X182720Y28702D02*
X92202Y28702D01*
X76200Y12700D01*
X76200Y9200D01*
X75050Y8050D01*
D29*
X182720Y28702D02*
X206502Y28702D01*
X228600Y50800D01*
D31*
X410000Y132360D02*
X437160Y132360D01*
D30*
X438150Y133350D01*
X442100Y139700D01*
X423390Y116360D02*
X410000Y116360D01*
X423390Y116360D02*
X431800Y107950D01*
X431800Y88900D01*
X434975Y85725D01*
X438150Y82550D01*
X442100Y82550D01*
X400050Y133350D02*
X397764Y135636D01*
X400050Y133350D02*
X400050Y133096D01*
X400812Y132334D01*
X409974Y132334D01*
X410000Y132360D01*
X387000Y85360D02*
X387096Y77216D01*
X387350Y76200D01*
D31*
X387000Y143360D02*
X386842Y152400D01*
X363000Y143360D02*
X362966Y137414D01*
D30*
X362966Y136144D01*
X386588Y136144D01*
D31*
X387000Y143360D01*
D30*
X386588Y136144D02*
X397764Y135636D01*
X425450Y76200D02*
X425450Y64650D01*
X425450Y76200D02*
X434975Y85725D01*
X387350Y76200D02*
X387350Y67450D01*
X391300Y63500D01*
D31*
X352000Y96360D02*
X337660Y96360D01*
D30*
X337724Y92360D01*
X329438Y92964D01*
X342900Y92360D02*
X352000Y92360D01*
X342900Y92360D02*
X337724Y92360D01*
D31*
X330200Y107950D02*
X330610Y108360D01*
X330200Y107950D02*
X307200Y107950D01*
X352000Y96360D02*
X358234Y96360D01*
D30*
X360426Y98552D01*
X360426Y107442D01*
X359410Y108458D01*
D31*
X358448Y108458D01*
X386842Y152400D02*
X386842Y152908D01*
X383286Y159004D01*
D30*
X382016Y160782D01*
X378460Y162052D01*
X343408Y161798D01*
X335026Y169164D01*
X335026Y172974D01*
X323850Y184150D01*
X308216Y184150D01*
X307708Y189992D01*
D31*
X367000Y152176D02*
X367000Y143360D01*
X367000Y152176D02*
X363474Y155702D01*
D33*
X361950Y155702D01*
X339598Y155702D01*
X321056Y174244D01*
X307454Y174244D01*
D30*
X359410Y108458D02*
X359664Y108458D01*
X360426Y109220D01*
X360426Y133604D01*
X362966Y136144D01*
X387000Y85360D02*
X387000Y63850D01*
X387350Y59182D01*
X342900Y59182D01*
D29*
X342900Y69850D01*
X342900Y92360D01*
D33*
X260350Y165100D02*
X257650Y165000D01*
X260350Y165100D02*
X273050Y165100D01*
X276860Y164084D01*
X307340Y164084D01*
X307454Y174244D01*
X296164Y92964D02*
X329438Y92964D01*
X296164Y92964D02*
X292100Y88900D01*
X292100Y84700D01*
X289950Y82550D01*
D29*
X266700Y69850D02*
X342900Y69850D01*
D31*
X363000Y143360D02*
X363000Y154652D01*
D30*
X361950Y155702D01*
X403832Y116360D02*
X410000Y116360D01*
X403832Y116360D02*
X401828Y118364D01*
X401828Y131318D01*
X400812Y132334D01*
D31*
X352000Y108360D02*
X330610Y108360D01*
X352000Y108360D02*
X358350Y108360D01*
X358448Y108458D01*
D29*
X234950Y76200D02*
X231800Y73050D01*
X234950Y76200D02*
X260350Y76200D01*
X266700Y69850D01*
X266700Y60800D01*
D35*
X231800Y73050D03*
D31*
X345540Y124360D02*
X352000Y124360D01*
D30*
X345540Y124360D02*
X342900Y127000D01*
X289700Y133350D02*
X289700Y151150D01*
X288450Y152400D01*
X330200Y127000D02*
X342900Y127000D01*
X330200Y127000D02*
X323850Y133350D01*
D32*
X323850Y133350D03*
D29*
X237650Y114300D02*
X237650Y96500D01*
X238900Y95250D01*
X222250Y158750D02*
X205600Y158750D01*
X222250Y158750D02*
X222250Y152400D01*
X188350Y82550D02*
X177800Y82550D01*
X171450Y76200D01*
X205600Y158750D02*
X205600Y183900D01*
X205350Y184150D01*
D33*
X139700Y101600D02*
X146050Y94900D01*
X139700Y101600D02*
X120650Y101600D01*
D32*
X120650Y101600D03*
D33*
X146050Y178350D02*
X146050Y190150D01*
X146050Y94900D02*
X146050Y83100D01*
X146050Y76200D02*
X171450Y76200D01*
X146050Y76200D02*
X146050Y83100D01*
D29*
X139700Y69850D02*
X139700Y57150D01*
X139700Y69850D02*
X146050Y76200D01*
D32*
X222250Y127000D03*
D33*
X222250Y152400D01*
X95250Y184150D02*
X50800Y184150D01*
X50800Y133350D01*
X29286Y114316D01*
X146050Y190150D02*
X149860Y202692D01*
D32*
X149860Y202692D03*
D33*
X184150Y88900D02*
X188350Y82550D01*
X184150Y88900D02*
X184150Y101600D01*
X186850Y107950D01*
X159258Y202692D02*
X149860Y202692D01*
X159258Y202692D02*
X165100Y196850D01*
X203200Y196850D01*
X203200Y186300D01*
X205350Y184150D01*
X222250Y127000D02*
X234950Y114300D01*
X234950Y110650D01*
X237650Y114300D01*
D32*
X277622Y131318D03*
D30*
X287668Y131318D01*
X289700Y133350D01*
X247650Y159100D02*
X247650Y170900D01*
X247650Y177800D02*
X247650Y185420D01*
X247650Y177800D02*
X222250Y177800D01*
X215900Y184150D01*
X205350Y184150D01*
X247650Y177800D02*
X247650Y170900D01*
D29*
X101600Y209550D02*
X101600Y241300D01*
D33*
X101600Y190500D02*
X95250Y184150D01*
X101600Y190500D02*
X101600Y209550D01*
X381000Y25400D02*
X394462Y41656D01*
X381000Y25400D02*
X368300Y25400D01*
X355600Y25400D01*
X355600Y35950D01*
X353450Y38100D01*
D32*
X367284Y-4318D03*
D30*
X367284Y24384D01*
X368300Y25400D01*
X425450Y49650D02*
X431800Y50800D01*
X438150Y50800D01*
X438150Y63500D01*
X442350Y63500D01*
D31*
X399000Y143360D02*
X399000Y151350D01*
X406400Y158750D01*
D30*
X438150Y158750D01*
X450850Y171450D01*
D32*
X323342Y192786D03*
X330200Y82550D03*
D29*
X296050Y57150D02*
X285750Y57150D01*
D33*
X306950Y82550D02*
X330200Y82550D01*
D30*
X285750Y57150D02*
X285750Y56642D01*
X282448Y53340D01*
D32*
X282448Y53340D03*
D30*
X323342Y192786D02*
X323342Y197358D01*
X318262Y212344D01*
D32*
X318262Y212344D03*
X450850Y177800D03*
D30*
X450850Y171450D01*
D31*
X352000Y120360D02*
X325156Y120360D01*
D30*
X316484Y129032D01*
X315468Y129032D01*
X311150Y133350D01*
X307200Y133350D01*
X307200Y151150D01*
X308450Y152400D01*
X316484Y129032D02*
X316484Y128016D01*
X317500Y127000D01*
D31*
X321790Y116360D02*
X352000Y116360D01*
D30*
X321790Y116360D02*
X314198Y123952D01*
X287274Y123952D01*
X287274Y122936D01*
X266700Y122682D01*
X259535Y122682D01*
X256400Y106700D02*
X256400Y95250D01*
X256400Y106700D02*
X257650Y114300D01*
D33*
X257810Y119380D02*
X259535Y122682D01*
X257810Y119380D02*
X257650Y114300D01*
D30*
X237671Y156029D02*
X237671Y164972D01*
X237671Y156029D02*
X241300Y152400D01*
X266700Y152400D01*
X266700Y122682D01*
D31*
X337540Y132360D02*
X352000Y132360D01*
D30*
X337540Y132360D02*
X323850Y146050D01*
D32*
X323850Y146050D03*
X171450Y101600D03*
D29*
X158750Y114300D01*
X158750Y118350D01*
X161050Y120650D01*
D31*
X339890Y136360D02*
X352000Y136360D01*
D30*
X339890Y136360D02*
X339890Y142710D01*
X323850Y158750D01*
D32*
X323850Y158750D03*
X171450Y171450D03*
D29*
X171450Y162800D01*
X161050Y152400D01*
D31*
X318932Y112360D02*
X352000Y112360D01*
D30*
X318932Y112360D02*
X313944Y117348D01*
X275844Y117348D01*
D29*
X275844Y110998D01*
D32*
X275844Y110998D03*
X222250Y107950D03*
D29*
X203200Y130950D02*
X205600Y133350D01*
D33*
X222250Y112014D02*
X222250Y107950D01*
X222250Y112014D02*
X214884Y119380D01*
X212852Y119380D01*
X207264Y124968D01*
X207264Y131686D01*
X205600Y133350D01*
D29*
X156029Y95177D02*
X156029Y89028D01*
X156029Y95177D02*
X154940Y99060D01*
X147560Y104140D01*
X131050Y120650D01*
X133350Y120650D01*
X133350Y127000D01*
X139700Y133350D01*
X139700Y133604D01*
X141732Y135636D01*
X172212Y135636D01*
X177038Y140462D01*
X177038Y147688D01*
X188100Y158750D01*
D34*
X107950Y165100D02*
X79286Y165316D01*
X107950Y165100D02*
X114300Y165100D01*
X136050Y184250D01*
D31*
X394970Y160020D02*
X395000Y143360D01*
D30*
X394970Y160020D02*
X399542Y164592D01*
D33*
X424180Y164592D01*
X425450Y165100D01*
D29*
X412750Y184150D02*
X405850Y184150D01*
X412750Y184150D02*
X419100Y177800D01*
X423300Y177800D01*
X425450Y175650D01*
D33*
X425450Y165100D01*
D31*
X417740Y128360D02*
X410000Y128360D01*
D30*
X417740Y128360D02*
X419100Y127000D01*
X425450Y127000D01*
X431800Y120650D01*
X442100Y120650D01*
X440850Y119400D02*
X440850Y101600D01*
X440850Y119400D02*
X442100Y120650D01*
D29*
X176276Y56896D02*
X165100Y57150D01*
X176276Y56896D02*
X182626Y63246D01*
X187198Y69596D01*
X199390Y69596D01*
X205350Y82550D01*
D33*
X209550Y82550D01*
X209550Y101600D01*
X206850Y107950D01*
X203200Y114300D01*
X190500Y127000D01*
X188100Y133350D01*
D29*
X139700Y152400D02*
X131050Y152400D01*
X139700Y152400D02*
X146050Y158750D01*
X146050Y165100D01*
X152400Y171450D01*
X157734Y171450D01*
X157988Y171704D01*
X157988Y175969D01*
X156029Y184278D01*
X156157Y184150D02*
X188350Y184150D01*
X156157Y184150D02*
X156029Y184278D01*
D34*
X114300Y63500D02*
X79286Y63316D01*
X114300Y63500D02*
X136050Y89000D01*
D31*
X391000Y143360D02*
X390906Y160020D01*
D30*
X385318Y167894D01*
D33*
X359410Y167894D02*
X349250Y175650D01*
X359410Y167894D02*
X385318Y167894D01*
D30*
X353450Y175650D02*
X349250Y175650D01*
X353450Y175650D02*
X355600Y177800D01*
X366159Y177800D01*
X369738Y174221D01*
D29*
X368850Y184150D02*
X366159Y184150D01*
X366159Y177800D01*
D31*
X371000Y85360D02*
X371000Y78326D01*
D30*
X369824Y71374D01*
D32*
X369824Y71374D03*
X362458Y50546D03*
D30*
X372618Y40268D01*
X370450Y38100D01*
X532504Y60318D02*
X532250Y8050D01*
X532504Y60318D02*
X552450Y82550D01*
X552450Y215900D01*
X527050Y241300D01*
X482600Y241300D01*
X520700Y222250D02*
X539750Y203200D01*
X539750Y82550D01*
X508000Y50800D01*
X508000Y9200D01*
D33*
X506850Y8050D01*
D30*
X495554Y222250D02*
X520700Y222250D01*
X495554Y222250D02*
X493014Y219710D01*
X468376Y219710D01*
X461010Y227076D01*
X447548Y227076D01*
X437134Y237490D01*
X435610Y237490D01*
X431800Y241300D01*
X481450Y30600D02*
X481450Y8050D01*
X481450Y30600D02*
X533400Y82550D01*
X533400Y196850D01*
X514350Y215900D01*
X498348Y215900D01*
X496062Y213614D01*
X465836Y213614D01*
X458216Y221234D01*
X445770Y221234D01*
X438404Y228600D01*
X419100Y228600D01*
X406400Y241300D01*
X430650Y8050D02*
X433500Y8050D01*
X450850Y25400D01*
X460756Y25400D01*
X517652Y82296D01*
X517906Y82296D01*
X520700Y85090D01*
X520700Y188214D01*
X506984Y201930D01*
X459232Y201930D01*
X451612Y209550D01*
X441706Y209550D01*
X432816Y218440D01*
X410464Y218440D01*
X406400Y222504D01*
X374396Y222504D01*
X355600Y241300D01*
X405250Y11550D02*
X405250Y8050D01*
X405250Y11550D02*
X419100Y25400D01*
X441706Y25400D01*
X448056Y31750D01*
X458978Y31750D01*
X458978Y32004D01*
X513588Y86614D01*
X513588Y186436D01*
X504190Y195834D01*
X457200Y195834D01*
X449580Y203454D01*
X439166Y203454D01*
X429768Y212852D01*
X406908Y212852D01*
X402590Y217170D01*
X360680Y217170D01*
X350520Y227330D01*
X344170Y227330D01*
X330200Y241300D01*
X379850Y8248D02*
X379850Y8050D01*
X379850Y8248D02*
X392938Y21336D01*
X405130Y21336D01*
X416306Y32512D01*
X439420Y32512D01*
X446532Y39624D01*
X458724Y39624D01*
X476250Y57150D02*
X507746Y88900D01*
X476250Y57150D02*
X458724Y39624D01*
X309118Y234950D02*
X304800Y241300D01*
X309118Y234950D02*
X334518Y209550D01*
X402590Y209550D01*
X404368Y207772D01*
X427228Y207772D01*
X437134Y197866D01*
X446786Y197866D01*
X454660Y189992D01*
X498856Y189992D01*
X508254Y180594D01*
X508254Y89408D01*
X507746Y88900D01*
D33*
X458900Y-17350D02*
X456050Y-17350D01*
D30*
X458900Y-17350D02*
X471170Y-4318D01*
X519430Y-4318D01*
X519684Y55626D01*
X546100Y82550D01*
X546100Y209550D01*
X527050Y228600D01*
X493522Y228600D01*
X490728Y225806D01*
X472694Y225806D01*
X457200Y241300D01*
X381430Y-17350D02*
X379850Y-17350D01*
X381430Y-17350D02*
X393446Y-5334D01*
X461264Y-5334D01*
X468122Y1524D01*
X468122Y24892D01*
X485648Y42418D01*
X485648Y42672D01*
X528066Y85090D01*
X528066Y189484D01*
X508000Y209550D01*
X500380Y209550D01*
X497840Y207772D01*
X462280Y207772D01*
X454406Y215392D01*
X443992Y215392D01*
X435610Y223774D01*
X413004Y223774D01*
X409448Y227330D01*
X388620Y227330D01*
X387350Y228600D01*
X387350Y234950D01*
X381000Y241300D01*
M02*
