G04 EAGLE Gerber X2 export*
%TF.Part,Single*%
%TF.FileFunction,Copper,L2,Bot,Mixed*%
%TF.FilePolarity,Positive*%
%TF.GenerationSoftware,Autodesk,EAGLE,9.0.0*%
%TF.CreationDate,2018-05-01T01:03:05Z*%
G75*
%MOMM*%
%FSLAX34Y34*%
%LPD*%
%AMOC8*
5,1,8,0,0,1.08239X$1,22.5*%
G01*
%ADD10C,1.778000*%
%ADD11C,2.540000*%
%ADD12C,2.250000*%
%ADD13C,1.879600*%
%ADD14C,1.727200*%
%ADD15R,1.778000X1.778000*%
%ADD16C,1.006400*%
%ADD17C,0.254000*%
%ADD18C,0.304800*%
%ADD19C,0.406400*%
%ADD20C,0.756400*%
%ADD21C,0.812800*%
%ADD22C,0.609600*%

G36*
X628541Y17021D02*
X628541Y17021D01*
X628559Y17019D01*
X628741Y17040D01*
X628924Y17059D01*
X628941Y17064D01*
X628958Y17066D01*
X629133Y17123D01*
X629309Y17177D01*
X629324Y17185D01*
X629341Y17191D01*
X629501Y17281D01*
X629663Y17369D01*
X629676Y17380D01*
X629692Y17389D01*
X629831Y17509D01*
X629972Y17626D01*
X629983Y17640D01*
X629997Y17652D01*
X630109Y17797D01*
X630224Y17940D01*
X630232Y17956D01*
X630243Y17970D01*
X630325Y18135D01*
X630410Y18297D01*
X630415Y18314D01*
X630423Y18331D01*
X630470Y18509D01*
X630521Y18684D01*
X630523Y18702D01*
X630527Y18719D01*
X630554Y19050D01*
X630554Y211871D01*
X630547Y211944D01*
X630549Y212017D01*
X630527Y212144D01*
X630514Y212271D01*
X630493Y212342D01*
X630480Y212414D01*
X630434Y212533D01*
X630396Y212656D01*
X630361Y212721D01*
X630335Y212789D01*
X630266Y212897D01*
X630204Y213010D01*
X630158Y213067D01*
X630118Y213128D01*
X630029Y213221D01*
X629947Y213320D01*
X629890Y213365D01*
X629839Y213418D01*
X629733Y213492D01*
X629633Y213572D01*
X629568Y213606D01*
X629508Y213647D01*
X629390Y213698D01*
X629276Y213758D01*
X629205Y213778D01*
X629138Y213807D01*
X629012Y213833D01*
X628889Y213869D01*
X628816Y213875D01*
X628744Y213890D01*
X628616Y213891D01*
X628487Y213902D01*
X628415Y213893D01*
X628341Y213894D01*
X628215Y213870D01*
X628088Y213855D01*
X628018Y213832D01*
X627946Y213818D01*
X627827Y213770D01*
X627705Y213730D01*
X627641Y213694D01*
X627573Y213666D01*
X627466Y213595D01*
X627354Y213532D01*
X627299Y213484D01*
X627238Y213444D01*
X627147Y213353D01*
X627050Y213269D01*
X627005Y213211D01*
X626953Y213159D01*
X626856Y213020D01*
X626803Y212951D01*
X626788Y212921D01*
X626764Y212886D01*
X625483Y210668D01*
X621032Y206217D01*
X615579Y203069D01*
X609498Y201439D01*
X603202Y201439D01*
X597121Y203069D01*
X591668Y206217D01*
X587217Y210668D01*
X584069Y216121D01*
X582439Y222202D01*
X582439Y228498D01*
X584069Y234579D01*
X587217Y240032D01*
X591668Y244483D01*
X593886Y245764D01*
X593946Y245807D01*
X594010Y245842D01*
X594109Y245924D01*
X594213Y245999D01*
X594263Y246052D01*
X594320Y246099D01*
X594400Y246199D01*
X594488Y246294D01*
X594526Y246356D01*
X594572Y246413D01*
X594631Y246527D01*
X594698Y246637D01*
X594724Y246705D01*
X594758Y246770D01*
X594793Y246894D01*
X594837Y247014D01*
X594849Y247087D01*
X594869Y247157D01*
X594879Y247286D01*
X594899Y247412D01*
X594896Y247485D01*
X594902Y247559D01*
X594887Y247686D01*
X594881Y247815D01*
X594863Y247886D01*
X594855Y247958D01*
X594815Y248080D01*
X594784Y248205D01*
X594753Y248272D01*
X594730Y248341D01*
X594667Y248453D01*
X594612Y248569D01*
X594568Y248628D01*
X594532Y248692D01*
X594448Y248789D01*
X594371Y248892D01*
X594317Y248941D01*
X594269Y248997D01*
X594168Y249075D01*
X594072Y249161D01*
X594009Y249199D01*
X593951Y249243D01*
X593836Y249300D01*
X593725Y249366D01*
X593656Y249390D01*
X593590Y249423D01*
X593466Y249456D01*
X593345Y249498D01*
X593272Y249508D01*
X593202Y249527D01*
X593032Y249541D01*
X592946Y249553D01*
X592913Y249551D01*
X592871Y249554D01*
X496793Y249554D01*
X496779Y249553D01*
X496766Y249554D01*
X496580Y249533D01*
X496392Y249514D01*
X496379Y249510D01*
X496366Y249509D01*
X496187Y249451D01*
X496007Y249396D01*
X495996Y249390D01*
X495983Y249386D01*
X495818Y249294D01*
X495653Y249204D01*
X495643Y249196D01*
X495631Y249189D01*
X495488Y249067D01*
X495344Y248947D01*
X495336Y248936D01*
X495325Y248928D01*
X495209Y248779D01*
X495092Y248633D01*
X495086Y248621D01*
X495077Y248611D01*
X494992Y248441D01*
X494906Y248276D01*
X494903Y248263D01*
X494896Y248251D01*
X494847Y248068D01*
X494795Y247889D01*
X494794Y247875D01*
X494790Y247862D01*
X494777Y247674D01*
X494762Y247487D01*
X494764Y247474D01*
X494763Y247461D01*
X494787Y247273D01*
X494809Y247088D01*
X494813Y247075D01*
X494815Y247062D01*
X494916Y246746D01*
X496063Y243978D01*
X496063Y238622D01*
X494013Y233674D01*
X490226Y229887D01*
X485278Y227837D01*
X479922Y227837D01*
X474974Y229887D01*
X471336Y233525D01*
X471323Y233536D01*
X471311Y233549D01*
X471167Y233663D01*
X471025Y233780D01*
X471009Y233788D01*
X470995Y233799D01*
X470831Y233882D01*
X470669Y233968D01*
X470652Y233973D01*
X470636Y233981D01*
X470459Y234031D01*
X470283Y234083D01*
X470265Y234085D01*
X470248Y234089D01*
X470065Y234103D01*
X469882Y234119D01*
X469864Y234117D01*
X469847Y234119D01*
X469665Y234096D01*
X469482Y234076D01*
X469465Y234071D01*
X469447Y234068D01*
X469274Y234010D01*
X469098Y233954D01*
X469082Y233946D01*
X469066Y233940D01*
X468906Y233848D01*
X468746Y233760D01*
X468732Y233748D01*
X468717Y233739D01*
X468464Y233525D01*
X464826Y229887D01*
X459878Y227837D01*
X454522Y227837D01*
X449574Y229887D01*
X445936Y233525D01*
X445923Y233536D01*
X445911Y233549D01*
X445767Y233663D01*
X445625Y233780D01*
X445609Y233788D01*
X445595Y233799D01*
X445431Y233882D01*
X445269Y233968D01*
X445252Y233973D01*
X445236Y233981D01*
X445059Y234031D01*
X444883Y234083D01*
X444865Y234085D01*
X444848Y234089D01*
X444665Y234103D01*
X444482Y234119D01*
X444464Y234117D01*
X444447Y234119D01*
X444265Y234096D01*
X444082Y234076D01*
X444065Y234071D01*
X444047Y234068D01*
X443874Y234010D01*
X443698Y233954D01*
X443682Y233946D01*
X443666Y233940D01*
X443506Y233848D01*
X443346Y233760D01*
X443332Y233748D01*
X443317Y233739D01*
X443064Y233525D01*
X439426Y229887D01*
X434478Y227837D01*
X429122Y227837D01*
X424174Y229887D01*
X420536Y233525D01*
X420523Y233536D01*
X420511Y233549D01*
X420367Y233663D01*
X420225Y233780D01*
X420209Y233788D01*
X420195Y233799D01*
X420031Y233882D01*
X419869Y233968D01*
X419852Y233973D01*
X419836Y233981D01*
X419659Y234031D01*
X419483Y234083D01*
X419465Y234085D01*
X419448Y234089D01*
X419265Y234103D01*
X419082Y234119D01*
X419064Y234117D01*
X419047Y234119D01*
X418865Y234096D01*
X418682Y234076D01*
X418665Y234071D01*
X418647Y234068D01*
X418474Y234010D01*
X418298Y233954D01*
X418282Y233946D01*
X418266Y233940D01*
X418106Y233848D01*
X417946Y233760D01*
X417932Y233748D01*
X417917Y233739D01*
X417664Y233525D01*
X414026Y229887D01*
X409078Y227837D01*
X403722Y227837D01*
X398774Y229887D01*
X395136Y233525D01*
X395123Y233536D01*
X395111Y233549D01*
X394967Y233663D01*
X394825Y233780D01*
X394809Y233788D01*
X394795Y233799D01*
X394631Y233882D01*
X394469Y233968D01*
X394452Y233973D01*
X394436Y233981D01*
X394259Y234031D01*
X394083Y234083D01*
X394065Y234085D01*
X394048Y234089D01*
X393865Y234103D01*
X393682Y234119D01*
X393664Y234117D01*
X393647Y234119D01*
X393465Y234096D01*
X393282Y234076D01*
X393265Y234071D01*
X393247Y234068D01*
X393074Y234010D01*
X392898Y233954D01*
X392882Y233946D01*
X392866Y233940D01*
X392706Y233848D01*
X392546Y233760D01*
X392532Y233748D01*
X392517Y233739D01*
X392264Y233525D01*
X388626Y229887D01*
X383678Y227837D01*
X378322Y227837D01*
X373374Y229887D01*
X369736Y233525D01*
X369723Y233536D01*
X369711Y233549D01*
X369567Y233663D01*
X369425Y233780D01*
X369409Y233788D01*
X369395Y233799D01*
X369231Y233882D01*
X369069Y233968D01*
X369052Y233973D01*
X369036Y233981D01*
X368859Y234031D01*
X368683Y234083D01*
X368665Y234085D01*
X368648Y234089D01*
X368465Y234103D01*
X368282Y234119D01*
X368264Y234117D01*
X368247Y234119D01*
X368065Y234096D01*
X367882Y234076D01*
X367865Y234071D01*
X367847Y234068D01*
X367674Y234010D01*
X367498Y233954D01*
X367482Y233946D01*
X367466Y233940D01*
X367306Y233848D01*
X367146Y233760D01*
X367132Y233748D01*
X367117Y233739D01*
X366864Y233525D01*
X363226Y229887D01*
X358278Y227837D01*
X352922Y227837D01*
X347974Y229887D01*
X344336Y233525D01*
X344322Y233536D01*
X344311Y233549D01*
X344167Y233663D01*
X344025Y233780D01*
X344009Y233788D01*
X343995Y233799D01*
X343831Y233883D01*
X343669Y233968D01*
X343652Y233973D01*
X343636Y233981D01*
X343459Y234031D01*
X343283Y234083D01*
X343265Y234085D01*
X343248Y234089D01*
X343065Y234103D01*
X342882Y234119D01*
X342864Y234117D01*
X342847Y234119D01*
X342665Y234096D01*
X342482Y234076D01*
X342465Y234071D01*
X342447Y234068D01*
X342273Y234010D01*
X342098Y233954D01*
X342082Y233946D01*
X342066Y233940D01*
X341906Y233848D01*
X341746Y233760D01*
X341732Y233748D01*
X341717Y233739D01*
X341464Y233525D01*
X337826Y229887D01*
X332878Y227837D01*
X327522Y227837D01*
X322574Y229887D01*
X318936Y233525D01*
X318923Y233536D01*
X318911Y233549D01*
X318767Y233663D01*
X318625Y233780D01*
X318609Y233788D01*
X318595Y233799D01*
X318431Y233882D01*
X318269Y233968D01*
X318252Y233973D01*
X318236Y233981D01*
X318059Y234031D01*
X317883Y234083D01*
X317865Y234085D01*
X317848Y234089D01*
X317665Y234103D01*
X317482Y234119D01*
X317464Y234117D01*
X317447Y234119D01*
X317265Y234096D01*
X317082Y234076D01*
X317065Y234071D01*
X317047Y234068D01*
X316874Y234010D01*
X316698Y233954D01*
X316682Y233946D01*
X316666Y233940D01*
X316506Y233848D01*
X316346Y233760D01*
X316332Y233748D01*
X316317Y233739D01*
X316064Y233525D01*
X312426Y229887D01*
X307478Y227837D01*
X302122Y227837D01*
X297174Y229887D01*
X293387Y233674D01*
X291337Y238622D01*
X291337Y243978D01*
X292484Y246746D01*
X292488Y246759D01*
X292494Y246770D01*
X292545Y246950D01*
X292600Y247131D01*
X292601Y247144D01*
X292605Y247157D01*
X292621Y247345D01*
X292638Y247532D01*
X292637Y247545D01*
X292638Y247559D01*
X292616Y247745D01*
X292597Y247932D01*
X292593Y247945D01*
X292591Y247958D01*
X292533Y248137D01*
X292477Y248317D01*
X292470Y248328D01*
X292466Y248341D01*
X292374Y248505D01*
X292284Y248670D01*
X292275Y248680D01*
X292268Y248692D01*
X292146Y248834D01*
X292024Y248978D01*
X292014Y248986D01*
X292005Y248997D01*
X291857Y249111D01*
X291710Y249229D01*
X291698Y249235D01*
X291687Y249243D01*
X291519Y249327D01*
X291351Y249413D01*
X291339Y249417D01*
X291327Y249423D01*
X291144Y249472D01*
X290964Y249523D01*
X290951Y249524D01*
X290938Y249527D01*
X290607Y249554D01*
X279400Y249554D01*
X279382Y249552D01*
X279364Y249554D01*
X279182Y249533D01*
X278999Y249514D01*
X278982Y249509D01*
X278965Y249507D01*
X278790Y249450D01*
X278614Y249396D01*
X278599Y249388D01*
X278582Y249382D01*
X278422Y249292D01*
X278260Y249204D01*
X278247Y249193D01*
X278231Y249184D01*
X278092Y249064D01*
X277951Y248947D01*
X277940Y248933D01*
X277927Y248921D01*
X277814Y248776D01*
X277699Y248633D01*
X277691Y248617D01*
X277680Y248603D01*
X277598Y248438D01*
X277513Y248276D01*
X277508Y248259D01*
X277500Y248243D01*
X277453Y248064D01*
X277402Y247889D01*
X277400Y247871D01*
X277396Y247854D01*
X277369Y247523D01*
X277369Y165100D01*
X277384Y164949D01*
X277391Y164798D01*
X277404Y164749D01*
X277409Y164699D01*
X277453Y164554D01*
X277491Y164407D01*
X277512Y164362D01*
X277527Y164314D01*
X277599Y164181D01*
X277665Y164044D01*
X277695Y164004D01*
X277719Y163960D01*
X277816Y163844D01*
X277907Y163723D01*
X277944Y163690D01*
X277976Y163651D01*
X278095Y163556D01*
X278208Y163455D01*
X278256Y163426D01*
X278290Y163399D01*
X278366Y163359D01*
X278492Y163283D01*
X289970Y157544D01*
X289684Y153826D01*
X289686Y153730D01*
X289678Y153634D01*
X289691Y153529D01*
X289693Y153423D01*
X289714Y153330D01*
X289725Y153235D01*
X289758Y153134D01*
X289781Y153030D01*
X289820Y152943D01*
X289850Y152852D01*
X289902Y152760D01*
X289945Y152663D01*
X290001Y152585D01*
X290048Y152501D01*
X290117Y152421D01*
X290179Y152335D01*
X290249Y152269D01*
X290311Y152196D01*
X290395Y152132D01*
X290472Y152059D01*
X290554Y152008D01*
X290629Y151950D01*
X290724Y151902D01*
X290814Y151847D01*
X290904Y151813D01*
X290990Y151770D01*
X291092Y151743D01*
X291191Y151706D01*
X291286Y151691D01*
X291379Y151666D01*
X291508Y151655D01*
X291589Y151642D01*
X291641Y151644D01*
X291709Y151639D01*
X308353Y151639D01*
X308379Y151641D01*
X308406Y151639D01*
X308580Y151661D01*
X308754Y151679D01*
X308779Y151686D01*
X308806Y151690D01*
X308971Y151745D01*
X309138Y151797D01*
X309162Y151810D01*
X309187Y151818D01*
X309339Y151905D01*
X309492Y151989D01*
X309513Y152006D01*
X309536Y152019D01*
X309789Y152234D01*
X314158Y156603D01*
X314175Y156624D01*
X314196Y156641D01*
X314303Y156779D01*
X314413Y156914D01*
X314426Y156938D01*
X314442Y156959D01*
X314520Y157116D01*
X314602Y157270D01*
X314610Y157296D01*
X314622Y157320D01*
X314667Y157489D01*
X314717Y157656D01*
X314719Y157683D01*
X314726Y157708D01*
X314753Y158039D01*
X314753Y160560D01*
X316138Y163903D01*
X318697Y166462D01*
X321178Y167489D01*
X322215Y167919D01*
X322227Y167925D01*
X322239Y167929D01*
X322404Y168020D01*
X322570Y168109D01*
X322580Y168118D01*
X322592Y168124D01*
X322734Y168245D01*
X322880Y168365D01*
X322888Y168376D01*
X322899Y168385D01*
X323015Y168532D01*
X323134Y168678D01*
X323140Y168690D01*
X323148Y168700D01*
X323234Y168869D01*
X323321Y169035D01*
X323324Y169047D01*
X323331Y169059D01*
X323381Y169241D01*
X323434Y169421D01*
X323435Y169434D01*
X323439Y169447D01*
X323452Y169636D01*
X323468Y169822D01*
X323467Y169835D01*
X323468Y169849D01*
X323444Y170037D01*
X323423Y170222D01*
X323419Y170235D01*
X323418Y170248D01*
X323357Y170427D01*
X323300Y170606D01*
X323294Y170617D01*
X323289Y170630D01*
X323196Y170792D01*
X323104Y170957D01*
X323095Y170967D01*
X323088Y170979D01*
X322874Y171232D01*
X320166Y173940D01*
X320142Y173959D01*
X320116Y173987D01*
X319365Y174690D01*
X319362Y174695D01*
X318969Y175643D01*
X318955Y175670D01*
X318942Y175706D01*
X318516Y176643D01*
X318515Y176649D01*
X318515Y177675D01*
X318512Y177706D01*
X318514Y177744D01*
X318295Y184194D01*
X318270Y184384D01*
X318246Y184578D01*
X318243Y184586D01*
X318242Y184593D01*
X318179Y184776D01*
X318117Y184960D01*
X318113Y184966D01*
X318111Y184974D01*
X318012Y185142D01*
X317916Y185309D01*
X317911Y185315D01*
X317907Y185321D01*
X317875Y185357D01*
X317702Y185562D01*
X315630Y187633D01*
X314245Y190976D01*
X314245Y194596D01*
X315630Y197939D01*
X317475Y199784D01*
X317484Y199794D01*
X317494Y199803D01*
X317611Y199950D01*
X317730Y200095D01*
X317736Y200107D01*
X317745Y200118D01*
X317831Y200285D01*
X317919Y200451D01*
X317923Y200464D01*
X317929Y200476D01*
X317980Y200656D01*
X318033Y200837D01*
X318035Y200850D01*
X318038Y200863D01*
X318053Y201049D01*
X318070Y201238D01*
X318068Y201251D01*
X318069Y201265D01*
X318047Y201449D01*
X318026Y201638D01*
X318022Y201651D01*
X318021Y201664D01*
X317962Y201841D01*
X317905Y202022D01*
X317898Y202034D01*
X317894Y202046D01*
X317801Y202209D01*
X317710Y202374D01*
X317702Y202384D01*
X317695Y202396D01*
X317571Y202538D01*
X317450Y202681D01*
X317439Y202690D01*
X317430Y202700D01*
X317282Y202814D01*
X317134Y202931D01*
X317122Y202937D01*
X317111Y202945D01*
X316816Y203097D01*
X313109Y204632D01*
X310550Y207191D01*
X309165Y210534D01*
X309165Y214154D01*
X310550Y217497D01*
X313109Y220056D01*
X316452Y221441D01*
X320072Y221441D01*
X320196Y221389D01*
X320225Y221380D01*
X320253Y221366D01*
X320418Y221322D01*
X320581Y221273D01*
X320612Y221270D01*
X320642Y221262D01*
X320973Y221235D01*
X432861Y221235D01*
X434822Y220423D01*
X453586Y201658D01*
X455373Y199872D01*
X456185Y197911D01*
X456185Y186171D01*
X456187Y186145D01*
X456185Y186118D01*
X456207Y185944D01*
X456225Y185771D01*
X456232Y185745D01*
X456236Y185719D01*
X456291Y185553D01*
X456343Y185386D01*
X456356Y185362D01*
X456364Y185337D01*
X456451Y185185D01*
X456535Y185032D01*
X456552Y185011D01*
X456565Y184988D01*
X456780Y184735D01*
X458562Y182953D01*
X459947Y179610D01*
X459947Y175990D01*
X458562Y172647D01*
X456003Y170088D01*
X452660Y168703D01*
X449040Y168703D01*
X445697Y170088D01*
X443138Y172647D01*
X441753Y175990D01*
X441753Y179610D01*
X443138Y182953D01*
X444920Y184735D01*
X444937Y184756D01*
X444958Y184773D01*
X445065Y184911D01*
X445175Y185047D01*
X445188Y185070D01*
X445204Y185091D01*
X445282Y185248D01*
X445364Y185402D01*
X445372Y185428D01*
X445384Y185452D01*
X445429Y185621D01*
X445479Y185788D01*
X445481Y185815D01*
X445488Y185841D01*
X445515Y186171D01*
X445515Y193799D01*
X445513Y193825D01*
X445515Y193852D01*
X445493Y194026D01*
X445475Y194200D01*
X445468Y194225D01*
X445464Y194252D01*
X445409Y194417D01*
X445357Y194584D01*
X445344Y194608D01*
X445336Y194633D01*
X445249Y194785D01*
X445165Y194938D01*
X445148Y194959D01*
X445135Y194982D01*
X444920Y195235D01*
X430185Y209970D01*
X430164Y209987D01*
X430147Y210008D01*
X430009Y210115D01*
X429874Y210225D01*
X429850Y210238D01*
X429829Y210254D01*
X429672Y210332D01*
X429518Y210414D01*
X429492Y210422D01*
X429468Y210434D01*
X429299Y210479D01*
X429132Y210529D01*
X429105Y210531D01*
X429080Y210538D01*
X428749Y210565D01*
X328729Y210565D01*
X328706Y210563D01*
X328684Y210565D01*
X328507Y210543D01*
X328328Y210525D01*
X328307Y210519D01*
X328285Y210516D01*
X328115Y210460D01*
X327943Y210407D01*
X327923Y210397D01*
X327902Y210390D01*
X327747Y210301D01*
X327589Y210215D01*
X327572Y210201D01*
X327553Y210190D01*
X327417Y210072D01*
X327280Y209958D01*
X327266Y209940D01*
X327249Y209926D01*
X327140Y209784D01*
X327028Y209644D01*
X327017Y209624D01*
X327004Y209606D01*
X326852Y209311D01*
X325974Y207191D01*
X324129Y205346D01*
X324120Y205336D01*
X324110Y205327D01*
X323993Y205180D01*
X323874Y205035D01*
X323868Y205023D01*
X323859Y205012D01*
X323773Y204845D01*
X323685Y204679D01*
X323681Y204666D01*
X323675Y204654D01*
X323624Y204474D01*
X323571Y204293D01*
X323569Y204280D01*
X323566Y204267D01*
X323551Y204081D01*
X323534Y203892D01*
X323536Y203879D01*
X323535Y203865D01*
X323557Y203681D01*
X323578Y203492D01*
X323582Y203479D01*
X323583Y203466D01*
X323642Y203289D01*
X323699Y203108D01*
X323706Y203096D01*
X323710Y203084D01*
X323803Y202921D01*
X323894Y202756D01*
X323902Y202746D01*
X323909Y202734D01*
X324033Y202592D01*
X324154Y202449D01*
X324165Y202440D01*
X324174Y202430D01*
X324322Y202316D01*
X324470Y202199D01*
X324482Y202193D01*
X324493Y202185D01*
X324788Y202033D01*
X328495Y200498D01*
X331054Y197939D01*
X332439Y194596D01*
X332439Y190976D01*
X331054Y187633D01*
X329550Y186129D01*
X329511Y186082D01*
X329467Y186041D01*
X329384Y185927D01*
X329295Y185818D01*
X329267Y185764D01*
X329231Y185714D01*
X329172Y185586D01*
X329107Y185462D01*
X329089Y185404D01*
X329064Y185348D01*
X329032Y185211D01*
X328992Y185076D01*
X328986Y185015D01*
X328972Y184956D01*
X328963Y184758D01*
X328955Y184675D01*
X328958Y184653D01*
X328956Y184624D01*
X329083Y180885D01*
X329109Y180694D01*
X329133Y180501D01*
X329136Y180494D01*
X329137Y180486D01*
X329200Y180303D01*
X329261Y180119D01*
X329265Y180113D01*
X329268Y180105D01*
X329365Y179939D01*
X329462Y179770D01*
X329468Y179764D01*
X329471Y179758D01*
X329503Y179722D01*
X329677Y179517D01*
X339286Y169908D01*
X341073Y168122D01*
X341885Y166161D01*
X341885Y49739D01*
X341073Y47778D01*
X333222Y39927D01*
X331261Y39115D01*
X286782Y39115D01*
X286665Y39104D01*
X286549Y39102D01*
X286450Y39082D01*
X286381Y39075D01*
X286317Y39056D01*
X286224Y39037D01*
X286195Y39029D01*
X285560Y39102D01*
X285475Y39103D01*
X285328Y39115D01*
X284689Y39115D01*
X284662Y39127D01*
X284550Y39160D01*
X284441Y39203D01*
X284343Y39223D01*
X284276Y39243D01*
X284209Y39249D01*
X284116Y39268D01*
X284087Y39271D01*
X283528Y39582D01*
X283449Y39616D01*
X283319Y39683D01*
X282728Y39927D01*
X282707Y39948D01*
X282617Y40022D01*
X282533Y40103D01*
X282450Y40159D01*
X282396Y40203D01*
X282336Y40235D01*
X282257Y40288D01*
X282232Y40302D01*
X281834Y40803D01*
X281774Y40864D01*
X281680Y40976D01*
X281227Y41428D01*
X281216Y41455D01*
X281161Y41558D01*
X281115Y41665D01*
X281059Y41749D01*
X281026Y41810D01*
X280983Y41862D01*
X280930Y41941D01*
X280912Y41964D01*
X280736Y42579D01*
X280705Y42658D01*
X280660Y42798D01*
X280264Y43755D01*
X280251Y43778D01*
X280243Y43804D01*
X280156Y43955D01*
X280074Y44109D01*
X280057Y44130D01*
X280043Y44153D01*
X279928Y44285D01*
X279817Y44420D01*
X279796Y44437D01*
X279779Y44457D01*
X279640Y44563D01*
X279505Y44673D01*
X279481Y44686D01*
X279460Y44702D01*
X279164Y44854D01*
X277295Y45628D01*
X274736Y48187D01*
X273351Y51530D01*
X273351Y55150D01*
X274736Y58493D01*
X277295Y61052D01*
X280638Y62437D01*
X284258Y62437D01*
X287601Y61052D01*
X290160Y58493D01*
X291545Y55150D01*
X291545Y51816D01*
X291547Y51798D01*
X291545Y51780D01*
X291566Y51598D01*
X291585Y51415D01*
X291590Y51398D01*
X291592Y51381D01*
X291649Y51206D01*
X291703Y51030D01*
X291711Y51015D01*
X291717Y50998D01*
X291807Y50838D01*
X291895Y50676D01*
X291906Y50663D01*
X291915Y50647D01*
X292035Y50508D01*
X292152Y50367D01*
X292166Y50356D01*
X292178Y50342D01*
X292323Y50230D01*
X292466Y50115D01*
X292482Y50107D01*
X292496Y50096D01*
X292661Y50014D01*
X292823Y49929D01*
X292840Y49924D01*
X292856Y49916D01*
X293035Y49869D01*
X293210Y49818D01*
X293228Y49816D01*
X293245Y49812D01*
X293576Y49785D01*
X327149Y49785D01*
X327175Y49787D01*
X327202Y49785D01*
X327376Y49807D01*
X327550Y49825D01*
X327575Y49832D01*
X327602Y49836D01*
X327767Y49891D01*
X327934Y49943D01*
X327958Y49956D01*
X327983Y49964D01*
X328135Y50051D01*
X328288Y50135D01*
X328309Y50152D01*
X328332Y50165D01*
X328585Y50380D01*
X330620Y52415D01*
X330637Y52436D01*
X330658Y52453D01*
X330765Y52591D01*
X330875Y52726D01*
X330888Y52750D01*
X330904Y52771D01*
X330982Y52928D01*
X331064Y53082D01*
X331072Y53108D01*
X331084Y53132D01*
X331129Y53301D01*
X331179Y53468D01*
X331181Y53495D01*
X331188Y53520D01*
X331215Y53851D01*
X331215Y71422D01*
X331213Y71440D01*
X331215Y71458D01*
X331194Y71640D01*
X331175Y71823D01*
X331170Y71840D01*
X331168Y71857D01*
X331111Y72032D01*
X331057Y72208D01*
X331049Y72223D01*
X331043Y72240D01*
X330953Y72400D01*
X330865Y72562D01*
X330854Y72575D01*
X330845Y72591D01*
X330725Y72730D01*
X330608Y72871D01*
X330594Y72882D01*
X330582Y72896D01*
X330437Y73008D01*
X330294Y73123D01*
X330278Y73131D01*
X330264Y73142D01*
X330099Y73224D01*
X329937Y73309D01*
X329920Y73314D01*
X329904Y73322D01*
X329725Y73369D01*
X329550Y73420D01*
X329532Y73422D01*
X329515Y73426D01*
X329184Y73453D01*
X328390Y73453D01*
X325047Y74838D01*
X322488Y77397D01*
X321103Y80740D01*
X321103Y84360D01*
X322488Y87703D01*
X325047Y90262D01*
X328390Y91647D01*
X329184Y91647D01*
X329202Y91649D01*
X329220Y91647D01*
X329402Y91668D01*
X329585Y91687D01*
X329602Y91692D01*
X329619Y91694D01*
X329794Y91751D01*
X329970Y91805D01*
X329985Y91813D01*
X330002Y91819D01*
X330162Y91909D01*
X330324Y91997D01*
X330337Y92008D01*
X330353Y92017D01*
X330492Y92137D01*
X330633Y92254D01*
X330644Y92268D01*
X330658Y92280D01*
X330770Y92425D01*
X330885Y92568D01*
X330893Y92584D01*
X330904Y92598D01*
X330986Y92763D01*
X331071Y92925D01*
X331076Y92942D01*
X331084Y92958D01*
X331131Y93137D01*
X331182Y93312D01*
X331184Y93330D01*
X331188Y93347D01*
X331215Y93678D01*
X331215Y123515D01*
X331214Y123528D01*
X331215Y123541D01*
X331194Y123726D01*
X331175Y123915D01*
X331171Y123928D01*
X331170Y123941D01*
X331112Y124120D01*
X331057Y124300D01*
X331051Y124312D01*
X331047Y124325D01*
X330955Y124489D01*
X330865Y124654D01*
X330857Y124664D01*
X330850Y124676D01*
X330728Y124819D01*
X330608Y124963D01*
X330597Y124972D01*
X330589Y124982D01*
X330441Y125098D01*
X330294Y125216D01*
X330282Y125222D01*
X330272Y125230D01*
X330103Y125315D01*
X329937Y125401D01*
X329924Y125405D01*
X329912Y125411D01*
X329731Y125461D01*
X329550Y125513D01*
X329536Y125514D01*
X329523Y125517D01*
X329335Y125530D01*
X329148Y125546D01*
X329135Y125544D01*
X329122Y125545D01*
X328934Y125520D01*
X328749Y125499D01*
X328736Y125494D01*
X328723Y125493D01*
X328407Y125391D01*
X325659Y124253D01*
X322040Y124253D01*
X318697Y125638D01*
X317169Y127166D01*
X317148Y127183D01*
X317131Y127204D01*
X316993Y127311D01*
X316857Y127421D01*
X316834Y127434D01*
X316813Y127450D01*
X316656Y127528D01*
X316502Y127610D01*
X316476Y127618D01*
X316452Y127630D01*
X316283Y127675D01*
X316116Y127725D01*
X316089Y127727D01*
X316063Y127734D01*
X315733Y127761D01*
X289560Y127761D01*
X289419Y127747D01*
X289278Y127742D01*
X289219Y127727D01*
X289159Y127721D01*
X289024Y127680D01*
X288887Y127646D01*
X288832Y127621D01*
X288774Y127603D01*
X288650Y127536D01*
X288522Y127476D01*
X288473Y127440D01*
X288420Y127411D01*
X288312Y127321D01*
X288198Y127237D01*
X288158Y127192D01*
X288111Y127154D01*
X288023Y127044D01*
X287928Y126939D01*
X287897Y126887D01*
X287859Y126840D01*
X287794Y126715D01*
X287721Y126593D01*
X287701Y126536D01*
X287673Y126483D01*
X287634Y126347D01*
X287587Y126213D01*
X287576Y126145D01*
X287562Y126096D01*
X287555Y126014D01*
X287535Y125886D01*
X283725Y76356D01*
X283726Y76291D01*
X283719Y76200D01*
X283719Y71881D01*
X241166Y71881D01*
X241144Y71879D01*
X241122Y71881D01*
X240945Y71859D01*
X240766Y71841D01*
X240744Y71835D01*
X240722Y71832D01*
X240552Y71776D01*
X240381Y71723D01*
X240361Y71713D01*
X240340Y71706D01*
X240184Y71617D01*
X240027Y71531D01*
X240010Y71517D01*
X239990Y71506D01*
X239855Y71388D01*
X239718Y71274D01*
X239704Y71256D01*
X239687Y71242D01*
X239577Y71100D01*
X239465Y70960D01*
X239455Y70940D01*
X239441Y70922D01*
X239290Y70627D01*
X238452Y68605D01*
X236245Y66398D01*
X233357Y65202D01*
X233190Y65181D01*
X233016Y65163D01*
X232991Y65156D01*
X232964Y65152D01*
X232798Y65097D01*
X232631Y65045D01*
X232608Y65032D01*
X232582Y65024D01*
X232431Y64937D01*
X232277Y64853D01*
X232257Y64836D01*
X232233Y64823D01*
X231980Y64608D01*
X228942Y61570D01*
X228925Y61549D01*
X228904Y61531D01*
X228797Y61393D01*
X228687Y61258D01*
X228674Y61234D01*
X228658Y61213D01*
X228580Y61056D01*
X228498Y60902D01*
X228490Y60877D01*
X228478Y60853D01*
X228433Y60683D01*
X228383Y60516D01*
X228381Y60490D01*
X228374Y60464D01*
X228347Y60133D01*
X228347Y35117D01*
X228349Y35090D01*
X228347Y35063D01*
X228369Y34890D01*
X228387Y34716D01*
X228394Y34691D01*
X228398Y34664D01*
X228453Y34498D01*
X228505Y34331D01*
X228518Y34308D01*
X228526Y34282D01*
X228613Y34131D01*
X228697Y33977D01*
X228714Y33957D01*
X228727Y33933D01*
X228942Y33680D01*
X230530Y32092D01*
X230551Y32075D01*
X230569Y32054D01*
X230707Y31947D01*
X230842Y31837D01*
X230866Y31824D01*
X230887Y31808D01*
X231044Y31730D01*
X231198Y31648D01*
X231223Y31640D01*
X231247Y31628D01*
X231417Y31583D01*
X231584Y31533D01*
X231610Y31531D01*
X231636Y31524D01*
X231967Y31497D01*
X381608Y31497D01*
X381621Y31498D01*
X381635Y31497D01*
X381821Y31518D01*
X382009Y31537D01*
X382021Y31541D01*
X382035Y31542D01*
X382214Y31600D01*
X382394Y31655D01*
X382405Y31661D01*
X382418Y31665D01*
X382583Y31757D01*
X382748Y31847D01*
X382758Y31855D01*
X382770Y31862D01*
X382913Y31984D01*
X383057Y32104D01*
X383065Y32115D01*
X383075Y32123D01*
X383192Y32272D01*
X383309Y32418D01*
X383315Y32430D01*
X383324Y32440D01*
X383408Y32609D01*
X383495Y32775D01*
X383498Y32788D01*
X383504Y32800D01*
X383554Y32982D01*
X383606Y33162D01*
X383607Y33176D01*
X383611Y33189D01*
X383624Y33377D01*
X383639Y33564D01*
X383637Y33577D01*
X383638Y33590D01*
X383614Y33778D01*
X383592Y33963D01*
X383588Y33976D01*
X383586Y33989D01*
X383485Y34305D01*
X381507Y39079D01*
X381507Y44233D01*
X383479Y48994D01*
X387124Y52639D01*
X389781Y53739D01*
X391885Y54611D01*
X397039Y54611D01*
X401800Y52639D01*
X405445Y48994D01*
X407417Y44233D01*
X407417Y39079D01*
X405439Y34305D01*
X405435Y34292D01*
X405429Y34281D01*
X405377Y34100D01*
X405323Y33920D01*
X405322Y33907D01*
X405318Y33894D01*
X405303Y33706D01*
X405285Y33519D01*
X405286Y33506D01*
X405285Y33492D01*
X405307Y33304D01*
X405326Y33119D01*
X405330Y33106D01*
X405332Y33093D01*
X405391Y32913D01*
X405446Y32734D01*
X405453Y32723D01*
X405457Y32710D01*
X405550Y32545D01*
X405640Y32381D01*
X405648Y32371D01*
X405655Y32359D01*
X405778Y32217D01*
X405899Y32073D01*
X405909Y32065D01*
X405918Y32054D01*
X406066Y31939D01*
X406213Y31822D01*
X406225Y31816D01*
X406236Y31808D01*
X406405Y31724D01*
X406572Y31638D01*
X406584Y31634D01*
X406596Y31628D01*
X406780Y31579D01*
X406959Y31528D01*
X406972Y31527D01*
X406985Y31524D01*
X407316Y31497D01*
X573567Y31497D01*
X573589Y31499D01*
X573611Y31497D01*
X573789Y31519D01*
X573967Y31537D01*
X573989Y31543D01*
X574011Y31546D01*
X574181Y31602D01*
X574352Y31655D01*
X574372Y31665D01*
X574393Y31672D01*
X574549Y31761D01*
X574706Y31847D01*
X574723Y31861D01*
X574743Y31872D01*
X574879Y31990D01*
X575016Y32104D01*
X575030Y32122D01*
X575046Y32136D01*
X575156Y32278D01*
X575268Y32418D01*
X575278Y32438D01*
X575292Y32456D01*
X575443Y32751D01*
X576507Y35318D01*
X580294Y39105D01*
X581297Y39521D01*
X585242Y41155D01*
X590598Y41155D01*
X595546Y39105D01*
X599333Y35318D01*
X599677Y34487D01*
X599680Y34482D01*
X599683Y34477D01*
X599759Y34335D01*
X599836Y34181D01*
X599854Y34158D01*
X599867Y34132D01*
X599977Y33999D01*
X600084Y33863D01*
X600106Y33844D01*
X600124Y33822D01*
X600258Y33713D01*
X600389Y33601D01*
X600414Y33586D01*
X600437Y33568D01*
X600589Y33488D01*
X600740Y33403D01*
X600768Y33395D01*
X600793Y33381D01*
X600959Y33333D01*
X601123Y33279D01*
X601152Y33276D01*
X601179Y33268D01*
X601352Y33253D01*
X601523Y33234D01*
X601552Y33236D01*
X601581Y33233D01*
X601752Y33253D01*
X601924Y33267D01*
X601952Y33275D01*
X601981Y33279D01*
X602145Y33331D01*
X602311Y33380D01*
X602336Y33393D01*
X602364Y33402D01*
X602514Y33486D01*
X602668Y33566D01*
X602690Y33584D01*
X602715Y33598D01*
X602846Y33710D01*
X602981Y33819D01*
X603002Y33843D01*
X603021Y33860D01*
X603074Y33927D01*
X603197Y34071D01*
X604214Y35470D01*
X605542Y36798D01*
X607063Y37903D01*
X608737Y38756D01*
X610524Y39337D01*
X610781Y39377D01*
X610781Y28200D01*
X610782Y28182D01*
X610781Y28165D01*
X610802Y27982D01*
X610821Y27800D01*
X610826Y27783D01*
X610828Y27765D01*
X610885Y27590D01*
X610939Y27415D01*
X610947Y27399D01*
X610953Y27382D01*
X611043Y27222D01*
X611130Y27061D01*
X611142Y27047D01*
X611151Y27031D01*
X611271Y26892D01*
X611388Y26751D01*
X611402Y26740D01*
X611414Y26727D01*
X611559Y26614D01*
X611702Y26499D01*
X611718Y26491D01*
X611732Y26480D01*
X611897Y26398D01*
X611973Y26358D01*
X612059Y26206D01*
X612147Y26044D01*
X612158Y26031D01*
X612167Y26015D01*
X612287Y25876D01*
X612405Y25735D01*
X612418Y25724D01*
X612430Y25710D01*
X612575Y25598D01*
X612718Y25483D01*
X612734Y25475D01*
X612748Y25464D01*
X612913Y25382D01*
X613076Y25297D01*
X613093Y25292D01*
X613109Y25284D01*
X613287Y25236D01*
X613462Y25186D01*
X613480Y25184D01*
X613497Y25180D01*
X613828Y25153D01*
X625005Y25153D01*
X624965Y24896D01*
X624384Y23109D01*
X623531Y21435D01*
X622666Y20244D01*
X622640Y20200D01*
X622608Y20160D01*
X622539Y20026D01*
X622463Y19896D01*
X622446Y19848D01*
X622422Y19803D01*
X622381Y19658D01*
X622332Y19516D01*
X622325Y19465D01*
X622311Y19416D01*
X622299Y19265D01*
X622279Y19116D01*
X622282Y19065D01*
X622278Y19014D01*
X622296Y18865D01*
X622306Y18715D01*
X622319Y18665D01*
X622325Y18615D01*
X622372Y18472D01*
X622411Y18326D01*
X622434Y18281D01*
X622450Y18232D01*
X622524Y18101D01*
X622591Y17966D01*
X622623Y17926D01*
X622648Y17881D01*
X622746Y17767D01*
X622839Y17649D01*
X622878Y17615D01*
X622911Y17577D01*
X623030Y17484D01*
X623144Y17386D01*
X623189Y17361D01*
X623229Y17330D01*
X623364Y17263D01*
X623495Y17189D01*
X623544Y17173D01*
X623590Y17150D01*
X623735Y17111D01*
X623878Y17065D01*
X623929Y17059D01*
X623978Y17046D01*
X624209Y17027D01*
X624278Y17019D01*
X624292Y17020D01*
X624309Y17019D01*
X628523Y17019D01*
X628541Y17021D01*
G37*
G36*
X133979Y42431D02*
X133979Y42431D01*
X134106Y42434D01*
X134179Y42451D01*
X134254Y42459D01*
X134375Y42496D01*
X134498Y42524D01*
X134567Y42555D01*
X134639Y42577D01*
X134750Y42637D01*
X134866Y42689D01*
X134927Y42733D01*
X134993Y42769D01*
X135090Y42849D01*
X135193Y42923D01*
X135245Y42978D01*
X135302Y43026D01*
X135382Y43125D01*
X135468Y43217D01*
X135508Y43281D01*
X135555Y43340D01*
X135613Y43452D01*
X135679Y43560D01*
X135706Y43631D01*
X135740Y43697D01*
X135775Y43819D01*
X135819Y43937D01*
X135831Y44012D01*
X135852Y44084D01*
X135862Y44210D01*
X135882Y44335D01*
X135878Y44410D01*
X135885Y44486D01*
X135870Y44611D01*
X135864Y44737D01*
X135846Y44811D01*
X135838Y44885D01*
X135799Y45005D01*
X135768Y45128D01*
X135736Y45197D01*
X135713Y45268D01*
X135651Y45378D01*
X135597Y45493D01*
X135552Y45553D01*
X135515Y45619D01*
X135432Y45714D01*
X135357Y45816D01*
X135301Y45867D01*
X135252Y45924D01*
X135152Y46001D01*
X135058Y46086D01*
X134983Y46132D01*
X134934Y46170D01*
X134868Y46203D01*
X134776Y46260D01*
X133443Y46939D01*
X131922Y48044D01*
X130594Y49372D01*
X129489Y50893D01*
X128636Y52567D01*
X128055Y54354D01*
X128015Y54611D01*
X139192Y54611D01*
X139210Y54612D01*
X139227Y54611D01*
X139410Y54632D01*
X139592Y54651D01*
X139609Y54656D01*
X139627Y54658D01*
X139802Y54715D01*
X139977Y54769D01*
X139993Y54777D01*
X140010Y54783D01*
X140170Y54873D01*
X140331Y54960D01*
X140345Y54972D01*
X140361Y54981D01*
X140500Y55101D01*
X140641Y55218D01*
X140652Y55232D01*
X140665Y55244D01*
X140778Y55389D01*
X140893Y55532D01*
X140901Y55548D01*
X140912Y55562D01*
X140994Y55727D01*
X141034Y55803D01*
X141186Y55889D01*
X141348Y55977D01*
X141361Y55988D01*
X141377Y55997D01*
X141516Y56117D01*
X141657Y56235D01*
X141668Y56248D01*
X141682Y56260D01*
X141794Y56405D01*
X141909Y56548D01*
X141917Y56564D01*
X141928Y56578D01*
X142010Y56743D01*
X142095Y56906D01*
X142100Y56923D01*
X142108Y56939D01*
X142155Y57117D01*
X142206Y57292D01*
X142208Y57310D01*
X142212Y57327D01*
X142239Y57658D01*
X142239Y68835D01*
X142496Y68795D01*
X144283Y68214D01*
X145957Y67361D01*
X147478Y66256D01*
X148806Y64928D01*
X149823Y63529D01*
X149938Y63400D01*
X150049Y63268D01*
X150071Y63250D01*
X150091Y63228D01*
X150229Y63124D01*
X150364Y63017D01*
X150389Y63003D01*
X150412Y62986D01*
X150568Y62911D01*
X150722Y62833D01*
X150749Y62825D01*
X150776Y62812D01*
X150943Y62770D01*
X151109Y62723D01*
X151138Y62721D01*
X151166Y62714D01*
X151339Y62705D01*
X151511Y62692D01*
X151539Y62695D01*
X151568Y62694D01*
X151739Y62720D01*
X151910Y62740D01*
X151938Y62750D01*
X151966Y62754D01*
X152129Y62813D01*
X152292Y62867D01*
X152317Y62881D01*
X152345Y62891D01*
X152492Y62981D01*
X152642Y63066D01*
X152664Y63085D01*
X152689Y63100D01*
X152816Y63218D01*
X152946Y63331D01*
X152963Y63354D01*
X152985Y63373D01*
X153086Y63514D01*
X153191Y63650D01*
X153206Y63679D01*
X153221Y63699D01*
X153256Y63777D01*
X153343Y63945D01*
X153687Y64776D01*
X157474Y68563D01*
X162422Y70613D01*
X167778Y70613D01*
X170673Y69414D01*
X170686Y69410D01*
X170697Y69404D01*
X170877Y69352D01*
X171058Y69297D01*
X171071Y69296D01*
X171084Y69292D01*
X171272Y69277D01*
X171459Y69259D01*
X171472Y69260D01*
X171486Y69259D01*
X171673Y69281D01*
X171859Y69301D01*
X171872Y69305D01*
X171885Y69306D01*
X172065Y69365D01*
X172244Y69421D01*
X172255Y69427D01*
X172268Y69431D01*
X172433Y69524D01*
X172597Y69614D01*
X172607Y69622D01*
X172619Y69629D01*
X172761Y69752D01*
X172905Y69873D01*
X172913Y69883D01*
X172924Y69892D01*
X173039Y70041D01*
X173156Y70188D01*
X173162Y70200D01*
X173170Y70210D01*
X173254Y70379D01*
X173340Y70546D01*
X173344Y70559D01*
X173350Y70571D01*
X173399Y70754D01*
X173450Y70933D01*
X173451Y70947D01*
X173454Y70960D01*
X173481Y71290D01*
X173481Y80519D01*
X228923Y80519D01*
X228954Y80522D01*
X228985Y80520D01*
X229154Y80542D01*
X229323Y80559D01*
X229353Y80568D01*
X229384Y80572D01*
X229700Y80673D01*
X230239Y80897D01*
X233361Y80897D01*
X233900Y80673D01*
X233930Y80664D01*
X233958Y80650D01*
X234123Y80606D01*
X234285Y80557D01*
X234316Y80554D01*
X234347Y80546D01*
X234677Y80519D01*
X259334Y80519D01*
X259357Y80521D01*
X259380Y80519D01*
X259557Y80541D01*
X259735Y80559D01*
X259757Y80565D01*
X259780Y80568D01*
X259949Y80624D01*
X260119Y80677D01*
X260140Y80688D01*
X260162Y80695D01*
X260317Y80784D01*
X260473Y80869D01*
X260491Y80883D01*
X260512Y80895D01*
X260646Y81013D01*
X260783Y81126D01*
X260797Y81144D01*
X260815Y81160D01*
X260924Y81301D01*
X261035Y81440D01*
X261046Y81461D01*
X261060Y81479D01*
X261139Y81640D01*
X261221Y81797D01*
X261227Y81820D01*
X261237Y81841D01*
X261283Y82013D01*
X261332Y82184D01*
X261334Y82208D01*
X261340Y82230D01*
X261365Y82561D01*
X261360Y83598D01*
X261765Y84575D01*
X261766Y84580D01*
X261769Y84585D01*
X262167Y85561D01*
X262916Y86311D01*
X262919Y86314D01*
X262924Y86318D01*
X263881Y87286D01*
X263949Y87344D01*
X269708Y93103D01*
X269725Y93124D01*
X269746Y93141D01*
X269853Y93279D01*
X269963Y93414D01*
X269976Y93438D01*
X269992Y93459D01*
X270070Y93616D01*
X270152Y93770D01*
X270160Y93796D01*
X270172Y93820D01*
X270217Y93989D01*
X270267Y94156D01*
X270269Y94183D01*
X270276Y94208D01*
X270303Y94539D01*
X270303Y97059D01*
X271361Y99613D01*
X271399Y99738D01*
X271445Y99860D01*
X271457Y99930D01*
X271478Y99999D01*
X271490Y100128D01*
X271511Y100257D01*
X271509Y100328D01*
X271516Y100400D01*
X271502Y100529D01*
X271498Y100659D01*
X271482Y100729D01*
X271474Y100800D01*
X271435Y100924D01*
X271405Y101051D01*
X271376Y101116D01*
X271354Y101184D01*
X271292Y101298D01*
X271237Y101417D01*
X271195Y101475D01*
X271161Y101538D01*
X271077Y101637D01*
X271001Y101743D01*
X270948Y101791D01*
X270902Y101846D01*
X270800Y101927D01*
X270704Y102015D01*
X270643Y102052D01*
X270587Y102097D01*
X270471Y102156D01*
X270360Y102224D01*
X270292Y102248D01*
X270229Y102281D01*
X270104Y102316D01*
X269981Y102360D01*
X269910Y102371D01*
X269842Y102390D01*
X269712Y102400D01*
X269583Y102420D01*
X269511Y102416D01*
X269440Y102421D01*
X269311Y102406D01*
X269181Y102399D01*
X269100Y102380D01*
X269040Y102373D01*
X268968Y102349D01*
X268858Y102323D01*
X268633Y102250D01*
X268572Y102223D01*
X268482Y102194D01*
X267636Y101844D01*
X267580Y101838D01*
X267427Y101830D01*
X267373Y101818D01*
X267330Y101813D01*
X267248Y101788D01*
X267193Y101775D01*
X266285Y101847D01*
X266218Y101846D01*
X266125Y101853D01*
X229859Y101853D01*
X229833Y101851D01*
X229806Y101853D01*
X229632Y101831D01*
X229459Y101813D01*
X229433Y101806D01*
X229407Y101802D01*
X229241Y101747D01*
X229074Y101695D01*
X229050Y101682D01*
X229025Y101674D01*
X228873Y101587D01*
X228720Y101503D01*
X228699Y101486D01*
X228676Y101473D01*
X228423Y101258D01*
X227403Y100238D01*
X224742Y99136D01*
X224741Y99136D01*
X224060Y98853D01*
X220440Y98853D01*
X217097Y100238D01*
X214538Y102797D01*
X213153Y106140D01*
X213153Y109760D01*
X214538Y113103D01*
X217097Y115662D01*
X220440Y117047D01*
X224060Y117047D01*
X227403Y115662D01*
X228423Y114642D01*
X228444Y114625D01*
X228461Y114604D01*
X228599Y114497D01*
X228735Y114387D01*
X228758Y114374D01*
X228779Y114358D01*
X228936Y114280D01*
X229090Y114198D01*
X229116Y114190D01*
X229140Y114178D01*
X229309Y114133D01*
X229476Y114083D01*
X229503Y114081D01*
X229529Y114074D01*
X229859Y114047D01*
X265161Y114047D01*
X265312Y114062D01*
X265465Y114070D01*
X265519Y114082D01*
X265562Y114087D01*
X265644Y114112D01*
X265788Y114146D01*
X266645Y114424D01*
X266743Y114467D01*
X266845Y114501D01*
X266927Y114547D01*
X267014Y114585D01*
X267102Y114647D01*
X267195Y114700D01*
X267266Y114762D01*
X267344Y114817D01*
X267418Y114894D01*
X267498Y114965D01*
X267556Y115040D01*
X267621Y115108D01*
X267678Y115199D01*
X267744Y115284D01*
X267795Y115385D01*
X267836Y115449D01*
X267857Y115505D01*
X267895Y115579D01*
X268132Y116151D01*
X270691Y118710D01*
X273237Y119764D01*
X273827Y120009D01*
X273847Y120019D01*
X273868Y120026D01*
X274024Y120114D01*
X274182Y120199D01*
X274199Y120213D01*
X274219Y120224D01*
X274354Y120341D01*
X274493Y120455D01*
X274507Y120473D01*
X274524Y120487D01*
X274633Y120629D01*
X274746Y120768D01*
X274757Y120788D01*
X274770Y120805D01*
X274850Y120966D01*
X274933Y121125D01*
X274940Y121146D01*
X274950Y121166D01*
X274996Y121340D01*
X275046Y121511D01*
X275048Y121533D01*
X275054Y121555D01*
X275081Y121886D01*
X275081Y132080D01*
X275079Y132098D01*
X275081Y132116D01*
X275060Y132298D01*
X275041Y132481D01*
X275036Y132498D01*
X275034Y132515D01*
X274977Y132690D01*
X274923Y132866D01*
X274915Y132881D01*
X274909Y132898D01*
X274819Y133058D01*
X274731Y133220D01*
X274720Y133233D01*
X274711Y133249D01*
X274591Y133388D01*
X274474Y133529D01*
X274460Y133540D01*
X274448Y133554D01*
X274303Y133666D01*
X274160Y133781D01*
X274144Y133789D01*
X274130Y133800D01*
X273965Y133882D01*
X273803Y133967D01*
X273786Y133972D01*
X273770Y133980D01*
X273591Y134027D01*
X273416Y134078D01*
X273398Y134080D01*
X273381Y134084D01*
X273050Y134111D01*
X179578Y134111D01*
X179560Y134109D01*
X179542Y134111D01*
X179360Y134090D01*
X179177Y134071D01*
X179160Y134066D01*
X179143Y134064D01*
X178968Y134007D01*
X178792Y133953D01*
X178777Y133945D01*
X178760Y133939D01*
X178600Y133849D01*
X178438Y133761D01*
X178425Y133750D01*
X178409Y133741D01*
X178270Y133621D01*
X178129Y133504D01*
X178118Y133490D01*
X178104Y133478D01*
X177992Y133333D01*
X177877Y133190D01*
X177869Y133174D01*
X177858Y133160D01*
X177776Y132995D01*
X177691Y132833D01*
X177686Y132816D01*
X177678Y132800D01*
X177631Y132621D01*
X177580Y132446D01*
X177578Y132428D01*
X177574Y132411D01*
X177547Y132080D01*
X177547Y109209D01*
X177549Y109183D01*
X177547Y109156D01*
X177569Y108982D01*
X177587Y108809D01*
X177594Y108783D01*
X177598Y108757D01*
X177653Y108591D01*
X177705Y108424D01*
X177718Y108400D01*
X177726Y108375D01*
X177813Y108223D01*
X177897Y108070D01*
X177914Y108049D01*
X177927Y108026D01*
X178142Y107773D01*
X179162Y106753D01*
X180547Y103410D01*
X180547Y99790D01*
X179162Y96447D01*
X176603Y93888D01*
X173260Y92503D01*
X169640Y92503D01*
X166297Y93888D01*
X163738Y96447D01*
X162353Y99790D01*
X162353Y103410D01*
X163738Y106753D01*
X164758Y107773D01*
X164775Y107794D01*
X164796Y107811D01*
X164902Y107949D01*
X165013Y108085D01*
X165026Y108108D01*
X165042Y108129D01*
X165120Y108286D01*
X165202Y108440D01*
X165210Y108466D01*
X165222Y108490D01*
X165267Y108659D01*
X165317Y108826D01*
X165319Y108853D01*
X165326Y108879D01*
X165353Y109209D01*
X165353Y140913D01*
X166281Y143154D01*
X167996Y144869D01*
X170237Y145797D01*
X172663Y145797D01*
X173516Y145443D01*
X173546Y145434D01*
X173574Y145420D01*
X173738Y145376D01*
X173901Y145327D01*
X173932Y145324D01*
X173962Y145316D01*
X174293Y145289D01*
X184085Y145289D01*
X184094Y145290D01*
X184103Y145289D01*
X184296Y145310D01*
X184486Y145329D01*
X184494Y145331D01*
X184503Y145332D01*
X184687Y145390D01*
X184871Y145447D01*
X184879Y145451D01*
X184887Y145454D01*
X185055Y145546D01*
X185225Y145639D01*
X185232Y145644D01*
X185240Y145649D01*
X185387Y145773D01*
X185534Y145896D01*
X185540Y145903D01*
X185547Y145909D01*
X185666Y146061D01*
X185786Y146210D01*
X185791Y146218D01*
X185796Y146225D01*
X185884Y146398D01*
X185972Y146567D01*
X185974Y146576D01*
X185979Y146584D01*
X186030Y146770D01*
X186083Y146954D01*
X186084Y146963D01*
X186087Y146972D01*
X186101Y147165D01*
X186116Y147356D01*
X186115Y147364D01*
X186116Y147373D01*
X186092Y147566D01*
X186069Y147755D01*
X186067Y147764D01*
X186065Y147773D01*
X186004Y147956D01*
X185945Y148138D01*
X185940Y148146D01*
X185937Y148154D01*
X185841Y148321D01*
X185747Y148489D01*
X185741Y148496D01*
X185736Y148503D01*
X185522Y148756D01*
X172520Y161758D01*
X172499Y161775D01*
X172481Y161796D01*
X172343Y161903D01*
X172208Y162013D01*
X172184Y162026D01*
X172163Y162042D01*
X172006Y162120D01*
X171852Y162202D01*
X171827Y162210D01*
X171803Y162222D01*
X171633Y162267D01*
X171466Y162317D01*
X171440Y162319D01*
X171414Y162326D01*
X171083Y162353D01*
X169640Y162353D01*
X166297Y163738D01*
X163738Y166297D01*
X162353Y169640D01*
X162353Y173260D01*
X163738Y176603D01*
X166297Y179162D01*
X169640Y180547D01*
X173260Y180547D01*
X176603Y179162D01*
X179162Y176603D01*
X180547Y173260D01*
X180547Y171817D01*
X180549Y171790D01*
X180547Y171763D01*
X180569Y171590D01*
X180587Y171416D01*
X180594Y171391D01*
X180598Y171364D01*
X180653Y171198D01*
X180705Y171031D01*
X180718Y171008D01*
X180726Y170982D01*
X180813Y170831D01*
X180897Y170677D01*
X180914Y170657D01*
X180927Y170633D01*
X181142Y170380D01*
X199288Y152234D01*
X199309Y152217D01*
X199327Y152196D01*
X199465Y152089D01*
X199600Y151979D01*
X199624Y151966D01*
X199645Y151950D01*
X199802Y151872D01*
X199956Y151790D01*
X199981Y151782D01*
X200005Y151770D01*
X200175Y151725D01*
X200342Y151675D01*
X200368Y151673D01*
X200394Y151666D01*
X200725Y151639D01*
X228600Y151639D01*
X228618Y151641D01*
X228636Y151639D01*
X228818Y151660D01*
X229001Y151679D01*
X229018Y151684D01*
X229035Y151686D01*
X229210Y151743D01*
X229386Y151797D01*
X229401Y151805D01*
X229418Y151811D01*
X229578Y151901D01*
X229740Y151989D01*
X229753Y152000D01*
X229769Y152009D01*
X229908Y152129D01*
X230049Y152246D01*
X230060Y152260D01*
X230074Y152272D01*
X230186Y152417D01*
X230301Y152560D01*
X230309Y152576D01*
X230320Y152590D01*
X230402Y152755D01*
X230487Y152917D01*
X230492Y152934D01*
X230500Y152950D01*
X230547Y153129D01*
X230598Y153304D01*
X230600Y153322D01*
X230604Y153339D01*
X230631Y153670D01*
X230631Y196850D01*
X230629Y196868D01*
X230631Y196886D01*
X230610Y197068D01*
X230591Y197251D01*
X230586Y197268D01*
X230584Y197285D01*
X230527Y197460D01*
X230473Y197636D01*
X230465Y197651D01*
X230459Y197668D01*
X230369Y197828D01*
X230281Y197990D01*
X230270Y198003D01*
X230261Y198019D01*
X230141Y198158D01*
X230024Y198299D01*
X230010Y198310D01*
X229998Y198324D01*
X229853Y198436D01*
X229710Y198551D01*
X229694Y198559D01*
X229680Y198570D01*
X229515Y198652D01*
X229353Y198737D01*
X229336Y198742D01*
X229320Y198750D01*
X229141Y198797D01*
X228966Y198848D01*
X228948Y198850D01*
X228931Y198854D01*
X228600Y198881D01*
X186181Y198881D01*
X186181Y247523D01*
X186179Y247541D01*
X186181Y247559D01*
X186160Y247741D01*
X186141Y247924D01*
X186136Y247941D01*
X186134Y247958D01*
X186077Y248133D01*
X186023Y248309D01*
X186015Y248324D01*
X186009Y248341D01*
X185919Y248501D01*
X185831Y248663D01*
X185820Y248676D01*
X185811Y248692D01*
X185691Y248831D01*
X185574Y248972D01*
X185560Y248983D01*
X185548Y248997D01*
X185403Y249109D01*
X185260Y249224D01*
X185244Y249232D01*
X185230Y249243D01*
X185065Y249325D01*
X184903Y249410D01*
X184886Y249415D01*
X184870Y249423D01*
X184691Y249470D01*
X184516Y249521D01*
X184498Y249523D01*
X184481Y249527D01*
X184150Y249554D01*
X140368Y249554D01*
X140355Y249553D01*
X140341Y249554D01*
X140155Y249533D01*
X139967Y249514D01*
X139955Y249510D01*
X139941Y249509D01*
X139762Y249451D01*
X139583Y249396D01*
X139571Y249390D01*
X139558Y249386D01*
X139393Y249294D01*
X139229Y249204D01*
X139218Y249196D01*
X139207Y249189D01*
X139063Y249067D01*
X138919Y248947D01*
X138911Y248936D01*
X138901Y248928D01*
X138784Y248779D01*
X138667Y248633D01*
X138661Y248621D01*
X138653Y248611D01*
X138568Y248441D01*
X138481Y248276D01*
X138478Y248263D01*
X138472Y248251D01*
X138422Y248068D01*
X138370Y247889D01*
X138369Y247875D01*
X138365Y247862D01*
X138352Y247674D01*
X138337Y247487D01*
X138339Y247474D01*
X138338Y247461D01*
X138362Y247273D01*
X138384Y247088D01*
X138388Y247075D01*
X138390Y247062D01*
X138491Y246746D01*
X139701Y243826D01*
X139701Y238774D01*
X137767Y234106D01*
X135724Y232062D01*
X135707Y232041D01*
X135686Y232024D01*
X135579Y231886D01*
X135469Y231751D01*
X135456Y231727D01*
X135440Y231706D01*
X135362Y231549D01*
X135280Y231395D01*
X135272Y231369D01*
X135260Y231345D01*
X135215Y231176D01*
X135165Y231009D01*
X135163Y230982D01*
X135156Y230957D01*
X135129Y230626D01*
X135129Y195233D01*
X133891Y192245D01*
X131319Y189673D01*
X116674Y175028D01*
X116657Y175007D01*
X116636Y174990D01*
X116529Y174852D01*
X116419Y174716D01*
X116406Y174693D01*
X116390Y174672D01*
X116312Y174515D01*
X116230Y174361D01*
X116222Y174335D01*
X116210Y174311D01*
X116165Y174142D01*
X116115Y173975D01*
X116113Y173948D01*
X116106Y173922D01*
X116079Y173592D01*
X116079Y144433D01*
X114841Y141445D01*
X106205Y132809D01*
X103217Y131571D01*
X94426Y131571D01*
X94404Y131569D01*
X94382Y131571D01*
X94204Y131549D01*
X94025Y131531D01*
X94004Y131525D01*
X93982Y131522D01*
X93811Y131466D01*
X93640Y131413D01*
X93621Y131403D01*
X93600Y131396D01*
X93444Y131307D01*
X93286Y131221D01*
X93269Y131207D01*
X93250Y131196D01*
X93115Y131078D01*
X92977Y130964D01*
X92963Y130946D01*
X92946Y130932D01*
X92837Y130789D01*
X92725Y130650D01*
X92715Y130630D01*
X92701Y130613D01*
X92549Y130317D01*
X92269Y129641D01*
X92039Y129411D01*
X92028Y129397D01*
X92015Y129386D01*
X91900Y129241D01*
X91784Y129100D01*
X91776Y129084D01*
X91765Y129070D01*
X91682Y128906D01*
X91596Y128744D01*
X91591Y128727D01*
X91583Y128711D01*
X91533Y128534D01*
X91481Y128358D01*
X91479Y128340D01*
X91475Y128323D01*
X91461Y128140D01*
X91445Y127957D01*
X91447Y127939D01*
X91445Y127922D01*
X91468Y127739D01*
X91488Y127557D01*
X91493Y127540D01*
X91496Y127522D01*
X91554Y127347D01*
X91609Y127173D01*
X91618Y127157D01*
X91624Y127140D01*
X91716Y126981D01*
X91804Y126821D01*
X91816Y126807D01*
X91825Y126792D01*
X92039Y126539D01*
X94258Y124320D01*
X96947Y117829D01*
X96947Y110803D01*
X94258Y104312D01*
X92039Y102093D01*
X92028Y102080D01*
X92014Y102068D01*
X91900Y101924D01*
X91784Y101782D01*
X91776Y101766D01*
X91765Y101752D01*
X91681Y101588D01*
X91596Y101426D01*
X91591Y101409D01*
X91583Y101393D01*
X91533Y101216D01*
X91481Y101040D01*
X91479Y101022D01*
X91475Y101005D01*
X91461Y100822D01*
X91445Y100639D01*
X91447Y100622D01*
X91445Y100604D01*
X91468Y100422D01*
X91488Y100239D01*
X91493Y100222D01*
X91496Y100204D01*
X91554Y100031D01*
X91609Y99855D01*
X91618Y99840D01*
X91624Y99823D01*
X91716Y99663D01*
X91804Y99503D01*
X91816Y99489D01*
X91825Y99474D01*
X92039Y99221D01*
X92269Y98991D01*
X94601Y93362D01*
X94601Y87270D01*
X92269Y81641D01*
X88881Y78252D01*
X88869Y78239D01*
X88856Y78227D01*
X88742Y78083D01*
X88626Y77941D01*
X88617Y77925D01*
X88606Y77911D01*
X88523Y77747D01*
X88437Y77585D01*
X88432Y77568D01*
X88424Y77552D01*
X88374Y77375D01*
X88322Y77199D01*
X88320Y77181D01*
X88316Y77164D01*
X88302Y76981D01*
X88286Y76798D01*
X88288Y76780D01*
X88286Y76763D01*
X88309Y76581D01*
X88329Y76398D01*
X88335Y76381D01*
X88337Y76363D01*
X88395Y76190D01*
X88451Y76014D01*
X88459Y75998D01*
X88465Y75982D01*
X88557Y75822D01*
X88645Y75662D01*
X88657Y75648D01*
X88666Y75633D01*
X88881Y75380D01*
X92269Y71991D01*
X94601Y66362D01*
X94601Y60270D01*
X92269Y54641D01*
X87961Y50333D01*
X82332Y48001D01*
X76240Y48001D01*
X70611Y50333D01*
X66303Y54641D01*
X63971Y60270D01*
X63971Y66362D01*
X66303Y71991D01*
X69691Y75380D01*
X69703Y75394D01*
X69716Y75405D01*
X69830Y75549D01*
X69946Y75691D01*
X69955Y75707D01*
X69966Y75721D01*
X70049Y75885D01*
X70135Y76047D01*
X70140Y76064D01*
X70148Y76080D01*
X70198Y76257D01*
X70250Y76433D01*
X70252Y76451D01*
X70256Y76468D01*
X70270Y76651D01*
X70286Y76834D01*
X70284Y76852D01*
X70286Y76869D01*
X70263Y77051D01*
X70243Y77234D01*
X70238Y77251D01*
X70235Y77269D01*
X70177Y77443D01*
X70121Y77618D01*
X70113Y77634D01*
X70107Y77650D01*
X70015Y77810D01*
X69927Y77970D01*
X69915Y77984D01*
X69906Y77999D01*
X69691Y78252D01*
X66303Y81641D01*
X63971Y87270D01*
X63971Y92055D01*
X63952Y92247D01*
X63934Y92443D01*
X63932Y92449D01*
X63931Y92456D01*
X63875Y92641D01*
X63818Y92829D01*
X63815Y92834D01*
X63813Y92841D01*
X63721Y93012D01*
X63629Y93184D01*
X63625Y93189D01*
X63621Y93195D01*
X63498Y93343D01*
X63373Y93495D01*
X63367Y93500D01*
X63364Y93504D01*
X63331Y93530D01*
X63119Y93709D01*
X53372Y100660D01*
X53317Y100692D01*
X53265Y100731D01*
X53096Y100818D01*
X53023Y100860D01*
X52999Y100868D01*
X52970Y100883D01*
X52545Y101059D01*
X51999Y101605D01*
X51998Y101606D01*
X51996Y101608D01*
X51742Y101822D01*
X51114Y102271D01*
X50870Y102660D01*
X50831Y102711D01*
X50799Y102767D01*
X50676Y102912D01*
X50624Y102979D01*
X50605Y102996D01*
X50584Y103020D01*
X50259Y103345D01*
X49963Y104059D01*
X49962Y104061D01*
X49961Y104063D01*
X49809Y104358D01*
X49400Y105013D01*
X49324Y105466D01*
X49307Y105529D01*
X49299Y105592D01*
X49241Y105773D01*
X49218Y105855D01*
X49207Y105878D01*
X49197Y105908D01*
X49021Y106333D01*
X49021Y107105D01*
X49021Y107108D01*
X49021Y107110D01*
X48993Y107441D01*
X48866Y108202D01*
X48969Y108650D01*
X48977Y108714D01*
X48994Y108776D01*
X49010Y108966D01*
X49020Y109050D01*
X49019Y109075D01*
X49021Y109107D01*
X49021Y155600D01*
X49021Y155604D01*
X49021Y155609D01*
X49001Y155803D01*
X48981Y156000D01*
X48980Y156005D01*
X48980Y156009D01*
X48921Y156196D01*
X48863Y156385D01*
X48861Y156389D01*
X48860Y156393D01*
X48765Y156566D01*
X48671Y156739D01*
X48669Y156743D01*
X48666Y156747D01*
X48538Y156900D01*
X48414Y157049D01*
X48410Y157051D01*
X48407Y157055D01*
X48253Y157178D01*
X48100Y157301D01*
X48096Y157303D01*
X48093Y157306D01*
X47918Y157395D01*
X47743Y157486D01*
X47738Y157488D01*
X47734Y157490D01*
X47547Y157543D01*
X47356Y157598D01*
X47351Y157598D01*
X47347Y157599D01*
X47154Y157614D01*
X46954Y157631D01*
X46950Y157630D01*
X46946Y157630D01*
X46752Y157607D01*
X46555Y157584D01*
X46550Y157582D01*
X46546Y157582D01*
X46361Y157521D01*
X46172Y157459D01*
X46168Y157457D01*
X46164Y157455D01*
X45992Y157357D01*
X45821Y157261D01*
X45818Y157258D01*
X45814Y157256D01*
X45663Y157124D01*
X45517Y156998D01*
X45514Y156994D01*
X45510Y156991D01*
X45390Y156835D01*
X45270Y156680D01*
X45268Y156676D01*
X45265Y156672D01*
X45113Y156377D01*
X44258Y154312D01*
X39290Y149344D01*
X32799Y146655D01*
X25773Y146655D01*
X19282Y149344D01*
X18222Y150404D01*
X18209Y150415D01*
X18197Y150429D01*
X18052Y150543D01*
X17911Y150659D01*
X17895Y150667D01*
X17881Y150678D01*
X17717Y150762D01*
X17555Y150847D01*
X17538Y150852D01*
X17522Y150861D01*
X17345Y150910D01*
X17169Y150962D01*
X17151Y150964D01*
X17134Y150969D01*
X16951Y150982D01*
X16768Y150999D01*
X16750Y150997D01*
X16733Y150998D01*
X16551Y150975D01*
X16368Y150955D01*
X16351Y150950D01*
X16333Y150948D01*
X16160Y150889D01*
X15984Y150834D01*
X15968Y150825D01*
X15952Y150819D01*
X15793Y150728D01*
X15632Y150639D01*
X15618Y150627D01*
X15603Y150618D01*
X15350Y150404D01*
X14290Y149344D01*
X7799Y146655D01*
X4177Y146655D01*
X4159Y146653D01*
X4141Y146655D01*
X3959Y146634D01*
X3776Y146615D01*
X3759Y146610D01*
X3742Y146608D01*
X3567Y146551D01*
X3391Y146497D01*
X3376Y146489D01*
X3359Y146483D01*
X3199Y146393D01*
X3037Y146305D01*
X3024Y146294D01*
X3008Y146285D01*
X2869Y146165D01*
X2728Y146048D01*
X2717Y146034D01*
X2703Y146022D01*
X2591Y145877D01*
X2476Y145734D01*
X2468Y145718D01*
X2457Y145704D01*
X2375Y145539D01*
X2290Y145377D01*
X2285Y145360D01*
X2277Y145344D01*
X2230Y145165D01*
X2179Y144990D01*
X2177Y144972D01*
X2173Y144955D01*
X2146Y144624D01*
X2146Y84008D01*
X2148Y83990D01*
X2146Y83972D01*
X2167Y83790D01*
X2186Y83607D01*
X2191Y83590D01*
X2193Y83573D01*
X2250Y83398D01*
X2304Y83222D01*
X2312Y83207D01*
X2318Y83190D01*
X2408Y83030D01*
X2496Y82868D01*
X2507Y82855D01*
X2516Y82839D01*
X2636Y82700D01*
X2753Y82559D01*
X2767Y82548D01*
X2779Y82534D01*
X2924Y82422D01*
X3067Y82307D01*
X3083Y82299D01*
X3097Y82288D01*
X3262Y82206D01*
X3424Y82121D01*
X3441Y82116D01*
X3457Y82108D01*
X3636Y82061D01*
X3811Y82010D01*
X3829Y82008D01*
X3846Y82004D01*
X4177Y81977D01*
X7799Y81977D01*
X14290Y79288D01*
X15350Y78228D01*
X15364Y78217D01*
X15375Y78203D01*
X15519Y78090D01*
X15661Y77973D01*
X15677Y77965D01*
X15691Y77954D01*
X15855Y77871D01*
X16017Y77785D01*
X16034Y77780D01*
X16050Y77771D01*
X16227Y77722D01*
X16403Y77670D01*
X16421Y77668D01*
X16438Y77663D01*
X16621Y77650D01*
X16804Y77633D01*
X16822Y77635D01*
X16839Y77634D01*
X17021Y77657D01*
X17204Y77677D01*
X17221Y77682D01*
X17239Y77684D01*
X17413Y77743D01*
X17588Y77798D01*
X17604Y77807D01*
X17620Y77813D01*
X17779Y77904D01*
X17940Y77993D01*
X17954Y78005D01*
X17969Y78014D01*
X18222Y78228D01*
X19282Y79288D01*
X25773Y81977D01*
X32799Y81977D01*
X39290Y79288D01*
X44258Y74320D01*
X46947Y67829D01*
X46947Y60803D01*
X44258Y54312D01*
X39290Y49344D01*
X32799Y46655D01*
X25773Y46655D01*
X19282Y49344D01*
X18222Y50404D01*
X18209Y50415D01*
X18197Y50429D01*
X18052Y50543D01*
X17911Y50659D01*
X17895Y50667D01*
X17881Y50678D01*
X17717Y50762D01*
X17555Y50847D01*
X17538Y50852D01*
X17522Y50861D01*
X17345Y50910D01*
X17169Y50962D01*
X17151Y50964D01*
X17134Y50969D01*
X16951Y50982D01*
X16768Y50999D01*
X16750Y50997D01*
X16733Y50998D01*
X16551Y50975D01*
X16368Y50955D01*
X16351Y50950D01*
X16333Y50948D01*
X16160Y50889D01*
X15984Y50834D01*
X15968Y50825D01*
X15952Y50819D01*
X15793Y50728D01*
X15632Y50639D01*
X15618Y50627D01*
X15603Y50618D01*
X15350Y50404D01*
X14290Y49344D01*
X7799Y46655D01*
X4177Y46655D01*
X4159Y46653D01*
X4141Y46655D01*
X3959Y46634D01*
X3776Y46615D01*
X3759Y46610D01*
X3742Y46608D01*
X3567Y46551D01*
X3391Y46497D01*
X3376Y46489D01*
X3359Y46483D01*
X3199Y46393D01*
X3037Y46305D01*
X3024Y46294D01*
X3008Y46285D01*
X2869Y46165D01*
X2728Y46048D01*
X2717Y46034D01*
X2703Y46022D01*
X2591Y45877D01*
X2476Y45734D01*
X2468Y45718D01*
X2457Y45704D01*
X2375Y45539D01*
X2290Y45377D01*
X2285Y45360D01*
X2277Y45344D01*
X2230Y45165D01*
X2179Y44990D01*
X2177Y44972D01*
X2173Y44955D01*
X2146Y44624D01*
X2146Y44450D01*
X2148Y44432D01*
X2146Y44414D01*
X2167Y44232D01*
X2186Y44049D01*
X2191Y44032D01*
X2193Y44015D01*
X2250Y43840D01*
X2304Y43664D01*
X2312Y43649D01*
X2318Y43632D01*
X2408Y43472D01*
X2496Y43310D01*
X2507Y43297D01*
X2516Y43281D01*
X2636Y43142D01*
X2753Y43001D01*
X2767Y42990D01*
X2779Y42977D01*
X2924Y42864D01*
X3067Y42749D01*
X3083Y42741D01*
X3097Y42730D01*
X3262Y42648D01*
X3424Y42563D01*
X3441Y42558D01*
X3457Y42550D01*
X3636Y42503D01*
X3811Y42452D01*
X3829Y42450D01*
X3846Y42446D01*
X4177Y42419D01*
X133854Y42419D01*
X133979Y42431D01*
G37*
G36*
X97418Y147831D02*
X97418Y147831D01*
X97445Y147829D01*
X97619Y147851D01*
X97792Y147869D01*
X97818Y147876D01*
X97844Y147880D01*
X98010Y147935D01*
X98177Y147987D01*
X98201Y148000D01*
X98226Y148008D01*
X98378Y148095D01*
X98531Y148179D01*
X98552Y148196D01*
X98575Y148209D01*
X98828Y148424D01*
X99226Y148822D01*
X99243Y148843D01*
X99264Y148860D01*
X99371Y148998D01*
X99481Y149134D01*
X99494Y149157D01*
X99510Y149178D01*
X99588Y149335D01*
X99670Y149489D01*
X99678Y149515D01*
X99690Y149539D01*
X99735Y149708D01*
X99785Y149875D01*
X99787Y149902D01*
X99794Y149928D01*
X99821Y150258D01*
X99821Y179417D01*
X101059Y182405D01*
X103631Y184977D01*
X118276Y199622D01*
X118293Y199643D01*
X118314Y199660D01*
X118421Y199798D01*
X118531Y199934D01*
X118544Y199957D01*
X118560Y199978D01*
X118638Y200135D01*
X118720Y200289D01*
X118728Y200315D01*
X118740Y200339D01*
X118785Y200508D01*
X118835Y200675D01*
X118837Y200702D01*
X118844Y200728D01*
X118871Y201058D01*
X118871Y230626D01*
X118869Y230652D01*
X118871Y230679D01*
X118849Y230853D01*
X118831Y231026D01*
X118824Y231052D01*
X118820Y231079D01*
X118765Y231244D01*
X118713Y231411D01*
X118700Y231435D01*
X118692Y231460D01*
X118605Y231612D01*
X118521Y231765D01*
X118504Y231786D01*
X118491Y231809D01*
X118276Y232062D01*
X116233Y234106D01*
X115339Y236265D01*
X115277Y236380D01*
X115223Y236499D01*
X115182Y236557D01*
X115148Y236619D01*
X115065Y236720D01*
X114989Y236827D01*
X114937Y236875D01*
X114892Y236930D01*
X114790Y237012D01*
X114695Y237102D01*
X114635Y237139D01*
X114579Y237184D01*
X114463Y237244D01*
X114352Y237313D01*
X114286Y237338D01*
X114223Y237371D01*
X114097Y237407D01*
X113975Y237453D01*
X113905Y237464D01*
X113836Y237484D01*
X113706Y237495D01*
X113577Y237515D01*
X113506Y237512D01*
X113435Y237518D01*
X113306Y237504D01*
X113175Y237498D01*
X113106Y237481D01*
X113035Y237473D01*
X112911Y237433D01*
X112784Y237402D01*
X112719Y237372D01*
X112652Y237350D01*
X112538Y237286D01*
X112419Y237231D01*
X112362Y237188D01*
X112300Y237154D01*
X112201Y237069D01*
X112096Y236991D01*
X112048Y236938D01*
X111995Y236892D01*
X111914Y236789D01*
X111826Y236692D01*
X111783Y236622D01*
X111746Y236575D01*
X111712Y236507D01*
X111652Y236409D01*
X111159Y235442D01*
X110125Y234019D01*
X108881Y232775D01*
X107458Y231741D01*
X105891Y230942D01*
X104217Y230398D01*
X103822Y230336D01*
X103822Y241109D01*
X103820Y241127D01*
X103821Y241145D01*
X103800Y241327D01*
X103782Y241510D01*
X103777Y241527D01*
X103775Y241545D01*
X103718Y241719D01*
X103664Y241895D01*
X103655Y241911D01*
X103650Y241927D01*
X103559Y242088D01*
X103472Y242249D01*
X103461Y242263D01*
X103452Y242278D01*
X103332Y242417D01*
X103214Y242558D01*
X103200Y242569D01*
X103189Y242583D01*
X103044Y242695D01*
X102900Y242810D01*
X102885Y242819D01*
X102871Y242830D01*
X102706Y242912D01*
X102543Y242996D01*
X102526Y243001D01*
X102510Y243009D01*
X102332Y243057D01*
X102156Y243107D01*
X102138Y243109D01*
X102121Y243113D01*
X101791Y243141D01*
X101409Y243141D01*
X101392Y243139D01*
X101374Y243140D01*
X101192Y243119D01*
X101009Y243101D01*
X100992Y243095D01*
X100974Y243093D01*
X100799Y243036D01*
X100624Y242983D01*
X100608Y242974D01*
X100591Y242968D01*
X100431Y242878D01*
X100270Y242791D01*
X100256Y242779D01*
X100241Y242771D01*
X100101Y242650D01*
X99961Y242533D01*
X99949Y242519D01*
X99936Y242507D01*
X99823Y242362D01*
X99708Y242219D01*
X99700Y242203D01*
X99689Y242189D01*
X99607Y242024D01*
X99523Y241862D01*
X99518Y241845D01*
X99510Y241829D01*
X99462Y241651D01*
X99411Y241475D01*
X99410Y241457D01*
X99405Y241440D01*
X99378Y241109D01*
X99378Y230336D01*
X98983Y230398D01*
X97309Y230942D01*
X95742Y231741D01*
X94319Y232775D01*
X93075Y234019D01*
X92041Y235442D01*
X91548Y236409D01*
X91477Y236520D01*
X91415Y236634D01*
X91369Y236688D01*
X91331Y236748D01*
X91240Y236842D01*
X91155Y236942D01*
X91100Y236987D01*
X91051Y237038D01*
X90943Y237112D01*
X90841Y237193D01*
X90778Y237226D01*
X90719Y237266D01*
X90599Y237318D01*
X90482Y237377D01*
X90414Y237397D01*
X90349Y237425D01*
X90221Y237451D01*
X90095Y237487D01*
X90024Y237492D01*
X89955Y237507D01*
X89824Y237508D01*
X89694Y237518D01*
X89623Y237509D01*
X89552Y237510D01*
X89424Y237485D01*
X89294Y237469D01*
X89227Y237447D01*
X89157Y237434D01*
X89036Y237384D01*
X88912Y237343D01*
X88850Y237308D01*
X88784Y237281D01*
X88676Y237208D01*
X88562Y237143D01*
X88508Y237097D01*
X88449Y237057D01*
X88357Y236965D01*
X88258Y236879D01*
X88215Y236823D01*
X88165Y236772D01*
X88093Y236664D01*
X88013Y236560D01*
X87976Y236487D01*
X87942Y236437D01*
X87914Y236366D01*
X87861Y236265D01*
X86967Y234106D01*
X84924Y232062D01*
X84907Y232041D01*
X84886Y232024D01*
X84779Y231886D01*
X84669Y231751D01*
X84656Y231727D01*
X84640Y231706D01*
X84562Y231549D01*
X84480Y231395D01*
X84472Y231369D01*
X84460Y231345D01*
X84415Y231176D01*
X84365Y231009D01*
X84363Y230982D01*
X84356Y230957D01*
X84329Y230626D01*
X84329Y195233D01*
X83091Y192245D01*
X80519Y189673D01*
X74944Y184098D01*
X74938Y184091D01*
X74932Y184086D01*
X74811Y183936D01*
X74689Y183787D01*
X74685Y183779D01*
X74679Y183772D01*
X74591Y183602D01*
X74500Y183431D01*
X74498Y183422D01*
X74494Y183415D01*
X74441Y183230D01*
X74386Y183045D01*
X74385Y183036D01*
X74382Y183028D01*
X74367Y182836D01*
X74349Y182644D01*
X74350Y182635D01*
X74349Y182626D01*
X74372Y182437D01*
X74393Y182244D01*
X74395Y182235D01*
X74396Y182227D01*
X74456Y182045D01*
X74514Y181860D01*
X74518Y181852D01*
X74521Y181844D01*
X74616Y181675D01*
X74709Y181508D01*
X74715Y181501D01*
X74719Y181493D01*
X74845Y181347D01*
X74969Y181201D01*
X74976Y181195D01*
X74982Y181188D01*
X75134Y181071D01*
X75285Y180951D01*
X75293Y180947D01*
X75300Y180942D01*
X75472Y180856D01*
X75644Y180769D01*
X75653Y180766D01*
X75661Y180762D01*
X75847Y180712D01*
X76032Y180661D01*
X76041Y180660D01*
X76050Y180658D01*
X76380Y180631D01*
X82332Y180631D01*
X87961Y178299D01*
X92269Y173991D01*
X94601Y168362D01*
X94601Y162270D01*
X92269Y156641D01*
X88881Y153252D01*
X88869Y153238D01*
X88856Y153227D01*
X88742Y153083D01*
X88626Y152941D01*
X88617Y152925D01*
X88606Y152911D01*
X88523Y152747D01*
X88437Y152585D01*
X88432Y152568D01*
X88424Y152552D01*
X88374Y152375D01*
X88322Y152199D01*
X88320Y152181D01*
X88316Y152164D01*
X88302Y151981D01*
X88286Y151798D01*
X88288Y151780D01*
X88286Y151763D01*
X88309Y151580D01*
X88329Y151398D01*
X88334Y151381D01*
X88337Y151363D01*
X88395Y151189D01*
X88451Y151014D01*
X88459Y150998D01*
X88465Y150982D01*
X88556Y150823D01*
X88645Y150662D01*
X88657Y150648D01*
X88666Y150633D01*
X88881Y150380D01*
X90837Y148424D01*
X90857Y148407D01*
X90875Y148386D01*
X91013Y148280D01*
X91148Y148169D01*
X91172Y148156D01*
X91193Y148140D01*
X91349Y148062D01*
X91504Y147980D01*
X91529Y147972D01*
X91553Y147960D01*
X91722Y147915D01*
X91890Y147865D01*
X91916Y147863D01*
X91942Y147856D01*
X92273Y147829D01*
X97392Y147829D01*
X97418Y147831D01*
G37*
%LPC*%
G36*
X360648Y41449D02*
X360648Y41449D01*
X357305Y42834D01*
X354746Y45393D01*
X353361Y48736D01*
X353361Y52356D01*
X354746Y55699D01*
X357305Y58258D01*
X359072Y58990D01*
X359143Y59028D01*
X359218Y59057D01*
X359320Y59123D01*
X359427Y59180D01*
X359489Y59231D01*
X359557Y59275D01*
X359644Y59359D01*
X359737Y59436D01*
X359788Y59499D01*
X359846Y59555D01*
X359915Y59655D01*
X359991Y59749D01*
X360029Y59820D01*
X360074Y59886D01*
X360138Y60029D01*
X360178Y60106D01*
X360189Y60143D01*
X360210Y60189D01*
X361977Y65186D01*
X362019Y65355D01*
X362065Y65523D01*
X362066Y65551D01*
X362073Y65577D01*
X362080Y65750D01*
X362092Y65925D01*
X362089Y65952D01*
X362090Y65979D01*
X362063Y66151D01*
X362040Y66324D01*
X362031Y66353D01*
X362027Y66377D01*
X361998Y66455D01*
X361939Y66640D01*
X360727Y69565D01*
X360727Y73184D01*
X362112Y76527D01*
X364671Y79086D01*
X368014Y80471D01*
X371634Y80471D01*
X374977Y79086D01*
X377536Y76527D01*
X378921Y73184D01*
X378921Y69564D01*
X377536Y66221D01*
X374977Y63662D01*
X374777Y63580D01*
X374777Y63579D01*
X373210Y62930D01*
X373139Y62892D01*
X373064Y62863D01*
X372962Y62797D01*
X372855Y62740D01*
X372793Y62689D01*
X372725Y62645D01*
X372638Y62561D01*
X372545Y62484D01*
X372494Y62421D01*
X372436Y62365D01*
X372367Y62265D01*
X372291Y62171D01*
X372253Y62100D01*
X372208Y62034D01*
X372144Y61891D01*
X372104Y61814D01*
X372093Y61777D01*
X372072Y61731D01*
X370305Y56734D01*
X370263Y56565D01*
X370217Y56397D01*
X370216Y56369D01*
X370209Y56343D01*
X370202Y56170D01*
X370190Y55995D01*
X370193Y55968D01*
X370192Y55941D01*
X370219Y55769D01*
X370242Y55596D01*
X370251Y55567D01*
X370255Y55543D01*
X370284Y55465D01*
X370343Y55280D01*
X371555Y52355D01*
X371555Y48736D01*
X370170Y45393D01*
X367611Y42834D01*
X364268Y41449D01*
X360648Y41449D01*
G37*
%LPD*%
%LPC*%
G36*
X33035Y118065D02*
X33035Y118065D01*
X33035Y129090D01*
X34196Y128779D01*
X36041Y128014D01*
X37771Y127015D01*
X39357Y125799D01*
X40769Y124387D01*
X41985Y122801D01*
X42984Y121071D01*
X43749Y119226D01*
X44060Y118065D01*
X33035Y118065D01*
G37*
%LPD*%
%LPC*%
G36*
X14512Y118065D02*
X14512Y118065D01*
X14823Y119226D01*
X15588Y121071D01*
X16587Y122801D01*
X17803Y124387D01*
X19215Y125799D01*
X20801Y127015D01*
X22531Y128014D01*
X24376Y128779D01*
X25537Y129090D01*
X25537Y118065D01*
X14512Y118065D01*
G37*
%LPD*%
%LPC*%
G36*
X33035Y110567D02*
X33035Y110567D01*
X44060Y110567D01*
X43749Y109406D01*
X42984Y107561D01*
X41985Y105831D01*
X40769Y104245D01*
X39357Y102833D01*
X37771Y101617D01*
X36041Y100618D01*
X34196Y99853D01*
X33035Y99542D01*
X33035Y110567D01*
G37*
%LPD*%
%LPC*%
G36*
X24376Y99853D02*
X24376Y99853D01*
X22531Y100618D01*
X20801Y101617D01*
X19215Y102833D01*
X17803Y104245D01*
X16587Y105831D01*
X15588Y107561D01*
X14823Y109406D01*
X14512Y110567D01*
X25537Y110567D01*
X25537Y99542D01*
X24376Y99853D01*
G37*
%LPD*%
%LPC*%
G36*
X615859Y30231D02*
X615859Y30231D01*
X615859Y39377D01*
X616116Y39337D01*
X617903Y38756D01*
X619577Y37903D01*
X621098Y36798D01*
X622426Y35470D01*
X623531Y33949D01*
X624384Y32275D01*
X624965Y30488D01*
X625005Y30231D01*
X615859Y30231D01*
G37*
%LPD*%
%LPC*%
G36*
X128015Y59689D02*
X128015Y59689D01*
X128055Y59946D01*
X128636Y61733D01*
X129489Y63407D01*
X130594Y64928D01*
X131922Y66256D01*
X133443Y67361D01*
X135117Y68214D01*
X136904Y68795D01*
X137161Y68835D01*
X137161Y59689D01*
X128015Y59689D01*
G37*
%LPD*%
D10*
X394462Y41656D03*
D11*
X29286Y114316D03*
D12*
X79286Y138316D03*
X79286Y90316D03*
X79286Y63316D03*
X79286Y165316D03*
D13*
X139700Y57150D03*
X165100Y57150D03*
D14*
X76200Y241300D03*
X101600Y241300D03*
X127000Y241300D03*
D15*
X557650Y8050D03*
D10*
X557650Y-17350D03*
X532250Y8050D03*
X532250Y-17350D03*
X506850Y8050D03*
X506850Y-17350D03*
X481450Y8050D03*
X481450Y-17350D03*
X456050Y8050D03*
X456050Y-17350D03*
X430650Y8050D03*
X430650Y-17350D03*
X405250Y8050D03*
X405250Y-17350D03*
X379850Y8050D03*
X379850Y-17350D03*
X354450Y8050D03*
X354450Y-17350D03*
X329050Y8050D03*
X329050Y-17350D03*
X303650Y8050D03*
X303650Y-17350D03*
X278250Y8050D03*
X278250Y-17350D03*
X252850Y8050D03*
X252850Y-17350D03*
X227450Y8050D03*
X227450Y-17350D03*
X202050Y8050D03*
X202050Y-17350D03*
X176650Y8050D03*
X176650Y-17350D03*
X151250Y8050D03*
X151250Y-17350D03*
X125850Y8050D03*
X125850Y-17350D03*
X100450Y8050D03*
X100450Y-17350D03*
X75050Y8050D03*
X75050Y-17350D03*
D13*
X482600Y241300D03*
X457200Y241300D03*
X431800Y241300D03*
X406400Y241300D03*
X381000Y241300D03*
X355600Y241300D03*
X330200Y241300D03*
X304800Y241300D03*
X613320Y27692D03*
X587920Y27692D03*
D16*
X476250Y139700D03*
D17*
X463550Y127000D01*
X425450Y127000D01*
X381000Y127000D01*
X381000Y114300D01*
D16*
X381000Y114300D03*
X349152Y146460D03*
D17*
X349660Y146460D01*
X349250Y146050D01*
X368300Y127000D01*
X374650Y127000D01*
X381000Y127000D01*
D16*
X376174Y153924D03*
D17*
X374650Y127000D01*
D16*
X438150Y184150D03*
D17*
X387350Y184150D01*
X387350Y166624D01*
X376174Y153924D01*
D16*
X336550Y184150D03*
D17*
X387350Y184150D01*
D16*
X425450Y146050D03*
D17*
X425450Y127000D01*
D16*
X355600Y69850D03*
X276860Y178308D03*
D18*
X279400Y184150D01*
X293370Y202438D01*
X336804Y202438D01*
X336550Y184150D01*
D17*
X355600Y82550D02*
X355600Y69850D01*
X355600Y82550D02*
X368300Y95250D01*
X368300Y101600D01*
X381000Y114300D01*
D16*
X279400Y95250D03*
D17*
X285750Y63500D02*
X317500Y63500D01*
X326136Y57150D01*
D16*
X326136Y57150D03*
D17*
X279400Y95250D02*
X266700Y82550D01*
X266869Y50835D01*
X266954Y34798D01*
X349504Y34798D01*
X349250Y69850D01*
X355600Y69850D01*
X285750Y63500D02*
X279400Y69850D01*
X279400Y95250D01*
D16*
X241300Y50800D03*
D19*
X266834Y50800D01*
X266869Y50835D01*
X557650Y20200D02*
X557650Y8050D01*
X557650Y20200D02*
X552450Y25400D01*
X228600Y25400D01*
X222250Y31750D01*
X222250Y63500D01*
X231800Y73050D01*
D20*
X231800Y73050D03*
D19*
X585628Y25400D02*
X587920Y27692D01*
X585628Y25400D02*
X552450Y25400D01*
D16*
X323850Y133350D03*
D19*
X38084Y114316D02*
X29286Y114316D01*
X38084Y114316D02*
X50800Y95250D01*
X50800Y50800D01*
X57150Y44450D01*
X107950Y44450D01*
D16*
X120650Y101600D03*
D18*
X114300Y101600D01*
X107950Y101600D01*
X107950Y44450D01*
D19*
X133350Y57150D01*
X139700Y57150D01*
D16*
X222250Y127000D03*
X149860Y202692D03*
D18*
X152400Y200152D02*
X152400Y127000D01*
X114300Y127000D01*
X114300Y101600D01*
X152400Y200152D02*
X149860Y202692D01*
X279400Y133350D02*
X323850Y133350D01*
D17*
X279400Y133350D02*
X279400Y133096D01*
D18*
X277622Y131318D01*
D16*
X277622Y131318D03*
D17*
X222758Y127000D02*
X222250Y127000D01*
X222758Y127000D02*
X226568Y130810D01*
X277114Y130810D01*
D18*
X277622Y131318D01*
D17*
X481450Y-16122D02*
X481450Y-17350D01*
X481450Y-16122D02*
X469392Y-4064D01*
X367538Y-4064D01*
X367284Y-4318D01*
D16*
X367284Y-4318D03*
D19*
X79286Y90316D02*
X79286Y92164D01*
D21*
X57150Y107950D01*
X57150Y177800D01*
X76200Y196850D01*
X76200Y241300D01*
X127000Y196850D02*
X107950Y177800D01*
X107950Y146050D01*
X101600Y139700D01*
D22*
X82550Y139700D02*
X79286Y138316D01*
D21*
X82550Y139700D02*
X101600Y139700D01*
X127000Y196850D02*
X127000Y241300D01*
D16*
X323342Y192786D03*
D17*
X323850Y177800D01*
X336550Y165100D01*
X336550Y82550D01*
X330200Y82550D01*
D16*
X330200Y82550D03*
X282448Y53340D03*
D17*
X283210Y53340D01*
X285750Y44450D01*
X330200Y44450D01*
X336550Y50800D01*
X336550Y82550D01*
D16*
X318262Y212344D03*
D17*
X317500Y215900D01*
X431800Y215900D01*
X450850Y196850D01*
X450850Y177800D01*
D16*
X450850Y177800D03*
X323850Y146050D03*
D17*
X317500Y139700D01*
D18*
X171450Y139700D01*
D19*
X171450Y101600D01*
D16*
X171450Y101600D03*
X323850Y158750D03*
D17*
X311150Y146050D01*
D18*
X196850Y146050D01*
D19*
X171450Y171450D01*
D16*
X171450Y171450D03*
X275844Y110998D03*
D19*
X266446Y107950D01*
X222250Y107950D01*
D16*
X222250Y107950D03*
X369824Y71374D03*
D17*
X362458Y50546D01*
D16*
X362458Y50546D03*
M02*
