G04 EAGLE Gerber X2 export*
%TF.Part,Single*%
%TF.FileFunction,Profile,NP*%
%TF.FilePolarity,Positive*%
%TF.GenerationSoftware,Autodesk,EAGLE,9.0.0*%
%TF.CreationDate,2018-05-01T01:03:05Z*%
G75*
%MOMM*%
%FSLAX34Y34*%
%LPD*%
%AMOC8*
5,1,8,0,0,1.08239X$1,22.5*%
G01*
%ADD10C,0.100000*%
%ADD11C,0.000000*%
%ADD12C,0.127000*%


D10*
X-8730Y-8984D02*
X-8720Y-9735D01*
X-8691Y-10485D01*
X-8644Y-11234D01*
X-8579Y-11982D01*
X-8496Y-12728D01*
X-8395Y-13472D01*
X-8276Y-14213D01*
X-8139Y-14951D01*
X-7984Y-15686D01*
X-7812Y-16416D01*
X-7621Y-17142D01*
X-7414Y-17864D01*
X-7189Y-18580D01*
X-6946Y-19290D01*
X-6686Y-19995D01*
X-6410Y-20692D01*
X-6116Y-21383D01*
X-5806Y-22067D01*
X-5480Y-22743D01*
X-5137Y-23411D01*
X-4778Y-24070D01*
X-4403Y-24720D01*
X-4013Y-25361D01*
X-3607Y-25993D01*
X-3186Y-26614D01*
X-2750Y-27225D01*
X-2299Y-27826D01*
X-1834Y-28415D01*
X-1354Y-28993D01*
X-861Y-29559D01*
X-355Y-30113D01*
X165Y-30654D01*
X698Y-31183D01*
X1244Y-31698D01*
X1802Y-32201D01*
X2372Y-32689D01*
X2953Y-33164D01*
X3546Y-33624D01*
X4150Y-34070D01*
X4765Y-34501D01*
X5389Y-34917D01*
X6024Y-35318D01*
X6668Y-35703D01*
X7322Y-36073D01*
X7984Y-36427D01*
X8654Y-36764D01*
X9333Y-37085D01*
X10019Y-37390D01*
X10712Y-37678D01*
X11412Y-37949D01*
X12119Y-38203D01*
X12831Y-38440D01*
X13549Y-38659D01*
X14272Y-38861D01*
X14999Y-39046D01*
X15731Y-39212D01*
X16467Y-39361D01*
X17206Y-39492D01*
X17032Y-39492D02*
X21270Y-39746D01*
D11*
X21786Y164316D02*
X21788Y164500D01*
X21795Y164684D01*
X21806Y164868D01*
X21822Y165051D01*
X21842Y165234D01*
X21867Y165416D01*
X21896Y165598D01*
X21930Y165779D01*
X21968Y165959D01*
X22011Y166138D01*
X22058Y166316D01*
X22109Y166493D01*
X22165Y166669D01*
X22224Y166843D01*
X22289Y167015D01*
X22357Y167186D01*
X22429Y167355D01*
X22506Y167523D01*
X22587Y167688D01*
X22672Y167851D01*
X22760Y168013D01*
X22853Y168172D01*
X22950Y168328D01*
X23050Y168483D01*
X23154Y168635D01*
X23262Y168784D01*
X23373Y168930D01*
X23488Y169074D01*
X23607Y169215D01*
X23729Y169353D01*
X23854Y169488D01*
X23983Y169619D01*
X24114Y169748D01*
X24249Y169873D01*
X24387Y169995D01*
X24528Y170114D01*
X24672Y170229D01*
X24818Y170340D01*
X24967Y170448D01*
X25119Y170552D01*
X25274Y170652D01*
X25430Y170749D01*
X25589Y170842D01*
X25751Y170930D01*
X25914Y171015D01*
X26079Y171096D01*
X26247Y171173D01*
X26416Y171245D01*
X26587Y171313D01*
X26759Y171378D01*
X26933Y171437D01*
X27109Y171493D01*
X27286Y171544D01*
X27464Y171591D01*
X27643Y171634D01*
X27823Y171672D01*
X28004Y171706D01*
X28186Y171735D01*
X28368Y171760D01*
X28551Y171780D01*
X28734Y171796D01*
X28918Y171807D01*
X29102Y171814D01*
X29286Y171816D01*
X29470Y171814D01*
X29654Y171807D01*
X29838Y171796D01*
X30021Y171780D01*
X30204Y171760D01*
X30386Y171735D01*
X30568Y171706D01*
X30749Y171672D01*
X30929Y171634D01*
X31108Y171591D01*
X31286Y171544D01*
X31463Y171493D01*
X31639Y171437D01*
X31813Y171378D01*
X31985Y171313D01*
X32156Y171245D01*
X32325Y171173D01*
X32493Y171096D01*
X32658Y171015D01*
X32821Y170930D01*
X32983Y170842D01*
X33142Y170749D01*
X33298Y170652D01*
X33453Y170552D01*
X33605Y170448D01*
X33754Y170340D01*
X33900Y170229D01*
X34044Y170114D01*
X34185Y169995D01*
X34323Y169873D01*
X34458Y169748D01*
X34589Y169619D01*
X34718Y169488D01*
X34843Y169353D01*
X34965Y169215D01*
X35084Y169074D01*
X35199Y168930D01*
X35310Y168784D01*
X35418Y168635D01*
X35522Y168483D01*
X35622Y168328D01*
X35719Y168172D01*
X35812Y168013D01*
X35900Y167851D01*
X35985Y167688D01*
X36066Y167523D01*
X36143Y167355D01*
X36215Y167186D01*
X36283Y167015D01*
X36348Y166843D01*
X36407Y166669D01*
X36463Y166493D01*
X36514Y166316D01*
X36561Y166138D01*
X36604Y165959D01*
X36642Y165779D01*
X36676Y165598D01*
X36705Y165416D01*
X36730Y165234D01*
X36750Y165051D01*
X36766Y164868D01*
X36777Y164684D01*
X36784Y164500D01*
X36786Y164316D01*
X36784Y164132D01*
X36777Y163948D01*
X36766Y163764D01*
X36750Y163581D01*
X36730Y163398D01*
X36705Y163216D01*
X36676Y163034D01*
X36642Y162853D01*
X36604Y162673D01*
X36561Y162494D01*
X36514Y162316D01*
X36463Y162139D01*
X36407Y161963D01*
X36348Y161789D01*
X36283Y161617D01*
X36215Y161446D01*
X36143Y161277D01*
X36066Y161109D01*
X35985Y160944D01*
X35900Y160781D01*
X35812Y160619D01*
X35719Y160460D01*
X35622Y160304D01*
X35522Y160149D01*
X35418Y159997D01*
X35310Y159848D01*
X35199Y159702D01*
X35084Y159558D01*
X34965Y159417D01*
X34843Y159279D01*
X34718Y159144D01*
X34589Y159013D01*
X34458Y158884D01*
X34323Y158759D01*
X34185Y158637D01*
X34044Y158518D01*
X33900Y158403D01*
X33754Y158292D01*
X33605Y158184D01*
X33453Y158080D01*
X33298Y157980D01*
X33142Y157883D01*
X32983Y157790D01*
X32821Y157702D01*
X32658Y157617D01*
X32493Y157536D01*
X32325Y157459D01*
X32156Y157387D01*
X31985Y157319D01*
X31813Y157254D01*
X31639Y157195D01*
X31463Y157139D01*
X31286Y157088D01*
X31108Y157041D01*
X30929Y156998D01*
X30749Y156960D01*
X30568Y156926D01*
X30386Y156897D01*
X30204Y156872D01*
X30021Y156852D01*
X29838Y156836D01*
X29654Y156825D01*
X29470Y156818D01*
X29286Y156816D01*
X29102Y156818D01*
X28918Y156825D01*
X28734Y156836D01*
X28551Y156852D01*
X28368Y156872D01*
X28186Y156897D01*
X28004Y156926D01*
X27823Y156960D01*
X27643Y156998D01*
X27464Y157041D01*
X27286Y157088D01*
X27109Y157139D01*
X26933Y157195D01*
X26759Y157254D01*
X26587Y157319D01*
X26416Y157387D01*
X26247Y157459D01*
X26079Y157536D01*
X25914Y157617D01*
X25751Y157702D01*
X25589Y157790D01*
X25430Y157883D01*
X25274Y157980D01*
X25119Y158080D01*
X24967Y158184D01*
X24818Y158292D01*
X24672Y158403D01*
X24528Y158518D01*
X24387Y158637D01*
X24249Y158759D01*
X24114Y158884D01*
X23983Y159013D01*
X23854Y159144D01*
X23729Y159279D01*
X23607Y159417D01*
X23488Y159558D01*
X23373Y159702D01*
X23262Y159848D01*
X23154Y159997D01*
X23050Y160149D01*
X22950Y160304D01*
X22853Y160460D01*
X22760Y160619D01*
X22672Y160781D01*
X22587Y160944D01*
X22506Y161109D01*
X22429Y161277D01*
X22357Y161446D01*
X22289Y161617D01*
X22224Y161789D01*
X22165Y161963D01*
X22109Y162139D01*
X22058Y162316D01*
X22011Y162494D01*
X21968Y162673D01*
X21930Y162853D01*
X21896Y163034D01*
X21867Y163216D01*
X21842Y163398D01*
X21822Y163581D01*
X21806Y163764D01*
X21795Y163948D01*
X21788Y164132D01*
X21786Y164316D01*
X21786Y64316D02*
X21788Y64500D01*
X21795Y64684D01*
X21806Y64868D01*
X21822Y65051D01*
X21842Y65234D01*
X21867Y65416D01*
X21896Y65598D01*
X21930Y65779D01*
X21968Y65959D01*
X22011Y66138D01*
X22058Y66316D01*
X22109Y66493D01*
X22165Y66669D01*
X22224Y66843D01*
X22289Y67015D01*
X22357Y67186D01*
X22429Y67355D01*
X22506Y67523D01*
X22587Y67688D01*
X22672Y67851D01*
X22760Y68013D01*
X22853Y68172D01*
X22950Y68328D01*
X23050Y68483D01*
X23154Y68635D01*
X23262Y68784D01*
X23373Y68930D01*
X23488Y69074D01*
X23607Y69215D01*
X23729Y69353D01*
X23854Y69488D01*
X23983Y69619D01*
X24114Y69748D01*
X24249Y69873D01*
X24387Y69995D01*
X24528Y70114D01*
X24672Y70229D01*
X24818Y70340D01*
X24967Y70448D01*
X25119Y70552D01*
X25274Y70652D01*
X25430Y70749D01*
X25589Y70842D01*
X25751Y70930D01*
X25914Y71015D01*
X26079Y71096D01*
X26247Y71173D01*
X26416Y71245D01*
X26587Y71313D01*
X26759Y71378D01*
X26933Y71437D01*
X27109Y71493D01*
X27286Y71544D01*
X27464Y71591D01*
X27643Y71634D01*
X27823Y71672D01*
X28004Y71706D01*
X28186Y71735D01*
X28368Y71760D01*
X28551Y71780D01*
X28734Y71796D01*
X28918Y71807D01*
X29102Y71814D01*
X29286Y71816D01*
X29470Y71814D01*
X29654Y71807D01*
X29838Y71796D01*
X30021Y71780D01*
X30204Y71760D01*
X30386Y71735D01*
X30568Y71706D01*
X30749Y71672D01*
X30929Y71634D01*
X31108Y71591D01*
X31286Y71544D01*
X31463Y71493D01*
X31639Y71437D01*
X31813Y71378D01*
X31985Y71313D01*
X32156Y71245D01*
X32325Y71173D01*
X32493Y71096D01*
X32658Y71015D01*
X32821Y70930D01*
X32983Y70842D01*
X33142Y70749D01*
X33298Y70652D01*
X33453Y70552D01*
X33605Y70448D01*
X33754Y70340D01*
X33900Y70229D01*
X34044Y70114D01*
X34185Y69995D01*
X34323Y69873D01*
X34458Y69748D01*
X34589Y69619D01*
X34718Y69488D01*
X34843Y69353D01*
X34965Y69215D01*
X35084Y69074D01*
X35199Y68930D01*
X35310Y68784D01*
X35418Y68635D01*
X35522Y68483D01*
X35622Y68328D01*
X35719Y68172D01*
X35812Y68013D01*
X35900Y67851D01*
X35985Y67688D01*
X36066Y67523D01*
X36143Y67355D01*
X36215Y67186D01*
X36283Y67015D01*
X36348Y66843D01*
X36407Y66669D01*
X36463Y66493D01*
X36514Y66316D01*
X36561Y66138D01*
X36604Y65959D01*
X36642Y65779D01*
X36676Y65598D01*
X36705Y65416D01*
X36730Y65234D01*
X36750Y65051D01*
X36766Y64868D01*
X36777Y64684D01*
X36784Y64500D01*
X36786Y64316D01*
X36784Y64132D01*
X36777Y63948D01*
X36766Y63764D01*
X36750Y63581D01*
X36730Y63398D01*
X36705Y63216D01*
X36676Y63034D01*
X36642Y62853D01*
X36604Y62673D01*
X36561Y62494D01*
X36514Y62316D01*
X36463Y62139D01*
X36407Y61963D01*
X36348Y61789D01*
X36283Y61617D01*
X36215Y61446D01*
X36143Y61277D01*
X36066Y61109D01*
X35985Y60944D01*
X35900Y60781D01*
X35812Y60619D01*
X35719Y60460D01*
X35622Y60304D01*
X35522Y60149D01*
X35418Y59997D01*
X35310Y59848D01*
X35199Y59702D01*
X35084Y59558D01*
X34965Y59417D01*
X34843Y59279D01*
X34718Y59144D01*
X34589Y59013D01*
X34458Y58884D01*
X34323Y58759D01*
X34185Y58637D01*
X34044Y58518D01*
X33900Y58403D01*
X33754Y58292D01*
X33605Y58184D01*
X33453Y58080D01*
X33298Y57980D01*
X33142Y57883D01*
X32983Y57790D01*
X32821Y57702D01*
X32658Y57617D01*
X32493Y57536D01*
X32325Y57459D01*
X32156Y57387D01*
X31985Y57319D01*
X31813Y57254D01*
X31639Y57195D01*
X31463Y57139D01*
X31286Y57088D01*
X31108Y57041D01*
X30929Y56998D01*
X30749Y56960D01*
X30568Y56926D01*
X30386Y56897D01*
X30204Y56872D01*
X30021Y56852D01*
X29838Y56836D01*
X29654Y56825D01*
X29470Y56818D01*
X29286Y56816D01*
X29102Y56818D01*
X28918Y56825D01*
X28734Y56836D01*
X28551Y56852D01*
X28368Y56872D01*
X28186Y56897D01*
X28004Y56926D01*
X27823Y56960D01*
X27643Y56998D01*
X27464Y57041D01*
X27286Y57088D01*
X27109Y57139D01*
X26933Y57195D01*
X26759Y57254D01*
X26587Y57319D01*
X26416Y57387D01*
X26247Y57459D01*
X26079Y57536D01*
X25914Y57617D01*
X25751Y57702D01*
X25589Y57790D01*
X25430Y57883D01*
X25274Y57980D01*
X25119Y58080D01*
X24967Y58184D01*
X24818Y58292D01*
X24672Y58403D01*
X24528Y58518D01*
X24387Y58637D01*
X24249Y58759D01*
X24114Y58884D01*
X23983Y59013D01*
X23854Y59144D01*
X23729Y59279D01*
X23607Y59417D01*
X23488Y59558D01*
X23373Y59702D01*
X23262Y59848D01*
X23154Y59997D01*
X23050Y60149D01*
X22950Y60304D01*
X22853Y60460D01*
X22760Y60619D01*
X22672Y60781D01*
X22587Y60944D01*
X22506Y61109D01*
X22429Y61277D01*
X22357Y61446D01*
X22289Y61617D01*
X22224Y61789D01*
X22165Y61963D01*
X22109Y62139D01*
X22058Y62316D01*
X22011Y62494D01*
X21968Y62673D01*
X21930Y62853D01*
X21896Y63034D01*
X21867Y63216D01*
X21842Y63398D01*
X21822Y63581D01*
X21806Y63764D01*
X21795Y63948D01*
X21788Y64132D01*
X21786Y64316D01*
X71786Y114316D02*
X71788Y114500D01*
X71795Y114684D01*
X71806Y114868D01*
X71822Y115051D01*
X71842Y115234D01*
X71867Y115416D01*
X71896Y115598D01*
X71930Y115779D01*
X71968Y115959D01*
X72011Y116138D01*
X72058Y116316D01*
X72109Y116493D01*
X72165Y116669D01*
X72224Y116843D01*
X72289Y117015D01*
X72357Y117186D01*
X72429Y117355D01*
X72506Y117523D01*
X72587Y117688D01*
X72672Y117851D01*
X72760Y118013D01*
X72853Y118172D01*
X72950Y118328D01*
X73050Y118483D01*
X73154Y118635D01*
X73262Y118784D01*
X73373Y118930D01*
X73488Y119074D01*
X73607Y119215D01*
X73729Y119353D01*
X73854Y119488D01*
X73983Y119619D01*
X74114Y119748D01*
X74249Y119873D01*
X74387Y119995D01*
X74528Y120114D01*
X74672Y120229D01*
X74818Y120340D01*
X74967Y120448D01*
X75119Y120552D01*
X75274Y120652D01*
X75430Y120749D01*
X75589Y120842D01*
X75751Y120930D01*
X75914Y121015D01*
X76079Y121096D01*
X76247Y121173D01*
X76416Y121245D01*
X76587Y121313D01*
X76759Y121378D01*
X76933Y121437D01*
X77109Y121493D01*
X77286Y121544D01*
X77464Y121591D01*
X77643Y121634D01*
X77823Y121672D01*
X78004Y121706D01*
X78186Y121735D01*
X78368Y121760D01*
X78551Y121780D01*
X78734Y121796D01*
X78918Y121807D01*
X79102Y121814D01*
X79286Y121816D01*
X79470Y121814D01*
X79654Y121807D01*
X79838Y121796D01*
X80021Y121780D01*
X80204Y121760D01*
X80386Y121735D01*
X80568Y121706D01*
X80749Y121672D01*
X80929Y121634D01*
X81108Y121591D01*
X81286Y121544D01*
X81463Y121493D01*
X81639Y121437D01*
X81813Y121378D01*
X81985Y121313D01*
X82156Y121245D01*
X82325Y121173D01*
X82493Y121096D01*
X82658Y121015D01*
X82821Y120930D01*
X82983Y120842D01*
X83142Y120749D01*
X83298Y120652D01*
X83453Y120552D01*
X83605Y120448D01*
X83754Y120340D01*
X83900Y120229D01*
X84044Y120114D01*
X84185Y119995D01*
X84323Y119873D01*
X84458Y119748D01*
X84589Y119619D01*
X84718Y119488D01*
X84843Y119353D01*
X84965Y119215D01*
X85084Y119074D01*
X85199Y118930D01*
X85310Y118784D01*
X85418Y118635D01*
X85522Y118483D01*
X85622Y118328D01*
X85719Y118172D01*
X85812Y118013D01*
X85900Y117851D01*
X85985Y117688D01*
X86066Y117523D01*
X86143Y117355D01*
X86215Y117186D01*
X86283Y117015D01*
X86348Y116843D01*
X86407Y116669D01*
X86463Y116493D01*
X86514Y116316D01*
X86561Y116138D01*
X86604Y115959D01*
X86642Y115779D01*
X86676Y115598D01*
X86705Y115416D01*
X86730Y115234D01*
X86750Y115051D01*
X86766Y114868D01*
X86777Y114684D01*
X86784Y114500D01*
X86786Y114316D01*
X86784Y114132D01*
X86777Y113948D01*
X86766Y113764D01*
X86750Y113581D01*
X86730Y113398D01*
X86705Y113216D01*
X86676Y113034D01*
X86642Y112853D01*
X86604Y112673D01*
X86561Y112494D01*
X86514Y112316D01*
X86463Y112139D01*
X86407Y111963D01*
X86348Y111789D01*
X86283Y111617D01*
X86215Y111446D01*
X86143Y111277D01*
X86066Y111109D01*
X85985Y110944D01*
X85900Y110781D01*
X85812Y110619D01*
X85719Y110460D01*
X85622Y110304D01*
X85522Y110149D01*
X85418Y109997D01*
X85310Y109848D01*
X85199Y109702D01*
X85084Y109558D01*
X84965Y109417D01*
X84843Y109279D01*
X84718Y109144D01*
X84589Y109013D01*
X84458Y108884D01*
X84323Y108759D01*
X84185Y108637D01*
X84044Y108518D01*
X83900Y108403D01*
X83754Y108292D01*
X83605Y108184D01*
X83453Y108080D01*
X83298Y107980D01*
X83142Y107883D01*
X82983Y107790D01*
X82821Y107702D01*
X82658Y107617D01*
X82493Y107536D01*
X82325Y107459D01*
X82156Y107387D01*
X81985Y107319D01*
X81813Y107254D01*
X81639Y107195D01*
X81463Y107139D01*
X81286Y107088D01*
X81108Y107041D01*
X80929Y106998D01*
X80749Y106960D01*
X80568Y106926D01*
X80386Y106897D01*
X80204Y106872D01*
X80021Y106852D01*
X79838Y106836D01*
X79654Y106825D01*
X79470Y106818D01*
X79286Y106816D01*
X79102Y106818D01*
X78918Y106825D01*
X78734Y106836D01*
X78551Y106852D01*
X78368Y106872D01*
X78186Y106897D01*
X78004Y106926D01*
X77823Y106960D01*
X77643Y106998D01*
X77464Y107041D01*
X77286Y107088D01*
X77109Y107139D01*
X76933Y107195D01*
X76759Y107254D01*
X76587Y107319D01*
X76416Y107387D01*
X76247Y107459D01*
X76079Y107536D01*
X75914Y107617D01*
X75751Y107702D01*
X75589Y107790D01*
X75430Y107883D01*
X75274Y107980D01*
X75119Y108080D01*
X74967Y108184D01*
X74818Y108292D01*
X74672Y108403D01*
X74528Y108518D01*
X74387Y108637D01*
X74249Y108759D01*
X74114Y108884D01*
X73983Y109013D01*
X73854Y109144D01*
X73729Y109279D01*
X73607Y109417D01*
X73488Y109558D01*
X73373Y109702D01*
X73262Y109848D01*
X73154Y109997D01*
X73050Y110149D01*
X72950Y110304D01*
X72853Y110460D01*
X72760Y110619D01*
X72672Y110781D01*
X72587Y110944D01*
X72506Y111109D01*
X72429Y111277D01*
X72357Y111446D01*
X72289Y111617D01*
X72224Y111789D01*
X72165Y111963D01*
X72109Y112139D01*
X72058Y112316D01*
X72011Y112494D01*
X71968Y112673D01*
X71930Y112853D01*
X71896Y113034D01*
X71867Y113216D01*
X71842Y113398D01*
X71822Y113581D01*
X71806Y113764D01*
X71795Y113948D01*
X71788Y114132D01*
X71786Y114316D01*
X-3214Y164316D02*
X-3212Y164500D01*
X-3205Y164684D01*
X-3194Y164868D01*
X-3178Y165051D01*
X-3158Y165234D01*
X-3133Y165416D01*
X-3104Y165598D01*
X-3070Y165779D01*
X-3032Y165959D01*
X-2989Y166138D01*
X-2942Y166316D01*
X-2891Y166493D01*
X-2835Y166669D01*
X-2776Y166843D01*
X-2711Y167015D01*
X-2643Y167186D01*
X-2571Y167355D01*
X-2494Y167523D01*
X-2413Y167688D01*
X-2328Y167851D01*
X-2240Y168013D01*
X-2147Y168172D01*
X-2050Y168328D01*
X-1950Y168483D01*
X-1846Y168635D01*
X-1738Y168784D01*
X-1627Y168930D01*
X-1512Y169074D01*
X-1393Y169215D01*
X-1271Y169353D01*
X-1146Y169488D01*
X-1017Y169619D01*
X-886Y169748D01*
X-751Y169873D01*
X-613Y169995D01*
X-472Y170114D01*
X-328Y170229D01*
X-182Y170340D01*
X-33Y170448D01*
X119Y170552D01*
X274Y170652D01*
X430Y170749D01*
X589Y170842D01*
X751Y170930D01*
X914Y171015D01*
X1079Y171096D01*
X1247Y171173D01*
X1416Y171245D01*
X1587Y171313D01*
X1759Y171378D01*
X1933Y171437D01*
X2109Y171493D01*
X2286Y171544D01*
X2464Y171591D01*
X2643Y171634D01*
X2823Y171672D01*
X3004Y171706D01*
X3186Y171735D01*
X3368Y171760D01*
X3551Y171780D01*
X3734Y171796D01*
X3918Y171807D01*
X4102Y171814D01*
X4286Y171816D01*
X4470Y171814D01*
X4654Y171807D01*
X4838Y171796D01*
X5021Y171780D01*
X5204Y171760D01*
X5386Y171735D01*
X5568Y171706D01*
X5749Y171672D01*
X5929Y171634D01*
X6108Y171591D01*
X6286Y171544D01*
X6463Y171493D01*
X6639Y171437D01*
X6813Y171378D01*
X6985Y171313D01*
X7156Y171245D01*
X7325Y171173D01*
X7493Y171096D01*
X7658Y171015D01*
X7821Y170930D01*
X7983Y170842D01*
X8142Y170749D01*
X8298Y170652D01*
X8453Y170552D01*
X8605Y170448D01*
X8754Y170340D01*
X8900Y170229D01*
X9044Y170114D01*
X9185Y169995D01*
X9323Y169873D01*
X9458Y169748D01*
X9589Y169619D01*
X9718Y169488D01*
X9843Y169353D01*
X9965Y169215D01*
X10084Y169074D01*
X10199Y168930D01*
X10310Y168784D01*
X10418Y168635D01*
X10522Y168483D01*
X10622Y168328D01*
X10719Y168172D01*
X10812Y168013D01*
X10900Y167851D01*
X10985Y167688D01*
X11066Y167523D01*
X11143Y167355D01*
X11215Y167186D01*
X11283Y167015D01*
X11348Y166843D01*
X11407Y166669D01*
X11463Y166493D01*
X11514Y166316D01*
X11561Y166138D01*
X11604Y165959D01*
X11642Y165779D01*
X11676Y165598D01*
X11705Y165416D01*
X11730Y165234D01*
X11750Y165051D01*
X11766Y164868D01*
X11777Y164684D01*
X11784Y164500D01*
X11786Y164316D01*
X11784Y164132D01*
X11777Y163948D01*
X11766Y163764D01*
X11750Y163581D01*
X11730Y163398D01*
X11705Y163216D01*
X11676Y163034D01*
X11642Y162853D01*
X11604Y162673D01*
X11561Y162494D01*
X11514Y162316D01*
X11463Y162139D01*
X11407Y161963D01*
X11348Y161789D01*
X11283Y161617D01*
X11215Y161446D01*
X11143Y161277D01*
X11066Y161109D01*
X10985Y160944D01*
X10900Y160781D01*
X10812Y160619D01*
X10719Y160460D01*
X10622Y160304D01*
X10522Y160149D01*
X10418Y159997D01*
X10310Y159848D01*
X10199Y159702D01*
X10084Y159558D01*
X9965Y159417D01*
X9843Y159279D01*
X9718Y159144D01*
X9589Y159013D01*
X9458Y158884D01*
X9323Y158759D01*
X9185Y158637D01*
X9044Y158518D01*
X8900Y158403D01*
X8754Y158292D01*
X8605Y158184D01*
X8453Y158080D01*
X8298Y157980D01*
X8142Y157883D01*
X7983Y157790D01*
X7821Y157702D01*
X7658Y157617D01*
X7493Y157536D01*
X7325Y157459D01*
X7156Y157387D01*
X6985Y157319D01*
X6813Y157254D01*
X6639Y157195D01*
X6463Y157139D01*
X6286Y157088D01*
X6108Y157041D01*
X5929Y156998D01*
X5749Y156960D01*
X5568Y156926D01*
X5386Y156897D01*
X5204Y156872D01*
X5021Y156852D01*
X4838Y156836D01*
X4654Y156825D01*
X4470Y156818D01*
X4286Y156816D01*
X4102Y156818D01*
X3918Y156825D01*
X3734Y156836D01*
X3551Y156852D01*
X3368Y156872D01*
X3186Y156897D01*
X3004Y156926D01*
X2823Y156960D01*
X2643Y156998D01*
X2464Y157041D01*
X2286Y157088D01*
X2109Y157139D01*
X1933Y157195D01*
X1759Y157254D01*
X1587Y157319D01*
X1416Y157387D01*
X1247Y157459D01*
X1079Y157536D01*
X914Y157617D01*
X751Y157702D01*
X589Y157790D01*
X430Y157883D01*
X274Y157980D01*
X119Y158080D01*
X-33Y158184D01*
X-182Y158292D01*
X-328Y158403D01*
X-472Y158518D01*
X-613Y158637D01*
X-751Y158759D01*
X-886Y158884D01*
X-1017Y159013D01*
X-1146Y159144D01*
X-1271Y159279D01*
X-1393Y159417D01*
X-1512Y159558D01*
X-1627Y159702D01*
X-1738Y159848D01*
X-1846Y159997D01*
X-1950Y160149D01*
X-2050Y160304D01*
X-2147Y160460D01*
X-2240Y160619D01*
X-2328Y160781D01*
X-2413Y160944D01*
X-2494Y161109D01*
X-2571Y161277D01*
X-2643Y161446D01*
X-2711Y161617D01*
X-2776Y161789D01*
X-2835Y161963D01*
X-2891Y162139D01*
X-2942Y162316D01*
X-2989Y162494D01*
X-3032Y162673D01*
X-3070Y162853D01*
X-3104Y163034D01*
X-3133Y163216D01*
X-3158Y163398D01*
X-3178Y163581D01*
X-3194Y163764D01*
X-3205Y163948D01*
X-3212Y164132D01*
X-3214Y164316D01*
X-3214Y64316D02*
X-3212Y64500D01*
X-3205Y64684D01*
X-3194Y64868D01*
X-3178Y65051D01*
X-3158Y65234D01*
X-3133Y65416D01*
X-3104Y65598D01*
X-3070Y65779D01*
X-3032Y65959D01*
X-2989Y66138D01*
X-2942Y66316D01*
X-2891Y66493D01*
X-2835Y66669D01*
X-2776Y66843D01*
X-2711Y67015D01*
X-2643Y67186D01*
X-2571Y67355D01*
X-2494Y67523D01*
X-2413Y67688D01*
X-2328Y67851D01*
X-2240Y68013D01*
X-2147Y68172D01*
X-2050Y68328D01*
X-1950Y68483D01*
X-1846Y68635D01*
X-1738Y68784D01*
X-1627Y68930D01*
X-1512Y69074D01*
X-1393Y69215D01*
X-1271Y69353D01*
X-1146Y69488D01*
X-1017Y69619D01*
X-886Y69748D01*
X-751Y69873D01*
X-613Y69995D01*
X-472Y70114D01*
X-328Y70229D01*
X-182Y70340D01*
X-33Y70448D01*
X119Y70552D01*
X274Y70652D01*
X430Y70749D01*
X589Y70842D01*
X751Y70930D01*
X914Y71015D01*
X1079Y71096D01*
X1247Y71173D01*
X1416Y71245D01*
X1587Y71313D01*
X1759Y71378D01*
X1933Y71437D01*
X2109Y71493D01*
X2286Y71544D01*
X2464Y71591D01*
X2643Y71634D01*
X2823Y71672D01*
X3004Y71706D01*
X3186Y71735D01*
X3368Y71760D01*
X3551Y71780D01*
X3734Y71796D01*
X3918Y71807D01*
X4102Y71814D01*
X4286Y71816D01*
X4470Y71814D01*
X4654Y71807D01*
X4838Y71796D01*
X5021Y71780D01*
X5204Y71760D01*
X5386Y71735D01*
X5568Y71706D01*
X5749Y71672D01*
X5929Y71634D01*
X6108Y71591D01*
X6286Y71544D01*
X6463Y71493D01*
X6639Y71437D01*
X6813Y71378D01*
X6985Y71313D01*
X7156Y71245D01*
X7325Y71173D01*
X7493Y71096D01*
X7658Y71015D01*
X7821Y70930D01*
X7983Y70842D01*
X8142Y70749D01*
X8298Y70652D01*
X8453Y70552D01*
X8605Y70448D01*
X8754Y70340D01*
X8900Y70229D01*
X9044Y70114D01*
X9185Y69995D01*
X9323Y69873D01*
X9458Y69748D01*
X9589Y69619D01*
X9718Y69488D01*
X9843Y69353D01*
X9965Y69215D01*
X10084Y69074D01*
X10199Y68930D01*
X10310Y68784D01*
X10418Y68635D01*
X10522Y68483D01*
X10622Y68328D01*
X10719Y68172D01*
X10812Y68013D01*
X10900Y67851D01*
X10985Y67688D01*
X11066Y67523D01*
X11143Y67355D01*
X11215Y67186D01*
X11283Y67015D01*
X11348Y66843D01*
X11407Y66669D01*
X11463Y66493D01*
X11514Y66316D01*
X11561Y66138D01*
X11604Y65959D01*
X11642Y65779D01*
X11676Y65598D01*
X11705Y65416D01*
X11730Y65234D01*
X11750Y65051D01*
X11766Y64868D01*
X11777Y64684D01*
X11784Y64500D01*
X11786Y64316D01*
X11784Y64132D01*
X11777Y63948D01*
X11766Y63764D01*
X11750Y63581D01*
X11730Y63398D01*
X11705Y63216D01*
X11676Y63034D01*
X11642Y62853D01*
X11604Y62673D01*
X11561Y62494D01*
X11514Y62316D01*
X11463Y62139D01*
X11407Y61963D01*
X11348Y61789D01*
X11283Y61617D01*
X11215Y61446D01*
X11143Y61277D01*
X11066Y61109D01*
X10985Y60944D01*
X10900Y60781D01*
X10812Y60619D01*
X10719Y60460D01*
X10622Y60304D01*
X10522Y60149D01*
X10418Y59997D01*
X10310Y59848D01*
X10199Y59702D01*
X10084Y59558D01*
X9965Y59417D01*
X9843Y59279D01*
X9718Y59144D01*
X9589Y59013D01*
X9458Y58884D01*
X9323Y58759D01*
X9185Y58637D01*
X9044Y58518D01*
X8900Y58403D01*
X8754Y58292D01*
X8605Y58184D01*
X8453Y58080D01*
X8298Y57980D01*
X8142Y57883D01*
X7983Y57790D01*
X7821Y57702D01*
X7658Y57617D01*
X7493Y57536D01*
X7325Y57459D01*
X7156Y57387D01*
X6985Y57319D01*
X6813Y57254D01*
X6639Y57195D01*
X6463Y57139D01*
X6286Y57088D01*
X6108Y57041D01*
X5929Y56998D01*
X5749Y56960D01*
X5568Y56926D01*
X5386Y56897D01*
X5204Y56872D01*
X5021Y56852D01*
X4838Y56836D01*
X4654Y56825D01*
X4470Y56818D01*
X4286Y56816D01*
X4102Y56818D01*
X3918Y56825D01*
X3734Y56836D01*
X3551Y56852D01*
X3368Y56872D01*
X3186Y56897D01*
X3004Y56926D01*
X2823Y56960D01*
X2643Y56998D01*
X2464Y57041D01*
X2286Y57088D01*
X2109Y57139D01*
X1933Y57195D01*
X1759Y57254D01*
X1587Y57319D01*
X1416Y57387D01*
X1247Y57459D01*
X1079Y57536D01*
X914Y57617D01*
X751Y57702D01*
X589Y57790D01*
X430Y57883D01*
X274Y57980D01*
X119Y58080D01*
X-33Y58184D01*
X-182Y58292D01*
X-328Y58403D01*
X-472Y58518D01*
X-613Y58637D01*
X-751Y58759D01*
X-886Y58884D01*
X-1017Y59013D01*
X-1146Y59144D01*
X-1271Y59279D01*
X-1393Y59417D01*
X-1512Y59558D01*
X-1627Y59702D01*
X-1738Y59848D01*
X-1846Y59997D01*
X-1950Y60149D01*
X-2050Y60304D01*
X-2147Y60460D01*
X-2240Y60619D01*
X-2328Y60781D01*
X-2413Y60944D01*
X-2494Y61109D01*
X-2571Y61277D01*
X-2643Y61446D01*
X-2711Y61617D01*
X-2776Y61789D01*
X-2835Y61963D01*
X-2891Y62139D01*
X-2942Y62316D01*
X-2989Y62494D01*
X-3032Y62673D01*
X-3070Y62853D01*
X-3104Y63034D01*
X-3133Y63216D01*
X-3158Y63398D01*
X-3178Y63581D01*
X-3194Y63764D01*
X-3205Y63948D01*
X-3212Y64132D01*
X-3214Y64316D01*
D12*
X21350Y260350D02*
X611350Y260350D01*
X21350Y260350D02*
X20625Y260341D01*
X19901Y260315D01*
X19177Y260271D01*
X18455Y260210D01*
X17734Y260131D01*
X17015Y260035D01*
X16299Y259922D01*
X15586Y259791D01*
X14876Y259643D01*
X14171Y259478D01*
X13469Y259296D01*
X12772Y259097D01*
X12079Y258882D01*
X11393Y258649D01*
X10712Y258400D01*
X10037Y258135D01*
X9369Y257854D01*
X8708Y257556D01*
X8054Y257243D01*
X7408Y256914D01*
X6770Y256569D01*
X6141Y256209D01*
X5521Y255834D01*
X4910Y255444D01*
X4308Y255040D01*
X3716Y254621D01*
X3135Y254187D01*
X2564Y253740D01*
X2005Y253279D01*
X1456Y252805D01*
X920Y252318D01*
X395Y251818D01*
X-118Y251305D01*
X-618Y250780D01*
X-1105Y250244D01*
X-1579Y249695D01*
X-2040Y249136D01*
X-2487Y248565D01*
X-2921Y247984D01*
X-3340Y247392D01*
X-3744Y246790D01*
X-4134Y246179D01*
X-4509Y245559D01*
X-4869Y244930D01*
X-5214Y244292D01*
X-5543Y243646D01*
X-5856Y242992D01*
X-6154Y242331D01*
X-6435Y241663D01*
X-6700Y240988D01*
X-6949Y240307D01*
X-7182Y239621D01*
X-7397Y238928D01*
X-7596Y238231D01*
X-7778Y237529D01*
X-7943Y236824D01*
X-8091Y236114D01*
X-8222Y235401D01*
X-8335Y234685D01*
X-8431Y233966D01*
X-8510Y233245D01*
X-8571Y232523D01*
X-8615Y231799D01*
X-8641Y231075D01*
X-8650Y230350D01*
X-8650Y-9650D01*
X21350Y-39650D02*
X611350Y-39650D01*
X612075Y-39641D01*
X612799Y-39615D01*
X613523Y-39571D01*
X614245Y-39510D01*
X614966Y-39431D01*
X615685Y-39335D01*
X616401Y-39222D01*
X617114Y-39091D01*
X617824Y-38943D01*
X618529Y-38778D01*
X619231Y-38596D01*
X619928Y-38397D01*
X620621Y-38182D01*
X621307Y-37949D01*
X621988Y-37700D01*
X622663Y-37435D01*
X623331Y-37154D01*
X623992Y-36856D01*
X624646Y-36543D01*
X625292Y-36214D01*
X625930Y-35869D01*
X626559Y-35509D01*
X627179Y-35134D01*
X627790Y-34744D01*
X628392Y-34340D01*
X628984Y-33921D01*
X629565Y-33487D01*
X630136Y-33040D01*
X630695Y-32579D01*
X631244Y-32105D01*
X631780Y-31618D01*
X632305Y-31118D01*
X632818Y-30605D01*
X633318Y-30080D01*
X633805Y-29544D01*
X634279Y-28995D01*
X634740Y-28436D01*
X635187Y-27865D01*
X635621Y-27284D01*
X636040Y-26692D01*
X636444Y-26090D01*
X636834Y-25479D01*
X637209Y-24859D01*
X637569Y-24230D01*
X637914Y-23592D01*
X638243Y-22946D01*
X638556Y-22292D01*
X638854Y-21631D01*
X639135Y-20963D01*
X639400Y-20288D01*
X639649Y-19607D01*
X639882Y-18921D01*
X640097Y-18228D01*
X640296Y-17531D01*
X640478Y-16829D01*
X640643Y-16124D01*
X640791Y-15414D01*
X640922Y-14701D01*
X641035Y-13985D01*
X641131Y-13266D01*
X641210Y-12545D01*
X641271Y-11823D01*
X641315Y-11099D01*
X641341Y-10375D01*
X641350Y-9650D01*
X641350Y230350D01*
D11*
X592600Y225350D02*
X592604Y225687D01*
X592617Y226025D01*
X592637Y226362D01*
X592666Y226698D01*
X592703Y227033D01*
X592749Y227368D01*
X592802Y227701D01*
X592864Y228032D01*
X592934Y228363D01*
X593012Y228691D01*
X593098Y229017D01*
X593192Y229341D01*
X593294Y229663D01*
X593404Y229982D01*
X593521Y230299D01*
X593647Y230612D01*
X593780Y230922D01*
X593920Y231229D01*
X594068Y231532D01*
X594224Y231832D01*
X594386Y232127D01*
X594556Y232419D01*
X594733Y232706D01*
X594917Y232989D01*
X595108Y233267D01*
X595306Y233541D01*
X595510Y233809D01*
X595721Y234073D01*
X595938Y234331D01*
X596162Y234584D01*
X596392Y234831D01*
X596627Y235073D01*
X596869Y235308D01*
X597116Y235538D01*
X597369Y235762D01*
X597627Y235979D01*
X597891Y236190D01*
X598159Y236394D01*
X598433Y236592D01*
X598711Y236783D01*
X598994Y236967D01*
X599281Y237144D01*
X599573Y237314D01*
X599868Y237476D01*
X600168Y237632D01*
X600471Y237780D01*
X600778Y237920D01*
X601088Y238053D01*
X601401Y238179D01*
X601718Y238296D01*
X602037Y238406D01*
X602359Y238508D01*
X602683Y238602D01*
X603009Y238688D01*
X603337Y238766D01*
X603668Y238836D01*
X603999Y238898D01*
X604332Y238951D01*
X604667Y238997D01*
X605002Y239034D01*
X605338Y239063D01*
X605675Y239083D01*
X606013Y239096D01*
X606350Y239100D01*
X606687Y239096D01*
X607025Y239083D01*
X607362Y239063D01*
X607698Y239034D01*
X608033Y238997D01*
X608368Y238951D01*
X608701Y238898D01*
X609032Y238836D01*
X609363Y238766D01*
X609691Y238688D01*
X610017Y238602D01*
X610341Y238508D01*
X610663Y238406D01*
X610982Y238296D01*
X611299Y238179D01*
X611612Y238053D01*
X611922Y237920D01*
X612229Y237780D01*
X612532Y237632D01*
X612832Y237476D01*
X613127Y237314D01*
X613419Y237144D01*
X613706Y236967D01*
X613989Y236783D01*
X614267Y236592D01*
X614541Y236394D01*
X614809Y236190D01*
X615073Y235979D01*
X615331Y235762D01*
X615584Y235538D01*
X615831Y235308D01*
X616073Y235073D01*
X616308Y234831D01*
X616538Y234584D01*
X616762Y234331D01*
X616979Y234073D01*
X617190Y233809D01*
X617394Y233541D01*
X617592Y233267D01*
X617783Y232989D01*
X617967Y232706D01*
X618144Y232419D01*
X618314Y232127D01*
X618476Y231832D01*
X618632Y231532D01*
X618780Y231229D01*
X618920Y230922D01*
X619053Y230612D01*
X619179Y230299D01*
X619296Y229982D01*
X619406Y229663D01*
X619508Y229341D01*
X619602Y229017D01*
X619688Y228691D01*
X619766Y228363D01*
X619836Y228032D01*
X619898Y227701D01*
X619951Y227368D01*
X619997Y227033D01*
X620034Y226698D01*
X620063Y226362D01*
X620083Y226025D01*
X620096Y225687D01*
X620100Y225350D01*
X620096Y225013D01*
X620083Y224675D01*
X620063Y224338D01*
X620034Y224002D01*
X619997Y223667D01*
X619951Y223332D01*
X619898Y222999D01*
X619836Y222668D01*
X619766Y222337D01*
X619688Y222009D01*
X619602Y221683D01*
X619508Y221359D01*
X619406Y221037D01*
X619296Y220718D01*
X619179Y220401D01*
X619053Y220088D01*
X618920Y219778D01*
X618780Y219471D01*
X618632Y219168D01*
X618476Y218868D01*
X618314Y218573D01*
X618144Y218281D01*
X617967Y217994D01*
X617783Y217711D01*
X617592Y217433D01*
X617394Y217159D01*
X617190Y216891D01*
X616979Y216627D01*
X616762Y216369D01*
X616538Y216116D01*
X616308Y215869D01*
X616073Y215627D01*
X615831Y215392D01*
X615584Y215162D01*
X615331Y214938D01*
X615073Y214721D01*
X614809Y214510D01*
X614541Y214306D01*
X614267Y214108D01*
X613989Y213917D01*
X613706Y213733D01*
X613419Y213556D01*
X613127Y213386D01*
X612832Y213224D01*
X612532Y213068D01*
X612229Y212920D01*
X611922Y212780D01*
X611612Y212647D01*
X611299Y212521D01*
X610982Y212404D01*
X610663Y212294D01*
X610341Y212192D01*
X610017Y212098D01*
X609691Y212012D01*
X609363Y211934D01*
X609032Y211864D01*
X608701Y211802D01*
X608368Y211749D01*
X608033Y211703D01*
X607698Y211666D01*
X607362Y211637D01*
X607025Y211617D01*
X606687Y211604D01*
X606350Y211600D01*
X606013Y211604D01*
X605675Y211617D01*
X605338Y211637D01*
X605002Y211666D01*
X604667Y211703D01*
X604332Y211749D01*
X603999Y211802D01*
X603668Y211864D01*
X603337Y211934D01*
X603009Y212012D01*
X602683Y212098D01*
X602359Y212192D01*
X602037Y212294D01*
X601718Y212404D01*
X601401Y212521D01*
X601088Y212647D01*
X600778Y212780D01*
X600471Y212920D01*
X600168Y213068D01*
X599868Y213224D01*
X599573Y213386D01*
X599281Y213556D01*
X598994Y213733D01*
X598711Y213917D01*
X598433Y214108D01*
X598159Y214306D01*
X597891Y214510D01*
X597627Y214721D01*
X597369Y214938D01*
X597116Y215162D01*
X596869Y215392D01*
X596627Y215627D01*
X596392Y215869D01*
X596162Y216116D01*
X595938Y216369D01*
X595721Y216627D01*
X595510Y216891D01*
X595306Y217159D01*
X595108Y217433D01*
X594917Y217711D01*
X594733Y217994D01*
X594556Y218281D01*
X594386Y218573D01*
X594224Y218868D01*
X594068Y219168D01*
X593920Y219471D01*
X593780Y219778D01*
X593647Y220088D01*
X593521Y220401D01*
X593404Y220718D01*
X593294Y221037D01*
X593192Y221359D01*
X593098Y221683D01*
X593012Y222009D01*
X592934Y222337D01*
X592864Y222668D01*
X592802Y222999D01*
X592749Y223332D01*
X592703Y223667D01*
X592666Y224002D01*
X592637Y224338D01*
X592617Y224675D01*
X592604Y225013D01*
X592600Y225350D01*
X592600Y-4650D02*
X592604Y-4313D01*
X592617Y-3975D01*
X592637Y-3638D01*
X592666Y-3302D01*
X592703Y-2967D01*
X592749Y-2632D01*
X592802Y-2299D01*
X592864Y-1968D01*
X592934Y-1637D01*
X593012Y-1309D01*
X593098Y-983D01*
X593192Y-659D01*
X593294Y-337D01*
X593404Y-18D01*
X593521Y299D01*
X593647Y612D01*
X593780Y922D01*
X593920Y1229D01*
X594068Y1532D01*
X594224Y1832D01*
X594386Y2127D01*
X594556Y2419D01*
X594733Y2706D01*
X594917Y2989D01*
X595108Y3267D01*
X595306Y3541D01*
X595510Y3809D01*
X595721Y4073D01*
X595938Y4331D01*
X596162Y4584D01*
X596392Y4831D01*
X596627Y5073D01*
X596869Y5308D01*
X597116Y5538D01*
X597369Y5762D01*
X597627Y5979D01*
X597891Y6190D01*
X598159Y6394D01*
X598433Y6592D01*
X598711Y6783D01*
X598994Y6967D01*
X599281Y7144D01*
X599573Y7314D01*
X599868Y7476D01*
X600168Y7632D01*
X600471Y7780D01*
X600778Y7920D01*
X601088Y8053D01*
X601401Y8179D01*
X601718Y8296D01*
X602037Y8406D01*
X602359Y8508D01*
X602683Y8602D01*
X603009Y8688D01*
X603337Y8766D01*
X603668Y8836D01*
X603999Y8898D01*
X604332Y8951D01*
X604667Y8997D01*
X605002Y9034D01*
X605338Y9063D01*
X605675Y9083D01*
X606013Y9096D01*
X606350Y9100D01*
X606687Y9096D01*
X607025Y9083D01*
X607362Y9063D01*
X607698Y9034D01*
X608033Y8997D01*
X608368Y8951D01*
X608701Y8898D01*
X609032Y8836D01*
X609363Y8766D01*
X609691Y8688D01*
X610017Y8602D01*
X610341Y8508D01*
X610663Y8406D01*
X610982Y8296D01*
X611299Y8179D01*
X611612Y8053D01*
X611922Y7920D01*
X612229Y7780D01*
X612532Y7632D01*
X612832Y7476D01*
X613127Y7314D01*
X613419Y7144D01*
X613706Y6967D01*
X613989Y6783D01*
X614267Y6592D01*
X614541Y6394D01*
X614809Y6190D01*
X615073Y5979D01*
X615331Y5762D01*
X615584Y5538D01*
X615831Y5308D01*
X616073Y5073D01*
X616308Y4831D01*
X616538Y4584D01*
X616762Y4331D01*
X616979Y4073D01*
X617190Y3809D01*
X617394Y3541D01*
X617592Y3267D01*
X617783Y2989D01*
X617967Y2706D01*
X618144Y2419D01*
X618314Y2127D01*
X618476Y1832D01*
X618632Y1532D01*
X618780Y1229D01*
X618920Y922D01*
X619053Y612D01*
X619179Y299D01*
X619296Y-18D01*
X619406Y-337D01*
X619508Y-659D01*
X619602Y-983D01*
X619688Y-1309D01*
X619766Y-1637D01*
X619836Y-1968D01*
X619898Y-2299D01*
X619951Y-2632D01*
X619997Y-2967D01*
X620034Y-3302D01*
X620063Y-3638D01*
X620083Y-3975D01*
X620096Y-4313D01*
X620100Y-4650D01*
X620096Y-4987D01*
X620083Y-5325D01*
X620063Y-5662D01*
X620034Y-5998D01*
X619997Y-6333D01*
X619951Y-6668D01*
X619898Y-7001D01*
X619836Y-7332D01*
X619766Y-7663D01*
X619688Y-7991D01*
X619602Y-8317D01*
X619508Y-8641D01*
X619406Y-8963D01*
X619296Y-9282D01*
X619179Y-9599D01*
X619053Y-9912D01*
X618920Y-10222D01*
X618780Y-10529D01*
X618632Y-10832D01*
X618476Y-11132D01*
X618314Y-11427D01*
X618144Y-11719D01*
X617967Y-12006D01*
X617783Y-12289D01*
X617592Y-12567D01*
X617394Y-12841D01*
X617190Y-13109D01*
X616979Y-13373D01*
X616762Y-13631D01*
X616538Y-13884D01*
X616308Y-14131D01*
X616073Y-14373D01*
X615831Y-14608D01*
X615584Y-14838D01*
X615331Y-15062D01*
X615073Y-15279D01*
X614809Y-15490D01*
X614541Y-15694D01*
X614267Y-15892D01*
X613989Y-16083D01*
X613706Y-16267D01*
X613419Y-16444D01*
X613127Y-16614D01*
X612832Y-16776D01*
X612532Y-16932D01*
X612229Y-17080D01*
X611922Y-17220D01*
X611612Y-17353D01*
X611299Y-17479D01*
X610982Y-17596D01*
X610663Y-17706D01*
X610341Y-17808D01*
X610017Y-17902D01*
X609691Y-17988D01*
X609363Y-18066D01*
X609032Y-18136D01*
X608701Y-18198D01*
X608368Y-18251D01*
X608033Y-18297D01*
X607698Y-18334D01*
X607362Y-18363D01*
X607025Y-18383D01*
X606687Y-18396D01*
X606350Y-18400D01*
X606013Y-18396D01*
X605675Y-18383D01*
X605338Y-18363D01*
X605002Y-18334D01*
X604667Y-18297D01*
X604332Y-18251D01*
X603999Y-18198D01*
X603668Y-18136D01*
X603337Y-18066D01*
X603009Y-17988D01*
X602683Y-17902D01*
X602359Y-17808D01*
X602037Y-17706D01*
X601718Y-17596D01*
X601401Y-17479D01*
X601088Y-17353D01*
X600778Y-17220D01*
X600471Y-17080D01*
X600168Y-16932D01*
X599868Y-16776D01*
X599573Y-16614D01*
X599281Y-16444D01*
X598994Y-16267D01*
X598711Y-16083D01*
X598433Y-15892D01*
X598159Y-15694D01*
X597891Y-15490D01*
X597627Y-15279D01*
X597369Y-15062D01*
X597116Y-14838D01*
X596869Y-14608D01*
X596627Y-14373D01*
X596392Y-14131D01*
X596162Y-13884D01*
X595938Y-13631D01*
X595721Y-13373D01*
X595510Y-13109D01*
X595306Y-12841D01*
X595108Y-12567D01*
X594917Y-12289D01*
X594733Y-12006D01*
X594556Y-11719D01*
X594386Y-11427D01*
X594224Y-11132D01*
X594068Y-10832D01*
X593920Y-10529D01*
X593780Y-10222D01*
X593647Y-9912D01*
X593521Y-9599D01*
X593404Y-9282D01*
X593294Y-8963D01*
X593192Y-8641D01*
X593098Y-8317D01*
X593012Y-7991D01*
X592934Y-7663D01*
X592864Y-7332D01*
X592802Y-7001D01*
X592749Y-6668D01*
X592703Y-6333D01*
X592666Y-5998D01*
X592637Y-5662D01*
X592617Y-5325D01*
X592604Y-4987D01*
X592600Y-4650D01*
X12600Y225350D02*
X12604Y225687D01*
X12617Y226025D01*
X12637Y226362D01*
X12666Y226698D01*
X12703Y227033D01*
X12749Y227368D01*
X12802Y227701D01*
X12864Y228032D01*
X12934Y228363D01*
X13012Y228691D01*
X13098Y229017D01*
X13192Y229341D01*
X13294Y229663D01*
X13404Y229982D01*
X13521Y230299D01*
X13647Y230612D01*
X13780Y230922D01*
X13920Y231229D01*
X14068Y231532D01*
X14224Y231832D01*
X14386Y232127D01*
X14556Y232419D01*
X14733Y232706D01*
X14917Y232989D01*
X15108Y233267D01*
X15306Y233541D01*
X15510Y233809D01*
X15721Y234073D01*
X15938Y234331D01*
X16162Y234584D01*
X16392Y234831D01*
X16627Y235073D01*
X16869Y235308D01*
X17116Y235538D01*
X17369Y235762D01*
X17627Y235979D01*
X17891Y236190D01*
X18159Y236394D01*
X18433Y236592D01*
X18711Y236783D01*
X18994Y236967D01*
X19281Y237144D01*
X19573Y237314D01*
X19868Y237476D01*
X20168Y237632D01*
X20471Y237780D01*
X20778Y237920D01*
X21088Y238053D01*
X21401Y238179D01*
X21718Y238296D01*
X22037Y238406D01*
X22359Y238508D01*
X22683Y238602D01*
X23009Y238688D01*
X23337Y238766D01*
X23668Y238836D01*
X23999Y238898D01*
X24332Y238951D01*
X24667Y238997D01*
X25002Y239034D01*
X25338Y239063D01*
X25675Y239083D01*
X26013Y239096D01*
X26350Y239100D01*
X26687Y239096D01*
X27025Y239083D01*
X27362Y239063D01*
X27698Y239034D01*
X28033Y238997D01*
X28368Y238951D01*
X28701Y238898D01*
X29032Y238836D01*
X29363Y238766D01*
X29691Y238688D01*
X30017Y238602D01*
X30341Y238508D01*
X30663Y238406D01*
X30982Y238296D01*
X31299Y238179D01*
X31612Y238053D01*
X31922Y237920D01*
X32229Y237780D01*
X32532Y237632D01*
X32832Y237476D01*
X33127Y237314D01*
X33419Y237144D01*
X33706Y236967D01*
X33989Y236783D01*
X34267Y236592D01*
X34541Y236394D01*
X34809Y236190D01*
X35073Y235979D01*
X35331Y235762D01*
X35584Y235538D01*
X35831Y235308D01*
X36073Y235073D01*
X36308Y234831D01*
X36538Y234584D01*
X36762Y234331D01*
X36979Y234073D01*
X37190Y233809D01*
X37394Y233541D01*
X37592Y233267D01*
X37783Y232989D01*
X37967Y232706D01*
X38144Y232419D01*
X38314Y232127D01*
X38476Y231832D01*
X38632Y231532D01*
X38780Y231229D01*
X38920Y230922D01*
X39053Y230612D01*
X39179Y230299D01*
X39296Y229982D01*
X39406Y229663D01*
X39508Y229341D01*
X39602Y229017D01*
X39688Y228691D01*
X39766Y228363D01*
X39836Y228032D01*
X39898Y227701D01*
X39951Y227368D01*
X39997Y227033D01*
X40034Y226698D01*
X40063Y226362D01*
X40083Y226025D01*
X40096Y225687D01*
X40100Y225350D01*
X40096Y225013D01*
X40083Y224675D01*
X40063Y224338D01*
X40034Y224002D01*
X39997Y223667D01*
X39951Y223332D01*
X39898Y222999D01*
X39836Y222668D01*
X39766Y222337D01*
X39688Y222009D01*
X39602Y221683D01*
X39508Y221359D01*
X39406Y221037D01*
X39296Y220718D01*
X39179Y220401D01*
X39053Y220088D01*
X38920Y219778D01*
X38780Y219471D01*
X38632Y219168D01*
X38476Y218868D01*
X38314Y218573D01*
X38144Y218281D01*
X37967Y217994D01*
X37783Y217711D01*
X37592Y217433D01*
X37394Y217159D01*
X37190Y216891D01*
X36979Y216627D01*
X36762Y216369D01*
X36538Y216116D01*
X36308Y215869D01*
X36073Y215627D01*
X35831Y215392D01*
X35584Y215162D01*
X35331Y214938D01*
X35073Y214721D01*
X34809Y214510D01*
X34541Y214306D01*
X34267Y214108D01*
X33989Y213917D01*
X33706Y213733D01*
X33419Y213556D01*
X33127Y213386D01*
X32832Y213224D01*
X32532Y213068D01*
X32229Y212920D01*
X31922Y212780D01*
X31612Y212647D01*
X31299Y212521D01*
X30982Y212404D01*
X30663Y212294D01*
X30341Y212192D01*
X30017Y212098D01*
X29691Y212012D01*
X29363Y211934D01*
X29032Y211864D01*
X28701Y211802D01*
X28368Y211749D01*
X28033Y211703D01*
X27698Y211666D01*
X27362Y211637D01*
X27025Y211617D01*
X26687Y211604D01*
X26350Y211600D01*
X26013Y211604D01*
X25675Y211617D01*
X25338Y211637D01*
X25002Y211666D01*
X24667Y211703D01*
X24332Y211749D01*
X23999Y211802D01*
X23668Y211864D01*
X23337Y211934D01*
X23009Y212012D01*
X22683Y212098D01*
X22359Y212192D01*
X22037Y212294D01*
X21718Y212404D01*
X21401Y212521D01*
X21088Y212647D01*
X20778Y212780D01*
X20471Y212920D01*
X20168Y213068D01*
X19868Y213224D01*
X19573Y213386D01*
X19281Y213556D01*
X18994Y213733D01*
X18711Y213917D01*
X18433Y214108D01*
X18159Y214306D01*
X17891Y214510D01*
X17627Y214721D01*
X17369Y214938D01*
X17116Y215162D01*
X16869Y215392D01*
X16627Y215627D01*
X16392Y215869D01*
X16162Y216116D01*
X15938Y216369D01*
X15721Y216627D01*
X15510Y216891D01*
X15306Y217159D01*
X15108Y217433D01*
X14917Y217711D01*
X14733Y217994D01*
X14556Y218281D01*
X14386Y218573D01*
X14224Y218868D01*
X14068Y219168D01*
X13920Y219471D01*
X13780Y219778D01*
X13647Y220088D01*
X13521Y220401D01*
X13404Y220718D01*
X13294Y221037D01*
X13192Y221359D01*
X13098Y221683D01*
X13012Y222009D01*
X12934Y222337D01*
X12864Y222668D01*
X12802Y222999D01*
X12749Y223332D01*
X12703Y223667D01*
X12666Y224002D01*
X12637Y224338D01*
X12617Y224675D01*
X12604Y225013D01*
X12600Y225350D01*
X12600Y-4650D02*
X12604Y-4313D01*
X12617Y-3975D01*
X12637Y-3638D01*
X12666Y-3302D01*
X12703Y-2967D01*
X12749Y-2632D01*
X12802Y-2299D01*
X12864Y-1968D01*
X12934Y-1637D01*
X13012Y-1309D01*
X13098Y-983D01*
X13192Y-659D01*
X13294Y-337D01*
X13404Y-18D01*
X13521Y299D01*
X13647Y612D01*
X13780Y922D01*
X13920Y1229D01*
X14068Y1532D01*
X14224Y1832D01*
X14386Y2127D01*
X14556Y2419D01*
X14733Y2706D01*
X14917Y2989D01*
X15108Y3267D01*
X15306Y3541D01*
X15510Y3809D01*
X15721Y4073D01*
X15938Y4331D01*
X16162Y4584D01*
X16392Y4831D01*
X16627Y5073D01*
X16869Y5308D01*
X17116Y5538D01*
X17369Y5762D01*
X17627Y5979D01*
X17891Y6190D01*
X18159Y6394D01*
X18433Y6592D01*
X18711Y6783D01*
X18994Y6967D01*
X19281Y7144D01*
X19573Y7314D01*
X19868Y7476D01*
X20168Y7632D01*
X20471Y7780D01*
X20778Y7920D01*
X21088Y8053D01*
X21401Y8179D01*
X21718Y8296D01*
X22037Y8406D01*
X22359Y8508D01*
X22683Y8602D01*
X23009Y8688D01*
X23337Y8766D01*
X23668Y8836D01*
X23999Y8898D01*
X24332Y8951D01*
X24667Y8997D01*
X25002Y9034D01*
X25338Y9063D01*
X25675Y9083D01*
X26013Y9096D01*
X26350Y9100D01*
X26687Y9096D01*
X27025Y9083D01*
X27362Y9063D01*
X27698Y9034D01*
X28033Y8997D01*
X28368Y8951D01*
X28701Y8898D01*
X29032Y8836D01*
X29363Y8766D01*
X29691Y8688D01*
X30017Y8602D01*
X30341Y8508D01*
X30663Y8406D01*
X30982Y8296D01*
X31299Y8179D01*
X31612Y8053D01*
X31922Y7920D01*
X32229Y7780D01*
X32532Y7632D01*
X32832Y7476D01*
X33127Y7314D01*
X33419Y7144D01*
X33706Y6967D01*
X33989Y6783D01*
X34267Y6592D01*
X34541Y6394D01*
X34809Y6190D01*
X35073Y5979D01*
X35331Y5762D01*
X35584Y5538D01*
X35831Y5308D01*
X36073Y5073D01*
X36308Y4831D01*
X36538Y4584D01*
X36762Y4331D01*
X36979Y4073D01*
X37190Y3809D01*
X37394Y3541D01*
X37592Y3267D01*
X37783Y2989D01*
X37967Y2706D01*
X38144Y2419D01*
X38314Y2127D01*
X38476Y1832D01*
X38632Y1532D01*
X38780Y1229D01*
X38920Y922D01*
X39053Y612D01*
X39179Y299D01*
X39296Y-18D01*
X39406Y-337D01*
X39508Y-659D01*
X39602Y-983D01*
X39688Y-1309D01*
X39766Y-1637D01*
X39836Y-1968D01*
X39898Y-2299D01*
X39951Y-2632D01*
X39997Y-2967D01*
X40034Y-3302D01*
X40063Y-3638D01*
X40083Y-3975D01*
X40096Y-4313D01*
X40100Y-4650D01*
X40096Y-4987D01*
X40083Y-5325D01*
X40063Y-5662D01*
X40034Y-5998D01*
X39997Y-6333D01*
X39951Y-6668D01*
X39898Y-7001D01*
X39836Y-7332D01*
X39766Y-7663D01*
X39688Y-7991D01*
X39602Y-8317D01*
X39508Y-8641D01*
X39406Y-8963D01*
X39296Y-9282D01*
X39179Y-9599D01*
X39053Y-9912D01*
X38920Y-10222D01*
X38780Y-10529D01*
X38632Y-10832D01*
X38476Y-11132D01*
X38314Y-11427D01*
X38144Y-11719D01*
X37967Y-12006D01*
X37783Y-12289D01*
X37592Y-12567D01*
X37394Y-12841D01*
X37190Y-13109D01*
X36979Y-13373D01*
X36762Y-13631D01*
X36538Y-13884D01*
X36308Y-14131D01*
X36073Y-14373D01*
X35831Y-14608D01*
X35584Y-14838D01*
X35331Y-15062D01*
X35073Y-15279D01*
X34809Y-15490D01*
X34541Y-15694D01*
X34267Y-15892D01*
X33989Y-16083D01*
X33706Y-16267D01*
X33419Y-16444D01*
X33127Y-16614D01*
X32832Y-16776D01*
X32532Y-16932D01*
X32229Y-17080D01*
X31922Y-17220D01*
X31612Y-17353D01*
X31299Y-17479D01*
X30982Y-17596D01*
X30663Y-17706D01*
X30341Y-17808D01*
X30017Y-17902D01*
X29691Y-17988D01*
X29363Y-18066D01*
X29032Y-18136D01*
X28701Y-18198D01*
X28368Y-18251D01*
X28033Y-18297D01*
X27698Y-18334D01*
X27362Y-18363D01*
X27025Y-18383D01*
X26687Y-18396D01*
X26350Y-18400D01*
X26013Y-18396D01*
X25675Y-18383D01*
X25338Y-18363D01*
X25002Y-18334D01*
X24667Y-18297D01*
X24332Y-18251D01*
X23999Y-18198D01*
X23668Y-18136D01*
X23337Y-18066D01*
X23009Y-17988D01*
X22683Y-17902D01*
X22359Y-17808D01*
X22037Y-17706D01*
X21718Y-17596D01*
X21401Y-17479D01*
X21088Y-17353D01*
X20778Y-17220D01*
X20471Y-17080D01*
X20168Y-16932D01*
X19868Y-16776D01*
X19573Y-16614D01*
X19281Y-16444D01*
X18994Y-16267D01*
X18711Y-16083D01*
X18433Y-15892D01*
X18159Y-15694D01*
X17891Y-15490D01*
X17627Y-15279D01*
X17369Y-15062D01*
X17116Y-14838D01*
X16869Y-14608D01*
X16627Y-14373D01*
X16392Y-14131D01*
X16162Y-13884D01*
X15938Y-13631D01*
X15721Y-13373D01*
X15510Y-13109D01*
X15306Y-12841D01*
X15108Y-12567D01*
X14917Y-12289D01*
X14733Y-12006D01*
X14556Y-11719D01*
X14386Y-11427D01*
X14224Y-11132D01*
X14068Y-10832D01*
X13920Y-10529D01*
X13780Y-10222D01*
X13647Y-9912D01*
X13521Y-9599D01*
X13404Y-9282D01*
X13294Y-8963D01*
X13192Y-8641D01*
X13098Y-8317D01*
X13012Y-7991D01*
X12934Y-7663D01*
X12864Y-7332D01*
X12802Y-7001D01*
X12749Y-6668D01*
X12703Y-6333D01*
X12666Y-5998D01*
X12637Y-5662D01*
X12617Y-5325D01*
X12604Y-4987D01*
X12600Y-4650D01*
D12*
X611350Y260350D02*
X612198Y260218D01*
X613043Y260066D01*
X613884Y259893D01*
X614721Y259700D01*
X615552Y259486D01*
X616378Y259253D01*
X617199Y258999D01*
X618012Y258726D01*
X618819Y258433D01*
X619619Y258121D01*
X620411Y257789D01*
X621194Y257438D01*
X621969Y257068D01*
X622735Y256679D01*
X623490Y256272D01*
X624236Y255847D01*
X624971Y255404D01*
X625696Y254943D01*
X626408Y254464D01*
X627109Y253969D01*
X627798Y253456D01*
X628474Y252927D01*
X629137Y252382D01*
X629787Y251820D01*
X630423Y251244D01*
X631044Y250651D01*
X631651Y250044D01*
X632244Y249423D01*
X632820Y248787D01*
X633382Y248137D01*
X633927Y247474D01*
X634456Y246798D01*
X634969Y246109D01*
X635464Y245408D01*
X635943Y244696D01*
X636404Y243971D01*
X636847Y243236D01*
X637272Y242490D01*
X637679Y241735D01*
X638068Y240969D01*
X638438Y240194D01*
X638789Y239411D01*
X639121Y238619D01*
X639433Y237819D01*
X639726Y237012D01*
X639999Y236199D01*
X640253Y235378D01*
X640486Y234552D01*
X640700Y233721D01*
X640893Y232884D01*
X641066Y232043D01*
X641218Y231198D01*
X641350Y230350D01*
M02*
