G04 CAM350 V9.5.1 (Build 211) Date:  Tue Mar 29 16:03:55 2011 *
G04 Database: (Untitled) *
G04 Layer 5: FluxamasynthShi *
%FSLAX24Y24*%
%MOIN*%
%SFA1.000B1.000*%

%MIA0B0*%
%IPPOS*%
%AMOC8-D150*
4,1,8,0.03700,0.01533,0.01533,0.03700,-0.01533,0.03700,-0.03700,0.01533,-0.03700,-0.01533,-0.01533,-0.03700,0.01533,-0.03700,0.03700,-0.01533,0.03700,0.01533,0.00000*
%
%AMOC8-D160*
4,1,8,0.03200,0.01325,0.01325,0.03200,-0.01325,0.03200,-0.03200,0.01325,-0.03200,-0.01325,-0.01325,-0.03200,0.01325,-0.03200,0.03200,-0.01325,0.03200,0.01325,0.00000*
%
%AMOC8-D17*
4,1,8,0.02975,0.01232,0.01232,0.02975,-0.01232,0.02975,-0.02975,0.01232,-0.02975,-0.01232,-0.01232,-0.02975,0.01232,-0.02975,0.02975,-0.01232,0.02975,0.01232,0.00000*
%
%ADD12C,0.06000*%
%ADD64C,0.06800*%
%ADD65C,0.06710*%
%ADD66C,0.10800*%
%ADD67C,0.09660*%
%ADD82C,0.07400*%
%ADD84OC8-D150*%
%ADD85OC8-D160*%
%ADD86OC8-D17*%
%LNFluxamasynthShi*%
%LPD*%
G54D65*
X4264Y7496D03*
X6233Y9465D03*
X4264Y11433D03*
G54D66*
Y9465D03*
G54D67*
X6233Y10409D03*
Y11472D03*
Y8520D03*
Y7457D03*
G54D12*
X18701Y10504D03*
Y11504D03*
G54D84*
X18301Y20504D03*
X17301D03*
X16301D03*
X15301D03*
X14301D03*
X13301D03*
X12301D03*
X19301D03*
X20851D03*
X21851D03*
X22851D03*
X23851D03*
X24851D03*
X25851D03*
X26851D03*
X27851D03*
X27901Y1504D03*
X26901D03*
X25901D03*
X24901D03*
X23901D03*
X22901D03*
X20901D03*
X19901D03*
X18901D03*
X17901D03*
X16901D03*
X15901D03*
G54D85*
Y2504D03*
X16901D03*
X17901D03*
X18901D03*
X19901D03*
X20901D03*
X22901D03*
X23901D03*
X24901D03*
X25901D03*
X26901D03*
X27901D03*
Y3504D03*
X26901D03*
X25901D03*
X24901D03*
X23901D03*
X22901D03*
Y4504D03*
X23901D03*
X24901D03*
X25901D03*
X26901D03*
X27901D03*
X27701Y5754D03*
X28701D03*
X26701D03*
X25701D03*
X24701D03*
X23701D03*
Y15504D03*
X24701D03*
X25701D03*
X26701D03*
X27701D03*
X28701D03*
G54D86*
X27851Y18404D03*
X26851D03*
X25851D03*
X24851D03*
X23851D03*
X22851D03*
X21851D03*
X20851D03*
Y19404D03*
X21851D03*
X22851D03*
X23851D03*
X24851D03*
X25851D03*
X26851D03*
X27851D03*
X19301D03*
X18301D03*
X17301D03*
X16301D03*
X15301D03*
X14301D03*
X13301D03*
X12301D03*
Y18404D03*
X13301D03*
X14301D03*
X15301D03*
X16301D03*
X17301D03*
X18301D03*
X19301D03*
G54D82*
X23451Y13004D03*
Y12004D03*
Y11004D03*
Y10004D03*
Y9004D03*
G54D65*
X31484Y7496D03*
X33453Y9465D03*
X31484Y11433D03*
G54D66*
Y9465D03*
G54D67*
X33453Y10409D03*
Y11472D03*
Y8520D03*
Y7457D03*
G54D12*
X45921Y10504D03*
Y11504D03*
G54D84*
X45521Y20504D03*
X44521D03*
X43521D03*
X42521D03*
X41521D03*
X40521D03*
X39521D03*
X46521D03*
X48071D03*
X49071D03*
X50071D03*
X51071D03*
X52071D03*
X53071D03*
X54071D03*
X55071D03*
X55121Y1504D03*
X54121D03*
X53121D03*
X52121D03*
X51121D03*
X50121D03*
X48121D03*
X47121D03*
X46121D03*
X45121D03*
X44121D03*
X43121D03*
G54D85*
Y2504D03*
X44121D03*
X45121D03*
X46121D03*
X47121D03*
X48121D03*
X50121D03*
X51121D03*
X52121D03*
X53121D03*
X54121D03*
X55121D03*
Y3504D03*
X54121D03*
X53121D03*
X52121D03*
X51121D03*
X50121D03*
Y4504D03*
X51121D03*
X52121D03*
X53121D03*
X54121D03*
X55121D03*
X54921Y5754D03*
X55921D03*
X53921D03*
X52921D03*
X51921D03*
X50921D03*
Y15504D03*
X51921D03*
X52921D03*
X53921D03*
X54921D03*
X55921D03*
G54D86*
X55071Y18404D03*
X54071D03*
X53071D03*
X52071D03*
X51071D03*
X50071D03*
X49071D03*
X48071D03*
Y19404D03*
X49071D03*
X50071D03*
X51071D03*
X52071D03*
X53071D03*
X54071D03*
X55071D03*
X46521D03*
X45521D03*
X44521D03*
X43521D03*
X42521D03*
X41521D03*
X40521D03*
X39521D03*
Y18404D03*
X40521D03*
X41521D03*
X42521D03*
X43521D03*
X44521D03*
X45521D03*
X46521D03*
G54D82*
X50671Y13004D03*
Y12004D03*
Y11004D03*
Y10004D03*
Y9004D03*
G54D65*
X4264Y28496D03*
X6233Y30465D03*
X4264Y32433D03*
G54D66*
Y30465D03*
G54D67*
X6233Y31409D03*
Y32472D03*
Y29520D03*
Y28457D03*
G54D12*
X18701Y31504D03*
Y32504D03*
G54D84*
X18301Y41504D03*
X17301D03*
X16301D03*
X15301D03*
X14301D03*
X13301D03*
X12301D03*
X19301D03*
X20851D03*
X21851D03*
X22851D03*
X23851D03*
X24851D03*
X25851D03*
X26851D03*
X27851D03*
X27901Y22504D03*
X26901D03*
X25901D03*
X24901D03*
X23901D03*
X22901D03*
X20901D03*
X19901D03*
X18901D03*
X17901D03*
X16901D03*
X15901D03*
G54D85*
Y23504D03*
X16901D03*
X17901D03*
X18901D03*
X19901D03*
X20901D03*
X22901D03*
X23901D03*
X24901D03*
X25901D03*
X26901D03*
X27901D03*
Y24504D03*
X26901D03*
X25901D03*
X24901D03*
X23901D03*
X22901D03*
Y25504D03*
X23901D03*
X24901D03*
X25901D03*
X26901D03*
X27901D03*
X27701Y26754D03*
X28701D03*
X26701D03*
X25701D03*
X24701D03*
X23701D03*
Y36504D03*
X24701D03*
X25701D03*
X26701D03*
X27701D03*
X28701D03*
G54D86*
X27851Y39404D03*
X26851D03*
X25851D03*
X24851D03*
X23851D03*
X22851D03*
X21851D03*
X20851D03*
Y40404D03*
X21851D03*
X22851D03*
X23851D03*
X24851D03*
X25851D03*
X26851D03*
X27851D03*
X19301D03*
X18301D03*
X17301D03*
X16301D03*
X15301D03*
X14301D03*
X13301D03*
X12301D03*
Y39404D03*
X13301D03*
X14301D03*
X15301D03*
X16301D03*
X17301D03*
X18301D03*
X19301D03*
G54D82*
X23451Y34004D03*
Y33004D03*
Y32004D03*
Y31004D03*
Y30004D03*
G54D65*
X31484Y28496D03*
X33453Y30465D03*
X31484Y32433D03*
G54D66*
Y30465D03*
G54D67*
X33453Y31409D03*
Y32472D03*
Y29520D03*
Y28457D03*
G54D12*
X45921Y31504D03*
Y32504D03*
G54D84*
X45521Y41504D03*
X44521D03*
X43521D03*
X42521D03*
X41521D03*
X40521D03*
X39521D03*
X46521D03*
X48071D03*
X49071D03*
X50071D03*
X51071D03*
X52071D03*
X53071D03*
X54071D03*
X55071D03*
X55121Y22504D03*
X54121D03*
X53121D03*
X52121D03*
X51121D03*
X50121D03*
X48121D03*
X47121D03*
X46121D03*
X45121D03*
X44121D03*
X43121D03*
G54D85*
Y23504D03*
X44121D03*
X45121D03*
X46121D03*
X47121D03*
X48121D03*
X50121D03*
X51121D03*
X52121D03*
X53121D03*
X54121D03*
X55121D03*
Y24504D03*
X54121D03*
X53121D03*
X52121D03*
X51121D03*
X50121D03*
Y25504D03*
X51121D03*
X52121D03*
X53121D03*
X54121D03*
X55121D03*
X54921Y26754D03*
X55921D03*
X53921D03*
X52921D03*
X51921D03*
X50921D03*
Y36504D03*
X51921D03*
X52921D03*
X53921D03*
X54921D03*
X55921D03*
G54D86*
X55071Y39404D03*
X54071D03*
X53071D03*
X52071D03*
X51071D03*
X50071D03*
X49071D03*
X48071D03*
Y40404D03*
X49071D03*
X50071D03*
X51071D03*
X52071D03*
X53071D03*
X54071D03*
X55071D03*
X46521D03*
X45521D03*
X44521D03*
X43521D03*
X42521D03*
X41521D03*
X40521D03*
X39521D03*
Y39404D03*
X40521D03*
X41521D03*
X42521D03*
X43521D03*
X44521D03*
X45521D03*
X46521D03*
G54D82*
X50671Y34004D03*
Y33004D03*
Y32004D03*
Y31004D03*
Y30004D03*
G54D64*
X20601Y16704D02*
G01Y17304D01*
X21601D02*
G01Y16704D01*
X22601D02*
G01Y17304D01*
X6201Y19204D02*
G01Y19804D01*
X5201D02*
G01Y19204D01*
X4201D02*
G01Y19804D01*
X47821Y16704D02*
G01Y17304D01*
X48821D02*
G01Y16704D01*
X49821D02*
G01Y17304D01*
X33421Y19204D02*
G01Y19804D01*
X32421D02*
G01Y19204D01*
X31421D02*
G01Y19804D01*
X20601Y37704D02*
G01Y38304D01*
X21601D02*
G01Y37704D01*
X22601D02*
G01Y38304D01*
X6201Y40204D02*
G01Y40804D01*
X5201D02*
G01Y40204D01*
X4201D02*
G01Y40804D01*
X47821Y37704D02*
G01Y38304D01*
X48821D02*
G01Y37704D01*
X49821D02*
G01Y38304D01*
X33421Y40204D02*
G01Y40804D01*
X32421D02*
G01Y40204D01*
X31421D02*
G01Y40804D01*
M02*
