G04 CAM350 V9.5.1 (Build 211) Date:  Tue Mar 29 16:03:55 2011 *
G04 Database: (Untitled) *
G04 Layer 2: FluxamasynthShi *
%FSLAX24Y24*%
%MOIN*%
%SFA1.000B1.000*%

%MIA0B0*%
%IPPOS*%
%ADD10C,0.00200*%
%ADD71C,0.03200*%
%ADD28C,0.01600*%
%ADD29C,0.01000*%
%ADD72C,0.00600*%
%ADD73C,0.00500*%
%ADD31C,0.01200*%
%ADD33C,0.01100*%
%ADD34C,0.00800*%
%ADD35C,0.00700*%
%ADD36C,0.01400*%
%ADD37C,0.00400*%
%ADD38C,0.00000*%
%ADD39R,0.02300X0.01600*%
%ADD40C,0.00300*%
%LNFluxamasynthShi*%
%LPD*%
G54D39*
X19216Y10804D03*
Y11204D03*
X46436Y10804D03*
Y11204D03*
X19216Y31804D03*
Y32204D03*
X46436Y31804D03*
Y32204D03*
G54D28*
X15866Y1543D02*
G01X15885D01*
X17901Y2504D02*
G01X18001D01*
X22801Y3504D02*
G01X22901D01*
Y3404*
X23701Y6754D02*
G01X26201D01*
X28701*
X26201D02*
G01Y9754D01*
X25685Y9798D02*
G01Y11976D01*
X25714*
Y12006*
X25729Y11991D02*
G01X29010D01*
Y9798*
X25685*
X26201Y12004D02*
G01Y14504D01*
X28701*
X26201D02*
G01X23701D01*
X22090Y15885D02*
G01X21001D01*
X21553Y15870D02*
G01Y15452D01*
X21840Y19404D02*
G01X21901D01*
X18401D02*
G01X18301D01*
X16401D02*
G01X16301D01*
X25701Y19304D02*
G01X25859Y19343D01*
X19201Y11204D02*
G01X19001D01*
Y10804D02*
G01X19151D01*
G54D71*
X22901Y4504D02*
G01X28001D01*
X27901Y3504D02*
G01X22901D01*
Y2404D02*
G01Y1604D01*
X23901D02*
G01Y2504D01*
X24901D02*
G01Y1604D01*
X25901Y1504D02*
G01Y2504D01*
X26901D02*
G01Y1504D01*
X27901D02*
G01Y2504D01*
X20901Y2404D02*
G01Y1504D01*
X19901D02*
G01Y2604D01*
X18901Y2404D02*
G01Y1404D01*
X17901Y1504D02*
G01Y2504D01*
X16901D02*
G01Y1504D01*
X15885Y1543D02*
G01Y2564D01*
X12401Y18404D02*
G01X27901D01*
X27840Y19404D02*
G01Y20404D01*
X26840Y20465D02*
G01Y19465D01*
X25859Y19343D02*
G01Y20543D01*
X24840Y20504D02*
G01Y19404D01*
X23859D02*
G01Y20504D01*
X22859D02*
G01Y19404D01*
X21840D02*
G01Y20504D01*
X20859D02*
G01Y19404D01*
X19301D02*
G01Y20504D01*
X18301D02*
G01Y19404D01*
X17301Y19304D02*
G01Y20504D01*
X16301D02*
G01Y19404D01*
X15301D02*
G01Y20504D01*
X14301D02*
G01Y19404D01*
X13301D02*
G01Y20404D01*
X12301Y20604D02*
G01Y19404D01*
G54D72*
X9358Y17417D02*
G01X9131Y17191D01*
X9188Y17134*
X9301*
X9358Y17191*
Y17417*
X9301Y17474*
X9188*
X9131Y17417*
Y17191*
X9340Y15424D02*
G01X9284Y15367D01*
X9340Y15424D02*
G01X9454D01*
X9510Y15367*
Y15311*
X9454Y15254*
X9510Y15197*
Y15141*
X9454Y15084*
X9340*
X9284Y15141*
X9156D02*
G01Y15084D01*
X9099*
Y15141*
X9156*
X8958D02*
G01X8901Y15084D01*
X8788*
X8731Y15141*
X8845Y15254D02*
G01X8901D01*
X8958Y15197*
Y15141*
X8901Y15254D02*
G01X8958Y15311D01*
Y15367*
X8901Y15424*
X8788*
X8731Y15367*
X9397Y15254D02*
G01X9454D01*
X9652Y15197D02*
G01X9822Y15084D01*
X9652D02*
G01Y15424D01*
X9822Y15311D02*
G01X9652Y15197D01*
X9638Y13424D02*
G01X9524D01*
X9468Y13367*
Y13141*
X9695Y13367*
Y13141*
X9638Y13084*
X9524*
X9468Y13141*
X9326Y13084D02*
G01X9099D01*
X9326Y13311*
Y13367*
X9270Y13424*
X9156*
X9099Y13367*
X8958D02*
G01X8901Y13424D01*
X8788*
X8731Y13367*
X8958D02*
G01Y13311D01*
X8731Y13084*
X8958*
X9638Y13424D02*
G01X9695Y13367D01*
X7733Y11843D02*
G01Y7086D01*
X5983*
X5133D02*
G01X3118D01*
Y8265*
Y10665*
Y11843*
X6983*
X8531Y11367D02*
G01X8588Y11424D01*
X8701*
X8758Y11367*
Y11311*
X8531Y11084*
X8758*
X8899D02*
G01X8956D01*
Y11141*
X8899*
Y11084*
X9084D02*
G01X9310Y11311D01*
Y11367*
X9254Y11424*
X9140*
X9084Y11367*
Y11084D02*
G01X9310D01*
X9452Y11141D02*
G01X9509Y11084D01*
X9679*
Y11311*
X9820Y11254D02*
G01X9934D01*
X9820Y11424D02*
G01X10047D01*
X9820D02*
G01Y11084D01*
X9452Y11141D02*
G01Y11311D01*
X9254Y9424D02*
G01X9140D01*
X9084Y9367*
X9254Y9424D02*
G01X9310Y9367D01*
Y9311*
X9084Y9084*
X9310*
X9452Y9141D02*
G01X9509Y9084D01*
X9679*
Y9311*
X9820Y9254D02*
G01X9934D01*
X9820Y9424D02*
G01X10047D01*
X9820D02*
G01Y9084D01*
X9452Y9141D02*
G01Y9311D01*
X8956Y9141D02*
G01Y9084D01*
X8899*
Y9141*
X8956*
X8758Y9084D02*
G01X8531D01*
X8758Y9311*
Y9367*
X8701Y9424*
X8588*
X8531Y9367*
X8788Y7424D02*
G01X8731Y7367D01*
X8788Y7424D02*
G01X8901D01*
X8958Y7367*
Y7311*
X8731Y7084*
X8958*
X9099D02*
G01X9326Y7311D01*
Y7367*
X9270Y7424*
X9156*
X9099Y7367*
X9468D02*
G01Y7141D01*
X9695Y7367*
Y7141*
X9638Y7084*
X9524*
X9468Y7141*
X9326Y7084D02*
G01X9099D01*
X9468Y7367D02*
G01X9524Y7424D01*
X9638*
X9695Y7367*
X9652Y5424D02*
G01Y5084D01*
Y5197D02*
G01X9822Y5084D01*
X9652Y5197D02*
G01X9822Y5311D01*
X9510D02*
G01X9454Y5254D01*
X9510Y5197*
Y5141*
X9454Y5084*
X9340*
X9284Y5141*
X9156D02*
G01Y5084D01*
X9099*
Y5141*
X9156*
X8958D02*
G01Y5197D01*
X8901Y5254*
X8845*
X8901D02*
G01X8958Y5311D01*
Y5367*
X8901Y5424*
X8788*
X8731Y5367*
Y5141D02*
G01X8788Y5084D01*
X8901*
X8958Y5141*
X9284Y5367D02*
G01X9340Y5424D01*
X9454*
X9510Y5367*
Y5311*
X9454Y5254D02*
G01X9397D01*
X9468Y3424D02*
G01X9695D01*
X9581Y3254D02*
G01X9468D01*
X9326Y3311D02*
G01Y3084D01*
X9156*
X9099Y3141*
Y3311*
X8958Y3084D02*
G01X8731D01*
X8845D02*
G01Y3424D01*
X8731Y3311*
X9468Y3424D02*
G01Y3084D01*
X6401Y3004D02*
G01Y2654D01*
Y3004D02*
G01Y3954D01*
Y4354*
X5601Y4704D02*
G01X5501D01*
Y4804*
X4901*
Y4704*
X4801*
X4001Y4354D02*
G01Y4004D01*
Y3004*
Y2654*
X4801Y2304D02*
G01X4901D01*
Y2204*
X5501*
Y2304*
X5601*
X5101Y3504D02*
G01X5103Y3524D01*
X5109Y3542*
X5118Y3560*
X5130Y3575*
X5145Y3587*
X5163Y3596*
X5181Y3602*
X5201Y3604*
X5221Y3602*
X5239Y3596*
X5257Y3587*
X5272Y3575*
X5284Y3560*
X5293Y3542*
X5299Y3524*
X5301Y3504*
X5299Y3484*
X5293Y3466*
X5284Y3448*
X5272Y3433*
X5257Y3421*
X5239Y3412*
X5221Y3406*
X5201Y3404*
X5181Y3406*
X5163Y3412*
X5145Y3421*
X5130Y3433*
X5118Y3448*
X5109Y3466*
X5103Y3484*
X5101Y3504*
X4501D02*
G01X4503Y3556D01*
X4509Y3608*
X4519Y3660*
X4532Y3710*
X4549Y3760*
X4570Y3808*
X4595Y3854*
X4623Y3898*
X4654Y3940*
X4688Y3980*
X4725Y4017*
X4765Y4051*
X4807Y4082*
X4851Y4110*
X4897Y4135*
X4945Y4156*
X4995Y4173*
X5045Y4186*
X5097Y4196*
X5149Y4202*
X5201Y4204*
X5253Y4202*
X5305Y4196*
X5357Y4186*
X5407Y4173*
X5457Y4156*
X5505Y4135*
X5551Y4110*
X5595Y4082*
X5637Y4051*
X5677Y4017*
X5714Y3980*
X5748Y3940*
X5779Y3898*
X5807Y3854*
X5832Y3808*
X5853Y3760*
X5870Y3710*
X5883Y3660*
X5893Y3608*
X5899Y3556*
X5901Y3504*
X5899Y3452*
X5893Y3400*
X5883Y3348*
X5870Y3298*
X5853Y3248*
X5832Y3200*
X5807Y3154*
X5779Y3110*
X5748Y3068*
X5714Y3028*
X5677Y2991*
X5637Y2957*
X5595Y2926*
X5551Y2898*
X5505Y2873*
X5457Y2852*
X5407Y2835*
X5357Y2822*
X5305Y2812*
X5253Y2806*
X5201Y2804*
X5149Y2806*
X5097Y2812*
X5045Y2822*
X4995Y2835*
X4945Y2852*
X4897Y2873*
X4851Y2898*
X4807Y2926*
X4765Y2957*
X4725Y2991*
X4688Y3028*
X4654Y3068*
X4623Y3110*
X4595Y3154*
X4570Y3200*
X4549Y3248*
X4532Y3298*
X4519Y3348*
X4509Y3400*
X4503Y3452*
X4501Y3504*
X4425Y5534D02*
G01X4278Y5681D01*
X4351D02*
G01X4131D01*
Y5534D02*
G01Y5974D01*
X4351*
X4425Y5901*
Y5754*
X4351Y5681*
X4591Y5754D02*
G01X4738D01*
X4591Y5534D02*
G01X4885D01*
X5052Y5607D02*
G01X5125Y5534D01*
X5272*
X5345Y5607*
Y5681*
X5272Y5754*
X5125*
X5052Y5828*
Y5901*
X5125Y5974*
X5272*
X5345Y5901*
X5512Y5974D02*
G01Y5534D01*
X5806*
X5659Y5754D02*
G01X5512D01*
Y5974D02*
G01X5806D01*
X5973D02*
G01X6266D01*
X6119D02*
G01Y5534D01*
X4885Y5974D02*
G01X4591D01*
Y5534*
X3118Y8265D02*
G01X2036D01*
Y10665*
X1836Y10465*
Y8465*
X2036Y8265*
Y10665D02*
G01X3118D01*
X13481Y5836D02*
G01Y5722D01*
X13538Y5666*
X13764*
X13538Y5892*
X13764*
X13821Y5836*
Y5722*
X13764Y5666*
X13821Y5524D02*
G01Y5297D01*
Y5411D02*
G01X13481D01*
X13594Y5297*
X13481Y5836D02*
G01X13538Y5892D01*
X14481Y5902D02*
G01X14538Y5845D01*
X14821*
X14651Y5788D02*
G01Y5902D01*
X14594Y5647D02*
G01X14821D01*
Y5477*
X14764Y5420*
X14594*
X14821Y5279D02*
G01Y5052D01*
Y5165D02*
G01X14481D01*
X14594Y5052*
X14764Y4924D02*
G01X14821D01*
Y4868*
X14764*
Y4924*
X15481Y4797D02*
G01X15594Y4683D01*
X15481Y4797D02*
G01X15821D01*
Y4910D02*
G01Y4683D01*
X15764Y5052D02*
G01X15538D01*
X15481Y5108*
Y5222*
X15538Y5279*
X15764Y5052*
X15821Y5108*
Y5222*
X15764Y5279*
X15538*
X15594Y5420D02*
G01X15764D01*
X15821Y5477*
Y5647*
X15594*
X15651Y5788D02*
G01Y5902D01*
X15538Y5845D02*
G01X15821D01*
X15538D02*
G01X15481Y5902D01*
X16481D02*
G01X16538Y5845D01*
X16821*
X16651Y5788D02*
G01Y5902D01*
X16594Y5647D02*
G01X16821D01*
Y5477*
X16764Y5420*
X16594*
X16821Y5279D02*
G01Y5052D01*
Y5165D02*
G01X16481D01*
X16594Y5052*
X16764Y4924D02*
G01X16821D01*
Y4868*
X16764*
Y4924*
X17031Y4374D02*
G01X17201D01*
X17258Y4317*
Y4091*
X17201Y4034*
X17031*
Y4374*
X17399Y4317D02*
G01X17456Y4374D01*
X17570*
X17626Y4317*
Y4261*
X17399Y4034*
X17626*
X19853Y5906D02*
G01Y6076D01*
X19910Y6133*
X20137*
X20194Y6076*
Y5906*
X19853*
X19967Y6275D02*
G01X19853Y6388D01*
X20194*
Y6275D02*
G01Y6501D01*
X18906Y7934D02*
G01X18963Y7991D01*
Y8104*
X18849*
X18736Y7991D02*
G01X18793Y7934D01*
X18906*
X18736Y7991D02*
G01Y8217D01*
X18793Y8274*
X18906*
X18963Y8217*
X18765Y8434D02*
G01X18879Y8547D01*
Y8774*
X18652D02*
G01Y8547D01*
X18765Y8434*
X18595Y8274D02*
G01X18368D01*
Y7934*
X18595*
X18481Y8104D02*
G01X18368D01*
X18226D02*
G01Y8217D01*
X18170Y8274*
X17999*
Y7934*
Y8047D02*
G01X18170D01*
X18226Y8104*
X18113Y8047D02*
G01X18226Y7934D01*
X17858Y8047D02*
G01Y8274D01*
X17901Y8434D02*
G01X17788D01*
X17731Y8491*
X17845Y8604D02*
G01X17901D01*
X17958Y8547*
Y8491*
X17901Y8434*
Y8604D02*
G01X17958Y8661D01*
Y8717*
X17901Y8774*
X17788*
X17731Y8717*
X18099Y8491D02*
G01X18156D01*
Y8434*
X18099*
Y8491*
X18284D02*
G01X18340Y8434D01*
X18454*
X18510Y8491*
Y8547*
X18454Y8604*
X18397*
X18454D02*
G01X18510Y8661D01*
Y8717*
X18454Y8774*
X18340*
X18284Y8717*
X17631Y8274D02*
G01Y8047D01*
X17745Y7934*
X17858Y8047*
X20827Y9353D02*
G01X21054D01*
X20941D02*
G01Y9693D01*
X20827Y9579*
X21196D02*
G01Y9636D01*
X21252Y9693*
X21366*
X21422Y9636*
Y9579*
X21366Y9523*
X21252*
X21196Y9579*
X21252Y9523D02*
G01X21196Y9466D01*
Y9409*
X21252Y9353*
X21366*
X21422Y9409*
Y9466*
X21366Y9523*
X21564Y9579D02*
G01X21734D01*
X21791Y9523*
Y9409*
X21734Y9353*
X21564*
Y9239D02*
G01Y9579D01*
X21932Y9523D02*
G01X22046D01*
X21989Y9636D02*
G01X22046Y9693D01*
X21989Y9636D02*
G01Y9353D01*
X22200Y10041D02*
G01X22257D01*
X22314Y10097*
Y10268*
X22427D02*
G01X22200D01*
X22144Y10211*
Y10097*
X22200Y10041*
X22427D02*
G01X22484Y10097D01*
Y10211*
X22427Y10268*
Y10409D02*
G01Y10466D01*
X22484*
Y10409*
X22427*
Y10593D02*
G01X22484Y10650D01*
Y10763*
X22427Y10820*
X22370*
X22314Y10763*
Y10593*
X22427*
X22314D02*
G01X22200Y10707D01*
X22144Y10820*
Y10961D02*
G01X22257Y11075D01*
X22144Y11188*
X22484*
Y11330D02*
G01X22144D01*
X22314D02*
G01Y11557D01*
X22257Y11698D02*
G01Y11925D01*
X22484Y11698*
Y11925*
Y11557D02*
G01X22144D01*
X21751Y11304D02*
G01Y10704D01*
X21749Y10687*
X21745Y10670*
X21738Y10654*
X21728Y10640*
X21715Y10627*
X21701Y10617*
X21685Y10610*
X21668Y10606*
X21651Y10604*
X19501*
Y10654*
Y11354*
Y11404*
X21651*
X21668Y11402*
X21685Y11398*
X21701Y11391*
X21715Y11381*
X21728Y11368*
X21738Y11354*
X21745Y11338*
X21749Y11321*
X21751Y11304*
X22144Y10961D02*
G01X22484D01*
X21001Y11004D02*
G01X20801D01*
Y10804*
X20651D02*
G01Y11204D01*
X20501*
Y10804*
X20651*
X20801Y11004D02*
G01Y11204D01*
X20351D02*
G01Y11004D01*
Y10804*
Y11004D02*
G01X20151D01*
X19501Y11354D02*
G01X19351D01*
Y10654*
X19501*
X21578Y12212D02*
G01Y12552D01*
X21748*
X21804Y12495*
Y12382*
X21748Y12325*
X21578*
X21436Y12382D02*
G01X21379Y12325D01*
X21266*
X21209Y12382*
Y12439*
X21266Y12495*
X21379*
X21436Y12439*
Y12382*
X21379Y12495D02*
G01X21436Y12552D01*
Y12609*
X21379Y12665*
X21266*
X21209Y12609*
Y12552*
X21266Y12495*
X21068Y12325D02*
G01X20841D01*
X20954D02*
G01Y12665D01*
X20841Y12552*
X21946Y12495D02*
G01X22059D01*
X22003Y12609D02*
G01Y12325D01*
Y12609D02*
G01X22059Y12665D01*
X24081Y12716D02*
G01X24421D01*
Y12943*
Y13084D02*
G01X24081D01*
Y13254*
X24138Y13311*
X24251*
X24308Y13254*
Y13084*
Y13198D02*
G01X24421Y13311D01*
X24081Y12943D02*
G01Y12716D01*
Y12574D02*
G01Y12348D01*
Y12461D02*
G01X24421D01*
Y12206D02*
G01Y11979D01*
X24081*
Y12206*
X24251Y12093D02*
G01Y11979D01*
X24081Y11838D02*
G01X24421D01*
X24641Y11858D02*
G01Y11971D01*
X24697Y12028*
X24924Y11801*
X24981Y11858*
Y11971*
X24924Y12028*
X24697*
X24641Y11858D02*
G01X24697Y11801D01*
X24924*
Y11659D02*
G01X24697D01*
X24924Y11433*
X24981Y11489*
Y11603*
X24924Y11659*
Y11433D02*
G01X24697D01*
X24641Y11489*
Y11603*
X24697Y11659*
X24421Y11611D02*
G01X24081D01*
X24194Y11724*
X24081Y11838*
X24138Y11470D02*
G01X24081Y11413D01*
Y11299*
X24138Y11243*
X24364*
X24421Y11299*
Y11413*
X24364Y11470*
X24138*
Y11101D02*
G01X24251D01*
X24308Y11045*
Y10874*
X24421D02*
G01X24081D01*
Y11045*
X24138Y11101*
X24308Y10988D02*
G01X24421Y11101D01*
X24641Y11064D02*
G01Y11291D01*
X24754Y11234D02*
G01X24811Y11291D01*
X24924*
X24981Y11234*
Y11121*
X24924Y11064*
X24811D02*
G01X24754Y11178D01*
Y11234*
X24811Y11064D02*
G01X24641D01*
X24697Y10923D02*
G01X24924Y10696D01*
X24981Y10753*
Y10866*
X24924Y10923*
X24697*
X24641Y10866*
Y10753*
X24697Y10696*
X24924*
Y10554D02*
G01X24697D01*
X24641Y10498*
Y10328*
X24981*
Y10498*
X24924Y10554*
X24981Y10186D02*
G01X24641D01*
X24754Y10073*
X24641Y9959*
X24981*
X24421Y9996D02*
G01Y9769D01*
X24081*
Y9996*
Y10138D02*
G01X24421D01*
Y10365*
Y10506D02*
G01X24081D01*
Y10733*
X24251Y10620D02*
G01Y10506D01*
X24421D02*
G01Y10733D01*
X24251Y9883D02*
G01Y9769D01*
X24138Y9628D02*
G01X24081Y9571D01*
Y9458*
X24138Y9401*
X24364*
X24421Y9458*
Y9571*
X24364Y9628*
Y9260D02*
G01X24421Y9203D01*
Y9090*
X24364Y9033*
X24138*
X24081Y9090*
Y9203*
X24138Y9260*
X24194Y8891D02*
G01X24421D01*
X24251D02*
G01Y8665D01*
X24194D02*
G01X24081Y8778D01*
X24194Y8891*
Y8665D02*
G01X24421D01*
X25939Y10087D02*
G01Y10427D01*
X26052Y10313*
X26165Y10427*
Y10087*
X26307D02*
G01X26477D01*
X26534Y10143*
Y10370*
X26477Y10427*
X26307*
Y10087*
X26675Y10143D02*
G01Y10370D01*
X26732Y10427*
X26845*
X26902Y10370*
X26675Y10143*
X26732Y10087*
X26845*
X26902Y10143*
Y10370*
X27044Y10427D02*
G01Y10257D01*
X27157Y10313*
X27214*
X27270Y10257*
Y10143*
X27214Y10087*
X27100*
X27044Y10143*
X27412D02*
G01X27469Y10087D01*
X27582*
X27639Y10143*
Y10200*
X27582Y10257*
X27525*
X27582D02*
G01X27639Y10313D01*
Y10370*
X27582Y10427*
X27469*
X27412Y10370*
X27270Y10427D02*
G01X27044D01*
X27111Y10691D02*
G01X27054Y10748D01*
X27111Y10691D02*
G01X27225D01*
X27281Y10748*
Y10805*
X27225Y10861*
X27111*
X27054Y10918*
Y10975*
X27111Y11032*
X27225*
X27281Y10975*
X27423D02*
G01Y10748D01*
X27479Y10691*
X27593*
X27650Y10748*
Y10975*
X27593Y11032*
X27479*
X27423Y10975*
X27791Y11032D02*
G01Y10691D01*
Y10805D02*
G01X27961D01*
X28018Y10861*
Y10975*
X27961Y11032*
X27791*
X27905Y10805D02*
G01X28018Y10691D01*
X28007Y10427D02*
G01X27894Y10370D01*
X27780Y10257*
X27950*
X28007Y10200*
Y10143*
X27950Y10087*
X27837*
X27780Y10143*
Y10257*
X26913Y10691D02*
G01Y11032D01*
X26686D02*
G01X26913Y10691D01*
X26686D02*
G01Y11032D01*
X26545D02*
G01X26318D01*
Y10691*
X26545*
X26431Y10861D02*
G01X26318D01*
X26176Y10805D02*
G01Y10748D01*
X26120Y10691*
X26006*
X25950Y10748*
X26006Y10861D02*
G01X26120D01*
X26176Y10805*
Y10975D02*
G01X26120Y11032D01*
X26006*
X25950Y10975*
Y10918*
X26006Y10861*
X25957Y11304D02*
G01Y11644D01*
X26127*
X26184Y11588*
Y11474*
X26127Y11418*
X25957*
X26326D02*
G01X26496D01*
X26552Y11474*
Y11588*
X26496Y11644*
X26326*
Y11304*
X26439Y11418D02*
G01X26552Y11304D01*
X26694D02*
G01X26921D01*
X27062Y11361D02*
G01X27119Y11304D01*
X27232*
X27289Y11361*
Y11418*
X27232Y11474*
X27119*
X27062Y11531*
Y11588*
X27119Y11644*
X27232*
X27289Y11588*
X27431D02*
G01Y11531D01*
X27487Y11474*
X27601*
X27657Y11418*
Y11361*
X27601Y11304*
X27487*
X27431Y11361*
Y11588D02*
G01X27487Y11644D01*
X27601*
X27657Y11588*
X27799Y11644D02*
G01Y11361D01*
X27856Y11304*
X27969*
X28026Y11361*
Y11644*
X28167D02*
G01X28337D01*
X28394Y11588*
Y11474*
X28337Y11418*
X28167*
X28281D02*
G01X28394Y11304D01*
X28535D02*
G01Y11644D01*
X28762*
X28649Y11474D02*
G01X28535D01*
Y11304D02*
G01X28762D01*
X28167D02*
G01Y11644D01*
X26921D02*
G01X26694D01*
Y11304*
Y11474D02*
G01X26807D01*
X24251Y12716D02*
G01Y12829D01*
X22851Y16504D02*
G01X22351D01*
X22101Y16754*
X21851Y16504*
X21351*
X21101Y16754*
X20851Y16504*
X20351*
X20101Y16754*
Y17254*
X20351Y17504*
X20851*
X21101Y17254*
X21351Y17504*
X21851*
X22101Y17254*
X22351Y17504*
X22851*
X23101Y17254*
Y16754*
X22851Y16504*
X22101Y16754D02*
G01Y17254D01*
X21101D02*
G01Y16754D01*
X19035Y17139D02*
G01X18694D01*
Y17309*
X18751Y17366*
X18864*
X18921Y17309*
Y17139*
X18864Y16997D02*
G01X18921Y16941D01*
Y16827*
X18864Y16771*
X18638Y16997*
X18864*
X18638D02*
G01X18581Y16941D01*
Y16827*
X18638Y16771*
X18864*
X18638Y16629D02*
G01X18581D01*
Y16402*
Y16204D02*
G01X18751Y16034D01*
Y16261*
X18921Y16204D02*
G01X18581D01*
X18864Y16402D02*
G01X18921D01*
X18864D02*
G01X18638Y16629D01*
X17921Y16586D02*
G01X17694Y16813D01*
X17638*
X17581Y16756*
Y16643*
X17638Y16586*
X17864Y16459D02*
G01Y16402D01*
X17921*
Y16459*
X17864*
X17921Y16586D02*
G01Y16813D01*
X17864Y16955D02*
G01X17694D01*
X17864D02*
G01X17921Y17011D01*
Y17182*
X17694*
X17751Y17323D02*
G01Y17436D01*
X17921Y17323D02*
G01X17581D01*
Y17550*
X18581Y17621D02*
G01X18638Y17564D01*
X18921*
X18751Y17507D02*
G01Y17621D01*
X17921Y16261D02*
G01Y16034D01*
X17694Y16261*
X17638*
X17581Y16204*
Y16091*
X17638Y16034*
X16921D02*
G01Y16261D01*
Y16147D02*
G01X16581D01*
X16694Y16034*
X16638Y16402D02*
G01X16581Y16459D01*
Y16572*
X16638Y16629*
X16864Y16402*
X16921Y16459*
Y16572*
X16864Y16629*
X16638*
Y16402D02*
G01X16864D01*
X15921Y16445D02*
G01Y16218D01*
Y16331D02*
G01X15581D01*
X15694Y16218*
X15864Y16091D02*
G01X15921D01*
Y16034*
X15864*
Y16091*
Y16586D02*
G01X15921Y16643D01*
Y16813*
X15694*
X15751Y16955D02*
G01Y17068D01*
X15638Y17011D02*
G01X15581Y17068D01*
X15638Y17011D02*
G01X15921D01*
X15864Y16586D02*
G01X15694D01*
X14921Y16643D02*
G01X14864Y16586D01*
X14694*
Y16813D02*
G01X14921D01*
Y16643*
Y16445D02*
G01Y16218D01*
Y16331D02*
G01X14581D01*
X14694Y16218*
X14864Y16091D02*
G01X14921D01*
Y16034*
X14864*
Y16091*
X13921Y16034D02*
G01X13694Y16261D01*
X13638*
X13581Y16204*
Y16091*
X13638Y16034*
X13921D02*
G01Y16261D01*
Y16402D02*
G01X13694Y16629D01*
X13638*
X13581Y16572*
Y16459*
X13638Y16402*
X13921D02*
G01Y16629D01*
X13864Y16771D02*
G01X13638D01*
X13581Y16827*
Y16941*
X13638Y16997*
X13864Y16771*
X13921Y16827*
Y16941*
X13864Y16997*
X13638*
X14581Y17068D02*
G01X14638Y17011D01*
X14921*
X14751Y16955D02*
G01Y17068D01*
X6701Y19254D02*
G01X6451Y19004D01*
X5951*
X5701Y19254*
X5451Y19004*
X4951*
X4701Y19254*
X4451Y19004*
X3951*
X3701Y19254*
Y19754*
X3951Y20004*
X4451*
X4701Y19754*
X4951Y20004*
X5451*
X5701Y19754*
X5951Y20004*
X6451*
X6701Y19754*
Y19254*
X5701D02*
G01Y19754D01*
X4701D02*
G01Y19254D01*
X22344Y7397D02*
G01X22458Y7227D01*
X22571Y7397*
Y7227D02*
G01X22231D01*
X22288Y7086D02*
G01X22514Y6859D01*
X22571Y6915*
Y7029*
X22514Y7086*
X22288*
X22231Y7029*
Y6915*
X22288Y6859*
X22514*
X22571Y6717D02*
G01Y6490D01*
Y6604D02*
G01X22231D01*
X22344Y6490*
X28631Y4617D02*
G01Y4391D01*
X28688Y4334*
X28801*
X28858Y4391*
Y4504*
X28745*
X28858Y4617D02*
G01X28801Y4674D01*
X28688*
X28631Y4617*
X28999Y4674D02*
G01Y4334D01*
X29226D02*
G01X28999Y4674D01*
X29226D02*
G01Y4334D01*
X29368D02*
G01X29538D01*
X29595Y4391*
Y4617*
X29538Y4674*
X29368*
Y4334*
X29268Y3674D02*
G01Y3447D01*
X29381Y3334*
X29495Y3447*
Y3674*
X29126D02*
G01X28899D01*
Y3504*
X29013Y3561*
X29070*
X29126Y3504*
Y3391*
X29070Y3334*
X28956*
X28899Y3391*
X28758Y3504D02*
G01X28531D01*
X28645Y3617D02*
G01Y3391D01*
G54D73*
X28401Y3004D02*
G01X22401D01*
Y4004*
X28401*
Y3004*
Y2004*
X22401*
Y3004*
X28401*
Y4004D02*
G01X22401D01*
Y5004*
X28401*
Y4004*
X29201Y5254D02*
G01Y6254D01*
X23201*
Y5254*
X29201*
X23951Y8754D02*
G01Y9254D01*
X23701Y9504*
X23951Y9754*
Y10254*
X23701Y10504*
X23951Y10754*
Y11254*
X23701Y11504*
X23951Y11754*
Y12254*
X23701Y12504*
X23951Y12754*
Y13254*
X23701Y13504*
X23201*
X22951Y13254*
Y12754*
X23201Y12504*
X22951Y12254*
Y11754*
X23201Y11504*
X22951Y11254*
Y10754*
X23201Y10504*
X22951Y10254*
Y9754*
X23201Y9504*
X22951Y9254*
Y8754*
X23201Y8504*
X23701*
X23951Y8754*
X19034Y7290D02*
G01Y6779D01*
X17892*
Y7290*
X19034*
X17076Y9629D02*
G01X16826D01*
X17076D02*
G01Y9854D01*
X14576Y9629D02*
G01X14326D01*
Y9854*
Y12154D02*
G01Y12379D01*
X14551*
X13701Y12504D02*
G01X13703Y12535D01*
X13709Y12566*
X13719Y12596*
X13732Y12624*
X13749Y12651*
X13769Y12675*
X13792Y12697*
X13817Y12715*
X13845Y12730*
X13874Y12742*
X13904Y12750*
X13935Y12754*
X13967*
X13998Y12750*
X14028Y12742*
X14057Y12730*
X14085Y12715*
X14110Y12697*
X14133Y12675*
X14153Y12651*
X14170Y12624*
X14183Y12596*
X14193Y12566*
X14199Y12535*
X14201Y12504*
X14199Y12473*
X14193Y12442*
X14183Y12412*
X14170Y12384*
X14153Y12357*
X14133Y12333*
X14110Y12311*
X14085Y12293*
X14057Y12278*
X14028Y12266*
X13998Y12258*
X13967Y12254*
X13935*
X13904Y12258*
X13874Y12266*
X13845Y12278*
X13817Y12293*
X13792Y12311*
X13769Y12333*
X13749Y12357*
X13732Y12384*
X13719Y12412*
X13709Y12442*
X13703Y12473*
X13701Y12504*
X16851Y12379D02*
G01X17051D01*
Y12179*
X23201Y15004D02*
G01Y16004D01*
X29201*
Y15004*
X23201*
X20351Y17904D02*
G01X28351D01*
Y18904*
X20351*
Y17904*
X19801D02*
G01Y18904D01*
X11801*
Y17904*
X19801*
Y18904D02*
G01Y19904D01*
X11801*
Y18904*
X19801*
X20351D02*
G01X28351D01*
Y19904*
X20351*
Y18904*
X11643Y18592D02*
G01Y18358D01*
X11585Y18300*
X11410*
Y18650*
X11585*
X11643Y18592*
X11275Y18650D02*
G01Y18300D01*
X11041Y18650*
Y18300*
X10906Y18358D02*
G01Y18475D01*
X10790*
X10906Y18592D02*
G01X10848Y18650D01*
X10731*
X10673Y18592*
Y18358*
X10731Y18300*
X10848*
X10906Y18358*
X7424Y10403D02*
G01X7199D01*
X7124Y10327*
X7199Y10252*
X7424*
Y10102D02*
G01X7124D01*
Y10177*
X7199Y10252*
Y9942D02*
G01X7424D01*
Y9792D02*
G01X7199D01*
X7124Y9867*
X7199Y9942*
Y9792D02*
G01X7124Y9717D01*
Y9642*
X7424*
X7349Y9482D02*
G01X7199D01*
X7124Y9407*
Y9332*
X7199Y9182*
X6974*
Y9482*
X7349D02*
G01X7424Y9407D01*
Y9257*
X7349Y9182*
Y9025D02*
G01Y8950D01*
X7424*
Y9025*
X7349*
X7424D02*
G01X7574Y8875D01*
X7349Y8715D02*
G01X7424Y8640D01*
Y8489*
X7349Y8414*
X7199Y8564D02*
G01Y8640D01*
X7274Y8715*
X7349*
X7199Y8640D02*
G01X7124Y8715D01*
X7049*
X6974Y8640*
Y8489*
X7049Y8414*
X15401Y3004D02*
G01Y2004D01*
X21401*
Y3004*
X15401*
G54D33*
X17453Y5157D02*
G01Y5551D01*
X17256Y5354D02*
G01X17650D01*
X20497Y5493D02*
G01X20891D01*
X20694Y5689D02*
G01Y5296D01*
G54D34*
X20790Y14148D02*
G01X21070D01*
X21250D02*
G01X21530D01*
X21710D02*
G01X21991D01*
X22171Y14218D02*
G01X22241Y14148D01*
X22381*
X22451Y14218*
X22171D02*
G01Y14498D01*
X22241Y14568*
X22381*
X22451Y14498*
X22631Y14568D02*
G01X22911D01*
X22771D02*
G01Y14148D01*
X21991Y14568D02*
G01X21710D01*
Y14148*
Y14358D02*
G01X21850D01*
X21797Y14799D02*
G01Y15220D01*
X22077Y14799*
Y15220*
X21630D02*
G01X21490D01*
X21560D02*
G01Y14799D01*
X21490D02*
G01X21630D01*
X21310Y15010D02*
G01Y15150D01*
X21240Y15220*
X21030*
Y14799*
Y14939D02*
G01X21240D01*
X21310Y15010*
X21250Y14568D02*
G01Y14148D01*
X20930Y14358D02*
G01X20790D01*
X20610Y14288D02*
G01Y14218D01*
X20539Y14148*
X20399*
X20329Y14218*
X20399Y14358D02*
G01X20539D01*
X20610Y14288*
Y14498D02*
G01X20539Y14568D01*
X20399*
X20329Y14498*
Y14428*
X20399Y14358*
X20790Y14568D02*
G01Y14148D01*
Y14568D02*
G01X21070D01*
X10250Y19344D02*
G01Y19764D01*
X10110D02*
G01X10390D01*
X9930D02*
G01Y19414D01*
X9860Y19344*
X9720*
X9650Y19414*
Y19764*
X9470Y19694D02*
G01X9400Y19764D01*
X9259*
X9189Y19694*
Y19414*
X9259Y19344*
X9400*
X9470Y19414*
Y19694*
X8549Y19764D02*
G01X8269D01*
Y19344*
X8549*
X8409Y19554D02*
G01X8269D01*
X8089Y19344D02*
G01Y19764D01*
X7808D02*
G01X8089Y19344D01*
X7808D02*
G01Y19764D01*
X7642D02*
G01X7501D01*
X7571D02*
G01Y19344D01*
X7501D02*
G01X7642D01*
X7321D02*
G01X7041D01*
Y19764*
X6676Y20420D02*
G01Y20740D01*
X6516Y20580D02*
G01X6836D01*
X6321D02*
G01X6241Y20500D01*
X6000*
Y20340D02*
G01Y20820D01*
X6241*
X6321Y20740*
Y20580*
X6160Y20500D02*
G01X6321Y20340D01*
X5364Y20491D02*
G01X5044D01*
X4657Y20527D02*
G01X4337D01*
X4497Y20687D02*
G01Y20367D01*
X4142Y20287D02*
G01X3822D01*
Y20767*
G54D29*
X10672Y18864D02*
G01X28350D01*
X22591Y16170D02*
G01Y15610D01*
X22404D02*
G01X22778D01*
X22404Y15984D02*
G01X22591Y16170D01*
X20737Y15886D02*
G01X20363D01*
X20643Y16167*
Y15606*
X22451Y5004D02*
G01X29701D01*
Y4004D02*
G01X22451D01*
G54D35*
X14689Y1640D02*
G01Y1150D01*
X14362D02*
G01Y1640D01*
X14526Y1477*
X14689Y1640*
X14173Y1559D02*
G01X14092Y1640D01*
X13928*
X13847Y1559*
Y1232*
X13928Y1150*
X14092*
X14173Y1232*
Y1559*
X13658D02*
G01X13576Y1640D01*
X13413*
X13331Y1559*
Y1232*
X13413Y1150*
X13576*
X13658Y1232*
X13155D02*
G01Y1150D01*
X13073*
Y1232*
X13155*
X12884Y1150D02*
G01X12557D01*
Y1640*
X12884*
X12721Y1395D02*
G01X12557D01*
X12369Y1232D02*
G01X12287Y1150D01*
X12124*
X12042Y1232*
Y1559*
X12124Y1640*
X12287*
X12369Y1559*
X11862Y1640D02*
G01X11698D01*
X11780D02*
G01Y1150D01*
X11698D02*
G01X11862D01*
X11509Y1313D02*
G01Y1640D01*
X11182D02*
G01Y1313D01*
X11346Y1150*
X11509Y1313*
X10994Y1150D02*
G01X10667D01*
Y1640*
X10994*
X10830Y1395D02*
G01X10667D01*
X10478Y1232D02*
G01Y1559D01*
X10396Y1640*
X10151*
Y1150*
X10396*
X10478Y1232*
X9963Y1150D02*
G01Y1640D01*
X9636D02*
G01X9963Y1150D01*
X9636D02*
G01Y1640D01*
X9447Y1559D02*
G01Y1395D01*
X9365Y1313*
X9120*
Y1150D02*
G01Y1640D01*
X9365*
X9447Y1559*
X9283Y1313D02*
G01X9447Y1150D01*
X8931D02*
G01X8604D01*
Y1640*
X8931*
X8768Y1395D02*
G01X8604D01*
X8416Y1232D02*
G01X8334Y1150D01*
X8089*
Y1640*
X8334*
X8416Y1559*
Y1232*
X7900D02*
G01Y1559D01*
X7818Y1640*
X7655*
X7573Y1559*
Y1232*
X7655Y1150*
X7818*
X7900Y1232*
X7384Y1150D02*
G01Y1640D01*
X7221Y1477*
X7057Y1640*
Y1150*
G54D36*
X6972Y12597D02*
G01X6845D01*
X6718Y12724*
Y12978*
X6845Y13105*
X7099Y12978D02*
G01X7225Y13105D01*
X7352*
X7479Y12978*
Y12724*
X7352Y12597*
X7099Y12724D02*
G01Y12978D01*
Y12724D02*
G01X6972Y12597D01*
X7099Y13426D02*
G01Y13933D01*
X7479D02*
G01X6718D01*
Y14255D02*
G01Y14508D01*
Y14382D02*
G01X7479D01*
Y14508D02*
G01Y14255D01*
Y14807D02*
G01X6718D01*
Y15314*
X7099Y15061D02*
G01Y14807D01*
X7479D02*
G01Y15314D01*
Y15636D02*
G01X6718D01*
X7479D02*
G01Y16143D01*
Y16465D02*
G01X6718D01*
Y16845*
X6845Y16972*
X7352*
X7479Y16845*
Y16465*
X5970Y16466D02*
G01X5210D01*
X5590D02*
G01Y15959D01*
X5970D02*
G01X5210D01*
Y15637D02*
G01Y15130D01*
Y15384D02*
G01X5970D01*
Y14809D02*
G01X5210D01*
Y14302D02*
G01X5970Y14809D01*
Y14302D02*
G01X5210D01*
Y13980D02*
G01X5336D01*
X5590Y13726*
X5970*
X5590D02*
G01X5336Y13473D01*
X5210*
X5336Y13151D02*
G01X5210Y13025D01*
Y12771*
X5336Y12644*
X5463*
X5590Y12771*
Y13025*
X5717Y13151*
X5843*
X5970Y13025*
Y12771*
X5843Y12644*
X6718Y13426D02*
G01X7479D01*
X4417Y13466D02*
G01Y13974D01*
X4290Y14295D02*
G01X3656D01*
Y14802D02*
G01X4290D01*
X4417Y14676*
Y14422*
X4290Y14295*
X4417Y15124D02*
G01X3656Y15631D01*
X3910Y15953D02*
G01X3656Y16206D01*
X3910Y16460*
X4417*
Y16781D02*
G01X3656D01*
X3910Y17035*
X3656Y17288*
X4417*
Y17610D02*
G01X3910D01*
X3656Y17864*
X3910Y18117*
X4417*
X4037D02*
G01Y17610D01*
Y16460D02*
G01Y15953D01*
X3910D02*
G01X4417D01*
Y15631D02*
G01X3656Y15124D01*
Y13466D02*
G01X4417D01*
X3656Y13145D02*
G01Y12638D01*
X4417*
X4037D02*
G01Y12891D01*
G54D31*
X4801Y12504D02*
G01Y18504D01*
X6401D02*
G01Y12504D01*
X7901D02*
G01Y18504D01*
X6901Y2004D02*
G01X14701D01*
G54D37*
X14751Y2321D02*
G01X14444D01*
X14597D02*
G01Y2782D01*
X14444Y2628*
X14290Y2398D02*
G01Y2321D01*
X14214*
Y2398*
X14290*
X14060Y2321D02*
G01X13753D01*
X14060Y2628*
Y2705*
X13983Y2782*
X13830*
X13753Y2705*
X13600Y2398D02*
G01Y2321D01*
X13523*
Y2398*
X13600*
X13370Y2475D02*
G01X13216Y2321D01*
X13063Y2475*
Y2782*
X12909D02*
G01X12602D01*
Y2321*
X12909*
X12756Y2552D02*
G01X12602D01*
X12449D02*
G01X12372Y2475D01*
X12142*
X12296D02*
G01X12449Y2321D01*
Y2552D02*
G01Y2705D01*
X12372Y2782*
X12142*
Y2321*
X13370Y2475D02*
G01Y2782D01*
X14491Y12784D02*
G01Y12971D01*
X14584Y13064*
X14678Y12971*
Y12784*
Y12924D02*
G01X14491D01*
X14786Y13064D02*
G01X14973D01*
X14879D02*
G01Y12784D01*
X15080Y12831D02*
G01X15127Y12784D01*
X15221*
X15267Y12831*
Y12877*
X15221Y12924*
X15127*
X15080Y12971*
Y13017*
X15127Y13064*
X15221*
X15267Y13017*
X15375Y12971D02*
G01Y12784D01*
Y12924D02*
G01X15562D01*
Y12971D02*
G01Y12784D01*
X15670D02*
G01Y13064D01*
X15763Y12971*
X15856Y13064*
Y12784*
X15964D02*
G01X16151Y12971D01*
Y13017*
X16104Y13064*
X16011*
X15964Y13017*
Y12784D02*
G01X16151D01*
X16259D02*
G01X16446D01*
X16352D02*
G01Y13064D01*
X16259Y12971*
X16554D02*
G01X16600Y12924D01*
X16740*
Y12831D02*
G01Y13017D01*
X16694Y13064*
X16600*
X16554Y13017*
Y12971*
Y12831D02*
G01X16600Y12784D01*
X16694*
X16740Y12831*
X16848D02*
G01X16895Y12784D01*
X16988*
X17035Y12831*
Y12924*
X16988Y12971*
X16942*
X16848Y12924*
Y13064*
X17035*
X15562Y12971D02*
G01X15468Y13064D01*
X15375Y12971*
G54D38*
X2701Y21504D02*
G01Y504D01*
X28901*
Y1484*
X28911*
X29921Y2494*
Y15424*
X28901Y16444*
Y20834*
X28231Y21504*
X2701*
X3969Y11433D02*
G01X3971Y11467D01*
X3977Y11501*
X3987Y11534*
X4000Y11565*
X4018Y11595*
X4038Y11623*
X4062Y11648*
X4088Y11670*
X4116Y11688*
X4147Y11704*
X4179Y11716*
X4213Y11724*
X4247Y11728*
X4281*
X4315Y11724*
X4349Y11716*
X4381Y11704*
X4411Y11688*
X4440Y11670*
X4466Y11648*
X4490Y11623*
X4510Y11595*
X4528Y11565*
X4541Y11534*
X4551Y11501*
X4557Y11467*
X4559Y11433*
X4557Y11399*
X4551Y11365*
X4541Y11332*
X4528Y11301*
X4510Y11271*
X4490Y11243*
X4466Y11218*
X4440Y11196*
X4412Y11178*
X4381Y11162*
X4349Y11150*
X4315Y11142*
X4281Y11138*
X4247*
X4213Y11142*
X4179Y11150*
X4147Y11162*
X4116Y11178*
X4088Y11196*
X4062Y11218*
X4038Y11243*
X4018Y11271*
X4000Y11301*
X3987Y11332*
X3977Y11365*
X3971Y11399*
X3969Y11433*
X5938Y9465D02*
G01X5940Y9499D01*
X5946Y9533*
X5956Y9566*
X5969Y9597*
X5987Y9627*
X6007Y9655*
X6031Y9680*
X6057Y9702*
X6085Y9720*
X6116Y9736*
X6148Y9748*
X6182Y9756*
X6216Y9760*
X6250*
X6284Y9756*
X6318Y9748*
X6350Y9736*
X6380Y9720*
X6409Y9702*
X6435Y9680*
X6459Y9655*
X6479Y9627*
X6497Y9597*
X6510Y9566*
X6520Y9533*
X6526Y9499*
X6528Y9465*
X6526Y9431*
X6520Y9397*
X6510Y9364*
X6497Y9333*
X6479Y9303*
X6459Y9275*
X6435Y9250*
X6409Y9228*
X6381Y9210*
X6350Y9194*
X6318Y9182*
X6284Y9174*
X6250Y9170*
X6216*
X6182Y9174*
X6148Y9182*
X6116Y9194*
X6085Y9210*
X6057Y9228*
X6031Y9250*
X6007Y9275*
X5987Y9303*
X5969Y9333*
X5956Y9364*
X5946Y9397*
X5940Y9431*
X5938Y9465*
X3969Y7496D02*
G01X3971Y7530D01*
X3977Y7564*
X3987Y7597*
X4000Y7628*
X4018Y7658*
X4038Y7686*
X4062Y7711*
X4088Y7733*
X4116Y7751*
X4147Y7767*
X4179Y7779*
X4213Y7787*
X4247Y7791*
X4281*
X4315Y7787*
X4349Y7779*
X4381Y7767*
X4411Y7751*
X4440Y7733*
X4466Y7711*
X4490Y7686*
X4510Y7658*
X4528Y7628*
X4541Y7597*
X4551Y7564*
X4557Y7530*
X4559Y7496*
X4557Y7462*
X4551Y7428*
X4541Y7395*
X4528Y7364*
X4510Y7334*
X4490Y7306*
X4466Y7281*
X4440Y7259*
X4412Y7241*
X4381Y7225*
X4349Y7213*
X4315Y7205*
X4281Y7201*
X4247*
X4213Y7205*
X4179Y7213*
X4147Y7225*
X4116Y7241*
X4088Y7259*
X4062Y7281*
X4038Y7306*
X4018Y7334*
X4000Y7364*
X3987Y7395*
X3977Y7428*
X3971Y7462*
X3969Y7496*
G54D40*
X19258Y20943D02*
G01X19209Y20991D01*
Y21040*
X19258Y21088*
X19355*
X19403Y21040*
Y20991*
X19355Y20943*
X19258*
Y21088D02*
G01X19209Y21136D01*
Y21185*
X19258Y21233*
X19355*
X19403Y21185*
Y21136*
X19355Y21088*
X18403Y21078D02*
G01X18258D01*
X18209Y21126*
Y21175*
X18258Y21223*
X18355*
X18403Y21175*
Y20981*
X18355Y20933*
X18258*
X18209Y20981*
X17533D02*
G01X17485Y20933D01*
X17388*
X17339Y20981*
X17533Y21175*
Y20981*
X17339D02*
G01Y21175D01*
X17388Y21223*
X17485*
X17533Y21175*
X17142Y21223D02*
G01Y20933D01*
X17238D02*
G01X17045D01*
Y21126D02*
G01X17142Y21223D01*
X16533Y20943D02*
G01X16339D01*
X16436D02*
G01Y21233D01*
X16339Y21136*
X16238Y20943D02*
G01X16045D01*
X16142D02*
G01Y21233D01*
X16045Y21136*
X15533D02*
G01X15339Y20943D01*
X15533*
Y21136D02*
G01Y21185D01*
X15485Y21233*
X15388*
X15339Y21185*
X15142Y21233D02*
G01X15045Y21136D01*
X15142Y21233D02*
G01Y20943D01*
X15238D02*
G01X15045D01*
X14533Y20971D02*
G01X14485Y20923D01*
X14388*
X14339Y20971*
X14238Y20923D02*
G01X14045D01*
X14142D02*
G01Y21213D01*
X14045Y21116*
X14339Y21165D02*
G01X14388Y21213D01*
X14485*
X14533Y21165*
Y21116*
X14485Y21068*
X14533Y21020*
Y20971*
X14485Y21068D02*
G01X14436D01*
X13663Y21126D02*
G01X13518D01*
X13469Y21078*
Y20981*
X13518Y20933*
X13663*
Y21223*
X13368Y21078D02*
G01Y20933D01*
Y21078D02*
G01X13320Y21126D01*
X13175*
Y20933*
X13074D02*
G01X12929D01*
X12880Y20981*
Y21078*
X12929Y21126*
X13074*
Y20885*
X13025Y20836*
X12977*
X12522Y20931D02*
G01Y21173D01*
X12570Y21221*
Y21076D02*
G01X12474D01*
X12372D02*
G01Y21028D01*
X12179*
Y21076D02*
G01X12227Y21124D01*
X12324*
X12372Y21076*
X12324Y20931D02*
G01X12227D01*
X12179Y20979*
Y21076*
X12078D02*
G01X12029Y21028D01*
X11884*
Y20931D02*
G01Y21221D01*
X12029*
X12078Y21173*
Y21076*
X11981Y21028D02*
G01X12078Y20931D01*
X11783D02*
G01Y21124D01*
X11686Y21221*
X11590Y21124*
Y20931*
Y21076D02*
G01X11783D01*
X20839Y20961D02*
G01Y20913D01*
Y20961D02*
G01X21033Y21155D01*
Y21203*
X20839*
X21749Y21088D02*
G01X21895D01*
X21943Y21040*
Y20991*
X21895Y20943*
X21798*
X21749Y20991*
Y21088*
X21846Y21185*
X21943Y21233*
X22759Y21213D02*
G01Y21068D01*
X22856Y21116*
X22905*
X22953Y21068*
Y20971*
X22905Y20923*
X22808*
X22759Y20971*
Y21213D02*
G01X22953D01*
X23719Y21068D02*
G01X23913D01*
X23865Y20923D02*
G01Y21213D01*
X23719Y21068*
X24759Y20971D02*
G01X24808Y20923D01*
X24905*
X24953Y20971*
Y21020*
X24905Y21068*
X24856*
X24905D02*
G01X24953Y21116D01*
Y21165*
X24905Y21213*
X24808*
X24759Y21165*
X25739Y21155D02*
G01X25788Y21203D01*
X25885*
X25933Y21155*
Y21106*
X25739Y20913*
X25933*
X26749D02*
G01X26943D01*
X26846D02*
G01Y21203D01*
X26749Y21106*
X27769Y21165D02*
G01X27818Y21213D01*
X27915*
X27963Y21165*
X27769Y20971*
X27818Y20923*
X27915*
X27963Y20971*
Y21165*
X27769D02*
G01Y20971D01*
X25965Y1081D02*
G01X26014Y1033D01*
Y984*
X25965Y936*
X26014Y888*
Y839*
X25965Y791*
X25868*
X25820Y839*
X25917Y936D02*
G01X25965D01*
Y1081D02*
G01X25868D01*
X25820Y1033*
X25004Y1053D02*
G01X24955Y1101D01*
X24858*
X24810Y1053*
X25004D02*
G01Y1004D01*
X24810Y811*
X25004*
X24024Y791D02*
G01X23830D01*
X23927D02*
G01Y1081D01*
X23830Y984*
X22994Y1033D02*
G01Y839D01*
X22945Y791*
X22848*
X22800Y839*
X22994Y1033*
X22945Y1081*
X22848*
X22800Y1033*
Y839*
X21273Y898D02*
G01Y753D01*
Y898D02*
G01X21225Y946D01*
X21079*
Y753*
X20980D02*
G01X20883D01*
X20931D02*
G01Y946D01*
X20883*
X20931Y1043D02*
G01Y1092D01*
X20782Y1043D02*
G01Y850D01*
X20685Y753*
X20588Y850*
Y1043*
X19723Y1061D02*
G01Y771D01*
X19578*
X19529Y819*
Y916*
X19578Y964*
X19723*
X19428Y916D02*
G01Y771D01*
Y916D02*
G01X19380Y964D01*
X19235*
Y771*
X19134Y819D02*
G01Y916D01*
X19037*
X19134Y819D02*
G01X19085Y771D01*
X18988*
X18940Y819*
Y1013*
X18988Y1061*
X19085*
X19134Y1013*
X18193Y976D02*
G01X18096Y783D01*
X17999Y976*
X17898Y928D02*
G01Y831D01*
X17850Y783*
X17753*
X17705Y831*
Y928D02*
G01X17802Y976D01*
X17850*
X17898Y928*
Y1073D02*
G01X17705D01*
Y928*
X17123Y986D02*
G01X17026Y793D01*
X16929Y986*
X16828D02*
G01X16780Y938D01*
X16828Y890*
Y841*
X16780Y793*
X16683*
X16635Y841*
X16732Y938D02*
G01X16780D01*
X16828Y986D02*
G01Y1035D01*
X16780Y1083*
X16683*
X16635Y1035*
X16259Y1081D02*
G01X16065D01*
X16162D02*
G01Y791D01*
X15964Y839D02*
G01X15916Y791D01*
X15819*
X15771Y839*
X15819Y936D02*
G01X15916D01*
X15964Y888*
Y839*
X15819Y936D02*
G01X15771Y984D01*
Y1033*
X15819Y1081*
X15916*
X15964Y1033*
X15670D02*
G01X15621Y1081D01*
X15476*
Y791*
Y888D02*
G01X15621D01*
X15670Y936*
Y1033*
X15573Y888D02*
G01X15670Y791D01*
X26800Y926D02*
G01X26994D01*
X26945Y781D02*
G01Y1071D01*
X26800Y926*
X27800D02*
G01X27897Y974D01*
X27945*
X27994Y926*
Y829*
X27945Y781*
X27848*
X27800Y829*
Y926D02*
G01Y1071D01*
X27994*
G54D10*
X6401Y3004D02*
G01X6301D01*
Y3954*
X6401*
X4101Y4004D02*
G01Y3004D01*
X4001*
Y4004D02*
G01X4101D01*
G54D28*
X43086Y1543D02*
G01X43105D01*
X45121Y2504D02*
G01X45221D01*
X50021Y3504D02*
G01X50121D01*
Y3404*
X50921Y6754D02*
G01X53421D01*
X55921*
X53421D02*
G01Y9754D01*
X52905Y9798D02*
G01Y11976D01*
X52934*
Y12006*
X52949Y11991D02*
G01X56230D01*
Y9798*
X52905*
X53421Y12004D02*
G01Y14504D01*
X55921*
X53421D02*
G01X50921D01*
X49310Y15885D02*
G01X48221D01*
X48773Y15870D02*
G01Y15452D01*
X49060Y19404D02*
G01X49121D01*
X45621D02*
G01X45521D01*
X43621D02*
G01X43521D01*
X52921Y19304D02*
G01X53079Y19343D01*
X46421Y11204D02*
G01X46221D01*
Y10804D02*
G01X46371D01*
G54D71*
X50121Y4504D02*
G01X55221D01*
X55121Y3504D02*
G01X50121D01*
Y2404D02*
G01Y1604D01*
X51121D02*
G01Y2504D01*
X52121D02*
G01Y1604D01*
X53121Y1504D02*
G01Y2504D01*
X54121D02*
G01Y1504D01*
X55121D02*
G01Y2504D01*
X48121Y2404D02*
G01Y1504D01*
X47121D02*
G01Y2604D01*
X46121Y2404D02*
G01Y1404D01*
X45121Y1504D02*
G01Y2504D01*
X44121D02*
G01Y1504D01*
X43105Y1543D02*
G01Y2564D01*
X39621Y18404D02*
G01X55121D01*
X55060Y19404D02*
G01Y20404D01*
X54060Y20465D02*
G01Y19465D01*
X53079Y19343D02*
G01Y20543D01*
X52060Y20504D02*
G01Y19404D01*
X51079D02*
G01Y20504D01*
X50079D02*
G01Y19404D01*
X49060D02*
G01Y20504D01*
X48079D02*
G01Y19404D01*
X46521D02*
G01Y20504D01*
X45521D02*
G01Y19404D01*
X44521Y19304D02*
G01Y20504D01*
X43521D02*
G01Y19404D01*
X42521D02*
G01Y20504D01*
X41521D02*
G01Y19404D01*
X40521D02*
G01Y20404D01*
X39521Y20604D02*
G01Y19404D01*
G54D72*
X36578Y17417D02*
G01X36351Y17191D01*
X36408Y17134*
X36521*
X36578Y17191*
Y17417*
X36521Y17474*
X36408*
X36351Y17417*
Y17191*
X36560Y15424D02*
G01X36504Y15367D01*
X36560Y15424D02*
G01X36674D01*
X36730Y15367*
Y15311*
X36674Y15254*
X36730Y15197*
Y15141*
X36674Y15084*
X36560*
X36504Y15141*
X36376D02*
G01Y15084D01*
X36319*
Y15141*
X36376*
X36178D02*
G01X36121Y15084D01*
X36008*
X35951Y15141*
X36065Y15254D02*
G01X36121D01*
X36178Y15197*
Y15141*
X36121Y15254D02*
G01X36178Y15311D01*
Y15367*
X36121Y15424*
X36008*
X35951Y15367*
X36617Y15254D02*
G01X36674D01*
X36872Y15197D02*
G01X37042Y15084D01*
X36872D02*
G01Y15424D01*
X37042Y15311D02*
G01X36872Y15197D01*
X36858Y13424D02*
G01X36744D01*
X36688Y13367*
Y13141*
X36915Y13367*
Y13141*
X36858Y13084*
X36744*
X36688Y13141*
X36546Y13084D02*
G01X36319D01*
X36546Y13311*
Y13367*
X36490Y13424*
X36376*
X36319Y13367*
X36178D02*
G01X36121Y13424D01*
X36008*
X35951Y13367*
X36178D02*
G01Y13311D01*
X35951Y13084*
X36178*
X36858Y13424D02*
G01X36915Y13367D01*
X34953Y11843D02*
G01Y7086D01*
X33203*
X32353D02*
G01X30338D01*
Y8265*
Y10665*
Y11843*
X34203*
X35751Y11367D02*
G01X35808Y11424D01*
X35921*
X35978Y11367*
Y11311*
X35751Y11084*
X35978*
X36119D02*
G01X36176D01*
Y11141*
X36119*
Y11084*
X36304D02*
G01X36530Y11311D01*
Y11367*
X36474Y11424*
X36360*
X36304Y11367*
Y11084D02*
G01X36530D01*
X36672Y11141D02*
G01X36729Y11084D01*
X36899*
Y11311*
X37040Y11254D02*
G01X37154D01*
X37040Y11424D02*
G01X37267D01*
X37040D02*
G01Y11084D01*
X36672Y11141D02*
G01Y11311D01*
X36474Y9424D02*
G01X36360D01*
X36304Y9367*
X36474Y9424D02*
G01X36530Y9367D01*
Y9311*
X36304Y9084*
X36530*
X36672Y9141D02*
G01X36729Y9084D01*
X36899*
Y9311*
X37040Y9254D02*
G01X37154D01*
X37040Y9424D02*
G01X37267D01*
X37040D02*
G01Y9084D01*
X36672Y9141D02*
G01Y9311D01*
X36176Y9141D02*
G01Y9084D01*
X36119*
Y9141*
X36176*
X35978Y9084D02*
G01X35751D01*
X35978Y9311*
Y9367*
X35921Y9424*
X35808*
X35751Y9367*
X36008Y7424D02*
G01X35951Y7367D01*
X36008Y7424D02*
G01X36121D01*
X36178Y7367*
Y7311*
X35951Y7084*
X36178*
X36319D02*
G01X36546Y7311D01*
Y7367*
X36490Y7424*
X36376*
X36319Y7367*
X36688D02*
G01Y7141D01*
X36915Y7367*
Y7141*
X36858Y7084*
X36744*
X36688Y7141*
X36546Y7084D02*
G01X36319D01*
X36688Y7367D02*
G01X36744Y7424D01*
X36858*
X36915Y7367*
X36872Y5424D02*
G01Y5084D01*
Y5197D02*
G01X37042Y5084D01*
X36872Y5197D02*
G01X37042Y5311D01*
X36730D02*
G01X36674Y5254D01*
X36730Y5197*
Y5141*
X36674Y5084*
X36560*
X36504Y5141*
X36376D02*
G01Y5084D01*
X36319*
Y5141*
X36376*
X36178D02*
G01Y5197D01*
X36121Y5254*
X36065*
X36121D02*
G01X36178Y5311D01*
Y5367*
X36121Y5424*
X36008*
X35951Y5367*
Y5141D02*
G01X36008Y5084D01*
X36121*
X36178Y5141*
X36504Y5367D02*
G01X36560Y5424D01*
X36674*
X36730Y5367*
Y5311*
X36674Y5254D02*
G01X36617D01*
X36688Y3424D02*
G01X36915D01*
X36801Y3254D02*
G01X36688D01*
X36546Y3311D02*
G01Y3084D01*
X36376*
X36319Y3141*
Y3311*
X36178Y3084D02*
G01X35951D01*
X36065D02*
G01Y3424D01*
X35951Y3311*
X36688Y3424D02*
G01Y3084D01*
X33621Y3004D02*
G01Y2654D01*
Y3004D02*
G01Y3954D01*
Y4354*
X32821Y4704D02*
G01X32721D01*
Y4804*
X32121*
Y4704*
X32021*
X31221Y4354D02*
G01Y4004D01*
Y3004*
Y2654*
X32021Y2304D02*
G01X32121D01*
Y2204*
X32721*
Y2304*
X32821*
X32321Y3504D02*
G01X32323Y3524D01*
X32329Y3542*
X32338Y3560*
X32350Y3575*
X32365Y3587*
X32383Y3596*
X32401Y3602*
X32421Y3604*
X32441Y3602*
X32459Y3596*
X32477Y3587*
X32492Y3575*
X32504Y3560*
X32513Y3542*
X32519Y3524*
X32521Y3504*
X32519Y3484*
X32513Y3466*
X32504Y3448*
X32492Y3433*
X32477Y3421*
X32459Y3412*
X32441Y3406*
X32421Y3404*
X32401Y3406*
X32383Y3412*
X32365Y3421*
X32350Y3433*
X32338Y3448*
X32329Y3466*
X32323Y3484*
X32321Y3504*
X31721D02*
G01X31723Y3556D01*
X31729Y3608*
X31739Y3660*
X31752Y3710*
X31769Y3760*
X31790Y3808*
X31815Y3854*
X31843Y3898*
X31874Y3940*
X31908Y3980*
X31945Y4017*
X31985Y4051*
X32027Y4082*
X32071Y4110*
X32117Y4135*
X32165Y4156*
X32215Y4173*
X32265Y4186*
X32317Y4196*
X32369Y4202*
X32421Y4204*
X32473Y4202*
X32525Y4196*
X32577Y4186*
X32627Y4173*
X32677Y4156*
X32725Y4135*
X32771Y4110*
X32815Y4082*
X32857Y4051*
X32897Y4017*
X32934Y3980*
X32968Y3940*
X32999Y3898*
X33027Y3854*
X33052Y3808*
X33073Y3760*
X33090Y3710*
X33103Y3660*
X33113Y3608*
X33119Y3556*
X33121Y3504*
X33119Y3452*
X33113Y3400*
X33103Y3348*
X33090Y3298*
X33073Y3248*
X33052Y3200*
X33027Y3154*
X32999Y3110*
X32968Y3068*
X32934Y3028*
X32897Y2991*
X32857Y2957*
X32815Y2926*
X32771Y2898*
X32725Y2873*
X32677Y2852*
X32627Y2835*
X32577Y2822*
X32525Y2812*
X32473Y2806*
X32421Y2804*
X32369Y2806*
X32317Y2812*
X32265Y2822*
X32215Y2835*
X32165Y2852*
X32117Y2873*
X32071Y2898*
X32027Y2926*
X31985Y2957*
X31945Y2991*
X31908Y3028*
X31874Y3068*
X31843Y3110*
X31815Y3154*
X31790Y3200*
X31769Y3248*
X31752Y3298*
X31739Y3348*
X31729Y3400*
X31723Y3452*
X31721Y3504*
X31645Y5534D02*
G01X31498Y5681D01*
X31571D02*
G01X31351D01*
Y5534D02*
G01Y5974D01*
X31571*
X31645Y5901*
Y5754*
X31571Y5681*
X31811Y5754D02*
G01X31958D01*
X31811Y5534D02*
G01X32105D01*
X32272Y5607D02*
G01X32345Y5534D01*
X32492*
X32565Y5607*
Y5681*
X32492Y5754*
X32345*
X32272Y5828*
Y5901*
X32345Y5974*
X32492*
X32565Y5901*
X32732Y5974D02*
G01Y5534D01*
X33026*
X32879Y5754D02*
G01X32732D01*
Y5974D02*
G01X33026D01*
X33193D02*
G01X33486D01*
X33339D02*
G01Y5534D01*
X32105Y5974D02*
G01X31811D01*
Y5534*
X30338Y8265D02*
G01X29256D01*
Y10665*
X29056Y10465*
Y8465*
X29256Y8265*
Y10665D02*
G01X30338D01*
X40701Y5836D02*
G01Y5722D01*
X40758Y5666*
X40984*
X40758Y5892*
X40984*
X41041Y5836*
Y5722*
X40984Y5666*
X41041Y5524D02*
G01Y5297D01*
Y5411D02*
G01X40701D01*
X40814Y5297*
X40701Y5836D02*
G01X40758Y5892D01*
X41701Y5902D02*
G01X41758Y5845D01*
X42041*
X41871Y5788D02*
G01Y5902D01*
X41814Y5647D02*
G01X42041D01*
Y5477*
X41984Y5420*
X41814*
X42041Y5279D02*
G01Y5052D01*
Y5165D02*
G01X41701D01*
X41814Y5052*
X41984Y4924D02*
G01X42041D01*
Y4868*
X41984*
Y4924*
X42701Y4797D02*
G01X42814Y4683D01*
X42701Y4797D02*
G01X43041D01*
Y4910D02*
G01Y4683D01*
X42984Y5052D02*
G01X42758D01*
X42701Y5108*
Y5222*
X42758Y5279*
X42984Y5052*
X43041Y5108*
Y5222*
X42984Y5279*
X42758*
X42814Y5420D02*
G01X42984D01*
X43041Y5477*
Y5647*
X42814*
X42871Y5788D02*
G01Y5902D01*
X42758Y5845D02*
G01X43041D01*
X42758D02*
G01X42701Y5902D01*
X43701D02*
G01X43758Y5845D01*
X44041*
X43871Y5788D02*
G01Y5902D01*
X43814Y5647D02*
G01X44041D01*
Y5477*
X43984Y5420*
X43814*
X44041Y5279D02*
G01Y5052D01*
Y5165D02*
G01X43701D01*
X43814Y5052*
X43984Y4924D02*
G01X44041D01*
Y4868*
X43984*
Y4924*
X44251Y4374D02*
G01X44421D01*
X44478Y4317*
Y4091*
X44421Y4034*
X44251*
Y4374*
X44619Y4317D02*
G01X44676Y4374D01*
X44790*
X44846Y4317*
Y4261*
X44619Y4034*
X44846*
X47073Y5906D02*
G01Y6076D01*
X47130Y6133*
X47357*
X47414Y6076*
Y5906*
X47073*
X47187Y6275D02*
G01X47073Y6388D01*
X47414*
Y6275D02*
G01Y6501D01*
X46126Y7934D02*
G01X46183Y7991D01*
Y8104*
X46069*
X45956Y7991D02*
G01X46013Y7934D01*
X46126*
X45956Y7991D02*
G01Y8217D01*
X46013Y8274*
X46126*
X46183Y8217*
X45985Y8434D02*
G01X46099Y8547D01*
Y8774*
X45872D02*
G01Y8547D01*
X45985Y8434*
X45815Y8274D02*
G01X45588D01*
Y7934*
X45815*
X45701Y8104D02*
G01X45588D01*
X45446D02*
G01Y8217D01*
X45390Y8274*
X45219*
Y7934*
Y8047D02*
G01X45390D01*
X45446Y8104*
X45333Y8047D02*
G01X45446Y7934D01*
X45078Y8047D02*
G01Y8274D01*
X45121Y8434D02*
G01X45008D01*
X44951Y8491*
X45065Y8604D02*
G01X45121D01*
X45178Y8547*
Y8491*
X45121Y8434*
Y8604D02*
G01X45178Y8661D01*
Y8717*
X45121Y8774*
X45008*
X44951Y8717*
X45319Y8491D02*
G01X45376D01*
Y8434*
X45319*
Y8491*
X45504D02*
G01X45560Y8434D01*
X45674*
X45730Y8491*
Y8547*
X45674Y8604*
X45617*
X45674D02*
G01X45730Y8661D01*
Y8717*
X45674Y8774*
X45560*
X45504Y8717*
X44851Y8274D02*
G01Y8047D01*
X44965Y7934*
X45078Y8047*
X48047Y9353D02*
G01X48274D01*
X48161D02*
G01Y9693D01*
X48047Y9579*
X48416D02*
G01Y9636D01*
X48472Y9693*
X48586*
X48642Y9636*
Y9579*
X48586Y9523*
X48472*
X48416Y9579*
X48472Y9523D02*
G01X48416Y9466D01*
Y9409*
X48472Y9353*
X48586*
X48642Y9409*
Y9466*
X48586Y9523*
X48784Y9579D02*
G01X48954D01*
X49011Y9523*
Y9409*
X48954Y9353*
X48784*
Y9239D02*
G01Y9579D01*
X49152Y9523D02*
G01X49266D01*
X49209Y9636D02*
G01X49266Y9693D01*
X49209Y9636D02*
G01Y9353D01*
X49420Y10041D02*
G01X49477D01*
X49534Y10097*
Y10268*
X49647D02*
G01X49420D01*
X49364Y10211*
Y10097*
X49420Y10041*
X49647D02*
G01X49704Y10097D01*
Y10211*
X49647Y10268*
Y10409D02*
G01Y10466D01*
X49704*
Y10409*
X49647*
Y10593D02*
G01X49704Y10650D01*
Y10763*
X49647Y10820*
X49590*
X49534Y10763*
Y10593*
X49647*
X49534D02*
G01X49420Y10707D01*
X49364Y10820*
Y10961D02*
G01X49477Y11075D01*
X49364Y11188*
X49704*
Y11330D02*
G01X49364D01*
X49534D02*
G01Y11557D01*
X49477Y11698D02*
G01Y11925D01*
X49704Y11698*
Y11925*
Y11557D02*
G01X49364D01*
X48971Y11304D02*
G01Y10704D01*
X48969Y10687*
X48965Y10670*
X48958Y10654*
X48948Y10640*
X48935Y10627*
X48921Y10617*
X48905Y10610*
X48888Y10606*
X48871Y10604*
X46721*
Y10654*
Y11354*
Y11404*
X48871*
X48888Y11402*
X48905Y11398*
X48921Y11391*
X48935Y11381*
X48948Y11368*
X48958Y11354*
X48965Y11338*
X48969Y11321*
X48971Y11304*
X49364Y10961D02*
G01X49704D01*
X48221Y11004D02*
G01X48021D01*
Y10804*
X47871D02*
G01Y11204D01*
X47721*
Y10804*
X47871*
X48021Y11004D02*
G01Y11204D01*
X47571D02*
G01Y11004D01*
Y10804*
Y11004D02*
G01X47371D01*
X46721Y11354D02*
G01X46571D01*
Y10654*
X46721*
X48798Y12212D02*
G01Y12552D01*
X48968*
X49024Y12495*
Y12382*
X48968Y12325*
X48798*
X48656Y12382D02*
G01X48599Y12325D01*
X48486*
X48429Y12382*
Y12439*
X48486Y12495*
X48599*
X48656Y12439*
Y12382*
X48599Y12495D02*
G01X48656Y12552D01*
Y12609*
X48599Y12665*
X48486*
X48429Y12609*
Y12552*
X48486Y12495*
X48288Y12325D02*
G01X48061D01*
X48174D02*
G01Y12665D01*
X48061Y12552*
X49166Y12495D02*
G01X49279D01*
X49223Y12609D02*
G01Y12325D01*
Y12609D02*
G01X49279Y12665D01*
X51301Y12716D02*
G01X51641D01*
Y12943*
Y13084D02*
G01X51301D01*
Y13254*
X51358Y13311*
X51471*
X51528Y13254*
Y13084*
Y13198D02*
G01X51641Y13311D01*
X51301Y12943D02*
G01Y12716D01*
Y12574D02*
G01Y12348D01*
Y12461D02*
G01X51641D01*
Y12206D02*
G01Y11979D01*
X51301*
Y12206*
X51471Y12093D02*
G01Y11979D01*
X51301Y11838D02*
G01X51641D01*
X51861Y11858D02*
G01Y11971D01*
X51917Y12028*
X52144Y11801*
X52201Y11858*
Y11971*
X52144Y12028*
X51917*
X51861Y11858D02*
G01X51917Y11801D01*
X52144*
Y11659D02*
G01X51917D01*
X52144Y11433*
X52201Y11489*
Y11603*
X52144Y11659*
Y11433D02*
G01X51917D01*
X51861Y11489*
Y11603*
X51917Y11659*
X51641Y11611D02*
G01X51301D01*
X51414Y11724*
X51301Y11838*
X51358Y11470D02*
G01X51301Y11413D01*
Y11299*
X51358Y11243*
X51584*
X51641Y11299*
Y11413*
X51584Y11470*
X51358*
Y11101D02*
G01X51471D01*
X51528Y11045*
Y10874*
X51641D02*
G01X51301D01*
Y11045*
X51358Y11101*
X51528Y10988D02*
G01X51641Y11101D01*
X51861Y11064D02*
G01Y11291D01*
X51974Y11234D02*
G01X52031Y11291D01*
X52144*
X52201Y11234*
Y11121*
X52144Y11064*
X52031D02*
G01X51974Y11178D01*
Y11234*
X52031Y11064D02*
G01X51861D01*
X51917Y10923D02*
G01X52144Y10696D01*
X52201Y10753*
Y10866*
X52144Y10923*
X51917*
X51861Y10866*
Y10753*
X51917Y10696*
X52144*
Y10554D02*
G01X51917D01*
X51861Y10498*
Y10328*
X52201*
Y10498*
X52144Y10554*
X52201Y10186D02*
G01X51861D01*
X51974Y10073*
X51861Y9959*
X52201*
X51641Y9996D02*
G01Y9769D01*
X51301*
Y9996*
Y10138D02*
G01X51641D01*
Y10365*
Y10506D02*
G01X51301D01*
Y10733*
X51471Y10620D02*
G01Y10506D01*
X51641D02*
G01Y10733D01*
X51471Y9883D02*
G01Y9769D01*
X51358Y9628D02*
G01X51301Y9571D01*
Y9458*
X51358Y9401*
X51584*
X51641Y9458*
Y9571*
X51584Y9628*
Y9260D02*
G01X51641Y9203D01*
Y9090*
X51584Y9033*
X51358*
X51301Y9090*
Y9203*
X51358Y9260*
X51414Y8891D02*
G01X51641D01*
X51471D02*
G01Y8665D01*
X51414D02*
G01X51301Y8778D01*
X51414Y8891*
Y8665D02*
G01X51641D01*
X53159Y10087D02*
G01Y10427D01*
X53272Y10313*
X53385Y10427*
Y10087*
X53527D02*
G01X53697D01*
X53754Y10143*
Y10370*
X53697Y10427*
X53527*
Y10087*
X53895Y10143D02*
G01Y10370D01*
X53952Y10427*
X54065*
X54122Y10370*
X53895Y10143*
X53952Y10087*
X54065*
X54122Y10143*
Y10370*
X54264Y10427D02*
G01Y10257D01*
X54377Y10313*
X54434*
X54490Y10257*
Y10143*
X54434Y10087*
X54320*
X54264Y10143*
X54632D02*
G01X54689Y10087D01*
X54802*
X54859Y10143*
Y10200*
X54802Y10257*
X54745*
X54802D02*
G01X54859Y10313D01*
Y10370*
X54802Y10427*
X54689*
X54632Y10370*
X54490Y10427D02*
G01X54264D01*
X54331Y10691D02*
G01X54274Y10748D01*
X54331Y10691D02*
G01X54445D01*
X54501Y10748*
Y10805*
X54445Y10861*
X54331*
X54274Y10918*
Y10975*
X54331Y11032*
X54445*
X54501Y10975*
X54643D02*
G01Y10748D01*
X54699Y10691*
X54813*
X54870Y10748*
Y10975*
X54813Y11032*
X54699*
X54643Y10975*
X55011Y11032D02*
G01Y10691D01*
Y10805D02*
G01X55181D01*
X55238Y10861*
Y10975*
X55181Y11032*
X55011*
X55125Y10805D02*
G01X55238Y10691D01*
X55227Y10427D02*
G01X55114Y10370D01*
X55000Y10257*
X55170*
X55227Y10200*
Y10143*
X55170Y10087*
X55057*
X55000Y10143*
Y10257*
X54133Y10691D02*
G01Y11032D01*
X53906D02*
G01X54133Y10691D01*
X53906D02*
G01Y11032D01*
X53765D02*
G01X53538D01*
Y10691*
X53765*
X53651Y10861D02*
G01X53538D01*
X53396Y10805D02*
G01Y10748D01*
X53340Y10691*
X53226*
X53170Y10748*
X53226Y10861D02*
G01X53340D01*
X53396Y10805*
Y10975D02*
G01X53340Y11032D01*
X53226*
X53170Y10975*
Y10918*
X53226Y10861*
X53177Y11304D02*
G01Y11644D01*
X53347*
X53404Y11588*
Y11474*
X53347Y11418*
X53177*
X53546D02*
G01X53716D01*
X53772Y11474*
Y11588*
X53716Y11644*
X53546*
Y11304*
X53659Y11418D02*
G01X53772Y11304D01*
X53914D02*
G01X54141D01*
X54282Y11361D02*
G01X54339Y11304D01*
X54452*
X54509Y11361*
Y11418*
X54452Y11474*
X54339*
X54282Y11531*
Y11588*
X54339Y11644*
X54452*
X54509Y11588*
X54651D02*
G01Y11531D01*
X54707Y11474*
X54821*
X54877Y11418*
Y11361*
X54821Y11304*
X54707*
X54651Y11361*
Y11588D02*
G01X54707Y11644D01*
X54821*
X54877Y11588*
X55019Y11644D02*
G01Y11361D01*
X55076Y11304*
X55189*
X55246Y11361*
Y11644*
X55387D02*
G01X55557D01*
X55614Y11588*
Y11474*
X55557Y11418*
X55387*
X55501D02*
G01X55614Y11304D01*
X55755D02*
G01Y11644D01*
X55982*
X55869Y11474D02*
G01X55755D01*
Y11304D02*
G01X55982D01*
X55387D02*
G01Y11644D01*
X54141D02*
G01X53914D01*
Y11304*
Y11474D02*
G01X54027D01*
X51471Y12716D02*
G01Y12829D01*
X50071Y16504D02*
G01X49571D01*
X49321Y16754*
X49071Y16504*
X48571*
X48321Y16754*
X48071Y16504*
X47571*
X47321Y16754*
Y17254*
X47571Y17504*
X48071*
X48321Y17254*
X48571Y17504*
X49071*
X49321Y17254*
X49571Y17504*
X50071*
X50321Y17254*
Y16754*
X50071Y16504*
X49321Y16754D02*
G01Y17254D01*
X48321D02*
G01Y16754D01*
X46255Y17139D02*
G01X45914D01*
Y17309*
X45971Y17366*
X46084*
X46141Y17309*
Y17139*
X46084Y16997D02*
G01X46141Y16941D01*
Y16827*
X46084Y16771*
X45858Y16997*
X46084*
X45858D02*
G01X45801Y16941D01*
Y16827*
X45858Y16771*
X46084*
X45858Y16629D02*
G01X45801D01*
Y16402*
Y16204D02*
G01X45971Y16034D01*
Y16261*
X46141Y16204D02*
G01X45801D01*
X46084Y16402D02*
G01X46141D01*
X46084D02*
G01X45858Y16629D01*
X45141Y16586D02*
G01X44914Y16813D01*
X44858*
X44801Y16756*
Y16643*
X44858Y16586*
X45084Y16459D02*
G01Y16402D01*
X45141*
Y16459*
X45084*
X45141Y16586D02*
G01Y16813D01*
X45084Y16955D02*
G01X44914D01*
X45084D02*
G01X45141Y17011D01*
Y17182*
X44914*
X44971Y17323D02*
G01Y17436D01*
X45141Y17323D02*
G01X44801D01*
Y17550*
X45801Y17621D02*
G01X45858Y17564D01*
X46141*
X45971Y17507D02*
G01Y17621D01*
X45141Y16261D02*
G01Y16034D01*
X44914Y16261*
X44858*
X44801Y16204*
Y16091*
X44858Y16034*
X44141D02*
G01Y16261D01*
Y16147D02*
G01X43801D01*
X43914Y16034*
X43858Y16402D02*
G01X43801Y16459D01*
Y16572*
X43858Y16629*
X44084Y16402*
X44141Y16459*
Y16572*
X44084Y16629*
X43858*
Y16402D02*
G01X44084D01*
X43141Y16445D02*
G01Y16218D01*
Y16331D02*
G01X42801D01*
X42914Y16218*
X43084Y16091D02*
G01X43141D01*
Y16034*
X43084*
Y16091*
Y16586D02*
G01X43141Y16643D01*
Y16813*
X42914*
X42971Y16955D02*
G01Y17068D01*
X42858Y17011D02*
G01X42801Y17068D01*
X42858Y17011D02*
G01X43141D01*
X43084Y16586D02*
G01X42914D01*
X42141Y16643D02*
G01X42084Y16586D01*
X41914*
Y16813D02*
G01X42141D01*
Y16643*
Y16445D02*
G01Y16218D01*
Y16331D02*
G01X41801D01*
X41914Y16218*
X42084Y16091D02*
G01X42141D01*
Y16034*
X42084*
Y16091*
X41141Y16034D02*
G01X40914Y16261D01*
X40858*
X40801Y16204*
Y16091*
X40858Y16034*
X41141D02*
G01Y16261D01*
Y16402D02*
G01X40914Y16629D01*
X40858*
X40801Y16572*
Y16459*
X40858Y16402*
X41141D02*
G01Y16629D01*
X41084Y16771D02*
G01X40858D01*
X40801Y16827*
Y16941*
X40858Y16997*
X41084Y16771*
X41141Y16827*
Y16941*
X41084Y16997*
X40858*
X41801Y17068D02*
G01X41858Y17011D01*
X42141*
X41971Y16955D02*
G01Y17068D01*
X33921Y19254D02*
G01X33671Y19004D01*
X33171*
X32921Y19254*
X32671Y19004*
X32171*
X31921Y19254*
X31671Y19004*
X31171*
X30921Y19254*
Y19754*
X31171Y20004*
X31671*
X31921Y19754*
X32171Y20004*
X32671*
X32921Y19754*
X33171Y20004*
X33671*
X33921Y19754*
Y19254*
X32921D02*
G01Y19754D01*
X31921D02*
G01Y19254D01*
X49564Y7397D02*
G01X49678Y7227D01*
X49791Y7397*
Y7227D02*
G01X49451D01*
X49508Y7086D02*
G01X49734Y6859D01*
X49791Y6915*
Y7029*
X49734Y7086*
X49508*
X49451Y7029*
Y6915*
X49508Y6859*
X49734*
X49791Y6717D02*
G01Y6490D01*
Y6604D02*
G01X49451D01*
X49564Y6490*
X55851Y4617D02*
G01Y4391D01*
X55908Y4334*
X56021*
X56078Y4391*
Y4504*
X55965*
X56078Y4617D02*
G01X56021Y4674D01*
X55908*
X55851Y4617*
X56219Y4674D02*
G01Y4334D01*
X56446D02*
G01X56219Y4674D01*
X56446D02*
G01Y4334D01*
X56588D02*
G01X56758D01*
X56815Y4391*
Y4617*
X56758Y4674*
X56588*
Y4334*
X56488Y3674D02*
G01Y3447D01*
X56601Y3334*
X56715Y3447*
Y3674*
X56346D02*
G01X56119D01*
Y3504*
X56233Y3561*
X56290*
X56346Y3504*
Y3391*
X56290Y3334*
X56176*
X56119Y3391*
X55978Y3504D02*
G01X55751D01*
X55865Y3617D02*
G01Y3391D01*
G54D73*
X55621Y3004D02*
G01X49621D01*
Y4004*
X55621*
Y3004*
Y2004*
X49621*
Y3004*
X55621*
Y4004D02*
G01X49621D01*
Y5004*
X55621*
Y4004*
X56421Y5254D02*
G01Y6254D01*
X50421*
Y5254*
X56421*
X51171Y8754D02*
G01Y9254D01*
X50921Y9504*
X51171Y9754*
Y10254*
X50921Y10504*
X51171Y10754*
Y11254*
X50921Y11504*
X51171Y11754*
Y12254*
X50921Y12504*
X51171Y12754*
Y13254*
X50921Y13504*
X50421*
X50171Y13254*
Y12754*
X50421Y12504*
X50171Y12254*
Y11754*
X50421Y11504*
X50171Y11254*
Y10754*
X50421Y10504*
X50171Y10254*
Y9754*
X50421Y9504*
X50171Y9254*
Y8754*
X50421Y8504*
X50921*
X51171Y8754*
X46254Y7290D02*
G01Y6779D01*
X45112*
Y7290*
X46254*
X44296Y9629D02*
G01X44046D01*
X44296D02*
G01Y9854D01*
X41796Y9629D02*
G01X41546D01*
Y9854*
Y12154D02*
G01Y12379D01*
X41771*
X40921Y12504D02*
G01X40923Y12535D01*
X40929Y12566*
X40939Y12596*
X40952Y12624*
X40969Y12651*
X40989Y12675*
X41012Y12697*
X41037Y12715*
X41065Y12730*
X41094Y12742*
X41124Y12750*
X41155Y12754*
X41187*
X41218Y12750*
X41248Y12742*
X41277Y12730*
X41305Y12715*
X41330Y12697*
X41353Y12675*
X41373Y12651*
X41390Y12624*
X41403Y12596*
X41413Y12566*
X41419Y12535*
X41421Y12504*
X41419Y12473*
X41413Y12442*
X41403Y12412*
X41390Y12384*
X41373Y12357*
X41353Y12333*
X41330Y12311*
X41305Y12293*
X41277Y12278*
X41248Y12266*
X41218Y12258*
X41187Y12254*
X41155*
X41124Y12258*
X41094Y12266*
X41065Y12278*
X41037Y12293*
X41012Y12311*
X40989Y12333*
X40969Y12357*
X40952Y12384*
X40939Y12412*
X40929Y12442*
X40923Y12473*
X40921Y12504*
X44071Y12379D02*
G01X44271D01*
Y12179*
X50421Y15004D02*
G01Y16004D01*
X56421*
Y15004*
X50421*
X47571Y17904D02*
G01X55571D01*
Y18904*
X47571*
Y17904*
X47021D02*
G01Y18904D01*
X39021*
Y17904*
X47021*
Y18904D02*
G01Y19904D01*
X39021*
Y18904*
X47021*
X47571D02*
G01X55571D01*
Y19904*
X47571*
Y18904*
X38863Y18592D02*
G01Y18358D01*
X38805Y18300*
X38630*
Y18650*
X38805*
X38863Y18592*
X38495Y18650D02*
G01Y18300D01*
X38261Y18650*
Y18300*
X38126Y18358D02*
G01Y18475D01*
X38010*
X38126Y18592D02*
G01X38068Y18650D01*
X37951*
X37893Y18592*
Y18358*
X37951Y18300*
X38068*
X38126Y18358*
X34644Y10403D02*
G01X34419D01*
X34344Y10327*
X34419Y10252*
X34644*
Y10102D02*
G01X34344D01*
Y10177*
X34419Y10252*
Y9942D02*
G01X34644D01*
Y9792D02*
G01X34419D01*
X34344Y9867*
X34419Y9942*
Y9792D02*
G01X34344Y9717D01*
Y9642*
X34644*
X34569Y9482D02*
G01X34419D01*
X34344Y9407*
Y9332*
X34419Y9182*
X34194*
Y9482*
X34569D02*
G01X34644Y9407D01*
Y9257*
X34569Y9182*
Y9025D02*
G01Y8950D01*
X34644*
Y9025*
X34569*
X34644D02*
G01X34794Y8875D01*
X34569Y8715D02*
G01X34644Y8640D01*
Y8489*
X34569Y8414*
X34419Y8564D02*
G01Y8640D01*
X34494Y8715*
X34569*
X34419Y8640D02*
G01X34344Y8715D01*
X34269*
X34194Y8640*
Y8489*
X34269Y8414*
X42621Y3004D02*
G01Y2004D01*
X48621*
Y3004*
X42621*
G54D33*
X44673Y5157D02*
G01Y5551D01*
X44476Y5354D02*
G01X44870D01*
X47717Y5493D02*
G01X48111D01*
X47914Y5689D02*
G01Y5296D01*
G54D34*
X48010Y14148D02*
G01X48290D01*
X48470D02*
G01X48750D01*
X48930D02*
G01X49211D01*
X49391Y14218D02*
G01X49461Y14148D01*
X49601*
X49671Y14218*
X49391D02*
G01Y14498D01*
X49461Y14568*
X49601*
X49671Y14498*
X49851Y14568D02*
G01X50131D01*
X49991D02*
G01Y14148D01*
X49211Y14568D02*
G01X48930D01*
Y14148*
Y14358D02*
G01X49070D01*
X49017Y14799D02*
G01Y15220D01*
X49297Y14799*
Y15220*
X48850D02*
G01X48710D01*
X48780D02*
G01Y14799D01*
X48710D02*
G01X48850D01*
X48530Y15010D02*
G01Y15150D01*
X48460Y15220*
X48250*
Y14799*
Y14939D02*
G01X48460D01*
X48530Y15010*
X48470Y14568D02*
G01Y14148D01*
X48150Y14358D02*
G01X48010D01*
X47830Y14288D02*
G01Y14218D01*
X47759Y14148*
X47619*
X47549Y14218*
X47619Y14358D02*
G01X47759D01*
X47830Y14288*
Y14498D02*
G01X47759Y14568D01*
X47619*
X47549Y14498*
Y14428*
X47619Y14358*
X48010Y14568D02*
G01Y14148D01*
Y14568D02*
G01X48290D01*
X37470Y19344D02*
G01Y19764D01*
X37330D02*
G01X37610D01*
X37150D02*
G01Y19414D01*
X37080Y19344*
X36940*
X36870Y19414*
Y19764*
X36690Y19694D02*
G01X36620Y19764D01*
X36479*
X36409Y19694*
Y19414*
X36479Y19344*
X36620*
X36690Y19414*
Y19694*
X35769Y19764D02*
G01X35489D01*
Y19344*
X35769*
X35629Y19554D02*
G01X35489D01*
X35309Y19344D02*
G01Y19764D01*
X35028D02*
G01X35309Y19344D01*
X35028D02*
G01Y19764D01*
X34862D02*
G01X34721D01*
X34791D02*
G01Y19344D01*
X34721D02*
G01X34862D01*
X34541D02*
G01X34261D01*
Y19764*
X33896Y20420D02*
G01Y20740D01*
X33736Y20580D02*
G01X34056D01*
X33541D02*
G01X33461Y20500D01*
X33220*
Y20340D02*
G01Y20820D01*
X33461*
X33541Y20740*
Y20580*
X33380Y20500D02*
G01X33541Y20340D01*
X32584Y20491D02*
G01X32264D01*
X31877Y20527D02*
G01X31557D01*
X31717Y20687D02*
G01Y20367D01*
X31362Y20287D02*
G01X31042D01*
Y20767*
G54D29*
X37892Y18864D02*
G01X55570D01*
X49811Y16170D02*
G01Y15610D01*
X49624D02*
G01X49998D01*
X49624Y15984D02*
G01X49811Y16170D01*
X47957Y15886D02*
G01X47583D01*
X47863Y16167*
Y15606*
X49671Y5004D02*
G01X56921D01*
Y4004D02*
G01X49671D01*
G54D35*
X41909Y1640D02*
G01Y1150D01*
X41582D02*
G01Y1640D01*
X41746Y1477*
X41909Y1640*
X41393Y1559D02*
G01X41312Y1640D01*
X41148*
X41067Y1559*
Y1232*
X41148Y1150*
X41312*
X41393Y1232*
Y1559*
X40878D02*
G01X40796Y1640D01*
X40633*
X40551Y1559*
Y1232*
X40633Y1150*
X40796*
X40878Y1232*
X40375D02*
G01Y1150D01*
X40293*
Y1232*
X40375*
X40104Y1150D02*
G01X39777D01*
Y1640*
X40104*
X39941Y1395D02*
G01X39777D01*
X39589Y1232D02*
G01X39507Y1150D01*
X39344*
X39262Y1232*
Y1559*
X39344Y1640*
X39507*
X39589Y1559*
X39082Y1640D02*
G01X38918D01*
X39000D02*
G01Y1150D01*
X38918D02*
G01X39082D01*
X38729Y1313D02*
G01Y1640D01*
X38402D02*
G01Y1313D01*
X38566Y1150*
X38729Y1313*
X38214Y1150D02*
G01X37887D01*
Y1640*
X38214*
X38050Y1395D02*
G01X37887D01*
X37698Y1232D02*
G01Y1559D01*
X37616Y1640*
X37371*
Y1150*
X37616*
X37698Y1232*
X37183Y1150D02*
G01Y1640D01*
X36856D02*
G01X37183Y1150D01*
X36856D02*
G01Y1640D01*
X36667Y1559D02*
G01Y1395D01*
X36585Y1313*
X36340*
Y1150D02*
G01Y1640D01*
X36585*
X36667Y1559*
X36503Y1313D02*
G01X36667Y1150D01*
X36151D02*
G01X35824D01*
Y1640*
X36151*
X35988Y1395D02*
G01X35824D01*
X35636Y1232D02*
G01X35554Y1150D01*
X35309*
Y1640*
X35554*
X35636Y1559*
Y1232*
X35120D02*
G01Y1559D01*
X35038Y1640*
X34875*
X34793Y1559*
Y1232*
X34875Y1150*
X35038*
X35120Y1232*
X34604Y1150D02*
G01Y1640D01*
X34441Y1477*
X34277Y1640*
Y1150*
G54D36*
X34192Y12597D02*
G01X34065D01*
X33938Y12724*
Y12978*
X34065Y13105*
X34319Y12978D02*
G01X34445Y13105D01*
X34572*
X34699Y12978*
Y12724*
X34572Y12597*
X34319Y12724D02*
G01Y12978D01*
Y12724D02*
G01X34192Y12597D01*
X34319Y13426D02*
G01Y13933D01*
X34699D02*
G01X33938D01*
Y14255D02*
G01Y14508D01*
Y14382D02*
G01X34699D01*
Y14508D02*
G01Y14255D01*
Y14807D02*
G01X33938D01*
Y15314*
X34319Y15061D02*
G01Y14807D01*
X34699D02*
G01Y15314D01*
Y15636D02*
G01X33938D01*
X34699D02*
G01Y16143D01*
Y16465D02*
G01X33938D01*
Y16845*
X34065Y16972*
X34572*
X34699Y16845*
Y16465*
X33190Y16466D02*
G01X32430D01*
X32810D02*
G01Y15959D01*
X33190D02*
G01X32430D01*
Y15637D02*
G01Y15130D01*
Y15384D02*
G01X33190D01*
Y14809D02*
G01X32430D01*
Y14302D02*
G01X33190Y14809D01*
Y14302D02*
G01X32430D01*
Y13980D02*
G01X32556D01*
X32810Y13726*
X33190*
X32810D02*
G01X32556Y13473D01*
X32430*
X32556Y13151D02*
G01X32430Y13025D01*
Y12771*
X32556Y12644*
X32683*
X32810Y12771*
Y13025*
X32937Y13151*
X33063*
X33190Y13025*
Y12771*
X33063Y12644*
X33938Y13426D02*
G01X34699D01*
X31637Y13466D02*
G01Y13974D01*
X31510Y14295D02*
G01X30876D01*
Y14802D02*
G01X31510D01*
X31637Y14676*
Y14422*
X31510Y14295*
X31637Y15124D02*
G01X30876Y15631D01*
X31130Y15953D02*
G01X30876Y16206D01*
X31130Y16460*
X31637*
Y16781D02*
G01X30876D01*
X31130Y17035*
X30876Y17288*
X31637*
Y17610D02*
G01X31130D01*
X30876Y17864*
X31130Y18117*
X31637*
X31257D02*
G01Y17610D01*
Y16460D02*
G01Y15953D01*
X31130D02*
G01X31637D01*
Y15631D02*
G01X30876Y15124D01*
Y13466D02*
G01X31637D01*
X30876Y13145D02*
G01Y12638D01*
X31637*
X31257D02*
G01Y12891D01*
G54D31*
X32021Y12504D02*
G01Y18504D01*
X33621D02*
G01Y12504D01*
X35121D02*
G01Y18504D01*
X34121Y2004D02*
G01X41921D01*
G54D37*
X41971Y2321D02*
G01X41664D01*
X41817D02*
G01Y2782D01*
X41664Y2628*
X41510Y2398D02*
G01Y2321D01*
X41434*
Y2398*
X41510*
X41280Y2321D02*
G01X40973D01*
X41280Y2628*
Y2705*
X41203Y2782*
X41050*
X40973Y2705*
X40820Y2398D02*
G01Y2321D01*
X40743*
Y2398*
X40820*
X40590Y2475D02*
G01X40436Y2321D01*
X40283Y2475*
Y2782*
X40129D02*
G01X39822D01*
Y2321*
X40129*
X39976Y2552D02*
G01X39822D01*
X39669D02*
G01X39592Y2475D01*
X39362*
X39516D02*
G01X39669Y2321D01*
Y2552D02*
G01Y2705D01*
X39592Y2782*
X39362*
Y2321*
X40590Y2475D02*
G01Y2782D01*
X41711Y12784D02*
G01Y12971D01*
X41804Y13064*
X41898Y12971*
Y12784*
Y12924D02*
G01X41711D01*
X42006Y13064D02*
G01X42193D01*
X42099D02*
G01Y12784D01*
X42300Y12831D02*
G01X42347Y12784D01*
X42441*
X42487Y12831*
Y12877*
X42441Y12924*
X42347*
X42300Y12971*
Y13017*
X42347Y13064*
X42441*
X42487Y13017*
X42595Y12971D02*
G01Y12784D01*
Y12924D02*
G01X42782D01*
Y12971D02*
G01Y12784D01*
X42890D02*
G01Y13064D01*
X42983Y12971*
X43076Y13064*
Y12784*
X43184D02*
G01X43371Y12971D01*
Y13017*
X43324Y13064*
X43231*
X43184Y13017*
Y12784D02*
G01X43371D01*
X43479D02*
G01X43666D01*
X43572D02*
G01Y13064D01*
X43479Y12971*
X43774D02*
G01X43820Y12924D01*
X43960*
Y12831D02*
G01Y13017D01*
X43914Y13064*
X43820*
X43774Y13017*
Y12971*
Y12831D02*
G01X43820Y12784D01*
X43914*
X43960Y12831*
X44068D02*
G01X44115Y12784D01*
X44208*
X44255Y12831*
Y12924*
X44208Y12971*
X44162*
X44068Y12924*
Y13064*
X44255*
X42782Y12971D02*
G01X42688Y13064D01*
X42595Y12971*
G54D38*
X29921Y21504D02*
G01Y504D01*
X56121*
Y1484*
X56131*
X57141Y2494*
Y15424*
X56121Y16444*
Y20834*
X55451Y21504*
X29921*
X31189Y11433D02*
G01X31191Y11467D01*
X31197Y11501*
X31207Y11534*
X31220Y11565*
X31238Y11595*
X31258Y11623*
X31282Y11648*
X31308Y11670*
X31336Y11688*
X31367Y11704*
X31399Y11716*
X31433Y11724*
X31467Y11728*
X31501*
X31535Y11724*
X31569Y11716*
X31601Y11704*
X31631Y11688*
X31660Y11670*
X31686Y11648*
X31710Y11623*
X31730Y11595*
X31748Y11565*
X31761Y11534*
X31771Y11501*
X31777Y11467*
X31779Y11433*
X31777Y11399*
X31771Y11365*
X31761Y11332*
X31748Y11301*
X31730Y11271*
X31710Y11243*
X31686Y11218*
X31660Y11196*
X31632Y11178*
X31601Y11162*
X31569Y11150*
X31535Y11142*
X31501Y11138*
X31467*
X31433Y11142*
X31399Y11150*
X31367Y11162*
X31336Y11178*
X31308Y11196*
X31282Y11218*
X31258Y11243*
X31238Y11271*
X31220Y11301*
X31207Y11332*
X31197Y11365*
X31191Y11399*
X31189Y11433*
X33158Y9465D02*
G01X33160Y9499D01*
X33166Y9533*
X33176Y9566*
X33189Y9597*
X33207Y9627*
X33227Y9655*
X33251Y9680*
X33277Y9702*
X33305Y9720*
X33336Y9736*
X33368Y9748*
X33402Y9756*
X33436Y9760*
X33470*
X33504Y9756*
X33538Y9748*
X33570Y9736*
X33600Y9720*
X33629Y9702*
X33655Y9680*
X33679Y9655*
X33699Y9627*
X33717Y9597*
X33730Y9566*
X33740Y9533*
X33746Y9499*
X33748Y9465*
X33746Y9431*
X33740Y9397*
X33730Y9364*
X33717Y9333*
X33699Y9303*
X33679Y9275*
X33655Y9250*
X33629Y9228*
X33601Y9210*
X33570Y9194*
X33538Y9182*
X33504Y9174*
X33470Y9170*
X33436*
X33402Y9174*
X33368Y9182*
X33336Y9194*
X33305Y9210*
X33277Y9228*
X33251Y9250*
X33227Y9275*
X33207Y9303*
X33189Y9333*
X33176Y9364*
X33166Y9397*
X33160Y9431*
X33158Y9465*
X31189Y7496D02*
G01X31191Y7530D01*
X31197Y7564*
X31207Y7597*
X31220Y7628*
X31238Y7658*
X31258Y7686*
X31282Y7711*
X31308Y7733*
X31336Y7751*
X31367Y7767*
X31399Y7779*
X31433Y7787*
X31467Y7791*
X31501*
X31535Y7787*
X31569Y7779*
X31601Y7767*
X31631Y7751*
X31660Y7733*
X31686Y7711*
X31710Y7686*
X31730Y7658*
X31748Y7628*
X31761Y7597*
X31771Y7564*
X31777Y7530*
X31779Y7496*
X31777Y7462*
X31771Y7428*
X31761Y7395*
X31748Y7364*
X31730Y7334*
X31710Y7306*
X31686Y7281*
X31660Y7259*
X31632Y7241*
X31601Y7225*
X31569Y7213*
X31535Y7205*
X31501Y7201*
X31467*
X31433Y7205*
X31399Y7213*
X31367Y7225*
X31336Y7241*
X31308Y7259*
X31282Y7281*
X31258Y7306*
X31238Y7334*
X31220Y7364*
X31207Y7395*
X31197Y7428*
X31191Y7462*
X31189Y7496*
G54D40*
X46478Y20943D02*
G01X46429Y20991D01*
Y21040*
X46478Y21088*
X46575*
X46623Y21040*
Y20991*
X46575Y20943*
X46478*
Y21088D02*
G01X46429Y21136D01*
Y21185*
X46478Y21233*
X46575*
X46623Y21185*
Y21136*
X46575Y21088*
X45623Y21078D02*
G01X45478D01*
X45429Y21126*
Y21175*
X45478Y21223*
X45575*
X45623Y21175*
Y20981*
X45575Y20933*
X45478*
X45429Y20981*
X44753D02*
G01X44705Y20933D01*
X44608*
X44559Y20981*
X44753Y21175*
Y20981*
X44559D02*
G01Y21175D01*
X44608Y21223*
X44705*
X44753Y21175*
X44362Y21223D02*
G01Y20933D01*
X44458D02*
G01X44265D01*
Y21126D02*
G01X44362Y21223D01*
X43753Y20943D02*
G01X43559D01*
X43656D02*
G01Y21233D01*
X43559Y21136*
X43458Y20943D02*
G01X43265D01*
X43362D02*
G01Y21233D01*
X43265Y21136*
X42753D02*
G01X42559Y20943D01*
X42753*
Y21136D02*
G01Y21185D01*
X42705Y21233*
X42608*
X42559Y21185*
X42362Y21233D02*
G01X42265Y21136D01*
X42362Y21233D02*
G01Y20943D01*
X42458D02*
G01X42265D01*
X41753Y20971D02*
G01X41705Y20923D01*
X41608*
X41559Y20971*
X41458Y20923D02*
G01X41265D01*
X41362D02*
G01Y21213D01*
X41265Y21116*
X41559Y21165D02*
G01X41608Y21213D01*
X41705*
X41753Y21165*
Y21116*
X41705Y21068*
X41753Y21020*
Y20971*
X41705Y21068D02*
G01X41656D01*
X40883Y21126D02*
G01X40738D01*
X40689Y21078*
Y20981*
X40738Y20933*
X40883*
Y21223*
X40588Y21078D02*
G01Y20933D01*
Y21078D02*
G01X40540Y21126D01*
X40395*
Y20933*
X40294D02*
G01X40149D01*
X40100Y20981*
Y21078*
X40149Y21126*
X40294*
Y20885*
X40245Y20836*
X40197*
X39742Y20931D02*
G01Y21173D01*
X39790Y21221*
Y21076D02*
G01X39694D01*
X39592D02*
G01Y21028D01*
X39399*
Y21076D02*
G01X39447Y21124D01*
X39544*
X39592Y21076*
X39544Y20931D02*
G01X39447D01*
X39399Y20979*
Y21076*
X39298D02*
G01X39249Y21028D01*
X39104*
Y20931D02*
G01Y21221D01*
X39249*
X39298Y21173*
Y21076*
X39201Y21028D02*
G01X39298Y20931D01*
X39003D02*
G01Y21124D01*
X38906Y21221*
X38810Y21124*
Y20931*
Y21076D02*
G01X39003D01*
X48059Y20961D02*
G01Y20913D01*
Y20961D02*
G01X48253Y21155D01*
Y21203*
X48059*
X48969Y21088D02*
G01X49115D01*
X49163Y21040*
Y20991*
X49115Y20943*
X49018*
X48969Y20991*
Y21088*
X49066Y21185*
X49163Y21233*
X49979Y21213D02*
G01Y21068D01*
X50076Y21116*
X50125*
X50173Y21068*
Y20971*
X50125Y20923*
X50028*
X49979Y20971*
Y21213D02*
G01X50173D01*
X50939Y21068D02*
G01X51133D01*
X51085Y20923D02*
G01Y21213D01*
X50939Y21068*
X51979Y20971D02*
G01X52028Y20923D01*
X52125*
X52173Y20971*
Y21020*
X52125Y21068*
X52076*
X52125D02*
G01X52173Y21116D01*
Y21165*
X52125Y21213*
X52028*
X51979Y21165*
X52959Y21155D02*
G01X53008Y21203D01*
X53105*
X53153Y21155*
Y21106*
X52959Y20913*
X53153*
X53969D02*
G01X54163D01*
X54066D02*
G01Y21203D01*
X53969Y21106*
X54989Y21165D02*
G01X55038Y21213D01*
X55135*
X55183Y21165*
X54989Y20971*
X55038Y20923*
X55135*
X55183Y20971*
Y21165*
X54989D02*
G01Y20971D01*
X53185Y1081D02*
G01X53234Y1033D01*
Y984*
X53185Y936*
X53234Y888*
Y839*
X53185Y791*
X53088*
X53040Y839*
X53137Y936D02*
G01X53185D01*
Y1081D02*
G01X53088D01*
X53040Y1033*
X52224Y1053D02*
G01X52175Y1101D01*
X52078*
X52030Y1053*
X52224D02*
G01Y1004D01*
X52030Y811*
X52224*
X51244Y791D02*
G01X51050D01*
X51147D02*
G01Y1081D01*
X51050Y984*
X50214Y1033D02*
G01Y839D01*
X50165Y791*
X50068*
X50020Y839*
X50214Y1033*
X50165Y1081*
X50068*
X50020Y1033*
Y839*
X48493Y898D02*
G01Y753D01*
Y898D02*
G01X48445Y946D01*
X48299*
Y753*
X48200D02*
G01X48103D01*
X48151D02*
G01Y946D01*
X48103*
X48151Y1043D02*
G01Y1092D01*
X48002Y1043D02*
G01Y850D01*
X47905Y753*
X47808Y850*
Y1043*
X46943Y1061D02*
G01Y771D01*
X46798*
X46749Y819*
Y916*
X46798Y964*
X46943*
X46648Y916D02*
G01Y771D01*
Y916D02*
G01X46600Y964D01*
X46455*
Y771*
X46354Y819D02*
G01Y916D01*
X46257*
X46354Y819D02*
G01X46305Y771D01*
X46208*
X46160Y819*
Y1013*
X46208Y1061*
X46305*
X46354Y1013*
X45413Y976D02*
G01X45316Y783D01*
X45219Y976*
X45118Y928D02*
G01Y831D01*
X45070Y783*
X44973*
X44925Y831*
Y928D02*
G01X45022Y976D01*
X45070*
X45118Y928*
Y1073D02*
G01X44925D01*
Y928*
X44343Y986D02*
G01X44246Y793D01*
X44149Y986*
X44048D02*
G01X44000Y938D01*
X44048Y890*
Y841*
X44000Y793*
X43903*
X43855Y841*
X43952Y938D02*
G01X44000D01*
X44048Y986D02*
G01Y1035D01*
X44000Y1083*
X43903*
X43855Y1035*
X43479Y1081D02*
G01X43285D01*
X43382D02*
G01Y791D01*
X43184Y839D02*
G01X43136Y791D01*
X43039*
X42991Y839*
X43039Y936D02*
G01X43136D01*
X43184Y888*
Y839*
X43039Y936D02*
G01X42991Y984D01*
Y1033*
X43039Y1081*
X43136*
X43184Y1033*
X42890D02*
G01X42841Y1081D01*
X42696*
Y791*
Y888D02*
G01X42841D01*
X42890Y936*
Y1033*
X42793Y888D02*
G01X42890Y791D01*
X54020Y926D02*
G01X54214D01*
X54165Y781D02*
G01Y1071D01*
X54020Y926*
X55020D02*
G01X55117Y974D01*
X55165*
X55214Y926*
Y829*
X55165Y781*
X55068*
X55020Y829*
Y926D02*
G01Y1071D01*
X55214*
G54D10*
X33621Y3004D02*
G01X33521D01*
Y3954*
X33621*
X31321Y4004D02*
G01Y3004D01*
X31221*
Y4004D02*
G01X31321D01*
G54D28*
X15866Y22543D02*
G01X15885D01*
X17901Y23504D02*
G01X18001D01*
X22801Y24504D02*
G01X22901D01*
Y24404*
X23701Y27754D02*
G01X26201D01*
X28701*
X26201D02*
G01Y30754D01*
X25685Y30798D02*
G01Y32976D01*
X25714*
Y33006*
X25729Y32991D02*
G01X29010D01*
Y30798*
X25685*
X26201Y33004D02*
G01Y35504D01*
X28701*
X26201D02*
G01X23701D01*
X22090Y36885D02*
G01X21001D01*
X21553Y36870D02*
G01Y36452D01*
X21840Y40404D02*
G01X21901D01*
X18401D02*
G01X18301D01*
X16401D02*
G01X16301D01*
X25701Y40304D02*
G01X25859Y40343D01*
X19201Y32204D02*
G01X19001D01*
Y31804D02*
G01X19151D01*
G54D71*
X22901Y25504D02*
G01X28001D01*
X27901Y24504D02*
G01X22901D01*
Y23404D02*
G01Y22604D01*
X23901D02*
G01Y23504D01*
X24901D02*
G01Y22604D01*
X25901Y22504D02*
G01Y23504D01*
X26901D02*
G01Y22504D01*
X27901D02*
G01Y23504D01*
X20901Y23404D02*
G01Y22504D01*
X19901D02*
G01Y23604D01*
X18901Y23404D02*
G01Y22404D01*
X17901Y22504D02*
G01Y23504D01*
X16901D02*
G01Y22504D01*
X15885Y22543D02*
G01Y23564D01*
X12401Y39404D02*
G01X27901D01*
X27840Y40404D02*
G01Y41404D01*
X26840Y41465D02*
G01Y40465D01*
X25859Y40343D02*
G01Y41543D01*
X24840Y41504D02*
G01Y40404D01*
X23859D02*
G01Y41504D01*
X22859D02*
G01Y40404D01*
X21840D02*
G01Y41504D01*
X20859D02*
G01Y40404D01*
X19301D02*
G01Y41504D01*
X18301D02*
G01Y40404D01*
X17301Y40304D02*
G01Y41504D01*
X16301D02*
G01Y40404D01*
X15301D02*
G01Y41504D01*
X14301D02*
G01Y40404D01*
X13301D02*
G01Y41404D01*
X12301Y41604D02*
G01Y40404D01*
G54D72*
X9358Y38417D02*
G01X9131Y38191D01*
X9188Y38134*
X9301*
X9358Y38191*
Y38417*
X9301Y38474*
X9188*
X9131Y38417*
Y38191*
X9340Y36424D02*
G01X9284Y36367D01*
X9340Y36424D02*
G01X9454D01*
X9510Y36367*
Y36311*
X9454Y36254*
X9510Y36197*
Y36141*
X9454Y36084*
X9340*
X9284Y36141*
X9156D02*
G01Y36084D01*
X9099*
Y36141*
X9156*
X8958D02*
G01X8901Y36084D01*
X8788*
X8731Y36141*
X8845Y36254D02*
G01X8901D01*
X8958Y36197*
Y36141*
X8901Y36254D02*
G01X8958Y36311D01*
Y36367*
X8901Y36424*
X8788*
X8731Y36367*
X9397Y36254D02*
G01X9454D01*
X9652Y36197D02*
G01X9822Y36084D01*
X9652D02*
G01Y36424D01*
X9822Y36311D02*
G01X9652Y36197D01*
X9638Y34424D02*
G01X9524D01*
X9468Y34367*
Y34141*
X9695Y34367*
Y34141*
X9638Y34084*
X9524*
X9468Y34141*
X9326Y34084D02*
G01X9099D01*
X9326Y34311*
Y34367*
X9270Y34424*
X9156*
X9099Y34367*
X8958D02*
G01X8901Y34424D01*
X8788*
X8731Y34367*
X8958D02*
G01Y34311D01*
X8731Y34084*
X8958*
X9638Y34424D02*
G01X9695Y34367D01*
X7733Y32843D02*
G01Y28086D01*
X5983*
X5133D02*
G01X3118D01*
Y29265*
Y31665*
Y32843*
X6983*
X8531Y32367D02*
G01X8588Y32424D01*
X8701*
X8758Y32367*
Y32311*
X8531Y32084*
X8758*
X8899D02*
G01X8956D01*
Y32141*
X8899*
Y32084*
X9084D02*
G01X9310Y32311D01*
Y32367*
X9254Y32424*
X9140*
X9084Y32367*
Y32084D02*
G01X9310D01*
X9452Y32141D02*
G01X9509Y32084D01*
X9679*
Y32311*
X9820Y32254D02*
G01X9934D01*
X9820Y32424D02*
G01X10047D01*
X9820D02*
G01Y32084D01*
X9452Y32141D02*
G01Y32311D01*
X9254Y30424D02*
G01X9140D01*
X9084Y30367*
X9254Y30424D02*
G01X9310Y30367D01*
Y30311*
X9084Y30084*
X9310*
X9452Y30141D02*
G01X9509Y30084D01*
X9679*
Y30311*
X9820Y30254D02*
G01X9934D01*
X9820Y30424D02*
G01X10047D01*
X9820D02*
G01Y30084D01*
X9452Y30141D02*
G01Y30311D01*
X8956Y30141D02*
G01Y30084D01*
X8899*
Y30141*
X8956*
X8758Y30084D02*
G01X8531D01*
X8758Y30311*
Y30367*
X8701Y30424*
X8588*
X8531Y30367*
X8788Y28424D02*
G01X8731Y28367D01*
X8788Y28424D02*
G01X8901D01*
X8958Y28367*
Y28311*
X8731Y28084*
X8958*
X9099D02*
G01X9326Y28311D01*
Y28367*
X9270Y28424*
X9156*
X9099Y28367*
X9468D02*
G01Y28141D01*
X9695Y28367*
Y28141*
X9638Y28084*
X9524*
X9468Y28141*
X9326Y28084D02*
G01X9099D01*
X9468Y28367D02*
G01X9524Y28424D01*
X9638*
X9695Y28367*
X9652Y26424D02*
G01Y26084D01*
Y26197D02*
G01X9822Y26084D01*
X9652Y26197D02*
G01X9822Y26311D01*
X9510D02*
G01X9454Y26254D01*
X9510Y26197*
Y26141*
X9454Y26084*
X9340*
X9284Y26141*
X9156D02*
G01Y26084D01*
X9099*
Y26141*
X9156*
X8958D02*
G01Y26197D01*
X8901Y26254*
X8845*
X8901D02*
G01X8958Y26311D01*
Y26367*
X8901Y26424*
X8788*
X8731Y26367*
Y26141D02*
G01X8788Y26084D01*
X8901*
X8958Y26141*
X9284Y26367D02*
G01X9340Y26424D01*
X9454*
X9510Y26367*
Y26311*
X9454Y26254D02*
G01X9397D01*
X9468Y24424D02*
G01X9695D01*
X9581Y24254D02*
G01X9468D01*
X9326Y24311D02*
G01Y24084D01*
X9156*
X9099Y24141*
Y24311*
X8958Y24084D02*
G01X8731D01*
X8845D02*
G01Y24424D01*
X8731Y24311*
X9468Y24424D02*
G01Y24084D01*
X6401Y24004D02*
G01Y23654D01*
Y24004D02*
G01Y24954D01*
Y25354*
X5601Y25704D02*
G01X5501D01*
Y25804*
X4901*
Y25704*
X4801*
X4001Y25354D02*
G01Y25004D01*
Y24004*
Y23654*
X4801Y23304D02*
G01X4901D01*
Y23204*
X5501*
Y23304*
X5601*
X5101Y24504D02*
G01X5103Y24524D01*
X5109Y24542*
X5118Y24560*
X5130Y24575*
X5145Y24587*
X5163Y24596*
X5181Y24602*
X5201Y24604*
X5221Y24602*
X5239Y24596*
X5257Y24587*
X5272Y24575*
X5284Y24560*
X5293Y24542*
X5299Y24524*
X5301Y24504*
X5299Y24484*
X5293Y24466*
X5284Y24448*
X5272Y24433*
X5257Y24421*
X5239Y24412*
X5221Y24406*
X5201Y24404*
X5181Y24406*
X5163Y24412*
X5145Y24421*
X5130Y24433*
X5118Y24448*
X5109Y24466*
X5103Y24484*
X5101Y24504*
X4501D02*
G01X4503Y24556D01*
X4509Y24608*
X4519Y24660*
X4532Y24710*
X4549Y24760*
X4570Y24808*
X4595Y24854*
X4623Y24898*
X4654Y24940*
X4688Y24980*
X4725Y25017*
X4765Y25051*
X4807Y25082*
X4851Y25110*
X4897Y25135*
X4945Y25156*
X4995Y25173*
X5045Y25186*
X5097Y25196*
X5149Y25202*
X5201Y25204*
X5253Y25202*
X5305Y25196*
X5357Y25186*
X5407Y25173*
X5457Y25156*
X5505Y25135*
X5551Y25110*
X5595Y25082*
X5637Y25051*
X5677Y25017*
X5714Y24980*
X5748Y24940*
X5779Y24898*
X5807Y24854*
X5832Y24808*
X5853Y24760*
X5870Y24710*
X5883Y24660*
X5893Y24608*
X5899Y24556*
X5901Y24504*
X5899Y24452*
X5893Y24400*
X5883Y24348*
X5870Y24298*
X5853Y24248*
X5832Y24200*
X5807Y24154*
X5779Y24110*
X5748Y24068*
X5714Y24028*
X5677Y23991*
X5637Y23957*
X5595Y23926*
X5551Y23898*
X5505Y23873*
X5457Y23852*
X5407Y23835*
X5357Y23822*
X5305Y23812*
X5253Y23806*
X5201Y23804*
X5149Y23806*
X5097Y23812*
X5045Y23822*
X4995Y23835*
X4945Y23852*
X4897Y23873*
X4851Y23898*
X4807Y23926*
X4765Y23957*
X4725Y23991*
X4688Y24028*
X4654Y24068*
X4623Y24110*
X4595Y24154*
X4570Y24200*
X4549Y24248*
X4532Y24298*
X4519Y24348*
X4509Y24400*
X4503Y24452*
X4501Y24504*
X4425Y26534D02*
G01X4278Y26681D01*
X4351D02*
G01X4131D01*
Y26534D02*
G01Y26974D01*
X4351*
X4425Y26901*
Y26754*
X4351Y26681*
X4591Y26754D02*
G01X4738D01*
X4591Y26534D02*
G01X4885D01*
X5052Y26607D02*
G01X5125Y26534D01*
X5272*
X5345Y26607*
Y26681*
X5272Y26754*
X5125*
X5052Y26828*
Y26901*
X5125Y26974*
X5272*
X5345Y26901*
X5512Y26974D02*
G01Y26534D01*
X5806*
X5659Y26754D02*
G01X5512D01*
Y26974D02*
G01X5806D01*
X5973D02*
G01X6266D01*
X6119D02*
G01Y26534D01*
X4885Y26974D02*
G01X4591D01*
Y26534*
X3118Y29265D02*
G01X2036D01*
Y31665*
X1836Y31465*
Y29465*
X2036Y29265*
Y31665D02*
G01X3118D01*
X13481Y26836D02*
G01Y26722D01*
X13538Y26666*
X13764*
X13538Y26892*
X13764*
X13821Y26836*
Y26722*
X13764Y26666*
X13821Y26524D02*
G01Y26297D01*
Y26411D02*
G01X13481D01*
X13594Y26297*
X13481Y26836D02*
G01X13538Y26892D01*
X14481Y26902D02*
G01X14538Y26845D01*
X14821*
X14651Y26788D02*
G01Y26902D01*
X14594Y26647D02*
G01X14821D01*
Y26477*
X14764Y26420*
X14594*
X14821Y26279D02*
G01Y26052D01*
Y26165D02*
G01X14481D01*
X14594Y26052*
X14764Y25924D02*
G01X14821D01*
Y25868*
X14764*
Y25924*
X15481Y25797D02*
G01X15594Y25683D01*
X15481Y25797D02*
G01X15821D01*
Y25910D02*
G01Y25683D01*
X15764Y26052D02*
G01X15538D01*
X15481Y26108*
Y26222*
X15538Y26279*
X15764Y26052*
X15821Y26108*
Y26222*
X15764Y26279*
X15538*
X15594Y26420D02*
G01X15764D01*
X15821Y26477*
Y26647*
X15594*
X15651Y26788D02*
G01Y26902D01*
X15538Y26845D02*
G01X15821D01*
X15538D02*
G01X15481Y26902D01*
X16481D02*
G01X16538Y26845D01*
X16821*
X16651Y26788D02*
G01Y26902D01*
X16594Y26647D02*
G01X16821D01*
Y26477*
X16764Y26420*
X16594*
X16821Y26279D02*
G01Y26052D01*
Y26165D02*
G01X16481D01*
X16594Y26052*
X16764Y25924D02*
G01X16821D01*
Y25868*
X16764*
Y25924*
X17031Y25374D02*
G01X17201D01*
X17258Y25317*
Y25091*
X17201Y25034*
X17031*
Y25374*
X17399Y25317D02*
G01X17456Y25374D01*
X17570*
X17626Y25317*
Y25261*
X17399Y25034*
X17626*
X19853Y26906D02*
G01Y27076D01*
X19910Y27133*
X20137*
X20194Y27076*
Y26906*
X19853*
X19967Y27275D02*
G01X19853Y27388D01*
X20194*
Y27275D02*
G01Y27501D01*
X18906Y28934D02*
G01X18963Y28991D01*
Y29104*
X18849*
X18736Y28991D02*
G01X18793Y28934D01*
X18906*
X18736Y28991D02*
G01Y29217D01*
X18793Y29274*
X18906*
X18963Y29217*
X18765Y29434D02*
G01X18879Y29547D01*
Y29774*
X18652D02*
G01Y29547D01*
X18765Y29434*
X18595Y29274D02*
G01X18368D01*
Y28934*
X18595*
X18481Y29104D02*
G01X18368D01*
X18226D02*
G01Y29217D01*
X18170Y29274*
X17999*
Y28934*
Y29047D02*
G01X18170D01*
X18226Y29104*
X18113Y29047D02*
G01X18226Y28934D01*
X17858Y29047D02*
G01Y29274D01*
X17901Y29434D02*
G01X17788D01*
X17731Y29491*
X17845Y29604D02*
G01X17901D01*
X17958Y29547*
Y29491*
X17901Y29434*
Y29604D02*
G01X17958Y29661D01*
Y29717*
X17901Y29774*
X17788*
X17731Y29717*
X18099Y29491D02*
G01X18156D01*
Y29434*
X18099*
Y29491*
X18284D02*
G01X18340Y29434D01*
X18454*
X18510Y29491*
Y29547*
X18454Y29604*
X18397*
X18454D02*
G01X18510Y29661D01*
Y29717*
X18454Y29774*
X18340*
X18284Y29717*
X17631Y29274D02*
G01Y29047D01*
X17745Y28934*
X17858Y29047*
X20827Y30353D02*
G01X21054D01*
X20941D02*
G01Y30693D01*
X20827Y30579*
X21196D02*
G01Y30636D01*
X21252Y30693*
X21366*
X21422Y30636*
Y30579*
X21366Y30523*
X21252*
X21196Y30579*
X21252Y30523D02*
G01X21196Y30466D01*
Y30409*
X21252Y30353*
X21366*
X21422Y30409*
Y30466*
X21366Y30523*
X21564Y30579D02*
G01X21734D01*
X21791Y30523*
Y30409*
X21734Y30353*
X21564*
Y30239D02*
G01Y30579D01*
X21932Y30523D02*
G01X22046D01*
X21989Y30636D02*
G01X22046Y30693D01*
X21989Y30636D02*
G01Y30353D01*
X22200Y31041D02*
G01X22257D01*
X22314Y31097*
Y31268*
X22427D02*
G01X22200D01*
X22144Y31211*
Y31097*
X22200Y31041*
X22427D02*
G01X22484Y31097D01*
Y31211*
X22427Y31268*
Y31409D02*
G01Y31466D01*
X22484*
Y31409*
X22427*
Y31593D02*
G01X22484Y31650D01*
Y31763*
X22427Y31820*
X22370*
X22314Y31763*
Y31593*
X22427*
X22314D02*
G01X22200Y31707D01*
X22144Y31820*
Y31961D02*
G01X22257Y32075D01*
X22144Y32188*
X22484*
Y32330D02*
G01X22144D01*
X22314D02*
G01Y32557D01*
X22257Y32698D02*
G01Y32925D01*
X22484Y32698*
Y32925*
Y32557D02*
G01X22144D01*
X21751Y32304D02*
G01Y31704D01*
X21749Y31687*
X21745Y31670*
X21738Y31654*
X21728Y31640*
X21715Y31627*
X21701Y31617*
X21685Y31610*
X21668Y31606*
X21651Y31604*
X19501*
Y31654*
Y32354*
Y32404*
X21651*
X21668Y32402*
X21685Y32398*
X21701Y32391*
X21715Y32381*
X21728Y32368*
X21738Y32354*
X21745Y32338*
X21749Y32321*
X21751Y32304*
X22144Y31961D02*
G01X22484D01*
X21001Y32004D02*
G01X20801D01*
Y31804*
X20651D02*
G01Y32204D01*
X20501*
Y31804*
X20651*
X20801Y32004D02*
G01Y32204D01*
X20351D02*
G01Y32004D01*
Y31804*
Y32004D02*
G01X20151D01*
X19501Y32354D02*
G01X19351D01*
Y31654*
X19501*
X21578Y33212D02*
G01Y33552D01*
X21748*
X21804Y33495*
Y33382*
X21748Y33325*
X21578*
X21436Y33382D02*
G01X21379Y33325D01*
X21266*
X21209Y33382*
Y33439*
X21266Y33495*
X21379*
X21436Y33439*
Y33382*
X21379Y33495D02*
G01X21436Y33552D01*
Y33609*
X21379Y33665*
X21266*
X21209Y33609*
Y33552*
X21266Y33495*
X21068Y33325D02*
G01X20841D01*
X20954D02*
G01Y33665D01*
X20841Y33552*
X21946Y33495D02*
G01X22059D01*
X22003Y33609D02*
G01Y33325D01*
Y33609D02*
G01X22059Y33665D01*
X24081Y33716D02*
G01X24421D01*
Y33943*
Y34084D02*
G01X24081D01*
Y34254*
X24138Y34311*
X24251*
X24308Y34254*
Y34084*
Y34198D02*
G01X24421Y34311D01*
X24081Y33943D02*
G01Y33716D01*
Y33574D02*
G01Y33348D01*
Y33461D02*
G01X24421D01*
Y33206D02*
G01Y32979D01*
X24081*
Y33206*
X24251Y33093D02*
G01Y32979D01*
X24081Y32838D02*
G01X24421D01*
X24641Y32858D02*
G01Y32971D01*
X24697Y33028*
X24924Y32801*
X24981Y32858*
Y32971*
X24924Y33028*
X24697*
X24641Y32858D02*
G01X24697Y32801D01*
X24924*
Y32659D02*
G01X24697D01*
X24924Y32433*
X24981Y32489*
Y32603*
X24924Y32659*
Y32433D02*
G01X24697D01*
X24641Y32489*
Y32603*
X24697Y32659*
X24421Y32611D02*
G01X24081D01*
X24194Y32724*
X24081Y32838*
X24138Y32470D02*
G01X24081Y32413D01*
Y32299*
X24138Y32243*
X24364*
X24421Y32299*
Y32413*
X24364Y32470*
X24138*
Y32101D02*
G01X24251D01*
X24308Y32045*
Y31874*
X24421D02*
G01X24081D01*
Y32045*
X24138Y32101*
X24308Y31988D02*
G01X24421Y32101D01*
X24641Y32064D02*
G01Y32291D01*
X24754Y32234D02*
G01X24811Y32291D01*
X24924*
X24981Y32234*
Y32121*
X24924Y32064*
X24811D02*
G01X24754Y32178D01*
Y32234*
X24811Y32064D02*
G01X24641D01*
X24697Y31923D02*
G01X24924Y31696D01*
X24981Y31753*
Y31866*
X24924Y31923*
X24697*
X24641Y31866*
Y31753*
X24697Y31696*
X24924*
Y31554D02*
G01X24697D01*
X24641Y31498*
Y31328*
X24981*
Y31498*
X24924Y31554*
X24981Y31186D02*
G01X24641D01*
X24754Y31073*
X24641Y30959*
X24981*
X24421Y30996D02*
G01Y30769D01*
X24081*
Y30996*
Y31138D02*
G01X24421D01*
Y31365*
Y31506D02*
G01X24081D01*
Y31733*
X24251Y31620D02*
G01Y31506D01*
X24421D02*
G01Y31733D01*
X24251Y30883D02*
G01Y30769D01*
X24138Y30628D02*
G01X24081Y30571D01*
Y30458*
X24138Y30401*
X24364*
X24421Y30458*
Y30571*
X24364Y30628*
Y30260D02*
G01X24421Y30203D01*
Y30090*
X24364Y30033*
X24138*
X24081Y30090*
Y30203*
X24138Y30260*
X24194Y29891D02*
G01X24421D01*
X24251D02*
G01Y29665D01*
X24194D02*
G01X24081Y29778D01*
X24194Y29891*
Y29665D02*
G01X24421D01*
X25939Y31087D02*
G01Y31427D01*
X26052Y31313*
X26165Y31427*
Y31087*
X26307D02*
G01X26477D01*
X26534Y31143*
Y31370*
X26477Y31427*
X26307*
Y31087*
X26675Y31143D02*
G01Y31370D01*
X26732Y31427*
X26845*
X26902Y31370*
X26675Y31143*
X26732Y31087*
X26845*
X26902Y31143*
Y31370*
X27044Y31427D02*
G01Y31257D01*
X27157Y31313*
X27214*
X27270Y31257*
Y31143*
X27214Y31087*
X27100*
X27044Y31143*
X27412D02*
G01X27469Y31087D01*
X27582*
X27639Y31143*
Y31200*
X27582Y31257*
X27525*
X27582D02*
G01X27639Y31313D01*
Y31370*
X27582Y31427*
X27469*
X27412Y31370*
X27270Y31427D02*
G01X27044D01*
X27111Y31691D02*
G01X27054Y31748D01*
X27111Y31691D02*
G01X27225D01*
X27281Y31748*
Y31805*
X27225Y31861*
X27111*
X27054Y31918*
Y31975*
X27111Y32032*
X27225*
X27281Y31975*
X27423D02*
G01Y31748D01*
X27479Y31691*
X27593*
X27650Y31748*
Y31975*
X27593Y32032*
X27479*
X27423Y31975*
X27791Y32032D02*
G01Y31691D01*
Y31805D02*
G01X27961D01*
X28018Y31861*
Y31975*
X27961Y32032*
X27791*
X27905Y31805D02*
G01X28018Y31691D01*
X28007Y31427D02*
G01X27894Y31370D01*
X27780Y31257*
X27950*
X28007Y31200*
Y31143*
X27950Y31087*
X27837*
X27780Y31143*
Y31257*
X26913Y31691D02*
G01Y32032D01*
X26686D02*
G01X26913Y31691D01*
X26686D02*
G01Y32032D01*
X26545D02*
G01X26318D01*
Y31691*
X26545*
X26431Y31861D02*
G01X26318D01*
X26176Y31805D02*
G01Y31748D01*
X26120Y31691*
X26006*
X25950Y31748*
X26006Y31861D02*
G01X26120D01*
X26176Y31805*
Y31975D02*
G01X26120Y32032D01*
X26006*
X25950Y31975*
Y31918*
X26006Y31861*
X25957Y32304D02*
G01Y32644D01*
X26127*
X26184Y32588*
Y32474*
X26127Y32418*
X25957*
X26326D02*
G01X26496D01*
X26552Y32474*
Y32588*
X26496Y32644*
X26326*
Y32304*
X26439Y32418D02*
G01X26552Y32304D01*
X26694D02*
G01X26921D01*
X27062Y32361D02*
G01X27119Y32304D01*
X27232*
X27289Y32361*
Y32418*
X27232Y32474*
X27119*
X27062Y32531*
Y32588*
X27119Y32644*
X27232*
X27289Y32588*
X27431D02*
G01Y32531D01*
X27487Y32474*
X27601*
X27657Y32418*
Y32361*
X27601Y32304*
X27487*
X27431Y32361*
Y32588D02*
G01X27487Y32644D01*
X27601*
X27657Y32588*
X27799Y32644D02*
G01Y32361D01*
X27856Y32304*
X27969*
X28026Y32361*
Y32644*
X28167D02*
G01X28337D01*
X28394Y32588*
Y32474*
X28337Y32418*
X28167*
X28281D02*
G01X28394Y32304D01*
X28535D02*
G01Y32644D01*
X28762*
X28649Y32474D02*
G01X28535D01*
Y32304D02*
G01X28762D01*
X28167D02*
G01Y32644D01*
X26921D02*
G01X26694D01*
Y32304*
Y32474D02*
G01X26807D01*
X24251Y33716D02*
G01Y33829D01*
X22851Y37504D02*
G01X22351D01*
X22101Y37754*
X21851Y37504*
X21351*
X21101Y37754*
X20851Y37504*
X20351*
X20101Y37754*
Y38254*
X20351Y38504*
X20851*
X21101Y38254*
X21351Y38504*
X21851*
X22101Y38254*
X22351Y38504*
X22851*
X23101Y38254*
Y37754*
X22851Y37504*
X22101Y37754D02*
G01Y38254D01*
X21101D02*
G01Y37754D01*
X19035Y38139D02*
G01X18694D01*
Y38309*
X18751Y38366*
X18864*
X18921Y38309*
Y38139*
X18864Y37997D02*
G01X18921Y37941D01*
Y37827*
X18864Y37771*
X18638Y37997*
X18864*
X18638D02*
G01X18581Y37941D01*
Y37827*
X18638Y37771*
X18864*
X18638Y37629D02*
G01X18581D01*
Y37402*
Y37204D02*
G01X18751Y37034D01*
Y37261*
X18921Y37204D02*
G01X18581D01*
X18864Y37402D02*
G01X18921D01*
X18864D02*
G01X18638Y37629D01*
X17921Y37586D02*
G01X17694Y37813D01*
X17638*
X17581Y37756*
Y37643*
X17638Y37586*
X17864Y37459D02*
G01Y37402D01*
X17921*
Y37459*
X17864*
X17921Y37586D02*
G01Y37813D01*
X17864Y37955D02*
G01X17694D01*
X17864D02*
G01X17921Y38011D01*
Y38182*
X17694*
X17751Y38323D02*
G01Y38436D01*
X17921Y38323D02*
G01X17581D01*
Y38550*
X18581Y38621D02*
G01X18638Y38564D01*
X18921*
X18751Y38507D02*
G01Y38621D01*
X17921Y37261D02*
G01Y37034D01*
X17694Y37261*
X17638*
X17581Y37204*
Y37091*
X17638Y37034*
X16921D02*
G01Y37261D01*
Y37147D02*
G01X16581D01*
X16694Y37034*
X16638Y37402D02*
G01X16581Y37459D01*
Y37572*
X16638Y37629*
X16864Y37402*
X16921Y37459*
Y37572*
X16864Y37629*
X16638*
Y37402D02*
G01X16864D01*
X15921Y37445D02*
G01Y37218D01*
Y37331D02*
G01X15581D01*
X15694Y37218*
X15864Y37091D02*
G01X15921D01*
Y37034*
X15864*
Y37091*
Y37586D02*
G01X15921Y37643D01*
Y37813*
X15694*
X15751Y37955D02*
G01Y38068D01*
X15638Y38011D02*
G01X15581Y38068D01*
X15638Y38011D02*
G01X15921D01*
X15864Y37586D02*
G01X15694D01*
X14921Y37643D02*
G01X14864Y37586D01*
X14694*
Y37813D02*
G01X14921D01*
Y37643*
Y37445D02*
G01Y37218D01*
Y37331D02*
G01X14581D01*
X14694Y37218*
X14864Y37091D02*
G01X14921D01*
Y37034*
X14864*
Y37091*
X13921Y37034D02*
G01X13694Y37261D01*
X13638*
X13581Y37204*
Y37091*
X13638Y37034*
X13921D02*
G01Y37261D01*
Y37402D02*
G01X13694Y37629D01*
X13638*
X13581Y37572*
Y37459*
X13638Y37402*
X13921D02*
G01Y37629D01*
X13864Y37771D02*
G01X13638D01*
X13581Y37827*
Y37941*
X13638Y37997*
X13864Y37771*
X13921Y37827*
Y37941*
X13864Y37997*
X13638*
X14581Y38068D02*
G01X14638Y38011D01*
X14921*
X14751Y37955D02*
G01Y38068D01*
X6701Y40254D02*
G01X6451Y40004D01*
X5951*
X5701Y40254*
X5451Y40004*
X4951*
X4701Y40254*
X4451Y40004*
X3951*
X3701Y40254*
Y40754*
X3951Y41004*
X4451*
X4701Y40754*
X4951Y41004*
X5451*
X5701Y40754*
X5951Y41004*
X6451*
X6701Y40754*
Y40254*
X5701D02*
G01Y40754D01*
X4701D02*
G01Y40254D01*
X22344Y28397D02*
G01X22458Y28227D01*
X22571Y28397*
Y28227D02*
G01X22231D01*
X22288Y28086D02*
G01X22514Y27859D01*
X22571Y27915*
Y28029*
X22514Y28086*
X22288*
X22231Y28029*
Y27915*
X22288Y27859*
X22514*
X22571Y27717D02*
G01Y27490D01*
Y27604D02*
G01X22231D01*
X22344Y27490*
X28631Y25617D02*
G01Y25391D01*
X28688Y25334*
X28801*
X28858Y25391*
Y25504*
X28745*
X28858Y25617D02*
G01X28801Y25674D01*
X28688*
X28631Y25617*
X28999Y25674D02*
G01Y25334D01*
X29226D02*
G01X28999Y25674D01*
X29226D02*
G01Y25334D01*
X29368D02*
G01X29538D01*
X29595Y25391*
Y25617*
X29538Y25674*
X29368*
Y25334*
X29268Y24674D02*
G01Y24447D01*
X29381Y24334*
X29495Y24447*
Y24674*
X29126D02*
G01X28899D01*
Y24504*
X29013Y24561*
X29070*
X29126Y24504*
Y24391*
X29070Y24334*
X28956*
X28899Y24391*
X28758Y24504D02*
G01X28531D01*
X28645Y24617D02*
G01Y24391D01*
G54D73*
X28401Y24004D02*
G01X22401D01*
Y25004*
X28401*
Y24004*
Y23004*
X22401*
Y24004*
X28401*
Y25004D02*
G01X22401D01*
Y26004*
X28401*
Y25004*
X29201Y26254D02*
G01Y27254D01*
X23201*
Y26254*
X29201*
X23951Y29754D02*
G01Y30254D01*
X23701Y30504*
X23951Y30754*
Y31254*
X23701Y31504*
X23951Y31754*
Y32254*
X23701Y32504*
X23951Y32754*
Y33254*
X23701Y33504*
X23951Y33754*
Y34254*
X23701Y34504*
X23201*
X22951Y34254*
Y33754*
X23201Y33504*
X22951Y33254*
Y32754*
X23201Y32504*
X22951Y32254*
Y31754*
X23201Y31504*
X22951Y31254*
Y30754*
X23201Y30504*
X22951Y30254*
Y29754*
X23201Y29504*
X23701*
X23951Y29754*
X19034Y28290D02*
G01Y27779D01*
X17892*
Y28290*
X19034*
X17076Y30629D02*
G01X16826D01*
X17076D02*
G01Y30854D01*
X14576Y30629D02*
G01X14326D01*
Y30854*
Y33154D02*
G01Y33379D01*
X14551*
X13701Y33504D02*
G01X13703Y33535D01*
X13709Y33566*
X13719Y33596*
X13732Y33624*
X13749Y33651*
X13769Y33675*
X13792Y33697*
X13817Y33715*
X13845Y33730*
X13874Y33742*
X13904Y33750*
X13935Y33754*
X13967*
X13998Y33750*
X14028Y33742*
X14057Y33730*
X14085Y33715*
X14110Y33697*
X14133Y33675*
X14153Y33651*
X14170Y33624*
X14183Y33596*
X14193Y33566*
X14199Y33535*
X14201Y33504*
X14199Y33473*
X14193Y33442*
X14183Y33412*
X14170Y33384*
X14153Y33357*
X14133Y33333*
X14110Y33311*
X14085Y33293*
X14057Y33278*
X14028Y33266*
X13998Y33258*
X13967Y33254*
X13935*
X13904Y33258*
X13874Y33266*
X13845Y33278*
X13817Y33293*
X13792Y33311*
X13769Y33333*
X13749Y33357*
X13732Y33384*
X13719Y33412*
X13709Y33442*
X13703Y33473*
X13701Y33504*
X16851Y33379D02*
G01X17051D01*
Y33179*
X23201Y36004D02*
G01Y37004D01*
X29201*
Y36004*
X23201*
X20351Y38904D02*
G01X28351D01*
Y39904*
X20351*
Y38904*
X19801D02*
G01Y39904D01*
X11801*
Y38904*
X19801*
Y39904D02*
G01Y40904D01*
X11801*
Y39904*
X19801*
X20351D02*
G01X28351D01*
Y40904*
X20351*
Y39904*
X11643Y39592D02*
G01Y39358D01*
X11585Y39300*
X11410*
Y39650*
X11585*
X11643Y39592*
X11275Y39650D02*
G01Y39300D01*
X11041Y39650*
Y39300*
X10906Y39358D02*
G01Y39475D01*
X10790*
X10906Y39592D02*
G01X10848Y39650D01*
X10731*
X10673Y39592*
Y39358*
X10731Y39300*
X10848*
X10906Y39358*
X7424Y31403D02*
G01X7199D01*
X7124Y31327*
X7199Y31252*
X7424*
Y31102D02*
G01X7124D01*
Y31177*
X7199Y31252*
Y30942D02*
G01X7424D01*
Y30792D02*
G01X7199D01*
X7124Y30867*
X7199Y30942*
Y30792D02*
G01X7124Y30717D01*
Y30642*
X7424*
X7349Y30482D02*
G01X7199D01*
X7124Y30407*
Y30332*
X7199Y30182*
X6974*
Y30482*
X7349D02*
G01X7424Y30407D01*
Y30257*
X7349Y30182*
Y30025D02*
G01Y29950D01*
X7424*
Y30025*
X7349*
X7424D02*
G01X7574Y29875D01*
X7349Y29715D02*
G01X7424Y29640D01*
Y29489*
X7349Y29414*
X7199Y29564D02*
G01Y29640D01*
X7274Y29715*
X7349*
X7199Y29640D02*
G01X7124Y29715D01*
X7049*
X6974Y29640*
Y29489*
X7049Y29414*
X15401Y24004D02*
G01Y23004D01*
X21401*
Y24004*
X15401*
G54D33*
X17453Y26157D02*
G01Y26551D01*
X17256Y26354D02*
G01X17650D01*
X20497Y26493D02*
G01X20891D01*
X20694Y26689D02*
G01Y26296D01*
G54D34*
X20790Y35148D02*
G01X21070D01*
X21250D02*
G01X21530D01*
X21710D02*
G01X21991D01*
X22171Y35218D02*
G01X22241Y35148D01*
X22381*
X22451Y35218*
X22171D02*
G01Y35498D01*
X22241Y35568*
X22381*
X22451Y35498*
X22631Y35568D02*
G01X22911D01*
X22771D02*
G01Y35148D01*
X21991Y35568D02*
G01X21710D01*
Y35148*
Y35358D02*
G01X21850D01*
X21797Y35799D02*
G01Y36220D01*
X22077Y35799*
Y36220*
X21630D02*
G01X21490D01*
X21560D02*
G01Y35799D01*
X21490D02*
G01X21630D01*
X21310Y36010D02*
G01Y36150D01*
X21240Y36220*
X21030*
Y35799*
Y35939D02*
G01X21240D01*
X21310Y36010*
X21250Y35568D02*
G01Y35148D01*
X20930Y35358D02*
G01X20790D01*
X20610Y35288D02*
G01Y35218D01*
X20539Y35148*
X20399*
X20329Y35218*
X20399Y35358D02*
G01X20539D01*
X20610Y35288*
Y35498D02*
G01X20539Y35568D01*
X20399*
X20329Y35498*
Y35428*
X20399Y35358*
X20790Y35568D02*
G01Y35148D01*
Y35568D02*
G01X21070D01*
X10250Y40344D02*
G01Y40764D01*
X10110D02*
G01X10390D01*
X9930D02*
G01Y40414D01*
X9860Y40344*
X9720*
X9650Y40414*
Y40764*
X9470Y40694D02*
G01X9400Y40764D01*
X9259*
X9189Y40694*
Y40414*
X9259Y40344*
X9400*
X9470Y40414*
Y40694*
X8549Y40764D02*
G01X8269D01*
Y40344*
X8549*
X8409Y40554D02*
G01X8269D01*
X8089Y40344D02*
G01Y40764D01*
X7808D02*
G01X8089Y40344D01*
X7808D02*
G01Y40764D01*
X7642D02*
G01X7501D01*
X7571D02*
G01Y40344D01*
X7501D02*
G01X7642D01*
X7321D02*
G01X7041D01*
Y40764*
X6676Y41420D02*
G01Y41740D01*
X6516Y41580D02*
G01X6836D01*
X6321D02*
G01X6241Y41500D01*
X6000*
Y41340D02*
G01Y41820D01*
X6241*
X6321Y41740*
Y41580*
X6160Y41500D02*
G01X6321Y41340D01*
X5364Y41491D02*
G01X5044D01*
X4657Y41527D02*
G01X4337D01*
X4497Y41687D02*
G01Y41367D01*
X4142Y41287D02*
G01X3822D01*
Y41767*
G54D29*
X10672Y39864D02*
G01X28350D01*
X22591Y37170D02*
G01Y36610D01*
X22404D02*
G01X22778D01*
X22404Y36984D02*
G01X22591Y37170D01*
X20737Y36886D02*
G01X20363D01*
X20643Y37167*
Y36606*
X22451Y26004D02*
G01X29701D01*
Y25004D02*
G01X22451D01*
G54D35*
X14689Y22640D02*
G01Y22150D01*
X14362D02*
G01Y22640D01*
X14526Y22477*
X14689Y22640*
X14173Y22559D02*
G01X14092Y22640D01*
X13928*
X13847Y22559*
Y22232*
X13928Y22150*
X14092*
X14173Y22232*
Y22559*
X13658D02*
G01X13576Y22640D01*
X13413*
X13331Y22559*
Y22232*
X13413Y22150*
X13576*
X13658Y22232*
X13155D02*
G01Y22150D01*
X13073*
Y22232*
X13155*
X12884Y22150D02*
G01X12557D01*
Y22640*
X12884*
X12721Y22395D02*
G01X12557D01*
X12369Y22232D02*
G01X12287Y22150D01*
X12124*
X12042Y22232*
Y22559*
X12124Y22640*
X12287*
X12369Y22559*
X11862Y22640D02*
G01X11698D01*
X11780D02*
G01Y22150D01*
X11698D02*
G01X11862D01*
X11509Y22313D02*
G01Y22640D01*
X11182D02*
G01Y22313D01*
X11346Y22150*
X11509Y22313*
X10994Y22150D02*
G01X10667D01*
Y22640*
X10994*
X10830Y22395D02*
G01X10667D01*
X10478Y22232D02*
G01Y22559D01*
X10396Y22640*
X10151*
Y22150*
X10396*
X10478Y22232*
X9963Y22150D02*
G01Y22640D01*
X9636D02*
G01X9963Y22150D01*
X9636D02*
G01Y22640D01*
X9447Y22559D02*
G01Y22395D01*
X9365Y22313*
X9120*
Y22150D02*
G01Y22640D01*
X9365*
X9447Y22559*
X9283Y22313D02*
G01X9447Y22150D01*
X8931D02*
G01X8604D01*
Y22640*
X8931*
X8768Y22395D02*
G01X8604D01*
X8416Y22232D02*
G01X8334Y22150D01*
X8089*
Y22640*
X8334*
X8416Y22559*
Y22232*
X7900D02*
G01Y22559D01*
X7818Y22640*
X7655*
X7573Y22559*
Y22232*
X7655Y22150*
X7818*
X7900Y22232*
X7384Y22150D02*
G01Y22640D01*
X7221Y22477*
X7057Y22640*
Y22150*
G54D36*
X6972Y33597D02*
G01X6845D01*
X6718Y33724*
Y33978*
X6845Y34105*
X7099Y33978D02*
G01X7225Y34105D01*
X7352*
X7479Y33978*
Y33724*
X7352Y33597*
X7099Y33724D02*
G01Y33978D01*
Y33724D02*
G01X6972Y33597D01*
X7099Y34426D02*
G01Y34933D01*
X7479D02*
G01X6718D01*
Y35255D02*
G01Y35508D01*
Y35382D02*
G01X7479D01*
Y35508D02*
G01Y35255D01*
Y35807D02*
G01X6718D01*
Y36314*
X7099Y36061D02*
G01Y35807D01*
X7479D02*
G01Y36314D01*
Y36636D02*
G01X6718D01*
X7479D02*
G01Y37143D01*
Y37465D02*
G01X6718D01*
Y37845*
X6845Y37972*
X7352*
X7479Y37845*
Y37465*
X5970Y37466D02*
G01X5210D01*
X5590D02*
G01Y36959D01*
X5970D02*
G01X5210D01*
Y36637D02*
G01Y36130D01*
Y36384D02*
G01X5970D01*
Y35809D02*
G01X5210D01*
Y35302D02*
G01X5970Y35809D01*
Y35302D02*
G01X5210D01*
Y34980D02*
G01X5336D01*
X5590Y34726*
X5970*
X5590D02*
G01X5336Y34473D01*
X5210*
X5336Y34151D02*
G01X5210Y34025D01*
Y33771*
X5336Y33644*
X5463*
X5590Y33771*
Y34025*
X5717Y34151*
X5843*
X5970Y34025*
Y33771*
X5843Y33644*
X6718Y34426D02*
G01X7479D01*
X4417Y34466D02*
G01Y34974D01*
X4290Y35295D02*
G01X3656D01*
Y35802D02*
G01X4290D01*
X4417Y35676*
Y35422*
X4290Y35295*
X4417Y36124D02*
G01X3656Y36631D01*
X3910Y36953D02*
G01X3656Y37206D01*
X3910Y37460*
X4417*
Y37781D02*
G01X3656D01*
X3910Y38035*
X3656Y38288*
X4417*
Y38610D02*
G01X3910D01*
X3656Y38864*
X3910Y39117*
X4417*
X4037D02*
G01Y38610D01*
Y37460D02*
G01Y36953D01*
X3910D02*
G01X4417D01*
Y36631D02*
G01X3656Y36124D01*
Y34466D02*
G01X4417D01*
X3656Y34145D02*
G01Y33638D01*
X4417*
X4037D02*
G01Y33891D01*
G54D31*
X4801Y33504D02*
G01Y39504D01*
X6401D02*
G01Y33504D01*
X7901D02*
G01Y39504D01*
X6901Y23004D02*
G01X14701D01*
G54D37*
X14751Y23321D02*
G01X14444D01*
X14597D02*
G01Y23782D01*
X14444Y23628*
X14290Y23398D02*
G01Y23321D01*
X14214*
Y23398*
X14290*
X14060Y23321D02*
G01X13753D01*
X14060Y23628*
Y23705*
X13983Y23782*
X13830*
X13753Y23705*
X13600Y23398D02*
G01Y23321D01*
X13523*
Y23398*
X13600*
X13370Y23475D02*
G01X13216Y23321D01*
X13063Y23475*
Y23782*
X12909D02*
G01X12602D01*
Y23321*
X12909*
X12756Y23552D02*
G01X12602D01*
X12449D02*
G01X12372Y23475D01*
X12142*
X12296D02*
G01X12449Y23321D01*
Y23552D02*
G01Y23705D01*
X12372Y23782*
X12142*
Y23321*
X13370Y23475D02*
G01Y23782D01*
X14491Y33784D02*
G01Y33971D01*
X14584Y34064*
X14678Y33971*
Y33784*
Y33924D02*
G01X14491D01*
X14786Y34064D02*
G01X14973D01*
X14879D02*
G01Y33784D01*
X15080Y33831D02*
G01X15127Y33784D01*
X15221*
X15267Y33831*
Y33877*
X15221Y33924*
X15127*
X15080Y33971*
Y34017*
X15127Y34064*
X15221*
X15267Y34017*
X15375Y33971D02*
G01Y33784D01*
Y33924D02*
G01X15562D01*
Y33971D02*
G01Y33784D01*
X15670D02*
G01Y34064D01*
X15763Y33971*
X15856Y34064*
Y33784*
X15964D02*
G01X16151Y33971D01*
Y34017*
X16104Y34064*
X16011*
X15964Y34017*
Y33784D02*
G01X16151D01*
X16259D02*
G01X16446D01*
X16352D02*
G01Y34064D01*
X16259Y33971*
X16554D02*
G01X16600Y33924D01*
X16740*
Y33831D02*
G01Y34017D01*
X16694Y34064*
X16600*
X16554Y34017*
Y33971*
Y33831D02*
G01X16600Y33784D01*
X16694*
X16740Y33831*
X16848D02*
G01X16895Y33784D01*
X16988*
X17035Y33831*
Y33924*
X16988Y33971*
X16942*
X16848Y33924*
Y34064*
X17035*
X15562Y33971D02*
G01X15468Y34064D01*
X15375Y33971*
G54D38*
X2701Y42504D02*
G01Y21504D01*
X28901*
Y22484*
X28911*
X29921Y23494*
Y36424*
X28901Y37444*
Y41834*
X28231Y42504*
X2701*
X3969Y32433D02*
G01X3971Y32467D01*
X3977Y32501*
X3987Y32534*
X4000Y32565*
X4018Y32595*
X4038Y32623*
X4062Y32648*
X4088Y32670*
X4116Y32688*
X4147Y32704*
X4179Y32716*
X4213Y32724*
X4247Y32728*
X4281*
X4315Y32724*
X4349Y32716*
X4381Y32704*
X4411Y32688*
X4440Y32670*
X4466Y32648*
X4490Y32623*
X4510Y32595*
X4528Y32565*
X4541Y32534*
X4551Y32501*
X4557Y32467*
X4559Y32433*
X4557Y32399*
X4551Y32365*
X4541Y32332*
X4528Y32301*
X4510Y32271*
X4490Y32243*
X4466Y32218*
X4440Y32196*
X4412Y32178*
X4381Y32162*
X4349Y32150*
X4315Y32142*
X4281Y32138*
X4247*
X4213Y32142*
X4179Y32150*
X4147Y32162*
X4116Y32178*
X4088Y32196*
X4062Y32218*
X4038Y32243*
X4018Y32271*
X4000Y32301*
X3987Y32332*
X3977Y32365*
X3971Y32399*
X3969Y32433*
X5938Y30465D02*
G01X5940Y30499D01*
X5946Y30533*
X5956Y30566*
X5969Y30597*
X5987Y30627*
X6007Y30655*
X6031Y30680*
X6057Y30702*
X6085Y30720*
X6116Y30736*
X6148Y30748*
X6182Y30756*
X6216Y30760*
X6250*
X6284Y30756*
X6318Y30748*
X6350Y30736*
X6380Y30720*
X6409Y30702*
X6435Y30680*
X6459Y30655*
X6479Y30627*
X6497Y30597*
X6510Y30566*
X6520Y30533*
X6526Y30499*
X6528Y30465*
X6526Y30431*
X6520Y30397*
X6510Y30364*
X6497Y30333*
X6479Y30303*
X6459Y30275*
X6435Y30250*
X6409Y30228*
X6381Y30210*
X6350Y30194*
X6318Y30182*
X6284Y30174*
X6250Y30170*
X6216*
X6182Y30174*
X6148Y30182*
X6116Y30194*
X6085Y30210*
X6057Y30228*
X6031Y30250*
X6007Y30275*
X5987Y30303*
X5969Y30333*
X5956Y30364*
X5946Y30397*
X5940Y30431*
X5938Y30465*
X3969Y28496D02*
G01X3971Y28530D01*
X3977Y28564*
X3987Y28597*
X4000Y28628*
X4018Y28658*
X4038Y28686*
X4062Y28711*
X4088Y28733*
X4116Y28751*
X4147Y28767*
X4179Y28779*
X4213Y28787*
X4247Y28791*
X4281*
X4315Y28787*
X4349Y28779*
X4381Y28767*
X4411Y28751*
X4440Y28733*
X4466Y28711*
X4490Y28686*
X4510Y28658*
X4528Y28628*
X4541Y28597*
X4551Y28564*
X4557Y28530*
X4559Y28496*
X4557Y28462*
X4551Y28428*
X4541Y28395*
X4528Y28364*
X4510Y28334*
X4490Y28306*
X4466Y28281*
X4440Y28259*
X4412Y28241*
X4381Y28225*
X4349Y28213*
X4315Y28205*
X4281Y28201*
X4247*
X4213Y28205*
X4179Y28213*
X4147Y28225*
X4116Y28241*
X4088Y28259*
X4062Y28281*
X4038Y28306*
X4018Y28334*
X4000Y28364*
X3987Y28395*
X3977Y28428*
X3971Y28462*
X3969Y28496*
G54D40*
X19258Y41943D02*
G01X19209Y41991D01*
Y42040*
X19258Y42088*
X19355*
X19403Y42040*
Y41991*
X19355Y41943*
X19258*
Y42088D02*
G01X19209Y42136D01*
Y42185*
X19258Y42233*
X19355*
X19403Y42185*
Y42136*
X19355Y42088*
X18403Y42078D02*
G01X18258D01*
X18209Y42126*
Y42175*
X18258Y42223*
X18355*
X18403Y42175*
Y41981*
X18355Y41933*
X18258*
X18209Y41981*
X17533D02*
G01X17485Y41933D01*
X17388*
X17339Y41981*
X17533Y42175*
Y41981*
X17339D02*
G01Y42175D01*
X17388Y42223*
X17485*
X17533Y42175*
X17142Y42223D02*
G01Y41933D01*
X17238D02*
G01X17045D01*
Y42126D02*
G01X17142Y42223D01*
X16533Y41943D02*
G01X16339D01*
X16436D02*
G01Y42233D01*
X16339Y42136*
X16238Y41943D02*
G01X16045D01*
X16142D02*
G01Y42233D01*
X16045Y42136*
X15533D02*
G01X15339Y41943D01*
X15533*
Y42136D02*
G01Y42185D01*
X15485Y42233*
X15388*
X15339Y42185*
X15142Y42233D02*
G01X15045Y42136D01*
X15142Y42233D02*
G01Y41943D01*
X15238D02*
G01X15045D01*
X14533Y41971D02*
G01X14485Y41923D01*
X14388*
X14339Y41971*
X14238Y41923D02*
G01X14045D01*
X14142D02*
G01Y42213D01*
X14045Y42116*
X14339Y42165D02*
G01X14388Y42213D01*
X14485*
X14533Y42165*
Y42116*
X14485Y42068*
X14533Y42020*
Y41971*
X14485Y42068D02*
G01X14436D01*
X13663Y42126D02*
G01X13518D01*
X13469Y42078*
Y41981*
X13518Y41933*
X13663*
Y42223*
X13368Y42078D02*
G01Y41933D01*
Y42078D02*
G01X13320Y42126D01*
X13175*
Y41933*
X13074D02*
G01X12929D01*
X12880Y41981*
Y42078*
X12929Y42126*
X13074*
Y41885*
X13025Y41836*
X12977*
X12522Y41931D02*
G01Y42173D01*
X12570Y42221*
Y42076D02*
G01X12474D01*
X12372D02*
G01Y42028D01*
X12179*
Y42076D02*
G01X12227Y42124D01*
X12324*
X12372Y42076*
X12324Y41931D02*
G01X12227D01*
X12179Y41979*
Y42076*
X12078D02*
G01X12029Y42028D01*
X11884*
Y41931D02*
G01Y42221D01*
X12029*
X12078Y42173*
Y42076*
X11981Y42028D02*
G01X12078Y41931D01*
X11783D02*
G01Y42124D01*
X11686Y42221*
X11590Y42124*
Y41931*
Y42076D02*
G01X11783D01*
X20839Y41961D02*
G01Y41913D01*
Y41961D02*
G01X21033Y42155D01*
Y42203*
X20839*
X21749Y42088D02*
G01X21895D01*
X21943Y42040*
Y41991*
X21895Y41943*
X21798*
X21749Y41991*
Y42088*
X21846Y42185*
X21943Y42233*
X22759Y42213D02*
G01Y42068D01*
X22856Y42116*
X22905*
X22953Y42068*
Y41971*
X22905Y41923*
X22808*
X22759Y41971*
Y42213D02*
G01X22953D01*
X23719Y42068D02*
G01X23913D01*
X23865Y41923D02*
G01Y42213D01*
X23719Y42068*
X24759Y41971D02*
G01X24808Y41923D01*
X24905*
X24953Y41971*
Y42020*
X24905Y42068*
X24856*
X24905D02*
G01X24953Y42116D01*
Y42165*
X24905Y42213*
X24808*
X24759Y42165*
X25739Y42155D02*
G01X25788Y42203D01*
X25885*
X25933Y42155*
Y42106*
X25739Y41913*
X25933*
X26749D02*
G01X26943D01*
X26846D02*
G01Y42203D01*
X26749Y42106*
X27769Y42165D02*
G01X27818Y42213D01*
X27915*
X27963Y42165*
X27769Y41971*
X27818Y41923*
X27915*
X27963Y41971*
Y42165*
X27769D02*
G01Y41971D01*
X25965Y22081D02*
G01X26014Y22033D01*
Y21984*
X25965Y21936*
X26014Y21888*
Y21839*
X25965Y21791*
X25868*
X25820Y21839*
X25917Y21936D02*
G01X25965D01*
Y22081D02*
G01X25868D01*
X25820Y22033*
X25004Y22053D02*
G01X24955Y22101D01*
X24858*
X24810Y22053*
X25004D02*
G01Y22004D01*
X24810Y21811*
X25004*
X24024Y21791D02*
G01X23830D01*
X23927D02*
G01Y22081D01*
X23830Y21984*
X22994Y22033D02*
G01Y21839D01*
X22945Y21791*
X22848*
X22800Y21839*
X22994Y22033*
X22945Y22081*
X22848*
X22800Y22033*
Y21839*
X21273Y21898D02*
G01Y21753D01*
Y21898D02*
G01X21225Y21946D01*
X21079*
Y21753*
X20980D02*
G01X20883D01*
X20931D02*
G01Y21946D01*
X20883*
X20931Y22043D02*
G01Y22092D01*
X20782Y22043D02*
G01Y21850D01*
X20685Y21753*
X20588Y21850*
Y22043*
X19723Y22061D02*
G01Y21771D01*
X19578*
X19529Y21819*
Y21916*
X19578Y21964*
X19723*
X19428Y21916D02*
G01Y21771D01*
Y21916D02*
G01X19380Y21964D01*
X19235*
Y21771*
X19134Y21819D02*
G01Y21916D01*
X19037*
X19134Y21819D02*
G01X19085Y21771D01*
X18988*
X18940Y21819*
Y22013*
X18988Y22061*
X19085*
X19134Y22013*
X18193Y21976D02*
G01X18096Y21783D01*
X17999Y21976*
X17898Y21928D02*
G01Y21831D01*
X17850Y21783*
X17753*
X17705Y21831*
Y21928D02*
G01X17802Y21976D01*
X17850*
X17898Y21928*
Y22073D02*
G01X17705D01*
Y21928*
X17123Y21986D02*
G01X17026Y21793D01*
X16929Y21986*
X16828D02*
G01X16780Y21938D01*
X16828Y21890*
Y21841*
X16780Y21793*
X16683*
X16635Y21841*
X16732Y21938D02*
G01X16780D01*
X16828Y21986D02*
G01Y22035D01*
X16780Y22083*
X16683*
X16635Y22035*
X16259Y22081D02*
G01X16065D01*
X16162D02*
G01Y21791D01*
X15964Y21839D02*
G01X15916Y21791D01*
X15819*
X15771Y21839*
X15819Y21936D02*
G01X15916D01*
X15964Y21888*
Y21839*
X15819Y21936D02*
G01X15771Y21984D01*
Y22033*
X15819Y22081*
X15916*
X15964Y22033*
X15670D02*
G01X15621Y22081D01*
X15476*
Y21791*
Y21888D02*
G01X15621D01*
X15670Y21936*
Y22033*
X15573Y21888D02*
G01X15670Y21791D01*
X26800Y21926D02*
G01X26994D01*
X26945Y21781D02*
G01Y22071D01*
X26800Y21926*
X27800D02*
G01X27897Y21974D01*
X27945*
X27994Y21926*
Y21829*
X27945Y21781*
X27848*
X27800Y21829*
Y21926D02*
G01Y22071D01*
X27994*
G54D10*
X6401Y24004D02*
G01X6301D01*
Y24954*
X6401*
X4101Y25004D02*
G01Y24004D01*
X4001*
Y25004D02*
G01X4101D01*
G54D28*
X43086Y22543D02*
G01X43105D01*
X45121Y23504D02*
G01X45221D01*
X50021Y24504D02*
G01X50121D01*
Y24404*
X50921Y27754D02*
G01X53421D01*
X55921*
X53421D02*
G01Y30754D01*
X52905Y30798D02*
G01Y32976D01*
X52934*
Y33006*
X52949Y32991D02*
G01X56230D01*
Y30798*
X52905*
X53421Y33004D02*
G01Y35504D01*
X55921*
X53421D02*
G01X50921D01*
X49310Y36885D02*
G01X48221D01*
X48773Y36870D02*
G01Y36452D01*
X49060Y40404D02*
G01X49121D01*
X45621D02*
G01X45521D01*
X43621D02*
G01X43521D01*
X52921Y40304D02*
G01X53079Y40343D01*
X46421Y32204D02*
G01X46221D01*
Y31804D02*
G01X46371D01*
G54D71*
X50121Y25504D02*
G01X55221D01*
X55121Y24504D02*
G01X50121D01*
Y23404D02*
G01Y22604D01*
X51121D02*
G01Y23504D01*
X52121D02*
G01Y22604D01*
X53121Y22504D02*
G01Y23504D01*
X54121D02*
G01Y22504D01*
X55121D02*
G01Y23504D01*
X48121Y23404D02*
G01Y22504D01*
X47121D02*
G01Y23604D01*
X46121Y23404D02*
G01Y22404D01*
X45121Y22504D02*
G01Y23504D01*
X44121D02*
G01Y22504D01*
X43105Y22543D02*
G01Y23564D01*
X39621Y39404D02*
G01X55121D01*
X55060Y40404D02*
G01Y41404D01*
X54060Y41465D02*
G01Y40465D01*
X53079Y40343D02*
G01Y41543D01*
X52060Y41504D02*
G01Y40404D01*
X51079D02*
G01Y41504D01*
X50079D02*
G01Y40404D01*
X49060D02*
G01Y41504D01*
X48079D02*
G01Y40404D01*
X46521D02*
G01Y41504D01*
X45521D02*
G01Y40404D01*
X44521Y40304D02*
G01Y41504D01*
X43521D02*
G01Y40404D01*
X42521D02*
G01Y41504D01*
X41521D02*
G01Y40404D01*
X40521D02*
G01Y41404D01*
X39521Y41604D02*
G01Y40404D01*
G54D72*
X36578Y38417D02*
G01X36351Y38191D01*
X36408Y38134*
X36521*
X36578Y38191*
Y38417*
X36521Y38474*
X36408*
X36351Y38417*
Y38191*
X36560Y36424D02*
G01X36504Y36367D01*
X36560Y36424D02*
G01X36674D01*
X36730Y36367*
Y36311*
X36674Y36254*
X36730Y36197*
Y36141*
X36674Y36084*
X36560*
X36504Y36141*
X36376D02*
G01Y36084D01*
X36319*
Y36141*
X36376*
X36178D02*
G01X36121Y36084D01*
X36008*
X35951Y36141*
X36065Y36254D02*
G01X36121D01*
X36178Y36197*
Y36141*
X36121Y36254D02*
G01X36178Y36311D01*
Y36367*
X36121Y36424*
X36008*
X35951Y36367*
X36617Y36254D02*
G01X36674D01*
X36872Y36197D02*
G01X37042Y36084D01*
X36872D02*
G01Y36424D01*
X37042Y36311D02*
G01X36872Y36197D01*
X36858Y34424D02*
G01X36744D01*
X36688Y34367*
Y34141*
X36915Y34367*
Y34141*
X36858Y34084*
X36744*
X36688Y34141*
X36546Y34084D02*
G01X36319D01*
X36546Y34311*
Y34367*
X36490Y34424*
X36376*
X36319Y34367*
X36178D02*
G01X36121Y34424D01*
X36008*
X35951Y34367*
X36178D02*
G01Y34311D01*
X35951Y34084*
X36178*
X36858Y34424D02*
G01X36915Y34367D01*
X34953Y32843D02*
G01Y28086D01*
X33203*
X32353D02*
G01X30338D01*
Y29265*
Y31665*
Y32843*
X34203*
X35751Y32367D02*
G01X35808Y32424D01*
X35921*
X35978Y32367*
Y32311*
X35751Y32084*
X35978*
X36119D02*
G01X36176D01*
Y32141*
X36119*
Y32084*
X36304D02*
G01X36530Y32311D01*
Y32367*
X36474Y32424*
X36360*
X36304Y32367*
Y32084D02*
G01X36530D01*
X36672Y32141D02*
G01X36729Y32084D01*
X36899*
Y32311*
X37040Y32254D02*
G01X37154D01*
X37040Y32424D02*
G01X37267D01*
X37040D02*
G01Y32084D01*
X36672Y32141D02*
G01Y32311D01*
X36474Y30424D02*
G01X36360D01*
X36304Y30367*
X36474Y30424D02*
G01X36530Y30367D01*
Y30311*
X36304Y30084*
X36530*
X36672Y30141D02*
G01X36729Y30084D01*
X36899*
Y30311*
X37040Y30254D02*
G01X37154D01*
X37040Y30424D02*
G01X37267D01*
X37040D02*
G01Y30084D01*
X36672Y30141D02*
G01Y30311D01*
X36176Y30141D02*
G01Y30084D01*
X36119*
Y30141*
X36176*
X35978Y30084D02*
G01X35751D01*
X35978Y30311*
Y30367*
X35921Y30424*
X35808*
X35751Y30367*
X36008Y28424D02*
G01X35951Y28367D01*
X36008Y28424D02*
G01X36121D01*
X36178Y28367*
Y28311*
X35951Y28084*
X36178*
X36319D02*
G01X36546Y28311D01*
Y28367*
X36490Y28424*
X36376*
X36319Y28367*
X36688D02*
G01Y28141D01*
X36915Y28367*
Y28141*
X36858Y28084*
X36744*
X36688Y28141*
X36546Y28084D02*
G01X36319D01*
X36688Y28367D02*
G01X36744Y28424D01*
X36858*
X36915Y28367*
X36872Y26424D02*
G01Y26084D01*
Y26197D02*
G01X37042Y26084D01*
X36872Y26197D02*
G01X37042Y26311D01*
X36730D02*
G01X36674Y26254D01*
X36730Y26197*
Y26141*
X36674Y26084*
X36560*
X36504Y26141*
X36376D02*
G01Y26084D01*
X36319*
Y26141*
X36376*
X36178D02*
G01Y26197D01*
X36121Y26254*
X36065*
X36121D02*
G01X36178Y26311D01*
Y26367*
X36121Y26424*
X36008*
X35951Y26367*
Y26141D02*
G01X36008Y26084D01*
X36121*
X36178Y26141*
X36504Y26367D02*
G01X36560Y26424D01*
X36674*
X36730Y26367*
Y26311*
X36674Y26254D02*
G01X36617D01*
X36688Y24424D02*
G01X36915D01*
X36801Y24254D02*
G01X36688D01*
X36546Y24311D02*
G01Y24084D01*
X36376*
X36319Y24141*
Y24311*
X36178Y24084D02*
G01X35951D01*
X36065D02*
G01Y24424D01*
X35951Y24311*
X36688Y24424D02*
G01Y24084D01*
X33621Y24004D02*
G01Y23654D01*
Y24004D02*
G01Y24954D01*
Y25354*
X32821Y25704D02*
G01X32721D01*
Y25804*
X32121*
Y25704*
X32021*
X31221Y25354D02*
G01Y25004D01*
Y24004*
Y23654*
X32021Y23304D02*
G01X32121D01*
Y23204*
X32721*
Y23304*
X32821*
X32321Y24504D02*
G01X32323Y24524D01*
X32329Y24542*
X32338Y24560*
X32350Y24575*
X32365Y24587*
X32383Y24596*
X32401Y24602*
X32421Y24604*
X32441Y24602*
X32459Y24596*
X32477Y24587*
X32492Y24575*
X32504Y24560*
X32513Y24542*
X32519Y24524*
X32521Y24504*
X32519Y24484*
X32513Y24466*
X32504Y24448*
X32492Y24433*
X32477Y24421*
X32459Y24412*
X32441Y24406*
X32421Y24404*
X32401Y24406*
X32383Y24412*
X32365Y24421*
X32350Y24433*
X32338Y24448*
X32329Y24466*
X32323Y24484*
X32321Y24504*
X31721D02*
G01X31723Y24556D01*
X31729Y24608*
X31739Y24660*
X31752Y24710*
X31769Y24760*
X31790Y24808*
X31815Y24854*
X31843Y24898*
X31874Y24940*
X31908Y24980*
X31945Y25017*
X31985Y25051*
X32027Y25082*
X32071Y25110*
X32117Y25135*
X32165Y25156*
X32215Y25173*
X32265Y25186*
X32317Y25196*
X32369Y25202*
X32421Y25204*
X32473Y25202*
X32525Y25196*
X32577Y25186*
X32627Y25173*
X32677Y25156*
X32725Y25135*
X32771Y25110*
X32815Y25082*
X32857Y25051*
X32897Y25017*
X32934Y24980*
X32968Y24940*
X32999Y24898*
X33027Y24854*
X33052Y24808*
X33073Y24760*
X33090Y24710*
X33103Y24660*
X33113Y24608*
X33119Y24556*
X33121Y24504*
X33119Y24452*
X33113Y24400*
X33103Y24348*
X33090Y24298*
X33073Y24248*
X33052Y24200*
X33027Y24154*
X32999Y24110*
X32968Y24068*
X32934Y24028*
X32897Y23991*
X32857Y23957*
X32815Y23926*
X32771Y23898*
X32725Y23873*
X32677Y23852*
X32627Y23835*
X32577Y23822*
X32525Y23812*
X32473Y23806*
X32421Y23804*
X32369Y23806*
X32317Y23812*
X32265Y23822*
X32215Y23835*
X32165Y23852*
X32117Y23873*
X32071Y23898*
X32027Y23926*
X31985Y23957*
X31945Y23991*
X31908Y24028*
X31874Y24068*
X31843Y24110*
X31815Y24154*
X31790Y24200*
X31769Y24248*
X31752Y24298*
X31739Y24348*
X31729Y24400*
X31723Y24452*
X31721Y24504*
X31645Y26534D02*
G01X31498Y26681D01*
X31571D02*
G01X31351D01*
Y26534D02*
G01Y26974D01*
X31571*
X31645Y26901*
Y26754*
X31571Y26681*
X31811Y26754D02*
G01X31958D01*
X31811Y26534D02*
G01X32105D01*
X32272Y26607D02*
G01X32345Y26534D01*
X32492*
X32565Y26607*
Y26681*
X32492Y26754*
X32345*
X32272Y26828*
Y26901*
X32345Y26974*
X32492*
X32565Y26901*
X32732Y26974D02*
G01Y26534D01*
X33026*
X32879Y26754D02*
G01X32732D01*
Y26974D02*
G01X33026D01*
X33193D02*
G01X33486D01*
X33339D02*
G01Y26534D01*
X32105Y26974D02*
G01X31811D01*
Y26534*
X30338Y29265D02*
G01X29256D01*
Y31665*
X29056Y31465*
Y29465*
X29256Y29265*
Y31665D02*
G01X30338D01*
X40701Y26836D02*
G01Y26722D01*
X40758Y26666*
X40984*
X40758Y26892*
X40984*
X41041Y26836*
Y26722*
X40984Y26666*
X41041Y26524D02*
G01Y26297D01*
Y26411D02*
G01X40701D01*
X40814Y26297*
X40701Y26836D02*
G01X40758Y26892D01*
X41701Y26902D02*
G01X41758Y26845D01*
X42041*
X41871Y26788D02*
G01Y26902D01*
X41814Y26647D02*
G01X42041D01*
Y26477*
X41984Y26420*
X41814*
X42041Y26279D02*
G01Y26052D01*
Y26165D02*
G01X41701D01*
X41814Y26052*
X41984Y25924D02*
G01X42041D01*
Y25868*
X41984*
Y25924*
X42701Y25797D02*
G01X42814Y25683D01*
X42701Y25797D02*
G01X43041D01*
Y25910D02*
G01Y25683D01*
X42984Y26052D02*
G01X42758D01*
X42701Y26108*
Y26222*
X42758Y26279*
X42984Y26052*
X43041Y26108*
Y26222*
X42984Y26279*
X42758*
X42814Y26420D02*
G01X42984D01*
X43041Y26477*
Y26647*
X42814*
X42871Y26788D02*
G01Y26902D01*
X42758Y26845D02*
G01X43041D01*
X42758D02*
G01X42701Y26902D01*
X43701D02*
G01X43758Y26845D01*
X44041*
X43871Y26788D02*
G01Y26902D01*
X43814Y26647D02*
G01X44041D01*
Y26477*
X43984Y26420*
X43814*
X44041Y26279D02*
G01Y26052D01*
Y26165D02*
G01X43701D01*
X43814Y26052*
X43984Y25924D02*
G01X44041D01*
Y25868*
X43984*
Y25924*
X44251Y25374D02*
G01X44421D01*
X44478Y25317*
Y25091*
X44421Y25034*
X44251*
Y25374*
X44619Y25317D02*
G01X44676Y25374D01*
X44790*
X44846Y25317*
Y25261*
X44619Y25034*
X44846*
X47073Y26906D02*
G01Y27076D01*
X47130Y27133*
X47357*
X47414Y27076*
Y26906*
X47073*
X47187Y27275D02*
G01X47073Y27388D01*
X47414*
Y27275D02*
G01Y27501D01*
X46126Y28934D02*
G01X46183Y28991D01*
Y29104*
X46069*
X45956Y28991D02*
G01X46013Y28934D01*
X46126*
X45956Y28991D02*
G01Y29217D01*
X46013Y29274*
X46126*
X46183Y29217*
X45985Y29434D02*
G01X46099Y29547D01*
Y29774*
X45872D02*
G01Y29547D01*
X45985Y29434*
X45815Y29274D02*
G01X45588D01*
Y28934*
X45815*
X45701Y29104D02*
G01X45588D01*
X45446D02*
G01Y29217D01*
X45390Y29274*
X45219*
Y28934*
Y29047D02*
G01X45390D01*
X45446Y29104*
X45333Y29047D02*
G01X45446Y28934D01*
X45078Y29047D02*
G01Y29274D01*
X45121Y29434D02*
G01X45008D01*
X44951Y29491*
X45065Y29604D02*
G01X45121D01*
X45178Y29547*
Y29491*
X45121Y29434*
Y29604D02*
G01X45178Y29661D01*
Y29717*
X45121Y29774*
X45008*
X44951Y29717*
X45319Y29491D02*
G01X45376D01*
Y29434*
X45319*
Y29491*
X45504D02*
G01X45560Y29434D01*
X45674*
X45730Y29491*
Y29547*
X45674Y29604*
X45617*
X45674D02*
G01X45730Y29661D01*
Y29717*
X45674Y29774*
X45560*
X45504Y29717*
X44851Y29274D02*
G01Y29047D01*
X44965Y28934*
X45078Y29047*
X48047Y30353D02*
G01X48274D01*
X48161D02*
G01Y30693D01*
X48047Y30579*
X48416D02*
G01Y30636D01*
X48472Y30693*
X48586*
X48642Y30636*
Y30579*
X48586Y30523*
X48472*
X48416Y30579*
X48472Y30523D02*
G01X48416Y30466D01*
Y30409*
X48472Y30353*
X48586*
X48642Y30409*
Y30466*
X48586Y30523*
X48784Y30579D02*
G01X48954D01*
X49011Y30523*
Y30409*
X48954Y30353*
X48784*
Y30239D02*
G01Y30579D01*
X49152Y30523D02*
G01X49266D01*
X49209Y30636D02*
G01X49266Y30693D01*
X49209Y30636D02*
G01Y30353D01*
X49420Y31041D02*
G01X49477D01*
X49534Y31097*
Y31268*
X49647D02*
G01X49420D01*
X49364Y31211*
Y31097*
X49420Y31041*
X49647D02*
G01X49704Y31097D01*
Y31211*
X49647Y31268*
Y31409D02*
G01Y31466D01*
X49704*
Y31409*
X49647*
Y31593D02*
G01X49704Y31650D01*
Y31763*
X49647Y31820*
X49590*
X49534Y31763*
Y31593*
X49647*
X49534D02*
G01X49420Y31707D01*
X49364Y31820*
Y31961D02*
G01X49477Y32075D01*
X49364Y32188*
X49704*
Y32330D02*
G01X49364D01*
X49534D02*
G01Y32557D01*
X49477Y32698D02*
G01Y32925D01*
X49704Y32698*
Y32925*
Y32557D02*
G01X49364D01*
X48971Y32304D02*
G01Y31704D01*
X48969Y31687*
X48965Y31670*
X48958Y31654*
X48948Y31640*
X48935Y31627*
X48921Y31617*
X48905Y31610*
X48888Y31606*
X48871Y31604*
X46721*
Y31654*
Y32354*
Y32404*
X48871*
X48888Y32402*
X48905Y32398*
X48921Y32391*
X48935Y32381*
X48948Y32368*
X48958Y32354*
X48965Y32338*
X48969Y32321*
X48971Y32304*
X49364Y31961D02*
G01X49704D01*
X48221Y32004D02*
G01X48021D01*
Y31804*
X47871D02*
G01Y32204D01*
X47721*
Y31804*
X47871*
X48021Y32004D02*
G01Y32204D01*
X47571D02*
G01Y32004D01*
Y31804*
Y32004D02*
G01X47371D01*
X46721Y32354D02*
G01X46571D01*
Y31654*
X46721*
X48798Y33212D02*
G01Y33552D01*
X48968*
X49024Y33495*
Y33382*
X48968Y33325*
X48798*
X48656Y33382D02*
G01X48599Y33325D01*
X48486*
X48429Y33382*
Y33439*
X48486Y33495*
X48599*
X48656Y33439*
Y33382*
X48599Y33495D02*
G01X48656Y33552D01*
Y33609*
X48599Y33665*
X48486*
X48429Y33609*
Y33552*
X48486Y33495*
X48288Y33325D02*
G01X48061D01*
X48174D02*
G01Y33665D01*
X48061Y33552*
X49166Y33495D02*
G01X49279D01*
X49223Y33609D02*
G01Y33325D01*
Y33609D02*
G01X49279Y33665D01*
X51301Y33716D02*
G01X51641D01*
Y33943*
Y34084D02*
G01X51301D01*
Y34254*
X51358Y34311*
X51471*
X51528Y34254*
Y34084*
Y34198D02*
G01X51641Y34311D01*
X51301Y33943D02*
G01Y33716D01*
Y33574D02*
G01Y33348D01*
Y33461D02*
G01X51641D01*
Y33206D02*
G01Y32979D01*
X51301*
Y33206*
X51471Y33093D02*
G01Y32979D01*
X51301Y32838D02*
G01X51641D01*
X51861Y32858D02*
G01Y32971D01*
X51917Y33028*
X52144Y32801*
X52201Y32858*
Y32971*
X52144Y33028*
X51917*
X51861Y32858D02*
G01X51917Y32801D01*
X52144*
Y32659D02*
G01X51917D01*
X52144Y32433*
X52201Y32489*
Y32603*
X52144Y32659*
Y32433D02*
G01X51917D01*
X51861Y32489*
Y32603*
X51917Y32659*
X51641Y32611D02*
G01X51301D01*
X51414Y32724*
X51301Y32838*
X51358Y32470D02*
G01X51301Y32413D01*
Y32299*
X51358Y32243*
X51584*
X51641Y32299*
Y32413*
X51584Y32470*
X51358*
Y32101D02*
G01X51471D01*
X51528Y32045*
Y31874*
X51641D02*
G01X51301D01*
Y32045*
X51358Y32101*
X51528Y31988D02*
G01X51641Y32101D01*
X51861Y32064D02*
G01Y32291D01*
X51974Y32234D02*
G01X52031Y32291D01*
X52144*
X52201Y32234*
Y32121*
X52144Y32064*
X52031D02*
G01X51974Y32178D01*
Y32234*
X52031Y32064D02*
G01X51861D01*
X51917Y31923D02*
G01X52144Y31696D01*
X52201Y31753*
Y31866*
X52144Y31923*
X51917*
X51861Y31866*
Y31753*
X51917Y31696*
X52144*
Y31554D02*
G01X51917D01*
X51861Y31498*
Y31328*
X52201*
Y31498*
X52144Y31554*
X52201Y31186D02*
G01X51861D01*
X51974Y31073*
X51861Y30959*
X52201*
X51641Y30996D02*
G01Y30769D01*
X51301*
Y30996*
Y31138D02*
G01X51641D01*
Y31365*
Y31506D02*
G01X51301D01*
Y31733*
X51471Y31620D02*
G01Y31506D01*
X51641D02*
G01Y31733D01*
X51471Y30883D02*
G01Y30769D01*
X51358Y30628D02*
G01X51301Y30571D01*
Y30458*
X51358Y30401*
X51584*
X51641Y30458*
Y30571*
X51584Y30628*
Y30260D02*
G01X51641Y30203D01*
Y30090*
X51584Y30033*
X51358*
X51301Y30090*
Y30203*
X51358Y30260*
X51414Y29891D02*
G01X51641D01*
X51471D02*
G01Y29665D01*
X51414D02*
G01X51301Y29778D01*
X51414Y29891*
Y29665D02*
G01X51641D01*
X53159Y31087D02*
G01Y31427D01*
X53272Y31313*
X53385Y31427*
Y31087*
X53527D02*
G01X53697D01*
X53754Y31143*
Y31370*
X53697Y31427*
X53527*
Y31087*
X53895Y31143D02*
G01Y31370D01*
X53952Y31427*
X54065*
X54122Y31370*
X53895Y31143*
X53952Y31087*
X54065*
X54122Y31143*
Y31370*
X54264Y31427D02*
G01Y31257D01*
X54377Y31313*
X54434*
X54490Y31257*
Y31143*
X54434Y31087*
X54320*
X54264Y31143*
X54632D02*
G01X54689Y31087D01*
X54802*
X54859Y31143*
Y31200*
X54802Y31257*
X54745*
X54802D02*
G01X54859Y31313D01*
Y31370*
X54802Y31427*
X54689*
X54632Y31370*
X54490Y31427D02*
G01X54264D01*
X54331Y31691D02*
G01X54274Y31748D01*
X54331Y31691D02*
G01X54445D01*
X54501Y31748*
Y31805*
X54445Y31861*
X54331*
X54274Y31918*
Y31975*
X54331Y32032*
X54445*
X54501Y31975*
X54643D02*
G01Y31748D01*
X54699Y31691*
X54813*
X54870Y31748*
Y31975*
X54813Y32032*
X54699*
X54643Y31975*
X55011Y32032D02*
G01Y31691D01*
Y31805D02*
G01X55181D01*
X55238Y31861*
Y31975*
X55181Y32032*
X55011*
X55125Y31805D02*
G01X55238Y31691D01*
X55227Y31427D02*
G01X55114Y31370D01*
X55000Y31257*
X55170*
X55227Y31200*
Y31143*
X55170Y31087*
X55057*
X55000Y31143*
Y31257*
X54133Y31691D02*
G01Y32032D01*
X53906D02*
G01X54133Y31691D01*
X53906D02*
G01Y32032D01*
X53765D02*
G01X53538D01*
Y31691*
X53765*
X53651Y31861D02*
G01X53538D01*
X53396Y31805D02*
G01Y31748D01*
X53340Y31691*
X53226*
X53170Y31748*
X53226Y31861D02*
G01X53340D01*
X53396Y31805*
Y31975D02*
G01X53340Y32032D01*
X53226*
X53170Y31975*
Y31918*
X53226Y31861*
X53177Y32304D02*
G01Y32644D01*
X53347*
X53404Y32588*
Y32474*
X53347Y32418*
X53177*
X53546D02*
G01X53716D01*
X53772Y32474*
Y32588*
X53716Y32644*
X53546*
Y32304*
X53659Y32418D02*
G01X53772Y32304D01*
X53914D02*
G01X54141D01*
X54282Y32361D02*
G01X54339Y32304D01*
X54452*
X54509Y32361*
Y32418*
X54452Y32474*
X54339*
X54282Y32531*
Y32588*
X54339Y32644*
X54452*
X54509Y32588*
X54651D02*
G01Y32531D01*
X54707Y32474*
X54821*
X54877Y32418*
Y32361*
X54821Y32304*
X54707*
X54651Y32361*
Y32588D02*
G01X54707Y32644D01*
X54821*
X54877Y32588*
X55019Y32644D02*
G01Y32361D01*
X55076Y32304*
X55189*
X55246Y32361*
Y32644*
X55387D02*
G01X55557D01*
X55614Y32588*
Y32474*
X55557Y32418*
X55387*
X55501D02*
G01X55614Y32304D01*
X55755D02*
G01Y32644D01*
X55982*
X55869Y32474D02*
G01X55755D01*
Y32304D02*
G01X55982D01*
X55387D02*
G01Y32644D01*
X54141D02*
G01X53914D01*
Y32304*
Y32474D02*
G01X54027D01*
X51471Y33716D02*
G01Y33829D01*
X50071Y37504D02*
G01X49571D01*
X49321Y37754*
X49071Y37504*
X48571*
X48321Y37754*
X48071Y37504*
X47571*
X47321Y37754*
Y38254*
X47571Y38504*
X48071*
X48321Y38254*
X48571Y38504*
X49071*
X49321Y38254*
X49571Y38504*
X50071*
X50321Y38254*
Y37754*
X50071Y37504*
X49321Y37754D02*
G01Y38254D01*
X48321D02*
G01Y37754D01*
X46255Y38139D02*
G01X45914D01*
Y38309*
X45971Y38366*
X46084*
X46141Y38309*
Y38139*
X46084Y37997D02*
G01X46141Y37941D01*
Y37827*
X46084Y37771*
X45858Y37997*
X46084*
X45858D02*
G01X45801Y37941D01*
Y37827*
X45858Y37771*
X46084*
X45858Y37629D02*
G01X45801D01*
Y37402*
Y37204D02*
G01X45971Y37034D01*
Y37261*
X46141Y37204D02*
G01X45801D01*
X46084Y37402D02*
G01X46141D01*
X46084D02*
G01X45858Y37629D01*
X45141Y37586D02*
G01X44914Y37813D01*
X44858*
X44801Y37756*
Y37643*
X44858Y37586*
X45084Y37459D02*
G01Y37402D01*
X45141*
Y37459*
X45084*
X45141Y37586D02*
G01Y37813D01*
X45084Y37955D02*
G01X44914D01*
X45084D02*
G01X45141Y38011D01*
Y38182*
X44914*
X44971Y38323D02*
G01Y38436D01*
X45141Y38323D02*
G01X44801D01*
Y38550*
X45801Y38621D02*
G01X45858Y38564D01*
X46141*
X45971Y38507D02*
G01Y38621D01*
X45141Y37261D02*
G01Y37034D01*
X44914Y37261*
X44858*
X44801Y37204*
Y37091*
X44858Y37034*
X44141D02*
G01Y37261D01*
Y37147D02*
G01X43801D01*
X43914Y37034*
X43858Y37402D02*
G01X43801Y37459D01*
Y37572*
X43858Y37629*
X44084Y37402*
X44141Y37459*
Y37572*
X44084Y37629*
X43858*
Y37402D02*
G01X44084D01*
X43141Y37445D02*
G01Y37218D01*
Y37331D02*
G01X42801D01*
X42914Y37218*
X43084Y37091D02*
G01X43141D01*
Y37034*
X43084*
Y37091*
Y37586D02*
G01X43141Y37643D01*
Y37813*
X42914*
X42971Y37955D02*
G01Y38068D01*
X42858Y38011D02*
G01X42801Y38068D01*
X42858Y38011D02*
G01X43141D01*
X43084Y37586D02*
G01X42914D01*
X42141Y37643D02*
G01X42084Y37586D01*
X41914*
Y37813D02*
G01X42141D01*
Y37643*
Y37445D02*
G01Y37218D01*
Y37331D02*
G01X41801D01*
X41914Y37218*
X42084Y37091D02*
G01X42141D01*
Y37034*
X42084*
Y37091*
X41141Y37034D02*
G01X40914Y37261D01*
X40858*
X40801Y37204*
Y37091*
X40858Y37034*
X41141D02*
G01Y37261D01*
Y37402D02*
G01X40914Y37629D01*
X40858*
X40801Y37572*
Y37459*
X40858Y37402*
X41141D02*
G01Y37629D01*
X41084Y37771D02*
G01X40858D01*
X40801Y37827*
Y37941*
X40858Y37997*
X41084Y37771*
X41141Y37827*
Y37941*
X41084Y37997*
X40858*
X41801Y38068D02*
G01X41858Y38011D01*
X42141*
X41971Y37955D02*
G01Y38068D01*
X33921Y40254D02*
G01X33671Y40004D01*
X33171*
X32921Y40254*
X32671Y40004*
X32171*
X31921Y40254*
X31671Y40004*
X31171*
X30921Y40254*
Y40754*
X31171Y41004*
X31671*
X31921Y40754*
X32171Y41004*
X32671*
X32921Y40754*
X33171Y41004*
X33671*
X33921Y40754*
Y40254*
X32921D02*
G01Y40754D01*
X31921D02*
G01Y40254D01*
X49564Y28397D02*
G01X49678Y28227D01*
X49791Y28397*
Y28227D02*
G01X49451D01*
X49508Y28086D02*
G01X49734Y27859D01*
X49791Y27915*
Y28029*
X49734Y28086*
X49508*
X49451Y28029*
Y27915*
X49508Y27859*
X49734*
X49791Y27717D02*
G01Y27490D01*
Y27604D02*
G01X49451D01*
X49564Y27490*
X55851Y25617D02*
G01Y25391D01*
X55908Y25334*
X56021*
X56078Y25391*
Y25504*
X55965*
X56078Y25617D02*
G01X56021Y25674D01*
X55908*
X55851Y25617*
X56219Y25674D02*
G01Y25334D01*
X56446D02*
G01X56219Y25674D01*
X56446D02*
G01Y25334D01*
X56588D02*
G01X56758D01*
X56815Y25391*
Y25617*
X56758Y25674*
X56588*
Y25334*
X56488Y24674D02*
G01Y24447D01*
X56601Y24334*
X56715Y24447*
Y24674*
X56346D02*
G01X56119D01*
Y24504*
X56233Y24561*
X56290*
X56346Y24504*
Y24391*
X56290Y24334*
X56176*
X56119Y24391*
X55978Y24504D02*
G01X55751D01*
X55865Y24617D02*
G01Y24391D01*
G54D73*
X55621Y24004D02*
G01X49621D01*
Y25004*
X55621*
Y24004*
Y23004*
X49621*
Y24004*
X55621*
Y25004D02*
G01X49621D01*
Y26004*
X55621*
Y25004*
X56421Y26254D02*
G01Y27254D01*
X50421*
Y26254*
X56421*
X51171Y29754D02*
G01Y30254D01*
X50921Y30504*
X51171Y30754*
Y31254*
X50921Y31504*
X51171Y31754*
Y32254*
X50921Y32504*
X51171Y32754*
Y33254*
X50921Y33504*
X51171Y33754*
Y34254*
X50921Y34504*
X50421*
X50171Y34254*
Y33754*
X50421Y33504*
X50171Y33254*
Y32754*
X50421Y32504*
X50171Y32254*
Y31754*
X50421Y31504*
X50171Y31254*
Y30754*
X50421Y30504*
X50171Y30254*
Y29754*
X50421Y29504*
X50921*
X51171Y29754*
X46254Y28290D02*
G01Y27779D01*
X45112*
Y28290*
X46254*
X44296Y30629D02*
G01X44046D01*
X44296D02*
G01Y30854D01*
X41796Y30629D02*
G01X41546D01*
Y30854*
Y33154D02*
G01Y33379D01*
X41771*
X40921Y33504D02*
G01X40923Y33535D01*
X40929Y33566*
X40939Y33596*
X40952Y33624*
X40969Y33651*
X40989Y33675*
X41012Y33697*
X41037Y33715*
X41065Y33730*
X41094Y33742*
X41124Y33750*
X41155Y33754*
X41187*
X41218Y33750*
X41248Y33742*
X41277Y33730*
X41305Y33715*
X41330Y33697*
X41353Y33675*
X41373Y33651*
X41390Y33624*
X41403Y33596*
X41413Y33566*
X41419Y33535*
X41421Y33504*
X41419Y33473*
X41413Y33442*
X41403Y33412*
X41390Y33384*
X41373Y33357*
X41353Y33333*
X41330Y33311*
X41305Y33293*
X41277Y33278*
X41248Y33266*
X41218Y33258*
X41187Y33254*
X41155*
X41124Y33258*
X41094Y33266*
X41065Y33278*
X41037Y33293*
X41012Y33311*
X40989Y33333*
X40969Y33357*
X40952Y33384*
X40939Y33412*
X40929Y33442*
X40923Y33473*
X40921Y33504*
X44071Y33379D02*
G01X44271D01*
Y33179*
X50421Y36004D02*
G01Y37004D01*
X56421*
Y36004*
X50421*
X47571Y38904D02*
G01X55571D01*
Y39904*
X47571*
Y38904*
X47021D02*
G01Y39904D01*
X39021*
Y38904*
X47021*
Y39904D02*
G01Y40904D01*
X39021*
Y39904*
X47021*
X47571D02*
G01X55571D01*
Y40904*
X47571*
Y39904*
X38863Y39592D02*
G01Y39358D01*
X38805Y39300*
X38630*
Y39650*
X38805*
X38863Y39592*
X38495Y39650D02*
G01Y39300D01*
X38261Y39650*
Y39300*
X38126Y39358D02*
G01Y39475D01*
X38010*
X38126Y39592D02*
G01X38068Y39650D01*
X37951*
X37893Y39592*
Y39358*
X37951Y39300*
X38068*
X38126Y39358*
X34644Y31403D02*
G01X34419D01*
X34344Y31327*
X34419Y31252*
X34644*
Y31102D02*
G01X34344D01*
Y31177*
X34419Y31252*
Y30942D02*
G01X34644D01*
Y30792D02*
G01X34419D01*
X34344Y30867*
X34419Y30942*
Y30792D02*
G01X34344Y30717D01*
Y30642*
X34644*
X34569Y30482D02*
G01X34419D01*
X34344Y30407*
Y30332*
X34419Y30182*
X34194*
Y30482*
X34569D02*
G01X34644Y30407D01*
Y30257*
X34569Y30182*
Y30025D02*
G01Y29950D01*
X34644*
Y30025*
X34569*
X34644D02*
G01X34794Y29875D01*
X34569Y29715D02*
G01X34644Y29640D01*
Y29489*
X34569Y29414*
X34419Y29564D02*
G01Y29640D01*
X34494Y29715*
X34569*
X34419Y29640D02*
G01X34344Y29715D01*
X34269*
X34194Y29640*
Y29489*
X34269Y29414*
X42621Y24004D02*
G01Y23004D01*
X48621*
Y24004*
X42621*
G54D33*
X44673Y26157D02*
G01Y26551D01*
X44476Y26354D02*
G01X44870D01*
X47717Y26493D02*
G01X48111D01*
X47914Y26689D02*
G01Y26296D01*
G54D34*
X48010Y35148D02*
G01X48290D01*
X48470D02*
G01X48750D01*
X48930D02*
G01X49211D01*
X49391Y35218D02*
G01X49461Y35148D01*
X49601*
X49671Y35218*
X49391D02*
G01Y35498D01*
X49461Y35568*
X49601*
X49671Y35498*
X49851Y35568D02*
G01X50131D01*
X49991D02*
G01Y35148D01*
X49211Y35568D02*
G01X48930D01*
Y35148*
Y35358D02*
G01X49070D01*
X49017Y35799D02*
G01Y36220D01*
X49297Y35799*
Y36220*
X48850D02*
G01X48710D01*
X48780D02*
G01Y35799D01*
X48710D02*
G01X48850D01*
X48530Y36010D02*
G01Y36150D01*
X48460Y36220*
X48250*
Y35799*
Y35939D02*
G01X48460D01*
X48530Y36010*
X48470Y35568D02*
G01Y35148D01*
X48150Y35358D02*
G01X48010D01*
X47830Y35288D02*
G01Y35218D01*
X47759Y35148*
X47619*
X47549Y35218*
X47619Y35358D02*
G01X47759D01*
X47830Y35288*
Y35498D02*
G01X47759Y35568D01*
X47619*
X47549Y35498*
Y35428*
X47619Y35358*
X48010Y35568D02*
G01Y35148D01*
Y35568D02*
G01X48290D01*
X37470Y40344D02*
G01Y40764D01*
X37330D02*
G01X37610D01*
X37150D02*
G01Y40414D01*
X37080Y40344*
X36940*
X36870Y40414*
Y40764*
X36690Y40694D02*
G01X36620Y40764D01*
X36479*
X36409Y40694*
Y40414*
X36479Y40344*
X36620*
X36690Y40414*
Y40694*
X35769Y40764D02*
G01X35489D01*
Y40344*
X35769*
X35629Y40554D02*
G01X35489D01*
X35309Y40344D02*
G01Y40764D01*
X35028D02*
G01X35309Y40344D01*
X35028D02*
G01Y40764D01*
X34862D02*
G01X34721D01*
X34791D02*
G01Y40344D01*
X34721D02*
G01X34862D01*
X34541D02*
G01X34261D01*
Y40764*
X33896Y41420D02*
G01Y41740D01*
X33736Y41580D02*
G01X34056D01*
X33541D02*
G01X33461Y41500D01*
X33220*
Y41340D02*
G01Y41820D01*
X33461*
X33541Y41740*
Y41580*
X33380Y41500D02*
G01X33541Y41340D01*
X32584Y41491D02*
G01X32264D01*
X31877Y41527D02*
G01X31557D01*
X31717Y41687D02*
G01Y41367D01*
X31362Y41287D02*
G01X31042D01*
Y41767*
G54D29*
X37892Y39864D02*
G01X55570D01*
X49811Y37170D02*
G01Y36610D01*
X49624D02*
G01X49998D01*
X49624Y36984D02*
G01X49811Y37170D01*
X47957Y36886D02*
G01X47583D01*
X47863Y37167*
Y36606*
X49671Y26004D02*
G01X56921D01*
Y25004D02*
G01X49671D01*
G54D35*
X41909Y22640D02*
G01Y22150D01*
X41582D02*
G01Y22640D01*
X41746Y22477*
X41909Y22640*
X41393Y22559D02*
G01X41312Y22640D01*
X41148*
X41067Y22559*
Y22232*
X41148Y22150*
X41312*
X41393Y22232*
Y22559*
X40878D02*
G01X40796Y22640D01*
X40633*
X40551Y22559*
Y22232*
X40633Y22150*
X40796*
X40878Y22232*
X40375D02*
G01Y22150D01*
X40293*
Y22232*
X40375*
X40104Y22150D02*
G01X39777D01*
Y22640*
X40104*
X39941Y22395D02*
G01X39777D01*
X39589Y22232D02*
G01X39507Y22150D01*
X39344*
X39262Y22232*
Y22559*
X39344Y22640*
X39507*
X39589Y22559*
X39082Y22640D02*
G01X38918D01*
X39000D02*
G01Y22150D01*
X38918D02*
G01X39082D01*
X38729Y22313D02*
G01Y22640D01*
X38402D02*
G01Y22313D01*
X38566Y22150*
X38729Y22313*
X38214Y22150D02*
G01X37887D01*
Y22640*
X38214*
X38050Y22395D02*
G01X37887D01*
X37698Y22232D02*
G01Y22559D01*
X37616Y22640*
X37371*
Y22150*
X37616*
X37698Y22232*
X37183Y22150D02*
G01Y22640D01*
X36856D02*
G01X37183Y22150D01*
X36856D02*
G01Y22640D01*
X36667Y22559D02*
G01Y22395D01*
X36585Y22313*
X36340*
Y22150D02*
G01Y22640D01*
X36585*
X36667Y22559*
X36503Y22313D02*
G01X36667Y22150D01*
X36151D02*
G01X35824D01*
Y22640*
X36151*
X35988Y22395D02*
G01X35824D01*
X35636Y22232D02*
G01X35554Y22150D01*
X35309*
Y22640*
X35554*
X35636Y22559*
Y22232*
X35120D02*
G01Y22559D01*
X35038Y22640*
X34875*
X34793Y22559*
Y22232*
X34875Y22150*
X35038*
X35120Y22232*
X34604Y22150D02*
G01Y22640D01*
X34441Y22477*
X34277Y22640*
Y22150*
G54D36*
X34192Y33597D02*
G01X34065D01*
X33938Y33724*
Y33978*
X34065Y34105*
X34319Y33978D02*
G01X34445Y34105D01*
X34572*
X34699Y33978*
Y33724*
X34572Y33597*
X34319Y33724D02*
G01Y33978D01*
Y33724D02*
G01X34192Y33597D01*
X34319Y34426D02*
G01Y34933D01*
X34699D02*
G01X33938D01*
Y35255D02*
G01Y35508D01*
Y35382D02*
G01X34699D01*
Y35508D02*
G01Y35255D01*
Y35807D02*
G01X33938D01*
Y36314*
X34319Y36061D02*
G01Y35807D01*
X34699D02*
G01Y36314D01*
Y36636D02*
G01X33938D01*
X34699D02*
G01Y37143D01*
Y37465D02*
G01X33938D01*
Y37845*
X34065Y37972*
X34572*
X34699Y37845*
Y37465*
X33190Y37466D02*
G01X32430D01*
X32810D02*
G01Y36959D01*
X33190D02*
G01X32430D01*
Y36637D02*
G01Y36130D01*
Y36384D02*
G01X33190D01*
Y35809D02*
G01X32430D01*
Y35302D02*
G01X33190Y35809D01*
Y35302D02*
G01X32430D01*
Y34980D02*
G01X32556D01*
X32810Y34726*
X33190*
X32810D02*
G01X32556Y34473D01*
X32430*
X32556Y34151D02*
G01X32430Y34025D01*
Y33771*
X32556Y33644*
X32683*
X32810Y33771*
Y34025*
X32937Y34151*
X33063*
X33190Y34025*
Y33771*
X33063Y33644*
X33938Y34426D02*
G01X34699D01*
X31637Y34466D02*
G01Y34974D01*
X31510Y35295D02*
G01X30876D01*
Y35802D02*
G01X31510D01*
X31637Y35676*
Y35422*
X31510Y35295*
X31637Y36124D02*
G01X30876Y36631D01*
X31130Y36953D02*
G01X30876Y37206D01*
X31130Y37460*
X31637*
Y37781D02*
G01X30876D01*
X31130Y38035*
X30876Y38288*
X31637*
Y38610D02*
G01X31130D01*
X30876Y38864*
X31130Y39117*
X31637*
X31257D02*
G01Y38610D01*
Y37460D02*
G01Y36953D01*
X31130D02*
G01X31637D01*
Y36631D02*
G01X30876Y36124D01*
Y34466D02*
G01X31637D01*
X30876Y34145D02*
G01Y33638D01*
X31637*
X31257D02*
G01Y33891D01*
G54D31*
X32021Y33504D02*
G01Y39504D01*
X33621D02*
G01Y33504D01*
X35121D02*
G01Y39504D01*
X34121Y23004D02*
G01X41921D01*
G54D37*
X41971Y23321D02*
G01X41664D01*
X41817D02*
G01Y23782D01*
X41664Y23628*
X41510Y23398D02*
G01Y23321D01*
X41434*
Y23398*
X41510*
X41280Y23321D02*
G01X40973D01*
X41280Y23628*
Y23705*
X41203Y23782*
X41050*
X40973Y23705*
X40820Y23398D02*
G01Y23321D01*
X40743*
Y23398*
X40820*
X40590Y23475D02*
G01X40436Y23321D01*
X40283Y23475*
Y23782*
X40129D02*
G01X39822D01*
Y23321*
X40129*
X39976Y23552D02*
G01X39822D01*
X39669D02*
G01X39592Y23475D01*
X39362*
X39516D02*
G01X39669Y23321D01*
Y23552D02*
G01Y23705D01*
X39592Y23782*
X39362*
Y23321*
X40590Y23475D02*
G01Y23782D01*
X41711Y33784D02*
G01Y33971D01*
X41804Y34064*
X41898Y33971*
Y33784*
Y33924D02*
G01X41711D01*
X42006Y34064D02*
G01X42193D01*
X42099D02*
G01Y33784D01*
X42300Y33831D02*
G01X42347Y33784D01*
X42441*
X42487Y33831*
Y33877*
X42441Y33924*
X42347*
X42300Y33971*
Y34017*
X42347Y34064*
X42441*
X42487Y34017*
X42595Y33971D02*
G01Y33784D01*
Y33924D02*
G01X42782D01*
Y33971D02*
G01Y33784D01*
X42890D02*
G01Y34064D01*
X42983Y33971*
X43076Y34064*
Y33784*
X43184D02*
G01X43371Y33971D01*
Y34017*
X43324Y34064*
X43231*
X43184Y34017*
Y33784D02*
G01X43371D01*
X43479D02*
G01X43666D01*
X43572D02*
G01Y34064D01*
X43479Y33971*
X43774D02*
G01X43820Y33924D01*
X43960*
Y33831D02*
G01Y34017D01*
X43914Y34064*
X43820*
X43774Y34017*
Y33971*
Y33831D02*
G01X43820Y33784D01*
X43914*
X43960Y33831*
X44068D02*
G01X44115Y33784D01*
X44208*
X44255Y33831*
Y33924*
X44208Y33971*
X44162*
X44068Y33924*
Y34064*
X44255*
X42782Y33971D02*
G01X42688Y34064D01*
X42595Y33971*
G54D38*
X29921Y42504D02*
G01Y21504D01*
X56121*
Y22484*
X56131*
X57141Y23494*
Y36424*
X56121Y37444*
Y41834*
X55451Y42504*
X29921*
X31189Y32433D02*
G01X31191Y32467D01*
X31197Y32501*
X31207Y32534*
X31220Y32565*
X31238Y32595*
X31258Y32623*
X31282Y32648*
X31308Y32670*
X31336Y32688*
X31367Y32704*
X31399Y32716*
X31433Y32724*
X31467Y32728*
X31501*
X31535Y32724*
X31569Y32716*
X31601Y32704*
X31631Y32688*
X31660Y32670*
X31686Y32648*
X31710Y32623*
X31730Y32595*
X31748Y32565*
X31761Y32534*
X31771Y32501*
X31777Y32467*
X31779Y32433*
X31777Y32399*
X31771Y32365*
X31761Y32332*
X31748Y32301*
X31730Y32271*
X31710Y32243*
X31686Y32218*
X31660Y32196*
X31632Y32178*
X31601Y32162*
X31569Y32150*
X31535Y32142*
X31501Y32138*
X31467*
X31433Y32142*
X31399Y32150*
X31367Y32162*
X31336Y32178*
X31308Y32196*
X31282Y32218*
X31258Y32243*
X31238Y32271*
X31220Y32301*
X31207Y32332*
X31197Y32365*
X31191Y32399*
X31189Y32433*
X33158Y30465D02*
G01X33160Y30499D01*
X33166Y30533*
X33176Y30566*
X33189Y30597*
X33207Y30627*
X33227Y30655*
X33251Y30680*
X33277Y30702*
X33305Y30720*
X33336Y30736*
X33368Y30748*
X33402Y30756*
X33436Y30760*
X33470*
X33504Y30756*
X33538Y30748*
X33570Y30736*
X33600Y30720*
X33629Y30702*
X33655Y30680*
X33679Y30655*
X33699Y30627*
X33717Y30597*
X33730Y30566*
X33740Y30533*
X33746Y30499*
X33748Y30465*
X33746Y30431*
X33740Y30397*
X33730Y30364*
X33717Y30333*
X33699Y30303*
X33679Y30275*
X33655Y30250*
X33629Y30228*
X33601Y30210*
X33570Y30194*
X33538Y30182*
X33504Y30174*
X33470Y30170*
X33436*
X33402Y30174*
X33368Y30182*
X33336Y30194*
X33305Y30210*
X33277Y30228*
X33251Y30250*
X33227Y30275*
X33207Y30303*
X33189Y30333*
X33176Y30364*
X33166Y30397*
X33160Y30431*
X33158Y30465*
X31189Y28496D02*
G01X31191Y28530D01*
X31197Y28564*
X31207Y28597*
X31220Y28628*
X31238Y28658*
X31258Y28686*
X31282Y28711*
X31308Y28733*
X31336Y28751*
X31367Y28767*
X31399Y28779*
X31433Y28787*
X31467Y28791*
X31501*
X31535Y28787*
X31569Y28779*
X31601Y28767*
X31631Y28751*
X31660Y28733*
X31686Y28711*
X31710Y28686*
X31730Y28658*
X31748Y28628*
X31761Y28597*
X31771Y28564*
X31777Y28530*
X31779Y28496*
X31777Y28462*
X31771Y28428*
X31761Y28395*
X31748Y28364*
X31730Y28334*
X31710Y28306*
X31686Y28281*
X31660Y28259*
X31632Y28241*
X31601Y28225*
X31569Y28213*
X31535Y28205*
X31501Y28201*
X31467*
X31433Y28205*
X31399Y28213*
X31367Y28225*
X31336Y28241*
X31308Y28259*
X31282Y28281*
X31258Y28306*
X31238Y28334*
X31220Y28364*
X31207Y28395*
X31197Y28428*
X31191Y28462*
X31189Y28496*
G54D40*
X46478Y41943D02*
G01X46429Y41991D01*
Y42040*
X46478Y42088*
X46575*
X46623Y42040*
Y41991*
X46575Y41943*
X46478*
Y42088D02*
G01X46429Y42136D01*
Y42185*
X46478Y42233*
X46575*
X46623Y42185*
Y42136*
X46575Y42088*
X45623Y42078D02*
G01X45478D01*
X45429Y42126*
Y42175*
X45478Y42223*
X45575*
X45623Y42175*
Y41981*
X45575Y41933*
X45478*
X45429Y41981*
X44753D02*
G01X44705Y41933D01*
X44608*
X44559Y41981*
X44753Y42175*
Y41981*
X44559D02*
G01Y42175D01*
X44608Y42223*
X44705*
X44753Y42175*
X44362Y42223D02*
G01Y41933D01*
X44458D02*
G01X44265D01*
Y42126D02*
G01X44362Y42223D01*
X43753Y41943D02*
G01X43559D01*
X43656D02*
G01Y42233D01*
X43559Y42136*
X43458Y41943D02*
G01X43265D01*
X43362D02*
G01Y42233D01*
X43265Y42136*
X42753D02*
G01X42559Y41943D01*
X42753*
Y42136D02*
G01Y42185D01*
X42705Y42233*
X42608*
X42559Y42185*
X42362Y42233D02*
G01X42265Y42136D01*
X42362Y42233D02*
G01Y41943D01*
X42458D02*
G01X42265D01*
X41753Y41971D02*
G01X41705Y41923D01*
X41608*
X41559Y41971*
X41458Y41923D02*
G01X41265D01*
X41362D02*
G01Y42213D01*
X41265Y42116*
X41559Y42165D02*
G01X41608Y42213D01*
X41705*
X41753Y42165*
Y42116*
X41705Y42068*
X41753Y42020*
Y41971*
X41705Y42068D02*
G01X41656D01*
X40883Y42126D02*
G01X40738D01*
X40689Y42078*
Y41981*
X40738Y41933*
X40883*
Y42223*
X40588Y42078D02*
G01Y41933D01*
Y42078D02*
G01X40540Y42126D01*
X40395*
Y41933*
X40294D02*
G01X40149D01*
X40100Y41981*
Y42078*
X40149Y42126*
X40294*
Y41885*
X40245Y41836*
X40197*
X39742Y41931D02*
G01Y42173D01*
X39790Y42221*
Y42076D02*
G01X39694D01*
X39592D02*
G01Y42028D01*
X39399*
Y42076D02*
G01X39447Y42124D01*
X39544*
X39592Y42076*
X39544Y41931D02*
G01X39447D01*
X39399Y41979*
Y42076*
X39298D02*
G01X39249Y42028D01*
X39104*
Y41931D02*
G01Y42221D01*
X39249*
X39298Y42173*
Y42076*
X39201Y42028D02*
G01X39298Y41931D01*
X39003D02*
G01Y42124D01*
X38906Y42221*
X38810Y42124*
Y41931*
Y42076D02*
G01X39003D01*
X48059Y41961D02*
G01Y41913D01*
Y41961D02*
G01X48253Y42155D01*
Y42203*
X48059*
X48969Y42088D02*
G01X49115D01*
X49163Y42040*
Y41991*
X49115Y41943*
X49018*
X48969Y41991*
Y42088*
X49066Y42185*
X49163Y42233*
X49979Y42213D02*
G01Y42068D01*
X50076Y42116*
X50125*
X50173Y42068*
Y41971*
X50125Y41923*
X50028*
X49979Y41971*
Y42213D02*
G01X50173D01*
X50939Y42068D02*
G01X51133D01*
X51085Y41923D02*
G01Y42213D01*
X50939Y42068*
X51979Y41971D02*
G01X52028Y41923D01*
X52125*
X52173Y41971*
Y42020*
X52125Y42068*
X52076*
X52125D02*
G01X52173Y42116D01*
Y42165*
X52125Y42213*
X52028*
X51979Y42165*
X52959Y42155D02*
G01X53008Y42203D01*
X53105*
X53153Y42155*
Y42106*
X52959Y41913*
X53153*
X53969D02*
G01X54163D01*
X54066D02*
G01Y42203D01*
X53969Y42106*
X54989Y42165D02*
G01X55038Y42213D01*
X55135*
X55183Y42165*
X54989Y41971*
X55038Y41923*
X55135*
X55183Y41971*
Y42165*
X54989D02*
G01Y41971D01*
X53185Y22081D02*
G01X53234Y22033D01*
Y21984*
X53185Y21936*
X53234Y21888*
Y21839*
X53185Y21791*
X53088*
X53040Y21839*
X53137Y21936D02*
G01X53185D01*
Y22081D02*
G01X53088D01*
X53040Y22033*
X52224Y22053D02*
G01X52175Y22101D01*
X52078*
X52030Y22053*
X52224D02*
G01Y22004D01*
X52030Y21811*
X52224*
X51244Y21791D02*
G01X51050D01*
X51147D02*
G01Y22081D01*
X51050Y21984*
X50214Y22033D02*
G01Y21839D01*
X50165Y21791*
X50068*
X50020Y21839*
X50214Y22033*
X50165Y22081*
X50068*
X50020Y22033*
Y21839*
X48493Y21898D02*
G01Y21753D01*
Y21898D02*
G01X48445Y21946D01*
X48299*
Y21753*
X48200D02*
G01X48103D01*
X48151D02*
G01Y21946D01*
X48103*
X48151Y22043D02*
G01Y22092D01*
X48002Y22043D02*
G01Y21850D01*
X47905Y21753*
X47808Y21850*
Y22043*
X46943Y22061D02*
G01Y21771D01*
X46798*
X46749Y21819*
Y21916*
X46798Y21964*
X46943*
X46648Y21916D02*
G01Y21771D01*
Y21916D02*
G01X46600Y21964D01*
X46455*
Y21771*
X46354Y21819D02*
G01Y21916D01*
X46257*
X46354Y21819D02*
G01X46305Y21771D01*
X46208*
X46160Y21819*
Y22013*
X46208Y22061*
X46305*
X46354Y22013*
X45413Y21976D02*
G01X45316Y21783D01*
X45219Y21976*
X45118Y21928D02*
G01Y21831D01*
X45070Y21783*
X44973*
X44925Y21831*
Y21928D02*
G01X45022Y21976D01*
X45070*
X45118Y21928*
Y22073D02*
G01X44925D01*
Y21928*
X44343Y21986D02*
G01X44246Y21793D01*
X44149Y21986*
X44048D02*
G01X44000Y21938D01*
X44048Y21890*
Y21841*
X44000Y21793*
X43903*
X43855Y21841*
X43952Y21938D02*
G01X44000D01*
X44048Y21986D02*
G01Y22035D01*
X44000Y22083*
X43903*
X43855Y22035*
X43479Y22081D02*
G01X43285D01*
X43382D02*
G01Y21791D01*
X43184Y21839D02*
G01X43136Y21791D01*
X43039*
X42991Y21839*
X43039Y21936D02*
G01X43136D01*
X43184Y21888*
Y21839*
X43039Y21936D02*
G01X42991Y21984D01*
Y22033*
X43039Y22081*
X43136*
X43184Y22033*
X42890D02*
G01X42841Y22081D01*
X42696*
Y21791*
Y21888D02*
G01X42841D01*
X42890Y21936*
Y22033*
X42793Y21888D02*
G01X42890Y21791D01*
X54020Y21926D02*
G01X54214D01*
X54165Y21781D02*
G01Y22071D01*
X54020Y21926*
X55020D02*
G01X55117Y21974D01*
X55165*
X55214Y21926*
Y21829*
X55165Y21781*
X55068*
X55020Y21829*
Y21926D02*
G01Y22071D01*
X55214*
G54D10*
X33621Y24004D02*
G01X33521D01*
Y24954*
X33621*
X31321Y25004D02*
G01Y24004D01*
X31221*
Y25004D02*
G01X31321D01*
M02*
