M48
INCH,TZ
VER,1
FMAT,2
T01C0.0236F100B1000S6H2000
T02C0.0315F100B1000S6H2000
T03C0.032F100B1000S6H2000
T04C0.0394F100B1000S6H2000
T05C0.04F100B1000S6H2000
T06C0.0591F100B1000S6H2000
DETECT,ON
ATC,ON
%
T01
X10451Y4504
X11001Y7104
X12201Y7504
X12501Y9204
X11801Y10104
X11001Y10804
Y11793
X13201Y10304
X15701Y8504
X19601Y7004
X22951
X20701Y4504
X17859Y11932
X17701Y12504
X17301Y13404
X16201
X14201Y13604
X12501
X15256Y16415
X17239Y16792
X19401Y16304
X18980Y13439
X37671Y4504
X38221Y7104
X39421Y7504
X39721Y9204
X39021Y10104
X38221Y10804
Y11793
X40421Y10304
X42921Y8504
X46821Y7004
X50171
X47921Y4504
X45079Y11932
X44921Y12504
X44521Y13404
X43421
X41421Y13604
X39721
X42476Y16415
X44459Y16792
X46621Y16304
X46200Y13439
X10451Y25504
X11001Y28104
X12201Y28504
X12501Y30204
X11801Y31104
X11001Y31804
Y32793
X13201Y31304
X15701Y29504
X19601Y28004
X22951
X20701Y25504
X17859Y32932
X17701Y33504
X17301Y34404
X16201
X14201Y34604
X12501
X15256Y37415
X17239Y37792
X19401Y37304
X18980Y34439
X37671Y25504
X38221Y28104
X39421Y28504
X39721Y30204
X39021Y31104
X38221Y31804
Y32793
X40421Y31304
X42921Y29504
X46821Y28004
X50171
X47921Y25504
X45079Y32932
X44921Y33504
X44521Y34404
X43421
X41421Y34604
X39721
X42476Y37415
X44459Y37792
X46621Y37304
X46200Y34439
T02
X23451Y13004
Y12004
Y11004
Y10004
Y9004
X23701Y5754
X24701
X25701
X26701
X27701
X28701
X27901Y4504
X26901
X25901
X24901
X23901
X22901
Y3504
X23901
X24901
X25901
X26901
X27901
Y2504
X26901
X25901
X24901
X23901
X22901
X20901
X19901
X18901
X17901
X16901
X15901
X23701Y15504
X24701
X25701
X26701
X27701
X28701
X27851Y18404
X26851
X25851
X24851
X23851
X22851
X21851
X20851
Y19404
X21851
X22851
X23851
X24851
X25851
X26851
X27851
X19301
X18301
X17301
X16301
X15301
X14301
X13301
X12301
Y18404
X13301
X14301
X15301
X16301
X17301
X18301
X19301
X50671Y13004
Y12004
Y11004
Y10004
Y9004
X50921Y5754
X51921
X52921
X53921
X54921
X55921
X55121Y4504
X54121
X53121
X52121
X51121
X50121
Y3504
X51121
X52121
X53121
X54121
X55121
Y2504
X54121
X53121
X52121
X51121
X50121
X48121
X47121
X46121
X45121
X44121
X43121
X50921Y15504
X51921
X52921
X53921
X54921
X55921
X55071Y18404
X54071
X53071
X52071
X51071
X50071
X49071
X48071
Y19404
X49071
X50071
X51071
X52071
X53071
X54071
X55071
X46521
X45521
X44521
X43521
X42521
X41521
X40521
X39521
Y18404
X40521
X41521
X42521
X43521
X44521
X45521
X46521
X23451Y34004
Y33004
Y32004
Y31004
Y30004
X23701Y26754
X24701
X25701
X26701
X27701
X28701
X27901Y25504
X26901
X25901
X24901
X23901
X22901
Y24504
X23901
X24901
X25901
X26901
X27901
Y23504
X26901
X25901
X24901
X23901
X22901
X20901
X19901
X18901
X17901
X16901
X15901
X23701Y36504
X24701
X25701
X26701
X27701
X28701
X27851Y39404
X26851
X25851
X24851
X23851
X22851
X21851
X20851
Y40404
X21851
X22851
X23851
X24851
X25851
X26851
X27851
X19301
X18301
X17301
X16301
X15301
X14301
X13301
X12301
Y39404
X13301
X14301
X15301
X16301
X17301
X18301
X19301
X50671Y34004
Y33004
Y32004
Y31004
Y30004
X50921Y26754
X51921
X52921
X53921
X54921
X55921
X55121Y25504
X54121
X53121
X52121
X51121
X50121
Y24504
X51121
X52121
X53121
X54121
X55121
Y23504
X54121
X53121
X52121
X51121
X50121
X48121
X47121
X46121
X45121
X44121
X43121
X50921Y36504
X51921
X52921
X53921
X54921
X55921
X55071Y39404
X54071
X53071
X52071
X51071
X50071
X49071
X48071
Y40404
X49071
X50071
X51071
X52071
X53071
X54071
X55071
X46521
X45521
X44521
X43521
X42521
X41521
X40521
X39521
Y39404
X40521
X41521
X42521
X43521
X44521
X45521
X46521
T03
X18701Y11504
Y10504
X45921Y11504
Y10504
X18701Y32504
Y31504
X45921Y32504
Y31504
T04
X18901Y1504
X17901
X16901
X15901
X19901
X20901
X22901
X23901
X24901
X25901
X26901
X27901
X27851Y20504
X26851
X25851
X24851
X23851
X22851
X21851
X20851
X19301
X18301
X17301
X16301
X15301
X14301
X13301
X12301
X46121Y1504
X45121
X44121
X43121
X47121
X48121
X50121
X51121
X52121
X53121
X54121
X55121
X55071Y20504
X54071
X53071
X52071
X51071
X50071
X49071
X48071
X46521
X45521
X44521
X43521
X42521
X41521
X40521
X39521
X18901Y22504
X17901
X16901
X15901
X19901
X20901
X22901
X23901
X24901
X25901
X26901
X27901
X27851Y41504
X26851
X25851
X24851
X23851
X22851
X21851
X20851
X19301
X18301
X17301
X16301
X15301
X14301
X13301
X12301
X46121Y22504
X45121
X44121
X43121
X47121
X48121
X50121
X51121
X52121
X53121
X54121
X55121
X55071Y41504
X54071
X53071
X52071
X51071
X50071
X49071
X48071
X46521
X45521
X44521
X43521
X42521
X41521
X40521
X39521
T05
X6201Y19504
X5201
X4201
X20601Y17004
X21601
X22601
X33421Y19504
X32421
X31421
X47821Y17004
X48821
X49821
X6201Y40504
X5201
X4201
X20601Y38004
X21601
X22601
X33421Y40504
X32421
X31421
X47821Y38004
X48821
X49821
T06
X4264Y7496
X6233Y7457
Y8520
Y9465
Y10409
Y11472
X4264Y11433
Y9465
X31484Y7496
X33453Y7457
Y8520
Y9465
Y10409
Y11472
X31484Y11433
Y9465
X4264Y28496
X6233Y28457
Y29520
Y30465
Y31409
Y32472
X4264Y32433
Y30465
X31484Y28496
X33453Y28457
Y29520
Y30465
Y31409
Y32472
X31484Y32433
Y30465
M30
