G04 CAM350 V9.5.1 (Build 211) Date:  Tue Mar 29 16:03:55 2011 *
G04 Database: (Untitled) *
G04 Layer 4: FluxamasynthShi *
%FSLAX24Y24*%
%MOIN*%
%SFA1.000B1.000*%

%MIA0B0*%
%IPPOS*%
%AMOC8-D46*
4,1,8,0.03700,0.01533,0.01533,0.03700,-0.01533,0.03700,-0.03700,0.01533,-0.03700,-0.01533,-0.01533,-0.03700,0.01533,-0.03700,0.03700,-0.01533,0.03700,0.01533,0.00000*
%
%AMOC8-D48*
4,1,8,0.03200,0.01325,0.01325,0.03200,-0.01325,0.03200,-0.03200,0.01325,-0.03200,-0.01325,-0.01325,-0.03200,0.01325,-0.03200,0.03200,-0.01325,0.03200,0.01325,0.00000*
%
%AMOC8-D49*
4,1,8,0.02975,0.01232,0.01232,0.02975,-0.01232,0.02975,-0.02975,0.01232,-0.02975,-0.01232,-0.01232,-0.02975,0.01232,-0.02975,0.02975,-0.01232,0.02975,0.01232,0.00000*
%
%ADD11R,0.15000X0.15000*%
%ADD12C,0.06000*%
%ADD44R,0.03210X0.01030*%
%ADD45R,0.03260X0.01000*%
%ADD46R,0.03240X0.01030*%
%ADD47R,0.03180X0.01000*%
%ADD48R,0.03260X0.01030*%
%ADD49R,0.03240X0.01050*%
%ADD50R,0.03160X0.01000*%
%ADD51R,0.01050X0.03240*%
%ADD52R,0.00950X0.03260*%
%ADD53R,0.01000X0.03210*%
%ADD54R,0.01030X0.03210*%
%ADD55R,0.01030X0.03190*%
%ADD56R,0.01030X0.03240*%
%ADD57R,0.00970X0.03210*%
%ADD58R,0.03210X0.01000*%
%ADD59R,0.03210X0.00970*%
%ADD60R,0.03240X0.01000*%
%ADD61R,0.03240X0.00970*%
%ADD62R,0.01000X0.03240*%
%ADD63R,0.01030X0.03260*%
%ADD64C,0.06800*%
%ADD65C,0.06710*%
%ADD66C,0.10800*%
%ADD67C,0.09660*%
%ADD68R,0.05920X0.06710*%
%ADD69R,0.07900X0.07100*%
%ADD74R,0.03950X0.07100*%
%ADD75R,0.07100X0.05920*%
%ADD76R,0.06710X0.05920*%
%ADD77R,0.05920X0.07100*%
%ADD78OC8-D46*%
%ADD79R,0.06800X0.09800*%
%ADD80OC8-D48*%
%ADD81OC8-D49*%
%ADD82C,0.07400*%
%ADD83R,0.04340X0.06710*%
%LNFluxamasynthShi*%
%LPD*%
G54D11*
X15701Y11004D03*
G54D44*
X17056Y11592D03*
X14346Y11792D03*
Y11990D03*
X14348Y11003D03*
Y10608D03*
G54D45*
X14346Y11594D03*
X17056Y11986D03*
G54D46*
X17058Y10218D03*
X14345Y11398D03*
X14347Y11200D03*
G54D47*
X14350Y10806D03*
G54D48*
X14349Y10413D03*
G54D49*
X14345Y10217D03*
G54D50*
X14348Y10019D03*
G54D51*
X14717Y9649D03*
X16488Y12356D03*
G54D52*
X14914Y9651D03*
G54D53*
X15112D03*
X15306D03*
X15898Y12357D03*
G54D54*
X15702D03*
X16292D03*
X15502Y9651D03*
G54D55*
X15700Y9649D03*
X16687D03*
G54D56*
X15900Y9652D03*
X15308Y12356D03*
G54D57*
X15505Y12357D03*
X16097Y9648D03*
G54D54*
X16289Y9651D03*
X16489D03*
X14913Y12357D03*
G54D58*
X17056Y10806D03*
Y10019D03*
G54D59*
Y10413D03*
G54D45*
Y10609D03*
G54D58*
Y11004D03*
Y11399D03*
G54D60*
X17058Y11201D03*
G54D61*
X17055Y11792D03*
G54D62*
X16685Y12359D03*
X16096Y12356D03*
X14717D03*
G54D63*
X15113Y12357D03*
G54D65*
X4264Y11433D03*
X6233Y9465D03*
X4264Y7496D03*
G54D66*
Y9465D03*
G54D67*
X6233Y10409D03*
Y11472D03*
Y8520D03*
Y7457D03*
G54D12*
X18701Y10504D03*
Y11504D03*
G54D68*
X19327Y12504D03*
X20075D03*
Y9504D03*
X19327D03*
X9575Y10004D03*
X8827D03*
Y12004D03*
X9575D03*
Y4004D03*
X8827D03*
G54D69*
X18192Y4222D03*
Y5341D03*
G54D74*
X20701Y6335D03*
Y7673D03*
G54D75*
X21701Y7378D03*
Y6630D03*
X19192Y5092D03*
Y4344D03*
X13701Y6630D03*
Y7378D03*
Y14630D03*
Y15378D03*
X16701D03*
Y14630D03*
G54D76*
X15701D03*
Y15378D03*
X14701D03*
Y14630D03*
X17701D03*
Y15378D03*
X18701D03*
Y14630D03*
X16701Y7378D03*
X15701D03*
Y6630D03*
X16701D03*
X14701D03*
Y7378D03*
G54D77*
X9575Y8004D03*
X8827D03*
Y6004D03*
X9575D03*
Y14004D03*
X8827D03*
Y16004D03*
X9575D03*
Y18004D03*
X8827D03*
G54D78*
X12301Y20504D03*
X13301D03*
X14301D03*
X15301D03*
X16301D03*
X17301D03*
X18301D03*
X19301D03*
X20851D03*
X21851D03*
X22851D03*
X23851D03*
X24851D03*
X25851D03*
X26851D03*
X27851D03*
X27901Y1504D03*
X26901D03*
X25901D03*
X24901D03*
X23901D03*
X22901D03*
X20901D03*
X19901D03*
X18901D03*
X17901D03*
X16901D03*
X15901D03*
G54D79*
X4301Y2204D03*
X6101D03*
Y4804D03*
X4301D03*
G54D80*
X15901Y2504D03*
X16901D03*
X17901D03*
X18901D03*
X19901D03*
X20901D03*
X22901D03*
X23901D03*
X24901D03*
X25901D03*
X26901D03*
X27901D03*
Y3504D03*
X26901D03*
X25901D03*
X24901D03*
X23901D03*
X22901D03*
Y4504D03*
X23901D03*
X24901D03*
X25901D03*
X26901D03*
X27901D03*
X27701Y5754D03*
X28701D03*
X26701D03*
X25701D03*
X24701D03*
X23701D03*
Y15504D03*
X24701D03*
X25701D03*
X26701D03*
X27701D03*
X28701D03*
G54D81*
X27851Y18404D03*
X26851D03*
X25851D03*
X24851D03*
X23851D03*
X22851D03*
X21851D03*
X20851D03*
Y19404D03*
X21851D03*
X22851D03*
X23851D03*
X24851D03*
X25851D03*
X26851D03*
X27851D03*
X19301D03*
X18301D03*
X17301D03*
X16301D03*
X15301D03*
X14301D03*
X13301D03*
X12301D03*
Y18404D03*
X13301D03*
X14301D03*
X15301D03*
X16301D03*
X17301D03*
X18301D03*
X19301D03*
G54D82*
X23451Y13004D03*
Y12004D03*
Y11004D03*
Y10004D03*
Y9004D03*
G54D83*
X18837Y7527D03*
X18089D03*
X18463Y6542D03*
G54D11*
X42921Y11004D03*
G54D44*
X44276Y11592D03*
X41566Y11792D03*
Y11990D03*
X41568Y11003D03*
Y10608D03*
G54D45*
X41566Y11594D03*
X44276Y11986D03*
G54D46*
X44278Y10218D03*
X41565Y11398D03*
X41567Y11200D03*
G54D47*
X41570Y10806D03*
G54D48*
X41569Y10413D03*
G54D49*
X41565Y10217D03*
G54D50*
X41568Y10019D03*
G54D51*
X41937Y9649D03*
X43708Y12356D03*
G54D52*
X42134Y9651D03*
G54D53*
X42332D03*
X42526D03*
X43118Y12357D03*
G54D54*
X42922D03*
X43512D03*
X42722Y9651D03*
G54D55*
X42920Y9649D03*
X43907D03*
G54D56*
X43120Y9652D03*
X42528Y12356D03*
G54D57*
X42725Y12357D03*
X43317Y9648D03*
G54D54*
X43509Y9651D03*
X43709D03*
X42133Y12357D03*
G54D58*
X44276Y10806D03*
Y10019D03*
G54D59*
Y10413D03*
G54D45*
Y10609D03*
G54D58*
Y11004D03*
Y11399D03*
G54D60*
X44278Y11201D03*
G54D61*
X44275Y11792D03*
G54D62*
X43905Y12359D03*
X43316Y12356D03*
X41937D03*
G54D63*
X42333Y12357D03*
G54D65*
X31484Y11433D03*
X33453Y9465D03*
X31484Y7496D03*
G54D66*
Y9465D03*
G54D67*
X33453Y10409D03*
Y11472D03*
Y8520D03*
Y7457D03*
G54D12*
X45921Y10504D03*
Y11504D03*
G54D68*
X46547Y12504D03*
X47295D03*
Y9504D03*
X46547D03*
X36795Y10004D03*
X36047D03*
Y12004D03*
X36795D03*
Y4004D03*
X36047D03*
G54D69*
X45412Y4222D03*
Y5341D03*
G54D74*
X47921Y6335D03*
Y7673D03*
G54D75*
X48921Y7378D03*
Y6630D03*
X46412Y5092D03*
Y4344D03*
X40921Y6630D03*
Y7378D03*
Y14630D03*
Y15378D03*
X43921D03*
Y14630D03*
G54D76*
X42921D03*
Y15378D03*
X41921D03*
Y14630D03*
X44921D03*
Y15378D03*
X45921D03*
Y14630D03*
X43921Y7378D03*
X42921D03*
Y6630D03*
X43921D03*
X41921D03*
Y7378D03*
G54D77*
X36795Y8004D03*
X36047D03*
Y6004D03*
X36795D03*
Y14004D03*
X36047D03*
Y16004D03*
X36795D03*
Y18004D03*
X36047D03*
G54D78*
X39521Y20504D03*
X40521D03*
X41521D03*
X42521D03*
X43521D03*
X44521D03*
X45521D03*
X46521D03*
X48071D03*
X49071D03*
X50071D03*
X51071D03*
X52071D03*
X53071D03*
X54071D03*
X55071D03*
X55121Y1504D03*
X54121D03*
X53121D03*
X52121D03*
X51121D03*
X50121D03*
X48121D03*
X47121D03*
X46121D03*
X45121D03*
X44121D03*
X43121D03*
G54D79*
X31521Y2204D03*
X33321D03*
Y4804D03*
X31521D03*
G54D80*
X43121Y2504D03*
X44121D03*
X45121D03*
X46121D03*
X47121D03*
X48121D03*
X50121D03*
X51121D03*
X52121D03*
X53121D03*
X54121D03*
X55121D03*
Y3504D03*
X54121D03*
X53121D03*
X52121D03*
X51121D03*
X50121D03*
Y4504D03*
X51121D03*
X52121D03*
X53121D03*
X54121D03*
X55121D03*
X54921Y5754D03*
X55921D03*
X53921D03*
X52921D03*
X51921D03*
X50921D03*
Y15504D03*
X51921D03*
X52921D03*
X53921D03*
X54921D03*
X55921D03*
G54D81*
X55071Y18404D03*
X54071D03*
X53071D03*
X52071D03*
X51071D03*
X50071D03*
X49071D03*
X48071D03*
Y19404D03*
X49071D03*
X50071D03*
X51071D03*
X52071D03*
X53071D03*
X54071D03*
X55071D03*
X46521D03*
X45521D03*
X44521D03*
X43521D03*
X42521D03*
X41521D03*
X40521D03*
X39521D03*
Y18404D03*
X40521D03*
X41521D03*
X42521D03*
X43521D03*
X44521D03*
X45521D03*
X46521D03*
G54D82*
X50671Y13004D03*
Y12004D03*
Y11004D03*
Y10004D03*
Y9004D03*
G54D83*
X46057Y7527D03*
X45309D03*
X45683Y6542D03*
G54D11*
X15701Y32004D03*
G54D44*
X17056Y32592D03*
X14346Y32792D03*
Y32990D03*
X14348Y32003D03*
Y31608D03*
G54D45*
X14346Y32594D03*
X17056Y32986D03*
G54D46*
X17058Y31218D03*
X14345Y32398D03*
X14347Y32200D03*
G54D47*
X14350Y31806D03*
G54D48*
X14349Y31413D03*
G54D49*
X14345Y31217D03*
G54D50*
X14348Y31019D03*
G54D51*
X14717Y30649D03*
X16488Y33356D03*
G54D52*
X14914Y30651D03*
G54D53*
X15112D03*
X15306D03*
X15898Y33357D03*
G54D54*
X15702D03*
X16292D03*
X15502Y30651D03*
G54D55*
X15700Y30649D03*
X16687D03*
G54D56*
X15900Y30652D03*
X15308Y33356D03*
G54D57*
X15505Y33357D03*
X16097Y30648D03*
G54D54*
X16289Y30651D03*
X16489D03*
X14913Y33357D03*
G54D58*
X17056Y31806D03*
Y31019D03*
G54D59*
Y31413D03*
G54D45*
Y31609D03*
G54D58*
Y32004D03*
Y32399D03*
G54D60*
X17058Y32201D03*
G54D61*
X17055Y32792D03*
G54D62*
X16685Y33359D03*
X16096Y33356D03*
X14717D03*
G54D63*
X15113Y33357D03*
G54D65*
X4264Y32433D03*
X6233Y30465D03*
X4264Y28496D03*
G54D66*
Y30465D03*
G54D67*
X6233Y31409D03*
Y32472D03*
Y29520D03*
Y28457D03*
G54D12*
X18701Y31504D03*
Y32504D03*
G54D68*
X19327Y33504D03*
X20075D03*
Y30504D03*
X19327D03*
X9575Y31004D03*
X8827D03*
Y33004D03*
X9575D03*
Y25004D03*
X8827D03*
G54D69*
X18192Y25222D03*
Y26341D03*
G54D74*
X20701Y27335D03*
Y28673D03*
G54D75*
X21701Y28378D03*
Y27630D03*
X19192Y26092D03*
Y25344D03*
X13701Y27630D03*
Y28378D03*
Y35630D03*
Y36378D03*
X16701D03*
Y35630D03*
G54D76*
X15701D03*
Y36378D03*
X14701D03*
Y35630D03*
X17701D03*
Y36378D03*
X18701D03*
Y35630D03*
X16701Y28378D03*
X15701D03*
Y27630D03*
X16701D03*
X14701D03*
Y28378D03*
G54D77*
X9575Y29004D03*
X8827D03*
Y27004D03*
X9575D03*
Y35004D03*
X8827D03*
Y37004D03*
X9575D03*
Y39004D03*
X8827D03*
G54D78*
X12301Y41504D03*
X13301D03*
X14301D03*
X15301D03*
X16301D03*
X17301D03*
X18301D03*
X19301D03*
X20851D03*
X21851D03*
X22851D03*
X23851D03*
X24851D03*
X25851D03*
X26851D03*
X27851D03*
X27901Y22504D03*
X26901D03*
X25901D03*
X24901D03*
X23901D03*
X22901D03*
X20901D03*
X19901D03*
X18901D03*
X17901D03*
X16901D03*
X15901D03*
G54D79*
X4301Y23204D03*
X6101D03*
Y25804D03*
X4301D03*
G54D80*
X15901Y23504D03*
X16901D03*
X17901D03*
X18901D03*
X19901D03*
X20901D03*
X22901D03*
X23901D03*
X24901D03*
X25901D03*
X26901D03*
X27901D03*
Y24504D03*
X26901D03*
X25901D03*
X24901D03*
X23901D03*
X22901D03*
Y25504D03*
X23901D03*
X24901D03*
X25901D03*
X26901D03*
X27901D03*
X27701Y26754D03*
X28701D03*
X26701D03*
X25701D03*
X24701D03*
X23701D03*
Y36504D03*
X24701D03*
X25701D03*
X26701D03*
X27701D03*
X28701D03*
G54D81*
X27851Y39404D03*
X26851D03*
X25851D03*
X24851D03*
X23851D03*
X22851D03*
X21851D03*
X20851D03*
Y40404D03*
X21851D03*
X22851D03*
X23851D03*
X24851D03*
X25851D03*
X26851D03*
X27851D03*
X19301D03*
X18301D03*
X17301D03*
X16301D03*
X15301D03*
X14301D03*
X13301D03*
X12301D03*
Y39404D03*
X13301D03*
X14301D03*
X15301D03*
X16301D03*
X17301D03*
X18301D03*
X19301D03*
G54D82*
X23451Y34004D03*
Y33004D03*
Y32004D03*
Y31004D03*
Y30004D03*
G54D83*
X18837Y28527D03*
X18089D03*
X18463Y27542D03*
G54D11*
X42921Y32004D03*
G54D44*
X44276Y32592D03*
X41566Y32792D03*
Y32990D03*
X41568Y32003D03*
Y31608D03*
G54D45*
X41566Y32594D03*
X44276Y32986D03*
G54D46*
X44278Y31218D03*
X41565Y32398D03*
X41567Y32200D03*
G54D47*
X41570Y31806D03*
G54D48*
X41569Y31413D03*
G54D49*
X41565Y31217D03*
G54D50*
X41568Y31019D03*
G54D51*
X41937Y30649D03*
X43708Y33356D03*
G54D52*
X42134Y30651D03*
G54D53*
X42332D03*
X42526D03*
X43118Y33357D03*
G54D54*
X42922D03*
X43512D03*
X42722Y30651D03*
G54D55*
X42920Y30649D03*
X43907D03*
G54D56*
X43120Y30652D03*
X42528Y33356D03*
G54D57*
X42725Y33357D03*
X43317Y30648D03*
G54D54*
X43509Y30651D03*
X43709D03*
X42133Y33357D03*
G54D58*
X44276Y31806D03*
Y31019D03*
G54D59*
Y31413D03*
G54D45*
Y31609D03*
G54D58*
Y32004D03*
Y32399D03*
G54D60*
X44278Y32201D03*
G54D61*
X44275Y32792D03*
G54D62*
X43905Y33359D03*
X43316Y33356D03*
X41937D03*
G54D63*
X42333Y33357D03*
G54D65*
X31484Y32433D03*
X33453Y30465D03*
X31484Y28496D03*
G54D66*
Y30465D03*
G54D67*
X33453Y31409D03*
Y32472D03*
Y29520D03*
Y28457D03*
G54D12*
X45921Y31504D03*
Y32504D03*
G54D68*
X46547Y33504D03*
X47295D03*
Y30504D03*
X46547D03*
X36795Y31004D03*
X36047D03*
Y33004D03*
X36795D03*
Y25004D03*
X36047D03*
G54D69*
X45412Y25222D03*
Y26341D03*
G54D74*
X47921Y27335D03*
Y28673D03*
G54D75*
X48921Y28378D03*
Y27630D03*
X46412Y26092D03*
Y25344D03*
X40921Y27630D03*
Y28378D03*
Y35630D03*
Y36378D03*
X43921D03*
Y35630D03*
G54D76*
X42921D03*
Y36378D03*
X41921D03*
Y35630D03*
X44921D03*
Y36378D03*
X45921D03*
Y35630D03*
X43921Y28378D03*
X42921D03*
Y27630D03*
X43921D03*
X41921D03*
Y28378D03*
G54D77*
X36795Y29004D03*
X36047D03*
Y27004D03*
X36795D03*
Y35004D03*
X36047D03*
Y37004D03*
X36795D03*
Y39004D03*
X36047D03*
G54D78*
X39521Y41504D03*
X40521D03*
X41521D03*
X42521D03*
X43521D03*
X44521D03*
X45521D03*
X46521D03*
X48071D03*
X49071D03*
X50071D03*
X51071D03*
X52071D03*
X53071D03*
X54071D03*
X55071D03*
X55121Y22504D03*
X54121D03*
X53121D03*
X52121D03*
X51121D03*
X50121D03*
X48121D03*
X47121D03*
X46121D03*
X45121D03*
X44121D03*
X43121D03*
G54D79*
X31521Y23204D03*
X33321D03*
Y25804D03*
X31521D03*
G54D80*
X43121Y23504D03*
X44121D03*
X45121D03*
X46121D03*
X47121D03*
X48121D03*
X50121D03*
X51121D03*
X52121D03*
X53121D03*
X54121D03*
X55121D03*
Y24504D03*
X54121D03*
X53121D03*
X52121D03*
X51121D03*
X50121D03*
Y25504D03*
X51121D03*
X52121D03*
X53121D03*
X54121D03*
X55121D03*
X54921Y26754D03*
X55921D03*
X53921D03*
X52921D03*
X51921D03*
X50921D03*
Y36504D03*
X51921D03*
X52921D03*
X53921D03*
X54921D03*
X55921D03*
G54D81*
X55071Y39404D03*
X54071D03*
X53071D03*
X52071D03*
X51071D03*
X50071D03*
X49071D03*
X48071D03*
Y40404D03*
X49071D03*
X50071D03*
X51071D03*
X52071D03*
X53071D03*
X54071D03*
X55071D03*
X46521D03*
X45521D03*
X44521D03*
X43521D03*
X42521D03*
X41521D03*
X40521D03*
X39521D03*
Y39404D03*
X40521D03*
X41521D03*
X42521D03*
X43521D03*
X44521D03*
X45521D03*
X46521D03*
G54D82*
X50671Y34004D03*
Y33004D03*
Y32004D03*
Y31004D03*
Y30004D03*
G54D83*
X46057Y28527D03*
X45309D03*
X45683Y27542D03*
G54D64*
X20601Y16704D02*
G01Y17304D01*
X21601D02*
G01Y16704D01*
X22601D02*
G01Y17304D01*
X6201Y19204D02*
G01Y19804D01*
X5201D02*
G01Y19204D01*
X4201D02*
G01Y19804D01*
X47821Y16704D02*
G01Y17304D01*
X48821D02*
G01Y16704D01*
X49821D02*
G01Y17304D01*
X33421Y19204D02*
G01Y19804D01*
X32421D02*
G01Y19204D01*
X31421D02*
G01Y19804D01*
X20601Y37704D02*
G01Y38304D01*
X21601D02*
G01Y37704D01*
X22601D02*
G01Y38304D01*
X6201Y40204D02*
G01Y40804D01*
X5201D02*
G01Y40204D01*
X4201D02*
G01Y40804D01*
X47821Y37704D02*
G01Y38304D01*
X48821D02*
G01Y37704D01*
X49821D02*
G01Y38304D01*
X33421Y40204D02*
G01Y40804D01*
X32421D02*
G01Y40204D01*
X31421D02*
G01Y40804D01*
M02*
