%
M48
M72
T01C0.0236
T02C0.0350
T03C0.0380
T04C0.0394
T05C0.0400
T06C0.0591
T07C0.0984
T08C0.1000
%
T01
X6180Y6487
X8180Y6487
X10180Y6737
X10180Y7487
X12360Y7657
X12290Y6857
X12430Y6237
X14430Y5737
X15430Y5237
X15990Y5297
X15700Y4477
X14180Y4737
X12300Y4587
X16430Y6987
X18180Y8237
X19680Y8737
X18680Y9737
X16240Y8547
X15176Y8253
X14180Y8237
X14180Y7737
X14180Y8737
X14680Y9737
X14160Y10077
X12330Y9507
X8180Y9237
X7330Y10467
T02
X6430Y10987
X5430Y10987
X4430Y10987
X16430Y3987
X17430Y3987
T03
X3530Y1487
X4530Y1487
X5530Y1487
X6530Y1487
X7730Y1487
X8730Y1487
X9730Y1487
X10730Y1487
X11930Y1487
X12930Y1487
X13930Y1487
X14930Y1487
X16130Y1487
X17130Y1487
X18130Y1487
X19130Y1487
X19130Y12487
X18130Y12487
X17130Y12487
X16130Y12487
X14930Y12487
X13930Y12487
X12930Y12487
X11930Y12487
X10730Y12487
X9730Y12487
X8730Y12487
X7730Y12487
T04
X7930Y10987
X8930Y10987
X9930Y10987
X10930Y10987
X11930Y10987
X12930Y10987
X13930Y10987
X14930Y10987
X15930Y10987
X16930Y10987
X17930Y10987
X18930Y10987
X18930Y2987
X17930Y2987
X16930Y2987
X15930Y2987
X14930Y2987
X13930Y2987
X12930Y2987
X11930Y2987
X10930Y2987
X9930Y2987
X8930Y2987
X7930Y2987
X6930Y2987
X5930Y2987
X4930Y2987
X3930Y2987
T05
X6930Y4737
X7930Y4737
T06
X4551Y4979
X4551Y6042
X4551Y6987
X4551Y7932
X4551Y8995
X2583Y8956
X1599Y8956
X2583Y6987
X2583Y5019
X1599Y5019
T07
X2430Y3487
X2430Y10487
T08
X20430Y10487
X20430Y3487
M30
