G75*
%MOIN*%
%OFA0B0*%
%FSLAX25Y25*%
%IPPOS*%
%LPD*%
%AMOC8*
5,1,8,0,0,1.08239X$1,22.5*
%
%ADD10R,0.07500X0.02500*%
%ADD11C,0.07000*%
%ADD12R,0.04331X0.05512*%
%ADD13R,0.03937X0.04331*%
%ADD14R,0.05512X0.04331*%
%ADD15R,0.04134X0.04252*%
%ADD16C,0.10000*%
%ADD17C,0.08858*%
%ADD18R,0.02362X0.06299*%
%ADD19R,0.02362X0.02362*%
%ADD20R,0.03150X0.03150*%
%ADD21C,0.07400*%
%ADD22C,0.15000*%
%ADD23C,0.00800*%
%ADD24R,0.05000X0.02500*%
%ADD25R,0.05906X0.07874*%
%ADD26C,0.00591*%
%ADD27C,0.00236*%
%ADD28R,0.06693X0.09449*%
%ADD29C,0.06800*%
%ADD30C,0.07200*%
%ADD31C,0.01600*%
%ADD32C,0.01000*%
%ADD33C,0.00900*%
%ADD34C,0.03962*%
%ADD35C,0.01200*%
%ADD36C,0.02400*%
D10*
X0085550Y0036117D03*
D11*
X0089300Y0029867D03*
X0079300Y0029867D03*
X0069300Y0029867D03*
X0059300Y0029867D03*
X0049300Y0029867D03*
X0039300Y0029867D03*
X0099300Y0029867D03*
X0109300Y0029867D03*
X0119300Y0029867D03*
X0129300Y0029867D03*
X0139300Y0029867D03*
X0149300Y0029867D03*
X0159300Y0029867D03*
X0169300Y0029867D03*
X0179300Y0029867D03*
X0189300Y0029867D03*
X0174300Y0039867D03*
X0164300Y0039867D03*
X0159300Y0109867D03*
X0149300Y0109867D03*
X0139300Y0109867D03*
X0129300Y0109867D03*
X0119300Y0109867D03*
X0109300Y0109867D03*
X0099300Y0109867D03*
X0089300Y0109867D03*
X0079300Y0109867D03*
X0169300Y0109867D03*
X0179300Y0109867D03*
X0189300Y0109867D03*
D12*
X0135737Y0084867D03*
X0127863Y0084867D03*
X0115737Y0067367D03*
X0107863Y0067367D03*
X0095737Y0067367D03*
X0087863Y0067367D03*
X0187863Y0064867D03*
X0195737Y0064867D03*
D13*
X0195146Y0049867D03*
X0188454Y0049867D03*
X0155146Y0039867D03*
X0148454Y0039867D03*
X0135146Y0057367D03*
X0128454Y0057367D03*
X0095146Y0057367D03*
X0088454Y0057367D03*
X0151800Y0094020D03*
X0151800Y0100713D03*
X0181800Y0100713D03*
X0181800Y0094020D03*
X0095146Y0097367D03*
X0088454Y0097367D03*
D14*
X0106800Y0048804D03*
X0116800Y0048804D03*
X0116800Y0040930D03*
X0106800Y0040930D03*
D15*
X0128355Y0047367D03*
X0135245Y0047367D03*
X0115245Y0057367D03*
X0108355Y0057367D03*
X0128355Y0067367D03*
X0135245Y0067367D03*
X0135245Y0077367D03*
X0128355Y0077367D03*
X0128455Y0093467D03*
X0135345Y0093467D03*
X0135445Y0099667D03*
X0128555Y0099667D03*
X0095245Y0087367D03*
X0088355Y0087367D03*
X0088355Y0077367D03*
X0095245Y0077367D03*
X0168355Y0049867D03*
X0175245Y0049867D03*
X0188355Y0057367D03*
X0195245Y0057367D03*
X0195245Y0072367D03*
X0188355Y0072367D03*
X0188355Y0079867D03*
X0195245Y0079867D03*
D16*
X0025830Y0069873D03*
D17*
X0045515Y0079322D03*
X0045515Y0089952D03*
X0045515Y0060424D03*
X0045515Y0049794D03*
D18*
X0067863Y0059906D03*
X0075729Y0059917D03*
X0107871Y0089816D03*
X0115737Y0089827D03*
X0075729Y0097417D03*
X0067863Y0097406D03*
D19*
X0071800Y0095083D03*
X0071800Y0099729D03*
X0111800Y0092150D03*
X0111800Y0087504D03*
X0071800Y0062229D03*
X0071800Y0057583D03*
D20*
X0181800Y0050319D03*
X0181800Y0044414D03*
D21*
X0079300Y0047367D03*
X0069300Y0047367D03*
D22*
X0024300Y0034867D03*
X0024300Y0104867D03*
D23*
X0111800Y0101367D02*
X0111800Y0098367D01*
D24*
X0111800Y0097867D03*
X0111800Y0101867D03*
D25*
X0077706Y0084867D03*
X0065894Y0084867D03*
X0065894Y0072367D03*
X0077706Y0072367D03*
D26*
X0158690Y0064257D02*
X0169910Y0064257D01*
X0158690Y0064257D02*
X0158690Y0075477D01*
X0169910Y0075477D01*
X0169910Y0064257D01*
X0169910Y0064847D02*
X0158690Y0064847D01*
X0158690Y0065437D02*
X0169910Y0065437D01*
X0169910Y0066027D02*
X0158690Y0066027D01*
X0158690Y0066617D02*
X0169910Y0066617D01*
X0169910Y0067207D02*
X0158690Y0067207D01*
X0158690Y0067797D02*
X0169910Y0067797D01*
X0169910Y0068387D02*
X0158690Y0068387D01*
X0158690Y0068977D02*
X0169910Y0068977D01*
X0169910Y0069567D02*
X0158690Y0069567D01*
X0158690Y0070157D02*
X0169910Y0070157D01*
X0169910Y0070747D02*
X0158690Y0070747D01*
X0158690Y0071337D02*
X0169910Y0071337D01*
X0169910Y0071927D02*
X0158690Y0071927D01*
X0158690Y0072517D02*
X0169910Y0072517D01*
X0169910Y0073107D02*
X0158690Y0073107D01*
X0158690Y0073697D02*
X0169910Y0073697D01*
X0169910Y0074287D02*
X0158690Y0074287D01*
X0158690Y0074877D02*
X0169910Y0074877D01*
X0169910Y0075467D02*
X0158690Y0075467D01*
D27*
X0151722Y0075677D02*
X0151722Y0075127D01*
X0151722Y0075677D02*
X0154044Y0075677D01*
X0154044Y0075127D01*
X0151722Y0075127D01*
X0151722Y0075362D02*
X0154044Y0075362D01*
X0154044Y0075597D02*
X0151722Y0075597D01*
X0151722Y0076702D02*
X0151722Y0077252D01*
X0154044Y0077252D01*
X0154044Y0076702D01*
X0151722Y0076702D01*
X0151722Y0076937D02*
X0154044Y0076937D01*
X0154044Y0077172D02*
X0151722Y0077172D01*
X0151722Y0078277D02*
X0151722Y0078827D01*
X0154044Y0078827D01*
X0154044Y0078277D01*
X0151722Y0078277D01*
X0151722Y0078512D02*
X0154044Y0078512D01*
X0154044Y0078747D02*
X0151722Y0078747D01*
X0155364Y0082469D02*
X0155914Y0082469D01*
X0155914Y0080147D01*
X0155364Y0080147D01*
X0155364Y0082469D01*
X0155364Y0080382D02*
X0155914Y0080382D01*
X0155914Y0080617D02*
X0155364Y0080617D01*
X0155364Y0080852D02*
X0155914Y0080852D01*
X0155914Y0081087D02*
X0155364Y0081087D01*
X0155364Y0081322D02*
X0155914Y0081322D01*
X0155914Y0081557D02*
X0155364Y0081557D01*
X0155364Y0081792D02*
X0155914Y0081792D01*
X0155914Y0082027D02*
X0155364Y0082027D01*
X0155364Y0082262D02*
X0155914Y0082262D01*
X0156938Y0082469D02*
X0157488Y0082469D01*
X0157488Y0080147D01*
X0156938Y0080147D01*
X0156938Y0082469D01*
X0156938Y0080382D02*
X0157488Y0080382D01*
X0157488Y0080617D02*
X0156938Y0080617D01*
X0156938Y0080852D02*
X0157488Y0080852D01*
X0157488Y0081087D02*
X0156938Y0081087D01*
X0156938Y0081322D02*
X0157488Y0081322D01*
X0157488Y0081557D02*
X0156938Y0081557D01*
X0156938Y0081792D02*
X0157488Y0081792D01*
X0157488Y0082027D02*
X0156938Y0082027D01*
X0156938Y0082262D02*
X0157488Y0082262D01*
X0158513Y0082469D02*
X0159063Y0082469D01*
X0159063Y0080147D01*
X0158513Y0080147D01*
X0158513Y0082469D01*
X0158513Y0080382D02*
X0159063Y0080382D01*
X0159063Y0080617D02*
X0158513Y0080617D01*
X0158513Y0080852D02*
X0159063Y0080852D01*
X0159063Y0081087D02*
X0158513Y0081087D01*
X0158513Y0081322D02*
X0159063Y0081322D01*
X0159063Y0081557D02*
X0158513Y0081557D01*
X0158513Y0081792D02*
X0159063Y0081792D01*
X0159063Y0082027D02*
X0158513Y0082027D01*
X0158513Y0082262D02*
X0159063Y0082262D01*
X0160088Y0082469D02*
X0160638Y0082469D01*
X0160638Y0080147D01*
X0160088Y0080147D01*
X0160088Y0082469D01*
X0160088Y0080382D02*
X0160638Y0080382D01*
X0160638Y0080617D02*
X0160088Y0080617D01*
X0160088Y0080852D02*
X0160638Y0080852D01*
X0160638Y0081087D02*
X0160088Y0081087D01*
X0160088Y0081322D02*
X0160638Y0081322D01*
X0160638Y0081557D02*
X0160088Y0081557D01*
X0160088Y0081792D02*
X0160638Y0081792D01*
X0160638Y0082027D02*
X0160088Y0082027D01*
X0160088Y0082262D02*
X0160638Y0082262D01*
X0161663Y0082469D02*
X0162213Y0082469D01*
X0162213Y0080147D01*
X0161663Y0080147D01*
X0161663Y0082469D01*
X0161663Y0080382D02*
X0162213Y0080382D01*
X0162213Y0080617D02*
X0161663Y0080617D01*
X0161663Y0080852D02*
X0162213Y0080852D01*
X0162213Y0081087D02*
X0161663Y0081087D01*
X0161663Y0081322D02*
X0162213Y0081322D01*
X0162213Y0081557D02*
X0161663Y0081557D01*
X0161663Y0081792D02*
X0162213Y0081792D01*
X0162213Y0082027D02*
X0161663Y0082027D01*
X0161663Y0082262D02*
X0162213Y0082262D01*
X0163238Y0082469D02*
X0163788Y0082469D01*
X0163788Y0080147D01*
X0163238Y0080147D01*
X0163238Y0082469D01*
X0163238Y0080382D02*
X0163788Y0080382D01*
X0163788Y0080617D02*
X0163238Y0080617D01*
X0163238Y0080852D02*
X0163788Y0080852D01*
X0163788Y0081087D02*
X0163238Y0081087D01*
X0163238Y0081322D02*
X0163788Y0081322D01*
X0163788Y0081557D02*
X0163238Y0081557D01*
X0163238Y0081792D02*
X0163788Y0081792D01*
X0163788Y0082027D02*
X0163238Y0082027D01*
X0163238Y0082262D02*
X0163788Y0082262D01*
X0164812Y0082469D02*
X0165362Y0082469D01*
X0165362Y0080147D01*
X0164812Y0080147D01*
X0164812Y0082469D01*
X0164812Y0080382D02*
X0165362Y0080382D01*
X0165362Y0080617D02*
X0164812Y0080617D01*
X0164812Y0080852D02*
X0165362Y0080852D01*
X0165362Y0081087D02*
X0164812Y0081087D01*
X0164812Y0081322D02*
X0165362Y0081322D01*
X0165362Y0081557D02*
X0164812Y0081557D01*
X0164812Y0081792D02*
X0165362Y0081792D01*
X0165362Y0082027D02*
X0164812Y0082027D01*
X0164812Y0082262D02*
X0165362Y0082262D01*
X0166387Y0082469D02*
X0166937Y0082469D01*
X0166937Y0080147D01*
X0166387Y0080147D01*
X0166387Y0082469D01*
X0166387Y0080382D02*
X0166937Y0080382D01*
X0166937Y0080617D02*
X0166387Y0080617D01*
X0166387Y0080852D02*
X0166937Y0080852D01*
X0166937Y0081087D02*
X0166387Y0081087D01*
X0166387Y0081322D02*
X0166937Y0081322D01*
X0166937Y0081557D02*
X0166387Y0081557D01*
X0166387Y0081792D02*
X0166937Y0081792D01*
X0166937Y0082027D02*
X0166387Y0082027D01*
X0166387Y0082262D02*
X0166937Y0082262D01*
X0167962Y0082469D02*
X0168512Y0082469D01*
X0168512Y0080147D01*
X0167962Y0080147D01*
X0167962Y0082469D01*
X0167962Y0080382D02*
X0168512Y0080382D01*
X0168512Y0080617D02*
X0167962Y0080617D01*
X0167962Y0080852D02*
X0168512Y0080852D01*
X0168512Y0081087D02*
X0167962Y0081087D01*
X0167962Y0081322D02*
X0168512Y0081322D01*
X0168512Y0081557D02*
X0167962Y0081557D01*
X0167962Y0081792D02*
X0168512Y0081792D01*
X0168512Y0082027D02*
X0167962Y0082027D01*
X0167962Y0082262D02*
X0168512Y0082262D01*
X0169537Y0082469D02*
X0170087Y0082469D01*
X0170087Y0080147D01*
X0169537Y0080147D01*
X0169537Y0082469D01*
X0169537Y0080382D02*
X0170087Y0080382D01*
X0170087Y0080617D02*
X0169537Y0080617D01*
X0169537Y0080852D02*
X0170087Y0080852D01*
X0170087Y0081087D02*
X0169537Y0081087D01*
X0169537Y0081322D02*
X0170087Y0081322D01*
X0170087Y0081557D02*
X0169537Y0081557D01*
X0169537Y0081792D02*
X0170087Y0081792D01*
X0170087Y0082027D02*
X0169537Y0082027D01*
X0169537Y0082262D02*
X0170087Y0082262D01*
X0171112Y0082469D02*
X0171662Y0082469D01*
X0171662Y0080147D01*
X0171112Y0080147D01*
X0171112Y0082469D01*
X0171112Y0080382D02*
X0171662Y0080382D01*
X0171662Y0080617D02*
X0171112Y0080617D01*
X0171112Y0080852D02*
X0171662Y0080852D01*
X0171662Y0081087D02*
X0171112Y0081087D01*
X0171112Y0081322D02*
X0171662Y0081322D01*
X0171662Y0081557D02*
X0171112Y0081557D01*
X0171112Y0081792D02*
X0171662Y0081792D01*
X0171662Y0082027D02*
X0171112Y0082027D01*
X0171112Y0082262D02*
X0171662Y0082262D01*
X0172686Y0082469D02*
X0173236Y0082469D01*
X0173236Y0080147D01*
X0172686Y0080147D01*
X0172686Y0082469D01*
X0172686Y0080382D02*
X0173236Y0080382D01*
X0173236Y0080617D02*
X0172686Y0080617D01*
X0172686Y0080852D02*
X0173236Y0080852D01*
X0173236Y0081087D02*
X0172686Y0081087D01*
X0172686Y0081322D02*
X0173236Y0081322D01*
X0173236Y0081557D02*
X0172686Y0081557D01*
X0172686Y0081792D02*
X0173236Y0081792D01*
X0173236Y0082027D02*
X0172686Y0082027D01*
X0172686Y0082262D02*
X0173236Y0082262D01*
X0176878Y0078827D02*
X0176878Y0078277D01*
X0174556Y0078277D01*
X0174556Y0078827D01*
X0176878Y0078827D01*
X0176878Y0078512D02*
X0174556Y0078512D01*
X0174556Y0078747D02*
X0176878Y0078747D01*
X0176878Y0077252D02*
X0176878Y0076702D01*
X0174556Y0076702D01*
X0174556Y0077252D01*
X0176878Y0077252D01*
X0176878Y0076937D02*
X0174556Y0076937D01*
X0174556Y0077172D02*
X0176878Y0077172D01*
X0176878Y0075677D02*
X0176878Y0075127D01*
X0174556Y0075127D01*
X0174556Y0075677D01*
X0176878Y0075677D01*
X0176878Y0075362D02*
X0174556Y0075362D01*
X0174556Y0075597D02*
X0176878Y0075597D01*
X0176878Y0074102D02*
X0176878Y0073552D01*
X0174556Y0073552D01*
X0174556Y0074102D01*
X0176878Y0074102D01*
X0176878Y0073787D02*
X0174556Y0073787D01*
X0174556Y0074022D02*
X0176878Y0074022D01*
X0176878Y0072528D02*
X0176878Y0071978D01*
X0174556Y0071978D01*
X0174556Y0072528D01*
X0176878Y0072528D01*
X0176878Y0072213D02*
X0174556Y0072213D01*
X0174556Y0072448D02*
X0176878Y0072448D01*
X0176878Y0070953D02*
X0176878Y0070403D01*
X0174556Y0070403D01*
X0174556Y0070953D01*
X0176878Y0070953D01*
X0176878Y0070638D02*
X0174556Y0070638D01*
X0174556Y0070873D02*
X0176878Y0070873D01*
X0176878Y0069378D02*
X0176878Y0068828D01*
X0174556Y0068828D01*
X0174556Y0069378D01*
X0176878Y0069378D01*
X0176878Y0069063D02*
X0174556Y0069063D01*
X0174556Y0069298D02*
X0176878Y0069298D01*
X0176878Y0067803D02*
X0176878Y0067253D01*
X0174556Y0067253D01*
X0174556Y0067803D01*
X0176878Y0067803D01*
X0176878Y0067488D02*
X0174556Y0067488D01*
X0174556Y0067723D02*
X0176878Y0067723D01*
X0176878Y0066228D02*
X0176878Y0065678D01*
X0174556Y0065678D01*
X0174556Y0066228D01*
X0176878Y0066228D01*
X0176878Y0065913D02*
X0174556Y0065913D01*
X0174556Y0066148D02*
X0176878Y0066148D01*
X0176878Y0064654D02*
X0176878Y0064104D01*
X0174556Y0064104D01*
X0174556Y0064654D01*
X0176878Y0064654D01*
X0176878Y0064339D02*
X0174556Y0064339D01*
X0174556Y0064574D02*
X0176878Y0064574D01*
X0176878Y0063079D02*
X0176878Y0062529D01*
X0174556Y0062529D01*
X0174556Y0063079D01*
X0176878Y0063079D01*
X0176878Y0062764D02*
X0174556Y0062764D01*
X0174556Y0062999D02*
X0176878Y0062999D01*
X0176878Y0061504D02*
X0176878Y0060954D01*
X0174556Y0060954D01*
X0174556Y0061504D01*
X0176878Y0061504D01*
X0176878Y0061189D02*
X0174556Y0061189D01*
X0174556Y0061424D02*
X0176878Y0061424D01*
X0173236Y0057312D02*
X0172686Y0057312D01*
X0172686Y0059634D01*
X0173236Y0059634D01*
X0173236Y0057312D01*
X0173236Y0057547D02*
X0172686Y0057547D01*
X0172686Y0057782D02*
X0173236Y0057782D01*
X0173236Y0058017D02*
X0172686Y0058017D01*
X0172686Y0058252D02*
X0173236Y0058252D01*
X0173236Y0058487D02*
X0172686Y0058487D01*
X0172686Y0058722D02*
X0173236Y0058722D01*
X0173236Y0058957D02*
X0172686Y0058957D01*
X0172686Y0059192D02*
X0173236Y0059192D01*
X0173236Y0059427D02*
X0172686Y0059427D01*
X0171662Y0057312D02*
X0171112Y0057312D01*
X0171112Y0059634D01*
X0171662Y0059634D01*
X0171662Y0057312D01*
X0171662Y0057547D02*
X0171112Y0057547D01*
X0171112Y0057782D02*
X0171662Y0057782D01*
X0171662Y0058017D02*
X0171112Y0058017D01*
X0171112Y0058252D02*
X0171662Y0058252D01*
X0171662Y0058487D02*
X0171112Y0058487D01*
X0171112Y0058722D02*
X0171662Y0058722D01*
X0171662Y0058957D02*
X0171112Y0058957D01*
X0171112Y0059192D02*
X0171662Y0059192D01*
X0171662Y0059427D02*
X0171112Y0059427D01*
X0170087Y0057312D02*
X0169537Y0057312D01*
X0169537Y0059634D01*
X0170087Y0059634D01*
X0170087Y0057312D01*
X0170087Y0057547D02*
X0169537Y0057547D01*
X0169537Y0057782D02*
X0170087Y0057782D01*
X0170087Y0058017D02*
X0169537Y0058017D01*
X0169537Y0058252D02*
X0170087Y0058252D01*
X0170087Y0058487D02*
X0169537Y0058487D01*
X0169537Y0058722D02*
X0170087Y0058722D01*
X0170087Y0058957D02*
X0169537Y0058957D01*
X0169537Y0059192D02*
X0170087Y0059192D01*
X0170087Y0059427D02*
X0169537Y0059427D01*
X0168512Y0057312D02*
X0167962Y0057312D01*
X0167962Y0059634D01*
X0168512Y0059634D01*
X0168512Y0057312D01*
X0168512Y0057547D02*
X0167962Y0057547D01*
X0167962Y0057782D02*
X0168512Y0057782D01*
X0168512Y0058017D02*
X0167962Y0058017D01*
X0167962Y0058252D02*
X0168512Y0058252D01*
X0168512Y0058487D02*
X0167962Y0058487D01*
X0167962Y0058722D02*
X0168512Y0058722D01*
X0168512Y0058957D02*
X0167962Y0058957D01*
X0167962Y0059192D02*
X0168512Y0059192D01*
X0168512Y0059427D02*
X0167962Y0059427D01*
X0166937Y0057312D02*
X0166387Y0057312D01*
X0166387Y0059634D01*
X0166937Y0059634D01*
X0166937Y0057312D01*
X0166937Y0057547D02*
X0166387Y0057547D01*
X0166387Y0057782D02*
X0166937Y0057782D01*
X0166937Y0058017D02*
X0166387Y0058017D01*
X0166387Y0058252D02*
X0166937Y0058252D01*
X0166937Y0058487D02*
X0166387Y0058487D01*
X0166387Y0058722D02*
X0166937Y0058722D01*
X0166937Y0058957D02*
X0166387Y0058957D01*
X0166387Y0059192D02*
X0166937Y0059192D01*
X0166937Y0059427D02*
X0166387Y0059427D01*
X0165362Y0057312D02*
X0164812Y0057312D01*
X0164812Y0059634D01*
X0165362Y0059634D01*
X0165362Y0057312D01*
X0165362Y0057547D02*
X0164812Y0057547D01*
X0164812Y0057782D02*
X0165362Y0057782D01*
X0165362Y0058017D02*
X0164812Y0058017D01*
X0164812Y0058252D02*
X0165362Y0058252D01*
X0165362Y0058487D02*
X0164812Y0058487D01*
X0164812Y0058722D02*
X0165362Y0058722D01*
X0165362Y0058957D02*
X0164812Y0058957D01*
X0164812Y0059192D02*
X0165362Y0059192D01*
X0165362Y0059427D02*
X0164812Y0059427D01*
X0163788Y0057312D02*
X0163238Y0057312D01*
X0163238Y0059634D01*
X0163788Y0059634D01*
X0163788Y0057312D01*
X0163788Y0057547D02*
X0163238Y0057547D01*
X0163238Y0057782D02*
X0163788Y0057782D01*
X0163788Y0058017D02*
X0163238Y0058017D01*
X0163238Y0058252D02*
X0163788Y0058252D01*
X0163788Y0058487D02*
X0163238Y0058487D01*
X0163238Y0058722D02*
X0163788Y0058722D01*
X0163788Y0058957D02*
X0163238Y0058957D01*
X0163238Y0059192D02*
X0163788Y0059192D01*
X0163788Y0059427D02*
X0163238Y0059427D01*
X0162213Y0057312D02*
X0161663Y0057312D01*
X0161663Y0059634D01*
X0162213Y0059634D01*
X0162213Y0057312D01*
X0162213Y0057547D02*
X0161663Y0057547D01*
X0161663Y0057782D02*
X0162213Y0057782D01*
X0162213Y0058017D02*
X0161663Y0058017D01*
X0161663Y0058252D02*
X0162213Y0058252D01*
X0162213Y0058487D02*
X0161663Y0058487D01*
X0161663Y0058722D02*
X0162213Y0058722D01*
X0162213Y0058957D02*
X0161663Y0058957D01*
X0161663Y0059192D02*
X0162213Y0059192D01*
X0162213Y0059427D02*
X0161663Y0059427D01*
X0160638Y0057312D02*
X0160088Y0057312D01*
X0160088Y0059634D01*
X0160638Y0059634D01*
X0160638Y0057312D01*
X0160638Y0057547D02*
X0160088Y0057547D01*
X0160088Y0057782D02*
X0160638Y0057782D01*
X0160638Y0058017D02*
X0160088Y0058017D01*
X0160088Y0058252D02*
X0160638Y0058252D01*
X0160638Y0058487D02*
X0160088Y0058487D01*
X0160088Y0058722D02*
X0160638Y0058722D01*
X0160638Y0058957D02*
X0160088Y0058957D01*
X0160088Y0059192D02*
X0160638Y0059192D01*
X0160638Y0059427D02*
X0160088Y0059427D01*
X0159063Y0057312D02*
X0158513Y0057312D01*
X0158513Y0059634D01*
X0159063Y0059634D01*
X0159063Y0057312D01*
X0159063Y0057547D02*
X0158513Y0057547D01*
X0158513Y0057782D02*
X0159063Y0057782D01*
X0159063Y0058017D02*
X0158513Y0058017D01*
X0158513Y0058252D02*
X0159063Y0058252D01*
X0159063Y0058487D02*
X0158513Y0058487D01*
X0158513Y0058722D02*
X0159063Y0058722D01*
X0159063Y0058957D02*
X0158513Y0058957D01*
X0158513Y0059192D02*
X0159063Y0059192D01*
X0159063Y0059427D02*
X0158513Y0059427D01*
X0157488Y0057312D02*
X0156938Y0057312D01*
X0156938Y0059634D01*
X0157488Y0059634D01*
X0157488Y0057312D01*
X0157488Y0057547D02*
X0156938Y0057547D01*
X0156938Y0057782D02*
X0157488Y0057782D01*
X0157488Y0058017D02*
X0156938Y0058017D01*
X0156938Y0058252D02*
X0157488Y0058252D01*
X0157488Y0058487D02*
X0156938Y0058487D01*
X0156938Y0058722D02*
X0157488Y0058722D01*
X0157488Y0058957D02*
X0156938Y0058957D01*
X0156938Y0059192D02*
X0157488Y0059192D01*
X0157488Y0059427D02*
X0156938Y0059427D01*
X0155914Y0057312D02*
X0155364Y0057312D01*
X0155364Y0059634D01*
X0155914Y0059634D01*
X0155914Y0057312D01*
X0155914Y0057547D02*
X0155364Y0057547D01*
X0155364Y0057782D02*
X0155914Y0057782D01*
X0155914Y0058017D02*
X0155364Y0058017D01*
X0155364Y0058252D02*
X0155914Y0058252D01*
X0155914Y0058487D02*
X0155364Y0058487D01*
X0155364Y0058722D02*
X0155914Y0058722D01*
X0155914Y0058957D02*
X0155364Y0058957D01*
X0155364Y0059192D02*
X0155914Y0059192D01*
X0155914Y0059427D02*
X0155364Y0059427D01*
X0151722Y0060954D02*
X0151722Y0061504D01*
X0154044Y0061504D01*
X0154044Y0060954D01*
X0151722Y0060954D01*
X0151722Y0061189D02*
X0154044Y0061189D01*
X0154044Y0061424D02*
X0151722Y0061424D01*
X0151722Y0062529D02*
X0151722Y0063079D01*
X0154044Y0063079D01*
X0154044Y0062529D01*
X0151722Y0062529D01*
X0151722Y0062764D02*
X0154044Y0062764D01*
X0154044Y0062999D02*
X0151722Y0062999D01*
X0151722Y0064104D02*
X0151722Y0064654D01*
X0154044Y0064654D01*
X0154044Y0064104D01*
X0151722Y0064104D01*
X0151722Y0064339D02*
X0154044Y0064339D01*
X0154044Y0064574D02*
X0151722Y0064574D01*
X0151722Y0065678D02*
X0151722Y0066228D01*
X0154044Y0066228D01*
X0154044Y0065678D01*
X0151722Y0065678D01*
X0151722Y0065913D02*
X0154044Y0065913D01*
X0154044Y0066148D02*
X0151722Y0066148D01*
X0151722Y0067253D02*
X0151722Y0067803D01*
X0154044Y0067803D01*
X0154044Y0067253D01*
X0151722Y0067253D01*
X0151722Y0067488D02*
X0154044Y0067488D01*
X0154044Y0067723D02*
X0151722Y0067723D01*
X0151722Y0068828D02*
X0151722Y0069378D01*
X0154044Y0069378D01*
X0154044Y0068828D01*
X0151722Y0068828D01*
X0151722Y0069063D02*
X0154044Y0069063D01*
X0154044Y0069298D02*
X0151722Y0069298D01*
X0151722Y0070403D02*
X0151722Y0070953D01*
X0154044Y0070953D01*
X0154044Y0070403D01*
X0151722Y0070403D01*
X0151722Y0070638D02*
X0154044Y0070638D01*
X0154044Y0070873D02*
X0151722Y0070873D01*
X0151722Y0071978D02*
X0151722Y0072528D01*
X0154044Y0072528D01*
X0154044Y0071978D01*
X0151722Y0071978D01*
X0151722Y0072213D02*
X0154044Y0072213D01*
X0154044Y0072448D02*
X0151722Y0072448D01*
X0151722Y0073552D02*
X0151722Y0074102D01*
X0154044Y0074102D01*
X0154044Y0073552D01*
X0151722Y0073552D01*
X0151722Y0073787D02*
X0154044Y0073787D01*
X0154044Y0074022D02*
X0151722Y0074022D01*
D28*
X0159517Y0097367D03*
X0174083Y0097367D03*
D29*
X0064300Y0109867D03*
X0054300Y0109867D03*
X0044300Y0109867D03*
D30*
X0035300Y0014867D03*
X0045300Y0014867D03*
X0055300Y0014867D03*
X0065300Y0014867D03*
X0077300Y0014867D03*
X0087300Y0014867D03*
X0097300Y0014867D03*
X0107300Y0014867D03*
X0119300Y0014867D03*
X0129300Y0014867D03*
X0139300Y0014867D03*
X0149300Y0014867D03*
X0161300Y0014867D03*
X0171300Y0014867D03*
X0181300Y0014867D03*
X0191300Y0014867D03*
X0191300Y0124867D03*
X0181300Y0124867D03*
X0171300Y0124867D03*
X0161300Y0124867D03*
X0149300Y0124867D03*
X0139300Y0124867D03*
X0129300Y0124867D03*
X0119300Y0124867D03*
X0107300Y0124867D03*
X0097300Y0124867D03*
X0087300Y0124867D03*
X0077300Y0124867D03*
D31*
X0077300Y0119667D01*
X0076800Y0119167D01*
X0076800Y0112367D01*
X0079300Y0109867D01*
X0071800Y0109467D02*
X0070100Y0109467D01*
X0070100Y0108713D02*
X0070100Y0111020D01*
X0069217Y0113152D01*
X0067585Y0114784D01*
X0065454Y0115667D01*
X0063146Y0115667D01*
X0061015Y0114784D01*
X0059383Y0113152D01*
X0058970Y0112155D01*
X0058747Y0112592D01*
X0058266Y0113254D01*
X0057688Y0113833D01*
X0057025Y0114314D01*
X0056296Y0114686D01*
X0055518Y0114939D01*
X0054709Y0115067D01*
X0054375Y0115067D01*
X0054375Y0109942D01*
X0054225Y0109942D01*
X0054225Y0115067D01*
X0053891Y0115067D01*
X0053082Y0114939D01*
X0052304Y0114686D01*
X0051575Y0114314D01*
X0050912Y0113833D01*
X0050334Y0113254D01*
X0049853Y0112592D01*
X0049630Y0112155D01*
X0049217Y0113152D01*
X0047585Y0114784D01*
X0045454Y0115667D01*
X0043146Y0115667D01*
X0041015Y0114784D01*
X0039383Y0113152D01*
X0038500Y0111020D01*
X0038500Y0108713D01*
X0039383Y0106581D01*
X0041015Y0104950D01*
X0043146Y0104067D01*
X0045454Y0104067D01*
X0047585Y0104950D01*
X0049217Y0106581D01*
X0049630Y0107578D01*
X0049853Y0107141D01*
X0050334Y0106479D01*
X0050912Y0105900D01*
X0051575Y0105419D01*
X0052304Y0105048D01*
X0053082Y0104795D01*
X0053891Y0104667D01*
X0054225Y0104667D01*
X0054225Y0109792D01*
X0054375Y0109792D01*
X0054375Y0104667D01*
X0054709Y0104667D01*
X0055518Y0104795D01*
X0056296Y0105048D01*
X0057025Y0105419D01*
X0057688Y0105900D01*
X0058266Y0106479D01*
X0058747Y0107141D01*
X0058970Y0107578D01*
X0059383Y0106581D01*
X0061015Y0104950D01*
X0063146Y0104067D01*
X0065454Y0104067D01*
X0067585Y0104950D01*
X0069217Y0106581D01*
X0070100Y0108713D01*
X0069750Y0107868D02*
X0071800Y0107868D01*
X0071800Y0106270D02*
X0068906Y0106270D01*
X0066914Y0104671D02*
X0071800Y0104671D01*
X0071800Y0103073D02*
X0034200Y0103073D01*
X0034200Y0102897D02*
X0034200Y0106836D01*
X0032693Y0110475D01*
X0029908Y0113259D01*
X0028988Y0113641D01*
X0029100Y0113912D01*
X0029100Y0119867D01*
X0071800Y0119867D01*
X0071800Y0102367D01*
X0071800Y0099729D01*
X0071800Y0099729D01*
X0071800Y0102710D01*
X0070382Y0102710D01*
X0070220Y0102666D01*
X0069521Y0102956D01*
X0066204Y0102956D01*
X0065322Y0102590D01*
X0064647Y0101915D01*
X0064282Y0101033D01*
X0064282Y0099050D01*
X0057941Y0093467D01*
X0056813Y0093467D01*
X0051434Y0093507D01*
X0051304Y0093820D01*
X0049383Y0095741D01*
X0046873Y0096781D01*
X0044157Y0096781D01*
X0041647Y0095741D01*
X0039726Y0093820D01*
X0038686Y0091310D01*
X0038686Y0088593D01*
X0039726Y0086083D01*
X0041172Y0084637D01*
X0039726Y0083190D01*
X0038686Y0080680D01*
X0038686Y0077963D01*
X0039726Y0075453D01*
X0039928Y0075250D01*
X0038942Y0074265D01*
X0037762Y0071415D01*
X0037762Y0068331D01*
X0038942Y0065481D01*
X0039928Y0064495D01*
X0039726Y0064293D01*
X0038686Y0061783D01*
X0038686Y0059066D01*
X0039726Y0056556D01*
X0041172Y0055109D01*
X0039726Y0053663D01*
X0038686Y0051153D01*
X0038686Y0048436D01*
X0039726Y0045926D01*
X0041647Y0044005D01*
X0044157Y0042965D01*
X0046873Y0042965D01*
X0049383Y0044005D01*
X0051304Y0045926D01*
X0051428Y0046225D01*
X0058740Y0046264D01*
X0058871Y0046221D01*
X0059452Y0046267D01*
X0060035Y0046270D01*
X0060162Y0046324D01*
X0060299Y0046335D01*
X0060818Y0046600D01*
X0061355Y0046825D01*
X0061452Y0046923D01*
X0061574Y0046986D01*
X0061953Y0047429D01*
X0062363Y0047843D01*
X0062415Y0047971D01*
X0067861Y0054356D01*
X0069521Y0054356D01*
X0070220Y0054646D01*
X0070382Y0054602D01*
X0071800Y0054602D01*
X0073218Y0054602D01*
X0073392Y0054649D01*
X0074070Y0054367D01*
X0077387Y0054367D01*
X0078269Y0054733D01*
X0078945Y0055408D01*
X0079310Y0056290D01*
X0079310Y0061161D01*
X0079318Y0061153D01*
X0080929Y0060486D01*
X0082671Y0060486D01*
X0084282Y0061153D01*
X0085514Y0062385D01*
X0085690Y0062811D01*
X0087580Y0062811D01*
X0087580Y0067084D01*
X0088146Y0067084D01*
X0088146Y0062811D01*
X0090265Y0062811D01*
X0090723Y0062933D01*
X0091134Y0063170D01*
X0091443Y0063479D01*
X0091537Y0063251D01*
X0092212Y0062576D01*
X0093094Y0062211D01*
X0093800Y0062211D01*
X0093800Y0061932D01*
X0092701Y0061932D01*
X0091818Y0061567D01*
X0091335Y0061083D01*
X0091117Y0061209D01*
X0090659Y0061332D01*
X0088638Y0061332D01*
X0088638Y0057551D01*
X0088269Y0057551D01*
X0088269Y0057367D01*
X0081800Y0057367D01*
X0081800Y0052934D01*
X0080513Y0053467D01*
X0078087Y0053467D01*
X0075845Y0052538D01*
X0074129Y0050822D01*
X0073932Y0050348D01*
X0073495Y0050950D01*
X0072883Y0051562D01*
X0072183Y0052071D01*
X0071411Y0052464D01*
X0070588Y0052731D01*
X0069733Y0052867D01*
X0069500Y0052867D01*
X0069500Y0047567D01*
X0069100Y0047567D01*
X0069100Y0052867D01*
X0068867Y0052867D01*
X0068012Y0052731D01*
X0067189Y0052464D01*
X0066417Y0052071D01*
X0065717Y0051562D01*
X0065105Y0050950D01*
X0064596Y0050249D01*
X0064203Y0049478D01*
X0063935Y0048655D01*
X0063800Y0047800D01*
X0063800Y0047567D01*
X0069100Y0047567D01*
X0069100Y0047167D01*
X0063800Y0047167D01*
X0063800Y0046934D01*
X0063935Y0046079D01*
X0064203Y0045255D01*
X0064596Y0044484D01*
X0065105Y0043784D01*
X0065533Y0043356D01*
X0064961Y0043119D01*
X0064209Y0042367D01*
X0030801Y0042367D01*
X0029908Y0043259D01*
X0029635Y0043373D01*
X0030221Y0043615D01*
X0032402Y0045796D01*
X0033583Y0048646D01*
X0033583Y0051730D01*
X0032402Y0054579D01*
X0030221Y0056760D01*
X0027372Y0057941D01*
X0024288Y0057941D01*
X0021438Y0056760D01*
X0020909Y0056231D01*
X0020379Y0056760D01*
X0019100Y0057290D01*
X0019100Y0068895D01*
X0019146Y0068543D01*
X0019377Y0067682D01*
X0019718Y0066859D01*
X0020164Y0066087D01*
X0020706Y0065380D01*
X0021337Y0064749D01*
X0022044Y0064207D01*
X0022816Y0063761D01*
X0023639Y0063420D01*
X0024500Y0063189D01*
X0025154Y0063103D01*
X0025154Y0069196D01*
X0026506Y0069196D01*
X0026506Y0063103D01*
X0027159Y0063189D01*
X0028020Y0063420D01*
X0028844Y0063761D01*
X0029616Y0064207D01*
X0030323Y0064749D01*
X0030953Y0065380D01*
X0031496Y0066087D01*
X0031942Y0066859D01*
X0032283Y0067682D01*
X0032514Y0068543D01*
X0032600Y0069197D01*
X0026506Y0069197D01*
X0026506Y0070549D01*
X0025154Y0070549D01*
X0025154Y0076643D01*
X0024500Y0076557D01*
X0023639Y0076326D01*
X0022816Y0075985D01*
X0022044Y0075539D01*
X0021337Y0074996D01*
X0020706Y0074366D01*
X0020164Y0073659D01*
X0019718Y0072887D01*
X0019377Y0072063D01*
X0019146Y0071202D01*
X0019100Y0070851D01*
X0019100Y0082456D01*
X0020379Y0082986D01*
X0020909Y0083515D01*
X0021438Y0082986D01*
X0024288Y0081805D01*
X0027372Y0081805D01*
X0030221Y0082986D01*
X0032402Y0085166D01*
X0033583Y0088016D01*
X0033583Y0091100D01*
X0032402Y0093950D01*
X0030221Y0096130D01*
X0029650Y0096367D01*
X0029908Y0096474D01*
X0032693Y0099259D01*
X0034200Y0102897D01*
X0033611Y0101474D02*
X0064465Y0101474D01*
X0064282Y0099876D02*
X0032948Y0099876D01*
X0031711Y0098277D02*
X0063405Y0098277D01*
X0061589Y0096679D02*
X0047120Y0096679D01*
X0050044Y0095080D02*
X0059774Y0095080D01*
X0057958Y0093482D02*
X0054801Y0093482D01*
X0056071Y0086272D02*
X0051397Y0086307D01*
X0051304Y0086083D01*
X0049858Y0084637D01*
X0051304Y0083190D01*
X0052344Y0080680D01*
X0052344Y0077963D01*
X0051304Y0075453D01*
X0051101Y0075250D01*
X0052087Y0074265D01*
X0053268Y0071415D01*
X0053268Y0068331D01*
X0052087Y0065481D01*
X0051101Y0064495D01*
X0051304Y0064293D01*
X0052344Y0061783D01*
X0052344Y0059066D01*
X0051304Y0056556D01*
X0049858Y0055109D01*
X0051304Y0053663D01*
X0051403Y0053425D01*
X0057632Y0053458D01*
X0064282Y0061255D01*
X0064282Y0063533D01*
X0064647Y0064415D01*
X0065322Y0065090D01*
X0066204Y0065456D01*
X0068280Y0065456D01*
X0067706Y0066030D01*
X0062464Y0066030D01*
X0061582Y0066395D01*
X0060907Y0067070D01*
X0060542Y0067952D01*
X0060542Y0076781D01*
X0060907Y0077663D01*
X0061582Y0078338D01*
X0062254Y0078617D01*
X0061582Y0078895D01*
X0060907Y0079570D01*
X0060542Y0080452D01*
X0060542Y0086484D01*
X0060016Y0086267D01*
X0059898Y0086267D01*
X0059786Y0086228D01*
X0059186Y0086267D01*
X0057502Y0086267D01*
X0057489Y0086261D01*
X0056787Y0086267D01*
X0056084Y0086267D01*
X0056071Y0086272D01*
X0060542Y0085489D02*
X0050710Y0085489D01*
X0050604Y0083891D02*
X0060542Y0083891D01*
X0060542Y0082292D02*
X0051676Y0082292D01*
X0052338Y0080694D02*
X0060542Y0080694D01*
X0061382Y0079095D02*
X0052344Y0079095D01*
X0052151Y0077497D02*
X0060838Y0077497D01*
X0060542Y0075898D02*
X0051489Y0075898D01*
X0052052Y0074300D02*
X0060542Y0074300D01*
X0060542Y0072701D02*
X0052735Y0072701D01*
X0053268Y0071103D02*
X0060542Y0071103D01*
X0060542Y0069504D02*
X0053268Y0069504D01*
X0053092Y0067906D02*
X0060561Y0067906D01*
X0061794Y0066307D02*
X0052429Y0066307D01*
X0051315Y0064709D02*
X0064941Y0064709D01*
X0064282Y0063110D02*
X0051794Y0063110D01*
X0052344Y0061512D02*
X0064282Y0061512D01*
X0063137Y0059913D02*
X0052344Y0059913D01*
X0052033Y0058315D02*
X0061774Y0058315D01*
X0060410Y0056716D02*
X0051371Y0056716D01*
X0049866Y0055118D02*
X0059047Y0055118D01*
X0057684Y0053519D02*
X0051364Y0053519D01*
X0041164Y0055118D02*
X0031864Y0055118D01*
X0032842Y0053519D02*
X0039666Y0053519D01*
X0039004Y0051921D02*
X0033504Y0051921D01*
X0033583Y0050322D02*
X0038686Y0050322D01*
X0038686Y0048723D02*
X0033583Y0048723D01*
X0032953Y0047125D02*
X0039229Y0047125D01*
X0040125Y0045526D02*
X0032133Y0045526D01*
X0030534Y0043928D02*
X0041832Y0043928D01*
X0049198Y0043928D02*
X0065000Y0043928D01*
X0064115Y0045526D02*
X0050905Y0045526D01*
X0061693Y0047125D02*
X0063800Y0047125D01*
X0063958Y0048723D02*
X0063057Y0048723D01*
X0064420Y0050322D02*
X0064649Y0050322D01*
X0065783Y0051921D02*
X0066211Y0051921D01*
X0067147Y0053519D02*
X0081800Y0053519D01*
X0081800Y0054867D02*
X0084300Y0057367D01*
X0088454Y0057367D01*
X0088269Y0057551D02*
X0084685Y0057551D01*
X0084685Y0059769D01*
X0084808Y0060227D01*
X0085045Y0060637D01*
X0085380Y0060972D01*
X0085790Y0061209D01*
X0086248Y0061332D01*
X0088269Y0061332D01*
X0088269Y0057551D01*
X0088269Y0058315D02*
X0088638Y0058315D01*
X0088638Y0059913D02*
X0088269Y0059913D01*
X0084724Y0059913D02*
X0079310Y0059913D01*
X0079310Y0058315D02*
X0084685Y0058315D01*
X0081800Y0056716D02*
X0079310Y0056716D01*
X0078654Y0055118D02*
X0081800Y0055118D01*
X0088000Y0052267D02*
X0092800Y0052267D01*
X0095146Y0057367D01*
X0099800Y0057367D02*
X0099800Y0063114D01*
X0099937Y0063251D01*
X0099988Y0063375D01*
X0100929Y0062986D01*
X0102671Y0062986D01*
X0104193Y0063616D01*
X0104257Y0063506D01*
X0104592Y0063170D01*
X0105003Y0062933D01*
X0105461Y0062811D01*
X0107580Y0062811D01*
X0107580Y0067084D01*
X0108146Y0067084D01*
X0108146Y0062811D01*
X0110265Y0062811D01*
X0110723Y0062933D01*
X0111134Y0063170D01*
X0111443Y0063479D01*
X0111537Y0063251D01*
X0112212Y0062576D01*
X0112345Y0062521D01*
X0112345Y0061745D01*
X0111818Y0061527D01*
X0111335Y0061044D01*
X0111117Y0061170D01*
X0110659Y0061293D01*
X0108589Y0061293D01*
X0108589Y0057600D01*
X0108122Y0057600D01*
X0108122Y0061293D01*
X0106051Y0061293D01*
X0105593Y0061170D01*
X0105183Y0060933D01*
X0104848Y0060598D01*
X0104611Y0060187D01*
X0104488Y0059730D01*
X0104488Y0057600D01*
X0108122Y0057600D01*
X0108122Y0057367D01*
X0099800Y0057367D01*
X0099800Y0058315D02*
X0104488Y0058315D01*
X0104537Y0059913D02*
X0099800Y0059913D01*
X0099800Y0061512D02*
X0111803Y0061512D01*
X0111678Y0063110D02*
X0111029Y0063110D01*
X0108146Y0063110D02*
X0107580Y0063110D01*
X0107580Y0064709D02*
X0108146Y0064709D01*
X0108146Y0066307D02*
X0107580Y0066307D01*
X0107863Y0067367D02*
X0107863Y0057859D01*
X0108355Y0057367D01*
X0108122Y0058315D02*
X0108589Y0058315D01*
X0108589Y0059913D02*
X0108122Y0059913D01*
X0104697Y0063110D02*
X0102972Y0063110D01*
X0100628Y0063110D02*
X0099800Y0063110D01*
X0107580Y0067649D02*
X0107580Y0071923D01*
X0105461Y0071923D01*
X0105003Y0071800D01*
X0104592Y0071563D01*
X0104257Y0071228D01*
X0104193Y0071117D01*
X0103679Y0071330D01*
X0101443Y0073566D01*
X0100599Y0074410D01*
X0099712Y0074778D01*
X0099712Y0079970D01*
X0099346Y0080852D01*
X0098671Y0081527D01*
X0097789Y0081893D01*
X0092701Y0081893D01*
X0091818Y0081527D01*
X0091800Y0081509D01*
X0091782Y0081527D01*
X0090899Y0081893D01*
X0087407Y0081893D01*
X0088355Y0082841D01*
X0090899Y0082841D01*
X0091782Y0083206D01*
X0092265Y0083689D01*
X0092483Y0083563D01*
X0092941Y0083441D01*
X0095011Y0083441D01*
X0095011Y0087133D01*
X0095478Y0087133D01*
X0095478Y0083441D01*
X0097549Y0083441D01*
X0098007Y0083563D01*
X0098417Y0083800D01*
X0098752Y0084135D01*
X0098989Y0084546D01*
X0099112Y0085004D01*
X0099112Y0087133D01*
X0095478Y0087133D01*
X0095478Y0087600D01*
X0095011Y0087600D01*
X0095011Y0091293D01*
X0092941Y0091293D01*
X0092483Y0091170D01*
X0092265Y0091044D01*
X0091782Y0091527D01*
X0090899Y0091893D01*
X0086181Y0091893D01*
X0086181Y0092801D01*
X0090899Y0092801D01*
X0091782Y0093167D01*
X0092265Y0093650D01*
X0092483Y0093524D01*
X0092941Y0093401D01*
X0094962Y0093401D01*
X0094962Y0097182D01*
X0095331Y0097182D01*
X0095331Y0097551D01*
X0098915Y0097551D01*
X0098915Y0099769D01*
X0098792Y0100227D01*
X0098555Y0100637D01*
X0098220Y0100972D01*
X0097810Y0101209D01*
X0097352Y0101332D01*
X0095331Y0101332D01*
X0095331Y0097551D01*
X0094962Y0097551D01*
X0094962Y0101332D01*
X0092941Y0101332D01*
X0092483Y0101209D01*
X0092265Y0101083D01*
X0091782Y0101567D01*
X0090899Y0101932D01*
X0086008Y0101932D01*
X0085126Y0101567D01*
X0084450Y0100891D01*
X0084316Y0100567D01*
X0079310Y0100567D01*
X0079310Y0101044D01*
X0078945Y0101926D01*
X0078504Y0102367D01*
X0104300Y0102367D01*
X0104300Y0093467D01*
X0104290Y0093443D01*
X0104290Y0086189D01*
X0104300Y0086165D01*
X0104300Y0084867D01*
X0105096Y0084867D01*
X0105330Y0084632D01*
X0105506Y0084559D01*
X0106841Y0083224D01*
X0107657Y0082408D01*
X0108723Y0081967D01*
X0116400Y0081967D01*
X0116400Y0076186D01*
X0116151Y0076208D01*
X0115012Y0075851D01*
X0114097Y0075085D01*
X0113364Y0073682D01*
X0113281Y0073601D01*
X0113089Y0073157D01*
X0112865Y0072727D01*
X0112854Y0072612D01*
X0112809Y0072505D01*
X0112807Y0072404D01*
X0112212Y0072157D01*
X0111537Y0071482D01*
X0111443Y0071254D01*
X0111134Y0071563D01*
X0110723Y0071800D01*
X0110265Y0071923D01*
X0108146Y0071923D01*
X0108146Y0067649D01*
X0107580Y0067649D01*
X0107580Y0067906D02*
X0108146Y0067906D01*
X0108146Y0069504D02*
X0107580Y0069504D01*
X0107580Y0071103D02*
X0108146Y0071103D01*
X0112862Y0072701D02*
X0102308Y0072701D01*
X0100710Y0074300D02*
X0113686Y0074300D01*
X0115164Y0075898D02*
X0099712Y0075898D01*
X0099712Y0077497D02*
X0116400Y0077497D01*
X0116400Y0079095D02*
X0099712Y0079095D01*
X0099412Y0080694D02*
X0116400Y0080694D01*
X0107937Y0082292D02*
X0087806Y0082292D01*
X0084000Y0083012D02*
X0084000Y0080167D01*
X0082100Y0078267D01*
X0070100Y0078267D01*
X0069300Y0077467D01*
X0069300Y0077367D01*
X0066800Y0074867D01*
X0066800Y0072367D01*
X0065894Y0072367D01*
X0072394Y0065867D01*
X0075300Y0063867D01*
X0075729Y0062338D01*
X0075729Y0059917D01*
X0071800Y0059913D02*
X0071800Y0059913D01*
X0071800Y0060564D02*
X0071800Y0057583D01*
X0071800Y0054602D01*
X0071800Y0057583D01*
X0071800Y0057583D01*
X0071800Y0057583D01*
X0071800Y0062229D01*
X0071800Y0062229D01*
X0071800Y0060564D01*
X0071800Y0061512D02*
X0071800Y0061512D01*
X0071800Y0058315D02*
X0071800Y0058315D01*
X0071800Y0056716D02*
X0071800Y0056716D01*
X0071800Y0055118D02*
X0071800Y0055118D01*
X0071800Y0054867D02*
X0069300Y0052367D01*
X0069300Y0047367D01*
X0069100Y0048723D02*
X0069500Y0048723D01*
X0069500Y0050322D02*
X0069100Y0050322D01*
X0069100Y0051921D02*
X0069500Y0051921D01*
X0072389Y0051921D02*
X0075227Y0051921D01*
X0079300Y0047367D02*
X0083700Y0047267D01*
X0086200Y0049767D01*
X0088000Y0052267D01*
X0098291Y0046267D02*
X0101644Y0046267D01*
X0101644Y0046161D01*
X0102009Y0045279D01*
X0102685Y0044604D01*
X0102913Y0044509D01*
X0102604Y0044200D01*
X0102367Y0043790D01*
X0102244Y0043332D01*
X0102244Y0041212D01*
X0106517Y0041212D01*
X0106517Y0040647D01*
X0102244Y0040647D01*
X0102244Y0038527D01*
X0102367Y0038070D01*
X0102604Y0037659D01*
X0102939Y0037324D01*
X0103349Y0037087D01*
X0103807Y0036964D01*
X0106517Y0036964D01*
X0106517Y0040647D01*
X0107083Y0040647D01*
X0107083Y0041212D01*
X0111356Y0041212D01*
X0111356Y0043332D01*
X0111233Y0043790D01*
X0110996Y0044200D01*
X0110687Y0044509D01*
X0110915Y0044604D01*
X0111515Y0045204D01*
X0112085Y0045204D01*
X0112685Y0044604D01*
X0112913Y0044509D01*
X0112604Y0044200D01*
X0112367Y0043790D01*
X0112244Y0043332D01*
X0112244Y0041212D01*
X0116517Y0041212D01*
X0116517Y0040647D01*
X0112244Y0040647D01*
X0112244Y0038527D01*
X0112367Y0038070D01*
X0112604Y0037659D01*
X0112939Y0037324D01*
X0113349Y0037087D01*
X0113807Y0036964D01*
X0116517Y0036964D01*
X0116517Y0040647D01*
X0117083Y0040647D01*
X0117083Y0041212D01*
X0121356Y0041212D01*
X0121356Y0041806D01*
X0122129Y0041486D01*
X0123871Y0041486D01*
X0125482Y0042153D01*
X0126170Y0042841D01*
X0130899Y0042841D01*
X0131782Y0043206D01*
X0132265Y0043689D01*
X0132483Y0043563D01*
X0132941Y0043441D01*
X0135011Y0043441D01*
X0135011Y0047133D01*
X0135478Y0047133D01*
X0135478Y0043441D01*
X0137549Y0043441D01*
X0138007Y0043563D01*
X0138417Y0043800D01*
X0138752Y0044135D01*
X0138989Y0044546D01*
X0139112Y0045004D01*
X0139112Y0047133D01*
X0135478Y0047133D01*
X0135478Y0047600D01*
X0139112Y0047600D01*
X0139112Y0049167D01*
X0146100Y0049167D01*
X0146100Y0047530D01*
X0146587Y0046354D01*
X0147487Y0045454D01*
X0148663Y0044967D01*
X0149937Y0044967D01*
X0150661Y0045267D01*
X0152619Y0045267D01*
X0152619Y0044398D01*
X0151818Y0044067D01*
X0151800Y0044048D01*
X0151782Y0044067D01*
X0150899Y0044432D01*
X0146008Y0044432D01*
X0145126Y0044067D01*
X0144450Y0043391D01*
X0144085Y0042509D01*
X0144085Y0037224D01*
X0144450Y0036342D01*
X0145126Y0035667D01*
X0146008Y0035301D01*
X0146300Y0035301D01*
X0146300Y0035010D01*
X0145958Y0034868D01*
X0144300Y0033211D01*
X0142642Y0034868D01*
X0140474Y0035767D01*
X0138126Y0035767D01*
X0135958Y0034868D01*
X0134300Y0033211D01*
X0132642Y0034868D01*
X0130474Y0035767D01*
X0128126Y0035767D01*
X0125958Y0034868D01*
X0124300Y0033211D01*
X0122642Y0034868D01*
X0120474Y0035767D01*
X0118126Y0035767D01*
X0115958Y0034868D01*
X0114300Y0033211D01*
X0112642Y0034868D01*
X0110474Y0035767D01*
X0108126Y0035767D01*
X0105958Y0034868D01*
X0104300Y0033211D01*
X0102642Y0034868D01*
X0100474Y0035767D01*
X0098126Y0035767D01*
X0095958Y0034868D01*
X0094300Y0033211D01*
X0092642Y0034868D01*
X0091700Y0035259D01*
X0091700Y0037844D01*
X0091335Y0038726D01*
X0091043Y0039018D01*
X0098291Y0046267D01*
X0097551Y0045526D02*
X0101907Y0045526D01*
X0102447Y0043928D02*
X0095952Y0043928D01*
X0094354Y0042329D02*
X0102244Y0042329D01*
X0102244Y0039132D02*
X0091157Y0039132D01*
X0092755Y0040731D02*
X0106517Y0040731D01*
X0107083Y0040731D02*
X0116517Y0040731D01*
X0116800Y0040930D02*
X0135363Y0040930D01*
X0136800Y0042367D01*
X0136800Y0045812D01*
X0135245Y0047367D01*
X0135478Y0047125D02*
X0135011Y0047125D01*
X0135011Y0045526D02*
X0135478Y0045526D01*
X0135478Y0043928D02*
X0135011Y0043928D01*
X0138545Y0043928D02*
X0144987Y0043928D01*
X0144085Y0042329D02*
X0125659Y0042329D01*
X0121356Y0040647D02*
X0117083Y0040647D01*
X0117083Y0036964D01*
X0119793Y0036964D01*
X0120251Y0037087D01*
X0120661Y0037324D01*
X0120996Y0037659D01*
X0121233Y0038070D01*
X0121356Y0038527D01*
X0121356Y0040647D01*
X0121356Y0039132D02*
X0144085Y0039132D01*
X0144085Y0040731D02*
X0117083Y0040731D01*
X0117083Y0039132D02*
X0116517Y0039132D01*
X0116517Y0037534D02*
X0117083Y0037534D01*
X0115426Y0034337D02*
X0113174Y0034337D01*
X0112729Y0037534D02*
X0110871Y0037534D01*
X0110996Y0037659D02*
X0111233Y0038070D01*
X0111356Y0038527D01*
X0111356Y0040647D01*
X0107083Y0040647D01*
X0107083Y0036964D01*
X0109793Y0036964D01*
X0110251Y0037087D01*
X0110661Y0037324D01*
X0110996Y0037659D01*
X0107083Y0037534D02*
X0106517Y0037534D01*
X0106517Y0039132D02*
X0107083Y0039132D01*
X0111356Y0039132D02*
X0112244Y0039132D01*
X0112244Y0042329D02*
X0111356Y0042329D01*
X0111153Y0043928D02*
X0112447Y0043928D01*
X0116800Y0048804D02*
X0116800Y0049867D01*
X0119300Y0052367D01*
X0149300Y0052367D01*
X0149300Y0061229D01*
X0152500Y0058329D02*
X0153445Y0058329D01*
X0153445Y0057059D01*
X0153576Y0056571D01*
X0153828Y0056134D01*
X0154185Y0055777D01*
X0154623Y0055524D01*
X0155110Y0055394D01*
X0155639Y0055394D01*
X0156163Y0055394D01*
X0155519Y0053838D01*
X0155519Y0052095D01*
X0155945Y0051067D01*
X0152500Y0051067D01*
X0152500Y0058329D01*
X0152500Y0058315D02*
X0153445Y0058315D01*
X0153537Y0056716D02*
X0152500Y0056716D01*
X0152500Y0055118D02*
X0156049Y0055118D01*
X0155639Y0055394D02*
X0155639Y0055898D01*
X0155639Y0055898D01*
X0155639Y0055394D01*
X0155519Y0053519D02*
X0152500Y0053519D01*
X0152500Y0051921D02*
X0155591Y0051921D01*
X0149300Y0052367D02*
X0149300Y0048167D01*
X0146268Y0047125D02*
X0139112Y0047125D01*
X0139112Y0048723D02*
X0146100Y0048723D01*
X0147415Y0045526D02*
X0139112Y0045526D01*
X0128355Y0047367D02*
X0126800Y0047367D01*
X0120871Y0037534D02*
X0144085Y0037534D01*
X0144857Y0035935D02*
X0091700Y0035935D01*
X0091700Y0037534D02*
X0102729Y0037534D01*
X0103174Y0034337D02*
X0105426Y0034337D01*
X0109300Y0029867D02*
X0109300Y0022367D01*
X0107300Y0020367D01*
X0107300Y0014867D01*
X0097300Y0014867D02*
X0097300Y0020367D01*
X0099300Y0022367D01*
X0099300Y0029867D01*
X0095426Y0034337D02*
X0093174Y0034337D01*
X0089300Y0029867D02*
X0089300Y0022367D01*
X0087300Y0020367D01*
X0087300Y0014867D01*
X0079300Y0016867D02*
X0079300Y0029867D01*
X0086237Y0036167D02*
X0086819Y0036167D01*
X0086836Y0036150D01*
X0084037Y0036867D02*
X0070800Y0036867D01*
X0069300Y0035367D01*
X0069300Y0029867D01*
X0069300Y0018867D01*
X0065300Y0014867D01*
X0059300Y0022367D02*
X0055300Y0018367D01*
X0055300Y0014867D01*
X0049300Y0022367D02*
X0045300Y0018367D01*
X0045300Y0014867D01*
X0035300Y0014867D02*
X0035300Y0025867D01*
X0039300Y0029867D01*
X0049300Y0029867D02*
X0049300Y0022367D01*
X0059300Y0022367D02*
X0059300Y0029867D01*
X0059300Y0032367D01*
X0059300Y0029867D01*
X0077300Y0014867D02*
X0079300Y0016867D01*
X0119300Y0014867D02*
X0119300Y0029867D01*
X0123174Y0034337D02*
X0125426Y0034337D01*
X0129300Y0029867D02*
X0129300Y0014867D01*
X0129100Y0014667D01*
X0129300Y0014867D01*
X0139300Y0014867D02*
X0139300Y0029867D01*
X0143174Y0034337D02*
X0145426Y0034337D01*
X0149300Y0029867D02*
X0149300Y0014867D01*
X0161300Y0014867D02*
X0161300Y0025367D01*
X0159300Y0027367D01*
X0159300Y0029867D01*
X0169300Y0029867D02*
X0171300Y0027867D01*
X0171300Y0014867D01*
X0181300Y0014867D02*
X0181300Y0027867D01*
X0179300Y0029867D01*
X0175905Y0034815D02*
X0174300Y0033211D01*
X0172695Y0034815D01*
X0173059Y0034697D01*
X0173883Y0034567D01*
X0174225Y0034567D01*
X0174225Y0039792D01*
X0174375Y0039792D01*
X0174375Y0039942D01*
X0174225Y0039942D01*
X0174225Y0045167D01*
X0173883Y0045167D01*
X0173059Y0045036D01*
X0172266Y0044778D01*
X0171522Y0044400D01*
X0170847Y0043909D01*
X0170257Y0043319D01*
X0169767Y0042644D01*
X0169639Y0042394D01*
X0169302Y0043209D01*
X0167642Y0044868D01*
X0166716Y0045252D01*
X0166909Y0045267D01*
X0167377Y0045267D01*
X0167480Y0045310D01*
X0167592Y0045318D01*
X0167637Y0045341D01*
X0170899Y0045341D01*
X0171782Y0045706D01*
X0172265Y0046189D01*
X0172483Y0046063D01*
X0172941Y0045941D01*
X0175011Y0045941D01*
X0175011Y0049633D01*
X0175478Y0049633D01*
X0175478Y0045941D01*
X0177549Y0045941D01*
X0177825Y0046015D01*
X0177825Y0043837D01*
X0177753Y0043909D01*
X0177078Y0044400D01*
X0176334Y0044778D01*
X0175541Y0045036D01*
X0174717Y0045167D01*
X0174375Y0045167D01*
X0174375Y0039942D01*
X0179600Y0039942D01*
X0179600Y0040284D01*
X0179563Y0040516D01*
X0179748Y0040439D01*
X0182077Y0040439D01*
X0182351Y0040214D01*
X0182657Y0039908D01*
X0182794Y0039851D01*
X0182909Y0039757D01*
X0183323Y0039632D01*
X0183723Y0039467D01*
X0183871Y0039467D01*
X0184013Y0039424D01*
X0184444Y0039467D01*
X0187377Y0039467D01*
X0188443Y0039908D01*
X0189258Y0040724D01*
X0189700Y0041790D01*
X0189700Y0045301D01*
X0190899Y0045301D01*
X0191782Y0045667D01*
X0192265Y0046150D01*
X0192483Y0046024D01*
X0192941Y0045901D01*
X0194962Y0045901D01*
X0194962Y0049682D01*
X0195331Y0049682D01*
X0195331Y0050051D01*
X0198915Y0050051D01*
X0198915Y0052269D01*
X0198792Y0052727D01*
X0198555Y0053137D01*
X0198220Y0053472D01*
X0198035Y0053580D01*
X0198417Y0053800D01*
X0198752Y0054135D01*
X0198989Y0054546D01*
X0199112Y0055004D01*
X0199112Y0057133D01*
X0195478Y0057133D01*
X0195478Y0053832D01*
X0195331Y0053832D01*
X0195331Y0050051D01*
X0194962Y0050051D01*
X0194962Y0053441D01*
X0195011Y0053441D01*
X0195011Y0057133D01*
X0195478Y0057133D01*
X0195478Y0057600D01*
X0195011Y0057600D01*
X0195011Y0060311D01*
X0195454Y0060311D01*
X0195454Y0064584D01*
X0196020Y0064584D01*
X0196020Y0065149D01*
X0199702Y0065149D01*
X0199702Y0067860D01*
X0199580Y0068317D01*
X0199343Y0068728D01*
X0199008Y0069063D01*
X0198785Y0069192D01*
X0198989Y0069546D01*
X0199112Y0070004D01*
X0199112Y0072133D01*
X0195478Y0072133D01*
X0195478Y0068441D01*
X0196020Y0068441D01*
X0196020Y0065149D01*
X0195454Y0065149D01*
X0195454Y0069423D01*
X0195011Y0069423D01*
X0195011Y0072133D01*
X0195478Y0072133D01*
X0195478Y0072600D01*
X0195011Y0072600D01*
X0195011Y0076293D01*
X0195011Y0079633D01*
X0195478Y0079633D01*
X0195478Y0072600D01*
X0199112Y0072600D01*
X0199112Y0074730D01*
X0198989Y0075187D01*
X0198752Y0075598D01*
X0198417Y0075933D01*
X0198099Y0076117D01*
X0198417Y0076300D01*
X0198752Y0076635D01*
X0198989Y0077046D01*
X0199112Y0077504D01*
X0199112Y0079633D01*
X0195478Y0079633D01*
X0195478Y0080100D01*
X0195011Y0080100D01*
X0195011Y0083793D01*
X0192941Y0083793D01*
X0192483Y0083670D01*
X0192265Y0083544D01*
X0191782Y0084027D01*
X0190899Y0084393D01*
X0185811Y0084393D01*
X0184929Y0084027D01*
X0184254Y0083352D01*
X0183888Y0082470D01*
X0183888Y0079827D01*
X0178516Y0079827D01*
X0178414Y0080005D01*
X0178056Y0080362D01*
X0177619Y0080615D01*
X0177131Y0080745D01*
X0175717Y0080745D01*
X0175155Y0080745D01*
X0175155Y0081308D01*
X0175155Y0082722D01*
X0175024Y0083209D01*
X0174772Y0083647D01*
X0174691Y0083727D01*
X0175430Y0084467D01*
X0187377Y0084467D01*
X0188443Y0084908D01*
X0193443Y0089908D01*
X0194258Y0090724D01*
X0194700Y0091790D01*
X0194700Y0102435D01*
X0195992Y0099315D01*
X0198749Y0096559D01*
X0202351Y0095067D01*
X0206249Y0095067D01*
X0209500Y0096413D01*
X0209500Y0043320D01*
X0206249Y0044667D01*
X0202351Y0044667D01*
X0198749Y0043175D01*
X0195992Y0040418D01*
X0194500Y0036816D01*
X0194500Y0032917D01*
X0194927Y0031887D01*
X0194850Y0031885D01*
X0194302Y0033209D01*
X0192642Y0034868D01*
X0190474Y0035767D01*
X0188126Y0035767D01*
X0185958Y0034868D01*
X0184300Y0033211D01*
X0182642Y0034868D01*
X0180474Y0035767D01*
X0178126Y0035767D01*
X0177063Y0035326D01*
X0177078Y0035334D01*
X0177753Y0035824D01*
X0178343Y0036414D01*
X0178833Y0037089D01*
X0179212Y0037832D01*
X0179469Y0038626D01*
X0179600Y0039450D01*
X0179600Y0039792D01*
X0174375Y0039792D01*
X0174375Y0034567D01*
X0174717Y0034567D01*
X0175541Y0034697D01*
X0175905Y0034815D01*
X0175426Y0034337D02*
X0173174Y0034337D01*
X0174225Y0035935D02*
X0174375Y0035935D01*
X0174375Y0037534D02*
X0174225Y0037534D01*
X0177864Y0035935D02*
X0194500Y0035935D01*
X0194500Y0034337D02*
X0193174Y0034337D01*
X0194497Y0032738D02*
X0194574Y0032738D01*
X0194797Y0037534D02*
X0179060Y0037534D01*
X0179550Y0039132D02*
X0195459Y0039132D01*
X0196305Y0040731D02*
X0189261Y0040731D01*
X0189700Y0042329D02*
X0197903Y0042329D01*
X0200567Y0043928D02*
X0189700Y0043928D01*
X0191443Y0045526D02*
X0209500Y0045526D01*
X0209500Y0043928D02*
X0208033Y0043928D01*
X0209500Y0047125D02*
X0198824Y0047125D01*
X0198792Y0047007D02*
X0198915Y0047464D01*
X0198915Y0049682D01*
X0195331Y0049682D01*
X0195331Y0045901D01*
X0197352Y0045901D01*
X0197810Y0046024D01*
X0198220Y0046261D01*
X0198555Y0046596D01*
X0198792Y0047007D01*
X0198915Y0048723D02*
X0209500Y0048723D01*
X0209500Y0050322D02*
X0198915Y0050322D01*
X0198915Y0051921D02*
X0209500Y0051921D01*
X0209500Y0053519D02*
X0198139Y0053519D01*
X0199112Y0055118D02*
X0209500Y0055118D01*
X0209500Y0056716D02*
X0199112Y0056716D01*
X0199112Y0057600D02*
X0199112Y0059730D01*
X0198989Y0060187D01*
X0198785Y0060542D01*
X0199008Y0060670D01*
X0199343Y0061006D01*
X0199580Y0061416D01*
X0199702Y0061874D01*
X0199702Y0064584D01*
X0196020Y0064584D01*
X0196020Y0061293D01*
X0195478Y0061293D01*
X0195478Y0057600D01*
X0199112Y0057600D01*
X0199112Y0058315D02*
X0209500Y0058315D01*
X0209500Y0059913D02*
X0199063Y0059913D01*
X0195478Y0059913D02*
X0195011Y0059913D01*
X0195011Y0058315D02*
X0195478Y0058315D01*
X0195478Y0056716D02*
X0195011Y0056716D01*
X0195011Y0055118D02*
X0195478Y0055118D01*
X0195331Y0053519D02*
X0195011Y0053519D01*
X0194962Y0051921D02*
X0195331Y0051921D01*
X0195331Y0050322D02*
X0194962Y0050322D01*
X0194962Y0048723D02*
X0195331Y0048723D01*
X0195331Y0047125D02*
X0194962Y0047125D01*
X0178900Y0053943D02*
X0178866Y0053929D01*
X0178387Y0053450D01*
X0178007Y0053670D01*
X0177549Y0053793D01*
X0175478Y0053793D01*
X0175478Y0050100D01*
X0175011Y0050100D01*
X0175011Y0053793D01*
X0172941Y0053793D01*
X0172483Y0053670D01*
X0172265Y0053544D01*
X0171782Y0054027D01*
X0170899Y0054393D01*
X0169700Y0054393D01*
X0169700Y0054652D01*
X0169721Y0054794D01*
X0170588Y0054794D01*
X0170599Y0054798D01*
X0170610Y0054794D01*
X0172163Y0054794D01*
X0172174Y0054798D01*
X0172185Y0054794D01*
X0173738Y0054794D01*
X0174663Y0055177D01*
X0175372Y0055885D01*
X0175755Y0056811D01*
X0175755Y0059035D01*
X0177131Y0059035D01*
X0177619Y0059166D01*
X0178056Y0059418D01*
X0178414Y0059776D01*
X0178666Y0060213D01*
X0178797Y0060701D01*
X0178797Y0060885D01*
X0179013Y0061102D01*
X0179397Y0062027D01*
X0179397Y0063580D01*
X0179392Y0063591D01*
X0179397Y0063602D01*
X0179397Y0065155D01*
X0179392Y0065166D01*
X0179397Y0065177D01*
X0179397Y0066730D01*
X0179392Y0066741D01*
X0179397Y0066752D01*
X0179397Y0067778D01*
X0179788Y0067778D01*
X0181400Y0066165D01*
X0181400Y0059290D01*
X0181611Y0058779D01*
X0179341Y0056509D01*
X0178900Y0055444D01*
X0178900Y0053943D01*
X0178456Y0053519D02*
X0178268Y0053519D01*
X0178900Y0055118D02*
X0174520Y0055118D01*
X0175011Y0053519D02*
X0175478Y0053519D01*
X0175478Y0051921D02*
X0175011Y0051921D01*
X0175011Y0050322D02*
X0175478Y0050322D01*
X0175478Y0048723D02*
X0175011Y0048723D01*
X0175011Y0047125D02*
X0175478Y0047125D01*
X0177825Y0045526D02*
X0171348Y0045526D01*
X0170873Y0043928D02*
X0168583Y0043928D01*
X0174225Y0043928D02*
X0174375Y0043928D01*
X0174375Y0042329D02*
X0174225Y0042329D01*
X0174225Y0040731D02*
X0174375Y0040731D01*
X0174375Y0039132D02*
X0174225Y0039132D01*
X0177727Y0043928D02*
X0177825Y0043928D01*
X0183174Y0034337D02*
X0185426Y0034337D01*
X0189300Y0029867D02*
X0191300Y0027867D01*
X0191300Y0014867D01*
X0135426Y0034337D02*
X0133174Y0034337D01*
X0155639Y0058473D02*
X0156594Y0058473D01*
X0157213Y0058473D01*
X0157213Y0058473D01*
X0155639Y0058473D01*
X0155639Y0058473D01*
X0163259Y0061927D02*
X0163165Y0062161D01*
X0163500Y0062161D01*
X0163500Y0069067D01*
X0159100Y0069067D01*
X0159100Y0070667D01*
X0163500Y0070667D01*
X0163500Y0075567D01*
X0165100Y0075567D01*
X0165100Y0070667D01*
X0163500Y0070667D01*
X0163500Y0069067D01*
X0165100Y0069067D01*
X0170799Y0069067D01*
X0170041Y0069824D01*
X0169692Y0070667D01*
X0165100Y0070667D01*
X0165100Y0069067D01*
X0165100Y0062161D01*
X0170186Y0062161D01*
X0170719Y0062304D01*
X0171197Y0062580D01*
X0171587Y0062970D01*
X0171863Y0063448D01*
X0172005Y0063981D01*
X0172005Y0068070D01*
X0172038Y0068057D01*
X0172038Y0066752D01*
X0172042Y0066741D01*
X0172038Y0066730D01*
X0172038Y0065177D01*
X0172042Y0065166D01*
X0172038Y0065155D01*
X0172038Y0063602D01*
X0172042Y0063591D01*
X0172038Y0063580D01*
X0172038Y0062153D01*
X0170610Y0062153D01*
X0170599Y0062148D01*
X0170588Y0062153D01*
X0169035Y0062153D01*
X0169024Y0062148D01*
X0169013Y0062153D01*
X0167461Y0062153D01*
X0167450Y0062148D01*
X0167439Y0062153D01*
X0165886Y0062153D01*
X0165875Y0062148D01*
X0165864Y0062153D01*
X0164311Y0062153D01*
X0163513Y0061822D01*
X0163259Y0061927D01*
X0163500Y0063110D02*
X0165100Y0063110D01*
X0165100Y0064709D02*
X0163500Y0064709D01*
X0163500Y0066307D02*
X0165100Y0066307D01*
X0165100Y0067906D02*
X0163500Y0067906D01*
X0163500Y0069504D02*
X0159100Y0069504D01*
X0163500Y0071103D02*
X0165100Y0071103D01*
X0165100Y0069504D02*
X0170361Y0069504D01*
X0172005Y0067906D02*
X0172038Y0067906D01*
X0172005Y0066307D02*
X0172038Y0066307D01*
X0172005Y0064709D02*
X0172038Y0064709D01*
X0172038Y0063110D02*
X0171668Y0063110D01*
X0178493Y0059913D02*
X0181400Y0059913D01*
X0181147Y0058315D02*
X0175755Y0058315D01*
X0175716Y0056716D02*
X0179548Y0056716D01*
X0179183Y0061512D02*
X0181400Y0061512D01*
X0181400Y0063110D02*
X0179397Y0063110D01*
X0179397Y0064709D02*
X0181400Y0064709D01*
X0181258Y0066307D02*
X0179397Y0066307D01*
X0165100Y0072701D02*
X0163500Y0072701D01*
X0163500Y0074300D02*
X0165100Y0074300D01*
X0175717Y0079877D02*
X0175717Y0080745D01*
X0175717Y0079877D01*
X0175717Y0079877D01*
X0175717Y0080694D02*
X0175717Y0080694D01*
X0175155Y0081308D02*
X0174237Y0081308D01*
X0175155Y0081308D01*
X0174237Y0081308D02*
X0174237Y0081308D01*
X0175155Y0082292D02*
X0183888Y0082292D01*
X0183888Y0080694D02*
X0177324Y0080694D01*
X0174855Y0083891D02*
X0184792Y0083891D01*
X0189024Y0085489D02*
X0209500Y0085489D01*
X0209500Y0083891D02*
X0191918Y0083891D01*
X0190622Y0087088D02*
X0209500Y0087088D01*
X0209500Y0088686D02*
X0192221Y0088686D01*
X0193819Y0090285D02*
X0209500Y0090285D01*
X0209500Y0091883D02*
X0194700Y0091883D01*
X0194700Y0093482D02*
X0209500Y0093482D01*
X0209500Y0095080D02*
X0206282Y0095080D01*
X0202318Y0095080D02*
X0194700Y0095080D01*
X0194700Y0096679D02*
X0198629Y0096679D01*
X0197030Y0098277D02*
X0194700Y0098277D01*
X0194700Y0099876D02*
X0195760Y0099876D01*
X0195098Y0101474D02*
X0194700Y0101474D01*
X0188900Y0101165D02*
X0188900Y0093568D01*
X0185599Y0090267D01*
X0185574Y0090267D01*
X0185803Y0090495D01*
X0186168Y0091377D01*
X0186168Y0096663D01*
X0185803Y0097545D01*
X0185456Y0097892D01*
X0185568Y0098311D01*
X0185568Y0100529D01*
X0181984Y0100529D01*
X0181984Y0100897D01*
X0185568Y0100897D01*
X0185568Y0101967D01*
X0188099Y0101967D01*
X0188900Y0101165D01*
X0188591Y0101474D02*
X0185568Y0101474D01*
X0185568Y0099876D02*
X0188900Y0099876D01*
X0188900Y0098277D02*
X0185560Y0098277D01*
X0186162Y0096679D02*
X0188900Y0096679D01*
X0188900Y0095080D02*
X0186168Y0095080D01*
X0186168Y0093482D02*
X0188814Y0093482D01*
X0187215Y0091883D02*
X0186168Y0091883D01*
X0185617Y0090285D02*
X0185593Y0090285D01*
X0181800Y0094020D02*
X0180954Y0094867D01*
X0179300Y0094867D01*
X0176800Y0097367D01*
X0174083Y0097367D01*
X0159517Y0097367D02*
X0158457Y0097367D01*
X0158457Y0094867D01*
X0151984Y0098586D02*
X0151984Y0100529D01*
X0151616Y0100529D01*
X0151616Y0098586D01*
X0151984Y0098586D01*
X0151984Y0099876D02*
X0151616Y0099876D01*
X0151616Y0100529D02*
X0148031Y0100529D01*
X0148031Y0098311D01*
X0148144Y0097892D01*
X0147797Y0097545D01*
X0147431Y0096663D01*
X0147431Y0095836D01*
X0145148Y0098119D01*
X0145314Y0098285D01*
X0145981Y0099895D01*
X0145981Y0101638D01*
X0145852Y0101950D01*
X0145863Y0101967D01*
X0148031Y0101967D01*
X0148031Y0100897D01*
X0151616Y0100897D01*
X0151616Y0100529D01*
X0151800Y0100516D02*
X0151800Y0100713D01*
X0148031Y0101474D02*
X0145981Y0101474D01*
X0145973Y0099876D02*
X0148031Y0099876D01*
X0148040Y0098277D02*
X0145306Y0098277D01*
X0146589Y0096679D02*
X0147438Y0096679D01*
X0137581Y0104193D02*
X0132901Y0104193D01*
X0132018Y0103827D01*
X0131535Y0103344D01*
X0131317Y0103470D01*
X0130859Y0103593D01*
X0128789Y0103593D01*
X0128789Y0099900D01*
X0128322Y0099900D01*
X0128322Y0103593D01*
X0126251Y0103593D01*
X0125793Y0103470D01*
X0125383Y0103233D01*
X0125048Y0102898D01*
X0124811Y0102487D01*
X0124688Y0102030D01*
X0124688Y0099900D01*
X0128322Y0099900D01*
X0128322Y0099433D01*
X0128789Y0099433D01*
X0128789Y0097393D01*
X0128689Y0097393D01*
X0128689Y0093700D01*
X0128222Y0093700D01*
X0128222Y0095741D01*
X0128322Y0095741D01*
X0128322Y0099433D01*
X0124688Y0099433D01*
X0124688Y0097304D01*
X0124811Y0096846D01*
X0124922Y0096653D01*
X0124711Y0096287D01*
X0124588Y0095830D01*
X0124588Y0093700D01*
X0128222Y0093700D01*
X0128222Y0093233D01*
X0124588Y0093233D01*
X0124588Y0092467D01*
X0124300Y0092467D01*
X0124300Y0106523D01*
X0125958Y0104865D01*
X0128126Y0103967D01*
X0130474Y0103967D01*
X0132642Y0104865D01*
X0134300Y0106523D01*
X0135958Y0104865D01*
X0137581Y0104193D01*
X0136425Y0104671D02*
X0132175Y0104671D01*
X0134047Y0106270D02*
X0134553Y0106270D01*
X0139300Y0109867D02*
X0139300Y0124867D01*
X0149300Y0124867D02*
X0149300Y0109867D01*
X0159300Y0109867D02*
X0161300Y0111867D01*
X0161300Y0124867D01*
X0171300Y0124867D02*
X0171300Y0111867D01*
X0169300Y0109867D01*
X0179300Y0109867D02*
X0181300Y0111867D01*
X0181300Y0124867D01*
X0191300Y0124867D02*
X0191300Y0111867D01*
X0189300Y0109867D01*
X0162869Y0085741D02*
X0163078Y0085448D01*
X0163347Y0084987D01*
X0162736Y0084987D01*
X0162725Y0084983D01*
X0162714Y0084987D01*
X0161638Y0084987D01*
X0161638Y0085345D01*
X0161469Y0085753D01*
X0162808Y0085763D01*
X0162869Y0085741D01*
X0163049Y0085489D02*
X0161579Y0085489D01*
X0153564Y0083167D02*
X0153445Y0082722D01*
X0153445Y0081402D01*
X0151015Y0081402D01*
X0151015Y0081629D01*
X0150573Y0082695D01*
X0150101Y0083167D01*
X0153564Y0083167D01*
X0153445Y0082292D02*
X0150740Y0082292D01*
X0128222Y0093482D02*
X0124300Y0093482D01*
X0124300Y0095080D02*
X0124588Y0095080D01*
X0124300Y0096679D02*
X0124907Y0096679D01*
X0124688Y0098277D02*
X0124300Y0098277D01*
X0124300Y0099876D02*
X0128322Y0099876D01*
X0128555Y0099667D02*
X0124300Y0102367D01*
X0114300Y0102367D01*
X0111800Y0101867D01*
X0104300Y0101474D02*
X0091874Y0101474D01*
X0094962Y0099876D02*
X0095331Y0099876D01*
X0095331Y0098277D02*
X0094962Y0098277D01*
X0095146Y0097367D02*
X0095245Y0097268D01*
X0095245Y0087367D01*
X0101800Y0087367D01*
X0101800Y0084867D01*
X0104300Y0085489D02*
X0099112Y0085489D01*
X0099112Y0087088D02*
X0104290Y0087088D01*
X0104290Y0088686D02*
X0099112Y0088686D01*
X0099112Y0089730D02*
X0099112Y0087600D01*
X0095478Y0087600D01*
X0095478Y0091293D01*
X0097549Y0091293D01*
X0098007Y0091170D01*
X0098417Y0090933D01*
X0098752Y0090598D01*
X0098989Y0090187D01*
X0099112Y0089730D01*
X0098933Y0090285D02*
X0104290Y0090285D01*
X0104290Y0091883D02*
X0090922Y0091883D01*
X0092097Y0093482D02*
X0092641Y0093482D01*
X0094962Y0093482D02*
X0095331Y0093482D01*
X0095331Y0093401D02*
X0097352Y0093401D01*
X0097810Y0093524D01*
X0098220Y0093761D01*
X0098555Y0094096D01*
X0098792Y0094507D01*
X0098915Y0094964D01*
X0098915Y0097182D01*
X0095331Y0097182D01*
X0095331Y0093401D01*
X0097652Y0093482D02*
X0104300Y0093482D01*
X0104300Y0095080D02*
X0098915Y0095080D01*
X0098915Y0096679D02*
X0104300Y0096679D01*
X0104300Y0098277D02*
X0098915Y0098277D01*
X0098886Y0099876D02*
X0104300Y0099876D01*
X0095331Y0096679D02*
X0094962Y0096679D01*
X0094962Y0095080D02*
X0095331Y0095080D01*
X0088454Y0097367D02*
X0075779Y0097367D01*
X0075729Y0097417D01*
X0076500Y0094146D01*
X0076500Y0092467D01*
X0076400Y0092367D01*
X0074300Y0092367D01*
X0071800Y0089867D01*
X0071800Y0087367D01*
X0069300Y0084867D01*
X0065894Y0084867D01*
X0077706Y0084867D02*
X0081800Y0088961D01*
X0081800Y0092367D01*
X0088355Y0087367D02*
X0084000Y0083012D01*
X0083888Y0075544D02*
X0083888Y0074763D01*
X0084254Y0073881D01*
X0084929Y0073206D01*
X0085811Y0072841D01*
X0087083Y0072841D01*
X0087145Y0072779D01*
X0087522Y0072378D01*
X0087566Y0072358D01*
X0088146Y0071778D01*
X0088146Y0067649D01*
X0087580Y0067649D01*
X0087580Y0071923D01*
X0085461Y0071923D01*
X0085003Y0071800D01*
X0084592Y0071563D01*
X0084257Y0071228D01*
X0084020Y0070817D01*
X0083898Y0070360D01*
X0083898Y0068740D01*
X0083058Y0069088D01*
X0083058Y0075200D01*
X0083888Y0075544D01*
X0084080Y0074300D02*
X0083058Y0074300D01*
X0083058Y0072701D02*
X0087218Y0072701D01*
X0087580Y0071103D02*
X0088146Y0071103D01*
X0088146Y0069504D02*
X0087580Y0069504D01*
X0087580Y0067906D02*
X0088146Y0067906D01*
X0088146Y0066307D02*
X0087580Y0066307D01*
X0087580Y0064709D02*
X0088146Y0064709D01*
X0088146Y0063110D02*
X0087580Y0063110D01*
X0084641Y0061512D02*
X0091763Y0061512D01*
X0091678Y0063110D02*
X0091029Y0063110D01*
X0081800Y0064867D02*
X0076800Y0069867D01*
X0076800Y0071461D01*
X0077706Y0072367D01*
X0083058Y0071103D02*
X0084185Y0071103D01*
X0083898Y0069504D02*
X0083058Y0069504D01*
X0094300Y0076422D02*
X0095245Y0077367D01*
X0095011Y0083891D02*
X0095478Y0083891D01*
X0095478Y0085489D02*
X0095011Y0085489D01*
X0095011Y0087088D02*
X0095478Y0087088D01*
X0095478Y0088686D02*
X0095011Y0088686D01*
X0095011Y0090285D02*
X0095478Y0090285D01*
X0098507Y0083891D02*
X0106175Y0083891D01*
X0106841Y0083224D02*
X0106841Y0083224D01*
X0122900Y0071067D02*
X0122900Y0068567D01*
X0128122Y0067133D02*
X0128589Y0067133D01*
X0128589Y0063441D01*
X0128631Y0063441D01*
X0127601Y0062410D01*
X0127362Y0062171D01*
X0127460Y0063441D01*
X0128122Y0063441D01*
X0128122Y0067133D01*
X0128122Y0066307D02*
X0128589Y0066307D01*
X0128589Y0064709D02*
X0128122Y0064709D01*
X0128301Y0063110D02*
X0127434Y0063110D01*
X0128555Y0095067D02*
X0128555Y0099667D01*
X0128322Y0098277D02*
X0128789Y0098277D01*
X0128689Y0096679D02*
X0128322Y0096679D01*
X0128222Y0095080D02*
X0128689Y0095080D01*
X0128789Y0101474D02*
X0128322Y0101474D01*
X0128322Y0103073D02*
X0128789Y0103073D01*
X0126425Y0104671D02*
X0124300Y0104671D01*
X0124300Y0103073D02*
X0125223Y0103073D01*
X0124688Y0101474D02*
X0124300Y0101474D01*
X0124300Y0106270D02*
X0124553Y0106270D01*
X0129300Y0109867D02*
X0129300Y0124867D01*
X0119300Y0124867D02*
X0119300Y0109867D01*
X0109300Y0109867D02*
X0106800Y0112367D01*
X0106800Y0124367D01*
X0107300Y0124867D01*
X0097300Y0124867D02*
X0097100Y0125067D01*
X0096800Y0125067D01*
X0096800Y0112367D01*
X0099300Y0109867D01*
X0089300Y0109867D02*
X0086800Y0112367D01*
X0086800Y0124367D01*
X0087300Y0124867D01*
X0071800Y0119058D02*
X0029100Y0119058D01*
X0029100Y0117459D02*
X0071800Y0117459D01*
X0071800Y0115861D02*
X0029100Y0115861D01*
X0029100Y0114262D02*
X0040493Y0114262D01*
X0039181Y0112664D02*
X0030503Y0112664D01*
X0032102Y0111065D02*
X0038519Y0111065D01*
X0038500Y0109467D02*
X0033110Y0109467D01*
X0033772Y0107868D02*
X0038850Y0107868D01*
X0039694Y0106270D02*
X0034200Y0106270D01*
X0034200Y0104671D02*
X0041686Y0104671D01*
X0046914Y0104671D02*
X0053861Y0104671D01*
X0054225Y0104671D02*
X0054375Y0104671D01*
X0054739Y0104671D02*
X0061686Y0104671D01*
X0059694Y0106270D02*
X0058057Y0106270D01*
X0054375Y0106270D02*
X0054225Y0106270D01*
X0054300Y0107367D02*
X0054300Y0109867D01*
X0054225Y0109467D02*
X0054375Y0109467D01*
X0054375Y0111065D02*
X0054225Y0111065D01*
X0054225Y0112664D02*
X0054375Y0112664D01*
X0054375Y0114262D02*
X0054225Y0114262D01*
X0051504Y0114262D02*
X0048107Y0114262D01*
X0049419Y0112664D02*
X0049905Y0112664D01*
X0054225Y0107868D02*
X0054375Y0107868D01*
X0050543Y0106270D02*
X0048906Y0106270D01*
X0058695Y0112664D02*
X0059181Y0112664D01*
X0060493Y0114262D02*
X0057096Y0114262D01*
X0068107Y0114262D02*
X0071800Y0114262D01*
X0071800Y0112664D02*
X0069419Y0112664D01*
X0070081Y0111065D02*
X0071800Y0111065D01*
X0071800Y0102367D02*
X0071800Y0102367D01*
X0071800Y0101474D02*
X0071800Y0101474D01*
X0071800Y0099876D02*
X0071800Y0099876D01*
X0071800Y0099729D02*
X0071800Y0095083D01*
X0071800Y0098064D01*
X0071800Y0099729D01*
X0071800Y0099729D01*
X0071800Y0098277D02*
X0071800Y0098277D01*
X0071800Y0096679D02*
X0071800Y0096679D01*
X0071800Y0095083D02*
X0071800Y0095083D01*
X0079132Y0101474D02*
X0085033Y0101474D01*
X0089300Y0109867D02*
X0089300Y0110067D01*
X0043910Y0096679D02*
X0030113Y0096679D01*
X0031272Y0095080D02*
X0040986Y0095080D01*
X0039585Y0093482D02*
X0032596Y0093482D01*
X0033258Y0091883D02*
X0038923Y0091883D01*
X0038686Y0090285D02*
X0033583Y0090285D01*
X0033583Y0088686D02*
X0038686Y0088686D01*
X0039309Y0087088D02*
X0033198Y0087088D01*
X0032536Y0085489D02*
X0040320Y0085489D01*
X0040426Y0083891D02*
X0031127Y0083891D01*
X0028548Y0082292D02*
X0039354Y0082292D01*
X0038691Y0080694D02*
X0019100Y0080694D01*
X0019100Y0082292D02*
X0023112Y0082292D01*
X0019100Y0079095D02*
X0038686Y0079095D01*
X0038879Y0077497D02*
X0019100Y0077497D01*
X0019100Y0075898D02*
X0022666Y0075898D01*
X0025154Y0075898D02*
X0026506Y0075898D01*
X0026506Y0076643D02*
X0026506Y0070549D01*
X0032600Y0070549D01*
X0032514Y0071202D01*
X0032283Y0072063D01*
X0031942Y0072887D01*
X0031496Y0073659D01*
X0030953Y0074366D01*
X0030323Y0074996D01*
X0029616Y0075539D01*
X0028844Y0075985D01*
X0028020Y0076326D01*
X0027159Y0076557D01*
X0026506Y0076643D01*
X0026506Y0074300D02*
X0025154Y0074300D01*
X0025154Y0072701D02*
X0026506Y0072701D01*
X0026506Y0071103D02*
X0025154Y0071103D01*
X0026506Y0069504D02*
X0037762Y0069504D01*
X0037762Y0071103D02*
X0032527Y0071103D01*
X0032019Y0072701D02*
X0038295Y0072701D01*
X0038978Y0074300D02*
X0031004Y0074300D01*
X0028994Y0075898D02*
X0039541Y0075898D01*
X0037938Y0067906D02*
X0032343Y0067906D01*
X0031623Y0066307D02*
X0038600Y0066307D01*
X0039715Y0064709D02*
X0030270Y0064709D01*
X0026506Y0064709D02*
X0025154Y0064709D01*
X0025154Y0066307D02*
X0026506Y0066307D01*
X0026506Y0067906D02*
X0025154Y0067906D01*
X0021390Y0064709D02*
X0019100Y0064709D01*
X0019100Y0066307D02*
X0020037Y0066307D01*
X0019317Y0067906D02*
X0019100Y0067906D01*
X0019100Y0071103D02*
X0019133Y0071103D01*
X0019100Y0072701D02*
X0019641Y0072701D01*
X0019100Y0074300D02*
X0020655Y0074300D01*
X0019100Y0063110D02*
X0025102Y0063110D01*
X0025154Y0063110D02*
X0026506Y0063110D01*
X0026558Y0063110D02*
X0039236Y0063110D01*
X0038686Y0061512D02*
X0019100Y0061512D01*
X0019100Y0059913D02*
X0038686Y0059913D01*
X0038997Y0058315D02*
X0019100Y0058315D01*
X0020423Y0056716D02*
X0021394Y0056716D01*
X0030266Y0056716D02*
X0039659Y0056716D01*
X0195454Y0061512D02*
X0196020Y0061512D01*
X0196020Y0063110D02*
X0195454Y0063110D01*
X0196020Y0064709D02*
X0209500Y0064709D01*
X0209500Y0066307D02*
X0199702Y0066307D01*
X0199690Y0067906D02*
X0209500Y0067906D01*
X0209500Y0069504D02*
X0198965Y0069504D01*
X0199112Y0071103D02*
X0209500Y0071103D01*
X0209500Y0072701D02*
X0199112Y0072701D01*
X0199112Y0074300D02*
X0209500Y0074300D01*
X0209500Y0075898D02*
X0198452Y0075898D01*
X0199110Y0077497D02*
X0209500Y0077497D01*
X0209500Y0079095D02*
X0199112Y0079095D01*
X0199112Y0080100D02*
X0199112Y0082230D01*
X0198989Y0082687D01*
X0198752Y0083098D01*
X0198417Y0083433D01*
X0198007Y0083670D01*
X0197549Y0083793D01*
X0195478Y0083793D01*
X0195478Y0080100D01*
X0199112Y0080100D01*
X0199112Y0080694D02*
X0209500Y0080694D01*
X0209500Y0082292D02*
X0199095Y0082292D01*
X0195478Y0082292D02*
X0195011Y0082292D01*
X0195011Y0080694D02*
X0195478Y0080694D01*
X0195478Y0079095D02*
X0195011Y0079095D01*
X0195011Y0077497D02*
X0195478Y0077497D01*
X0195478Y0075898D02*
X0195011Y0075898D01*
X0195011Y0074300D02*
X0195478Y0074300D01*
X0195478Y0072701D02*
X0195011Y0072701D01*
X0195011Y0071103D02*
X0195478Y0071103D01*
X0195478Y0069504D02*
X0195011Y0069504D01*
X0195454Y0067906D02*
X0196020Y0067906D01*
X0196020Y0066307D02*
X0195454Y0066307D01*
X0199702Y0063110D02*
X0209500Y0063110D01*
X0209500Y0061512D02*
X0199605Y0061512D01*
D32*
X0201800Y0064867D02*
X0195737Y0064867D01*
X0201800Y0064867D02*
X0201800Y0057367D01*
X0201800Y0049867D01*
X0195146Y0049867D01*
X0188454Y0049867D02*
X0186800Y0049867D01*
X0186800Y0042367D01*
X0184300Y0042367D01*
X0181800Y0044414D01*
X0175245Y0049867D02*
X0175245Y0053312D01*
X0176800Y0054867D01*
X0179300Y0054867D01*
X0179300Y0059867D01*
X0177938Y0061229D01*
X0175717Y0061229D01*
X0172138Y0061229D01*
X0171400Y0061967D01*
X0163913Y0061967D01*
X0163513Y0062367D01*
X0163513Y0069079D01*
X0156200Y0067867D02*
X0156200Y0077467D01*
X0157200Y0078467D01*
X0166500Y0078467D01*
X0170900Y0078267D01*
X0171800Y0077367D01*
X0171800Y0077267D01*
X0172100Y0076967D01*
X0172500Y0076567D01*
X0172500Y0071467D01*
X0173289Y0070678D01*
X0175717Y0070678D01*
X0180989Y0070678D01*
X0184300Y0067367D01*
X0184300Y0059867D01*
X0185550Y0058617D01*
X0181800Y0054867D01*
X0181800Y0050319D01*
X0186800Y0057367D02*
X0188355Y0057367D01*
X0186800Y0057367D02*
X0185550Y0058617D01*
X0195245Y0057367D02*
X0201800Y0057367D01*
X0201800Y0064867D02*
X0201800Y0072367D01*
X0196800Y0087367D01*
X0195245Y0079867D01*
X0188355Y0079867D02*
X0186800Y0077367D01*
X0186410Y0076977D01*
X0181800Y0074867D02*
X0184300Y0072367D01*
X0188355Y0072367D01*
X0187863Y0071875D01*
X0187863Y0064867D01*
X0195245Y0072367D02*
X0201800Y0072367D01*
X0181800Y0074867D02*
X0179300Y0074867D01*
X0178764Y0075402D01*
X0175717Y0076977D02*
X0175707Y0076967D01*
X0172100Y0076967D01*
X0177985Y0078552D02*
X0180550Y0081117D01*
X0181800Y0082367D01*
X0180550Y0081117D02*
X0179300Y0082367D01*
X0179300Y0084867D01*
X0174300Y0084867D01*
X0174300Y0087367D02*
X0186800Y0087367D01*
X0191800Y0092367D01*
X0191800Y0102367D01*
X0189300Y0104867D01*
X0144300Y0104867D01*
X0141600Y0100767D01*
X0141800Y0097367D02*
X0135645Y0097367D01*
X0135445Y0099667D01*
X0141800Y0097367D02*
X0146200Y0092967D01*
X0146200Y0091467D01*
X0149500Y0088567D01*
X0163300Y0088667D01*
X0164700Y0088167D01*
X0165200Y0087467D01*
X0168200Y0087867D02*
X0166000Y0090967D01*
X0159866Y0093458D02*
X0158457Y0094867D01*
X0154300Y0094867D01*
X0153454Y0094020D01*
X0151800Y0094020D01*
X0146800Y0097367D02*
X0148650Y0100516D01*
X0151800Y0100516D01*
X0141800Y0087367D02*
X0148115Y0081052D01*
X0148115Y0078552D01*
X0147190Y0076977D02*
X0141800Y0082367D01*
X0141800Y0077367D02*
X0144300Y0074867D01*
X0149300Y0074867D01*
X0150339Y0073827D01*
X0142314Y0072253D02*
X0138900Y0075667D01*
X0138900Y0075267D01*
X0139300Y0074867D01*
X0138900Y0075667D02*
X0138500Y0075667D01*
X0136800Y0077367D01*
X0135245Y0077367D01*
X0135245Y0084375D01*
X0135737Y0084867D01*
X0128355Y0084375D02*
X0127863Y0084867D01*
X0128355Y0084375D02*
X0128355Y0077367D01*
X0127555Y0076567D01*
X0123600Y0076567D01*
X0127400Y0073667D02*
X0127400Y0073267D01*
X0119300Y0073167D01*
X0119300Y0084867D01*
X0109300Y0084867D01*
X0107871Y0086296D01*
X0107871Y0089816D01*
X0111800Y0087504D02*
X0111800Y0092150D01*
X0111800Y0094867D01*
X0101800Y0094867D01*
X0099300Y0097367D01*
X0095146Y0097367D01*
X0111800Y0097867D02*
X0111800Y0094867D01*
X0116479Y0073167D02*
X0119300Y0073167D01*
X0122900Y0071067D02*
X0137900Y0071067D01*
X0139864Y0069103D01*
X0140989Y0070678D02*
X0138000Y0073667D01*
X0127400Y0073667D01*
X0128355Y0067367D02*
X0128000Y0067012D01*
X0128000Y0064467D01*
X0128700Y0063667D01*
X0125600Y0063667D01*
X0124300Y0062367D01*
X0128700Y0063667D02*
X0143400Y0063667D01*
X0146487Y0065953D01*
X0148700Y0065953D01*
X0150275Y0064379D01*
X0147237Y0062804D02*
X0147262Y0061229D01*
X0149300Y0061229D01*
X0152883Y0061229D01*
X0155337Y0062804D02*
X0156200Y0063667D01*
X0156200Y0067167D01*
X0155800Y0067567D01*
X0155900Y0067567D01*
X0156200Y0067867D01*
X0163513Y0062367D02*
X0163513Y0058473D01*
X0166662Y0058473D02*
X0166662Y0050004D01*
X0166800Y0048167D01*
X0149300Y0048167D01*
X0154300Y0052367D02*
X0155639Y0056205D01*
X0155600Y0056067D02*
X0155639Y0058473D01*
X0160363Y0058473D02*
X0160400Y0061267D01*
X0166662Y0058473D02*
X0166700Y0055267D01*
X0166800Y0054867D01*
X0166800Y0051422D01*
X0168355Y0049867D01*
X0159900Y0052967D02*
X0160363Y0055704D01*
X0147262Y0061229D02*
X0144000Y0061467D01*
X0141800Y0047367D02*
X0135245Y0047367D01*
X0128355Y0047367D02*
X0124300Y0047367D01*
X0124300Y0047167D01*
X0123000Y0045867D01*
X0116800Y0040930D02*
X0106800Y0040930D01*
X0100337Y0035767D01*
X0086836Y0036150D01*
X0115245Y0057367D02*
X0115245Y0066875D01*
X0115737Y0067367D01*
X0151761Y0082528D02*
X0152761Y0083528D01*
X0155639Y0083528D01*
X0157213Y0085753D02*
X0156800Y0086167D01*
X0160363Y0083430D02*
X0162400Y0085467D01*
X0169800Y0087867D02*
X0171600Y0089667D01*
X0186800Y0097367D02*
X0185146Y0100713D01*
X0181800Y0100713D01*
X0157200Y0078967D02*
X0157200Y0078467D01*
X0157000Y0044767D02*
X0156000Y0040720D01*
X0155146Y0039867D01*
D33*
X0160363Y0055704D02*
X0160363Y0058473D01*
X0158788Y0058473D02*
X0158800Y0056067D01*
X0157200Y0056067D01*
X0157213Y0058473D01*
X0155639Y0058473D02*
X0155639Y0056205D01*
X0155600Y0056067D02*
X0157200Y0056067D01*
X0155337Y0062804D02*
X0152883Y0062804D01*
X0147237Y0062804D01*
X0150275Y0064379D02*
X0152883Y0064379D01*
X0152883Y0065953D02*
X0148700Y0065953D01*
X0152883Y0067528D02*
X0144462Y0067528D01*
X0144300Y0067367D01*
X0135245Y0067367D01*
X0139864Y0069103D02*
X0152883Y0069103D01*
X0152883Y0070678D02*
X0140989Y0070678D01*
X0142314Y0072253D02*
X0152883Y0072253D01*
X0152883Y0073827D02*
X0150339Y0073827D01*
X0152883Y0076977D02*
X0147190Y0076977D01*
X0148115Y0078552D02*
X0152883Y0078552D01*
X0157200Y0078967D02*
X0157213Y0081308D01*
X0157213Y0085753D01*
X0157400Y0086167D02*
X0158788Y0084778D01*
X0158788Y0081308D01*
X0160363Y0081308D02*
X0160363Y0083430D01*
X0155639Y0083528D02*
X0155639Y0081308D01*
X0166662Y0081308D02*
X0166500Y0078467D01*
X0166662Y0081308D02*
X0166600Y0084867D01*
X0166600Y0085067D01*
X0165200Y0087467D01*
X0168200Y0087867D02*
X0168237Y0081308D01*
X0169812Y0081308D02*
X0169800Y0087867D01*
X0171387Y0084453D02*
X0174300Y0087367D01*
X0174300Y0084867D02*
X0172961Y0083528D01*
X0172961Y0081308D01*
X0171387Y0081308D02*
X0171387Y0084453D01*
X0175717Y0078552D02*
X0177985Y0078552D01*
X0175717Y0076977D02*
X0186410Y0076977D01*
X0178764Y0075402D02*
X0175717Y0075402D01*
X0155800Y0067567D02*
X0155421Y0067567D01*
X0155383Y0067528D01*
X0152883Y0067528D01*
D34*
X0164300Y0069867D03*
X0181800Y0082367D03*
X0196800Y0087367D03*
X0186800Y0097367D03*
X0162400Y0085467D03*
X0151761Y0082528D03*
X0141800Y0082367D03*
X0141800Y0077367D03*
X0141800Y0087367D03*
X0146800Y0097367D03*
X0141600Y0100767D03*
X0123300Y0095067D03*
X0123600Y0076567D03*
X0122900Y0068567D03*
X0124300Y0062367D03*
X0144300Y0057367D03*
X0154300Y0052367D03*
X0159900Y0052967D03*
X0157000Y0044767D03*
X0141800Y0047367D03*
X0123000Y0045867D03*
X0101800Y0067367D03*
X0101800Y0074867D03*
X0081800Y0064867D03*
X0061800Y0064867D03*
X0081800Y0092367D03*
X0073300Y0104667D03*
D35*
X0077000Y0104667D01*
X0079300Y0102367D01*
X0094300Y0102367D01*
X0094300Y0098213D01*
X0095146Y0097367D01*
X0115737Y0089827D02*
X0116800Y0089867D01*
X0121800Y0089867D01*
X0123300Y0089467D01*
X0135300Y0089467D01*
X0135345Y0093467D01*
X0140700Y0093467D01*
X0148000Y0086167D01*
X0156800Y0086167D01*
X0157400Y0086167D01*
X0155800Y0090967D02*
X0166000Y0090967D01*
X0171600Y0089667D02*
X0181300Y0089667D01*
X0181800Y0089867D01*
X0181800Y0094020D01*
X0155800Y0090967D02*
X0151800Y0094020D01*
X0128555Y0095067D02*
X0128455Y0093467D01*
X0128555Y0095067D02*
X0123300Y0095067D01*
X0101800Y0084867D02*
X0101800Y0074867D01*
X0106800Y0069867D01*
X0106800Y0068430D01*
X0107863Y0067367D01*
X0101800Y0067367D02*
X0101800Y0068967D01*
X0098900Y0071867D01*
X0098100Y0071867D01*
X0095900Y0074067D01*
X0095900Y0076712D01*
X0095245Y0077367D01*
X0089300Y0074867D02*
X0088355Y0077367D01*
X0089300Y0074867D02*
X0094300Y0069867D01*
X0095737Y0067367D01*
X0096800Y0064867D01*
X0096800Y0057367D01*
X0095146Y0057367D01*
X0088454Y0057367D02*
X0086800Y0059867D01*
X0086800Y0064867D01*
X0087863Y0067367D01*
X0071800Y0062229D02*
X0071800Y0057583D01*
X0071800Y0054867D01*
X0081800Y0054867D01*
X0071800Y0062229D02*
X0069300Y0064867D01*
X0061800Y0064867D01*
X0031800Y0077367D02*
X0025830Y0069873D01*
X0031800Y0077367D02*
X0031800Y0094867D01*
X0034300Y0097367D01*
X0051800Y0097367D01*
X0054300Y0099867D01*
X0071800Y0099729D02*
X0071800Y0095083D01*
X0071800Y0099729D02*
X0073300Y0104667D01*
X0116479Y0073167D02*
X0115800Y0071867D01*
X0115737Y0067367D01*
X0129300Y0059867D02*
X0129300Y0058213D01*
X0128454Y0057367D01*
X0129300Y0059867D02*
X0130900Y0061467D01*
X0144000Y0061467D01*
X0144300Y0057367D02*
X0135146Y0057367D01*
X0148454Y0039867D02*
X0149300Y0039020D01*
X0149300Y0034867D01*
X0164300Y0034867D01*
X0164300Y0039867D01*
D36*
X0116800Y0048804D02*
X0106800Y0048804D01*
X0105737Y0049867D01*
X0096800Y0049867D01*
X0087000Y0040067D01*
X0067000Y0040067D01*
X0064300Y0037367D01*
X0053500Y0037367D01*
X0049300Y0033167D01*
X0049300Y0029867D01*
X0045515Y0049794D02*
X0059300Y0049867D01*
X0067863Y0059906D01*
X0059300Y0089867D02*
X0056800Y0089867D01*
X0045515Y0089952D01*
X0059300Y0089867D02*
X0067863Y0097406D01*
M02*
