G75*
%MOIN*%
%OFA0B0*%
%FSLAX25Y25*%
%IPPOS*%
%LPD*%
%AMOC8*
5,1,8,0,0,1.08239X$1,22.5*
%
%ADD10C,0.00000*%
D10*
X0024300Y0014867D02*
X0024300Y0024867D01*
X0024058Y0024870D01*
X0023817Y0024879D01*
X0023576Y0024893D01*
X0023335Y0024914D01*
X0023095Y0024940D01*
X0022855Y0024972D01*
X0022616Y0025010D01*
X0022379Y0025053D01*
X0022142Y0025103D01*
X0021907Y0025158D01*
X0021673Y0025218D01*
X0021441Y0025285D01*
X0021210Y0025356D01*
X0020981Y0025434D01*
X0020754Y0025517D01*
X0020529Y0025605D01*
X0020306Y0025699D01*
X0020086Y0025798D01*
X0019868Y0025903D01*
X0019653Y0026012D01*
X0019440Y0026127D01*
X0019230Y0026247D01*
X0019024Y0026372D01*
X0018820Y0026502D01*
X0018619Y0026637D01*
X0018422Y0026777D01*
X0018228Y0026921D01*
X0018038Y0027070D01*
X0017852Y0027224D01*
X0017669Y0027382D01*
X0017490Y0027544D01*
X0017315Y0027711D01*
X0017144Y0027882D01*
X0016977Y0028057D01*
X0016815Y0028236D01*
X0016657Y0028419D01*
X0016503Y0028605D01*
X0016354Y0028795D01*
X0016210Y0028989D01*
X0016070Y0029186D01*
X0015935Y0029387D01*
X0015805Y0029591D01*
X0015680Y0029797D01*
X0015560Y0030007D01*
X0015445Y0030220D01*
X0015336Y0030435D01*
X0015231Y0030653D01*
X0015132Y0030873D01*
X0015038Y0031096D01*
X0014950Y0031321D01*
X0014867Y0031548D01*
X0014789Y0031777D01*
X0014718Y0032008D01*
X0014651Y0032240D01*
X0014591Y0032474D01*
X0014536Y0032709D01*
X0014486Y0032946D01*
X0014443Y0033183D01*
X0014405Y0033422D01*
X0014373Y0033662D01*
X0014347Y0033902D01*
X0014326Y0034143D01*
X0014312Y0034384D01*
X0014303Y0034625D01*
X0014300Y0034867D01*
X0014300Y0104867D01*
X0014303Y0105109D01*
X0014312Y0105350D01*
X0014326Y0105591D01*
X0014347Y0105832D01*
X0014373Y0106072D01*
X0014405Y0106312D01*
X0014443Y0106551D01*
X0014486Y0106788D01*
X0014536Y0107025D01*
X0014591Y0107260D01*
X0014651Y0107494D01*
X0014718Y0107726D01*
X0014789Y0107957D01*
X0014867Y0108186D01*
X0014950Y0108413D01*
X0015038Y0108638D01*
X0015132Y0108861D01*
X0015231Y0109081D01*
X0015336Y0109299D01*
X0015445Y0109514D01*
X0015560Y0109727D01*
X0015680Y0109937D01*
X0015805Y0110143D01*
X0015935Y0110347D01*
X0016070Y0110548D01*
X0016210Y0110745D01*
X0016354Y0110939D01*
X0016503Y0111129D01*
X0016657Y0111315D01*
X0016815Y0111498D01*
X0016977Y0111677D01*
X0017144Y0111852D01*
X0017315Y0112023D01*
X0017490Y0112190D01*
X0017669Y0112352D01*
X0017852Y0112510D01*
X0018038Y0112664D01*
X0018228Y0112813D01*
X0018422Y0112957D01*
X0018619Y0113097D01*
X0018820Y0113232D01*
X0019024Y0113362D01*
X0019230Y0113487D01*
X0019440Y0113607D01*
X0019653Y0113722D01*
X0019868Y0113831D01*
X0020086Y0113936D01*
X0020306Y0114035D01*
X0020529Y0114129D01*
X0020754Y0114217D01*
X0020981Y0114300D01*
X0021210Y0114378D01*
X0021441Y0114449D01*
X0021673Y0114516D01*
X0021907Y0114576D01*
X0022142Y0114631D01*
X0022379Y0114681D01*
X0022616Y0114724D01*
X0022855Y0114762D01*
X0023095Y0114794D01*
X0023335Y0114820D01*
X0023576Y0114841D01*
X0023817Y0114855D01*
X0024058Y0114864D01*
X0024300Y0114867D01*
X0024300Y0124867D01*
X0024302Y0125007D01*
X0024308Y0125147D01*
X0024318Y0125287D01*
X0024331Y0125427D01*
X0024349Y0125566D01*
X0024371Y0125705D01*
X0024396Y0125842D01*
X0024425Y0125980D01*
X0024458Y0126116D01*
X0024495Y0126251D01*
X0024536Y0126385D01*
X0024581Y0126518D01*
X0024629Y0126650D01*
X0024681Y0126780D01*
X0024736Y0126909D01*
X0024795Y0127036D01*
X0024858Y0127162D01*
X0024924Y0127286D01*
X0024993Y0127407D01*
X0025066Y0127527D01*
X0025143Y0127645D01*
X0025222Y0127760D01*
X0025305Y0127874D01*
X0025391Y0127984D01*
X0025480Y0128093D01*
X0025572Y0128199D01*
X0025667Y0128302D01*
X0025764Y0128403D01*
X0025865Y0128500D01*
X0025968Y0128595D01*
X0026074Y0128687D01*
X0026183Y0128776D01*
X0026293Y0128862D01*
X0026407Y0128945D01*
X0026522Y0129024D01*
X0026640Y0129101D01*
X0026760Y0129174D01*
X0026881Y0129243D01*
X0027005Y0129309D01*
X0027131Y0129372D01*
X0027258Y0129431D01*
X0027387Y0129486D01*
X0027517Y0129538D01*
X0027649Y0129586D01*
X0027782Y0129631D01*
X0027916Y0129672D01*
X0028051Y0129709D01*
X0028187Y0129742D01*
X0028325Y0129771D01*
X0028462Y0129796D01*
X0028601Y0129818D01*
X0028740Y0129836D01*
X0028880Y0129849D01*
X0029020Y0129859D01*
X0029160Y0129865D01*
X0029300Y0129867D01*
X0199300Y0129867D01*
X0199440Y0129865D01*
X0199580Y0129859D01*
X0199720Y0129849D01*
X0199860Y0129836D01*
X0199999Y0129818D01*
X0200138Y0129796D01*
X0200275Y0129771D01*
X0200413Y0129742D01*
X0200549Y0129709D01*
X0200684Y0129672D01*
X0200818Y0129631D01*
X0200951Y0129586D01*
X0201083Y0129538D01*
X0201213Y0129486D01*
X0201342Y0129431D01*
X0201469Y0129372D01*
X0201595Y0129309D01*
X0201719Y0129243D01*
X0201840Y0129174D01*
X0201960Y0129101D01*
X0202078Y0129024D01*
X0202193Y0128945D01*
X0202307Y0128862D01*
X0202417Y0128776D01*
X0202526Y0128687D01*
X0202632Y0128595D01*
X0202735Y0128500D01*
X0202836Y0128403D01*
X0202933Y0128302D01*
X0203028Y0128199D01*
X0203120Y0128093D01*
X0203209Y0127984D01*
X0203295Y0127874D01*
X0203378Y0127760D01*
X0203457Y0127645D01*
X0203534Y0127527D01*
X0203607Y0127407D01*
X0203676Y0127286D01*
X0203742Y0127162D01*
X0203805Y0127036D01*
X0203864Y0126909D01*
X0203919Y0126780D01*
X0203971Y0126650D01*
X0204019Y0126518D01*
X0204064Y0126385D01*
X0204105Y0126251D01*
X0204142Y0126116D01*
X0204175Y0125980D01*
X0204204Y0125842D01*
X0204229Y0125705D01*
X0204251Y0125566D01*
X0204269Y0125427D01*
X0204282Y0125287D01*
X0204292Y0125147D01*
X0204298Y0125007D01*
X0204300Y0124867D01*
X0204300Y0114867D01*
X0199300Y0104867D02*
X0199302Y0105008D01*
X0199308Y0105149D01*
X0199318Y0105289D01*
X0199332Y0105429D01*
X0199350Y0105569D01*
X0199371Y0105708D01*
X0199397Y0105847D01*
X0199426Y0105985D01*
X0199460Y0106121D01*
X0199497Y0106257D01*
X0199538Y0106392D01*
X0199583Y0106526D01*
X0199632Y0106658D01*
X0199684Y0106789D01*
X0199740Y0106918D01*
X0199800Y0107045D01*
X0199863Y0107171D01*
X0199929Y0107295D01*
X0200000Y0107418D01*
X0200073Y0107538D01*
X0200150Y0107656D01*
X0200230Y0107772D01*
X0200314Y0107885D01*
X0200400Y0107996D01*
X0200490Y0108105D01*
X0200583Y0108211D01*
X0200678Y0108314D01*
X0200777Y0108415D01*
X0200878Y0108513D01*
X0200982Y0108608D01*
X0201089Y0108700D01*
X0201198Y0108789D01*
X0201310Y0108874D01*
X0201424Y0108957D01*
X0201540Y0109037D01*
X0201659Y0109113D01*
X0201780Y0109185D01*
X0201902Y0109255D01*
X0202027Y0109320D01*
X0202153Y0109383D01*
X0202281Y0109441D01*
X0202411Y0109496D01*
X0202542Y0109548D01*
X0202675Y0109595D01*
X0202809Y0109639D01*
X0202944Y0109680D01*
X0203080Y0109716D01*
X0203217Y0109748D01*
X0203355Y0109777D01*
X0203493Y0109802D01*
X0203633Y0109822D01*
X0203773Y0109839D01*
X0203913Y0109852D01*
X0204054Y0109861D01*
X0204194Y0109866D01*
X0204335Y0109867D01*
X0204476Y0109864D01*
X0204617Y0109857D01*
X0204757Y0109846D01*
X0204897Y0109831D01*
X0205037Y0109812D01*
X0205176Y0109790D01*
X0205314Y0109763D01*
X0205452Y0109733D01*
X0205588Y0109698D01*
X0205724Y0109660D01*
X0205858Y0109618D01*
X0205992Y0109572D01*
X0206124Y0109523D01*
X0206254Y0109469D01*
X0206383Y0109412D01*
X0206510Y0109352D01*
X0206636Y0109288D01*
X0206759Y0109220D01*
X0206881Y0109149D01*
X0207001Y0109075D01*
X0207118Y0108997D01*
X0207233Y0108916D01*
X0207346Y0108832D01*
X0207457Y0108745D01*
X0207565Y0108654D01*
X0207670Y0108561D01*
X0207773Y0108464D01*
X0207873Y0108365D01*
X0207970Y0108263D01*
X0208064Y0108158D01*
X0208155Y0108051D01*
X0208243Y0107941D01*
X0208328Y0107829D01*
X0208410Y0107714D01*
X0208489Y0107597D01*
X0208564Y0107478D01*
X0208636Y0107357D01*
X0208704Y0107234D01*
X0208769Y0107109D01*
X0208831Y0106982D01*
X0208888Y0106853D01*
X0208943Y0106723D01*
X0208993Y0106592D01*
X0209040Y0106459D01*
X0209083Y0106325D01*
X0209122Y0106189D01*
X0209157Y0106053D01*
X0209189Y0105916D01*
X0209216Y0105778D01*
X0209240Y0105639D01*
X0209260Y0105499D01*
X0209276Y0105359D01*
X0209288Y0105219D01*
X0209296Y0105078D01*
X0209300Y0104937D01*
X0209300Y0104797D01*
X0209296Y0104656D01*
X0209288Y0104515D01*
X0209276Y0104375D01*
X0209260Y0104235D01*
X0209240Y0104095D01*
X0209216Y0103956D01*
X0209189Y0103818D01*
X0209157Y0103681D01*
X0209122Y0103545D01*
X0209083Y0103409D01*
X0209040Y0103275D01*
X0208993Y0103142D01*
X0208943Y0103011D01*
X0208888Y0102881D01*
X0208831Y0102752D01*
X0208769Y0102625D01*
X0208704Y0102500D01*
X0208636Y0102377D01*
X0208564Y0102256D01*
X0208489Y0102137D01*
X0208410Y0102020D01*
X0208328Y0101905D01*
X0208243Y0101793D01*
X0208155Y0101683D01*
X0208064Y0101576D01*
X0207970Y0101471D01*
X0207873Y0101369D01*
X0207773Y0101270D01*
X0207670Y0101173D01*
X0207565Y0101080D01*
X0207457Y0100989D01*
X0207346Y0100902D01*
X0207233Y0100818D01*
X0207118Y0100737D01*
X0207001Y0100659D01*
X0206881Y0100585D01*
X0206759Y0100514D01*
X0206636Y0100446D01*
X0206510Y0100382D01*
X0206383Y0100322D01*
X0206254Y0100265D01*
X0206124Y0100211D01*
X0205992Y0100162D01*
X0205858Y0100116D01*
X0205724Y0100074D01*
X0205588Y0100036D01*
X0205452Y0100001D01*
X0205314Y0099971D01*
X0205176Y0099944D01*
X0205037Y0099922D01*
X0204897Y0099903D01*
X0204757Y0099888D01*
X0204617Y0099877D01*
X0204476Y0099870D01*
X0204335Y0099867D01*
X0204194Y0099868D01*
X0204054Y0099873D01*
X0203913Y0099882D01*
X0203773Y0099895D01*
X0203633Y0099912D01*
X0203493Y0099932D01*
X0203355Y0099957D01*
X0203217Y0099986D01*
X0203080Y0100018D01*
X0202944Y0100054D01*
X0202809Y0100095D01*
X0202675Y0100139D01*
X0202542Y0100186D01*
X0202411Y0100238D01*
X0202281Y0100293D01*
X0202153Y0100351D01*
X0202027Y0100414D01*
X0201902Y0100479D01*
X0201780Y0100549D01*
X0201659Y0100621D01*
X0201540Y0100697D01*
X0201424Y0100777D01*
X0201310Y0100860D01*
X0201198Y0100945D01*
X0201089Y0101034D01*
X0200982Y0101126D01*
X0200878Y0101221D01*
X0200777Y0101319D01*
X0200678Y0101420D01*
X0200583Y0101523D01*
X0200490Y0101629D01*
X0200400Y0101738D01*
X0200314Y0101849D01*
X0200230Y0101962D01*
X0200150Y0102078D01*
X0200073Y0102196D01*
X0200000Y0102316D01*
X0199929Y0102439D01*
X0199863Y0102563D01*
X0199800Y0102689D01*
X0199740Y0102816D01*
X0199684Y0102945D01*
X0199632Y0103076D01*
X0199583Y0103208D01*
X0199538Y0103342D01*
X0199497Y0103477D01*
X0199460Y0103613D01*
X0199426Y0103749D01*
X0199397Y0103887D01*
X0199371Y0104026D01*
X0199350Y0104165D01*
X0199332Y0104305D01*
X0199318Y0104445D01*
X0199308Y0104585D01*
X0199302Y0104726D01*
X0199300Y0104867D01*
X0204300Y0114867D02*
X0204542Y0114864D01*
X0204783Y0114855D01*
X0205024Y0114841D01*
X0205265Y0114820D01*
X0205505Y0114794D01*
X0205745Y0114762D01*
X0205984Y0114724D01*
X0206221Y0114681D01*
X0206458Y0114631D01*
X0206693Y0114576D01*
X0206927Y0114516D01*
X0207159Y0114449D01*
X0207390Y0114378D01*
X0207619Y0114300D01*
X0207846Y0114217D01*
X0208071Y0114129D01*
X0208294Y0114035D01*
X0208514Y0113936D01*
X0208732Y0113831D01*
X0208947Y0113722D01*
X0209160Y0113607D01*
X0209370Y0113487D01*
X0209576Y0113362D01*
X0209780Y0113232D01*
X0209981Y0113097D01*
X0210178Y0112957D01*
X0210372Y0112813D01*
X0210562Y0112664D01*
X0210748Y0112510D01*
X0210931Y0112352D01*
X0211110Y0112190D01*
X0211285Y0112023D01*
X0211456Y0111852D01*
X0211623Y0111677D01*
X0211785Y0111498D01*
X0211943Y0111315D01*
X0212097Y0111129D01*
X0212246Y0110939D01*
X0212390Y0110745D01*
X0212530Y0110548D01*
X0212665Y0110347D01*
X0212795Y0110143D01*
X0212920Y0109937D01*
X0213040Y0109727D01*
X0213155Y0109514D01*
X0213264Y0109299D01*
X0213369Y0109081D01*
X0213468Y0108861D01*
X0213562Y0108638D01*
X0213650Y0108413D01*
X0213733Y0108186D01*
X0213811Y0107957D01*
X0213882Y0107726D01*
X0213949Y0107494D01*
X0214009Y0107260D01*
X0214064Y0107025D01*
X0214114Y0106788D01*
X0214157Y0106551D01*
X0214195Y0106312D01*
X0214227Y0106072D01*
X0214253Y0105832D01*
X0214274Y0105591D01*
X0214288Y0105350D01*
X0214297Y0105109D01*
X0214300Y0104867D01*
X0214300Y0034867D01*
X0199300Y0034867D02*
X0199302Y0035008D01*
X0199308Y0035149D01*
X0199318Y0035289D01*
X0199332Y0035429D01*
X0199350Y0035569D01*
X0199371Y0035708D01*
X0199397Y0035847D01*
X0199426Y0035985D01*
X0199460Y0036121D01*
X0199497Y0036257D01*
X0199538Y0036392D01*
X0199583Y0036526D01*
X0199632Y0036658D01*
X0199684Y0036789D01*
X0199740Y0036918D01*
X0199800Y0037045D01*
X0199863Y0037171D01*
X0199929Y0037295D01*
X0200000Y0037418D01*
X0200073Y0037538D01*
X0200150Y0037656D01*
X0200230Y0037772D01*
X0200314Y0037885D01*
X0200400Y0037996D01*
X0200490Y0038105D01*
X0200583Y0038211D01*
X0200678Y0038314D01*
X0200777Y0038415D01*
X0200878Y0038513D01*
X0200982Y0038608D01*
X0201089Y0038700D01*
X0201198Y0038789D01*
X0201310Y0038874D01*
X0201424Y0038957D01*
X0201540Y0039037D01*
X0201659Y0039113D01*
X0201780Y0039185D01*
X0201902Y0039255D01*
X0202027Y0039320D01*
X0202153Y0039383D01*
X0202281Y0039441D01*
X0202411Y0039496D01*
X0202542Y0039548D01*
X0202675Y0039595D01*
X0202809Y0039639D01*
X0202944Y0039680D01*
X0203080Y0039716D01*
X0203217Y0039748D01*
X0203355Y0039777D01*
X0203493Y0039802D01*
X0203633Y0039822D01*
X0203773Y0039839D01*
X0203913Y0039852D01*
X0204054Y0039861D01*
X0204194Y0039866D01*
X0204335Y0039867D01*
X0204476Y0039864D01*
X0204617Y0039857D01*
X0204757Y0039846D01*
X0204897Y0039831D01*
X0205037Y0039812D01*
X0205176Y0039790D01*
X0205314Y0039763D01*
X0205452Y0039733D01*
X0205588Y0039698D01*
X0205724Y0039660D01*
X0205858Y0039618D01*
X0205992Y0039572D01*
X0206124Y0039523D01*
X0206254Y0039469D01*
X0206383Y0039412D01*
X0206510Y0039352D01*
X0206636Y0039288D01*
X0206759Y0039220D01*
X0206881Y0039149D01*
X0207001Y0039075D01*
X0207118Y0038997D01*
X0207233Y0038916D01*
X0207346Y0038832D01*
X0207457Y0038745D01*
X0207565Y0038654D01*
X0207670Y0038561D01*
X0207773Y0038464D01*
X0207873Y0038365D01*
X0207970Y0038263D01*
X0208064Y0038158D01*
X0208155Y0038051D01*
X0208243Y0037941D01*
X0208328Y0037829D01*
X0208410Y0037714D01*
X0208489Y0037597D01*
X0208564Y0037478D01*
X0208636Y0037357D01*
X0208704Y0037234D01*
X0208769Y0037109D01*
X0208831Y0036982D01*
X0208888Y0036853D01*
X0208943Y0036723D01*
X0208993Y0036592D01*
X0209040Y0036459D01*
X0209083Y0036325D01*
X0209122Y0036189D01*
X0209157Y0036053D01*
X0209189Y0035916D01*
X0209216Y0035778D01*
X0209240Y0035639D01*
X0209260Y0035499D01*
X0209276Y0035359D01*
X0209288Y0035219D01*
X0209296Y0035078D01*
X0209300Y0034937D01*
X0209300Y0034797D01*
X0209296Y0034656D01*
X0209288Y0034515D01*
X0209276Y0034375D01*
X0209260Y0034235D01*
X0209240Y0034095D01*
X0209216Y0033956D01*
X0209189Y0033818D01*
X0209157Y0033681D01*
X0209122Y0033545D01*
X0209083Y0033409D01*
X0209040Y0033275D01*
X0208993Y0033142D01*
X0208943Y0033011D01*
X0208888Y0032881D01*
X0208831Y0032752D01*
X0208769Y0032625D01*
X0208704Y0032500D01*
X0208636Y0032377D01*
X0208564Y0032256D01*
X0208489Y0032137D01*
X0208410Y0032020D01*
X0208328Y0031905D01*
X0208243Y0031793D01*
X0208155Y0031683D01*
X0208064Y0031576D01*
X0207970Y0031471D01*
X0207873Y0031369D01*
X0207773Y0031270D01*
X0207670Y0031173D01*
X0207565Y0031080D01*
X0207457Y0030989D01*
X0207346Y0030902D01*
X0207233Y0030818D01*
X0207118Y0030737D01*
X0207001Y0030659D01*
X0206881Y0030585D01*
X0206759Y0030514D01*
X0206636Y0030446D01*
X0206510Y0030382D01*
X0206383Y0030322D01*
X0206254Y0030265D01*
X0206124Y0030211D01*
X0205992Y0030162D01*
X0205858Y0030116D01*
X0205724Y0030074D01*
X0205588Y0030036D01*
X0205452Y0030001D01*
X0205314Y0029971D01*
X0205176Y0029944D01*
X0205037Y0029922D01*
X0204897Y0029903D01*
X0204757Y0029888D01*
X0204617Y0029877D01*
X0204476Y0029870D01*
X0204335Y0029867D01*
X0204194Y0029868D01*
X0204054Y0029873D01*
X0203913Y0029882D01*
X0203773Y0029895D01*
X0203633Y0029912D01*
X0203493Y0029932D01*
X0203355Y0029957D01*
X0203217Y0029986D01*
X0203080Y0030018D01*
X0202944Y0030054D01*
X0202809Y0030095D01*
X0202675Y0030139D01*
X0202542Y0030186D01*
X0202411Y0030238D01*
X0202281Y0030293D01*
X0202153Y0030351D01*
X0202027Y0030414D01*
X0201902Y0030479D01*
X0201780Y0030549D01*
X0201659Y0030621D01*
X0201540Y0030697D01*
X0201424Y0030777D01*
X0201310Y0030860D01*
X0201198Y0030945D01*
X0201089Y0031034D01*
X0200982Y0031126D01*
X0200878Y0031221D01*
X0200777Y0031319D01*
X0200678Y0031420D01*
X0200583Y0031523D01*
X0200490Y0031629D01*
X0200400Y0031738D01*
X0200314Y0031849D01*
X0200230Y0031962D01*
X0200150Y0032078D01*
X0200073Y0032196D01*
X0200000Y0032316D01*
X0199929Y0032439D01*
X0199863Y0032563D01*
X0199800Y0032689D01*
X0199740Y0032816D01*
X0199684Y0032945D01*
X0199632Y0033076D01*
X0199583Y0033208D01*
X0199538Y0033342D01*
X0199497Y0033477D01*
X0199460Y0033613D01*
X0199426Y0033749D01*
X0199397Y0033887D01*
X0199371Y0034026D01*
X0199350Y0034165D01*
X0199332Y0034305D01*
X0199318Y0034445D01*
X0199308Y0034585D01*
X0199302Y0034726D01*
X0199300Y0034867D01*
X0204300Y0024867D02*
X0204542Y0024870D01*
X0204783Y0024879D01*
X0205024Y0024893D01*
X0205265Y0024914D01*
X0205505Y0024940D01*
X0205745Y0024972D01*
X0205984Y0025010D01*
X0206221Y0025053D01*
X0206458Y0025103D01*
X0206693Y0025158D01*
X0206927Y0025218D01*
X0207159Y0025285D01*
X0207390Y0025356D01*
X0207619Y0025434D01*
X0207846Y0025517D01*
X0208071Y0025605D01*
X0208294Y0025699D01*
X0208514Y0025798D01*
X0208732Y0025903D01*
X0208947Y0026012D01*
X0209160Y0026127D01*
X0209370Y0026247D01*
X0209576Y0026372D01*
X0209780Y0026502D01*
X0209981Y0026637D01*
X0210178Y0026777D01*
X0210372Y0026921D01*
X0210562Y0027070D01*
X0210748Y0027224D01*
X0210931Y0027382D01*
X0211110Y0027544D01*
X0211285Y0027711D01*
X0211456Y0027882D01*
X0211623Y0028057D01*
X0211785Y0028236D01*
X0211943Y0028419D01*
X0212097Y0028605D01*
X0212246Y0028795D01*
X0212390Y0028989D01*
X0212530Y0029186D01*
X0212665Y0029387D01*
X0212795Y0029591D01*
X0212920Y0029797D01*
X0213040Y0030007D01*
X0213155Y0030220D01*
X0213264Y0030435D01*
X0213369Y0030653D01*
X0213468Y0030873D01*
X0213562Y0031096D01*
X0213650Y0031321D01*
X0213733Y0031548D01*
X0213811Y0031777D01*
X0213882Y0032008D01*
X0213949Y0032240D01*
X0214009Y0032474D01*
X0214064Y0032709D01*
X0214114Y0032946D01*
X0214157Y0033183D01*
X0214195Y0033422D01*
X0214227Y0033662D01*
X0214253Y0033902D01*
X0214274Y0034143D01*
X0214288Y0034384D01*
X0214297Y0034625D01*
X0214300Y0034867D01*
X0204300Y0024867D02*
X0204300Y0014867D01*
X0204298Y0014727D01*
X0204292Y0014587D01*
X0204282Y0014447D01*
X0204269Y0014307D01*
X0204251Y0014168D01*
X0204229Y0014029D01*
X0204204Y0013892D01*
X0204175Y0013754D01*
X0204142Y0013618D01*
X0204105Y0013483D01*
X0204064Y0013349D01*
X0204019Y0013216D01*
X0203971Y0013084D01*
X0203919Y0012954D01*
X0203864Y0012825D01*
X0203805Y0012698D01*
X0203742Y0012572D01*
X0203676Y0012448D01*
X0203607Y0012327D01*
X0203534Y0012207D01*
X0203457Y0012089D01*
X0203378Y0011974D01*
X0203295Y0011860D01*
X0203209Y0011750D01*
X0203120Y0011641D01*
X0203028Y0011535D01*
X0202933Y0011432D01*
X0202836Y0011331D01*
X0202735Y0011234D01*
X0202632Y0011139D01*
X0202526Y0011047D01*
X0202417Y0010958D01*
X0202307Y0010872D01*
X0202193Y0010789D01*
X0202078Y0010710D01*
X0201960Y0010633D01*
X0201840Y0010560D01*
X0201719Y0010491D01*
X0201595Y0010425D01*
X0201469Y0010362D01*
X0201342Y0010303D01*
X0201213Y0010248D01*
X0201083Y0010196D01*
X0200951Y0010148D01*
X0200818Y0010103D01*
X0200684Y0010062D01*
X0200549Y0010025D01*
X0200413Y0009992D01*
X0200275Y0009963D01*
X0200138Y0009938D01*
X0199999Y0009916D01*
X0199860Y0009898D01*
X0199720Y0009885D01*
X0199580Y0009875D01*
X0199440Y0009869D01*
X0199300Y0009867D01*
X0029300Y0009867D01*
X0029160Y0009869D01*
X0029020Y0009875D01*
X0028880Y0009885D01*
X0028740Y0009898D01*
X0028601Y0009916D01*
X0028462Y0009938D01*
X0028325Y0009963D01*
X0028187Y0009992D01*
X0028051Y0010025D01*
X0027916Y0010062D01*
X0027782Y0010103D01*
X0027649Y0010148D01*
X0027517Y0010196D01*
X0027387Y0010248D01*
X0027258Y0010303D01*
X0027131Y0010362D01*
X0027005Y0010425D01*
X0026881Y0010491D01*
X0026760Y0010560D01*
X0026640Y0010633D01*
X0026522Y0010710D01*
X0026407Y0010789D01*
X0026293Y0010872D01*
X0026183Y0010958D01*
X0026074Y0011047D01*
X0025968Y0011139D01*
X0025865Y0011234D01*
X0025764Y0011331D01*
X0025667Y0011432D01*
X0025572Y0011535D01*
X0025480Y0011641D01*
X0025391Y0011750D01*
X0025305Y0011860D01*
X0025222Y0011974D01*
X0025143Y0012089D01*
X0025066Y0012207D01*
X0024993Y0012327D01*
X0024924Y0012448D01*
X0024858Y0012572D01*
X0024795Y0012698D01*
X0024736Y0012825D01*
X0024681Y0012954D01*
X0024629Y0013084D01*
X0024581Y0013216D01*
X0024536Y0013349D01*
X0024495Y0013483D01*
X0024458Y0013618D01*
X0024425Y0013754D01*
X0024396Y0013892D01*
X0024371Y0014029D01*
X0024349Y0014168D01*
X0024331Y0014307D01*
X0024318Y0014447D01*
X0024308Y0014587D01*
X0024302Y0014727D01*
X0024300Y0014867D01*
X0022877Y0050188D02*
X0022879Y0050296D01*
X0022885Y0050405D01*
X0022895Y0050513D01*
X0022909Y0050620D01*
X0022927Y0050727D01*
X0022948Y0050834D01*
X0022974Y0050939D01*
X0023004Y0051044D01*
X0023037Y0051147D01*
X0023074Y0051249D01*
X0023115Y0051349D01*
X0023159Y0051448D01*
X0023208Y0051546D01*
X0023259Y0051641D01*
X0023314Y0051734D01*
X0023373Y0051826D01*
X0023435Y0051915D01*
X0023500Y0052002D01*
X0023568Y0052086D01*
X0023639Y0052168D01*
X0023713Y0052247D01*
X0023790Y0052323D01*
X0023870Y0052397D01*
X0023953Y0052467D01*
X0024038Y0052535D01*
X0024125Y0052599D01*
X0024215Y0052660D01*
X0024307Y0052718D01*
X0024401Y0052772D01*
X0024497Y0052823D01*
X0024594Y0052870D01*
X0024694Y0052914D01*
X0024795Y0052954D01*
X0024897Y0052990D01*
X0025000Y0053022D01*
X0025105Y0053051D01*
X0025211Y0053075D01*
X0025317Y0053096D01*
X0025424Y0053113D01*
X0025532Y0053126D01*
X0025640Y0053135D01*
X0025749Y0053140D01*
X0025857Y0053141D01*
X0025966Y0053138D01*
X0026074Y0053131D01*
X0026182Y0053120D01*
X0026289Y0053105D01*
X0026396Y0053086D01*
X0026502Y0053063D01*
X0026607Y0053037D01*
X0026712Y0053006D01*
X0026814Y0052972D01*
X0026916Y0052934D01*
X0027016Y0052892D01*
X0027115Y0052847D01*
X0027212Y0052798D01*
X0027306Y0052745D01*
X0027399Y0052689D01*
X0027490Y0052630D01*
X0027579Y0052567D01*
X0027665Y0052502D01*
X0027749Y0052433D01*
X0027830Y0052361D01*
X0027908Y0052286D01*
X0027984Y0052208D01*
X0028057Y0052127D01*
X0028127Y0052044D01*
X0028193Y0051959D01*
X0028257Y0051871D01*
X0028317Y0051780D01*
X0028374Y0051688D01*
X0028427Y0051593D01*
X0028477Y0051497D01*
X0028523Y0051399D01*
X0028566Y0051299D01*
X0028605Y0051198D01*
X0028640Y0051095D01*
X0028672Y0050992D01*
X0028699Y0050887D01*
X0028723Y0050781D01*
X0028743Y0050674D01*
X0028759Y0050567D01*
X0028771Y0050459D01*
X0028779Y0050351D01*
X0028783Y0050242D01*
X0028783Y0050134D01*
X0028779Y0050025D01*
X0028771Y0049917D01*
X0028759Y0049809D01*
X0028743Y0049702D01*
X0028723Y0049595D01*
X0028699Y0049489D01*
X0028672Y0049384D01*
X0028640Y0049281D01*
X0028605Y0049178D01*
X0028566Y0049077D01*
X0028523Y0048977D01*
X0028477Y0048879D01*
X0028427Y0048783D01*
X0028374Y0048688D01*
X0028317Y0048596D01*
X0028257Y0048505D01*
X0028193Y0048417D01*
X0028127Y0048332D01*
X0028057Y0048249D01*
X0027984Y0048168D01*
X0027908Y0048090D01*
X0027830Y0048015D01*
X0027749Y0047943D01*
X0027665Y0047874D01*
X0027579Y0047809D01*
X0027490Y0047746D01*
X0027399Y0047687D01*
X0027307Y0047631D01*
X0027212Y0047578D01*
X0027115Y0047529D01*
X0027016Y0047484D01*
X0026916Y0047442D01*
X0026814Y0047404D01*
X0026712Y0047370D01*
X0026607Y0047339D01*
X0026502Y0047313D01*
X0026396Y0047290D01*
X0026289Y0047271D01*
X0026182Y0047256D01*
X0026074Y0047245D01*
X0025966Y0047238D01*
X0025857Y0047235D01*
X0025749Y0047236D01*
X0025640Y0047241D01*
X0025532Y0047250D01*
X0025424Y0047263D01*
X0025317Y0047280D01*
X0025211Y0047301D01*
X0025105Y0047325D01*
X0025000Y0047354D01*
X0024897Y0047386D01*
X0024795Y0047422D01*
X0024694Y0047462D01*
X0024594Y0047506D01*
X0024497Y0047553D01*
X0024401Y0047604D01*
X0024307Y0047658D01*
X0024215Y0047716D01*
X0024125Y0047777D01*
X0024038Y0047841D01*
X0023953Y0047909D01*
X0023870Y0047979D01*
X0023790Y0048053D01*
X0023713Y0048129D01*
X0023639Y0048208D01*
X0023568Y0048290D01*
X0023500Y0048374D01*
X0023435Y0048461D01*
X0023373Y0048550D01*
X0023314Y0048642D01*
X0023259Y0048735D01*
X0023208Y0048830D01*
X0023159Y0048928D01*
X0023115Y0049027D01*
X0023074Y0049127D01*
X0023037Y0049229D01*
X0023004Y0049332D01*
X0022974Y0049437D01*
X0022948Y0049542D01*
X0022927Y0049649D01*
X0022909Y0049756D01*
X0022895Y0049863D01*
X0022885Y0049971D01*
X0022879Y0050080D01*
X0022877Y0050188D01*
X0013034Y0050188D02*
X0013036Y0050296D01*
X0013042Y0050405D01*
X0013052Y0050513D01*
X0013066Y0050620D01*
X0013084Y0050727D01*
X0013105Y0050834D01*
X0013131Y0050939D01*
X0013161Y0051044D01*
X0013194Y0051147D01*
X0013231Y0051249D01*
X0013272Y0051349D01*
X0013316Y0051448D01*
X0013365Y0051546D01*
X0013416Y0051641D01*
X0013471Y0051734D01*
X0013530Y0051826D01*
X0013592Y0051915D01*
X0013657Y0052002D01*
X0013725Y0052086D01*
X0013796Y0052168D01*
X0013870Y0052247D01*
X0013947Y0052323D01*
X0014027Y0052397D01*
X0014110Y0052467D01*
X0014195Y0052535D01*
X0014282Y0052599D01*
X0014372Y0052660D01*
X0014464Y0052718D01*
X0014558Y0052772D01*
X0014654Y0052823D01*
X0014751Y0052870D01*
X0014851Y0052914D01*
X0014952Y0052954D01*
X0015054Y0052990D01*
X0015157Y0053022D01*
X0015262Y0053051D01*
X0015368Y0053075D01*
X0015474Y0053096D01*
X0015581Y0053113D01*
X0015689Y0053126D01*
X0015797Y0053135D01*
X0015906Y0053140D01*
X0016014Y0053141D01*
X0016123Y0053138D01*
X0016231Y0053131D01*
X0016339Y0053120D01*
X0016446Y0053105D01*
X0016553Y0053086D01*
X0016659Y0053063D01*
X0016764Y0053037D01*
X0016869Y0053006D01*
X0016971Y0052972D01*
X0017073Y0052934D01*
X0017173Y0052892D01*
X0017272Y0052847D01*
X0017369Y0052798D01*
X0017463Y0052745D01*
X0017556Y0052689D01*
X0017647Y0052630D01*
X0017736Y0052567D01*
X0017822Y0052502D01*
X0017906Y0052433D01*
X0017987Y0052361D01*
X0018065Y0052286D01*
X0018141Y0052208D01*
X0018214Y0052127D01*
X0018284Y0052044D01*
X0018350Y0051959D01*
X0018414Y0051871D01*
X0018474Y0051780D01*
X0018531Y0051688D01*
X0018584Y0051593D01*
X0018634Y0051497D01*
X0018680Y0051399D01*
X0018723Y0051299D01*
X0018762Y0051198D01*
X0018797Y0051095D01*
X0018829Y0050992D01*
X0018856Y0050887D01*
X0018880Y0050781D01*
X0018900Y0050674D01*
X0018916Y0050567D01*
X0018928Y0050459D01*
X0018936Y0050351D01*
X0018940Y0050242D01*
X0018940Y0050134D01*
X0018936Y0050025D01*
X0018928Y0049917D01*
X0018916Y0049809D01*
X0018900Y0049702D01*
X0018880Y0049595D01*
X0018856Y0049489D01*
X0018829Y0049384D01*
X0018797Y0049281D01*
X0018762Y0049178D01*
X0018723Y0049077D01*
X0018680Y0048977D01*
X0018634Y0048879D01*
X0018584Y0048783D01*
X0018531Y0048688D01*
X0018474Y0048596D01*
X0018414Y0048505D01*
X0018350Y0048417D01*
X0018284Y0048332D01*
X0018214Y0048249D01*
X0018141Y0048168D01*
X0018065Y0048090D01*
X0017987Y0048015D01*
X0017906Y0047943D01*
X0017822Y0047874D01*
X0017736Y0047809D01*
X0017647Y0047746D01*
X0017556Y0047687D01*
X0017464Y0047631D01*
X0017369Y0047578D01*
X0017272Y0047529D01*
X0017173Y0047484D01*
X0017073Y0047442D01*
X0016971Y0047404D01*
X0016869Y0047370D01*
X0016764Y0047339D01*
X0016659Y0047313D01*
X0016553Y0047290D01*
X0016446Y0047271D01*
X0016339Y0047256D01*
X0016231Y0047245D01*
X0016123Y0047238D01*
X0016014Y0047235D01*
X0015906Y0047236D01*
X0015797Y0047241D01*
X0015689Y0047250D01*
X0015581Y0047263D01*
X0015474Y0047280D01*
X0015368Y0047301D01*
X0015262Y0047325D01*
X0015157Y0047354D01*
X0015054Y0047386D01*
X0014952Y0047422D01*
X0014851Y0047462D01*
X0014751Y0047506D01*
X0014654Y0047553D01*
X0014558Y0047604D01*
X0014464Y0047658D01*
X0014372Y0047716D01*
X0014282Y0047777D01*
X0014195Y0047841D01*
X0014110Y0047909D01*
X0014027Y0047979D01*
X0013947Y0048053D01*
X0013870Y0048129D01*
X0013796Y0048208D01*
X0013725Y0048290D01*
X0013657Y0048374D01*
X0013592Y0048461D01*
X0013530Y0048550D01*
X0013471Y0048642D01*
X0013416Y0048735D01*
X0013365Y0048830D01*
X0013316Y0048928D01*
X0013272Y0049027D01*
X0013231Y0049127D01*
X0013194Y0049229D01*
X0013161Y0049332D01*
X0013131Y0049437D01*
X0013105Y0049542D01*
X0013084Y0049649D01*
X0013066Y0049756D01*
X0013052Y0049863D01*
X0013042Y0049971D01*
X0013036Y0050080D01*
X0013034Y0050188D01*
X0042562Y0069873D02*
X0042564Y0069981D01*
X0042570Y0070090D01*
X0042580Y0070198D01*
X0042594Y0070305D01*
X0042612Y0070412D01*
X0042633Y0070519D01*
X0042659Y0070624D01*
X0042689Y0070729D01*
X0042722Y0070832D01*
X0042759Y0070934D01*
X0042800Y0071034D01*
X0042844Y0071133D01*
X0042893Y0071231D01*
X0042944Y0071326D01*
X0042999Y0071419D01*
X0043058Y0071511D01*
X0043120Y0071600D01*
X0043185Y0071687D01*
X0043253Y0071771D01*
X0043324Y0071853D01*
X0043398Y0071932D01*
X0043475Y0072008D01*
X0043555Y0072082D01*
X0043638Y0072152D01*
X0043723Y0072220D01*
X0043810Y0072284D01*
X0043900Y0072345D01*
X0043992Y0072403D01*
X0044086Y0072457D01*
X0044182Y0072508D01*
X0044279Y0072555D01*
X0044379Y0072599D01*
X0044480Y0072639D01*
X0044582Y0072675D01*
X0044685Y0072707D01*
X0044790Y0072736D01*
X0044896Y0072760D01*
X0045002Y0072781D01*
X0045109Y0072798D01*
X0045217Y0072811D01*
X0045325Y0072820D01*
X0045434Y0072825D01*
X0045542Y0072826D01*
X0045651Y0072823D01*
X0045759Y0072816D01*
X0045867Y0072805D01*
X0045974Y0072790D01*
X0046081Y0072771D01*
X0046187Y0072748D01*
X0046292Y0072722D01*
X0046397Y0072691D01*
X0046499Y0072657D01*
X0046601Y0072619D01*
X0046701Y0072577D01*
X0046800Y0072532D01*
X0046897Y0072483D01*
X0046991Y0072430D01*
X0047084Y0072374D01*
X0047175Y0072315D01*
X0047264Y0072252D01*
X0047350Y0072187D01*
X0047434Y0072118D01*
X0047515Y0072046D01*
X0047593Y0071971D01*
X0047669Y0071893D01*
X0047742Y0071812D01*
X0047812Y0071729D01*
X0047878Y0071644D01*
X0047942Y0071556D01*
X0048002Y0071465D01*
X0048059Y0071373D01*
X0048112Y0071278D01*
X0048162Y0071182D01*
X0048208Y0071084D01*
X0048251Y0070984D01*
X0048290Y0070883D01*
X0048325Y0070780D01*
X0048357Y0070677D01*
X0048384Y0070572D01*
X0048408Y0070466D01*
X0048428Y0070359D01*
X0048444Y0070252D01*
X0048456Y0070144D01*
X0048464Y0070036D01*
X0048468Y0069927D01*
X0048468Y0069819D01*
X0048464Y0069710D01*
X0048456Y0069602D01*
X0048444Y0069494D01*
X0048428Y0069387D01*
X0048408Y0069280D01*
X0048384Y0069174D01*
X0048357Y0069069D01*
X0048325Y0068966D01*
X0048290Y0068863D01*
X0048251Y0068762D01*
X0048208Y0068662D01*
X0048162Y0068564D01*
X0048112Y0068468D01*
X0048059Y0068373D01*
X0048002Y0068281D01*
X0047942Y0068190D01*
X0047878Y0068102D01*
X0047812Y0068017D01*
X0047742Y0067934D01*
X0047669Y0067853D01*
X0047593Y0067775D01*
X0047515Y0067700D01*
X0047434Y0067628D01*
X0047350Y0067559D01*
X0047264Y0067494D01*
X0047175Y0067431D01*
X0047084Y0067372D01*
X0046992Y0067316D01*
X0046897Y0067263D01*
X0046800Y0067214D01*
X0046701Y0067169D01*
X0046601Y0067127D01*
X0046499Y0067089D01*
X0046397Y0067055D01*
X0046292Y0067024D01*
X0046187Y0066998D01*
X0046081Y0066975D01*
X0045974Y0066956D01*
X0045867Y0066941D01*
X0045759Y0066930D01*
X0045651Y0066923D01*
X0045542Y0066920D01*
X0045434Y0066921D01*
X0045325Y0066926D01*
X0045217Y0066935D01*
X0045109Y0066948D01*
X0045002Y0066965D01*
X0044896Y0066986D01*
X0044790Y0067010D01*
X0044685Y0067039D01*
X0044582Y0067071D01*
X0044480Y0067107D01*
X0044379Y0067147D01*
X0044279Y0067191D01*
X0044182Y0067238D01*
X0044086Y0067289D01*
X0043992Y0067343D01*
X0043900Y0067401D01*
X0043810Y0067462D01*
X0043723Y0067526D01*
X0043638Y0067594D01*
X0043555Y0067664D01*
X0043475Y0067738D01*
X0043398Y0067814D01*
X0043324Y0067893D01*
X0043253Y0067975D01*
X0043185Y0068059D01*
X0043120Y0068146D01*
X0043058Y0068235D01*
X0042999Y0068327D01*
X0042944Y0068420D01*
X0042893Y0068515D01*
X0042844Y0068613D01*
X0042800Y0068712D01*
X0042759Y0068812D01*
X0042722Y0068914D01*
X0042689Y0069017D01*
X0042659Y0069122D01*
X0042633Y0069227D01*
X0042612Y0069334D01*
X0042594Y0069441D01*
X0042580Y0069548D01*
X0042570Y0069656D01*
X0042564Y0069765D01*
X0042562Y0069873D01*
X0022877Y0089558D02*
X0022879Y0089666D01*
X0022885Y0089775D01*
X0022895Y0089883D01*
X0022909Y0089990D01*
X0022927Y0090097D01*
X0022948Y0090204D01*
X0022974Y0090309D01*
X0023004Y0090414D01*
X0023037Y0090517D01*
X0023074Y0090619D01*
X0023115Y0090719D01*
X0023159Y0090818D01*
X0023208Y0090916D01*
X0023259Y0091011D01*
X0023314Y0091104D01*
X0023373Y0091196D01*
X0023435Y0091285D01*
X0023500Y0091372D01*
X0023568Y0091456D01*
X0023639Y0091538D01*
X0023713Y0091617D01*
X0023790Y0091693D01*
X0023870Y0091767D01*
X0023953Y0091837D01*
X0024038Y0091905D01*
X0024125Y0091969D01*
X0024215Y0092030D01*
X0024307Y0092088D01*
X0024401Y0092142D01*
X0024497Y0092193D01*
X0024594Y0092240D01*
X0024694Y0092284D01*
X0024795Y0092324D01*
X0024897Y0092360D01*
X0025000Y0092392D01*
X0025105Y0092421D01*
X0025211Y0092445D01*
X0025317Y0092466D01*
X0025424Y0092483D01*
X0025532Y0092496D01*
X0025640Y0092505D01*
X0025749Y0092510D01*
X0025857Y0092511D01*
X0025966Y0092508D01*
X0026074Y0092501D01*
X0026182Y0092490D01*
X0026289Y0092475D01*
X0026396Y0092456D01*
X0026502Y0092433D01*
X0026607Y0092407D01*
X0026712Y0092376D01*
X0026814Y0092342D01*
X0026916Y0092304D01*
X0027016Y0092262D01*
X0027115Y0092217D01*
X0027212Y0092168D01*
X0027306Y0092115D01*
X0027399Y0092059D01*
X0027490Y0092000D01*
X0027579Y0091937D01*
X0027665Y0091872D01*
X0027749Y0091803D01*
X0027830Y0091731D01*
X0027908Y0091656D01*
X0027984Y0091578D01*
X0028057Y0091497D01*
X0028127Y0091414D01*
X0028193Y0091329D01*
X0028257Y0091241D01*
X0028317Y0091150D01*
X0028374Y0091058D01*
X0028427Y0090963D01*
X0028477Y0090867D01*
X0028523Y0090769D01*
X0028566Y0090669D01*
X0028605Y0090568D01*
X0028640Y0090465D01*
X0028672Y0090362D01*
X0028699Y0090257D01*
X0028723Y0090151D01*
X0028743Y0090044D01*
X0028759Y0089937D01*
X0028771Y0089829D01*
X0028779Y0089721D01*
X0028783Y0089612D01*
X0028783Y0089504D01*
X0028779Y0089395D01*
X0028771Y0089287D01*
X0028759Y0089179D01*
X0028743Y0089072D01*
X0028723Y0088965D01*
X0028699Y0088859D01*
X0028672Y0088754D01*
X0028640Y0088651D01*
X0028605Y0088548D01*
X0028566Y0088447D01*
X0028523Y0088347D01*
X0028477Y0088249D01*
X0028427Y0088153D01*
X0028374Y0088058D01*
X0028317Y0087966D01*
X0028257Y0087875D01*
X0028193Y0087787D01*
X0028127Y0087702D01*
X0028057Y0087619D01*
X0027984Y0087538D01*
X0027908Y0087460D01*
X0027830Y0087385D01*
X0027749Y0087313D01*
X0027665Y0087244D01*
X0027579Y0087179D01*
X0027490Y0087116D01*
X0027399Y0087057D01*
X0027307Y0087001D01*
X0027212Y0086948D01*
X0027115Y0086899D01*
X0027016Y0086854D01*
X0026916Y0086812D01*
X0026814Y0086774D01*
X0026712Y0086740D01*
X0026607Y0086709D01*
X0026502Y0086683D01*
X0026396Y0086660D01*
X0026289Y0086641D01*
X0026182Y0086626D01*
X0026074Y0086615D01*
X0025966Y0086608D01*
X0025857Y0086605D01*
X0025749Y0086606D01*
X0025640Y0086611D01*
X0025532Y0086620D01*
X0025424Y0086633D01*
X0025317Y0086650D01*
X0025211Y0086671D01*
X0025105Y0086695D01*
X0025000Y0086724D01*
X0024897Y0086756D01*
X0024795Y0086792D01*
X0024694Y0086832D01*
X0024594Y0086876D01*
X0024497Y0086923D01*
X0024401Y0086974D01*
X0024307Y0087028D01*
X0024215Y0087086D01*
X0024125Y0087147D01*
X0024038Y0087211D01*
X0023953Y0087279D01*
X0023870Y0087349D01*
X0023790Y0087423D01*
X0023713Y0087499D01*
X0023639Y0087578D01*
X0023568Y0087660D01*
X0023500Y0087744D01*
X0023435Y0087831D01*
X0023373Y0087920D01*
X0023314Y0088012D01*
X0023259Y0088105D01*
X0023208Y0088200D01*
X0023159Y0088298D01*
X0023115Y0088397D01*
X0023074Y0088497D01*
X0023037Y0088599D01*
X0023004Y0088702D01*
X0022974Y0088807D01*
X0022948Y0088912D01*
X0022927Y0089019D01*
X0022909Y0089126D01*
X0022895Y0089233D01*
X0022885Y0089341D01*
X0022879Y0089450D01*
X0022877Y0089558D01*
X0013034Y0089558D02*
X0013036Y0089666D01*
X0013042Y0089775D01*
X0013052Y0089883D01*
X0013066Y0089990D01*
X0013084Y0090097D01*
X0013105Y0090204D01*
X0013131Y0090309D01*
X0013161Y0090414D01*
X0013194Y0090517D01*
X0013231Y0090619D01*
X0013272Y0090719D01*
X0013316Y0090818D01*
X0013365Y0090916D01*
X0013416Y0091011D01*
X0013471Y0091104D01*
X0013530Y0091196D01*
X0013592Y0091285D01*
X0013657Y0091372D01*
X0013725Y0091456D01*
X0013796Y0091538D01*
X0013870Y0091617D01*
X0013947Y0091693D01*
X0014027Y0091767D01*
X0014110Y0091837D01*
X0014195Y0091905D01*
X0014282Y0091969D01*
X0014372Y0092030D01*
X0014464Y0092088D01*
X0014558Y0092142D01*
X0014654Y0092193D01*
X0014751Y0092240D01*
X0014851Y0092284D01*
X0014952Y0092324D01*
X0015054Y0092360D01*
X0015157Y0092392D01*
X0015262Y0092421D01*
X0015368Y0092445D01*
X0015474Y0092466D01*
X0015581Y0092483D01*
X0015689Y0092496D01*
X0015797Y0092505D01*
X0015906Y0092510D01*
X0016014Y0092511D01*
X0016123Y0092508D01*
X0016231Y0092501D01*
X0016339Y0092490D01*
X0016446Y0092475D01*
X0016553Y0092456D01*
X0016659Y0092433D01*
X0016764Y0092407D01*
X0016869Y0092376D01*
X0016971Y0092342D01*
X0017073Y0092304D01*
X0017173Y0092262D01*
X0017272Y0092217D01*
X0017369Y0092168D01*
X0017463Y0092115D01*
X0017556Y0092059D01*
X0017647Y0092000D01*
X0017736Y0091937D01*
X0017822Y0091872D01*
X0017906Y0091803D01*
X0017987Y0091731D01*
X0018065Y0091656D01*
X0018141Y0091578D01*
X0018214Y0091497D01*
X0018284Y0091414D01*
X0018350Y0091329D01*
X0018414Y0091241D01*
X0018474Y0091150D01*
X0018531Y0091058D01*
X0018584Y0090963D01*
X0018634Y0090867D01*
X0018680Y0090769D01*
X0018723Y0090669D01*
X0018762Y0090568D01*
X0018797Y0090465D01*
X0018829Y0090362D01*
X0018856Y0090257D01*
X0018880Y0090151D01*
X0018900Y0090044D01*
X0018916Y0089937D01*
X0018928Y0089829D01*
X0018936Y0089721D01*
X0018940Y0089612D01*
X0018940Y0089504D01*
X0018936Y0089395D01*
X0018928Y0089287D01*
X0018916Y0089179D01*
X0018900Y0089072D01*
X0018880Y0088965D01*
X0018856Y0088859D01*
X0018829Y0088754D01*
X0018797Y0088651D01*
X0018762Y0088548D01*
X0018723Y0088447D01*
X0018680Y0088347D01*
X0018634Y0088249D01*
X0018584Y0088153D01*
X0018531Y0088058D01*
X0018474Y0087966D01*
X0018414Y0087875D01*
X0018350Y0087787D01*
X0018284Y0087702D01*
X0018214Y0087619D01*
X0018141Y0087538D01*
X0018065Y0087460D01*
X0017987Y0087385D01*
X0017906Y0087313D01*
X0017822Y0087244D01*
X0017736Y0087179D01*
X0017647Y0087116D01*
X0017556Y0087057D01*
X0017464Y0087001D01*
X0017369Y0086948D01*
X0017272Y0086899D01*
X0017173Y0086854D01*
X0017073Y0086812D01*
X0016971Y0086774D01*
X0016869Y0086740D01*
X0016764Y0086709D01*
X0016659Y0086683D01*
X0016553Y0086660D01*
X0016446Y0086641D01*
X0016339Y0086626D01*
X0016231Y0086615D01*
X0016123Y0086608D01*
X0016014Y0086605D01*
X0015906Y0086606D01*
X0015797Y0086611D01*
X0015689Y0086620D01*
X0015581Y0086633D01*
X0015474Y0086650D01*
X0015368Y0086671D01*
X0015262Y0086695D01*
X0015157Y0086724D01*
X0015054Y0086756D01*
X0014952Y0086792D01*
X0014851Y0086832D01*
X0014751Y0086876D01*
X0014654Y0086923D01*
X0014558Y0086974D01*
X0014464Y0087028D01*
X0014372Y0087086D01*
X0014282Y0087147D01*
X0014195Y0087211D01*
X0014110Y0087279D01*
X0014027Y0087349D01*
X0013947Y0087423D01*
X0013870Y0087499D01*
X0013796Y0087578D01*
X0013725Y0087660D01*
X0013657Y0087744D01*
X0013592Y0087831D01*
X0013530Y0087920D01*
X0013471Y0088012D01*
X0013416Y0088105D01*
X0013365Y0088200D01*
X0013316Y0088298D01*
X0013272Y0088397D01*
X0013231Y0088497D01*
X0013194Y0088599D01*
X0013161Y0088702D01*
X0013131Y0088807D01*
X0013105Y0088912D01*
X0013084Y0089019D01*
X0013066Y0089126D01*
X0013052Y0089233D01*
X0013042Y0089341D01*
X0013036Y0089450D01*
X0013034Y0089558D01*
M02*
