G75*
G70*
%OFA0B0*%
%FSLAX24Y24*%
%IPPOS*%
%LPD*%
%AMOC8*
5,1,8,0,0,1.08239X$1,22.5*
%
%ADD10C,0.0680*%
%ADD11C,0.0671*%
%ADD12C,0.1080*%
%ADD13C,0.0966*%
%ADD14C,0.0600*%
%ADD15OC8,0.0740*%
%ADD16OC8,0.0640*%
%ADD17OC8,0.0595*%
%ADD18C,0.0476*%
D10*
X020601Y016704D02*
X020601Y017304D01*
X021601Y017304D02*
X021601Y016704D01*
X022601Y016704D02*
X022601Y017304D01*
X006201Y019204D02*
X006201Y019804D01*
X005201Y019804D02*
X005201Y019204D01*
X004201Y019204D02*
X004201Y019804D01*
D11*
X004264Y007496D03*
X006233Y009465D03*
X004264Y011433D03*
D12*
X004264Y009465D03*
D13*
X006233Y010409D03*
X006233Y011472D03*
X006233Y008520D03*
X006233Y007457D03*
D14*
X018701Y010504D03*
X018701Y011504D03*
D15*
X018301Y020504D03*
X017301Y020504D03*
X016301Y020504D03*
X015301Y020504D03*
X014301Y020504D03*
X013301Y020504D03*
X012301Y020504D03*
X019301Y020504D03*
X020851Y020504D03*
X021851Y020504D03*
X022851Y020504D03*
X023851Y020504D03*
X024851Y020504D03*
X025851Y020504D03*
X026851Y020504D03*
X027851Y020504D03*
X027901Y001504D03*
X026901Y001504D03*
X025901Y001504D03*
X024901Y001504D03*
X023901Y001504D03*
X022901Y001504D03*
X020901Y001504D03*
X019901Y001504D03*
X018901Y001504D03*
X017901Y001504D03*
X016901Y001504D03*
X015901Y001504D03*
D16*
X015901Y002504D03*
X016901Y002504D03*
X017901Y002504D03*
X018901Y002504D03*
X019901Y002504D03*
X020901Y002504D03*
X022901Y002504D03*
X023901Y002504D03*
X024901Y002504D03*
X025901Y002504D03*
X026901Y002504D03*
X027901Y002504D03*
X027901Y003504D03*
X026901Y003504D03*
X025901Y003504D03*
X024901Y003504D03*
X023901Y003504D03*
X022901Y003504D03*
X022901Y004504D03*
X023901Y004504D03*
X024901Y004504D03*
X025901Y004504D03*
X026901Y004504D03*
X027901Y004504D03*
X027701Y005754D03*
X028701Y005754D03*
X026701Y005754D03*
X025701Y005754D03*
X024701Y005754D03*
X023701Y005754D03*
X023701Y015504D03*
X024701Y015504D03*
X025701Y015504D03*
X026701Y015504D03*
X027701Y015504D03*
X028701Y015504D03*
D17*
X027851Y018404D03*
X026851Y018404D03*
X025851Y018404D03*
X024851Y018404D03*
X023851Y018404D03*
X022851Y018404D03*
X021851Y018404D03*
X020851Y018404D03*
X020851Y019404D03*
X021851Y019404D03*
X022851Y019404D03*
X023851Y019404D03*
X024851Y019404D03*
X025851Y019404D03*
X026851Y019404D03*
X027851Y019404D03*
X019301Y019404D03*
X018301Y019404D03*
X017301Y019404D03*
X016301Y019404D03*
X015301Y019404D03*
X014301Y019404D03*
X013301Y019404D03*
X012301Y019404D03*
X012301Y018404D03*
X013301Y018404D03*
X014301Y018404D03*
X015301Y018404D03*
X016301Y018404D03*
X017301Y018404D03*
X018301Y018404D03*
X019301Y018404D03*
D18*
X017239Y016792D03*
X015256Y016415D03*
X014201Y013604D03*
X012501Y013604D03*
X011001Y011793D03*
X011001Y010804D03*
X011801Y010104D03*
X012501Y009204D03*
X013201Y010304D03*
X015701Y008504D03*
X012201Y007504D03*
X011001Y007104D03*
X017859Y011932D03*
X017701Y012504D03*
X017301Y013404D03*
X016201Y013404D03*
X018980Y013439D03*
X019401Y016304D03*
X019601Y007004D03*
X020701Y004407D03*
M02*
