G75*
G70*
%OFA0B0*%
%FSLAX24Y24*%
%IPPOS*%
%LPD*%
%AMOC8*
5,1,8,0,0,1.08239X$1,22.5*
%
%ADD10C,0.0160*%
%ADD11C,0.0320*%
%ADD12C,0.0060*%
%ADD13C,0.0050*%
%ADD14C,0.0110*%
%ADD15C,0.0080*%
%ADD16C,0.0100*%
%ADD17C,0.0070*%
%ADD18C,0.0120*%
%ADD19C,0.0140*%
%ADD20C,0.0040*%
%ADD21C,0.0000*%
%ADD22R,0.0230X0.0160*%
%ADD23C,0.0030*%
%ADD24C,0.0020*%
D10*
X015866Y001543D02*
X015885Y001543D01*
X017901Y002504D02*
X018001Y002504D01*
X022801Y003504D02*
X022901Y003504D01*
X022901Y003404D01*
X019151Y010804D02*
X019001Y010804D01*
X019001Y011204D02*
X019201Y011204D01*
X018401Y019404D02*
X018301Y019404D01*
X016401Y019404D02*
X016301Y019404D01*
X021840Y019404D02*
X021901Y019404D01*
X025701Y019304D02*
X025859Y019343D01*
D11*
X025859Y020543D01*
X026840Y020465D02*
X026840Y019465D01*
X027840Y019404D02*
X027840Y020404D01*
X027901Y018404D02*
X012401Y018404D01*
X012301Y019404D02*
X012301Y020604D01*
X013301Y020404D02*
X013301Y019404D01*
X014301Y019404D02*
X014301Y020504D01*
X015301Y020504D02*
X015301Y019404D01*
X016301Y019404D02*
X016301Y020504D01*
X017301Y020504D02*
X017301Y019304D01*
X018301Y019404D02*
X018301Y020504D01*
X019301Y020504D02*
X019301Y019404D01*
X020859Y019404D02*
X020859Y020504D01*
X021840Y020504D02*
X021840Y019404D01*
X022859Y019404D02*
X022859Y020504D01*
X023859Y020504D02*
X023859Y019404D01*
X024840Y019404D02*
X024840Y020504D01*
X022901Y004504D02*
X028001Y004504D01*
X027901Y003504D02*
X022901Y003504D01*
X022901Y002404D02*
X022901Y001604D01*
X023901Y001604D02*
X023901Y002504D01*
X024901Y002504D02*
X024901Y001604D01*
X025901Y001504D02*
X025901Y002504D01*
X026901Y002504D02*
X026901Y001504D01*
X027901Y001504D02*
X027901Y002504D01*
X020901Y002404D02*
X020901Y001504D01*
X019901Y001504D02*
X019901Y002604D01*
X018901Y002404D02*
X018901Y001404D01*
X017901Y001504D02*
X017901Y002504D01*
X016901Y002504D02*
X016901Y001504D01*
X015885Y001543D02*
X015885Y002564D01*
D12*
X017031Y004034D02*
X017201Y004034D01*
X017258Y004091D01*
X017258Y004317D01*
X017201Y004374D01*
X017031Y004374D01*
X017031Y004034D01*
X017399Y004034D02*
X017626Y004261D01*
X017626Y004317D01*
X017570Y004374D01*
X017456Y004374D01*
X017399Y004317D01*
X017399Y004034D02*
X017626Y004034D01*
X016821Y004868D02*
X016764Y004868D01*
X016764Y004924D01*
X016821Y004924D01*
X016821Y004868D01*
X016821Y005052D02*
X016821Y005279D01*
X016821Y005165D02*
X016481Y005165D01*
X016594Y005052D01*
X016594Y005420D02*
X016764Y005420D01*
X016821Y005477D01*
X016821Y005647D01*
X016594Y005647D01*
X016651Y005788D02*
X016651Y005902D01*
X016538Y005845D02*
X016481Y005902D01*
X016538Y005845D02*
X016821Y005845D01*
X015821Y005845D02*
X015538Y005845D01*
X015481Y005902D01*
X015651Y005902D02*
X015651Y005788D01*
X015594Y005647D02*
X015821Y005647D01*
X015821Y005477D01*
X015764Y005420D01*
X015594Y005420D01*
X015538Y005279D02*
X015764Y005052D01*
X015821Y005108D01*
X015821Y005222D01*
X015764Y005279D01*
X015538Y005279D01*
X015481Y005222D01*
X015481Y005108D01*
X015538Y005052D01*
X015764Y005052D01*
X015821Y004910D02*
X015821Y004683D01*
X015821Y004797D02*
X015481Y004797D01*
X015594Y004683D01*
X014821Y004868D02*
X014821Y004924D01*
X014764Y004924D01*
X014764Y004868D01*
X014821Y004868D01*
X014821Y005052D02*
X014821Y005279D01*
X014821Y005165D02*
X014481Y005165D01*
X014594Y005052D01*
X014594Y005420D02*
X014764Y005420D01*
X014821Y005477D01*
X014821Y005647D01*
X014594Y005647D01*
X014651Y005788D02*
X014651Y005902D01*
X014538Y005845D02*
X014481Y005902D01*
X014538Y005845D02*
X014821Y005845D01*
X013821Y005836D02*
X013821Y005722D01*
X013764Y005666D01*
X013538Y005892D01*
X013764Y005892D01*
X013821Y005836D01*
X013764Y005666D02*
X013538Y005666D01*
X013481Y005722D01*
X013481Y005836D01*
X013538Y005892D01*
X013821Y005524D02*
X013821Y005297D01*
X013821Y005411D02*
X013481Y005411D01*
X013594Y005297D01*
X009822Y005311D02*
X009652Y005197D01*
X009822Y005084D01*
X009652Y005084D02*
X009652Y005424D01*
X009510Y005367D02*
X009510Y005311D01*
X009454Y005254D01*
X009510Y005197D01*
X009510Y005141D01*
X009454Y005084D01*
X009340Y005084D01*
X009284Y005141D01*
X009156Y005141D02*
X009156Y005084D01*
X009099Y005084D01*
X009099Y005141D01*
X009156Y005141D01*
X008958Y005141D02*
X008958Y005197D01*
X008901Y005254D01*
X008845Y005254D01*
X008901Y005254D02*
X008958Y005311D01*
X008958Y005367D01*
X008901Y005424D01*
X008788Y005424D01*
X008731Y005367D01*
X008731Y005141D02*
X008788Y005084D01*
X008901Y005084D01*
X008958Y005141D01*
X009284Y005367D02*
X009340Y005424D01*
X009454Y005424D01*
X009510Y005367D01*
X009454Y005254D02*
X009397Y005254D01*
X009326Y007084D02*
X009099Y007084D01*
X009326Y007311D01*
X009326Y007367D01*
X009270Y007424D01*
X009156Y007424D01*
X009099Y007367D01*
X008958Y007367D02*
X008958Y007311D01*
X008731Y007084D01*
X008958Y007084D01*
X008958Y007367D02*
X008901Y007424D01*
X008788Y007424D01*
X008731Y007367D01*
X009468Y007367D02*
X009468Y007141D01*
X009695Y007367D01*
X009695Y007141D01*
X009638Y007084D01*
X009524Y007084D01*
X009468Y007141D01*
X009468Y007367D02*
X009524Y007424D01*
X009638Y007424D01*
X009695Y007367D01*
X007733Y007086D02*
X005983Y007086D01*
X005133Y007086D02*
X003118Y007086D01*
X003118Y008265D01*
X003118Y010665D01*
X003118Y011843D01*
X006983Y011843D01*
X007733Y011843D02*
X007733Y011843D01*
X007733Y007086D01*
X006266Y005974D02*
X005973Y005974D01*
X006119Y005974D02*
X006119Y005534D01*
X005806Y005534D02*
X005512Y005534D01*
X005512Y005974D01*
X005806Y005974D01*
X005659Y005754D02*
X005512Y005754D01*
X005345Y005681D02*
X005345Y005607D01*
X005272Y005534D01*
X005125Y005534D01*
X005052Y005607D01*
X005125Y005754D02*
X005052Y005828D01*
X005052Y005901D01*
X005125Y005974D01*
X005272Y005974D01*
X005345Y005901D01*
X005272Y005754D02*
X005345Y005681D01*
X005272Y005754D02*
X005125Y005754D01*
X004885Y005534D02*
X004591Y005534D01*
X004591Y005974D01*
X004885Y005974D01*
X004738Y005754D02*
X004591Y005754D01*
X004425Y005754D02*
X004425Y005901D01*
X004351Y005974D01*
X004131Y005974D01*
X004131Y005534D01*
X004131Y005681D02*
X004351Y005681D01*
X004425Y005754D01*
X004278Y005681D02*
X004425Y005534D01*
X004901Y004804D02*
X004901Y004704D01*
X004801Y004704D01*
X004901Y004804D02*
X005501Y004804D01*
X005501Y004704D01*
X005601Y004704D01*
X006401Y004354D02*
X006401Y003954D01*
X006401Y003004D01*
X006401Y002654D01*
X005601Y002304D02*
X005501Y002304D01*
X005501Y002204D01*
X004901Y002204D01*
X004901Y002304D01*
X004801Y002304D01*
X004001Y002654D02*
X004001Y003004D01*
X004001Y004004D01*
X004001Y004354D01*
X005101Y003504D02*
X005103Y003524D01*
X005109Y003542D01*
X005118Y003560D01*
X005130Y003575D01*
X005145Y003587D01*
X005163Y003596D01*
X005181Y003602D01*
X005201Y003604D01*
X005221Y003602D01*
X005239Y003596D01*
X005257Y003587D01*
X005272Y003575D01*
X005284Y003560D01*
X005293Y003542D01*
X005299Y003524D01*
X005301Y003504D01*
X005299Y003484D01*
X005293Y003466D01*
X005284Y003448D01*
X005272Y003433D01*
X005257Y003421D01*
X005239Y003412D01*
X005221Y003406D01*
X005201Y003404D01*
X005181Y003406D01*
X005163Y003412D01*
X005145Y003421D01*
X005130Y003433D01*
X005118Y003448D01*
X005109Y003466D01*
X005103Y003484D01*
X005101Y003504D01*
X004501Y003504D02*
X004503Y003556D01*
X004509Y003608D01*
X004519Y003660D01*
X004532Y003710D01*
X004549Y003760D01*
X004570Y003808D01*
X004595Y003854D01*
X004623Y003898D01*
X004654Y003940D01*
X004688Y003980D01*
X004725Y004017D01*
X004765Y004051D01*
X004807Y004082D01*
X004851Y004110D01*
X004897Y004135D01*
X004945Y004156D01*
X004995Y004173D01*
X005045Y004186D01*
X005097Y004196D01*
X005149Y004202D01*
X005201Y004204D01*
X005253Y004202D01*
X005305Y004196D01*
X005357Y004186D01*
X005407Y004173D01*
X005457Y004156D01*
X005505Y004135D01*
X005551Y004110D01*
X005595Y004082D01*
X005637Y004051D01*
X005677Y004017D01*
X005714Y003980D01*
X005748Y003940D01*
X005779Y003898D01*
X005807Y003854D01*
X005832Y003808D01*
X005853Y003760D01*
X005870Y003710D01*
X005883Y003660D01*
X005893Y003608D01*
X005899Y003556D01*
X005901Y003504D01*
X005899Y003452D01*
X005893Y003400D01*
X005883Y003348D01*
X005870Y003298D01*
X005853Y003248D01*
X005832Y003200D01*
X005807Y003154D01*
X005779Y003110D01*
X005748Y003068D01*
X005714Y003028D01*
X005677Y002991D01*
X005637Y002957D01*
X005595Y002926D01*
X005551Y002898D01*
X005505Y002873D01*
X005457Y002852D01*
X005407Y002835D01*
X005357Y002822D01*
X005305Y002812D01*
X005253Y002806D01*
X005201Y002804D01*
X005149Y002806D01*
X005097Y002812D01*
X005045Y002822D01*
X004995Y002835D01*
X004945Y002852D01*
X004897Y002873D01*
X004851Y002898D01*
X004807Y002926D01*
X004765Y002957D01*
X004725Y002991D01*
X004688Y003028D01*
X004654Y003068D01*
X004623Y003110D01*
X004595Y003154D01*
X004570Y003200D01*
X004549Y003248D01*
X004532Y003298D01*
X004519Y003348D01*
X004509Y003400D01*
X004503Y003452D01*
X004501Y003504D01*
X008731Y003311D02*
X008845Y003424D01*
X008845Y003084D01*
X008958Y003084D02*
X008731Y003084D01*
X009099Y003141D02*
X009099Y003311D01*
X009099Y003141D02*
X009156Y003084D01*
X009326Y003084D01*
X009326Y003311D01*
X009468Y003254D02*
X009581Y003254D01*
X009468Y003084D02*
X009468Y003424D01*
X009695Y003424D01*
X003118Y008265D02*
X002036Y008265D01*
X002036Y010665D01*
X001836Y010465D01*
X001836Y008465D01*
X002036Y008265D01*
X002036Y010665D02*
X003118Y010665D01*
X008531Y011084D02*
X008758Y011311D01*
X008758Y011367D01*
X008701Y011424D01*
X008588Y011424D01*
X008531Y011367D01*
X008531Y011084D02*
X008758Y011084D01*
X008899Y011084D02*
X008956Y011084D01*
X008956Y011141D01*
X008899Y011141D01*
X008899Y011084D01*
X009084Y011084D02*
X009310Y011311D01*
X009310Y011367D01*
X009254Y011424D01*
X009140Y011424D01*
X009084Y011367D01*
X009084Y011084D02*
X009310Y011084D01*
X009452Y011141D02*
X009509Y011084D01*
X009679Y011084D01*
X009679Y011311D01*
X009820Y011254D02*
X009934Y011254D01*
X009820Y011424D02*
X010047Y011424D01*
X009820Y011424D02*
X009820Y011084D01*
X009452Y011141D02*
X009452Y011311D01*
X009524Y013084D02*
X009468Y013141D01*
X009695Y013367D01*
X009695Y013141D01*
X009638Y013084D01*
X009524Y013084D01*
X009468Y013141D02*
X009468Y013367D01*
X009524Y013424D01*
X009638Y013424D01*
X009695Y013367D01*
X009326Y013367D02*
X009270Y013424D01*
X009156Y013424D01*
X009099Y013367D01*
X008958Y013367D02*
X008901Y013424D01*
X008788Y013424D01*
X008731Y013367D01*
X008958Y013367D02*
X008958Y013311D01*
X008731Y013084D01*
X008958Y013084D01*
X009099Y013084D02*
X009326Y013311D01*
X009326Y013367D01*
X009326Y013084D02*
X009099Y013084D01*
X009156Y015084D02*
X009099Y015084D01*
X009099Y015141D01*
X009156Y015141D01*
X009156Y015084D01*
X009284Y015141D02*
X009340Y015084D01*
X009454Y015084D01*
X009510Y015141D01*
X009510Y015197D01*
X009454Y015254D01*
X009397Y015254D01*
X009454Y015254D02*
X009510Y015311D01*
X009510Y015367D01*
X009454Y015424D01*
X009340Y015424D01*
X009284Y015367D01*
X008958Y015367D02*
X008958Y015311D01*
X008901Y015254D01*
X008958Y015197D01*
X008958Y015141D01*
X008901Y015084D01*
X008788Y015084D01*
X008731Y015141D01*
X008845Y015254D02*
X008901Y015254D01*
X008958Y015367D02*
X008901Y015424D01*
X008788Y015424D01*
X008731Y015367D01*
X009652Y015424D02*
X009652Y015084D01*
X009652Y015197D02*
X009822Y015084D01*
X009652Y015197D02*
X009822Y015311D01*
X009301Y017134D02*
X009188Y017134D01*
X009131Y017191D01*
X009358Y017417D01*
X009358Y017191D01*
X009301Y017134D01*
X009131Y017191D02*
X009131Y017417D01*
X009188Y017474D01*
X009301Y017474D01*
X009358Y017417D01*
X006701Y019254D02*
X006451Y019004D01*
X005951Y019004D01*
X005701Y019254D01*
X005451Y019004D01*
X004951Y019004D01*
X004701Y019254D01*
X004451Y019004D01*
X003951Y019004D01*
X003701Y019254D01*
X003701Y019754D01*
X003951Y020004D01*
X004451Y020004D01*
X004701Y019754D01*
X004951Y020004D01*
X005451Y020004D01*
X005701Y019754D01*
X005951Y020004D01*
X006451Y020004D01*
X006701Y019754D01*
X006701Y019254D01*
X005701Y019254D02*
X005701Y019754D01*
X004701Y019754D02*
X004701Y019254D01*
X013581Y016941D02*
X013581Y016827D01*
X013638Y016771D01*
X013864Y016771D01*
X013638Y016997D01*
X013864Y016997D01*
X013921Y016941D01*
X013921Y016827D01*
X013864Y016771D01*
X013921Y016629D02*
X013921Y016402D01*
X013694Y016629D01*
X013638Y016629D01*
X013581Y016572D01*
X013581Y016459D01*
X013638Y016402D01*
X013638Y016261D02*
X013581Y016204D01*
X013581Y016091D01*
X013638Y016034D01*
X013638Y016261D02*
X013694Y016261D01*
X013921Y016034D01*
X013921Y016261D01*
X014581Y016331D02*
X014921Y016331D01*
X014921Y016218D02*
X014921Y016445D01*
X014864Y016586D02*
X014921Y016643D01*
X014921Y016813D01*
X014694Y016813D01*
X014751Y016955D02*
X014751Y017068D01*
X014638Y017011D02*
X014921Y017011D01*
X014638Y017011D02*
X014581Y017068D01*
X014694Y016586D02*
X014864Y016586D01*
X014581Y016331D02*
X014694Y016218D01*
X014864Y016091D02*
X014921Y016091D01*
X014921Y016034D01*
X014864Y016034D01*
X014864Y016091D01*
X015581Y016331D02*
X015921Y016331D01*
X015921Y016218D02*
X015921Y016445D01*
X015864Y016586D02*
X015921Y016643D01*
X015921Y016813D01*
X015694Y016813D01*
X015751Y016955D02*
X015751Y017068D01*
X015638Y017011D02*
X015581Y017068D01*
X015638Y017011D02*
X015921Y017011D01*
X015864Y016586D02*
X015694Y016586D01*
X015581Y016331D02*
X015694Y016218D01*
X015864Y016091D02*
X015921Y016091D01*
X015921Y016034D01*
X015864Y016034D01*
X015864Y016091D01*
X016581Y016147D02*
X016921Y016147D01*
X016921Y016034D02*
X016921Y016261D01*
X016864Y016402D02*
X016638Y016629D01*
X016864Y016629D01*
X016921Y016572D01*
X016921Y016459D01*
X016864Y016402D01*
X016638Y016402D01*
X016581Y016459D01*
X016581Y016572D01*
X016638Y016629D01*
X016581Y016147D02*
X016694Y016034D01*
X017581Y016091D02*
X017638Y016034D01*
X017581Y016091D02*
X017581Y016204D01*
X017638Y016261D01*
X017694Y016261D01*
X017921Y016034D01*
X017921Y016261D01*
X017921Y016402D02*
X017921Y016459D01*
X017864Y016459D01*
X017864Y016402D01*
X017921Y016402D01*
X017921Y016586D02*
X017694Y016813D01*
X017638Y016813D01*
X017581Y016756D01*
X017581Y016643D01*
X017638Y016586D01*
X017921Y016586D02*
X017921Y016813D01*
X017864Y016955D02*
X017694Y016955D01*
X017864Y016955D02*
X017921Y017011D01*
X017921Y017182D01*
X017694Y017182D01*
X017751Y017323D02*
X017751Y017436D01*
X017921Y017323D02*
X017581Y017323D01*
X017581Y017550D01*
X018581Y017621D02*
X018638Y017564D01*
X018921Y017564D01*
X018751Y017507D02*
X018751Y017621D01*
X018751Y017366D02*
X018864Y017366D01*
X018921Y017309D01*
X018921Y017139D01*
X019035Y017139D02*
X018694Y017139D01*
X018694Y017309D01*
X018751Y017366D01*
X018638Y016997D02*
X018581Y016941D01*
X018581Y016827D01*
X018638Y016771D01*
X018864Y016771D01*
X018638Y016997D01*
X018864Y016997D01*
X018921Y016941D01*
X018921Y016827D01*
X018864Y016771D01*
X018638Y016629D02*
X018581Y016629D01*
X018581Y016402D01*
X018581Y016204D02*
X018751Y016034D01*
X018751Y016261D01*
X018921Y016204D02*
X018581Y016204D01*
X018864Y016402D02*
X018921Y016402D01*
X018864Y016402D02*
X018638Y016629D01*
X020101Y016754D02*
X020101Y017254D01*
X020351Y017504D01*
X020851Y017504D01*
X021101Y017254D01*
X021351Y017504D01*
X021851Y017504D01*
X022101Y017254D01*
X022351Y017504D01*
X022851Y017504D01*
X023101Y017254D01*
X023101Y016754D01*
X022851Y016504D01*
X022351Y016504D01*
X022101Y016754D01*
X021851Y016504D01*
X021351Y016504D01*
X021101Y016754D01*
X020851Y016504D01*
X020351Y016504D01*
X020101Y016754D01*
X021101Y016754D02*
X021101Y017254D01*
X022101Y017254D02*
X022101Y016754D01*
X022059Y012665D02*
X022003Y012609D01*
X022003Y012325D01*
X022059Y012495D02*
X021946Y012495D01*
X021804Y012495D02*
X021748Y012552D01*
X021578Y012552D01*
X021578Y012212D01*
X021578Y012325D02*
X021748Y012325D01*
X021804Y012382D01*
X021804Y012495D01*
X021436Y012439D02*
X021436Y012382D01*
X021379Y012325D01*
X021266Y012325D01*
X021209Y012382D01*
X021209Y012439D01*
X021266Y012495D01*
X021379Y012495D01*
X021436Y012439D01*
X021379Y012495D02*
X021436Y012552D01*
X021436Y012609D01*
X021379Y012665D01*
X021266Y012665D01*
X021209Y012609D01*
X021209Y012552D01*
X021266Y012495D01*
X021068Y012325D02*
X020841Y012325D01*
X020954Y012325D02*
X020954Y012665D01*
X020841Y012552D01*
X022257Y011925D02*
X022484Y011698D01*
X022484Y011925D01*
X022257Y011925D02*
X022257Y011698D01*
X022314Y011557D02*
X022314Y011330D01*
X022484Y011330D02*
X022144Y011330D01*
X022144Y011188D02*
X022484Y011188D01*
X022484Y010961D02*
X022144Y010961D01*
X022257Y011075D01*
X022144Y011188D01*
X022144Y010820D02*
X022200Y010707D01*
X022314Y010593D01*
X022314Y010763D01*
X022370Y010820D01*
X022427Y010820D01*
X022484Y010763D01*
X022484Y010650D01*
X022427Y010593D01*
X022314Y010593D01*
X022427Y010466D02*
X022484Y010466D01*
X022484Y010409D01*
X022427Y010409D01*
X022427Y010466D01*
X022427Y010268D02*
X022200Y010268D01*
X022144Y010211D01*
X022144Y010097D01*
X022200Y010041D01*
X022257Y010041D01*
X022314Y010097D01*
X022314Y010268D01*
X022427Y010268D02*
X022484Y010211D01*
X022484Y010097D01*
X022427Y010041D01*
X022046Y009693D02*
X021989Y009636D01*
X021989Y009353D01*
X021932Y009523D02*
X022046Y009523D01*
X021791Y009523D02*
X021791Y009409D01*
X021734Y009353D01*
X021564Y009353D01*
X021564Y009239D02*
X021564Y009579D01*
X021734Y009579D01*
X021791Y009523D01*
X021422Y009579D02*
X021366Y009523D01*
X021252Y009523D01*
X021196Y009579D01*
X021196Y009636D01*
X021252Y009693D01*
X021366Y009693D01*
X021422Y009636D01*
X021422Y009579D01*
X021366Y009523D02*
X021422Y009466D01*
X021422Y009409D01*
X021366Y009353D01*
X021252Y009353D01*
X021196Y009409D01*
X021196Y009466D01*
X021252Y009523D01*
X021054Y009353D02*
X020827Y009353D01*
X020941Y009353D02*
X020941Y009693D01*
X020827Y009579D01*
X021651Y010604D02*
X019501Y010604D01*
X019501Y010654D01*
X019501Y011354D01*
X019501Y011404D01*
X021651Y011404D01*
X021668Y011402D01*
X021685Y011398D01*
X021701Y011391D01*
X021715Y011381D01*
X021728Y011368D01*
X021738Y011354D01*
X021745Y011338D01*
X021749Y011321D01*
X021751Y011304D01*
X021751Y010704D01*
X021749Y010687D01*
X021745Y010670D01*
X021738Y010654D01*
X021728Y010640D01*
X021715Y010627D01*
X021701Y010617D01*
X021685Y010610D01*
X021668Y010606D01*
X021651Y010604D01*
X021001Y011004D02*
X020801Y011004D01*
X020801Y010804D01*
X020651Y010804D02*
X020651Y011204D01*
X020501Y011204D01*
X020501Y010804D01*
X020651Y010804D01*
X020801Y011004D02*
X020801Y011204D01*
X020351Y011204D02*
X020351Y011004D01*
X020351Y010804D01*
X020351Y011004D02*
X020151Y011004D01*
X019501Y011354D02*
X019351Y011354D01*
X019351Y010654D01*
X019501Y010654D01*
X018879Y008774D02*
X018879Y008547D01*
X018765Y008434D01*
X018652Y008547D01*
X018652Y008774D01*
X018510Y008717D02*
X018510Y008661D01*
X018454Y008604D01*
X018510Y008547D01*
X018510Y008491D01*
X018454Y008434D01*
X018340Y008434D01*
X018284Y008491D01*
X018156Y008491D02*
X018156Y008434D01*
X018099Y008434D01*
X018099Y008491D01*
X018156Y008491D01*
X017958Y008491D02*
X017901Y008434D01*
X017788Y008434D01*
X017731Y008491D01*
X017845Y008604D02*
X017901Y008604D01*
X017958Y008547D01*
X017958Y008491D01*
X017901Y008604D02*
X017958Y008661D01*
X017958Y008717D01*
X017901Y008774D01*
X017788Y008774D01*
X017731Y008717D01*
X018284Y008717D02*
X018340Y008774D01*
X018454Y008774D01*
X018510Y008717D01*
X018454Y008604D02*
X018397Y008604D01*
X018368Y008274D02*
X018368Y007934D01*
X018595Y007934D01*
X018736Y007991D02*
X018793Y007934D01*
X018906Y007934D01*
X018963Y007991D01*
X018963Y008104D01*
X018849Y008104D01*
X018736Y008217D02*
X018736Y007991D01*
X018481Y008104D02*
X018368Y008104D01*
X018226Y008104D02*
X018226Y008217D01*
X018170Y008274D01*
X017999Y008274D01*
X017999Y007934D01*
X017999Y008047D02*
X018170Y008047D01*
X018226Y008104D01*
X018113Y008047D02*
X018226Y007934D01*
X017858Y008047D02*
X017858Y008274D01*
X017858Y008047D02*
X017745Y007934D01*
X017631Y008047D01*
X017631Y008274D01*
X018368Y008274D02*
X018595Y008274D01*
X018736Y008217D02*
X018793Y008274D01*
X018906Y008274D01*
X018963Y008217D01*
X018761Y007264D02*
X018541Y007264D01*
X018761Y007264D02*
X018761Y006944D01*
X017861Y007264D02*
X017641Y007264D01*
X017641Y006944D01*
X019853Y006388D02*
X020194Y006388D01*
X020194Y006275D02*
X020194Y006501D01*
X019967Y006275D02*
X019853Y006388D01*
X019910Y006133D02*
X019853Y006076D01*
X019853Y005906D01*
X020194Y005906D01*
X020194Y006076D01*
X020137Y006133D01*
X019910Y006133D01*
X022231Y006604D02*
X022571Y006604D01*
X022571Y006717D02*
X022571Y006490D01*
X022344Y006490D02*
X022231Y006604D01*
X022288Y006859D02*
X022231Y006915D01*
X022231Y007029D01*
X022288Y007086D01*
X022514Y006859D01*
X022571Y006915D01*
X022571Y007029D01*
X022514Y007086D01*
X022288Y007086D01*
X022231Y007227D02*
X022571Y007227D01*
X022458Y007227D02*
X022344Y007397D01*
X022458Y007227D02*
X022571Y007397D01*
X022514Y006859D02*
X022288Y006859D01*
X028531Y004504D02*
X028758Y004504D01*
X028899Y004504D02*
X029013Y004561D01*
X029070Y004561D01*
X029126Y004504D01*
X029126Y004391D01*
X029070Y004334D01*
X028956Y004334D01*
X028899Y004391D01*
X028899Y004504D02*
X028899Y004674D01*
X029126Y004674D01*
X029268Y004674D02*
X029268Y004447D01*
X029381Y004334D01*
X029495Y004447D01*
X029495Y004674D01*
X028645Y004617D02*
X028645Y004391D01*
X028688Y003674D02*
X028631Y003617D01*
X028631Y003391D01*
X028688Y003334D01*
X028801Y003334D01*
X028858Y003391D01*
X028858Y003504D01*
X028745Y003504D01*
X028858Y003617D02*
X028801Y003674D01*
X028688Y003674D01*
X028999Y003674D02*
X029226Y003334D01*
X029226Y003674D01*
X029368Y003674D02*
X029538Y003674D01*
X029595Y003617D01*
X029595Y003391D01*
X029538Y003334D01*
X029368Y003334D01*
X029368Y003674D01*
X028999Y003674D02*
X028999Y003334D01*
X022484Y011557D02*
X022144Y011557D01*
X013638Y016997D02*
X013581Y016941D01*
X010047Y009424D02*
X009820Y009424D01*
X009820Y009084D01*
X009679Y009084D02*
X009679Y009311D01*
X009820Y009254D02*
X009934Y009254D01*
X009679Y009084D02*
X009509Y009084D01*
X009452Y009141D01*
X009452Y009311D01*
X009310Y009311D02*
X009310Y009367D01*
X009254Y009424D01*
X009140Y009424D01*
X009084Y009367D01*
X009310Y009311D02*
X009084Y009084D01*
X009310Y009084D01*
X008956Y009084D02*
X008899Y009084D01*
X008899Y009141D01*
X008956Y009141D01*
X008956Y009084D01*
X008758Y009084D02*
X008531Y009084D01*
X008758Y009311D01*
X008758Y009367D01*
X008701Y009424D01*
X008588Y009424D01*
X008531Y009367D01*
D13*
X007574Y008875D02*
X007424Y009025D01*
X007424Y008950D01*
X007349Y008950D01*
X007349Y009025D01*
X007424Y009025D01*
X007349Y009182D02*
X007424Y009257D01*
X007424Y009407D01*
X007349Y009482D01*
X007199Y009482D01*
X007124Y009407D01*
X007124Y009332D01*
X007199Y009182D01*
X006974Y009182D01*
X006974Y009482D01*
X007124Y009642D02*
X007124Y009717D01*
X007199Y009792D01*
X007124Y009867D01*
X007199Y009942D01*
X007424Y009942D01*
X007424Y009792D02*
X007199Y009792D01*
X007124Y009642D02*
X007424Y009642D01*
X007424Y010102D02*
X007124Y010102D01*
X007124Y010177D01*
X007199Y010252D01*
X007124Y010327D01*
X007199Y010403D01*
X007424Y010403D01*
X007424Y010252D02*
X007199Y010252D01*
X007124Y008715D02*
X007199Y008640D01*
X007274Y008715D01*
X007349Y008715D01*
X007424Y008640D01*
X007424Y008489D01*
X007349Y008414D01*
X007199Y008564D02*
X007199Y008640D01*
X007124Y008715D02*
X007049Y008715D01*
X006974Y008640D01*
X006974Y008489D01*
X007049Y008414D01*
X013701Y012504D02*
X013703Y012535D01*
X013709Y012566D01*
X013719Y012596D01*
X013732Y012624D01*
X013749Y012651D01*
X013769Y012675D01*
X013792Y012697D01*
X013817Y012715D01*
X013845Y012730D01*
X013874Y012742D01*
X013904Y012750D01*
X013935Y012754D01*
X013967Y012754D01*
X013998Y012750D01*
X014028Y012742D01*
X014057Y012730D01*
X014085Y012715D01*
X014110Y012697D01*
X014133Y012675D01*
X014153Y012651D01*
X014170Y012624D01*
X014183Y012596D01*
X014193Y012566D01*
X014199Y012535D01*
X014201Y012504D01*
X014199Y012473D01*
X014193Y012442D01*
X014183Y012412D01*
X014170Y012384D01*
X014153Y012357D01*
X014133Y012333D01*
X014110Y012311D01*
X014085Y012293D01*
X014057Y012278D01*
X014028Y012266D01*
X013998Y012258D01*
X013967Y012254D01*
X013935Y012254D01*
X013904Y012258D01*
X013874Y012266D01*
X013845Y012278D01*
X013817Y012293D01*
X013792Y012311D01*
X013769Y012333D01*
X013749Y012357D01*
X013732Y012384D01*
X013719Y012412D01*
X013709Y012442D01*
X013703Y012473D01*
X013701Y012504D01*
X014326Y012379D02*
X014326Y012154D01*
X014326Y012379D02*
X014551Y012379D01*
X016851Y012379D02*
X017051Y012379D01*
X017051Y012179D01*
X017076Y009854D02*
X017076Y009629D01*
X016826Y009629D01*
X014576Y009629D02*
X014326Y009629D01*
X014326Y009854D01*
X022401Y005004D02*
X022401Y004004D01*
X022401Y003004D01*
X028401Y003004D01*
X028401Y004004D01*
X022401Y004004D01*
X028401Y004004D01*
X028401Y005004D01*
X022401Y005004D01*
X023201Y005254D02*
X023201Y006254D01*
X029201Y006254D01*
X029201Y005254D01*
X023201Y005254D01*
X022401Y003004D02*
X022401Y002004D01*
X028401Y002004D01*
X028401Y003004D01*
X022401Y003004D01*
X021401Y003004D02*
X021401Y002004D01*
X015401Y002004D01*
X015401Y003004D01*
X021401Y003004D01*
X023201Y015004D02*
X023201Y016004D01*
X029201Y016004D01*
X029201Y015004D01*
X023201Y015004D01*
X020351Y017904D02*
X028351Y017904D01*
X028351Y018904D01*
X020351Y018904D01*
X020351Y017904D01*
X019801Y017904D02*
X019801Y018904D01*
X011801Y018904D01*
X011801Y017904D01*
X019801Y017904D01*
X019801Y018904D02*
X019801Y019904D01*
X011801Y019904D01*
X011801Y018904D01*
X019801Y018904D01*
X020351Y018904D02*
X028351Y018904D01*
X028351Y019904D01*
X020351Y019904D01*
X020351Y018904D01*
X011643Y018592D02*
X011643Y018358D01*
X011585Y018300D01*
X011410Y018300D01*
X011410Y018650D01*
X011585Y018650D01*
X011643Y018592D01*
X011275Y018650D02*
X011275Y018300D01*
X011041Y018650D01*
X011041Y018300D01*
X010906Y018358D02*
X010906Y018475D01*
X010790Y018475D01*
X010906Y018592D02*
X010848Y018650D01*
X010731Y018650D01*
X010673Y018592D01*
X010673Y018358D01*
X010731Y018300D01*
X010848Y018300D01*
X010906Y018358D01*
D14*
X020694Y005689D02*
X020694Y005296D01*
X020497Y005493D02*
X020891Y005493D01*
X017650Y005354D02*
X017256Y005354D01*
X017453Y005551D02*
X017453Y005157D01*
D15*
X014705Y002710D02*
X014385Y002390D01*
X014465Y002310D01*
X014625Y002310D01*
X014705Y002390D01*
X014705Y002710D01*
X014625Y002790D01*
X014465Y002790D01*
X014385Y002710D01*
X014385Y002390D01*
X014207Y002390D02*
X014207Y002310D01*
X014127Y002310D01*
X014127Y002390D01*
X014207Y002390D01*
X013932Y002310D02*
X013612Y002310D01*
X013932Y002630D01*
X013932Y002710D01*
X013852Y002790D01*
X013692Y002790D01*
X013612Y002710D01*
X013434Y002390D02*
X013434Y002310D01*
X013354Y002310D01*
X013354Y002390D01*
X013434Y002390D01*
X013159Y002470D02*
X012999Y002310D01*
X012838Y002470D01*
X012838Y002790D01*
X012643Y002790D02*
X012323Y002790D01*
X012323Y002310D01*
X012643Y002310D01*
X012483Y002550D02*
X012323Y002550D01*
X012127Y002550D02*
X012127Y002710D01*
X012047Y002790D01*
X011807Y002790D01*
X011807Y002310D01*
X011807Y002470D02*
X012047Y002470D01*
X012127Y002550D01*
X011967Y002470D02*
X012127Y002310D01*
X013159Y002470D02*
X013159Y002790D01*
X024467Y010814D02*
X024467Y011235D01*
X024677Y011235D01*
X024748Y011164D01*
X024748Y011024D01*
X024677Y010954D01*
X024467Y010954D01*
X024928Y010954D02*
X025138Y010954D01*
X025208Y011024D01*
X025208Y011164D01*
X025138Y011235D01*
X024928Y011235D01*
X024928Y010814D01*
X025068Y010954D02*
X025208Y010814D01*
X025388Y010814D02*
X025388Y011235D01*
X025668Y011235D01*
X025848Y011164D02*
X025848Y011094D01*
X025918Y011024D01*
X026059Y011024D01*
X026129Y010954D01*
X026129Y010884D01*
X026059Y010814D01*
X025918Y010814D01*
X025848Y010884D01*
X025668Y010814D02*
X025388Y010814D01*
X025388Y011024D02*
X025528Y011024D01*
X025848Y011164D02*
X025918Y011235D01*
X026059Y011235D01*
X026129Y011164D01*
X026309Y011164D02*
X026309Y011094D01*
X026379Y011024D01*
X026519Y011024D01*
X026589Y010954D01*
X026589Y010884D01*
X026519Y010814D01*
X026379Y010814D01*
X026309Y010884D01*
X026309Y011164D02*
X026379Y011235D01*
X026519Y011235D01*
X026589Y011164D01*
X026769Y011235D02*
X026769Y010884D01*
X026839Y010814D01*
X026979Y010814D01*
X027049Y010884D01*
X027049Y011235D01*
X027229Y011235D02*
X027440Y011235D01*
X027510Y011164D01*
X027510Y011024D01*
X027440Y010954D01*
X027229Y010954D01*
X027229Y010814D02*
X027229Y011235D01*
X027370Y010954D02*
X027510Y010814D01*
X027690Y010814D02*
X027690Y011235D01*
X027970Y011235D01*
X027830Y011024D02*
X027690Y011024D01*
X027690Y010814D02*
X027970Y010814D01*
X027436Y010522D02*
X027436Y010382D01*
X027366Y010312D01*
X027156Y010312D01*
X027296Y010312D02*
X027436Y010171D01*
X027156Y010171D02*
X027156Y010592D01*
X027366Y010592D01*
X027436Y010522D01*
X026976Y010522D02*
X026976Y010242D01*
X026906Y010171D01*
X026766Y010171D01*
X026696Y010242D01*
X026696Y010522D01*
X026766Y010592D01*
X026906Y010592D01*
X026976Y010522D01*
X026516Y010522D02*
X026446Y010592D01*
X026305Y010592D01*
X026235Y010522D01*
X026235Y010452D01*
X026305Y010382D01*
X026446Y010382D01*
X026516Y010312D01*
X026516Y010242D01*
X026446Y010171D01*
X026305Y010171D01*
X026235Y010242D01*
X026055Y010171D02*
X026055Y010592D01*
X025775Y010592D02*
X026055Y010171D01*
X025775Y010171D02*
X025775Y010592D01*
X025595Y010592D02*
X025315Y010592D01*
X025315Y010171D01*
X025595Y010171D01*
X025455Y010382D02*
X025315Y010382D01*
X025135Y010312D02*
X025135Y010242D01*
X025064Y010171D01*
X024924Y010171D01*
X024854Y010242D01*
X024924Y010382D02*
X024854Y010452D01*
X024854Y010522D01*
X024924Y010592D01*
X025064Y010592D01*
X025135Y010522D01*
X025064Y010382D02*
X025135Y010312D01*
X025064Y010382D02*
X024924Y010382D01*
X024882Y009913D02*
X025022Y009772D01*
X025162Y009913D01*
X025162Y009492D01*
X025342Y009492D02*
X025552Y009492D01*
X025622Y009562D01*
X025622Y009842D01*
X025552Y009913D01*
X025342Y009913D01*
X025342Y009492D01*
X025803Y009562D02*
X026083Y009842D01*
X026083Y009562D01*
X026013Y009492D01*
X025873Y009492D01*
X025803Y009562D01*
X025803Y009842D01*
X025873Y009913D01*
X026013Y009913D01*
X026083Y009842D01*
X026263Y009913D02*
X026263Y009702D01*
X026403Y009772D01*
X026473Y009772D01*
X026543Y009702D01*
X026543Y009562D01*
X026473Y009492D01*
X026333Y009492D01*
X026263Y009562D01*
X026263Y009913D02*
X026543Y009913D01*
X026723Y009842D02*
X026793Y009913D01*
X026933Y009913D01*
X027004Y009842D01*
X027004Y009772D01*
X026933Y009702D01*
X027004Y009632D01*
X027004Y009562D01*
X026933Y009492D01*
X026793Y009492D01*
X026723Y009562D01*
X026863Y009702D02*
X026933Y009702D01*
X027184Y009702D02*
X027394Y009702D01*
X027464Y009632D01*
X027464Y009562D01*
X027394Y009492D01*
X027254Y009492D01*
X027184Y009562D01*
X027184Y009702D01*
X027324Y009842D01*
X027464Y009913D01*
X024882Y009913D02*
X024882Y009492D01*
X022637Y014252D02*
X022637Y014672D01*
X022497Y014672D02*
X022777Y014672D01*
X022317Y014602D02*
X022247Y014672D01*
X022106Y014672D01*
X022036Y014602D01*
X022036Y014322D01*
X022106Y014252D01*
X022247Y014252D01*
X022317Y014322D01*
X021856Y014252D02*
X021576Y014252D01*
X021576Y014672D01*
X021856Y014672D01*
X021958Y014844D02*
X021958Y015264D01*
X021678Y015264D02*
X021958Y014844D01*
X021678Y014844D02*
X021678Y015264D01*
X021511Y015264D02*
X021371Y015264D01*
X021441Y015264D02*
X021441Y014844D01*
X021371Y014844D02*
X021511Y014844D01*
X021191Y015054D02*
X021120Y014984D01*
X020910Y014984D01*
X020910Y014844D02*
X020910Y015264D01*
X021120Y015264D01*
X021191Y015194D01*
X021191Y015054D01*
X021116Y014672D02*
X021116Y014252D01*
X021396Y014252D01*
X021576Y014462D02*
X021716Y014462D01*
X020936Y014252D02*
X020655Y014252D01*
X020655Y014672D01*
X020936Y014672D01*
X020795Y014462D02*
X020655Y014462D01*
X020475Y014392D02*
X020475Y014322D01*
X020405Y014252D01*
X020265Y014252D01*
X020195Y014322D01*
X020265Y014462D02*
X020405Y014462D01*
X020475Y014392D01*
X020475Y014602D02*
X020405Y014672D01*
X020265Y014672D01*
X020195Y014602D01*
X020195Y014532D01*
X020265Y014462D01*
X010250Y019344D02*
X010250Y019764D01*
X010110Y019764D02*
X010390Y019764D01*
X009930Y019764D02*
X009930Y019414D01*
X009860Y019344D01*
X009720Y019344D01*
X009650Y019414D01*
X009650Y019764D01*
X009470Y019694D02*
X009400Y019764D01*
X009259Y019764D01*
X009189Y019694D01*
X009189Y019414D01*
X009259Y019344D01*
X009400Y019344D01*
X009470Y019414D01*
X009470Y019694D01*
X008549Y019764D02*
X008269Y019764D01*
X008269Y019344D01*
X008549Y019344D01*
X008409Y019554D02*
X008269Y019554D01*
X008089Y019344D02*
X008089Y019764D01*
X007808Y019764D02*
X008089Y019344D01*
X007808Y019344D02*
X007808Y019764D01*
X007642Y019764D02*
X007501Y019764D01*
X007571Y019764D02*
X007571Y019344D01*
X007501Y019344D02*
X007642Y019344D01*
X007321Y019344D02*
X007041Y019344D01*
X007041Y019764D01*
X006676Y020420D02*
X006676Y020740D01*
X006516Y020580D02*
X006836Y020580D01*
X006321Y020580D02*
X006241Y020500D01*
X006000Y020500D01*
X006000Y020340D02*
X006000Y020820D01*
X006241Y020820D01*
X006321Y020740D01*
X006321Y020580D01*
X006160Y020500D02*
X006321Y020340D01*
X005364Y020491D02*
X005044Y020491D01*
X004657Y020527D02*
X004337Y020527D01*
X004497Y020687D02*
X004497Y020367D01*
X004142Y020287D02*
X003822Y020287D01*
X003822Y020767D01*
D16*
X010672Y018864D02*
X028350Y018864D01*
X022703Y015610D02*
X022330Y015610D01*
X022516Y015610D02*
X022516Y016170D01*
X022330Y015984D01*
X020677Y015916D02*
X020303Y015916D01*
X020584Y016196D01*
X020584Y015636D01*
X022451Y005004D02*
X029701Y005004D01*
X029701Y004004D02*
X022451Y004004D01*
D17*
X014689Y001640D02*
X014689Y001150D01*
X014362Y001150D02*
X014362Y001640D01*
X014526Y001477D01*
X014689Y001640D01*
X014173Y001559D02*
X014092Y001640D01*
X013928Y001640D01*
X013847Y001559D01*
X013847Y001232D01*
X013928Y001150D01*
X014092Y001150D01*
X014173Y001232D01*
X014173Y001559D01*
X013658Y001559D02*
X013576Y001640D01*
X013413Y001640D01*
X013331Y001559D01*
X013331Y001232D01*
X013413Y001150D01*
X013576Y001150D01*
X013658Y001232D01*
X013155Y001232D02*
X013155Y001150D01*
X013073Y001150D01*
X013073Y001232D01*
X013155Y001232D01*
X012884Y001150D02*
X012557Y001150D01*
X012557Y001640D01*
X012884Y001640D01*
X012721Y001395D02*
X012557Y001395D01*
X012369Y001232D02*
X012287Y001150D01*
X012124Y001150D01*
X012042Y001232D01*
X012042Y001559D01*
X012124Y001640D01*
X012287Y001640D01*
X012369Y001559D01*
X011862Y001640D02*
X011698Y001640D01*
X011780Y001640D02*
X011780Y001150D01*
X011698Y001150D02*
X011862Y001150D01*
X011509Y001313D02*
X011509Y001640D01*
X011182Y001640D02*
X011182Y001313D01*
X011346Y001150D01*
X011509Y001313D01*
X010994Y001150D02*
X010667Y001150D01*
X010667Y001640D01*
X010994Y001640D01*
X010830Y001395D02*
X010667Y001395D01*
X010478Y001232D02*
X010478Y001559D01*
X010396Y001640D01*
X010151Y001640D01*
X010151Y001150D01*
X010396Y001150D01*
X010478Y001232D01*
X009963Y001150D02*
X009963Y001640D01*
X009636Y001640D02*
X009963Y001150D01*
X009636Y001150D02*
X009636Y001640D01*
X009447Y001559D02*
X009447Y001395D01*
X009365Y001313D01*
X009120Y001313D01*
X009120Y001150D02*
X009120Y001640D01*
X009365Y001640D01*
X009447Y001559D01*
X009283Y001313D02*
X009447Y001150D01*
X008931Y001150D02*
X008604Y001150D01*
X008604Y001640D01*
X008931Y001640D01*
X008768Y001395D02*
X008604Y001395D01*
X008416Y001232D02*
X008334Y001150D01*
X008089Y001150D01*
X008089Y001640D01*
X008334Y001640D01*
X008416Y001559D01*
X008416Y001232D01*
X007900Y001232D02*
X007900Y001559D01*
X007818Y001640D01*
X007655Y001640D01*
X007573Y001559D01*
X007573Y001232D01*
X007655Y001150D01*
X007818Y001150D01*
X007900Y001232D01*
X007384Y001150D02*
X007384Y001640D01*
X007221Y001477D01*
X007057Y001640D01*
X007057Y001150D01*
D18*
X006901Y002004D02*
X014701Y002004D01*
X022847Y010504D02*
X022851Y010669D01*
X022863Y010833D01*
X022883Y010996D01*
X022911Y011158D01*
X022948Y011319D01*
X022991Y011478D01*
X023043Y011634D01*
X023102Y011788D01*
X023169Y011938D01*
X023243Y012085D01*
X023324Y012228D01*
X023412Y012367D01*
X023507Y012502D01*
X023608Y012632D01*
X023716Y012756D01*
X023829Y012876D01*
X023949Y012989D01*
X024073Y013097D01*
X024203Y013198D01*
X024338Y013293D01*
X024477Y013381D01*
X024620Y013462D01*
X024767Y013536D01*
X024917Y013603D01*
X025071Y013662D01*
X025227Y013714D01*
X025386Y013757D01*
X025547Y013794D01*
X025709Y013822D01*
X025872Y013842D01*
X026036Y013854D01*
X026201Y013858D01*
X026366Y013854D01*
X026530Y013842D01*
X026693Y013822D01*
X026855Y013794D01*
X027016Y013757D01*
X027175Y013714D01*
X027331Y013662D01*
X027485Y013603D01*
X027635Y013536D01*
X027782Y013462D01*
X027925Y013381D01*
X028064Y013293D01*
X028199Y013198D01*
X028329Y013097D01*
X028453Y012989D01*
X028573Y012876D01*
X028686Y012756D01*
X028794Y012632D01*
X028895Y012502D01*
X028990Y012367D01*
X029078Y012228D01*
X029159Y012085D01*
X029233Y011938D01*
X029300Y011788D01*
X029359Y011634D01*
X029411Y011478D01*
X029454Y011319D01*
X029491Y011158D01*
X029519Y010996D01*
X029539Y010833D01*
X029551Y010669D01*
X029555Y010504D01*
X029551Y010339D01*
X029539Y010175D01*
X029519Y010012D01*
X029491Y009850D01*
X029454Y009689D01*
X029411Y009530D01*
X029359Y009374D01*
X029300Y009220D01*
X029233Y009070D01*
X029159Y008923D01*
X029078Y008780D01*
X028990Y008641D01*
X028895Y008506D01*
X028794Y008376D01*
X028686Y008252D01*
X028573Y008132D01*
X028453Y008019D01*
X028329Y007911D01*
X028199Y007810D01*
X028064Y007715D01*
X027925Y007627D01*
X027782Y007546D01*
X027635Y007472D01*
X027485Y007405D01*
X027331Y007346D01*
X027175Y007294D01*
X027016Y007251D01*
X026855Y007214D01*
X026693Y007186D01*
X026530Y007166D01*
X026366Y007154D01*
X026201Y007150D01*
X026036Y007154D01*
X025872Y007166D01*
X025709Y007186D01*
X025547Y007214D01*
X025386Y007251D01*
X025227Y007294D01*
X025071Y007346D01*
X024917Y007405D01*
X024767Y007472D01*
X024620Y007546D01*
X024477Y007627D01*
X024338Y007715D01*
X024203Y007810D01*
X024073Y007911D01*
X023949Y008019D01*
X023829Y008132D01*
X023716Y008252D01*
X023608Y008376D01*
X023507Y008506D01*
X023412Y008641D01*
X023324Y008780D01*
X023243Y008923D01*
X023169Y009070D01*
X023102Y009220D01*
X023043Y009374D01*
X022991Y009530D01*
X022948Y009689D01*
X022911Y009850D01*
X022883Y010012D01*
X022863Y010175D01*
X022851Y010339D01*
X022847Y010504D01*
X024080Y010504D02*
X024083Y010608D01*
X024090Y010712D01*
X024103Y010815D01*
X024121Y010918D01*
X024144Y011019D01*
X024171Y011120D01*
X024204Y011219D01*
X024241Y011316D01*
X024284Y011411D01*
X024330Y011504D01*
X024382Y011594D01*
X024437Y011682D01*
X024497Y011767D01*
X024561Y011850D01*
X024629Y011928D01*
X024701Y012004D01*
X024777Y012076D01*
X024855Y012144D01*
X024938Y012208D01*
X025023Y012268D01*
X025111Y012323D01*
X025201Y012375D01*
X025294Y012421D01*
X025389Y012464D01*
X025486Y012501D01*
X025585Y012534D01*
X025686Y012561D01*
X025787Y012584D01*
X025890Y012602D01*
X025993Y012615D01*
X026097Y012622D01*
X026201Y012625D01*
X026305Y012622D01*
X026409Y012615D01*
X026512Y012602D01*
X026615Y012584D01*
X026716Y012561D01*
X026817Y012534D01*
X026916Y012501D01*
X027013Y012464D01*
X027108Y012421D01*
X027201Y012375D01*
X027291Y012323D01*
X027379Y012268D01*
X027464Y012208D01*
X027547Y012144D01*
X027625Y012076D01*
X027701Y012004D01*
X027773Y011928D01*
X027841Y011850D01*
X027905Y011767D01*
X027965Y011682D01*
X028020Y011594D01*
X028072Y011504D01*
X028118Y011411D01*
X028161Y011316D01*
X028198Y011219D01*
X028231Y011120D01*
X028258Y011019D01*
X028281Y010918D01*
X028299Y010815D01*
X028312Y010712D01*
X028319Y010608D01*
X028322Y010504D01*
X028319Y010400D01*
X028312Y010296D01*
X028299Y010193D01*
X028281Y010090D01*
X028258Y009989D01*
X028231Y009888D01*
X028198Y009789D01*
X028161Y009692D01*
X028118Y009597D01*
X028072Y009504D01*
X028020Y009414D01*
X027965Y009326D01*
X027905Y009241D01*
X027841Y009158D01*
X027773Y009080D01*
X027701Y009004D01*
X027625Y008932D01*
X027547Y008864D01*
X027464Y008800D01*
X027379Y008740D01*
X027291Y008685D01*
X027201Y008633D01*
X027108Y008587D01*
X027013Y008544D01*
X026916Y008507D01*
X026817Y008474D01*
X026716Y008447D01*
X026615Y008424D01*
X026512Y008406D01*
X026409Y008393D01*
X026305Y008386D01*
X026201Y008383D01*
X026097Y008386D01*
X025993Y008393D01*
X025890Y008406D01*
X025787Y008424D01*
X025686Y008447D01*
X025585Y008474D01*
X025486Y008507D01*
X025389Y008544D01*
X025294Y008587D01*
X025201Y008633D01*
X025111Y008685D01*
X025023Y008740D01*
X024938Y008800D01*
X024855Y008864D01*
X024777Y008932D01*
X024701Y009004D01*
X024629Y009080D01*
X024561Y009158D01*
X024497Y009241D01*
X024437Y009326D01*
X024382Y009414D01*
X024330Y009504D01*
X024284Y009597D01*
X024241Y009692D01*
X024204Y009789D01*
X024171Y009888D01*
X024144Y009989D01*
X024121Y010090D01*
X024103Y010193D01*
X024090Y010296D01*
X024083Y010400D01*
X024080Y010504D01*
X023701Y010504D02*
X023704Y010627D01*
X023713Y010749D01*
X023728Y010871D01*
X023749Y010992D01*
X023776Y011111D01*
X023809Y011230D01*
X023847Y011346D01*
X023891Y011461D01*
X023941Y011573D01*
X023996Y011682D01*
X024057Y011789D01*
X024122Y011893D01*
X024193Y011993D01*
X024268Y012090D01*
X024349Y012183D01*
X024433Y012272D01*
X024522Y012356D01*
X024615Y012437D01*
X024712Y012512D01*
X024812Y012583D01*
X024916Y012648D01*
X025023Y012709D01*
X025132Y012764D01*
X025244Y012814D01*
X025359Y012858D01*
X025475Y012896D01*
X025594Y012929D01*
X025713Y012956D01*
X025834Y012977D01*
X025956Y012992D01*
X026078Y013001D01*
X026201Y013004D01*
X026324Y013001D01*
X026446Y012992D01*
X026568Y012977D01*
X026689Y012956D01*
X026808Y012929D01*
X026927Y012896D01*
X027043Y012858D01*
X027158Y012814D01*
X027270Y012764D01*
X027379Y012709D01*
X027486Y012648D01*
X027590Y012583D01*
X027690Y012512D01*
X027787Y012437D01*
X027880Y012356D01*
X027969Y012272D01*
X028053Y012183D01*
X028134Y012090D01*
X028209Y011993D01*
X028280Y011893D01*
X028345Y011789D01*
X028406Y011682D01*
X028461Y011573D01*
X028511Y011461D01*
X028555Y011346D01*
X028593Y011230D01*
X028626Y011111D01*
X028653Y010992D01*
X028674Y010871D01*
X028689Y010749D01*
X028698Y010627D01*
X028701Y010504D01*
X028698Y010381D01*
X028689Y010259D01*
X028674Y010137D01*
X028653Y010016D01*
X028626Y009897D01*
X028593Y009778D01*
X028555Y009662D01*
X028511Y009547D01*
X028461Y009435D01*
X028406Y009326D01*
X028345Y009219D01*
X028280Y009115D01*
X028209Y009015D01*
X028134Y008918D01*
X028053Y008825D01*
X027969Y008736D01*
X027880Y008652D01*
X027787Y008571D01*
X027690Y008496D01*
X027590Y008425D01*
X027486Y008360D01*
X027379Y008299D01*
X027270Y008244D01*
X027158Y008194D01*
X027043Y008150D01*
X026927Y008112D01*
X026808Y008079D01*
X026689Y008052D01*
X026568Y008031D01*
X026446Y008016D01*
X026324Y008007D01*
X026201Y008004D01*
X026078Y008007D01*
X025956Y008016D01*
X025834Y008031D01*
X025713Y008052D01*
X025594Y008079D01*
X025475Y008112D01*
X025359Y008150D01*
X025244Y008194D01*
X025132Y008244D01*
X025023Y008299D01*
X024916Y008360D01*
X024812Y008425D01*
X024712Y008496D01*
X024615Y008571D01*
X024522Y008652D01*
X024433Y008736D01*
X024349Y008825D01*
X024268Y008918D01*
X024193Y009015D01*
X024122Y009115D01*
X024057Y009219D01*
X023996Y009326D01*
X023941Y009435D01*
X023891Y009547D01*
X023847Y009662D01*
X023809Y009778D01*
X023776Y009897D01*
X023749Y010016D01*
X023728Y010137D01*
X023713Y010259D01*
X023704Y010381D01*
X023701Y010504D01*
X023160Y010504D02*
X023164Y010653D01*
X023175Y010802D01*
X023193Y010950D01*
X023218Y011097D01*
X023251Y011243D01*
X023291Y011387D01*
X023338Y011528D01*
X023391Y011668D01*
X023452Y011804D01*
X023519Y011938D01*
X023593Y012067D01*
X023673Y012193D01*
X023758Y012316D01*
X023850Y012433D01*
X023948Y012546D01*
X024051Y012654D01*
X024159Y012757D01*
X024272Y012855D01*
X024389Y012947D01*
X024512Y013032D01*
X024638Y013112D01*
X024767Y013186D01*
X024901Y013253D01*
X025037Y013314D01*
X025177Y013367D01*
X025318Y013414D01*
X025462Y013454D01*
X025608Y013487D01*
X025755Y013512D01*
X025903Y013530D01*
X026052Y013541D01*
X026201Y013545D01*
X026350Y013541D01*
X026499Y013530D01*
X026647Y013512D01*
X026794Y013487D01*
X026940Y013454D01*
X027084Y013414D01*
X027225Y013367D01*
X027365Y013314D01*
X027501Y013253D01*
X027635Y013186D01*
X027764Y013112D01*
X027890Y013032D01*
X028013Y012947D01*
X028130Y012855D01*
X028243Y012757D01*
X028351Y012654D01*
X028454Y012546D01*
X028552Y012433D01*
X028644Y012316D01*
X028729Y012193D01*
X028809Y012067D01*
X028883Y011938D01*
X028950Y011804D01*
X029011Y011668D01*
X029064Y011528D01*
X029111Y011387D01*
X029151Y011243D01*
X029184Y011097D01*
X029209Y010950D01*
X029227Y010802D01*
X029238Y010653D01*
X029242Y010504D01*
X029238Y010355D01*
X029227Y010206D01*
X029209Y010058D01*
X029184Y009911D01*
X029151Y009765D01*
X029111Y009621D01*
X029064Y009480D01*
X029011Y009340D01*
X028950Y009204D01*
X028883Y009070D01*
X028809Y008941D01*
X028729Y008815D01*
X028644Y008692D01*
X028552Y008575D01*
X028454Y008462D01*
X028351Y008354D01*
X028243Y008251D01*
X028130Y008153D01*
X028013Y008061D01*
X027890Y007976D01*
X027764Y007896D01*
X027635Y007822D01*
X027501Y007755D01*
X027365Y007694D01*
X027225Y007641D01*
X027084Y007594D01*
X026940Y007554D01*
X026794Y007521D01*
X026647Y007496D01*
X026499Y007478D01*
X026350Y007467D01*
X026201Y007463D01*
X026052Y007467D01*
X025903Y007478D01*
X025755Y007496D01*
X025608Y007521D01*
X025462Y007554D01*
X025318Y007594D01*
X025177Y007641D01*
X025037Y007694D01*
X024901Y007755D01*
X024767Y007822D01*
X024638Y007896D01*
X024512Y007976D01*
X024389Y008061D01*
X024272Y008153D01*
X024159Y008251D01*
X024051Y008354D01*
X023948Y008462D01*
X023850Y008575D01*
X023758Y008692D01*
X023673Y008815D01*
X023593Y008941D01*
X023519Y009070D01*
X023452Y009204D01*
X023391Y009340D01*
X023338Y009480D01*
X023291Y009621D01*
X023251Y009765D01*
X023218Y009911D01*
X023193Y010058D01*
X023175Y010206D01*
X023164Y010355D01*
X023160Y010504D01*
X022701Y016504D02*
X022760Y016442D01*
X022817Y016377D01*
X022869Y016309D01*
X022919Y016239D01*
X022965Y016167D01*
X023008Y016092D01*
X023047Y016016D01*
X023082Y015937D01*
X023113Y015857D01*
X023140Y015776D01*
X023164Y015693D01*
X023183Y015609D01*
X023198Y015525D01*
X023209Y015440D01*
X023216Y015354D01*
X023219Y015268D01*
X023218Y015182D01*
X023212Y015097D01*
X023202Y015011D01*
X023188Y014927D01*
X023170Y014843D01*
X023148Y014760D01*
X023122Y014678D01*
X023093Y014597D01*
X023059Y014518D01*
X023021Y014441D01*
X022980Y014366D01*
X022935Y014293D01*
X022886Y014222D01*
X022835Y014153D01*
X022779Y014087D01*
X022721Y014024D01*
X022660Y013964D01*
X022596Y013907D01*
X022529Y013853D01*
X022460Y013802D01*
X022388Y013755D01*
X022314Y013711D01*
X022238Y013671D01*
X022161Y013635D01*
X022081Y013602D01*
X022000Y013573D01*
X021918Y013549D01*
X021834Y013528D01*
X021750Y013511D01*
X021665Y013499D01*
X021580Y013491D01*
X021494Y013487D01*
X021408Y013487D01*
X021322Y013491D01*
X021237Y013499D01*
X021152Y013511D01*
X021068Y013528D01*
X020984Y013549D01*
X020902Y013573D01*
X020821Y013602D01*
X020741Y013635D01*
X020664Y013671D01*
X020588Y013711D01*
X020514Y013755D01*
X020442Y013802D01*
X020373Y013853D01*
X020306Y013907D01*
X020242Y013964D01*
X020181Y014024D01*
X020123Y014087D01*
X020067Y014153D01*
X020016Y014222D01*
X019967Y014293D01*
X019922Y014366D01*
X019881Y014441D01*
X019843Y014518D01*
X019809Y014597D01*
X019780Y014678D01*
X019754Y014760D01*
X019732Y014843D01*
X019714Y014927D01*
X019700Y015011D01*
X019690Y015097D01*
X019684Y015182D01*
X019683Y015268D01*
X019686Y015354D01*
X019693Y015440D01*
X019704Y015525D01*
X019719Y015609D01*
X019738Y015693D01*
X019762Y015776D01*
X019789Y015857D01*
X019820Y015937D01*
X019855Y016016D01*
X019894Y016092D01*
X019937Y016167D01*
X019983Y016239D01*
X020033Y016309D01*
X020085Y016377D01*
X020142Y016442D01*
X020201Y016504D01*
X021056Y016652D02*
X021093Y016611D01*
X021128Y016567D01*
X021159Y016521D01*
X021186Y016473D01*
X021211Y016422D01*
X021231Y016371D01*
X021248Y016318D01*
X021262Y016264D01*
X021271Y016209D01*
X021277Y016154D01*
X021279Y016098D01*
X021277Y016042D01*
X021271Y015987D01*
X021261Y015932D01*
X021248Y015878D01*
X021231Y015825D01*
X021210Y015774D01*
X021185Y015724D01*
X021157Y015675D01*
X021126Y015629D01*
X021092Y015585D01*
X021055Y015544D01*
X021015Y015505D01*
X020972Y015470D01*
X020927Y015437D01*
X020880Y015407D01*
X020831Y015381D01*
X020780Y015358D01*
X020728Y015339D01*
X020674Y015324D01*
X020620Y015312D01*
X020565Y015304D01*
X020509Y015301D01*
X020453Y015300D01*
X020398Y015304D01*
X020343Y015312D01*
X020288Y015323D01*
X020235Y015339D01*
X020182Y015358D01*
X020131Y015380D01*
X020082Y015406D01*
X020035Y015435D01*
X019990Y015468D01*
X019947Y015504D01*
X019907Y015542D01*
X019870Y015584D01*
X019835Y015627D01*
X019804Y015673D01*
X022138Y016652D02*
X022093Y016615D01*
X022052Y016575D01*
X022013Y016532D01*
X021977Y016486D01*
X021945Y016439D01*
X021916Y016389D01*
X021890Y016337D01*
X021868Y016284D01*
X021849Y016229D01*
X021834Y016173D01*
X021823Y016116D01*
X021816Y016059D01*
X021813Y016001D01*
X021814Y015943D01*
X021819Y015886D01*
X021827Y015829D01*
X021840Y015772D01*
X021856Y015717D01*
X021876Y015663D01*
X021900Y015610D01*
X021927Y015559D01*
X021958Y015510D01*
X021991Y015463D01*
X022028Y015419D01*
X022068Y015377D01*
X022111Y015338D01*
X022156Y015302D01*
X022204Y015269D01*
X022253Y015239D01*
X022305Y015213D01*
X022358Y015191D01*
X022413Y015172D01*
X022468Y015157D01*
X022525Y015145D01*
X022582Y015138D01*
X022640Y015134D01*
X022698Y015135D01*
X022756Y015139D01*
X022813Y015147D01*
X022869Y015159D01*
X022925Y015175D01*
X022979Y015195D01*
X023032Y015218D01*
X023083Y015245D01*
X023132Y015275D01*
X023180Y015309D01*
X023224Y015346D01*
X007901Y012504D02*
X007901Y018504D01*
X006401Y018504D02*
X006401Y012504D01*
X004801Y012504D02*
X004801Y018504D01*
D19*
X004417Y018117D02*
X003910Y018117D01*
X003656Y017864D01*
X003910Y017610D01*
X004417Y017610D01*
X004417Y017288D02*
X003656Y017288D01*
X003910Y017035D01*
X003656Y016781D01*
X004417Y016781D01*
X004417Y016460D02*
X003910Y016460D01*
X003656Y016206D01*
X003910Y015953D01*
X004417Y015953D01*
X004417Y015631D02*
X003656Y015124D01*
X003656Y014802D02*
X004290Y014802D01*
X004417Y014676D01*
X004417Y014422D01*
X004290Y014295D01*
X003656Y014295D01*
X004417Y013974D02*
X004417Y013466D01*
X003656Y013466D01*
X003656Y013145D02*
X003656Y012638D01*
X004417Y012638D01*
X004037Y012638D02*
X004037Y012891D01*
X005210Y012771D02*
X005336Y012644D01*
X005463Y012644D01*
X005590Y012771D01*
X005590Y013025D01*
X005717Y013151D01*
X005843Y013151D01*
X005970Y013025D01*
X005970Y012771D01*
X005843Y012644D01*
X005210Y012771D02*
X005210Y013025D01*
X005336Y013151D01*
X005336Y013473D02*
X005590Y013726D01*
X005970Y013726D01*
X005590Y013726D02*
X005336Y013980D01*
X005210Y013980D01*
X005210Y014302D02*
X005970Y014809D01*
X005210Y014809D01*
X005210Y015130D02*
X005210Y015637D01*
X005210Y015384D02*
X005970Y015384D01*
X005970Y015959D02*
X005210Y015959D01*
X005590Y015959D02*
X005590Y016466D01*
X005210Y016466D02*
X005970Y016466D01*
X006718Y016465D02*
X006718Y016845D01*
X006845Y016972D01*
X007352Y016972D01*
X007479Y016845D01*
X007479Y016465D01*
X006718Y016465D01*
X007479Y016143D02*
X007479Y015636D01*
X006718Y015636D01*
X006718Y015314D02*
X006718Y014807D01*
X007479Y014807D01*
X007479Y015314D01*
X007099Y015061D02*
X007099Y014807D01*
X007479Y014508D02*
X007479Y014255D01*
X007479Y014382D02*
X006718Y014382D01*
X006718Y014508D02*
X006718Y014255D01*
X006718Y013933D02*
X007479Y013933D01*
X007099Y013933D02*
X007099Y013426D01*
X007479Y013426D02*
X006718Y013426D01*
X006845Y013105D02*
X006718Y012978D01*
X006718Y012724D01*
X006845Y012597D01*
X006972Y012597D01*
X007099Y012724D01*
X007099Y012978D01*
X007225Y013105D01*
X007352Y013105D01*
X007479Y012978D01*
X007479Y012724D01*
X007352Y012597D01*
X005336Y013473D02*
X005210Y013473D01*
X005210Y014302D02*
X005970Y014302D01*
X004417Y015124D02*
X003656Y015631D01*
X004037Y015953D02*
X004037Y016460D01*
X004037Y017610D02*
X004037Y018117D01*
D20*
X014491Y012971D02*
X014491Y012784D01*
X014491Y012924D02*
X014678Y012924D01*
X014678Y012971D02*
X014678Y012784D01*
X014678Y012971D02*
X014584Y013064D01*
X014491Y012971D01*
X014786Y013064D02*
X014973Y013064D01*
X014879Y013064D02*
X014879Y012784D01*
X015080Y012831D02*
X015127Y012784D01*
X015221Y012784D01*
X015267Y012831D01*
X015267Y012877D01*
X015221Y012924D01*
X015127Y012924D01*
X015080Y012971D01*
X015080Y013017D01*
X015127Y013064D01*
X015221Y013064D01*
X015267Y013017D01*
X015375Y012971D02*
X015375Y012784D01*
X015375Y012924D02*
X015562Y012924D01*
X015562Y012971D02*
X015562Y012784D01*
X015670Y012784D02*
X015670Y013064D01*
X015763Y012971D01*
X015856Y013064D01*
X015856Y012784D01*
X015964Y012784D02*
X016151Y012971D01*
X016151Y013017D01*
X016104Y013064D01*
X016011Y013064D01*
X015964Y013017D01*
X015964Y012784D02*
X016151Y012784D01*
X016259Y012784D02*
X016446Y012784D01*
X016352Y012784D02*
X016352Y013064D01*
X016259Y012971D01*
X016554Y012971D02*
X016600Y012924D01*
X016740Y012924D01*
X016740Y012831D02*
X016740Y013017D01*
X016694Y013064D01*
X016600Y013064D01*
X016554Y013017D01*
X016554Y012971D01*
X016554Y012831D02*
X016600Y012784D01*
X016694Y012784D01*
X016740Y012831D01*
X016848Y012831D02*
X016895Y012784D01*
X016988Y012784D01*
X017035Y012831D01*
X017035Y012924D01*
X016988Y012971D01*
X016942Y012971D01*
X016848Y012924D01*
X016848Y013064D01*
X017035Y013064D01*
X015562Y012971D02*
X015468Y013064D01*
X015375Y012971D01*
D21*
X002701Y021504D02*
X002701Y000504D01*
X028901Y000504D01*
X028901Y001484D01*
X028911Y001484D01*
X029921Y002494D01*
X029921Y015424D01*
X028901Y016444D01*
X028901Y020834D01*
X028231Y021504D01*
X002701Y021504D01*
X003969Y011433D02*
X003971Y011467D01*
X003977Y011501D01*
X003987Y011534D01*
X004000Y011565D01*
X004018Y011595D01*
X004038Y011623D01*
X004062Y011648D01*
X004088Y011670D01*
X004116Y011688D01*
X004147Y011704D01*
X004179Y011716D01*
X004213Y011724D01*
X004247Y011728D01*
X004281Y011728D01*
X004315Y011724D01*
X004349Y011716D01*
X004381Y011704D01*
X004411Y011688D01*
X004440Y011670D01*
X004466Y011648D01*
X004490Y011623D01*
X004510Y011595D01*
X004528Y011565D01*
X004541Y011534D01*
X004551Y011501D01*
X004557Y011467D01*
X004559Y011433D01*
X004557Y011399D01*
X004551Y011365D01*
X004541Y011332D01*
X004528Y011301D01*
X004510Y011271D01*
X004490Y011243D01*
X004466Y011218D01*
X004440Y011196D01*
X004412Y011178D01*
X004381Y011162D01*
X004349Y011150D01*
X004315Y011142D01*
X004281Y011138D01*
X004247Y011138D01*
X004213Y011142D01*
X004179Y011150D01*
X004147Y011162D01*
X004116Y011178D01*
X004088Y011196D01*
X004062Y011218D01*
X004038Y011243D01*
X004018Y011271D01*
X004000Y011301D01*
X003987Y011332D01*
X003977Y011365D01*
X003971Y011399D01*
X003969Y011433D01*
X005938Y009465D02*
X005940Y009499D01*
X005946Y009533D01*
X005956Y009566D01*
X005969Y009597D01*
X005987Y009627D01*
X006007Y009655D01*
X006031Y009680D01*
X006057Y009702D01*
X006085Y009720D01*
X006116Y009736D01*
X006148Y009748D01*
X006182Y009756D01*
X006216Y009760D01*
X006250Y009760D01*
X006284Y009756D01*
X006318Y009748D01*
X006350Y009736D01*
X006380Y009720D01*
X006409Y009702D01*
X006435Y009680D01*
X006459Y009655D01*
X006479Y009627D01*
X006497Y009597D01*
X006510Y009566D01*
X006520Y009533D01*
X006526Y009499D01*
X006528Y009465D01*
X006526Y009431D01*
X006520Y009397D01*
X006510Y009364D01*
X006497Y009333D01*
X006479Y009303D01*
X006459Y009275D01*
X006435Y009250D01*
X006409Y009228D01*
X006381Y009210D01*
X006350Y009194D01*
X006318Y009182D01*
X006284Y009174D01*
X006250Y009170D01*
X006216Y009170D01*
X006182Y009174D01*
X006148Y009182D01*
X006116Y009194D01*
X006085Y009210D01*
X006057Y009228D01*
X006031Y009250D01*
X006007Y009275D01*
X005987Y009303D01*
X005969Y009333D01*
X005956Y009364D01*
X005946Y009397D01*
X005940Y009431D01*
X005938Y009465D01*
X003969Y007496D02*
X003971Y007530D01*
X003977Y007564D01*
X003987Y007597D01*
X004000Y007628D01*
X004018Y007658D01*
X004038Y007686D01*
X004062Y007711D01*
X004088Y007733D01*
X004116Y007751D01*
X004147Y007767D01*
X004179Y007779D01*
X004213Y007787D01*
X004247Y007791D01*
X004281Y007791D01*
X004315Y007787D01*
X004349Y007779D01*
X004381Y007767D01*
X004411Y007751D01*
X004440Y007733D01*
X004466Y007711D01*
X004490Y007686D01*
X004510Y007658D01*
X004528Y007628D01*
X004541Y007597D01*
X004551Y007564D01*
X004557Y007530D01*
X004559Y007496D01*
X004557Y007462D01*
X004551Y007428D01*
X004541Y007395D01*
X004528Y007364D01*
X004510Y007334D01*
X004490Y007306D01*
X004466Y007281D01*
X004440Y007259D01*
X004412Y007241D01*
X004381Y007225D01*
X004349Y007213D01*
X004315Y007205D01*
X004281Y007201D01*
X004247Y007201D01*
X004213Y007205D01*
X004179Y007213D01*
X004147Y007225D01*
X004116Y007241D01*
X004088Y007259D01*
X004062Y007281D01*
X004038Y007306D01*
X004018Y007334D01*
X004000Y007364D01*
X003987Y007395D01*
X003977Y007428D01*
X003971Y007462D01*
X003969Y007496D01*
D22*
X019216Y010804D03*
X019216Y011204D03*
D23*
X019258Y020943D02*
X019209Y020991D01*
X019209Y021040D01*
X019258Y021088D01*
X019355Y021088D01*
X019403Y021040D01*
X019403Y020991D01*
X019355Y020943D01*
X019258Y020943D01*
X019258Y021088D02*
X019209Y021136D01*
X019209Y021185D01*
X019258Y021233D01*
X019355Y021233D01*
X019403Y021185D01*
X019403Y021136D01*
X019355Y021088D01*
X018403Y021078D02*
X018258Y021078D01*
X018209Y021126D01*
X018209Y021175D01*
X018258Y021223D01*
X018355Y021223D01*
X018403Y021175D01*
X018403Y020981D01*
X018355Y020933D01*
X018258Y020933D01*
X018209Y020981D01*
X017533Y020981D02*
X017485Y020933D01*
X017388Y020933D01*
X017339Y020981D01*
X017533Y021175D01*
X017533Y020981D01*
X017339Y020981D02*
X017339Y021175D01*
X017388Y021223D01*
X017485Y021223D01*
X017533Y021175D01*
X017142Y021223D02*
X017142Y020933D01*
X017238Y020933D02*
X017045Y020933D01*
X017045Y021126D02*
X017142Y021223D01*
X016533Y020943D02*
X016339Y020943D01*
X016436Y020943D02*
X016436Y021233D01*
X016339Y021136D01*
X016238Y020943D02*
X016045Y020943D01*
X016142Y020943D02*
X016142Y021233D01*
X016045Y021136D01*
X015533Y021136D02*
X015339Y020943D01*
X015533Y020943D01*
X015533Y021136D02*
X015533Y021185D01*
X015485Y021233D01*
X015388Y021233D01*
X015339Y021185D01*
X015142Y021233D02*
X015045Y021136D01*
X015142Y021233D02*
X015142Y020943D01*
X015238Y020943D02*
X015045Y020943D01*
X014533Y020971D02*
X014485Y020923D01*
X014388Y020923D01*
X014339Y020971D01*
X014238Y020923D02*
X014045Y020923D01*
X014142Y020923D02*
X014142Y021213D01*
X014045Y021116D01*
X014339Y021165D02*
X014388Y021213D01*
X014485Y021213D01*
X014533Y021165D01*
X014533Y021116D01*
X014485Y021068D01*
X014533Y021020D01*
X014533Y020971D01*
X014485Y021068D02*
X014436Y021068D01*
X013663Y021126D02*
X013518Y021126D01*
X013469Y021078D01*
X013469Y020981D01*
X013518Y020933D01*
X013663Y020933D01*
X013663Y021223D01*
X013368Y021078D02*
X013368Y020933D01*
X013368Y021078D02*
X013320Y021126D01*
X013175Y021126D01*
X013175Y020933D01*
X013074Y020933D02*
X012929Y020933D01*
X012880Y020981D01*
X012880Y021078D01*
X012929Y021126D01*
X013074Y021126D01*
X013074Y020885D01*
X013025Y020836D01*
X012977Y020836D01*
X012522Y020931D02*
X012522Y021173D01*
X012570Y021221D01*
X012570Y021076D02*
X012474Y021076D01*
X012372Y021076D02*
X012372Y021028D01*
X012179Y021028D01*
X012179Y021076D02*
X012227Y021124D01*
X012324Y021124D01*
X012372Y021076D01*
X012324Y020931D02*
X012227Y020931D01*
X012179Y020979D01*
X012179Y021076D01*
X012078Y021076D02*
X012029Y021028D01*
X011884Y021028D01*
X011884Y020931D02*
X011884Y021221D01*
X012029Y021221D01*
X012078Y021173D01*
X012078Y021076D01*
X011981Y021028D02*
X012078Y020931D01*
X011783Y020931D02*
X011783Y021124D01*
X011686Y021221D01*
X011590Y021124D01*
X011590Y020931D01*
X011590Y021076D02*
X011783Y021076D01*
X020839Y020961D02*
X020839Y020913D01*
X020839Y020961D02*
X021033Y021155D01*
X021033Y021203D01*
X020839Y021203D01*
X021749Y021088D02*
X021895Y021088D01*
X021943Y021040D01*
X021943Y020991D01*
X021895Y020943D01*
X021798Y020943D01*
X021749Y020991D01*
X021749Y021088D01*
X021846Y021185D01*
X021943Y021233D01*
X022759Y021213D02*
X022759Y021068D01*
X022856Y021116D01*
X022905Y021116D01*
X022953Y021068D01*
X022953Y020971D01*
X022905Y020923D01*
X022808Y020923D01*
X022759Y020971D01*
X022759Y021213D02*
X022953Y021213D01*
X023719Y021068D02*
X023913Y021068D01*
X023865Y020923D02*
X023865Y021213D01*
X023719Y021068D01*
X024759Y020971D02*
X024808Y020923D01*
X024905Y020923D01*
X024953Y020971D01*
X024953Y021020D01*
X024905Y021068D01*
X024856Y021068D01*
X024905Y021068D02*
X024953Y021116D01*
X024953Y021165D01*
X024905Y021213D01*
X024808Y021213D01*
X024759Y021165D01*
X025739Y021155D02*
X025788Y021203D01*
X025885Y021203D01*
X025933Y021155D01*
X025933Y021106D01*
X025739Y020913D01*
X025933Y020913D01*
X026749Y020913D02*
X026943Y020913D01*
X026846Y020913D02*
X026846Y021203D01*
X026749Y021106D01*
X027769Y021165D02*
X027818Y021213D01*
X027915Y021213D01*
X027963Y021165D01*
X027769Y020971D01*
X027818Y020923D01*
X027915Y020923D01*
X027963Y020971D01*
X027963Y021165D01*
X027769Y021165D02*
X027769Y020971D01*
X025965Y001081D02*
X026014Y001033D01*
X026014Y000984D01*
X025965Y000936D01*
X026014Y000888D01*
X026014Y000839D01*
X025965Y000791D01*
X025868Y000791D01*
X025820Y000839D01*
X025917Y000936D02*
X025965Y000936D01*
X025965Y001081D02*
X025868Y001081D01*
X025820Y001033D01*
X025004Y001053D02*
X024955Y001101D01*
X024858Y001101D01*
X024810Y001053D01*
X025004Y001053D02*
X025004Y001004D01*
X024810Y000811D01*
X025004Y000811D01*
X024024Y000791D02*
X023830Y000791D01*
X023927Y000791D02*
X023927Y001081D01*
X023830Y000984D01*
X022994Y001033D02*
X022994Y000839D01*
X022945Y000791D01*
X022848Y000791D01*
X022800Y000839D01*
X022994Y001033D01*
X022945Y001081D01*
X022848Y001081D01*
X022800Y001033D01*
X022800Y000839D01*
X021273Y000898D02*
X021273Y000753D01*
X021273Y000898D02*
X021225Y000946D01*
X021079Y000946D01*
X021079Y000753D01*
X020980Y000753D02*
X020883Y000753D01*
X020931Y000753D02*
X020931Y000946D01*
X020883Y000946D01*
X020931Y001043D02*
X020931Y001092D01*
X020782Y001043D02*
X020782Y000850D01*
X020685Y000753D01*
X020588Y000850D01*
X020588Y001043D01*
X019723Y001061D02*
X019723Y000771D01*
X019578Y000771D01*
X019529Y000819D01*
X019529Y000916D01*
X019578Y000964D01*
X019723Y000964D01*
X019428Y000916D02*
X019428Y000771D01*
X019428Y000916D02*
X019380Y000964D01*
X019235Y000964D01*
X019235Y000771D01*
X019134Y000819D02*
X019134Y000916D01*
X019037Y000916D01*
X019134Y000819D02*
X019085Y000771D01*
X018988Y000771D01*
X018940Y000819D01*
X018940Y001013D01*
X018988Y001061D01*
X019085Y001061D01*
X019134Y001013D01*
X018193Y000976D02*
X018096Y000783D01*
X017999Y000976D01*
X017898Y000928D02*
X017898Y000831D01*
X017850Y000783D01*
X017753Y000783D01*
X017705Y000831D01*
X017705Y000928D02*
X017802Y000976D01*
X017850Y000976D01*
X017898Y000928D01*
X017898Y001073D02*
X017705Y001073D01*
X017705Y000928D01*
X017123Y000986D02*
X017026Y000793D01*
X016929Y000986D01*
X016828Y000986D02*
X016780Y000938D01*
X016828Y000890D01*
X016828Y000841D01*
X016780Y000793D01*
X016683Y000793D01*
X016635Y000841D01*
X016732Y000938D02*
X016780Y000938D01*
X016828Y000986D02*
X016828Y001035D01*
X016780Y001083D01*
X016683Y001083D01*
X016635Y001035D01*
X016259Y001081D02*
X016065Y001081D01*
X016162Y001081D02*
X016162Y000791D01*
X015964Y000839D02*
X015916Y000791D01*
X015819Y000791D01*
X015771Y000839D01*
X015819Y000936D02*
X015916Y000936D01*
X015964Y000888D01*
X015964Y000839D01*
X015819Y000936D02*
X015771Y000984D01*
X015771Y001033D01*
X015819Y001081D01*
X015916Y001081D01*
X015964Y001033D01*
X015670Y001033D02*
X015621Y001081D01*
X015476Y001081D01*
X015476Y000791D01*
X015476Y000888D02*
X015621Y000888D01*
X015670Y000936D01*
X015670Y001033D01*
X015573Y000888D02*
X015670Y000791D01*
X026800Y000926D02*
X026994Y000926D01*
X026945Y000781D02*
X026945Y001071D01*
X026800Y000926D01*
X027800Y000926D02*
X027897Y000974D01*
X027945Y000974D01*
X027994Y000926D01*
X027994Y000829D01*
X027945Y000781D01*
X027848Y000781D01*
X027800Y000829D01*
X027800Y000926D02*
X027800Y001071D01*
X027994Y001071D01*
D24*
X006401Y003004D02*
X006301Y003004D01*
X006301Y003954D01*
X006401Y003954D01*
X004101Y004004D02*
X004101Y003004D01*
X004001Y003004D01*
X004001Y004004D02*
X004101Y004004D01*
M02*
