G75*
G70*
%OFA0B0*%
%FSLAX24Y24*%
%IPPOS*%
%LPD*%
%AMOC8*
5,1,8,0,0,1.08239X$1,22.5*
%
%ADD10C,0.0032*%
%ADD11R,0.1500X0.1500*%
%ADD12C,0.0680*%
%ADD13C,0.0671*%
%ADD14C,0.1080*%
%ADD15C,0.0966*%
%ADD16C,0.0600*%
%ADD17R,0.0592X0.0671*%
%ADD18R,0.0790X0.0710*%
%ADD19R,0.0395X0.0710*%
%ADD20R,0.0710X0.0592*%
%ADD21R,0.0671X0.0592*%
%ADD22R,0.0592X0.0710*%
%ADD23OC8,0.0740*%
%ADD24R,0.0474X0.0631*%
%ADD25R,0.0680X0.0980*%
%ADD26OC8,0.0640*%
%ADD27OC8,0.0595*%
%ADD28C,0.0476*%
D10*
X014163Y009956D02*
X014531Y009956D01*
X014163Y009956D02*
X014163Y010084D01*
X014531Y010084D01*
X014531Y009956D01*
X014531Y009987D02*
X014163Y009987D01*
X014163Y010018D02*
X014531Y010018D01*
X014531Y010049D02*
X014163Y010049D01*
X014163Y010080D02*
X014531Y010080D01*
X014531Y010153D02*
X014163Y010153D01*
X014163Y010281D01*
X014531Y010281D01*
X014531Y010153D01*
X014531Y010184D02*
X014163Y010184D01*
X014163Y010215D02*
X014531Y010215D01*
X014531Y010246D02*
X014163Y010246D01*
X014163Y010277D02*
X014531Y010277D01*
X014531Y010349D02*
X014163Y010349D01*
X014163Y010477D01*
X014531Y010477D01*
X014531Y010349D01*
X014531Y010380D02*
X014163Y010380D01*
X014163Y010411D02*
X014531Y010411D01*
X014531Y010442D02*
X014163Y010442D01*
X014163Y010473D02*
X014531Y010473D01*
X014531Y010546D02*
X014163Y010546D01*
X014163Y010674D01*
X014531Y010674D01*
X014531Y010546D01*
X014531Y010577D02*
X014163Y010577D01*
X014163Y010608D02*
X014531Y010608D01*
X014531Y010639D02*
X014163Y010639D01*
X014163Y010670D02*
X014531Y010670D01*
X014531Y010743D02*
X014163Y010743D01*
X014163Y010871D01*
X014531Y010871D01*
X014531Y010743D01*
X014531Y010774D02*
X014163Y010774D01*
X014163Y010805D02*
X014531Y010805D01*
X014531Y010836D02*
X014163Y010836D01*
X014163Y010867D02*
X014531Y010867D01*
X014531Y010940D02*
X014163Y010940D01*
X014163Y011068D01*
X014531Y011068D01*
X014531Y010940D01*
X014531Y010971D02*
X014163Y010971D01*
X014163Y011002D02*
X014531Y011002D01*
X014531Y011033D02*
X014163Y011033D01*
X014163Y011064D02*
X014531Y011064D01*
X014531Y011137D02*
X014163Y011137D01*
X014163Y011265D01*
X014531Y011265D01*
X014531Y011137D01*
X014531Y011168D02*
X014163Y011168D01*
X014163Y011199D02*
X014531Y011199D01*
X014531Y011230D02*
X014163Y011230D01*
X014163Y011261D02*
X014531Y011261D01*
X014531Y011334D02*
X014163Y011334D01*
X014163Y011462D01*
X014531Y011462D01*
X014531Y011334D01*
X014531Y011365D02*
X014163Y011365D01*
X014163Y011396D02*
X014531Y011396D01*
X014531Y011427D02*
X014163Y011427D01*
X014163Y011458D02*
X014531Y011458D01*
X014531Y011530D02*
X014163Y011530D01*
X014163Y011658D01*
X014531Y011658D01*
X014531Y011530D01*
X014531Y011561D02*
X014163Y011561D01*
X014163Y011592D02*
X014531Y011592D01*
X014531Y011623D02*
X014163Y011623D01*
X014163Y011654D02*
X014531Y011654D01*
X014531Y011727D02*
X014163Y011727D01*
X014163Y011855D01*
X014531Y011855D01*
X014531Y011727D01*
X014531Y011758D02*
X014163Y011758D01*
X014163Y011789D02*
X014531Y011789D01*
X014531Y011820D02*
X014163Y011820D01*
X014163Y011851D02*
X014531Y011851D01*
X014531Y011924D02*
X014163Y011924D01*
X014163Y012052D01*
X014531Y012052D01*
X014531Y011924D01*
X014531Y011955D02*
X014163Y011955D01*
X014163Y011986D02*
X014531Y011986D01*
X014531Y012017D02*
X014163Y012017D01*
X014163Y012048D02*
X014531Y012048D01*
X014781Y012174D02*
X014781Y012542D01*
X014781Y012174D02*
X014653Y012174D01*
X014653Y012542D01*
X014781Y012542D01*
X014781Y012205D02*
X014653Y012205D01*
X014653Y012236D02*
X014781Y012236D01*
X014781Y012267D02*
X014653Y012267D01*
X014653Y012298D02*
X014781Y012298D01*
X014781Y012329D02*
X014653Y012329D01*
X014653Y012360D02*
X014781Y012360D01*
X014781Y012391D02*
X014653Y012391D01*
X014653Y012422D02*
X014781Y012422D01*
X014781Y012453D02*
X014653Y012453D01*
X014653Y012484D02*
X014781Y012484D01*
X014781Y012515D02*
X014653Y012515D01*
X014978Y012542D02*
X014978Y012174D01*
X014850Y012174D01*
X014850Y012542D01*
X014978Y012542D01*
X014978Y012205D02*
X014850Y012205D01*
X014850Y012236D02*
X014978Y012236D01*
X014978Y012267D02*
X014850Y012267D01*
X014850Y012298D02*
X014978Y012298D01*
X014978Y012329D02*
X014850Y012329D01*
X014850Y012360D02*
X014978Y012360D01*
X014978Y012391D02*
X014850Y012391D01*
X014850Y012422D02*
X014978Y012422D01*
X014978Y012453D02*
X014850Y012453D01*
X014850Y012484D02*
X014978Y012484D01*
X014978Y012515D02*
X014850Y012515D01*
X015175Y012542D02*
X015175Y012174D01*
X015047Y012174D01*
X015047Y012542D01*
X015175Y012542D01*
X015175Y012205D02*
X015047Y012205D01*
X015047Y012236D02*
X015175Y012236D01*
X015175Y012267D02*
X015047Y012267D01*
X015047Y012298D02*
X015175Y012298D01*
X015175Y012329D02*
X015047Y012329D01*
X015047Y012360D02*
X015175Y012360D01*
X015175Y012391D02*
X015047Y012391D01*
X015047Y012422D02*
X015175Y012422D01*
X015175Y012453D02*
X015047Y012453D01*
X015047Y012484D02*
X015175Y012484D01*
X015175Y012515D02*
X015047Y012515D01*
X015371Y012542D02*
X015371Y012174D01*
X015243Y012174D01*
X015243Y012542D01*
X015371Y012542D01*
X015371Y012205D02*
X015243Y012205D01*
X015243Y012236D02*
X015371Y012236D01*
X015371Y012267D02*
X015243Y012267D01*
X015243Y012298D02*
X015371Y012298D01*
X015371Y012329D02*
X015243Y012329D01*
X015243Y012360D02*
X015371Y012360D01*
X015371Y012391D02*
X015243Y012391D01*
X015243Y012422D02*
X015371Y012422D01*
X015371Y012453D02*
X015243Y012453D01*
X015243Y012484D02*
X015371Y012484D01*
X015371Y012515D02*
X015243Y012515D01*
X015568Y012542D02*
X015568Y012174D01*
X015440Y012174D01*
X015440Y012542D01*
X015568Y012542D01*
X015568Y012205D02*
X015440Y012205D01*
X015440Y012236D02*
X015568Y012236D01*
X015568Y012267D02*
X015440Y012267D01*
X015440Y012298D02*
X015568Y012298D01*
X015568Y012329D02*
X015440Y012329D01*
X015440Y012360D02*
X015568Y012360D01*
X015568Y012391D02*
X015440Y012391D01*
X015440Y012422D02*
X015568Y012422D01*
X015568Y012453D02*
X015440Y012453D01*
X015440Y012484D02*
X015568Y012484D01*
X015568Y012515D02*
X015440Y012515D01*
X015765Y012542D02*
X015765Y012174D01*
X015637Y012174D01*
X015637Y012542D01*
X015765Y012542D01*
X015765Y012205D02*
X015637Y012205D01*
X015637Y012236D02*
X015765Y012236D01*
X015765Y012267D02*
X015637Y012267D01*
X015637Y012298D02*
X015765Y012298D01*
X015765Y012329D02*
X015637Y012329D01*
X015637Y012360D02*
X015765Y012360D01*
X015765Y012391D02*
X015637Y012391D01*
X015637Y012422D02*
X015765Y012422D01*
X015765Y012453D02*
X015637Y012453D01*
X015637Y012484D02*
X015765Y012484D01*
X015765Y012515D02*
X015637Y012515D01*
X015962Y012542D02*
X015962Y012174D01*
X015834Y012174D01*
X015834Y012542D01*
X015962Y012542D01*
X015962Y012205D02*
X015834Y012205D01*
X015834Y012236D02*
X015962Y012236D01*
X015962Y012267D02*
X015834Y012267D01*
X015834Y012298D02*
X015962Y012298D01*
X015962Y012329D02*
X015834Y012329D01*
X015834Y012360D02*
X015962Y012360D01*
X015962Y012391D02*
X015834Y012391D01*
X015834Y012422D02*
X015962Y012422D01*
X015962Y012453D02*
X015834Y012453D01*
X015834Y012484D02*
X015962Y012484D01*
X015962Y012515D02*
X015834Y012515D01*
X016159Y012542D02*
X016159Y012174D01*
X016031Y012174D01*
X016031Y012542D01*
X016159Y012542D01*
X016159Y012205D02*
X016031Y012205D01*
X016031Y012236D02*
X016159Y012236D01*
X016159Y012267D02*
X016031Y012267D01*
X016031Y012298D02*
X016159Y012298D01*
X016159Y012329D02*
X016031Y012329D01*
X016031Y012360D02*
X016159Y012360D01*
X016159Y012391D02*
X016031Y012391D01*
X016031Y012422D02*
X016159Y012422D01*
X016159Y012453D02*
X016031Y012453D01*
X016031Y012484D02*
X016159Y012484D01*
X016159Y012515D02*
X016031Y012515D01*
X016356Y012542D02*
X016356Y012174D01*
X016228Y012174D01*
X016228Y012542D01*
X016356Y012542D01*
X016356Y012205D02*
X016228Y012205D01*
X016228Y012236D02*
X016356Y012236D01*
X016356Y012267D02*
X016228Y012267D01*
X016228Y012298D02*
X016356Y012298D01*
X016356Y012329D02*
X016228Y012329D01*
X016228Y012360D02*
X016356Y012360D01*
X016356Y012391D02*
X016228Y012391D01*
X016228Y012422D02*
X016356Y012422D01*
X016356Y012453D02*
X016228Y012453D01*
X016228Y012484D02*
X016356Y012484D01*
X016356Y012515D02*
X016228Y012515D01*
X016553Y012542D02*
X016553Y012174D01*
X016425Y012174D01*
X016425Y012542D01*
X016553Y012542D01*
X016553Y012205D02*
X016425Y012205D01*
X016425Y012236D02*
X016553Y012236D01*
X016553Y012267D02*
X016425Y012267D01*
X016425Y012298D02*
X016553Y012298D01*
X016553Y012329D02*
X016425Y012329D01*
X016425Y012360D02*
X016553Y012360D01*
X016553Y012391D02*
X016425Y012391D01*
X016425Y012422D02*
X016553Y012422D01*
X016553Y012453D02*
X016425Y012453D01*
X016425Y012484D02*
X016553Y012484D01*
X016553Y012515D02*
X016425Y012515D01*
X016749Y012542D02*
X016749Y012174D01*
X016621Y012174D01*
X016621Y012542D01*
X016749Y012542D01*
X016749Y012205D02*
X016621Y012205D01*
X016621Y012236D02*
X016749Y012236D01*
X016749Y012267D02*
X016621Y012267D01*
X016621Y012298D02*
X016749Y012298D01*
X016749Y012329D02*
X016621Y012329D01*
X016621Y012360D02*
X016749Y012360D01*
X016749Y012391D02*
X016621Y012391D01*
X016621Y012422D02*
X016749Y012422D01*
X016749Y012453D02*
X016621Y012453D01*
X016621Y012484D02*
X016749Y012484D01*
X016749Y012515D02*
X016621Y012515D01*
X016872Y011924D02*
X017240Y011924D01*
X016872Y011924D02*
X016872Y012052D01*
X017240Y012052D01*
X017240Y011924D01*
X017240Y011955D02*
X016872Y011955D01*
X016872Y011986D02*
X017240Y011986D01*
X017240Y012017D02*
X016872Y012017D01*
X016872Y012048D02*
X017240Y012048D01*
X017240Y011727D02*
X016872Y011727D01*
X016872Y011855D01*
X017240Y011855D01*
X017240Y011727D01*
X017240Y011758D02*
X016872Y011758D01*
X016872Y011789D02*
X017240Y011789D01*
X017240Y011820D02*
X016872Y011820D01*
X016872Y011851D02*
X017240Y011851D01*
X017240Y011530D02*
X016872Y011530D01*
X016872Y011658D01*
X017240Y011658D01*
X017240Y011530D01*
X017240Y011561D02*
X016872Y011561D01*
X016872Y011592D02*
X017240Y011592D01*
X017240Y011623D02*
X016872Y011623D01*
X016872Y011654D02*
X017240Y011654D01*
X017240Y011334D02*
X016872Y011334D01*
X016872Y011462D01*
X017240Y011462D01*
X017240Y011334D01*
X017240Y011365D02*
X016872Y011365D01*
X016872Y011396D02*
X017240Y011396D01*
X017240Y011427D02*
X016872Y011427D01*
X016872Y011458D02*
X017240Y011458D01*
X017240Y011137D02*
X016872Y011137D01*
X016872Y011265D01*
X017240Y011265D01*
X017240Y011137D01*
X017240Y011168D02*
X016872Y011168D01*
X016872Y011199D02*
X017240Y011199D01*
X017240Y011230D02*
X016872Y011230D01*
X016872Y011261D02*
X017240Y011261D01*
X017240Y010940D02*
X016872Y010940D01*
X016872Y011068D01*
X017240Y011068D01*
X017240Y010940D01*
X017240Y010971D02*
X016872Y010971D01*
X016872Y011002D02*
X017240Y011002D01*
X017240Y011033D02*
X016872Y011033D01*
X016872Y011064D02*
X017240Y011064D01*
X017240Y010743D02*
X016872Y010743D01*
X016872Y010871D01*
X017240Y010871D01*
X017240Y010743D01*
X017240Y010774D02*
X016872Y010774D01*
X016872Y010805D02*
X017240Y010805D01*
X017240Y010836D02*
X016872Y010836D01*
X016872Y010867D02*
X017240Y010867D01*
X017240Y010546D02*
X016872Y010546D01*
X016872Y010674D01*
X017240Y010674D01*
X017240Y010546D01*
X017240Y010577D02*
X016872Y010577D01*
X016872Y010608D02*
X017240Y010608D01*
X017240Y010639D02*
X016872Y010639D01*
X016872Y010670D02*
X017240Y010670D01*
X017240Y010349D02*
X016872Y010349D01*
X016872Y010477D01*
X017240Y010477D01*
X017240Y010349D01*
X017240Y010380D02*
X016872Y010380D01*
X016872Y010411D02*
X017240Y010411D01*
X017240Y010442D02*
X016872Y010442D01*
X016872Y010473D02*
X017240Y010473D01*
X017240Y010153D02*
X016872Y010153D01*
X016872Y010281D01*
X017240Y010281D01*
X017240Y010153D01*
X017240Y010184D02*
X016872Y010184D01*
X016872Y010215D02*
X017240Y010215D01*
X017240Y010246D02*
X016872Y010246D01*
X016872Y010277D02*
X017240Y010277D01*
X017240Y009956D02*
X016872Y009956D01*
X016872Y010084D01*
X017240Y010084D01*
X017240Y009956D01*
X017240Y009987D02*
X016872Y009987D01*
X016872Y010018D02*
X017240Y010018D01*
X017240Y010049D02*
X016872Y010049D01*
X016872Y010080D02*
X017240Y010080D01*
X016749Y009833D02*
X016749Y009465D01*
X016621Y009465D01*
X016621Y009833D01*
X016749Y009833D01*
X016749Y009496D02*
X016621Y009496D01*
X016621Y009527D02*
X016749Y009527D01*
X016749Y009558D02*
X016621Y009558D01*
X016621Y009589D02*
X016749Y009589D01*
X016749Y009620D02*
X016621Y009620D01*
X016621Y009651D02*
X016749Y009651D01*
X016749Y009682D02*
X016621Y009682D01*
X016621Y009713D02*
X016749Y009713D01*
X016749Y009744D02*
X016621Y009744D01*
X016621Y009775D02*
X016749Y009775D01*
X016749Y009806D02*
X016621Y009806D01*
X016553Y009833D02*
X016553Y009465D01*
X016425Y009465D01*
X016425Y009833D01*
X016553Y009833D01*
X016553Y009496D02*
X016425Y009496D01*
X016425Y009527D02*
X016553Y009527D01*
X016553Y009558D02*
X016425Y009558D01*
X016425Y009589D02*
X016553Y009589D01*
X016553Y009620D02*
X016425Y009620D01*
X016425Y009651D02*
X016553Y009651D01*
X016553Y009682D02*
X016425Y009682D01*
X016425Y009713D02*
X016553Y009713D01*
X016553Y009744D02*
X016425Y009744D01*
X016425Y009775D02*
X016553Y009775D01*
X016553Y009806D02*
X016425Y009806D01*
X016356Y009833D02*
X016356Y009465D01*
X016228Y009465D01*
X016228Y009833D01*
X016356Y009833D01*
X016356Y009496D02*
X016228Y009496D01*
X016228Y009527D02*
X016356Y009527D01*
X016356Y009558D02*
X016228Y009558D01*
X016228Y009589D02*
X016356Y009589D01*
X016356Y009620D02*
X016228Y009620D01*
X016228Y009651D02*
X016356Y009651D01*
X016356Y009682D02*
X016228Y009682D01*
X016228Y009713D02*
X016356Y009713D01*
X016356Y009744D02*
X016228Y009744D01*
X016228Y009775D02*
X016356Y009775D01*
X016356Y009806D02*
X016228Y009806D01*
X016159Y009833D02*
X016159Y009465D01*
X016031Y009465D01*
X016031Y009833D01*
X016159Y009833D01*
X016159Y009496D02*
X016031Y009496D01*
X016031Y009527D02*
X016159Y009527D01*
X016159Y009558D02*
X016031Y009558D01*
X016031Y009589D02*
X016159Y009589D01*
X016159Y009620D02*
X016031Y009620D01*
X016031Y009651D02*
X016159Y009651D01*
X016159Y009682D02*
X016031Y009682D01*
X016031Y009713D02*
X016159Y009713D01*
X016159Y009744D02*
X016031Y009744D01*
X016031Y009775D02*
X016159Y009775D01*
X016159Y009806D02*
X016031Y009806D01*
X015962Y009833D02*
X015962Y009465D01*
X015834Y009465D01*
X015834Y009833D01*
X015962Y009833D01*
X015962Y009496D02*
X015834Y009496D01*
X015834Y009527D02*
X015962Y009527D01*
X015962Y009558D02*
X015834Y009558D01*
X015834Y009589D02*
X015962Y009589D01*
X015962Y009620D02*
X015834Y009620D01*
X015834Y009651D02*
X015962Y009651D01*
X015962Y009682D02*
X015834Y009682D01*
X015834Y009713D02*
X015962Y009713D01*
X015962Y009744D02*
X015834Y009744D01*
X015834Y009775D02*
X015962Y009775D01*
X015962Y009806D02*
X015834Y009806D01*
X015765Y009833D02*
X015765Y009465D01*
X015637Y009465D01*
X015637Y009833D01*
X015765Y009833D01*
X015765Y009496D02*
X015637Y009496D01*
X015637Y009527D02*
X015765Y009527D01*
X015765Y009558D02*
X015637Y009558D01*
X015637Y009589D02*
X015765Y009589D01*
X015765Y009620D02*
X015637Y009620D01*
X015637Y009651D02*
X015765Y009651D01*
X015765Y009682D02*
X015637Y009682D01*
X015637Y009713D02*
X015765Y009713D01*
X015765Y009744D02*
X015637Y009744D01*
X015637Y009775D02*
X015765Y009775D01*
X015765Y009806D02*
X015637Y009806D01*
X015568Y009833D02*
X015568Y009465D01*
X015440Y009465D01*
X015440Y009833D01*
X015568Y009833D01*
X015568Y009496D02*
X015440Y009496D01*
X015440Y009527D02*
X015568Y009527D01*
X015568Y009558D02*
X015440Y009558D01*
X015440Y009589D02*
X015568Y009589D01*
X015568Y009620D02*
X015440Y009620D01*
X015440Y009651D02*
X015568Y009651D01*
X015568Y009682D02*
X015440Y009682D01*
X015440Y009713D02*
X015568Y009713D01*
X015568Y009744D02*
X015440Y009744D01*
X015440Y009775D02*
X015568Y009775D01*
X015568Y009806D02*
X015440Y009806D01*
X015371Y009833D02*
X015371Y009465D01*
X015243Y009465D01*
X015243Y009833D01*
X015371Y009833D01*
X015371Y009496D02*
X015243Y009496D01*
X015243Y009527D02*
X015371Y009527D01*
X015371Y009558D02*
X015243Y009558D01*
X015243Y009589D02*
X015371Y009589D01*
X015371Y009620D02*
X015243Y009620D01*
X015243Y009651D02*
X015371Y009651D01*
X015371Y009682D02*
X015243Y009682D01*
X015243Y009713D02*
X015371Y009713D01*
X015371Y009744D02*
X015243Y009744D01*
X015243Y009775D02*
X015371Y009775D01*
X015371Y009806D02*
X015243Y009806D01*
X015175Y009833D02*
X015175Y009465D01*
X015047Y009465D01*
X015047Y009833D01*
X015175Y009833D01*
X015175Y009496D02*
X015047Y009496D01*
X015047Y009527D02*
X015175Y009527D01*
X015175Y009558D02*
X015047Y009558D01*
X015047Y009589D02*
X015175Y009589D01*
X015175Y009620D02*
X015047Y009620D01*
X015047Y009651D02*
X015175Y009651D01*
X015175Y009682D02*
X015047Y009682D01*
X015047Y009713D02*
X015175Y009713D01*
X015175Y009744D02*
X015047Y009744D01*
X015047Y009775D02*
X015175Y009775D01*
X015175Y009806D02*
X015047Y009806D01*
X014978Y009833D02*
X014978Y009465D01*
X014850Y009465D01*
X014850Y009833D01*
X014978Y009833D01*
X014978Y009496D02*
X014850Y009496D01*
X014850Y009527D02*
X014978Y009527D01*
X014978Y009558D02*
X014850Y009558D01*
X014850Y009589D02*
X014978Y009589D01*
X014978Y009620D02*
X014850Y009620D01*
X014850Y009651D02*
X014978Y009651D01*
X014978Y009682D02*
X014850Y009682D01*
X014850Y009713D02*
X014978Y009713D01*
X014978Y009744D02*
X014850Y009744D01*
X014850Y009775D02*
X014978Y009775D01*
X014978Y009806D02*
X014850Y009806D01*
X014781Y009833D02*
X014781Y009465D01*
X014653Y009465D01*
X014653Y009833D01*
X014781Y009833D01*
X014781Y009496D02*
X014653Y009496D01*
X014653Y009527D02*
X014781Y009527D01*
X014781Y009558D02*
X014653Y009558D01*
X014653Y009589D02*
X014781Y009589D01*
X014781Y009620D02*
X014653Y009620D01*
X014653Y009651D02*
X014781Y009651D01*
X014781Y009682D02*
X014653Y009682D01*
X014653Y009713D02*
X014781Y009713D01*
X014781Y009744D02*
X014653Y009744D01*
X014653Y009775D02*
X014781Y009775D01*
X014781Y009806D02*
X014653Y009806D01*
D11*
X015701Y011004D03*
D12*
X020601Y016704D02*
X020601Y017304D01*
X021601Y017304D02*
X021601Y016704D01*
X022601Y016704D02*
X022601Y017304D01*
X006201Y019204D02*
X006201Y019804D01*
X005201Y019804D02*
X005201Y019204D01*
X004201Y019204D02*
X004201Y019804D01*
D13*
X004264Y011433D03*
X006233Y009465D03*
X004264Y007496D03*
D14*
X004264Y009465D03*
D15*
X006233Y010409D03*
X006233Y011472D03*
X006233Y008520D03*
X006233Y007457D03*
D16*
X018701Y010504D03*
X018701Y011504D03*
D17*
X019327Y012504D03*
X020075Y012504D03*
X020075Y009504D03*
X019327Y009504D03*
X009575Y010004D03*
X008827Y010004D03*
X008827Y012004D03*
X009575Y012004D03*
X009575Y004004D03*
X008827Y004004D03*
D18*
X018192Y004222D03*
X018192Y005341D03*
D19*
X020701Y006335D03*
X020701Y007673D03*
D20*
X021701Y007378D03*
X021701Y006630D03*
X019192Y005092D03*
X019192Y004344D03*
X013701Y006630D03*
X013701Y007378D03*
X013701Y014630D03*
X013701Y015378D03*
X016701Y015378D03*
X016701Y014630D03*
D21*
X015701Y014630D03*
X015701Y015378D03*
X014701Y015378D03*
X014701Y014630D03*
X017701Y014630D03*
X017701Y015378D03*
X018701Y015378D03*
X018701Y014630D03*
X016701Y007378D03*
X015701Y007378D03*
X015701Y006630D03*
X016701Y006630D03*
X014701Y006630D03*
X014701Y007378D03*
D22*
X009575Y008004D03*
X008827Y008004D03*
X008827Y006004D03*
X009575Y006004D03*
X009575Y014004D03*
X008827Y014004D03*
X008827Y016004D03*
X009575Y016004D03*
X009575Y018004D03*
X008827Y018004D03*
D23*
X012301Y020504D03*
X013301Y020504D03*
X014301Y020504D03*
X015301Y020504D03*
X016301Y020504D03*
X017301Y020504D03*
X018301Y020504D03*
X019301Y020504D03*
X020851Y020504D03*
X021851Y020504D03*
X022851Y020504D03*
X023851Y020504D03*
X024851Y020504D03*
X025851Y020504D03*
X026851Y020504D03*
X027851Y020504D03*
X027901Y001504D03*
X026901Y001504D03*
X025901Y001504D03*
X024901Y001504D03*
X023901Y001504D03*
X022901Y001504D03*
X020901Y001504D03*
X019901Y001504D03*
X018901Y001504D03*
X017901Y001504D03*
X016901Y001504D03*
X015901Y001504D03*
D24*
X017827Y006571D03*
X018575Y006571D03*
X018201Y007437D03*
D25*
X004301Y002204D03*
X006101Y002204D03*
X006101Y004804D03*
X004301Y004804D03*
D26*
X015901Y002504D03*
X016901Y002504D03*
X017901Y002504D03*
X018901Y002504D03*
X019901Y002504D03*
X020901Y002504D03*
X022901Y002504D03*
X023901Y002504D03*
X024901Y002504D03*
X025901Y002504D03*
X026901Y002504D03*
X027901Y002504D03*
X027901Y003504D03*
X026901Y003504D03*
X025901Y003504D03*
X024901Y003504D03*
X023901Y003504D03*
X022901Y003504D03*
X022901Y004504D03*
X023901Y004504D03*
X024901Y004504D03*
X025901Y004504D03*
X026901Y004504D03*
X027901Y004504D03*
X027701Y005754D03*
X028701Y005754D03*
X026701Y005754D03*
X025701Y005754D03*
X024701Y005754D03*
X023701Y005754D03*
X023701Y015504D03*
X024701Y015504D03*
X025701Y015504D03*
X026701Y015504D03*
X027701Y015504D03*
X028701Y015504D03*
D27*
X027851Y018404D03*
X026851Y018404D03*
X025851Y018404D03*
X024851Y018404D03*
X023851Y018404D03*
X022851Y018404D03*
X021851Y018404D03*
X020851Y018404D03*
X020851Y019404D03*
X021851Y019404D03*
X022851Y019404D03*
X023851Y019404D03*
X024851Y019404D03*
X025851Y019404D03*
X026851Y019404D03*
X027851Y019404D03*
X019301Y019404D03*
X018301Y019404D03*
X017301Y019404D03*
X016301Y019404D03*
X015301Y019404D03*
X014301Y019404D03*
X013301Y019404D03*
X012301Y019404D03*
X012301Y018404D03*
X013301Y018404D03*
X014301Y018404D03*
X015301Y018404D03*
X016301Y018404D03*
X017301Y018404D03*
X018301Y018404D03*
X019301Y018404D03*
D28*
X017239Y016792D03*
X015256Y016415D03*
X014201Y013604D03*
X012501Y013604D03*
X011001Y011793D03*
X011001Y010804D03*
X011801Y010104D03*
X012501Y009204D03*
X013201Y010304D03*
X015701Y008504D03*
X012201Y007504D03*
X011001Y007104D03*
X017859Y011932D03*
X017701Y012504D03*
X017301Y013404D03*
X016201Y013404D03*
X018980Y013439D03*
X019401Y016304D03*
X019601Y007004D03*
X020701Y004407D03*
M02*
