%
M48
M72
T01C0.0236
T02C0.0315
T03C0.0320
T04C0.0394
T05C0.0400
T06C0.0591
%
T01
X11001Y7104
X12201Y7504
X12501Y9204
X11801Y10104
X11001Y10804
X11001Y11793
X13201Y10304
X15701Y8504
X19601Y7004
X20701Y4407
X17859Y11932
X17701Y12504
X17301Y13404
X16201Y13404
X14201Y13604
X12501Y13604
X15256Y16415
X17239Y16792
X19401Y16304
X18980Y13439
T02
X23701Y15504
X24701Y15504
X25701Y15504
X26701Y15504
X27701Y15504
X28701Y15504
X27851Y18404
X26851Y18404
X25851Y18404
X24851Y18404
X23851Y18404
X22851Y18404
X21851Y18404
X20851Y18404
X20851Y19404
X21851Y19404
X22851Y19404
X23851Y19404
X24851Y19404
X25851Y19404
X26851Y19404
X27851Y19404
X19301Y19404
X18301Y19404
X17301Y19404
X16301Y19404
X15301Y19404
X14301Y19404
X13301Y19404
X12301Y19404
X12301Y18404
X13301Y18404
X14301Y18404
X15301Y18404
X16301Y18404
X17301Y18404
X18301Y18404
X19301Y18404
X23701Y5754
X24701Y5754
X25701Y5754
X26701Y5754
X27701Y5754
X28701Y5754
X27901Y4504
X26901Y4504
X25901Y4504
X24901Y4504
X23901Y4504
X22901Y4504
X22901Y3504
X23901Y3504
X24901Y3504
X25901Y3504
X26901Y3504
X27901Y3504
X27901Y2504
X26901Y2504
X25901Y2504
X24901Y2504
X23901Y2504
X22901Y2504
X20901Y2504
X19901Y2504
X18901Y2504
X17901Y2504
X16901Y2504
X15901Y2504
T03
X18701Y10504
X18701Y11504
T04
X18301Y20504
X17301Y20504
X16301Y20504
X15301Y20504
X14301Y20504
X13301Y20504
X12301Y20504
X19301Y20504
X20851Y20504
X21851Y20504
X22851Y20504
X23851Y20504
X24851Y20504
X25851Y20504
X26851Y20504
X27851Y20504
X27901Y1504
X26901Y1504
X25901Y1504
X24901Y1504
X23901Y1504
X22901Y1504
X20901Y1504
X19901Y1504
X18901Y1504
X17901Y1504
X16901Y1504
X15901Y1504
T05
X20601Y17004
X21601Y17004
X22601Y17004
X6201Y19504
X5201Y19504
X4201Y19504
T06
X4264Y7496
X6233Y7457
X6233Y8520
X6233Y9465
X6233Y10409
X6233Y11472
X4264Y11433
X4264Y9465
M30
