G75*
G70*
%OFA0B0*%
%FSLAX24Y24*%
%IPPOS*%
%LPD*%
%AMOC8*
5,1,8,0,0,1.08239X$1,22.5*
%
%ADD10C,0.0600*%
%ADD11C,0.1000*%
%ADD12C,0.0886*%
%ADD13C,0.0520*%
%ADD14OC8,0.0660*%
%ADD15OC8,0.0560*%
%ADD16OC8,0.0515*%
%ADD17C,0.0396*%
%ADD18C,0.0160*%
%ADD19C,0.0120*%
D10*
X020601Y016704D02*
X020601Y017304D01*
X021601Y017304D02*
X021601Y016704D01*
X022601Y016704D02*
X022601Y017304D01*
X006201Y019204D02*
X006201Y019804D01*
X005201Y019804D02*
X005201Y019204D01*
X004201Y019204D02*
X004201Y019804D01*
D11*
X004264Y009465D03*
D12*
X006233Y010409D03*
X006233Y011472D03*
X006233Y008520D03*
X006233Y007457D03*
D13*
X018701Y010504D03*
X018701Y011504D03*
D14*
X018301Y020504D03*
X017301Y020504D03*
X016301Y020504D03*
X015301Y020504D03*
X014301Y020504D03*
X013301Y020504D03*
X012301Y020504D03*
X019301Y020504D03*
X020851Y020504D03*
X021851Y020504D03*
X022851Y020504D03*
X023851Y020504D03*
X024851Y020504D03*
X025851Y020504D03*
X026851Y020504D03*
X027851Y020504D03*
X027901Y001504D03*
X026901Y001504D03*
X025901Y001504D03*
X024901Y001504D03*
X023901Y001504D03*
X022901Y001504D03*
X020901Y001504D03*
X019901Y001504D03*
X018901Y001504D03*
X017901Y001504D03*
X016901Y001504D03*
X015901Y001504D03*
D15*
X015901Y002504D03*
X016901Y002504D03*
X017901Y002504D03*
X018901Y002504D03*
X019901Y002504D03*
X020901Y002504D03*
X022901Y002504D03*
X023901Y002504D03*
X024901Y002504D03*
X025901Y002504D03*
X026901Y002504D03*
X027901Y002504D03*
X027901Y003504D03*
X026901Y003504D03*
X025901Y003504D03*
X024901Y003504D03*
X023901Y003504D03*
X022901Y003504D03*
X022901Y004504D03*
X023901Y004504D03*
X024901Y004504D03*
X025901Y004504D03*
X026901Y004504D03*
X027901Y004504D03*
X027701Y005754D03*
X028701Y005754D03*
X026701Y005754D03*
X025701Y005754D03*
X024701Y005754D03*
X023701Y005754D03*
X023701Y015504D03*
X024701Y015504D03*
X025701Y015504D03*
X026701Y015504D03*
X027701Y015504D03*
X028701Y015504D03*
D16*
X027851Y018404D03*
X026851Y018404D03*
X025851Y018404D03*
X024851Y018404D03*
X023851Y018404D03*
X022851Y018404D03*
X021851Y018404D03*
X020851Y018404D03*
X020851Y019404D03*
X021851Y019404D03*
X022851Y019404D03*
X023851Y019404D03*
X024851Y019404D03*
X025851Y019404D03*
X026851Y019404D03*
X027851Y019404D03*
X019301Y019404D03*
X018301Y019404D03*
X017301Y019404D03*
X016301Y019404D03*
X015301Y019404D03*
X014301Y019404D03*
X013301Y019404D03*
X012301Y019404D03*
X012301Y018404D03*
X013301Y018404D03*
X014301Y018404D03*
X015301Y018404D03*
X016301Y018404D03*
X017301Y018404D03*
X018301Y018404D03*
X019301Y018404D03*
D17*
X017239Y016792D03*
X015256Y016415D03*
X014201Y013604D03*
X012501Y013604D03*
X011001Y011793D03*
X011001Y010804D03*
X011801Y010104D03*
X012501Y009204D03*
X013201Y010304D03*
X015701Y008504D03*
X012201Y007504D03*
X011001Y007104D03*
X017859Y011932D03*
X017701Y012504D03*
X017301Y013404D03*
X016201Y013404D03*
X018980Y013439D03*
X019401Y016304D03*
X019601Y007004D03*
X020701Y004407D03*
D18*
X020701Y004004D01*
X016383Y004004D01*
X015898Y003504D01*
X015898Y002504D01*
X015901Y002504D01*
X015901Y001504D01*
X016901Y001504D02*
X016901Y002504D01*
X017901Y002504D02*
X017901Y001504D01*
X018385Y002020D01*
X021685Y002020D01*
X021951Y002254D01*
X021951Y002754D01*
X022701Y003504D01*
X022901Y003504D01*
X023901Y003504D01*
X024901Y003504D01*
X025901Y003504D01*
X026901Y003504D01*
X027901Y003504D01*
X027901Y004504D02*
X026901Y004504D01*
X025901Y004504D01*
X024901Y004504D01*
X023901Y004504D01*
X023951Y004554D01*
X023901Y004504D02*
X022901Y004504D01*
X022201Y004504D01*
X021907Y004209D01*
X021907Y003344D01*
X021772Y003210D01*
X020401Y003204D01*
X019901Y002704D01*
X019901Y002504D01*
X019601Y007004D02*
X028701Y007004D01*
X028701Y015504D01*
X028201Y016004D01*
X028201Y018054D01*
X027851Y018404D01*
X027951Y018304D01*
X027901Y018354D02*
X027851Y018404D01*
X026851Y018404D01*
X025851Y018404D01*
X024851Y018404D01*
X023851Y018404D01*
X022851Y018404D01*
X021851Y018404D01*
X020851Y018404D01*
X019301Y018404D01*
X019301Y016404D01*
X019401Y016304D01*
X019201Y016104D01*
X019201Y014504D01*
X018701Y014004D01*
X015701Y014004D01*
X013201Y011504D01*
X013201Y010304D01*
X011801Y010104D02*
X011801Y008504D01*
X014601Y008504D01*
X015601Y009504D01*
X015601Y011004D01*
X017301Y012704D01*
X017301Y013404D01*
X016201Y013404D01*
X017701Y012504D02*
X016201Y011004D01*
X016201Y009504D01*
X015701Y009004D01*
X015701Y008504D01*
X012501Y009204D02*
X012501Y013604D01*
X014201Y013604D02*
X014213Y016427D01*
X015001Y016415D01*
X015256Y016415D01*
X017239Y016792D02*
X011401Y016804D01*
X011001Y015904D01*
X011001Y011793D01*
X011001Y010804D02*
X011001Y007104D01*
X011801Y007904D02*
X012201Y007504D01*
X011801Y007904D02*
X011801Y008504D01*
X017859Y011932D02*
X018192Y011932D01*
X018654Y012394D01*
X018654Y013113D01*
X018980Y013439D01*
X019301Y018404D02*
X018301Y018404D01*
X017301Y018404D01*
X016301Y018404D01*
X015301Y018404D01*
X014301Y018404D01*
X013301Y018404D01*
X013301Y019404D01*
X013301Y020504D01*
X013301Y018404D02*
X012301Y018404D01*
X028701Y007004D02*
X028701Y005754D01*
X028701Y004504D01*
X027901Y004504D01*
D19*
X003201Y005504D02*
X003201Y001004D01*
X015623Y001004D01*
X015351Y001276D01*
X015351Y001732D01*
X015601Y001982D01*
X015601Y002097D01*
X015401Y002297D01*
X015401Y002711D01*
X015598Y002908D01*
X015598Y003502D01*
X015597Y003559D01*
X015598Y003561D01*
X015598Y003564D01*
X015621Y003617D01*
X015641Y003670D01*
X015643Y003672D01*
X015644Y003674D01*
X015685Y003715D01*
X016127Y004172D01*
X016128Y004174D01*
X016169Y004214D01*
X016209Y004255D01*
X016211Y004256D01*
X016213Y004258D01*
X016266Y004280D01*
X016318Y004303D01*
X016321Y004303D01*
X016323Y004304D01*
X016380Y004304D01*
X016437Y004305D01*
X016440Y004304D01*
X020291Y004304D01*
X020283Y004324D01*
X020283Y004491D01*
X020347Y004644D01*
X020464Y004762D01*
X020618Y004826D01*
X020784Y004826D01*
X020938Y004762D01*
X021056Y004644D01*
X021119Y004491D01*
X021119Y004324D01*
X021056Y004171D01*
X021001Y004116D01*
X021001Y004064D01*
X021001Y003944D01*
X020955Y003834D01*
X020871Y003750D01*
X020761Y003704D01*
X022401Y003704D01*
X022401Y003711D02*
X022401Y003628D01*
X021781Y003008D01*
X021697Y002924D01*
X021651Y002814D01*
X021651Y002389D01*
X021572Y002320D01*
X021401Y002320D01*
X021401Y002711D01*
X021108Y003004D01*
X020694Y003004D01*
X020401Y002711D01*
X020401Y002320D01*
X020339Y002320D01*
X020341Y002322D01*
X020341Y002485D01*
X019920Y002485D01*
X019920Y002523D01*
X019882Y002523D01*
X019882Y002944D01*
X019719Y002944D01*
X019461Y002686D01*
X019461Y002523D01*
X019882Y002523D01*
X019882Y002485D01*
X019461Y002485D01*
X019461Y002322D01*
X019463Y002320D01*
X019339Y002320D01*
X019341Y002322D01*
X019341Y002485D01*
X018920Y002485D01*
X018920Y002523D01*
X018882Y002523D01*
X018882Y002944D01*
X018719Y002944D01*
X018461Y002686D01*
X018461Y002523D01*
X018882Y002523D01*
X018882Y002485D01*
X018461Y002485D01*
X018461Y002322D01*
X018463Y002320D01*
X018440Y002320D01*
X018436Y002321D01*
X018401Y002320D01*
X018401Y002711D01*
X018108Y003004D01*
X017694Y003004D01*
X017401Y002711D01*
X017108Y003004D01*
X016694Y003004D01*
X016401Y002711D01*
X016198Y002914D01*
X016198Y003382D01*
X016510Y003704D01*
X020761Y003704D01*
X020701Y003704D02*
X020701Y003004D01*
X020594Y002904D02*
X020123Y002904D01*
X020083Y002944D02*
X020341Y002686D01*
X020341Y002523D01*
X019920Y002523D01*
X019920Y002944D01*
X020083Y002944D01*
X019920Y002904D02*
X019882Y002904D01*
X019679Y002904D02*
X019123Y002904D01*
X019101Y002926D02*
X019101Y003704D01*
X018701Y003704D02*
X018701Y002926D01*
X018679Y002904D02*
X018208Y002904D01*
X018301Y002811D02*
X018301Y003704D01*
X017901Y003704D02*
X017901Y003004D01*
X017594Y002904D02*
X017208Y002904D01*
X017101Y003004D02*
X017101Y003704D01*
X016701Y003704D02*
X016701Y003004D01*
X016594Y002904D02*
X016208Y002904D01*
X016301Y002811D02*
X016301Y003489D01*
X016198Y003304D02*
X022077Y003304D01*
X021901Y003128D02*
X021901Y016269D01*
X021896Y016263D02*
X022042Y016409D01*
X022101Y016552D01*
X022160Y016409D01*
X022307Y016263D01*
X022498Y016184D01*
X022705Y016184D01*
X022896Y016263D01*
X023042Y016409D01*
X023121Y016600D01*
X023121Y017407D01*
X023042Y017598D01*
X022896Y017745D01*
X022705Y017824D01*
X022498Y017824D01*
X022307Y017745D01*
X022160Y017598D01*
X022101Y017456D01*
X022042Y017598D01*
X021896Y017745D01*
X021705Y017824D01*
X021498Y017824D01*
X021307Y017745D01*
X021160Y017598D01*
X021101Y017456D01*
X021101Y018064D01*
X021141Y018104D02*
X021561Y018104D01*
X021501Y018164D02*
X021501Y017824D01*
X021678Y017986D02*
X021832Y017986D01*
X021832Y018385D01*
X021434Y018385D01*
X021434Y018231D01*
X021678Y017986D01*
X021870Y017986D02*
X022024Y017986D01*
X022269Y018231D01*
X022269Y018385D01*
X021870Y018385D01*
X021870Y018423D01*
X021832Y018423D01*
X021832Y018821D01*
X021678Y018821D01*
X021434Y018577D01*
X021434Y018423D01*
X021832Y018423D01*
X021832Y018385D01*
X021870Y018385D01*
X021870Y017986D01*
X021901Y017986D02*
X021901Y017739D01*
X021936Y017704D02*
X022266Y017704D01*
X022301Y017739D02*
X022301Y019179D01*
X022329Y019206D02*
X022049Y018926D01*
X021653Y018926D01*
X021374Y019206D01*
X021374Y019602D01*
X021653Y019881D01*
X022049Y019881D01*
X022329Y019602D01*
X022329Y019206D01*
X022374Y019206D02*
X022653Y018926D01*
X023049Y018926D01*
X023329Y019206D01*
X023329Y019602D01*
X023049Y019881D01*
X022653Y019881D01*
X022374Y019602D01*
X022374Y019206D01*
X022374Y019304D02*
X022329Y019304D01*
X022301Y019629D02*
X022301Y020176D01*
X022351Y020226D02*
X022623Y019954D01*
X023079Y019954D01*
X023351Y020226D01*
X023623Y019954D01*
X024079Y019954D01*
X024351Y020226D01*
X024623Y019954D01*
X025079Y019954D01*
X025351Y020226D01*
X025623Y019954D01*
X026079Y019954D01*
X026351Y020226D01*
X026623Y019954D01*
X027079Y019954D01*
X027351Y020226D01*
X027623Y019954D01*
X028079Y019954D01*
X028201Y020076D01*
X028201Y019729D01*
X028049Y019881D01*
X027653Y019881D01*
X027374Y019602D01*
X027374Y019206D01*
X027653Y018926D01*
X028049Y018926D01*
X028201Y019079D01*
X028201Y018644D01*
X028024Y018821D01*
X027870Y018821D01*
X027870Y018423D01*
X027832Y018423D01*
X027832Y018821D01*
X027678Y018821D01*
X027434Y018577D01*
X027434Y018423D01*
X027832Y018423D01*
X027832Y018385D01*
X027434Y018385D01*
X027434Y018231D01*
X027678Y017986D01*
X027832Y017986D01*
X027832Y018385D01*
X027870Y018385D01*
X027870Y017986D01*
X028024Y017986D01*
X028201Y018164D01*
X028201Y004826D01*
X028083Y004944D01*
X027920Y004944D01*
X027920Y004523D01*
X027882Y004523D01*
X027882Y004944D01*
X027719Y004944D01*
X027461Y004686D01*
X027461Y004523D01*
X027882Y004523D01*
X027882Y004485D01*
X027461Y004485D01*
X027461Y004322D01*
X027719Y004064D01*
X027882Y004064D01*
X027882Y004485D01*
X027920Y004485D01*
X027920Y004064D01*
X028083Y004064D01*
X028201Y004182D01*
X028201Y003911D01*
X028108Y004004D01*
X027694Y004004D01*
X027494Y003804D01*
X027308Y003804D01*
X027108Y004004D01*
X026694Y004004D01*
X026494Y003804D01*
X026308Y003804D01*
X026108Y004004D01*
X025694Y004004D01*
X025494Y003804D01*
X025308Y003804D01*
X025108Y004004D01*
X024694Y004004D01*
X024494Y003804D01*
X024308Y003804D01*
X024108Y004004D01*
X023694Y004004D01*
X023494Y003804D01*
X023308Y003804D01*
X023108Y004004D01*
X022694Y004004D01*
X022401Y003711D01*
X022301Y003528D02*
X022301Y016269D01*
X022121Y016504D02*
X022081Y016504D01*
X021896Y016263D02*
X021705Y016184D01*
X021498Y016184D01*
X021307Y016263D01*
X021160Y016409D01*
X021101Y016552D01*
X021101Y004534D01*
X021114Y004504D02*
X022882Y004504D01*
X022882Y004523D02*
X022882Y004485D01*
X022461Y004485D01*
X022461Y004322D01*
X022719Y004064D01*
X022882Y004064D01*
X022882Y004485D01*
X022920Y004485D01*
X022920Y004523D01*
X022882Y004523D01*
X022882Y004944D01*
X022719Y004944D01*
X022461Y004686D01*
X022461Y004523D01*
X022882Y004523D01*
X022920Y004523D02*
X022920Y004944D01*
X023083Y004944D01*
X023341Y004686D01*
X023341Y004523D01*
X022920Y004523D01*
X022920Y004504D02*
X023882Y004504D01*
X023882Y004523D02*
X023882Y004485D01*
X023461Y004485D01*
X023461Y004322D01*
X023719Y004064D01*
X023882Y004064D01*
X023882Y004485D01*
X023920Y004485D01*
X023920Y004523D01*
X023882Y004523D01*
X023882Y004944D01*
X023719Y004944D01*
X023461Y004686D01*
X023461Y004523D01*
X023882Y004523D01*
X023901Y004523D02*
X023901Y005254D01*
X023908Y005254D02*
X024201Y005547D01*
X024201Y005961D01*
X023908Y006254D01*
X023494Y006254D01*
X023201Y005961D01*
X023201Y005547D01*
X023494Y005254D01*
X023908Y005254D01*
X023958Y005304D02*
X024444Y005304D01*
X024494Y005254D02*
X024908Y005254D01*
X025201Y005547D01*
X025201Y005961D01*
X024908Y006254D01*
X024494Y006254D01*
X024201Y005961D01*
X024201Y005547D01*
X024494Y005254D01*
X024701Y005254D02*
X024701Y004926D01*
X024719Y004944D02*
X024461Y004686D01*
X024461Y004523D01*
X024882Y004523D01*
X024882Y004944D01*
X024719Y004944D01*
X024679Y004904D02*
X024123Y004904D01*
X024083Y004944D02*
X023920Y004944D01*
X023920Y004523D01*
X024341Y004523D01*
X024341Y004686D01*
X024083Y004944D01*
X023920Y004904D02*
X023882Y004904D01*
X023679Y004904D02*
X023123Y004904D01*
X023101Y004926D02*
X023101Y016552D01*
X023081Y016504D02*
X028201Y016504D01*
X028201Y016904D02*
X023121Y016904D01*
X023121Y017304D02*
X028201Y017304D01*
X028201Y017704D02*
X022936Y017704D01*
X022701Y017824D02*
X022701Y017986D01*
X022678Y017986D02*
X022832Y017986D01*
X022832Y018385D01*
X022434Y018385D01*
X022434Y018231D01*
X022678Y017986D01*
X022561Y018104D02*
X022141Y018104D01*
X021870Y018104D02*
X021832Y018104D01*
X021901Y018385D02*
X021901Y018423D01*
X021870Y018423D02*
X022269Y018423D01*
X022269Y018577D01*
X022024Y018821D01*
X021870Y018821D01*
X021870Y018423D01*
X021870Y018504D02*
X021832Y018504D01*
X021501Y018423D02*
X021501Y018385D01*
X021434Y018504D02*
X021269Y018504D01*
X021269Y018577D02*
X021024Y018821D01*
X020870Y018821D01*
X020870Y018423D01*
X020832Y018423D01*
X020832Y018821D01*
X020678Y018821D01*
X020434Y018577D01*
X020434Y018423D01*
X020832Y018423D01*
X020832Y018385D01*
X020434Y018385D01*
X020434Y018231D01*
X020678Y017986D01*
X020832Y017986D01*
X020832Y018385D01*
X020870Y018385D01*
X020870Y018423D01*
X021269Y018423D01*
X021269Y018577D01*
X021269Y018385D02*
X020870Y018385D01*
X020870Y017986D01*
X021024Y017986D01*
X021269Y018231D01*
X021269Y018385D01*
X021101Y018385D02*
X021101Y018423D01*
X020870Y018504D02*
X020832Y018504D01*
X020701Y018423D02*
X020701Y018385D01*
X020434Y018504D02*
X019719Y018504D01*
X019719Y018577D02*
X019474Y018821D01*
X019320Y018821D01*
X019320Y018423D01*
X019282Y018423D01*
X019282Y018821D01*
X019128Y018821D01*
X018884Y018577D01*
X018884Y018423D01*
X019282Y018423D01*
X019282Y018385D01*
X018884Y018385D01*
X018884Y018231D01*
X019128Y017986D01*
X019282Y017986D01*
X019282Y018385D01*
X019320Y018385D01*
X019320Y018423D01*
X019719Y018423D01*
X019719Y018577D01*
X019719Y018385D02*
X019320Y018385D01*
X019320Y017986D01*
X019474Y017986D01*
X019719Y018231D01*
X019719Y018385D01*
X019501Y018385D02*
X019501Y018423D01*
X019320Y018504D02*
X019282Y018504D01*
X019101Y018423D02*
X019101Y018385D01*
X018884Y018504D02*
X018719Y018504D01*
X018719Y018577D02*
X018474Y018821D01*
X018320Y018821D01*
X018320Y018423D01*
X018282Y018423D01*
X018282Y018821D01*
X018128Y018821D01*
X017884Y018577D01*
X017884Y018423D01*
X018282Y018423D01*
X018282Y018385D01*
X017884Y018385D01*
X017884Y018231D01*
X018128Y017986D01*
X018282Y017986D01*
X018282Y018385D01*
X018320Y018385D01*
X018320Y018423D01*
X018719Y018423D01*
X018719Y018577D01*
X018701Y018594D02*
X018701Y019129D01*
X018779Y019206D02*
X018499Y018926D01*
X018103Y018926D01*
X017824Y019206D01*
X017824Y019602D01*
X018103Y019881D01*
X018499Y019881D01*
X018779Y019602D01*
X018779Y019206D01*
X018824Y019206D02*
X019103Y018926D01*
X019499Y018926D01*
X019779Y019206D01*
X019779Y019602D01*
X019499Y019881D01*
X019103Y019881D01*
X018824Y019602D01*
X018824Y019206D01*
X018824Y019304D02*
X018779Y019304D01*
X018701Y019679D02*
X018701Y020126D01*
X018679Y020104D02*
X018923Y020104D01*
X018801Y020226D02*
X019073Y019954D01*
X019529Y019954D01*
X019851Y020276D01*
X019851Y020732D01*
X019579Y021004D01*
X020573Y021004D01*
X020301Y020732D01*
X020301Y021004D01*
X020473Y020904D02*
X019679Y020904D01*
X019901Y021004D02*
X019901Y004304D01*
X020289Y004504D02*
X003201Y004504D01*
X003201Y004904D02*
X022679Y004904D01*
X022701Y004926D02*
X022701Y016184D01*
X023201Y015711D02*
X023201Y015297D01*
X023494Y015004D01*
X023908Y015004D01*
X024201Y015297D01*
X024494Y015004D01*
X024908Y015004D01*
X025201Y015297D01*
X025494Y015004D01*
X025908Y015004D01*
X026201Y015297D01*
X026494Y015004D01*
X026908Y015004D01*
X027201Y015297D01*
X027494Y015004D01*
X027908Y015004D01*
X028201Y015297D01*
X028201Y015711D01*
X027908Y016004D01*
X027494Y016004D01*
X027201Y015711D01*
X026908Y016004D01*
X026494Y016004D01*
X026201Y015711D01*
X025908Y016004D01*
X025494Y016004D01*
X025201Y015711D01*
X024908Y016004D01*
X024494Y016004D01*
X024201Y015711D01*
X023908Y016004D01*
X023494Y016004D01*
X023201Y015711D01*
X023201Y015704D02*
X016201Y015704D01*
X015701Y015704D02*
X011301Y015704D01*
X011301Y015840D02*
X011596Y016504D01*
X015701Y016496D01*
X015701Y015004D01*
X011301Y015004D01*
X011301Y015840D01*
X011418Y016104D02*
X015701Y016104D01*
X016201Y016104D02*
X028201Y016104D01*
X027901Y016004D02*
X027901Y017986D01*
X027870Y018104D02*
X027832Y018104D01*
X027561Y018104D02*
X027141Y018104D01*
X027101Y018064D02*
X027101Y015811D01*
X027201Y015711D02*
X027201Y015297D01*
X027201Y015711D01*
X027201Y015704D02*
X027201Y015704D01*
X027201Y015304D02*
X027201Y015304D01*
X027101Y015197D02*
X027101Y006061D01*
X027058Y006104D02*
X027344Y006104D01*
X027201Y005961D02*
X027494Y006254D01*
X027908Y006254D01*
X028201Y005961D01*
X028201Y005547D01*
X027908Y005254D01*
X027494Y005254D01*
X027201Y005547D01*
X026908Y005254D01*
X026494Y005254D01*
X026201Y005547D01*
X025908Y005254D01*
X025494Y005254D01*
X025201Y005547D01*
X025201Y005961D01*
X025494Y006254D01*
X025908Y006254D01*
X026201Y005961D01*
X026201Y005547D01*
X026201Y005961D01*
X026494Y006254D01*
X026908Y006254D01*
X027201Y005961D01*
X027201Y005547D01*
X027201Y005961D01*
X027201Y005704D02*
X027201Y005704D01*
X027101Y005447D02*
X027101Y004926D01*
X027083Y004944D02*
X026920Y004944D01*
X026920Y004523D01*
X026882Y004523D01*
X026882Y004944D01*
X026719Y004944D01*
X026461Y004686D01*
X026461Y004523D01*
X026882Y004523D01*
X026882Y004485D01*
X026461Y004485D01*
X026461Y004322D01*
X026719Y004064D01*
X026882Y004064D01*
X026882Y004485D01*
X026920Y004485D01*
X026920Y004523D01*
X027341Y004523D01*
X027341Y004686D01*
X027083Y004944D01*
X027123Y004904D02*
X027679Y004904D01*
X027882Y004904D02*
X027920Y004904D01*
X028123Y004904D02*
X028201Y004904D01*
X028201Y005304D02*
X027958Y005304D01*
X027901Y005254D02*
X027901Y004523D01*
X027882Y004504D02*
X026920Y004504D01*
X026920Y004485D02*
X027341Y004485D01*
X027341Y004322D01*
X027083Y004064D01*
X026920Y004064D01*
X026920Y004485D01*
X026882Y004504D02*
X025920Y004504D01*
X025920Y004523D02*
X026341Y004523D01*
X026341Y004686D01*
X026083Y004944D01*
X025920Y004944D01*
X025920Y004523D01*
X025882Y004523D01*
X025882Y004944D01*
X025719Y004944D01*
X025461Y004686D01*
X025461Y004523D01*
X025882Y004523D01*
X025882Y004485D01*
X025461Y004485D01*
X025461Y004322D01*
X025719Y004064D01*
X025882Y004064D01*
X025882Y004485D01*
X025920Y004485D01*
X025920Y004523D01*
X025901Y004523D02*
X025901Y005254D01*
X025958Y005304D02*
X026444Y005304D01*
X026301Y005447D02*
X026301Y004726D01*
X026301Y004523D02*
X026301Y004485D01*
X026341Y004485D02*
X025920Y004485D01*
X025920Y004064D01*
X026083Y004064D01*
X026341Y004322D01*
X026341Y004485D01*
X026301Y004282D02*
X026301Y003811D01*
X026123Y004104D02*
X026679Y004104D01*
X026701Y004082D02*
X026701Y004004D01*
X026882Y004104D02*
X026920Y004104D01*
X027101Y004082D02*
X027101Y004004D01*
X027123Y004104D02*
X027679Y004104D01*
X027882Y004104D02*
X027920Y004104D01*
X027901Y004004D02*
X027901Y004485D01*
X027501Y004485D02*
X027501Y004523D01*
X027501Y004726D02*
X027501Y005254D01*
X027444Y005304D02*
X026958Y005304D01*
X026701Y005254D02*
X026701Y004926D01*
X026679Y004904D02*
X026123Y004904D01*
X025920Y004904D02*
X025882Y004904D01*
X025679Y004904D02*
X025123Y004904D01*
X025101Y004926D02*
X025101Y005447D01*
X024958Y005304D02*
X025444Y005304D01*
X025501Y005254D02*
X025501Y004726D01*
X025341Y004686D02*
X025083Y004944D01*
X024920Y004944D01*
X024920Y004523D01*
X024882Y004523D01*
X024882Y004485D01*
X024461Y004485D01*
X024461Y004322D01*
X024719Y004064D01*
X024882Y004064D01*
X024882Y004485D01*
X024920Y004485D01*
X024920Y004523D01*
X025341Y004523D01*
X025341Y004686D01*
X025341Y004485D02*
X024920Y004485D01*
X024920Y004064D01*
X025083Y004064D01*
X025341Y004322D01*
X025341Y004485D01*
X025501Y004485D02*
X025501Y004523D01*
X025501Y004282D02*
X025501Y003811D01*
X025679Y004104D02*
X025123Y004104D01*
X025101Y004082D02*
X025101Y004004D01*
X024920Y004104D02*
X024882Y004104D01*
X024701Y004082D02*
X024701Y004004D01*
X024679Y004104D02*
X024123Y004104D01*
X024083Y004064D02*
X024341Y004322D01*
X024341Y004485D01*
X023920Y004485D01*
X023920Y004064D01*
X024083Y004064D01*
X023920Y004104D02*
X023882Y004104D01*
X023901Y004004D02*
X023901Y004485D01*
X023920Y004504D02*
X024882Y004504D01*
X024920Y004504D02*
X025882Y004504D01*
X025901Y004485D02*
X025901Y004004D01*
X025882Y004104D02*
X025920Y004104D01*
X026701Y004485D02*
X026701Y004523D01*
X027101Y004523D02*
X027101Y004485D01*
X027501Y004282D02*
X027501Y003811D01*
X028123Y004104D02*
X028201Y004104D01*
X026920Y004904D02*
X026882Y004904D01*
X026201Y005704D02*
X026201Y005704D01*
X026301Y006061D02*
X026301Y015197D01*
X026201Y015297D02*
X026201Y015711D01*
X026201Y015297D01*
X026201Y015304D02*
X026201Y015304D01*
X025901Y015004D02*
X025901Y006254D01*
X026058Y006104D02*
X026344Y006104D01*
X026701Y006254D02*
X026701Y015004D01*
X027501Y015004D02*
X027501Y006254D01*
X027901Y006254D02*
X027901Y015004D01*
X028201Y014904D02*
X016201Y014904D01*
X016201Y014504D02*
X028201Y014504D01*
X028201Y014104D02*
X014503Y014104D01*
X014502Y013894D02*
X014505Y014504D01*
X016201Y014504D01*
X016201Y016495D01*
X016947Y016493D01*
X017002Y016438D01*
X017156Y016374D01*
X017322Y016374D01*
X017476Y016438D01*
X017593Y016556D01*
X017657Y016709D01*
X017657Y016876D01*
X017593Y017029D01*
X017476Y017147D01*
X017322Y017211D01*
X017156Y017211D01*
X017002Y017147D01*
X016948Y017093D01*
X016201Y017094D01*
X016201Y017504D01*
X009201Y017504D01*
X009201Y021004D01*
X012023Y021004D01*
X011751Y020732D01*
X011751Y020276D01*
X012073Y019954D01*
X012529Y019954D01*
X012844Y020269D01*
X013098Y020014D01*
X013263Y020014D01*
X013263Y020465D01*
X013340Y020465D01*
X013340Y020014D01*
X013504Y020014D01*
X013759Y020269D01*
X014073Y019954D01*
X014529Y019954D01*
X014801Y020226D01*
X015073Y019954D01*
X015529Y019954D01*
X015801Y020226D01*
X016073Y019954D01*
X016529Y019954D01*
X016801Y020226D01*
X017073Y019954D01*
X017529Y019954D01*
X017801Y020226D01*
X018073Y019954D01*
X018529Y019954D01*
X018801Y020226D01*
X019101Y019954D02*
X019101Y019879D01*
X018926Y019704D02*
X018676Y019704D01*
X018301Y019881D02*
X018301Y019954D01*
X017923Y020104D02*
X017679Y020104D01*
X017901Y020126D02*
X017901Y019679D01*
X017926Y019704D02*
X017676Y019704D01*
X017779Y019602D02*
X017499Y019881D01*
X017103Y019881D01*
X016824Y019602D01*
X016824Y019206D01*
X017103Y018926D01*
X017499Y018926D01*
X017779Y019206D01*
X017779Y019602D01*
X017779Y019304D02*
X017824Y019304D01*
X017901Y019129D02*
X017901Y018594D01*
X017884Y018504D02*
X017719Y018504D01*
X017719Y018577D02*
X017474Y018821D01*
X017320Y018821D01*
X017320Y018423D01*
X017282Y018423D01*
X017282Y018821D01*
X017128Y018821D01*
X016884Y018577D01*
X016884Y018423D01*
X017282Y018423D01*
X017282Y018385D01*
X016884Y018385D01*
X016884Y018231D01*
X017128Y017986D01*
X017282Y017986D01*
X017282Y018385D01*
X017320Y018385D01*
X017320Y018423D01*
X017719Y018423D01*
X017719Y018577D01*
X017719Y018385D02*
X017320Y018385D01*
X017320Y017986D01*
X017474Y017986D01*
X017719Y018231D01*
X017719Y018385D01*
X017901Y018385D02*
X017901Y018423D01*
X017901Y018214D02*
X017901Y012874D01*
X017938Y012858D02*
X017784Y012922D01*
X017618Y012922D01*
X017601Y012915D01*
X017601Y013113D01*
X017656Y013167D01*
X017719Y013321D01*
X017719Y013487D01*
X017656Y013641D01*
X017538Y013758D01*
X017384Y013822D01*
X017218Y013822D01*
X017064Y013758D01*
X017010Y013704D01*
X016492Y013704D01*
X016438Y013758D01*
X016284Y013822D01*
X016118Y013822D01*
X015964Y013758D01*
X015847Y013641D01*
X015783Y013487D01*
X015783Y013321D01*
X015847Y013167D01*
X015964Y013049D01*
X016118Y012986D01*
X016284Y012986D01*
X016438Y013049D01*
X016492Y013104D01*
X017001Y013104D01*
X017001Y012828D01*
X015431Y011258D01*
X015347Y011174D01*
X015301Y011064D01*
X015301Y009628D01*
X014477Y008804D01*
X012628Y008804D01*
X012738Y008849D01*
X012856Y008967D01*
X012919Y009121D01*
X012919Y009287D01*
X012856Y009441D01*
X012801Y009495D01*
X012801Y013313D01*
X012856Y013367D01*
X012919Y013521D01*
X012919Y013687D01*
X012856Y013841D01*
X012738Y013958D01*
X012584Y014022D01*
X012418Y014022D01*
X012264Y013958D01*
X012147Y013841D01*
X012083Y013687D01*
X012083Y013521D01*
X012147Y013367D01*
X012201Y013313D01*
X012201Y010231D01*
X012156Y010341D01*
X012038Y010458D01*
X011884Y010522D01*
X011718Y010522D01*
X011564Y010458D01*
X011447Y010341D01*
X011383Y010187D01*
X011383Y010021D01*
X011447Y009867D01*
X011501Y009813D01*
X011501Y008564D01*
X011501Y008444D01*
X011501Y007964D01*
X011501Y007844D01*
X011501Y001004D01*
X011901Y001004D02*
X011901Y007213D01*
X011847Y007267D02*
X011964Y007149D01*
X012118Y007086D01*
X012284Y007086D01*
X012438Y007149D01*
X012556Y007267D01*
X012619Y007421D01*
X012619Y007587D01*
X012556Y007741D01*
X012438Y007858D01*
X012284Y007922D01*
X012207Y007922D01*
X012101Y008028D01*
X012101Y008204D01*
X014661Y008204D01*
X014771Y008250D01*
X014855Y008334D01*
X015401Y008880D01*
X015401Y008795D01*
X015347Y008741D01*
X015283Y008587D01*
X015283Y008421D01*
X015347Y008267D01*
X015464Y008149D01*
X015618Y008086D01*
X015784Y008086D01*
X015938Y008149D01*
X016056Y008267D01*
X016119Y008421D01*
X016119Y008587D01*
X016056Y008741D01*
X016001Y008795D01*
X016001Y008880D01*
X016455Y009334D01*
X016501Y009444D01*
X016501Y009564D01*
X016501Y010880D01*
X017707Y012086D01*
X017784Y012086D01*
X017938Y012149D01*
X018056Y012267D01*
X018119Y012421D01*
X018119Y012587D01*
X018056Y012741D01*
X017938Y012858D01*
X017828Y012904D02*
X028201Y012904D01*
X028201Y013304D02*
X017712Y013304D01*
X017592Y013704D02*
X028201Y013704D01*
X028201Y012504D02*
X018119Y012504D01*
X017901Y012134D02*
X017901Y004304D01*
X017501Y004304D02*
X017501Y011880D01*
X017325Y011704D02*
X018264Y011704D01*
X018294Y011776D02*
X018221Y011599D01*
X018221Y011408D01*
X018294Y011232D01*
X018429Y011097D01*
X018606Y011024D01*
X018797Y011024D01*
X018973Y011097D01*
X019108Y011232D01*
X019181Y011408D01*
X019181Y011599D01*
X019108Y011776D01*
X018973Y011911D01*
X018797Y011984D01*
X018606Y011984D01*
X018429Y011911D01*
X018294Y011776D01*
X018301Y011783D02*
X018301Y018385D01*
X018320Y018385D02*
X018320Y017986D01*
X018474Y017986D01*
X018719Y018231D01*
X018719Y018385D01*
X018320Y018385D01*
X018301Y018423D02*
X018301Y018926D01*
X018282Y018504D02*
X018320Y018504D01*
X018701Y018423D02*
X018701Y018385D01*
X018701Y018214D02*
X018701Y011984D01*
X019101Y011783D02*
X019101Y018014D01*
X019011Y018104D02*
X018591Y018104D01*
X018320Y018104D02*
X018282Y018104D01*
X018011Y018104D02*
X017591Y018104D01*
X017501Y018014D02*
X017501Y017121D01*
X017645Y016904D02*
X020081Y016904D01*
X020081Y016600D02*
X020160Y016409D01*
X020307Y016263D01*
X020498Y016184D01*
X020705Y016184D01*
X020896Y016263D01*
X021042Y016409D01*
X021101Y016552D01*
X021081Y016504D02*
X021121Y016504D01*
X021501Y016184D02*
X021501Y002320D01*
X021401Y002504D02*
X021651Y002504D01*
X021689Y002904D02*
X021208Y002904D01*
X021101Y003004D02*
X021101Y004281D01*
X021001Y004104D02*
X022679Y004104D01*
X022701Y004082D02*
X022701Y004004D01*
X022882Y004104D02*
X022920Y004104D01*
X022920Y004064D02*
X023083Y004064D01*
X023341Y004322D01*
X023341Y004485D01*
X022920Y004485D01*
X022920Y004064D01*
X023101Y004082D02*
X023101Y004004D01*
X023123Y004104D02*
X023679Y004104D01*
X023501Y004282D02*
X023501Y003811D01*
X024301Y003811D02*
X024301Y004282D01*
X024301Y004485D02*
X024301Y004523D01*
X024301Y004726D02*
X024301Y005447D01*
X024201Y005704D02*
X024201Y005704D01*
X024301Y006061D02*
X024301Y015197D01*
X024201Y015297D02*
X024201Y015711D01*
X024201Y015297D01*
X024201Y015304D02*
X024201Y015304D01*
X023901Y015004D02*
X023901Y006254D01*
X024058Y006104D02*
X024344Y006104D01*
X024701Y006254D02*
X024701Y015004D01*
X025101Y015197D02*
X025101Y006061D01*
X025058Y006104D02*
X025344Y006104D01*
X025501Y006254D02*
X025501Y015004D01*
X025201Y015297D02*
X025201Y015711D01*
X025201Y015297D01*
X025201Y015304D02*
X025201Y015304D01*
X025201Y015704D02*
X025201Y015704D01*
X025101Y015811D02*
X025101Y018064D01*
X025141Y018104D02*
X025561Y018104D01*
X025501Y018164D02*
X025501Y016004D01*
X025901Y016004D02*
X025901Y017986D01*
X025870Y017986D02*
X026024Y017986D01*
X026269Y018231D01*
X026269Y018385D01*
X025870Y018385D01*
X025870Y018423D01*
X025832Y018423D01*
X025832Y018821D01*
X025678Y018821D01*
X025434Y018577D01*
X025434Y018423D01*
X025832Y018423D01*
X025832Y018385D01*
X025434Y018385D01*
X025434Y018231D01*
X025678Y017986D01*
X025832Y017986D01*
X025832Y018385D01*
X025870Y018385D01*
X025870Y017986D01*
X025870Y018104D02*
X025832Y018104D01*
X026141Y018104D02*
X026561Y018104D01*
X026678Y017986D02*
X026832Y017986D01*
X026832Y018385D01*
X026434Y018385D01*
X026434Y018231D01*
X026678Y017986D01*
X026701Y017986D02*
X026701Y016004D01*
X026301Y015811D02*
X026301Y019179D01*
X026329Y019206D02*
X026049Y018926D01*
X025653Y018926D01*
X025374Y019206D01*
X025374Y019602D01*
X025653Y019881D01*
X026049Y019881D01*
X026329Y019602D01*
X026329Y019206D01*
X026374Y019206D02*
X026653Y018926D01*
X027049Y018926D01*
X027329Y019206D01*
X027329Y019602D01*
X027049Y019881D01*
X026653Y019881D01*
X026374Y019602D01*
X026374Y019206D01*
X026374Y019304D02*
X026329Y019304D01*
X026301Y019629D02*
X026301Y020176D01*
X026229Y020104D02*
X026473Y020104D01*
X026701Y019954D02*
X026701Y019881D01*
X026476Y019704D02*
X026226Y019704D01*
X025901Y019881D02*
X025901Y019954D01*
X025501Y020076D02*
X025501Y019729D01*
X025476Y019704D02*
X025226Y019704D01*
X025329Y019602D02*
X025049Y019881D01*
X024653Y019881D01*
X024374Y019602D01*
X024374Y019206D01*
X024653Y018926D01*
X025049Y018926D01*
X025329Y019206D01*
X025329Y019602D01*
X025329Y019304D02*
X025374Y019304D01*
X025501Y019079D02*
X025501Y018644D01*
X025434Y018504D02*
X025269Y018504D01*
X025269Y018577D02*
X025024Y018821D01*
X024870Y018821D01*
X024870Y018423D01*
X024832Y018423D01*
X024832Y018821D01*
X024678Y018821D01*
X024434Y018577D01*
X024434Y018423D01*
X024832Y018423D01*
X024832Y018385D01*
X024434Y018385D01*
X024434Y018231D01*
X024678Y017986D01*
X024832Y017986D01*
X024832Y018385D01*
X024870Y018385D01*
X024870Y018423D01*
X025269Y018423D01*
X025269Y018577D01*
X025269Y018385D02*
X024870Y018385D01*
X024870Y017986D01*
X025024Y017986D01*
X025269Y018231D01*
X025269Y018385D01*
X025101Y018385D02*
X025101Y018423D01*
X024870Y018504D02*
X024832Y018504D01*
X024701Y018423D02*
X024701Y018385D01*
X024434Y018504D02*
X024269Y018504D01*
X024269Y018577D02*
X024024Y018821D01*
X023870Y018821D01*
X023870Y018423D01*
X023832Y018423D01*
X023832Y018821D01*
X023678Y018821D01*
X023434Y018577D01*
X023434Y018423D01*
X023832Y018423D01*
X023832Y018385D01*
X023434Y018385D01*
X023434Y018231D01*
X023678Y017986D01*
X023832Y017986D01*
X023832Y018385D01*
X023870Y018385D01*
X023870Y018423D01*
X024269Y018423D01*
X024269Y018577D01*
X024269Y018385D02*
X023870Y018385D01*
X023870Y017986D01*
X024024Y017986D01*
X024269Y018231D01*
X024269Y018385D01*
X023901Y018385D02*
X023901Y018423D01*
X023870Y018504D02*
X023832Y018504D01*
X023501Y018423D02*
X023501Y018385D01*
X023434Y018504D02*
X023269Y018504D01*
X023269Y018577D02*
X023024Y018821D01*
X022870Y018821D01*
X022870Y018423D01*
X022832Y018423D01*
X022832Y018821D01*
X022678Y018821D01*
X022434Y018577D01*
X022434Y018423D01*
X022832Y018423D01*
X022832Y018385D01*
X022870Y018385D01*
X022870Y018423D01*
X023269Y018423D01*
X023269Y018577D01*
X023269Y018385D02*
X022870Y018385D01*
X022870Y017986D01*
X023024Y017986D01*
X023269Y018231D01*
X023269Y018385D01*
X023101Y018385D02*
X023101Y018423D01*
X022870Y018504D02*
X022832Y018504D01*
X022701Y018423D02*
X022701Y018385D01*
X022434Y018504D02*
X022269Y018504D01*
X021901Y018821D02*
X021901Y018926D01*
X021501Y019079D02*
X021501Y018644D01*
X021101Y018744D02*
X021101Y018979D01*
X021049Y018926D02*
X021329Y019206D01*
X021329Y019602D01*
X021049Y019881D01*
X020653Y019881D01*
X020374Y019602D01*
X020374Y019206D01*
X020653Y018926D01*
X021049Y018926D01*
X020701Y018926D02*
X020701Y018821D01*
X020374Y019304D02*
X019779Y019304D01*
X019676Y019704D02*
X020476Y019704D01*
X020701Y019881D02*
X020701Y019954D01*
X020623Y019954D02*
X021079Y019954D01*
X021351Y020226D01*
X021623Y019954D01*
X022079Y019954D01*
X022351Y020226D01*
X022229Y020104D02*
X022473Y020104D01*
X022701Y019954D02*
X022701Y019881D01*
X022476Y019704D02*
X022226Y019704D01*
X021901Y019881D02*
X021901Y019954D01*
X021501Y020076D02*
X021501Y019729D01*
X021476Y019704D02*
X021226Y019704D01*
X021101Y019829D02*
X021101Y019976D01*
X021229Y020104D02*
X021473Y020104D01*
X020623Y019954D02*
X020301Y020276D01*
X020301Y017739D01*
X020307Y017745D02*
X020160Y017598D01*
X020081Y017407D01*
X020081Y016600D01*
X020121Y016504D02*
X017542Y016504D01*
X017501Y016464D02*
X017501Y013774D01*
X017101Y013774D02*
X017101Y016397D01*
X016701Y016494D02*
X016701Y013704D01*
X016492Y013704D02*
X017010Y013704D01*
X016301Y013815D02*
X016301Y016494D01*
X016301Y017094D02*
X016301Y018385D01*
X016282Y018385D02*
X016320Y018385D01*
X016320Y018423D01*
X016282Y018423D01*
X016282Y018821D01*
X016128Y018821D01*
X015884Y018577D01*
X015884Y018423D01*
X016282Y018423D01*
X016282Y018385D01*
X015884Y018385D01*
X015884Y018231D01*
X016128Y017986D01*
X016282Y017986D01*
X016282Y018385D01*
X016320Y018385D02*
X016320Y017986D01*
X016474Y017986D01*
X016719Y018231D01*
X016719Y018385D01*
X016320Y018385D01*
X016320Y018423D02*
X016719Y018423D01*
X016719Y018577D01*
X016474Y018821D01*
X016320Y018821D01*
X016320Y018423D01*
X016301Y018423D02*
X016301Y018926D01*
X016103Y018926D02*
X016499Y018926D01*
X016779Y019206D01*
X016779Y019602D01*
X016499Y019881D01*
X016103Y019881D01*
X015824Y019602D01*
X015824Y019206D01*
X016103Y018926D01*
X015901Y019129D02*
X015901Y018594D01*
X015884Y018504D02*
X015719Y018504D01*
X015719Y018577D02*
X015474Y018821D01*
X015320Y018821D01*
X015320Y018423D01*
X015282Y018423D01*
X015282Y018821D01*
X015128Y018821D01*
X014884Y018577D01*
X014884Y018423D01*
X015282Y018423D01*
X015282Y018385D01*
X014884Y018385D01*
X014884Y018231D01*
X015128Y017986D01*
X015282Y017986D01*
X015282Y018385D01*
X015320Y018385D01*
X015320Y018423D01*
X015719Y018423D01*
X015719Y018577D01*
X015719Y018385D02*
X015320Y018385D01*
X015320Y017986D01*
X015474Y017986D01*
X015719Y018231D01*
X015719Y018385D01*
X015901Y018385D02*
X015901Y018423D01*
X015901Y018214D02*
X015901Y017504D01*
X016201Y017304D02*
X020081Y017304D01*
X020266Y017704D02*
X009201Y017704D01*
X009501Y017504D02*
X009501Y021004D01*
X009201Y020904D02*
X011923Y020904D01*
X011901Y020882D02*
X011901Y021004D01*
X011501Y021004D02*
X011501Y017504D01*
X011901Y017504D02*
X011901Y018214D01*
X011884Y018231D02*
X012128Y017986D01*
X012282Y017986D01*
X012282Y018385D01*
X011884Y018385D01*
X011884Y018231D01*
X011901Y018385D02*
X011901Y018423D01*
X011884Y018423D02*
X012282Y018423D01*
X012282Y018821D01*
X012128Y018821D01*
X011884Y018577D01*
X011884Y018423D01*
X011884Y018504D02*
X009201Y018504D01*
X009201Y018904D02*
X028201Y018904D01*
X027901Y018926D02*
X027901Y018821D01*
X027501Y018644D02*
X027501Y019079D01*
X027374Y019304D02*
X027329Y019304D01*
X027101Y018979D02*
X027101Y018744D01*
X027024Y018821D02*
X026870Y018821D01*
X026870Y018423D01*
X026832Y018423D01*
X026832Y018821D01*
X026678Y018821D01*
X026434Y018577D01*
X026434Y018423D01*
X026832Y018423D01*
X026832Y018385D01*
X026870Y018385D01*
X026870Y018423D01*
X027269Y018423D01*
X027269Y018577D01*
X027024Y018821D01*
X026701Y018821D02*
X026701Y018926D01*
X026832Y018504D02*
X026870Y018504D01*
X026870Y018385D02*
X027269Y018385D01*
X027269Y018231D01*
X027024Y017986D01*
X026870Y017986D01*
X026870Y018385D01*
X026701Y018385D02*
X026701Y018423D01*
X026434Y018504D02*
X026269Y018504D01*
X026269Y018577D02*
X026024Y018821D01*
X025870Y018821D01*
X025870Y018423D01*
X026269Y018423D01*
X026269Y018577D01*
X025901Y018423D02*
X025901Y018385D01*
X025870Y018504D02*
X025832Y018504D01*
X025901Y018821D02*
X025901Y018926D01*
X025501Y018423D02*
X025501Y018385D01*
X025101Y018744D02*
X025101Y018979D01*
X024701Y018926D02*
X024701Y018821D01*
X024329Y019206D02*
X024049Y018926D01*
X023653Y018926D01*
X023374Y019206D01*
X023374Y019602D01*
X023653Y019881D01*
X024049Y019881D01*
X024329Y019602D01*
X024329Y019206D01*
X024301Y019179D02*
X024301Y015811D01*
X024201Y015704D02*
X024201Y015704D01*
X023901Y016004D02*
X023901Y017986D01*
X023870Y018104D02*
X023832Y018104D01*
X023561Y018104D02*
X023141Y018104D01*
X023101Y018064D02*
X023101Y017456D01*
X022870Y018104D02*
X022832Y018104D01*
X023501Y018164D02*
X023501Y016004D01*
X023201Y015304D02*
X016201Y015304D01*
X015701Y015304D02*
X011301Y015304D01*
X011501Y015004D02*
X011501Y016290D01*
X011901Y016503D02*
X011901Y015004D01*
X012301Y015004D02*
X012301Y016502D01*
X012701Y016501D02*
X012701Y015004D01*
X013101Y015004D02*
X013101Y016501D01*
X013501Y016500D02*
X013501Y015004D01*
X013901Y015004D02*
X013901Y016499D01*
X014301Y016498D02*
X014301Y015004D01*
X014701Y015004D02*
X014701Y016497D01*
X015101Y016497D02*
X015101Y015004D01*
X015501Y015004D02*
X015501Y016496D01*
X016701Y017093D02*
X016701Y018214D01*
X016591Y018104D02*
X017011Y018104D01*
X017101Y018014D02*
X017101Y017188D01*
X017282Y018104D02*
X017320Y018104D01*
X017501Y018385D02*
X017501Y018423D01*
X017320Y018504D02*
X017282Y018504D01*
X017101Y018423D02*
X017101Y018385D01*
X016884Y018504D02*
X016719Y018504D01*
X016701Y018423D02*
X016701Y018385D01*
X016701Y018594D02*
X016701Y019129D01*
X016779Y019304D02*
X016824Y019304D01*
X016701Y019679D02*
X016701Y020126D01*
X016679Y020104D02*
X016923Y020104D01*
X017101Y019954D02*
X017101Y019879D01*
X016926Y019704D02*
X016676Y019704D01*
X016301Y019881D02*
X016301Y019954D01*
X015923Y020104D02*
X015679Y020104D01*
X015901Y020126D02*
X015901Y019679D01*
X015926Y019704D02*
X015676Y019704D01*
X015779Y019602D02*
X015499Y019881D01*
X015103Y019881D01*
X014824Y019602D01*
X014824Y019206D01*
X015103Y018926D01*
X015499Y018926D01*
X015779Y019206D01*
X015779Y019602D01*
X015779Y019304D02*
X015824Y019304D01*
X015501Y018929D02*
X015501Y018794D01*
X015320Y018504D02*
X015282Y018504D01*
X015101Y018423D02*
X015101Y018385D01*
X014884Y018504D02*
X014719Y018504D01*
X014719Y018577D02*
X014474Y018821D01*
X014320Y018821D01*
X014320Y018423D01*
X014282Y018423D01*
X014282Y018821D01*
X014128Y018821D01*
X013884Y018577D01*
X013884Y018423D01*
X014282Y018423D01*
X014282Y018385D01*
X013884Y018385D01*
X013884Y018231D01*
X014128Y017986D01*
X014282Y017986D01*
X014282Y018385D01*
X014320Y018385D01*
X014320Y018423D01*
X014719Y018423D01*
X014719Y018577D01*
X014701Y018594D02*
X014701Y019129D01*
X014779Y019206D02*
X014499Y018926D01*
X014103Y018926D01*
X013824Y019206D01*
X013824Y019602D01*
X014103Y019881D01*
X014499Y019881D01*
X014779Y019602D01*
X014779Y019206D01*
X014779Y019304D02*
X014824Y019304D01*
X014701Y019679D02*
X014701Y020126D01*
X014679Y020104D02*
X014923Y020104D01*
X015101Y019954D02*
X015101Y019879D01*
X014926Y019704D02*
X014676Y019704D01*
X014301Y019881D02*
X014301Y019954D01*
X013923Y020104D02*
X013594Y020104D01*
X013501Y020014D02*
X013501Y019794D01*
X013474Y019821D02*
X013320Y019821D01*
X013320Y019423D01*
X013282Y019423D01*
X013282Y019821D01*
X013128Y019821D01*
X012884Y019577D01*
X012884Y019423D01*
X013282Y019423D01*
X013282Y019385D01*
X012884Y019385D01*
X012884Y019231D01*
X013128Y018986D01*
X013282Y018986D01*
X013282Y019385D01*
X013320Y019385D01*
X013320Y019423D01*
X013719Y019423D01*
X013719Y019577D01*
X013474Y019821D01*
X013591Y019704D02*
X013926Y019704D01*
X013901Y019679D02*
X013901Y020126D01*
X013340Y020104D02*
X013263Y020104D01*
X013101Y020014D02*
X013101Y019794D01*
X013011Y019704D02*
X012676Y019704D01*
X012701Y019679D02*
X012701Y020126D01*
X012679Y020104D02*
X013008Y020104D01*
X013282Y019704D02*
X013320Y019704D01*
X013320Y019385D02*
X013719Y019385D01*
X013719Y019231D01*
X013474Y018986D01*
X013320Y018986D01*
X013320Y019385D01*
X013320Y019304D02*
X013282Y019304D01*
X013101Y019385D02*
X013101Y019423D01*
X012884Y019304D02*
X012779Y019304D01*
X012779Y019206D02*
X012499Y018926D01*
X012103Y018926D01*
X011824Y019206D01*
X011824Y019602D01*
X012103Y019881D01*
X012499Y019881D01*
X012779Y019602D01*
X012779Y019206D01*
X012701Y019129D02*
X012701Y018594D01*
X012719Y018577D02*
X012474Y018821D01*
X012320Y018821D01*
X012320Y018423D01*
X012282Y018423D01*
X012282Y018385D01*
X012320Y018385D01*
X012320Y018423D01*
X012719Y018423D01*
X012719Y018577D01*
X012719Y018504D02*
X012884Y018504D01*
X012884Y018577D02*
X012884Y018423D01*
X013282Y018423D01*
X013282Y018821D01*
X013128Y018821D01*
X012884Y018577D01*
X012884Y018385D02*
X012884Y018231D01*
X013128Y017986D01*
X013282Y017986D01*
X013282Y018385D01*
X012884Y018385D01*
X012719Y018385D02*
X012320Y018385D01*
X012320Y017986D01*
X012474Y017986D01*
X012719Y018231D01*
X012719Y018385D01*
X012701Y018385D02*
X012701Y018423D01*
X012701Y018214D02*
X012701Y017504D01*
X013101Y017504D02*
X013101Y018014D01*
X013011Y018104D02*
X012591Y018104D01*
X012320Y018104D02*
X012282Y018104D01*
X012011Y018104D02*
X009201Y018104D01*
X008701Y018104D02*
X003201Y018104D01*
X003201Y018504D02*
X008701Y018504D01*
X008701Y018904D02*
X006636Y018904D01*
X006642Y018909D02*
X006721Y019100D01*
X006721Y019907D01*
X006642Y020098D01*
X006496Y020245D01*
X006305Y020324D01*
X006098Y020324D01*
X005907Y020245D01*
X005760Y020098D01*
X005681Y019907D01*
X005681Y019100D01*
X005760Y018909D01*
X005907Y018763D01*
X006098Y018684D01*
X006305Y018684D01*
X006496Y018763D01*
X006642Y018909D01*
X006701Y019052D02*
X006701Y011941D01*
X006608Y012034D02*
X006364Y012135D01*
X006101Y012135D01*
X005857Y012034D01*
X005671Y011848D01*
X005570Y011604D01*
X005570Y011341D01*
X005671Y011097D01*
X005827Y010941D01*
X005671Y010785D01*
X005570Y010541D01*
X005570Y010278D01*
X005671Y010034D01*
X005702Y010002D01*
X005592Y009892D01*
X005477Y009615D01*
X005477Y009314D01*
X005592Y009037D01*
X005702Y008927D01*
X005671Y008895D01*
X005570Y008652D01*
X005570Y008388D01*
X005671Y008144D01*
X005827Y007988D01*
X005671Y007832D01*
X005570Y007589D01*
X005570Y007325D01*
X005671Y007081D01*
X005857Y006895D01*
X006101Y006794D01*
X006364Y006794D01*
X006608Y006895D01*
X006795Y007081D01*
X006895Y007325D01*
X006895Y007589D01*
X006795Y007832D01*
X006639Y007988D01*
X006795Y008144D01*
X006895Y008388D01*
X006895Y008652D01*
X006795Y008895D01*
X006763Y008927D01*
X006873Y009037D01*
X006988Y009314D01*
X006988Y009615D01*
X006873Y009892D01*
X006763Y010002D01*
X006795Y010034D01*
X006895Y010278D01*
X006895Y010541D01*
X006795Y010785D01*
X006639Y010941D01*
X006795Y011097D01*
X006895Y011341D01*
X006895Y011604D01*
X006795Y011848D01*
X006608Y012034D01*
X006440Y012104D02*
X009701Y012104D01*
X009701Y012504D02*
X003201Y012504D01*
X003201Y012104D02*
X003910Y012104D01*
X003901Y012100D02*
X003901Y018769D01*
X003907Y018763D02*
X003760Y018909D01*
X003681Y019100D01*
X003681Y019907D01*
X003760Y020098D01*
X003907Y020245D01*
X004098Y020324D01*
X004305Y020324D01*
X004496Y020245D01*
X004642Y020098D01*
X004721Y019907D01*
X004721Y019100D01*
X004642Y018909D01*
X004496Y018763D01*
X004305Y018684D01*
X004098Y018684D01*
X003907Y018763D01*
X003766Y018904D02*
X003201Y018904D01*
X003201Y019304D02*
X003681Y019304D01*
X003681Y019704D02*
X003201Y019704D01*
X003201Y020104D02*
X003766Y020104D01*
X003901Y020239D02*
X003901Y021004D01*
X003501Y021004D02*
X003501Y006004D01*
X003201Y006004D02*
X003201Y021004D01*
X008701Y021004D01*
X008701Y017004D01*
X008701Y006004D01*
X008301Y006004D02*
X008301Y021004D01*
X007901Y021004D02*
X007901Y006004D01*
X007501Y006004D02*
X007501Y021004D01*
X007101Y021004D02*
X007101Y006004D01*
X006701Y006004D02*
X006701Y006988D01*
X006617Y006904D02*
X009701Y006904D01*
X009701Y006504D02*
X003201Y006504D01*
X003201Y006904D02*
X003788Y006904D01*
X003836Y006856D02*
X004114Y006741D01*
X004414Y006741D01*
X004692Y006856D01*
X004904Y007068D01*
X005019Y007346D01*
X005019Y007646D01*
X004904Y007924D01*
X004692Y008136D01*
X004414Y008251D01*
X004114Y008251D01*
X003836Y008136D01*
X003624Y007924D01*
X003509Y007646D01*
X003509Y007346D01*
X003624Y007068D01*
X003836Y006856D01*
X003901Y006829D02*
X003901Y006004D01*
X004301Y006004D02*
X004301Y006741D01*
X004701Y006865D02*
X004701Y006004D01*
X005101Y006004D02*
X005101Y018754D01*
X005093Y018755D02*
X005024Y018778D01*
X004960Y018811D01*
X004901Y018853D01*
X004850Y018904D01*
X004808Y018963D01*
X004775Y019027D01*
X004752Y019096D01*
X004741Y019168D01*
X004741Y019464D01*
X005161Y019464D01*
X005161Y019544D01*
X004741Y019544D01*
X004741Y019840D01*
X004752Y019912D01*
X004775Y019981D01*
X004808Y020045D01*
X004850Y020104D01*
X004901Y020155D01*
X004960Y020197D01*
X005024Y020230D01*
X005093Y020253D01*
X005161Y020263D01*
X005161Y019544D01*
X005241Y019544D01*
X005241Y020263D01*
X005309Y020253D01*
X005378Y020230D01*
X005442Y020197D01*
X005501Y020155D01*
X005552Y020104D01*
X005766Y020104D01*
X005594Y020045D02*
X005552Y020104D01*
X005501Y020154D02*
X005501Y021004D01*
X005901Y021004D02*
X005901Y020239D01*
X005594Y020045D02*
X005627Y019981D01*
X005650Y019912D01*
X005661Y019840D01*
X005661Y019544D01*
X005241Y019544D01*
X005241Y019464D01*
X005661Y019464D01*
X005661Y019168D01*
X005650Y019096D01*
X005627Y019027D01*
X005594Y018963D01*
X005552Y018904D01*
X005501Y018853D01*
X005442Y018811D01*
X005378Y018778D01*
X005309Y018755D01*
X005241Y018745D01*
X005241Y019464D01*
X005161Y019464D01*
X005161Y018745D01*
X005093Y018755D01*
X005161Y018904D02*
X005241Y018904D01*
X005501Y018853D02*
X005501Y009672D01*
X005514Y009704D02*
X004879Y009704D01*
X004890Y009677D02*
X004857Y009757D01*
X004814Y009832D01*
X004761Y009901D01*
X004700Y009962D01*
X004632Y010014D01*
X004557Y010058D01*
X004477Y010091D01*
X004393Y010113D01*
X004324Y010122D01*
X004324Y009525D01*
X004204Y009525D01*
X004204Y010122D01*
X004135Y010113D01*
X004051Y010091D01*
X003972Y010058D01*
X003897Y010014D01*
X003828Y009962D01*
X003767Y009901D01*
X003714Y009832D01*
X003671Y009757D01*
X003638Y009677D01*
X003615Y009594D01*
X003606Y009524D01*
X004204Y009524D01*
X004204Y009405D01*
X003606Y009405D01*
X003615Y009336D01*
X003638Y009252D01*
X003671Y009172D01*
X003714Y009097D01*
X003767Y009028D01*
X003828Y008967D01*
X003897Y008915D01*
X003972Y008871D01*
X004051Y008838D01*
X004135Y008816D01*
X004204Y008807D01*
X004204Y009404D01*
X004324Y009404D01*
X004324Y008807D01*
X004393Y008816D01*
X004477Y008838D01*
X004557Y008871D01*
X004632Y008915D01*
X004700Y008967D01*
X004761Y009028D01*
X004814Y009097D01*
X004857Y009172D01*
X004890Y009252D01*
X004913Y009336D01*
X004922Y009405D01*
X004324Y009405D01*
X004324Y009524D01*
X004922Y009524D01*
X004913Y009594D01*
X004890Y009677D01*
X004701Y009524D02*
X004701Y009405D01*
X004904Y009304D02*
X005482Y009304D01*
X005501Y009257D02*
X005501Y006004D01*
X005901Y006004D02*
X005901Y006876D01*
X005848Y006904D02*
X004740Y006904D01*
X005002Y007304D02*
X005578Y007304D01*
X005617Y007704D02*
X004995Y007704D01*
X004724Y008104D02*
X005711Y008104D01*
X005570Y008504D02*
X003201Y008504D01*
X003201Y008904D02*
X003915Y008904D01*
X003901Y008912D02*
X003901Y008163D01*
X003804Y008104D02*
X003201Y008104D01*
X003201Y007704D02*
X003533Y007704D01*
X003526Y007304D02*
X003201Y007304D01*
X003201Y006104D02*
X009701Y006104D01*
X009701Y006004D02*
X003201Y006004D01*
X003201Y005504D02*
X010201Y005504D01*
X010201Y014504D01*
X010701Y014504D01*
X010701Y012084D01*
X010647Y012029D01*
X010583Y011876D01*
X010583Y011709D01*
X010647Y011556D01*
X010764Y011438D01*
X010918Y011374D01*
X011084Y011374D01*
X011238Y011438D01*
X011356Y011556D01*
X011419Y011709D01*
X011419Y011876D01*
X011356Y012029D01*
X011301Y012084D01*
X011301Y014504D01*
X013905Y014504D01*
X013902Y013896D01*
X013847Y013841D01*
X013783Y013687D01*
X013783Y013521D01*
X013847Y013367D01*
X013964Y013249D01*
X014118Y013186D01*
X014284Y013186D01*
X014438Y013249D01*
X014556Y013367D01*
X014619Y013521D01*
X014619Y013687D01*
X014556Y013841D01*
X014502Y013894D01*
X014612Y013704D02*
X015910Y013704D01*
X015901Y013695D02*
X015901Y014504D01*
X015501Y014504D02*
X015501Y011328D01*
X015477Y011304D02*
X012801Y011304D01*
X012801Y011704D02*
X015877Y011704D01*
X015901Y011728D02*
X015901Y013113D01*
X015790Y013304D02*
X014492Y013304D01*
X014301Y013193D02*
X014301Y008804D01*
X014577Y008904D02*
X012792Y008904D01*
X012701Y008834D02*
X012701Y008804D01*
X013101Y008804D02*
X013101Y014504D01*
X012701Y014504D02*
X012701Y013974D01*
X012912Y013704D02*
X013790Y013704D01*
X013901Y013895D02*
X013901Y014504D01*
X013501Y014504D02*
X013501Y008804D01*
X013901Y008804D02*
X013901Y013313D01*
X013910Y013304D02*
X012801Y013304D01*
X012801Y012904D02*
X017001Y012904D01*
X016701Y013104D02*
X016701Y012528D01*
X016677Y012504D02*
X012801Y012504D01*
X012801Y012104D02*
X016277Y012104D01*
X016301Y012128D02*
X016301Y012993D01*
X017828Y012104D02*
X028201Y012104D01*
X028201Y011704D02*
X019138Y011704D01*
X019138Y011304D02*
X028201Y011304D01*
X028201Y010904D02*
X018980Y010904D01*
X018973Y010911D02*
X018797Y010984D01*
X018606Y010984D01*
X018429Y010911D01*
X018294Y010776D01*
X018221Y010599D01*
X018221Y010408D01*
X018294Y010232D01*
X018429Y010097D01*
X018606Y010024D01*
X018797Y010024D01*
X018973Y010097D01*
X019108Y010232D01*
X019181Y010408D01*
X019181Y010599D01*
X019108Y010776D01*
X018973Y010911D01*
X019101Y010783D02*
X019101Y011225D01*
X018701Y011024D02*
X018701Y010984D01*
X018422Y010904D02*
X016525Y010904D01*
X016701Y011080D02*
X016701Y004304D01*
X016301Y004296D02*
X016301Y009180D01*
X016425Y009304D02*
X028201Y009304D01*
X028201Y009704D02*
X016501Y009704D01*
X016501Y010104D02*
X018422Y010104D01*
X018301Y010225D02*
X018301Y004304D01*
X018701Y004304D02*
X018701Y010024D01*
X018980Y010104D02*
X028201Y010104D01*
X028201Y010504D02*
X019181Y010504D01*
X019101Y010225D02*
X019101Y004304D01*
X019501Y004304D02*
X019501Y018014D01*
X019591Y018104D02*
X020561Y018104D01*
X020701Y017986D02*
X020701Y017824D01*
X020705Y017824D02*
X020498Y017824D01*
X020307Y017745D01*
X020705Y017824D02*
X020896Y017745D01*
X021042Y017598D01*
X021101Y017456D01*
X020936Y017704D02*
X021266Y017704D01*
X020870Y018104D02*
X020832Y018104D01*
X019501Y018794D02*
X019501Y018929D01*
X019101Y018929D02*
X019101Y018794D01*
X019282Y018104D02*
X019320Y018104D01*
X017501Y018794D02*
X017501Y018929D01*
X017101Y018929D02*
X017101Y018794D01*
X016320Y018504D02*
X016282Y018504D01*
X016282Y018104D02*
X016320Y018104D01*
X016011Y018104D02*
X015591Y018104D01*
X015501Y018014D02*
X015501Y017504D01*
X015101Y017504D02*
X015101Y018014D01*
X015011Y018104D02*
X014591Y018104D01*
X014701Y018214D02*
X014701Y017504D01*
X014301Y017504D02*
X014301Y018385D01*
X014320Y018385D02*
X014320Y017986D01*
X014474Y017986D01*
X014719Y018231D01*
X014719Y018385D01*
X014320Y018385D01*
X014301Y018423D02*
X014301Y018926D01*
X013901Y019129D02*
X013901Y018594D01*
X013884Y018504D02*
X013719Y018504D01*
X013719Y018577D02*
X013474Y018821D01*
X013320Y018821D01*
X013320Y018423D01*
X013282Y018423D01*
X013282Y018385D01*
X013320Y018385D01*
X013320Y018423D01*
X013719Y018423D01*
X013719Y018577D01*
X013719Y018385D02*
X013320Y018385D01*
X013320Y017986D01*
X013474Y017986D01*
X013719Y018231D01*
X013719Y018385D01*
X013901Y018385D02*
X013901Y018423D01*
X013901Y018214D02*
X013901Y017504D01*
X013501Y017504D02*
X013501Y018014D01*
X013591Y018104D02*
X014011Y018104D01*
X014282Y018104D02*
X014320Y018104D01*
X014320Y018504D02*
X014282Y018504D01*
X014701Y018423D02*
X014701Y018385D01*
X015101Y018794D02*
X015101Y018929D01*
X015501Y018423D02*
X015501Y018385D01*
X015320Y018104D02*
X015282Y018104D01*
X013501Y018385D02*
X013501Y018423D01*
X013320Y018504D02*
X013282Y018504D01*
X013101Y018423D02*
X013101Y018385D01*
X013101Y018794D02*
X013101Y019014D01*
X013501Y019014D02*
X013501Y018794D01*
X013719Y019304D02*
X013824Y019304D01*
X013501Y019385D02*
X013501Y019423D01*
X012301Y019881D02*
X012301Y019954D01*
X011923Y020104D02*
X009201Y020104D01*
X009201Y020504D02*
X011751Y020504D01*
X011901Y020126D02*
X011901Y019679D01*
X011926Y019704D02*
X009201Y019704D01*
X009201Y019304D02*
X011824Y019304D01*
X011901Y019129D02*
X011901Y018594D01*
X012282Y018504D02*
X012320Y018504D01*
X012301Y018423D02*
X012301Y018926D01*
X012301Y018385D02*
X012301Y017504D01*
X011176Y017004D02*
X011151Y016980D01*
X011150Y016977D01*
X011147Y016974D01*
X011126Y016923D01*
X010750Y016077D01*
X010747Y016074D01*
X010725Y016022D01*
X010703Y015971D01*
X010703Y015967D01*
X010701Y015964D01*
X010701Y017004D01*
X010301Y017004D02*
X010301Y015004D01*
X010701Y015004D02*
X009701Y015004D01*
X009701Y006004D01*
X009501Y006004D02*
X009501Y017004D01*
X009101Y017004D02*
X009101Y006004D01*
X009101Y005504D02*
X009101Y001004D01*
X009501Y001004D02*
X009501Y005504D01*
X009901Y005504D02*
X009901Y001004D01*
X010301Y001004D02*
X010301Y014504D01*
X010201Y014104D02*
X010701Y014104D01*
X010701Y013704D02*
X010201Y013704D01*
X009701Y013704D02*
X003201Y013704D01*
X003201Y014104D02*
X009701Y014104D01*
X009701Y014504D02*
X003201Y014504D01*
X003201Y014904D02*
X009701Y014904D01*
X009901Y015004D02*
X009901Y017004D01*
X009901Y017504D02*
X009901Y021004D01*
X010301Y021004D02*
X010301Y017504D01*
X010701Y017504D02*
X010701Y021004D01*
X011101Y021004D02*
X011101Y017504D01*
X011101Y017004D02*
X011101Y016868D01*
X011117Y016904D02*
X003201Y016904D01*
X003201Y017304D02*
X008701Y017304D01*
X008701Y017704D02*
X003201Y017704D01*
X003201Y016504D02*
X010940Y016504D01*
X010762Y016104D02*
X003201Y016104D01*
X003201Y015704D02*
X010701Y015704D01*
X010701Y015848D02*
X010701Y015004D01*
X010701Y015304D02*
X003201Y015304D01*
X003201Y013304D02*
X009701Y013304D01*
X010201Y013304D02*
X010701Y013304D01*
X010701Y012904D02*
X010201Y012904D01*
X009701Y012904D02*
X003201Y012904D01*
X003836Y012073D02*
X004114Y012188D01*
X004414Y012188D01*
X004692Y012073D01*
X004904Y011861D01*
X005019Y011583D01*
X005019Y011283D01*
X004904Y011005D01*
X004692Y010793D01*
X004414Y010678D01*
X004114Y010678D01*
X003836Y010793D01*
X003624Y011005D01*
X003509Y011283D01*
X003509Y011583D01*
X003624Y011861D01*
X003836Y012073D01*
X003559Y011704D02*
X003201Y011704D01*
X003201Y011304D02*
X003509Y011304D01*
X003725Y010904D02*
X003201Y010904D01*
X003201Y010504D02*
X005570Y010504D01*
X005642Y010104D02*
X004428Y010104D01*
X004324Y010104D02*
X004204Y010104D01*
X004100Y010104D02*
X003201Y010104D01*
X003201Y009704D02*
X003649Y009704D01*
X003901Y009524D02*
X003901Y009405D01*
X003624Y009304D02*
X003201Y009304D01*
X003901Y010017D02*
X003901Y010766D01*
X004301Y010678D02*
X004301Y009525D01*
X004301Y009404D02*
X004301Y008251D01*
X004701Y008127D02*
X004701Y008968D01*
X004613Y008904D02*
X005679Y008904D01*
X006786Y008904D02*
X009701Y008904D01*
X010201Y008904D02*
X010701Y008904D01*
X010701Y009304D02*
X010201Y009304D01*
X010201Y009704D02*
X010701Y009704D01*
X010701Y010104D02*
X010201Y010104D01*
X009701Y010104D02*
X006824Y010104D01*
X006895Y010504D02*
X009701Y010504D01*
X010201Y010504D02*
X010701Y010504D01*
X010701Y010513D02*
X010701Y007395D01*
X010647Y007341D01*
X010583Y007187D01*
X010583Y007021D01*
X010647Y006867D01*
X010764Y006749D01*
X010918Y006686D01*
X011084Y006686D01*
X011238Y006749D01*
X011356Y006867D01*
X011419Y007021D01*
X011419Y007187D01*
X011356Y007341D01*
X011301Y007395D01*
X011301Y010513D01*
X011356Y010567D01*
X011419Y010721D01*
X011419Y010887D01*
X011356Y011041D01*
X011238Y011158D01*
X011084Y011222D01*
X010918Y011222D01*
X010764Y011158D01*
X010647Y011041D01*
X010583Y010887D01*
X010583Y010721D01*
X010647Y010567D01*
X010701Y010513D01*
X010590Y010904D02*
X010201Y010904D01*
X009701Y010904D02*
X006676Y010904D01*
X006701Y010878D02*
X006701Y011003D01*
X006880Y011304D02*
X009701Y011304D01*
X010201Y011304D02*
X012201Y011304D01*
X012201Y011704D02*
X011417Y011704D01*
X011301Y012104D02*
X012201Y012104D01*
X012201Y012504D02*
X011301Y012504D01*
X011301Y012904D02*
X012201Y012904D01*
X012201Y013304D02*
X011301Y013304D01*
X011301Y013704D02*
X012090Y013704D01*
X012301Y013974D02*
X012301Y014504D01*
X011901Y014504D02*
X011901Y010515D01*
X011928Y010504D02*
X012201Y010504D01*
X012201Y010904D02*
X011412Y010904D01*
X011301Y010504D02*
X011674Y010504D01*
X011501Y010395D02*
X011501Y014504D01*
X011301Y014104D02*
X013903Y014104D01*
X014701Y014504D02*
X014701Y009028D01*
X014977Y009304D02*
X012912Y009304D01*
X012801Y009704D02*
X015301Y009704D01*
X015101Y009428D02*
X015101Y014504D01*
X011176Y017004D02*
X008701Y017004D01*
X010701Y015964D02*
X010701Y015908D01*
X010700Y015852D01*
X010701Y015848D01*
X013282Y018104D02*
X013320Y018104D01*
X015501Y019879D02*
X015501Y019954D01*
X014023Y021004D02*
X012579Y021004D01*
X012844Y020739D01*
X013098Y020994D01*
X013263Y020994D01*
X013263Y020543D01*
X013340Y020543D01*
X013340Y020994D01*
X013504Y020994D01*
X013759Y020739D01*
X014023Y021004D01*
X013901Y021004D02*
X013901Y020882D01*
X013923Y020904D02*
X013594Y020904D01*
X013501Y020994D02*
X013501Y021004D01*
X013340Y020904D02*
X013263Y020904D01*
X013101Y020994D02*
X013101Y021004D01*
X013008Y020904D02*
X012679Y020904D01*
X012701Y020882D02*
X012701Y021004D01*
X008701Y020904D02*
X003201Y020904D01*
X003201Y020504D02*
X008701Y020504D01*
X008701Y020104D02*
X006636Y020104D01*
X006701Y019956D02*
X006701Y021004D01*
X006301Y021004D02*
X006301Y020324D01*
X006721Y019704D02*
X008701Y019704D01*
X008701Y019304D02*
X006721Y019304D01*
X006301Y018684D02*
X006301Y012135D01*
X006025Y012104D02*
X004618Y012104D01*
X004701Y012064D02*
X004701Y019052D01*
X004636Y018904D02*
X004851Y018904D01*
X004741Y019304D02*
X004721Y019304D01*
X005101Y019464D02*
X005101Y019544D01*
X005161Y019704D02*
X005241Y019704D01*
X005501Y019544D02*
X005501Y019464D01*
X005661Y019304D02*
X005681Y019304D01*
X005241Y019304D02*
X005161Y019304D01*
X005552Y018904D02*
X005766Y018904D01*
X005901Y018769D02*
X005901Y012053D01*
X005611Y011704D02*
X004969Y011704D01*
X005019Y011304D02*
X005585Y011304D01*
X005790Y010904D02*
X004803Y010904D01*
X004701Y010802D02*
X004701Y009961D01*
X004324Y009704D02*
X004204Y009704D01*
X004204Y009304D02*
X004324Y009304D01*
X004324Y008904D02*
X004204Y008904D01*
X006701Y008051D02*
X006701Y007926D01*
X006754Y008104D02*
X009701Y008104D01*
X010201Y008104D02*
X010701Y008104D01*
X010701Y008504D02*
X010201Y008504D01*
X009701Y008504D02*
X006895Y008504D01*
X006848Y007704D02*
X009701Y007704D01*
X010201Y007704D02*
X010701Y007704D01*
X010631Y007304D02*
X010201Y007304D01*
X009701Y007304D02*
X006887Y007304D01*
X006301Y006794D02*
X006301Y006004D01*
X006301Y005504D02*
X006301Y001004D01*
X005901Y001004D02*
X005901Y005504D01*
X005501Y005504D02*
X005501Y001004D01*
X005101Y001004D02*
X005101Y005504D01*
X004701Y005504D02*
X004701Y001004D01*
X004301Y001004D02*
X004301Y005504D01*
X003901Y005504D02*
X003901Y001004D01*
X003501Y001004D02*
X003501Y005504D01*
X003201Y005304D02*
X023444Y005304D01*
X023501Y005254D02*
X023501Y004726D01*
X023501Y004523D02*
X023501Y004485D01*
X023101Y004485D02*
X023101Y004523D01*
X022701Y004523D02*
X022701Y004485D01*
X022882Y004904D02*
X022920Y004904D01*
X023201Y005704D02*
X010201Y005704D01*
X010201Y006104D02*
X023344Y006104D01*
X023501Y006254D02*
X023501Y015004D01*
X024701Y016004D02*
X024701Y017986D01*
X024832Y018104D02*
X024870Y018104D01*
X024561Y018104D02*
X024141Y018104D01*
X023501Y018644D02*
X023501Y019079D01*
X023374Y019304D02*
X023329Y019304D01*
X023101Y018979D02*
X023101Y018744D01*
X022701Y018821D02*
X022701Y018926D01*
X023226Y019704D02*
X023476Y019704D01*
X023501Y019729D02*
X023501Y020076D01*
X023473Y020104D02*
X023229Y020104D01*
X023101Y019976D02*
X023101Y019829D01*
X023901Y019881D02*
X023901Y019954D01*
X024229Y020104D02*
X024473Y020104D01*
X024301Y020176D02*
X024301Y019629D01*
X024226Y019704D02*
X024476Y019704D01*
X024701Y019881D02*
X024701Y019954D01*
X025101Y019976D02*
X025101Y019829D01*
X025229Y020104D02*
X025473Y020104D01*
X024374Y019304D02*
X024329Y019304D01*
X023901Y018926D02*
X023901Y018821D01*
X021374Y019304D02*
X021329Y019304D01*
X020473Y020104D02*
X019679Y020104D01*
X019501Y019954D02*
X019501Y019879D01*
X019851Y020504D02*
X020301Y020504D01*
X020301Y020732D02*
X020301Y020276D01*
X017501Y019954D02*
X017501Y019879D01*
X020301Y016269D02*
X020301Y004534D01*
X020701Y004826D02*
X020701Y016184D01*
X026201Y015704D02*
X026201Y015704D01*
X027501Y016004D02*
X027501Y018164D01*
X027501Y018385D02*
X027501Y018423D01*
X027434Y018504D02*
X027269Y018504D01*
X027101Y018423D02*
X027101Y018385D01*
X026870Y018104D02*
X026832Y018104D01*
X027832Y018504D02*
X027870Y018504D01*
X028141Y018104D02*
X028201Y018104D01*
X027476Y019704D02*
X027226Y019704D01*
X027101Y019829D02*
X027101Y019976D01*
X027229Y020104D02*
X027473Y020104D01*
X027501Y020076D02*
X027501Y019729D01*
X027901Y019881D02*
X027901Y019954D01*
X028201Y015704D02*
X028201Y015704D01*
X028201Y015304D02*
X028201Y015304D01*
X028201Y008904D02*
X016025Y008904D01*
X016119Y008504D02*
X028201Y008504D01*
X028201Y008104D02*
X015828Y008104D01*
X015901Y008134D02*
X015901Y003938D01*
X016062Y004104D02*
X003201Y004104D01*
X003201Y003704D02*
X015674Y003704D01*
X015598Y003304D02*
X003201Y003304D01*
X003201Y002904D02*
X015594Y002904D01*
X015501Y002811D02*
X015501Y008134D01*
X015574Y008104D02*
X012101Y008104D01*
X012301Y008204D02*
X012301Y007915D01*
X012571Y007704D02*
X028201Y007704D01*
X028201Y007304D02*
X012571Y007304D01*
X012301Y007093D02*
X012301Y001004D01*
X012701Y001004D02*
X012701Y008204D01*
X013101Y008204D02*
X013101Y001004D01*
X013501Y001004D02*
X013501Y008204D01*
X013901Y008204D02*
X013901Y001004D01*
X014301Y001004D02*
X014301Y008204D01*
X014701Y008221D02*
X014701Y001004D01*
X015101Y001004D02*
X015101Y008580D01*
X015025Y008504D02*
X015283Y008504D01*
X015301Y010104D02*
X012801Y010104D01*
X012801Y010504D02*
X015301Y010504D01*
X015301Y010904D02*
X012801Y010904D01*
X011383Y010104D02*
X011301Y010104D01*
X011301Y009704D02*
X011501Y009704D01*
X011501Y009304D02*
X011301Y009304D01*
X011301Y008904D02*
X011501Y008904D01*
X011501Y008504D02*
X011301Y008504D01*
X011301Y008104D02*
X011501Y008104D01*
X011501Y007844D02*
X011547Y007734D01*
X011783Y007498D01*
X011783Y007421D01*
X011847Y007267D01*
X011831Y007304D02*
X011371Y007304D01*
X011371Y006904D02*
X028201Y006904D01*
X028201Y006504D02*
X010201Y006504D01*
X010201Y006904D02*
X010631Y006904D01*
X010701Y006813D02*
X010701Y001004D01*
X011101Y001004D02*
X011101Y006693D01*
X011301Y007704D02*
X011577Y007704D01*
X009701Y009304D02*
X006984Y009304D01*
X006951Y009704D02*
X009701Y009704D01*
X010701Y011095D02*
X010701Y011501D01*
X010585Y011704D02*
X010201Y011704D01*
X009701Y011704D02*
X006854Y011704D01*
X004301Y012188D02*
X004301Y018684D01*
X004721Y019704D02*
X004741Y019704D01*
X004701Y019956D02*
X004701Y021004D01*
X004301Y021004D02*
X004301Y020324D01*
X004636Y020104D02*
X004851Y020104D01*
X005101Y020254D02*
X005101Y021004D01*
X005161Y020104D02*
X005241Y020104D01*
X005661Y019704D02*
X005681Y019704D01*
X010201Y012504D02*
X010701Y012504D01*
X010701Y012104D02*
X010201Y012104D01*
X011101Y011381D02*
X011101Y011215D01*
X016501Y010504D02*
X018221Y010504D01*
X018301Y010783D02*
X018301Y011225D01*
X018264Y011304D02*
X016925Y011304D01*
X017101Y011480D02*
X017101Y004304D01*
X017501Y003704D02*
X017501Y002811D01*
X017401Y002711D02*
X017401Y002297D01*
X017201Y002097D01*
X017201Y001982D01*
X017401Y001782D01*
X017601Y001982D01*
X017601Y002097D01*
X017401Y002297D01*
X017401Y002711D01*
X017401Y002504D02*
X017401Y002504D01*
X017501Y002197D02*
X017501Y001882D01*
X017594Y002104D02*
X017208Y002104D01*
X016601Y002097D02*
X016601Y001982D01*
X016401Y001782D01*
X016201Y001982D01*
X016201Y002097D01*
X016401Y002297D01*
X016401Y002711D01*
X016401Y002297D01*
X016601Y002097D01*
X016594Y002104D02*
X016208Y002104D01*
X016301Y002197D02*
X016301Y001882D01*
X016401Y002504D02*
X016401Y002504D01*
X015594Y002104D02*
X003201Y002104D01*
X003201Y002504D02*
X015401Y002504D01*
X015501Y002197D02*
X015501Y001882D01*
X015351Y001704D02*
X003201Y001704D01*
X003201Y001304D02*
X015351Y001304D01*
X015501Y001126D02*
X015501Y001004D01*
X018179Y001004D02*
X018444Y001269D01*
X018698Y001014D01*
X018863Y001014D01*
X018863Y001465D01*
X018940Y001465D01*
X018940Y001542D01*
X019391Y001542D01*
X019391Y001707D01*
X019378Y001720D01*
X019424Y001720D01*
X019411Y001707D01*
X019411Y001542D01*
X019862Y001542D01*
X019862Y001465D01*
X019411Y001465D01*
X019411Y001301D01*
X019698Y001014D01*
X019863Y001014D01*
X019863Y001465D01*
X019940Y001465D01*
X019940Y001014D01*
X020104Y001014D01*
X020359Y001269D01*
X020623Y001004D01*
X018179Y001004D01*
X018301Y001004D02*
X018301Y001126D01*
X018701Y001014D02*
X018701Y001004D01*
X018940Y001014D02*
X019104Y001014D01*
X019391Y001301D01*
X019391Y001465D01*
X018940Y001465D01*
X018940Y001014D01*
X019101Y001004D02*
X019101Y001014D01*
X019501Y001004D02*
X019501Y001211D01*
X019411Y001304D02*
X019391Y001304D01*
X019501Y001465D02*
X019501Y001542D01*
X019411Y001704D02*
X019391Y001704D01*
X019101Y001542D02*
X019101Y001465D01*
X018940Y001304D02*
X018863Y001304D01*
X019863Y001304D02*
X019940Y001304D01*
X019901Y001465D02*
X019901Y001004D01*
X020301Y001004D02*
X020301Y001211D01*
X020301Y002485D02*
X020301Y002523D01*
X020401Y002504D02*
X019920Y002504D01*
X019901Y002523D02*
X019901Y003704D01*
X020301Y003704D02*
X020301Y002726D01*
X019882Y002504D02*
X018920Y002504D01*
X018920Y002523D02*
X019341Y002523D01*
X019341Y002686D01*
X019083Y002944D01*
X018920Y002944D01*
X018920Y002523D01*
X018882Y002504D02*
X018401Y002504D01*
X018701Y002485D02*
X018701Y002523D01*
X019101Y002523D02*
X019101Y002485D01*
X019501Y002485D02*
X019501Y002523D01*
X019501Y002726D02*
X019501Y003704D01*
X018920Y002904D02*
X018882Y002904D01*
X024701Y004485D02*
X024701Y004523D01*
X025101Y004523D02*
X025101Y004485D01*
X024920Y004904D02*
X024882Y004904D01*
X025201Y005704D02*
X025201Y005704D01*
X028058Y006104D02*
X028201Y006104D01*
X028201Y005704D02*
X028201Y005704D01*
X008701Y005504D02*
X008701Y001004D01*
X008301Y001004D02*
X008301Y005504D01*
X007901Y005504D02*
X007901Y001004D01*
X007501Y001004D02*
X007501Y005504D01*
X007101Y005504D02*
X007101Y001004D01*
X006701Y001004D02*
X006701Y005504D01*
M02*
