G75*
%MOIN*%
%OFA0B0*%
%FSLAX25Y25*%
%IPPOS*%
%LPD*%
%AMOC8*
5,1,8,0,0,1.08239X$1,22.5*
%
%ADD10R,0.04331X0.05512*%
%ADD11R,0.03937X0.04331*%
%ADD12R,0.07087X0.06299*%
%ADD13R,0.04134X0.04252*%
%ADD14R,0.02362X0.06299*%
%ADD15R,0.02362X0.02362*%
%ADD16R,0.03150X0.03150*%
%ADD17R,0.05906X0.07874*%
%ADD18C,0.00591*%
%ADD19C,0.00236*%
%ADD20R,0.06693X0.09449*%
%ADD21R,0.03543X0.05906*%
%ADD22R,0.05906X0.03543*%
%ADD23R,0.23622X0.23622*%
%ADD24R,0.04800X0.08800*%
%ADD25R,0.14173X0.08661*%
%ADD26R,0.06000X0.09000*%
D10*
X0105463Y0159300D03*
X0113337Y0159300D03*
X0125463Y0159300D03*
X0133337Y0159300D03*
X0145463Y0176800D03*
X0153337Y0176800D03*
X0205463Y0156800D03*
X0213337Y0156800D03*
D11*
X0212746Y0141800D03*
X0206054Y0141800D03*
X0172746Y0131800D03*
X0166054Y0131800D03*
X0152746Y0149300D03*
X0146054Y0149300D03*
X0112746Y0149300D03*
X0106054Y0149300D03*
X0106054Y0189300D03*
X0112746Y0189300D03*
X0169400Y0185954D03*
X0169400Y0192646D03*
X0199400Y0192646D03*
X0199400Y0185954D03*
X0080837Y0097745D03*
X0074144Y0097745D03*
X0074009Y0088355D03*
X0080702Y0088355D03*
D12*
X0079400Y0106288D03*
X0079400Y0117312D03*
X0121900Y0113788D03*
X0121900Y0124812D03*
D13*
X0145955Y0139300D03*
X0152845Y0139300D03*
X0132845Y0149300D03*
X0125955Y0149300D03*
X0145955Y0159300D03*
X0152845Y0159300D03*
X0152845Y0169300D03*
X0145955Y0169300D03*
X0146055Y0185400D03*
X0146155Y0191600D03*
X0153045Y0191600D03*
X0152945Y0185400D03*
X0112845Y0179300D03*
X0105955Y0179300D03*
X0105955Y0169300D03*
X0112845Y0169300D03*
X0185955Y0141800D03*
X0192845Y0141800D03*
X0205955Y0149300D03*
X0212845Y0149300D03*
X0212845Y0164300D03*
X0205955Y0164300D03*
X0205955Y0171800D03*
X0212845Y0171800D03*
X0109161Y0088234D03*
X0102271Y0088234D03*
D14*
X0093329Y0151850D03*
X0085463Y0151839D03*
X0125471Y0181750D03*
X0133337Y0181761D03*
X0093329Y0189350D03*
X0085463Y0189339D03*
D15*
X0089400Y0187017D03*
X0089400Y0191662D03*
X0129400Y0184083D03*
X0129400Y0179438D03*
X0089400Y0154162D03*
X0089400Y0149517D03*
D16*
X0199400Y0142253D03*
X0199400Y0136347D03*
D17*
X0095306Y0164300D03*
X0083494Y0164300D03*
X0083494Y0176800D03*
X0095306Y0176800D03*
D18*
X0176290Y0156190D02*
X0187510Y0156190D01*
X0176290Y0156190D02*
X0176290Y0167410D01*
X0187510Y0167410D01*
X0187510Y0156190D01*
X0187510Y0156780D02*
X0176290Y0156780D01*
X0176290Y0157370D02*
X0187510Y0157370D01*
X0187510Y0157960D02*
X0176290Y0157960D01*
X0176290Y0158550D02*
X0187510Y0158550D01*
X0187510Y0159140D02*
X0176290Y0159140D01*
X0176290Y0159730D02*
X0187510Y0159730D01*
X0187510Y0160320D02*
X0176290Y0160320D01*
X0176290Y0160910D02*
X0187510Y0160910D01*
X0187510Y0161500D02*
X0176290Y0161500D01*
X0176290Y0162090D02*
X0187510Y0162090D01*
X0187510Y0162680D02*
X0176290Y0162680D01*
X0176290Y0163270D02*
X0187510Y0163270D01*
X0187510Y0163860D02*
X0176290Y0163860D01*
X0176290Y0164450D02*
X0187510Y0164450D01*
X0187510Y0165040D02*
X0176290Y0165040D01*
X0176290Y0165630D02*
X0187510Y0165630D01*
X0187510Y0166220D02*
X0176290Y0166220D01*
X0176290Y0166810D02*
X0187510Y0166810D01*
X0187510Y0167400D02*
X0176290Y0167400D01*
D19*
X0169322Y0167611D02*
X0169322Y0167061D01*
X0169322Y0167611D02*
X0171644Y0167611D01*
X0171644Y0167061D01*
X0169322Y0167061D01*
X0169322Y0167296D02*
X0171644Y0167296D01*
X0171644Y0167531D02*
X0169322Y0167531D01*
X0169322Y0168635D02*
X0169322Y0169185D01*
X0171644Y0169185D01*
X0171644Y0168635D01*
X0169322Y0168635D01*
X0169322Y0168870D02*
X0171644Y0168870D01*
X0171644Y0169105D02*
X0169322Y0169105D01*
X0169322Y0170210D02*
X0169322Y0170760D01*
X0171644Y0170760D01*
X0171644Y0170210D01*
X0169322Y0170210D01*
X0169322Y0170445D02*
X0171644Y0170445D01*
X0171644Y0170680D02*
X0169322Y0170680D01*
X0172964Y0174402D02*
X0173514Y0174402D01*
X0173514Y0172080D01*
X0172964Y0172080D01*
X0172964Y0174402D01*
X0172964Y0172315D02*
X0173514Y0172315D01*
X0173514Y0172550D02*
X0172964Y0172550D01*
X0172964Y0172785D02*
X0173514Y0172785D01*
X0173514Y0173020D02*
X0172964Y0173020D01*
X0172964Y0173255D02*
X0173514Y0173255D01*
X0173514Y0173490D02*
X0172964Y0173490D01*
X0172964Y0173725D02*
X0173514Y0173725D01*
X0173514Y0173960D02*
X0172964Y0173960D01*
X0172964Y0174195D02*
X0173514Y0174195D01*
X0174538Y0174402D02*
X0175088Y0174402D01*
X0175088Y0172080D01*
X0174538Y0172080D01*
X0174538Y0174402D01*
X0174538Y0172315D02*
X0175088Y0172315D01*
X0175088Y0172550D02*
X0174538Y0172550D01*
X0174538Y0172785D02*
X0175088Y0172785D01*
X0175088Y0173020D02*
X0174538Y0173020D01*
X0174538Y0173255D02*
X0175088Y0173255D01*
X0175088Y0173490D02*
X0174538Y0173490D01*
X0174538Y0173725D02*
X0175088Y0173725D01*
X0175088Y0173960D02*
X0174538Y0173960D01*
X0174538Y0174195D02*
X0175088Y0174195D01*
X0176113Y0174402D02*
X0176663Y0174402D01*
X0176663Y0172080D01*
X0176113Y0172080D01*
X0176113Y0174402D01*
X0176113Y0172315D02*
X0176663Y0172315D01*
X0176663Y0172550D02*
X0176113Y0172550D01*
X0176113Y0172785D02*
X0176663Y0172785D01*
X0176663Y0173020D02*
X0176113Y0173020D01*
X0176113Y0173255D02*
X0176663Y0173255D01*
X0176663Y0173490D02*
X0176113Y0173490D01*
X0176113Y0173725D02*
X0176663Y0173725D01*
X0176663Y0173960D02*
X0176113Y0173960D01*
X0176113Y0174195D02*
X0176663Y0174195D01*
X0177688Y0174402D02*
X0178238Y0174402D01*
X0178238Y0172080D01*
X0177688Y0172080D01*
X0177688Y0174402D01*
X0177688Y0172315D02*
X0178238Y0172315D01*
X0178238Y0172550D02*
X0177688Y0172550D01*
X0177688Y0172785D02*
X0178238Y0172785D01*
X0178238Y0173020D02*
X0177688Y0173020D01*
X0177688Y0173255D02*
X0178238Y0173255D01*
X0178238Y0173490D02*
X0177688Y0173490D01*
X0177688Y0173725D02*
X0178238Y0173725D01*
X0178238Y0173960D02*
X0177688Y0173960D01*
X0177688Y0174195D02*
X0178238Y0174195D01*
X0179263Y0174402D02*
X0179813Y0174402D01*
X0179813Y0172080D01*
X0179263Y0172080D01*
X0179263Y0174402D01*
X0179263Y0172315D02*
X0179813Y0172315D01*
X0179813Y0172550D02*
X0179263Y0172550D01*
X0179263Y0172785D02*
X0179813Y0172785D01*
X0179813Y0173020D02*
X0179263Y0173020D01*
X0179263Y0173255D02*
X0179813Y0173255D01*
X0179813Y0173490D02*
X0179263Y0173490D01*
X0179263Y0173725D02*
X0179813Y0173725D01*
X0179813Y0173960D02*
X0179263Y0173960D01*
X0179263Y0174195D02*
X0179813Y0174195D01*
X0180838Y0174402D02*
X0181388Y0174402D01*
X0181388Y0172080D01*
X0180838Y0172080D01*
X0180838Y0174402D01*
X0180838Y0172315D02*
X0181388Y0172315D01*
X0181388Y0172550D02*
X0180838Y0172550D01*
X0180838Y0172785D02*
X0181388Y0172785D01*
X0181388Y0173020D02*
X0180838Y0173020D01*
X0180838Y0173255D02*
X0181388Y0173255D01*
X0181388Y0173490D02*
X0180838Y0173490D01*
X0180838Y0173725D02*
X0181388Y0173725D01*
X0181388Y0173960D02*
X0180838Y0173960D01*
X0180838Y0174195D02*
X0181388Y0174195D01*
X0182412Y0174402D02*
X0182962Y0174402D01*
X0182962Y0172080D01*
X0182412Y0172080D01*
X0182412Y0174402D01*
X0182412Y0172315D02*
X0182962Y0172315D01*
X0182962Y0172550D02*
X0182412Y0172550D01*
X0182412Y0172785D02*
X0182962Y0172785D01*
X0182962Y0173020D02*
X0182412Y0173020D01*
X0182412Y0173255D02*
X0182962Y0173255D01*
X0182962Y0173490D02*
X0182412Y0173490D01*
X0182412Y0173725D02*
X0182962Y0173725D01*
X0182962Y0173960D02*
X0182412Y0173960D01*
X0182412Y0174195D02*
X0182962Y0174195D01*
X0183987Y0174402D02*
X0184537Y0174402D01*
X0184537Y0172080D01*
X0183987Y0172080D01*
X0183987Y0174402D01*
X0183987Y0172315D02*
X0184537Y0172315D01*
X0184537Y0172550D02*
X0183987Y0172550D01*
X0183987Y0172785D02*
X0184537Y0172785D01*
X0184537Y0173020D02*
X0183987Y0173020D01*
X0183987Y0173255D02*
X0184537Y0173255D01*
X0184537Y0173490D02*
X0183987Y0173490D01*
X0183987Y0173725D02*
X0184537Y0173725D01*
X0184537Y0173960D02*
X0183987Y0173960D01*
X0183987Y0174195D02*
X0184537Y0174195D01*
X0185562Y0174402D02*
X0186112Y0174402D01*
X0186112Y0172080D01*
X0185562Y0172080D01*
X0185562Y0174402D01*
X0185562Y0172315D02*
X0186112Y0172315D01*
X0186112Y0172550D02*
X0185562Y0172550D01*
X0185562Y0172785D02*
X0186112Y0172785D01*
X0186112Y0173020D02*
X0185562Y0173020D01*
X0185562Y0173255D02*
X0186112Y0173255D01*
X0186112Y0173490D02*
X0185562Y0173490D01*
X0185562Y0173725D02*
X0186112Y0173725D01*
X0186112Y0173960D02*
X0185562Y0173960D01*
X0185562Y0174195D02*
X0186112Y0174195D01*
X0187137Y0174402D02*
X0187687Y0174402D01*
X0187687Y0172080D01*
X0187137Y0172080D01*
X0187137Y0174402D01*
X0187137Y0172315D02*
X0187687Y0172315D01*
X0187687Y0172550D02*
X0187137Y0172550D01*
X0187137Y0172785D02*
X0187687Y0172785D01*
X0187687Y0173020D02*
X0187137Y0173020D01*
X0187137Y0173255D02*
X0187687Y0173255D01*
X0187687Y0173490D02*
X0187137Y0173490D01*
X0187137Y0173725D02*
X0187687Y0173725D01*
X0187687Y0173960D02*
X0187137Y0173960D01*
X0187137Y0174195D02*
X0187687Y0174195D01*
X0188712Y0174402D02*
X0189262Y0174402D01*
X0189262Y0172080D01*
X0188712Y0172080D01*
X0188712Y0174402D01*
X0188712Y0172315D02*
X0189262Y0172315D01*
X0189262Y0172550D02*
X0188712Y0172550D01*
X0188712Y0172785D02*
X0189262Y0172785D01*
X0189262Y0173020D02*
X0188712Y0173020D01*
X0188712Y0173255D02*
X0189262Y0173255D01*
X0189262Y0173490D02*
X0188712Y0173490D01*
X0188712Y0173725D02*
X0189262Y0173725D01*
X0189262Y0173960D02*
X0188712Y0173960D01*
X0188712Y0174195D02*
X0189262Y0174195D01*
X0190286Y0174402D02*
X0190836Y0174402D01*
X0190836Y0172080D01*
X0190286Y0172080D01*
X0190286Y0174402D01*
X0190286Y0172315D02*
X0190836Y0172315D01*
X0190836Y0172550D02*
X0190286Y0172550D01*
X0190286Y0172785D02*
X0190836Y0172785D01*
X0190836Y0173020D02*
X0190286Y0173020D01*
X0190286Y0173255D02*
X0190836Y0173255D01*
X0190836Y0173490D02*
X0190286Y0173490D01*
X0190286Y0173725D02*
X0190836Y0173725D01*
X0190836Y0173960D02*
X0190286Y0173960D01*
X0190286Y0174195D02*
X0190836Y0174195D01*
X0194478Y0170760D02*
X0194478Y0170210D01*
X0192156Y0170210D01*
X0192156Y0170760D01*
X0194478Y0170760D01*
X0194478Y0170445D02*
X0192156Y0170445D01*
X0192156Y0170680D02*
X0194478Y0170680D01*
X0194478Y0169185D02*
X0194478Y0168635D01*
X0192156Y0168635D01*
X0192156Y0169185D01*
X0194478Y0169185D01*
X0194478Y0168870D02*
X0192156Y0168870D01*
X0192156Y0169105D02*
X0194478Y0169105D01*
X0194478Y0167611D02*
X0194478Y0167061D01*
X0192156Y0167061D01*
X0192156Y0167611D01*
X0194478Y0167611D01*
X0194478Y0167296D02*
X0192156Y0167296D01*
X0192156Y0167531D02*
X0194478Y0167531D01*
X0194478Y0166036D02*
X0194478Y0165486D01*
X0192156Y0165486D01*
X0192156Y0166036D01*
X0194478Y0166036D01*
X0194478Y0165721D02*
X0192156Y0165721D01*
X0192156Y0165956D02*
X0194478Y0165956D01*
X0194478Y0164461D02*
X0194478Y0163911D01*
X0192156Y0163911D01*
X0192156Y0164461D01*
X0194478Y0164461D01*
X0194478Y0164146D02*
X0192156Y0164146D01*
X0192156Y0164381D02*
X0194478Y0164381D01*
X0194478Y0162886D02*
X0194478Y0162336D01*
X0192156Y0162336D01*
X0192156Y0162886D01*
X0194478Y0162886D01*
X0194478Y0162571D02*
X0192156Y0162571D01*
X0192156Y0162806D02*
X0194478Y0162806D01*
X0194478Y0161311D02*
X0194478Y0160761D01*
X0192156Y0160761D01*
X0192156Y0161311D01*
X0194478Y0161311D01*
X0194478Y0160996D02*
X0192156Y0160996D01*
X0192156Y0161231D02*
X0194478Y0161231D01*
X0194478Y0159737D02*
X0194478Y0159187D01*
X0192156Y0159187D01*
X0192156Y0159737D01*
X0194478Y0159737D01*
X0194478Y0159422D02*
X0192156Y0159422D01*
X0192156Y0159657D02*
X0194478Y0159657D01*
X0194478Y0158162D02*
X0194478Y0157612D01*
X0192156Y0157612D01*
X0192156Y0158162D01*
X0194478Y0158162D01*
X0194478Y0157847D02*
X0192156Y0157847D01*
X0192156Y0158082D02*
X0194478Y0158082D01*
X0194478Y0156587D02*
X0194478Y0156037D01*
X0192156Y0156037D01*
X0192156Y0156587D01*
X0194478Y0156587D01*
X0194478Y0156272D02*
X0192156Y0156272D01*
X0192156Y0156507D02*
X0194478Y0156507D01*
X0194478Y0155012D02*
X0194478Y0154462D01*
X0192156Y0154462D01*
X0192156Y0155012D01*
X0194478Y0155012D01*
X0194478Y0154697D02*
X0192156Y0154697D01*
X0192156Y0154932D02*
X0194478Y0154932D01*
X0194478Y0153437D02*
X0194478Y0152887D01*
X0192156Y0152887D01*
X0192156Y0153437D01*
X0194478Y0153437D01*
X0194478Y0153122D02*
X0192156Y0153122D01*
X0192156Y0153357D02*
X0194478Y0153357D01*
X0190836Y0149245D02*
X0190286Y0149245D01*
X0190286Y0151567D01*
X0190836Y0151567D01*
X0190836Y0149245D01*
X0190836Y0149480D02*
X0190286Y0149480D01*
X0190286Y0149715D02*
X0190836Y0149715D01*
X0190836Y0149950D02*
X0190286Y0149950D01*
X0190286Y0150185D02*
X0190836Y0150185D01*
X0190836Y0150420D02*
X0190286Y0150420D01*
X0190286Y0150655D02*
X0190836Y0150655D01*
X0190836Y0150890D02*
X0190286Y0150890D01*
X0190286Y0151125D02*
X0190836Y0151125D01*
X0190836Y0151360D02*
X0190286Y0151360D01*
X0189262Y0149245D02*
X0188712Y0149245D01*
X0188712Y0151567D01*
X0189262Y0151567D01*
X0189262Y0149245D01*
X0189262Y0149480D02*
X0188712Y0149480D01*
X0188712Y0149715D02*
X0189262Y0149715D01*
X0189262Y0149950D02*
X0188712Y0149950D01*
X0188712Y0150185D02*
X0189262Y0150185D01*
X0189262Y0150420D02*
X0188712Y0150420D01*
X0188712Y0150655D02*
X0189262Y0150655D01*
X0189262Y0150890D02*
X0188712Y0150890D01*
X0188712Y0151125D02*
X0189262Y0151125D01*
X0189262Y0151360D02*
X0188712Y0151360D01*
X0187687Y0149245D02*
X0187137Y0149245D01*
X0187137Y0151567D01*
X0187687Y0151567D01*
X0187687Y0149245D01*
X0187687Y0149480D02*
X0187137Y0149480D01*
X0187137Y0149715D02*
X0187687Y0149715D01*
X0187687Y0149950D02*
X0187137Y0149950D01*
X0187137Y0150185D02*
X0187687Y0150185D01*
X0187687Y0150420D02*
X0187137Y0150420D01*
X0187137Y0150655D02*
X0187687Y0150655D01*
X0187687Y0150890D02*
X0187137Y0150890D01*
X0187137Y0151125D02*
X0187687Y0151125D01*
X0187687Y0151360D02*
X0187137Y0151360D01*
X0186112Y0149245D02*
X0185562Y0149245D01*
X0185562Y0151567D01*
X0186112Y0151567D01*
X0186112Y0149245D01*
X0186112Y0149480D02*
X0185562Y0149480D01*
X0185562Y0149715D02*
X0186112Y0149715D01*
X0186112Y0149950D02*
X0185562Y0149950D01*
X0185562Y0150185D02*
X0186112Y0150185D01*
X0186112Y0150420D02*
X0185562Y0150420D01*
X0185562Y0150655D02*
X0186112Y0150655D01*
X0186112Y0150890D02*
X0185562Y0150890D01*
X0185562Y0151125D02*
X0186112Y0151125D01*
X0186112Y0151360D02*
X0185562Y0151360D01*
X0184537Y0149245D02*
X0183987Y0149245D01*
X0183987Y0151567D01*
X0184537Y0151567D01*
X0184537Y0149245D01*
X0184537Y0149480D02*
X0183987Y0149480D01*
X0183987Y0149715D02*
X0184537Y0149715D01*
X0184537Y0149950D02*
X0183987Y0149950D01*
X0183987Y0150185D02*
X0184537Y0150185D01*
X0184537Y0150420D02*
X0183987Y0150420D01*
X0183987Y0150655D02*
X0184537Y0150655D01*
X0184537Y0150890D02*
X0183987Y0150890D01*
X0183987Y0151125D02*
X0184537Y0151125D01*
X0184537Y0151360D02*
X0183987Y0151360D01*
X0182962Y0149245D02*
X0182412Y0149245D01*
X0182412Y0151567D01*
X0182962Y0151567D01*
X0182962Y0149245D01*
X0182962Y0149480D02*
X0182412Y0149480D01*
X0182412Y0149715D02*
X0182962Y0149715D01*
X0182962Y0149950D02*
X0182412Y0149950D01*
X0182412Y0150185D02*
X0182962Y0150185D01*
X0182962Y0150420D02*
X0182412Y0150420D01*
X0182412Y0150655D02*
X0182962Y0150655D01*
X0182962Y0150890D02*
X0182412Y0150890D01*
X0182412Y0151125D02*
X0182962Y0151125D01*
X0182962Y0151360D02*
X0182412Y0151360D01*
X0181388Y0149245D02*
X0180838Y0149245D01*
X0180838Y0151567D01*
X0181388Y0151567D01*
X0181388Y0149245D01*
X0181388Y0149480D02*
X0180838Y0149480D01*
X0180838Y0149715D02*
X0181388Y0149715D01*
X0181388Y0149950D02*
X0180838Y0149950D01*
X0180838Y0150185D02*
X0181388Y0150185D01*
X0181388Y0150420D02*
X0180838Y0150420D01*
X0180838Y0150655D02*
X0181388Y0150655D01*
X0181388Y0150890D02*
X0180838Y0150890D01*
X0180838Y0151125D02*
X0181388Y0151125D01*
X0181388Y0151360D02*
X0180838Y0151360D01*
X0179813Y0149245D02*
X0179263Y0149245D01*
X0179263Y0151567D01*
X0179813Y0151567D01*
X0179813Y0149245D01*
X0179813Y0149480D02*
X0179263Y0149480D01*
X0179263Y0149715D02*
X0179813Y0149715D01*
X0179813Y0149950D02*
X0179263Y0149950D01*
X0179263Y0150185D02*
X0179813Y0150185D01*
X0179813Y0150420D02*
X0179263Y0150420D01*
X0179263Y0150655D02*
X0179813Y0150655D01*
X0179813Y0150890D02*
X0179263Y0150890D01*
X0179263Y0151125D02*
X0179813Y0151125D01*
X0179813Y0151360D02*
X0179263Y0151360D01*
X0178238Y0149245D02*
X0177688Y0149245D01*
X0177688Y0151567D01*
X0178238Y0151567D01*
X0178238Y0149245D01*
X0178238Y0149480D02*
X0177688Y0149480D01*
X0177688Y0149715D02*
X0178238Y0149715D01*
X0178238Y0149950D02*
X0177688Y0149950D01*
X0177688Y0150185D02*
X0178238Y0150185D01*
X0178238Y0150420D02*
X0177688Y0150420D01*
X0177688Y0150655D02*
X0178238Y0150655D01*
X0178238Y0150890D02*
X0177688Y0150890D01*
X0177688Y0151125D02*
X0178238Y0151125D01*
X0178238Y0151360D02*
X0177688Y0151360D01*
X0176663Y0149245D02*
X0176113Y0149245D01*
X0176113Y0151567D01*
X0176663Y0151567D01*
X0176663Y0149245D01*
X0176663Y0149480D02*
X0176113Y0149480D01*
X0176113Y0149715D02*
X0176663Y0149715D01*
X0176663Y0149950D02*
X0176113Y0149950D01*
X0176113Y0150185D02*
X0176663Y0150185D01*
X0176663Y0150420D02*
X0176113Y0150420D01*
X0176113Y0150655D02*
X0176663Y0150655D01*
X0176663Y0150890D02*
X0176113Y0150890D01*
X0176113Y0151125D02*
X0176663Y0151125D01*
X0176663Y0151360D02*
X0176113Y0151360D01*
X0175088Y0149245D02*
X0174538Y0149245D01*
X0174538Y0151567D01*
X0175088Y0151567D01*
X0175088Y0149245D01*
X0175088Y0149480D02*
X0174538Y0149480D01*
X0174538Y0149715D02*
X0175088Y0149715D01*
X0175088Y0149950D02*
X0174538Y0149950D01*
X0174538Y0150185D02*
X0175088Y0150185D01*
X0175088Y0150420D02*
X0174538Y0150420D01*
X0174538Y0150655D02*
X0175088Y0150655D01*
X0175088Y0150890D02*
X0174538Y0150890D01*
X0174538Y0151125D02*
X0175088Y0151125D01*
X0175088Y0151360D02*
X0174538Y0151360D01*
X0173514Y0149245D02*
X0172964Y0149245D01*
X0172964Y0151567D01*
X0173514Y0151567D01*
X0173514Y0149245D01*
X0173514Y0149480D02*
X0172964Y0149480D01*
X0172964Y0149715D02*
X0173514Y0149715D01*
X0173514Y0149950D02*
X0172964Y0149950D01*
X0172964Y0150185D02*
X0173514Y0150185D01*
X0173514Y0150420D02*
X0172964Y0150420D01*
X0172964Y0150655D02*
X0173514Y0150655D01*
X0173514Y0150890D02*
X0172964Y0150890D01*
X0172964Y0151125D02*
X0173514Y0151125D01*
X0173514Y0151360D02*
X0172964Y0151360D01*
X0169322Y0152887D02*
X0169322Y0153437D01*
X0171644Y0153437D01*
X0171644Y0152887D01*
X0169322Y0152887D01*
X0169322Y0153122D02*
X0171644Y0153122D01*
X0171644Y0153357D02*
X0169322Y0153357D01*
X0169322Y0154462D02*
X0169322Y0155012D01*
X0171644Y0155012D01*
X0171644Y0154462D01*
X0169322Y0154462D01*
X0169322Y0154697D02*
X0171644Y0154697D01*
X0171644Y0154932D02*
X0169322Y0154932D01*
X0169322Y0156037D02*
X0169322Y0156587D01*
X0171644Y0156587D01*
X0171644Y0156037D01*
X0169322Y0156037D01*
X0169322Y0156272D02*
X0171644Y0156272D01*
X0171644Y0156507D02*
X0169322Y0156507D01*
X0169322Y0157612D02*
X0169322Y0158162D01*
X0171644Y0158162D01*
X0171644Y0157612D01*
X0169322Y0157612D01*
X0169322Y0157847D02*
X0171644Y0157847D01*
X0171644Y0158082D02*
X0169322Y0158082D01*
X0169322Y0159187D02*
X0169322Y0159737D01*
X0171644Y0159737D01*
X0171644Y0159187D01*
X0169322Y0159187D01*
X0169322Y0159422D02*
X0171644Y0159422D01*
X0171644Y0159657D02*
X0169322Y0159657D01*
X0169322Y0160761D02*
X0169322Y0161311D01*
X0171644Y0161311D01*
X0171644Y0160761D01*
X0169322Y0160761D01*
X0169322Y0160996D02*
X0171644Y0160996D01*
X0171644Y0161231D02*
X0169322Y0161231D01*
X0169322Y0162336D02*
X0169322Y0162886D01*
X0171644Y0162886D01*
X0171644Y0162336D01*
X0169322Y0162336D01*
X0169322Y0162571D02*
X0171644Y0162571D01*
X0171644Y0162806D02*
X0169322Y0162806D01*
X0169322Y0163911D02*
X0169322Y0164461D01*
X0171644Y0164461D01*
X0171644Y0163911D01*
X0169322Y0163911D01*
X0169322Y0164146D02*
X0171644Y0164146D01*
X0171644Y0164381D02*
X0169322Y0164381D01*
X0169322Y0165486D02*
X0169322Y0166036D01*
X0171644Y0166036D01*
X0171644Y0165486D01*
X0169322Y0165486D01*
X0169322Y0165721D02*
X0171644Y0165721D01*
X0171644Y0165956D02*
X0169322Y0165956D01*
D20*
X0177117Y0189300D03*
X0191683Y0189300D03*
D21*
X0192215Y0117233D03*
X0197215Y0117233D03*
X0202215Y0117233D03*
X0187215Y0117233D03*
X0182215Y0117233D03*
X0177215Y0117233D03*
X0172215Y0117233D03*
X0167215Y0117233D03*
X0162215Y0117233D03*
X0157215Y0117233D03*
X0152215Y0117233D03*
X0147215Y0117233D03*
X0142215Y0117233D03*
X0137215Y0117233D03*
X0137215Y0046367D03*
X0142215Y0046367D03*
X0147215Y0046367D03*
X0152215Y0046367D03*
X0157215Y0046367D03*
X0162215Y0046367D03*
X0167215Y0046367D03*
X0172215Y0046367D03*
X0177215Y0046367D03*
X0182215Y0046367D03*
X0187215Y0046367D03*
X0192215Y0046367D03*
X0197215Y0046367D03*
X0202215Y0046367D03*
D22*
X0131349Y0059300D03*
X0131349Y0064300D03*
X0131349Y0069300D03*
X0131349Y0074300D03*
X0131349Y0079300D03*
X0131349Y0084300D03*
X0131349Y0089300D03*
X0131349Y0094300D03*
X0131349Y0099300D03*
X0131349Y0104300D03*
D23*
X0171900Y0081800D03*
D24*
X0108657Y0099167D03*
X0099557Y0099167D03*
X0090457Y0099167D03*
D25*
X0099557Y0123568D03*
D26*
X0062300Y0052500D03*
X0080300Y0052500D03*
X0092500Y0052400D03*
X0110500Y0052400D03*
X0110500Y0078400D03*
X0092500Y0078400D03*
X0080300Y0078500D03*
X0062300Y0078500D03*
M02*
