G04 EAGLE Gerber X2 export*
%TF.Part,Single*%
%TF.FileFunction,Paste,Top*%
%TF.FilePolarity,Positive*%
%TF.GenerationSoftware,Autodesk,EAGLE,9.0.0*%
%TF.CreationDate,2018-05-01T01:03:05Z*%
G75*
%MOMM*%
%FSLAX34Y34*%
%LPD*%
%AMOC8*
5,1,8,0,0,1.08239X$1,22.5*%
G01*
%ADD10R,1.100000X1.400000*%
%ADD11R,1.000000X1.100000*%
%ADD12R,1.050000X1.080000*%
%ADD13R,1.400000X1.100000*%
%ADD14R,0.600000X1.600000*%
%ADD15R,0.600000X0.600000*%
%ADD16R,0.800000X0.800000*%
%ADD17R,1.500000X2.000000*%
%ADD18C,0.150000*%
%ADD19C,0.060000*%
%ADD20R,1.700000X2.400000*%


D10*
X440850Y101600D03*
X460850Y101600D03*
D11*
X425450Y175650D03*
X425450Y192650D03*
D12*
X256400Y95250D03*
X238900Y95250D03*
D13*
X266700Y60800D03*
X266700Y40800D03*
D12*
X307454Y174244D03*
X289954Y174244D03*
D10*
X206850Y107950D03*
X186850Y107950D03*
D12*
X205600Y133350D03*
X188100Y133350D03*
X391300Y63500D03*
X408800Y63500D03*
X307200Y107950D03*
X289700Y107950D03*
X442100Y139700D03*
X459600Y139700D03*
X296050Y57150D03*
X313550Y57150D03*
D10*
X308450Y152400D03*
X288450Y152400D03*
D12*
X307200Y133350D03*
X289700Y133350D03*
X442100Y120650D03*
X459600Y120650D03*
X307708Y189992D03*
X290208Y189992D03*
D10*
X257650Y114300D03*
X237650Y114300D03*
D12*
X442100Y82550D03*
X459600Y82550D03*
D11*
X349250Y175650D03*
X349250Y192650D03*
D14*
X237671Y164972D03*
X257650Y165000D03*
D15*
X247650Y159100D03*
X247650Y170900D03*
D14*
X156029Y89028D03*
X136050Y89000D03*
D15*
X146050Y94900D03*
X146050Y83100D03*
D14*
X156029Y184278D03*
X136050Y184250D03*
D15*
X146050Y190150D03*
X146050Y178350D03*
D16*
X425450Y49650D03*
X425450Y64650D03*
D17*
X161050Y120650D03*
X131050Y120650D03*
X161050Y152400D03*
X131050Y152400D03*
D11*
X459350Y63500D03*
X442350Y63500D03*
X188350Y82550D03*
X205350Y82550D03*
X353450Y38100D03*
X370450Y38100D03*
X205350Y184150D03*
X188350Y184150D03*
X306950Y82550D03*
X289950Y82550D03*
D12*
X205600Y158750D03*
X188100Y158750D03*
D18*
X366750Y100050D02*
X395250Y100050D01*
X366750Y100050D02*
X366750Y128550D01*
X395250Y128550D01*
X395250Y100050D01*
X395250Y101549D02*
X366750Y101549D01*
X366750Y103048D02*
X395250Y103048D01*
X395250Y104547D02*
X366750Y104547D01*
X366750Y106046D02*
X395250Y106046D01*
X395250Y107545D02*
X366750Y107545D01*
X366750Y109044D02*
X395250Y109044D01*
X395250Y110543D02*
X366750Y110543D01*
X366750Y112042D02*
X395250Y112042D01*
X395250Y113541D02*
X366750Y113541D01*
X366750Y115040D02*
X395250Y115040D01*
X395250Y116539D02*
X366750Y116539D01*
X366750Y118038D02*
X395250Y118038D01*
X395250Y119537D02*
X366750Y119537D01*
X366750Y121036D02*
X395250Y121036D01*
X395250Y122535D02*
X366750Y122535D01*
X366750Y124034D02*
X395250Y124034D01*
X395250Y125533D02*
X366750Y125533D01*
X366750Y127032D02*
X395250Y127032D01*
X395250Y128531D02*
X366750Y128531D01*
D19*
X349050Y135660D02*
X349050Y137060D01*
X354950Y137060D01*
X354950Y135660D01*
X349050Y135660D01*
X349050Y136259D02*
X354950Y136259D01*
X354950Y136858D02*
X349050Y136858D01*
X349050Y133060D02*
X349050Y131660D01*
X349050Y133060D02*
X354950Y133060D01*
X354950Y131660D01*
X349050Y131660D01*
X349050Y132259D02*
X354950Y132259D01*
X354950Y132858D02*
X349050Y132858D01*
X349050Y129060D02*
X349050Y127660D01*
X349050Y129060D02*
X354950Y129060D01*
X354950Y127660D01*
X349050Y127660D01*
X349050Y128259D02*
X354950Y128259D01*
X354950Y128858D02*
X349050Y128858D01*
X349050Y125060D02*
X349050Y123660D01*
X349050Y125060D02*
X354950Y125060D01*
X354950Y123660D01*
X349050Y123660D01*
X349050Y124259D02*
X354950Y124259D01*
X354950Y124858D02*
X349050Y124858D01*
X349050Y121060D02*
X349050Y119660D01*
X349050Y121060D02*
X354950Y121060D01*
X354950Y119660D01*
X349050Y119660D01*
X349050Y120259D02*
X354950Y120259D01*
X354950Y120858D02*
X349050Y120858D01*
X349050Y117060D02*
X349050Y115660D01*
X349050Y117060D02*
X354950Y117060D01*
X354950Y115660D01*
X349050Y115660D01*
X349050Y116259D02*
X354950Y116259D01*
X354950Y116858D02*
X349050Y116858D01*
X349050Y113060D02*
X349050Y111660D01*
X349050Y113060D02*
X354950Y113060D01*
X354950Y111660D01*
X349050Y111660D01*
X349050Y112259D02*
X354950Y112259D01*
X354950Y112858D02*
X349050Y112858D01*
X349050Y109060D02*
X349050Y107660D01*
X349050Y109060D02*
X354950Y109060D01*
X354950Y107660D01*
X349050Y107660D01*
X349050Y108259D02*
X354950Y108259D01*
X354950Y108858D02*
X349050Y108858D01*
X349050Y105060D02*
X349050Y103660D01*
X349050Y105060D02*
X354950Y105060D01*
X354950Y103660D01*
X349050Y103660D01*
X349050Y104259D02*
X354950Y104259D01*
X354950Y104858D02*
X349050Y104858D01*
X349050Y101060D02*
X349050Y99660D01*
X349050Y101060D02*
X354950Y101060D01*
X354950Y99660D01*
X349050Y99660D01*
X349050Y100259D02*
X354950Y100259D01*
X354950Y100858D02*
X349050Y100858D01*
X349050Y97060D02*
X349050Y95660D01*
X349050Y97060D02*
X354950Y97060D01*
X354950Y95660D01*
X349050Y95660D01*
X349050Y96259D02*
X354950Y96259D01*
X354950Y96858D02*
X349050Y96858D01*
X349050Y93060D02*
X349050Y91660D01*
X349050Y93060D02*
X354950Y93060D01*
X354950Y91660D01*
X349050Y91660D01*
X349050Y92259D02*
X354950Y92259D01*
X354950Y92858D02*
X349050Y92858D01*
X358300Y82410D02*
X359700Y82410D01*
X358300Y82410D02*
X358300Y88310D01*
X359700Y88310D01*
X359700Y82410D01*
X359700Y83009D02*
X358300Y83009D01*
X358300Y83608D02*
X359700Y83608D01*
X359700Y84207D02*
X358300Y84207D01*
X358300Y84806D02*
X359700Y84806D01*
X359700Y85405D02*
X358300Y85405D01*
X358300Y86004D02*
X359700Y86004D01*
X359700Y86603D02*
X358300Y86603D01*
X358300Y87202D02*
X359700Y87202D01*
X359700Y87801D02*
X358300Y87801D01*
X362300Y82410D02*
X363700Y82410D01*
X362300Y82410D02*
X362300Y88310D01*
X363700Y88310D01*
X363700Y82410D01*
X363700Y83009D02*
X362300Y83009D01*
X362300Y83608D02*
X363700Y83608D01*
X363700Y84207D02*
X362300Y84207D01*
X362300Y84806D02*
X363700Y84806D01*
X363700Y85405D02*
X362300Y85405D01*
X362300Y86004D02*
X363700Y86004D01*
X363700Y86603D02*
X362300Y86603D01*
X362300Y87202D02*
X363700Y87202D01*
X363700Y87801D02*
X362300Y87801D01*
X366300Y82410D02*
X367700Y82410D01*
X366300Y82410D02*
X366300Y88310D01*
X367700Y88310D01*
X367700Y82410D01*
X367700Y83009D02*
X366300Y83009D01*
X366300Y83608D02*
X367700Y83608D01*
X367700Y84207D02*
X366300Y84207D01*
X366300Y84806D02*
X367700Y84806D01*
X367700Y85405D02*
X366300Y85405D01*
X366300Y86004D02*
X367700Y86004D01*
X367700Y86603D02*
X366300Y86603D01*
X366300Y87202D02*
X367700Y87202D01*
X367700Y87801D02*
X366300Y87801D01*
X370300Y82410D02*
X371700Y82410D01*
X370300Y82410D02*
X370300Y88310D01*
X371700Y88310D01*
X371700Y82410D01*
X371700Y83009D02*
X370300Y83009D01*
X370300Y83608D02*
X371700Y83608D01*
X371700Y84207D02*
X370300Y84207D01*
X370300Y84806D02*
X371700Y84806D01*
X371700Y85405D02*
X370300Y85405D01*
X370300Y86004D02*
X371700Y86004D01*
X371700Y86603D02*
X370300Y86603D01*
X370300Y87202D02*
X371700Y87202D01*
X371700Y87801D02*
X370300Y87801D01*
X374300Y82410D02*
X375700Y82410D01*
X374300Y82410D02*
X374300Y88310D01*
X375700Y88310D01*
X375700Y82410D01*
X375700Y83009D02*
X374300Y83009D01*
X374300Y83608D02*
X375700Y83608D01*
X375700Y84207D02*
X374300Y84207D01*
X374300Y84806D02*
X375700Y84806D01*
X375700Y85405D02*
X374300Y85405D01*
X374300Y86004D02*
X375700Y86004D01*
X375700Y86603D02*
X374300Y86603D01*
X374300Y87202D02*
X375700Y87202D01*
X375700Y87801D02*
X374300Y87801D01*
X378300Y82410D02*
X379700Y82410D01*
X378300Y82410D02*
X378300Y88310D01*
X379700Y88310D01*
X379700Y82410D01*
X379700Y83009D02*
X378300Y83009D01*
X378300Y83608D02*
X379700Y83608D01*
X379700Y84207D02*
X378300Y84207D01*
X378300Y84806D02*
X379700Y84806D01*
X379700Y85405D02*
X378300Y85405D01*
X378300Y86004D02*
X379700Y86004D01*
X379700Y86603D02*
X378300Y86603D01*
X378300Y87202D02*
X379700Y87202D01*
X379700Y87801D02*
X378300Y87801D01*
X382300Y82410D02*
X383700Y82410D01*
X382300Y82410D02*
X382300Y88310D01*
X383700Y88310D01*
X383700Y82410D01*
X383700Y83009D02*
X382300Y83009D01*
X382300Y83608D02*
X383700Y83608D01*
X383700Y84207D02*
X382300Y84207D01*
X382300Y84806D02*
X383700Y84806D01*
X383700Y85405D02*
X382300Y85405D01*
X382300Y86004D02*
X383700Y86004D01*
X383700Y86603D02*
X382300Y86603D01*
X382300Y87202D02*
X383700Y87202D01*
X383700Y87801D02*
X382300Y87801D01*
X386300Y82410D02*
X387700Y82410D01*
X386300Y82410D02*
X386300Y88310D01*
X387700Y88310D01*
X387700Y82410D01*
X387700Y83009D02*
X386300Y83009D01*
X386300Y83608D02*
X387700Y83608D01*
X387700Y84207D02*
X386300Y84207D01*
X386300Y84806D02*
X387700Y84806D01*
X387700Y85405D02*
X386300Y85405D01*
X386300Y86004D02*
X387700Y86004D01*
X387700Y86603D02*
X386300Y86603D01*
X386300Y87202D02*
X387700Y87202D01*
X387700Y87801D02*
X386300Y87801D01*
X390300Y82410D02*
X391700Y82410D01*
X390300Y82410D02*
X390300Y88310D01*
X391700Y88310D01*
X391700Y82410D01*
X391700Y83009D02*
X390300Y83009D01*
X390300Y83608D02*
X391700Y83608D01*
X391700Y84207D02*
X390300Y84207D01*
X390300Y84806D02*
X391700Y84806D01*
X391700Y85405D02*
X390300Y85405D01*
X390300Y86004D02*
X391700Y86004D01*
X391700Y86603D02*
X390300Y86603D01*
X390300Y87202D02*
X391700Y87202D01*
X391700Y87801D02*
X390300Y87801D01*
X394300Y82410D02*
X395700Y82410D01*
X394300Y82410D02*
X394300Y88310D01*
X395700Y88310D01*
X395700Y82410D01*
X395700Y83009D02*
X394300Y83009D01*
X394300Y83608D02*
X395700Y83608D01*
X395700Y84207D02*
X394300Y84207D01*
X394300Y84806D02*
X395700Y84806D01*
X395700Y85405D02*
X394300Y85405D01*
X394300Y86004D02*
X395700Y86004D01*
X395700Y86603D02*
X394300Y86603D01*
X394300Y87202D02*
X395700Y87202D01*
X395700Y87801D02*
X394300Y87801D01*
X398300Y82410D02*
X399700Y82410D01*
X398300Y82410D02*
X398300Y88310D01*
X399700Y88310D01*
X399700Y82410D01*
X399700Y83009D02*
X398300Y83009D01*
X398300Y83608D02*
X399700Y83608D01*
X399700Y84207D02*
X398300Y84207D01*
X398300Y84806D02*
X399700Y84806D01*
X399700Y85405D02*
X398300Y85405D01*
X398300Y86004D02*
X399700Y86004D01*
X399700Y86603D02*
X398300Y86603D01*
X398300Y87202D02*
X399700Y87202D01*
X399700Y87801D02*
X398300Y87801D01*
X402300Y82410D02*
X403700Y82410D01*
X402300Y82410D02*
X402300Y88310D01*
X403700Y88310D01*
X403700Y82410D01*
X403700Y83009D02*
X402300Y83009D01*
X402300Y83608D02*
X403700Y83608D01*
X403700Y84207D02*
X402300Y84207D01*
X402300Y84806D02*
X403700Y84806D01*
X403700Y85405D02*
X402300Y85405D01*
X402300Y86004D02*
X403700Y86004D01*
X403700Y86603D02*
X402300Y86603D01*
X402300Y87202D02*
X403700Y87202D01*
X403700Y87801D02*
X402300Y87801D01*
X412950Y91660D02*
X412950Y93060D01*
X412950Y91660D02*
X407050Y91660D01*
X407050Y93060D01*
X412950Y93060D01*
X412950Y92259D02*
X407050Y92259D01*
X407050Y92858D02*
X412950Y92858D01*
X412950Y95660D02*
X412950Y97060D01*
X412950Y95660D02*
X407050Y95660D01*
X407050Y97060D01*
X412950Y97060D01*
X412950Y96259D02*
X407050Y96259D01*
X407050Y96858D02*
X412950Y96858D01*
X412950Y99660D02*
X412950Y101060D01*
X412950Y99660D02*
X407050Y99660D01*
X407050Y101060D01*
X412950Y101060D01*
X412950Y100259D02*
X407050Y100259D01*
X407050Y100858D02*
X412950Y100858D01*
X412950Y103660D02*
X412950Y105060D01*
X412950Y103660D02*
X407050Y103660D01*
X407050Y105060D01*
X412950Y105060D01*
X412950Y104259D02*
X407050Y104259D01*
X407050Y104858D02*
X412950Y104858D01*
X412950Y107660D02*
X412950Y109060D01*
X412950Y107660D02*
X407050Y107660D01*
X407050Y109060D01*
X412950Y109060D01*
X412950Y108259D02*
X407050Y108259D01*
X407050Y108858D02*
X412950Y108858D01*
X412950Y111660D02*
X412950Y113060D01*
X412950Y111660D02*
X407050Y111660D01*
X407050Y113060D01*
X412950Y113060D01*
X412950Y112259D02*
X407050Y112259D01*
X407050Y112858D02*
X412950Y112858D01*
X412950Y115660D02*
X412950Y117060D01*
X412950Y115660D02*
X407050Y115660D01*
X407050Y117060D01*
X412950Y117060D01*
X412950Y116259D02*
X407050Y116259D01*
X407050Y116858D02*
X412950Y116858D01*
X412950Y119660D02*
X412950Y121060D01*
X412950Y119660D02*
X407050Y119660D01*
X407050Y121060D01*
X412950Y121060D01*
X412950Y120259D02*
X407050Y120259D01*
X407050Y120858D02*
X412950Y120858D01*
X412950Y123660D02*
X412950Y125060D01*
X412950Y123660D02*
X407050Y123660D01*
X407050Y125060D01*
X412950Y125060D01*
X412950Y124259D02*
X407050Y124259D01*
X407050Y124858D02*
X412950Y124858D01*
X412950Y127660D02*
X412950Y129060D01*
X412950Y127660D02*
X407050Y127660D01*
X407050Y129060D01*
X412950Y129060D01*
X412950Y128259D02*
X407050Y128259D01*
X407050Y128858D02*
X412950Y128858D01*
X412950Y131660D02*
X412950Y133060D01*
X412950Y131660D02*
X407050Y131660D01*
X407050Y133060D01*
X412950Y133060D01*
X412950Y132259D02*
X407050Y132259D01*
X407050Y132858D02*
X412950Y132858D01*
X412950Y135660D02*
X412950Y137060D01*
X412950Y135660D02*
X407050Y135660D01*
X407050Y137060D01*
X412950Y137060D01*
X412950Y136259D02*
X407050Y136259D01*
X407050Y136858D02*
X412950Y136858D01*
X403700Y146310D02*
X402300Y146310D01*
X403700Y146310D02*
X403700Y140410D01*
X402300Y140410D01*
X402300Y146310D01*
X402300Y141009D02*
X403700Y141009D01*
X403700Y141608D02*
X402300Y141608D01*
X402300Y142207D02*
X403700Y142207D01*
X403700Y142806D02*
X402300Y142806D01*
X402300Y143405D02*
X403700Y143405D01*
X403700Y144004D02*
X402300Y144004D01*
X402300Y144603D02*
X403700Y144603D01*
X403700Y145202D02*
X402300Y145202D01*
X402300Y145801D02*
X403700Y145801D01*
X399700Y146310D02*
X398300Y146310D01*
X399700Y146310D02*
X399700Y140410D01*
X398300Y140410D01*
X398300Y146310D01*
X398300Y141009D02*
X399700Y141009D01*
X399700Y141608D02*
X398300Y141608D01*
X398300Y142207D02*
X399700Y142207D01*
X399700Y142806D02*
X398300Y142806D01*
X398300Y143405D02*
X399700Y143405D01*
X399700Y144004D02*
X398300Y144004D01*
X398300Y144603D02*
X399700Y144603D01*
X399700Y145202D02*
X398300Y145202D01*
X398300Y145801D02*
X399700Y145801D01*
X395700Y146310D02*
X394300Y146310D01*
X395700Y146310D02*
X395700Y140410D01*
X394300Y140410D01*
X394300Y146310D01*
X394300Y141009D02*
X395700Y141009D01*
X395700Y141608D02*
X394300Y141608D01*
X394300Y142207D02*
X395700Y142207D01*
X395700Y142806D02*
X394300Y142806D01*
X394300Y143405D02*
X395700Y143405D01*
X395700Y144004D02*
X394300Y144004D01*
X394300Y144603D02*
X395700Y144603D01*
X395700Y145202D02*
X394300Y145202D01*
X394300Y145801D02*
X395700Y145801D01*
X391700Y146310D02*
X390300Y146310D01*
X391700Y146310D02*
X391700Y140410D01*
X390300Y140410D01*
X390300Y146310D01*
X390300Y141009D02*
X391700Y141009D01*
X391700Y141608D02*
X390300Y141608D01*
X390300Y142207D02*
X391700Y142207D01*
X391700Y142806D02*
X390300Y142806D01*
X390300Y143405D02*
X391700Y143405D01*
X391700Y144004D02*
X390300Y144004D01*
X390300Y144603D02*
X391700Y144603D01*
X391700Y145202D02*
X390300Y145202D01*
X390300Y145801D02*
X391700Y145801D01*
X387700Y146310D02*
X386300Y146310D01*
X387700Y146310D02*
X387700Y140410D01*
X386300Y140410D01*
X386300Y146310D01*
X386300Y141009D02*
X387700Y141009D01*
X387700Y141608D02*
X386300Y141608D01*
X386300Y142207D02*
X387700Y142207D01*
X387700Y142806D02*
X386300Y142806D01*
X386300Y143405D02*
X387700Y143405D01*
X387700Y144004D02*
X386300Y144004D01*
X386300Y144603D02*
X387700Y144603D01*
X387700Y145202D02*
X386300Y145202D01*
X386300Y145801D02*
X387700Y145801D01*
X383700Y146310D02*
X382300Y146310D01*
X383700Y146310D02*
X383700Y140410D01*
X382300Y140410D01*
X382300Y146310D01*
X382300Y141009D02*
X383700Y141009D01*
X383700Y141608D02*
X382300Y141608D01*
X382300Y142207D02*
X383700Y142207D01*
X383700Y142806D02*
X382300Y142806D01*
X382300Y143405D02*
X383700Y143405D01*
X383700Y144004D02*
X382300Y144004D01*
X382300Y144603D02*
X383700Y144603D01*
X383700Y145202D02*
X382300Y145202D01*
X382300Y145801D02*
X383700Y145801D01*
X379700Y146310D02*
X378300Y146310D01*
X379700Y146310D02*
X379700Y140410D01*
X378300Y140410D01*
X378300Y146310D01*
X378300Y141009D02*
X379700Y141009D01*
X379700Y141608D02*
X378300Y141608D01*
X378300Y142207D02*
X379700Y142207D01*
X379700Y142806D02*
X378300Y142806D01*
X378300Y143405D02*
X379700Y143405D01*
X379700Y144004D02*
X378300Y144004D01*
X378300Y144603D02*
X379700Y144603D01*
X379700Y145202D02*
X378300Y145202D01*
X378300Y145801D02*
X379700Y145801D01*
X375700Y146310D02*
X374300Y146310D01*
X375700Y146310D02*
X375700Y140410D01*
X374300Y140410D01*
X374300Y146310D01*
X374300Y141009D02*
X375700Y141009D01*
X375700Y141608D02*
X374300Y141608D01*
X374300Y142207D02*
X375700Y142207D01*
X375700Y142806D02*
X374300Y142806D01*
X374300Y143405D02*
X375700Y143405D01*
X375700Y144004D02*
X374300Y144004D01*
X374300Y144603D02*
X375700Y144603D01*
X375700Y145202D02*
X374300Y145202D01*
X374300Y145801D02*
X375700Y145801D01*
X371700Y146310D02*
X370300Y146310D01*
X371700Y146310D02*
X371700Y140410D01*
X370300Y140410D01*
X370300Y146310D01*
X370300Y141009D02*
X371700Y141009D01*
X371700Y141608D02*
X370300Y141608D01*
X370300Y142207D02*
X371700Y142207D01*
X371700Y142806D02*
X370300Y142806D01*
X370300Y143405D02*
X371700Y143405D01*
X371700Y144004D02*
X370300Y144004D01*
X370300Y144603D02*
X371700Y144603D01*
X371700Y145202D02*
X370300Y145202D01*
X370300Y145801D02*
X371700Y145801D01*
X367700Y146310D02*
X366300Y146310D01*
X367700Y146310D02*
X367700Y140410D01*
X366300Y140410D01*
X366300Y146310D01*
X366300Y141009D02*
X367700Y141009D01*
X367700Y141608D02*
X366300Y141608D01*
X366300Y142207D02*
X367700Y142207D01*
X367700Y142806D02*
X366300Y142806D01*
X366300Y143405D02*
X367700Y143405D01*
X367700Y144004D02*
X366300Y144004D01*
X366300Y144603D02*
X367700Y144603D01*
X367700Y145202D02*
X366300Y145202D01*
X366300Y145801D02*
X367700Y145801D01*
X363700Y146310D02*
X362300Y146310D01*
X363700Y146310D02*
X363700Y140410D01*
X362300Y140410D01*
X362300Y146310D01*
X362300Y141009D02*
X363700Y141009D01*
X363700Y141608D02*
X362300Y141608D01*
X362300Y142207D02*
X363700Y142207D01*
X363700Y142806D02*
X362300Y142806D01*
X362300Y143405D02*
X363700Y143405D01*
X363700Y144004D02*
X362300Y144004D01*
X362300Y144603D02*
X363700Y144603D01*
X363700Y145202D02*
X362300Y145202D01*
X362300Y145801D02*
X363700Y145801D01*
X359700Y146310D02*
X358300Y146310D01*
X359700Y146310D02*
X359700Y140410D01*
X358300Y140410D01*
X358300Y146310D01*
X358300Y141009D02*
X359700Y141009D01*
X359700Y141608D02*
X358300Y141608D01*
X358300Y142207D02*
X359700Y142207D01*
X359700Y142806D02*
X358300Y142806D01*
X358300Y143405D02*
X359700Y143405D01*
X359700Y144004D02*
X358300Y144004D01*
X358300Y144603D02*
X359700Y144603D01*
X359700Y145202D02*
X358300Y145202D01*
X358300Y145801D02*
X359700Y145801D01*
D20*
X368850Y184150D03*
X405850Y184150D03*
M02*
