G04 EAGLE Gerber X2 export*
%TF.Part,Single*%
%TF.FileFunction,Legend,Top,1*%
%TF.FilePolarity,Positive*%
%TF.GenerationSoftware,Autodesk,EAGLE,9.0.0*%
%TF.CreationDate,2018-05-01T00:52:51Z*%
G75*
%MOMM*%
%FSLAX34Y34*%
%LPD*%
%AMOC8*
5,1,8,0,0,1.08239X$1,22.5*%
G01*
%ADD10C,0.152400*%
%ADD11R,0.254000X0.063500*%
%ADD12R,0.251463X0.063500*%
%ADD13R,0.320038X0.063500*%
%ADD14R,0.762000X0.063500*%
%ADD15R,0.510537X0.063500*%
%ADD16R,0.574037X0.063500*%
%ADD17R,0.891538X0.063500*%
%ADD18R,0.381000X0.063500*%
%ADD19R,0.447038X0.063500*%
%ADD20R,0.317500X0.063500*%
%ADD21R,0.635000X0.063500*%
%ADD22R,1.140463X0.063500*%
%ADD23R,0.508000X0.063500*%
%ADD24R,1.016000X0.063500*%
%ADD25R,2.095500X0.063500*%
%ADD26R,0.825500X0.063500*%
%ADD27R,0.886463X0.063500*%
%ADD28R,0.378463X0.063500*%
%ADD29R,0.632463X0.063500*%
%ADD30R,0.314963X0.063500*%
%ADD31R,0.190500X0.063500*%
%ADD32R,0.698500X0.063500*%
%ADD33R,0.571500X0.063500*%
%ADD34R,0.505463X0.063500*%
%ADD35R,0.952500X0.063500*%
%ADD36R,0.949963X0.063500*%
%ADD37R,0.441963X0.063500*%
%ADD38R,0.444500X0.063500*%
%ADD39R,1.079500X0.063500*%
%ADD40R,1.143000X0.063500*%
%ADD41R,1.272538X0.063500*%
%ADD42R,0.828038X0.063500*%
%ADD43R,0.187963X0.063500*%
%ADD44R,0.955038X0.063500*%
%ADD45R,1.333500X0.063500*%
%ADD46R,1.206500X0.063500*%
%ADD47R,1.336037X0.063500*%
%ADD48R,1.270000X0.063500*%
%ADD49R,0.256538X0.063500*%
%ADD50R,1.076963X0.063500*%
%ADD51R,1.018538X0.063500*%
%ADD52R,1.463037X0.063500*%
%ADD53R,1.780538X0.063500*%
%ADD54R,2.034537X0.063500*%
%ADD55R,2.222500X0.063500*%
%ADD56R,0.127000X0.063500*%
%ADD57R,0.193038X0.063500*%
%ADD58R,1.145538X0.063500*%
%ADD59R,0.129537X0.063500*%
%ADD60R,1.399538X0.063500*%
%ADD61R,0.889000X0.063500*%
%ADD62R,0.063500X0.063500*%
%ADD63R,0.124463X0.063500*%
%ADD64R,0.764538X0.063500*%
%ADD65R,0.822963X0.063500*%
%ADD66R,0.701037X0.063500*%
%ADD67R,0.695963X0.063500*%
%ADD68R,0.759463X0.063500*%
%ADD69R,0.383538X0.063500*%
%ADD70R,0.637537X0.063500*%
%ADD71R,1.778000X0.063500*%
%ADD72R,1.714500X0.063500*%
%ADD73R,1.841500X0.063500*%
%ADD74R,1.330963X0.063500*%
%ADD75R,1.209037X0.063500*%
%ADD76R,1.651000X0.063500*%
%ADD77R,2.857500X0.063500*%
%ADD78R,0.568963X0.063500*%
%ADD79R,2.219963X0.063500*%
%ADD80R,2.854963X0.063500*%
%ADD81R,1.838963X0.063500*%
%ADD82R,4.320538X0.063500*%
%ADD83R,2.352038X0.063500*%
%ADD84R,1.203963X0.063500*%
%ADD85R,5.270500X0.063500*%
%ADD86R,3.937000X0.063500*%
%ADD87R,3.048000X0.063500*%
%ADD88R,6.350000X0.063500*%
%ADD89R,6.032500X0.063500*%
%ADD90R,7.749538X0.063500*%
%ADD91R,1.902463X0.063500*%
%ADD92R,1.968500X0.063500*%
%ADD93R,5.016500X0.063500*%
%ADD94R,2.032000X0.063500*%
%ADD95R,8.128000X0.063500*%
%ADD96R,7.937500X0.063500*%
%ADD97R,0.066037X0.063500*%
%ADD98R,0.060963X0.063500*%
%ADD99R,7.493000X0.063500*%
%ADD100R,7.178038X0.063500*%
%ADD101R,1.457963X0.063500*%
%ADD102R,4.511038X0.063500*%
%ADD103R,6.794500X0.063500*%
%ADD104R,5.654038X0.063500*%
%ADD105R,5.842000X0.063500*%
%ADD106R,3.683000X0.063500*%
%ADD107R,1.460500X0.063500*%
%ADD108R,1.397000X0.063500*%
%ADD109R,1.267463X0.063500*%
%ADD110R,2.860038X0.063500*%
%ADD111R,1.587500X0.063500*%
%ADD112R,4.384037X0.063500*%
%ADD113R,1.844037X0.063500*%
%ADD114R,1.524000X0.063500*%
%ADD115R,2.346963X0.063500*%
%ADD116R,3.299463X0.063500*%
%ADD117R,2.415538X0.063500*%
%ADD118R,2.349500X0.063500*%
%ADD119R,1.775463X0.063500*%
%ADD120R,2.283463X0.063500*%
%ADD121R,1.013463X0.063500*%
%ADD122R,1.394463X0.063500*%
%ADD123R,1.717037X0.063500*%
%ADD124R,7.620000X0.063500*%
%ADD125R,7.747000X0.063500*%
%ADD126R,8.001000X0.063500*%
%ADD127R,1.965963X0.063500*%
%ADD128R,1.082037X0.063500*%
%ADD129R,2.288537X0.063500*%
%ADD130R,2.098038X0.063500*%
%ADD131R,1.526538X0.063500*%
%ADD132R,3.495038X0.063500*%
%ADD133R,3.492500X0.063500*%
%ADD134R,8.064500X0.063500*%


D10*
X356000Y144200D02*
X351200Y144200D01*
X351000Y144000D01*
X351000Y139200D01*
X405600Y144400D02*
X411000Y144400D01*
X411000Y138800D01*
X411000Y93000D02*
X411000Y84400D01*
X405200Y84400D01*
X355600Y84400D02*
X351000Y84400D01*
X351000Y89400D01*
X340430Y153000D02*
X340432Y153088D01*
X340438Y153177D01*
X340448Y153264D01*
X340462Y153352D01*
X340479Y153438D01*
X340501Y153524D01*
X340526Y153609D01*
X340556Y153692D01*
X340589Y153774D01*
X340625Y153855D01*
X340665Y153934D01*
X340709Y154010D01*
X340756Y154085D01*
X340806Y154158D01*
X340860Y154228D01*
X340916Y154296D01*
X340976Y154361D01*
X341039Y154424D01*
X341104Y154484D01*
X341172Y154540D01*
X341242Y154594D01*
X341315Y154644D01*
X341390Y154691D01*
X341466Y154735D01*
X341545Y154775D01*
X341626Y154811D01*
X341708Y154844D01*
X341791Y154874D01*
X341876Y154899D01*
X341962Y154921D01*
X342048Y154938D01*
X342136Y154952D01*
X342223Y154962D01*
X342312Y154968D01*
X342400Y154970D01*
X342488Y154968D01*
X342577Y154962D01*
X342664Y154952D01*
X342752Y154938D01*
X342838Y154921D01*
X342924Y154899D01*
X343009Y154874D01*
X343092Y154844D01*
X343174Y154811D01*
X343255Y154775D01*
X343334Y154735D01*
X343410Y154691D01*
X343485Y154644D01*
X343558Y154594D01*
X343628Y154540D01*
X343696Y154484D01*
X343761Y154424D01*
X343824Y154361D01*
X343884Y154296D01*
X343940Y154228D01*
X343994Y154158D01*
X344044Y154085D01*
X344091Y154010D01*
X344135Y153934D01*
X344175Y153855D01*
X344211Y153774D01*
X344244Y153692D01*
X344274Y153609D01*
X344299Y153524D01*
X344321Y153438D01*
X344338Y153352D01*
X344352Y153264D01*
X344362Y153177D01*
X344368Y153088D01*
X344370Y153000D01*
X344368Y152912D01*
X344362Y152823D01*
X344352Y152736D01*
X344338Y152648D01*
X344321Y152562D01*
X344299Y152476D01*
X344274Y152391D01*
X344244Y152308D01*
X344211Y152226D01*
X344175Y152145D01*
X344135Y152066D01*
X344091Y151990D01*
X344044Y151915D01*
X343994Y151842D01*
X343940Y151772D01*
X343884Y151704D01*
X343824Y151639D01*
X343761Y151576D01*
X343696Y151516D01*
X343628Y151460D01*
X343558Y151406D01*
X343485Y151356D01*
X343410Y151309D01*
X343334Y151265D01*
X343255Y151225D01*
X343174Y151189D01*
X343092Y151156D01*
X343009Y151126D01*
X342924Y151101D01*
X342838Y151079D01*
X342752Y151062D01*
X342664Y151048D01*
X342577Y151038D01*
X342488Y151032D01*
X342400Y151030D01*
X342312Y151032D01*
X342223Y151038D01*
X342136Y151048D01*
X342048Y151062D01*
X341962Y151079D01*
X341876Y151101D01*
X341791Y151126D01*
X341708Y151156D01*
X341626Y151189D01*
X341545Y151225D01*
X341466Y151265D01*
X341390Y151309D01*
X341315Y151356D01*
X341242Y151406D01*
X341172Y151460D01*
X341104Y151516D01*
X341039Y151576D01*
X340976Y151639D01*
X340916Y151704D01*
X340860Y151772D01*
X340806Y151842D01*
X340756Y151915D01*
X340709Y151990D01*
X340665Y152066D01*
X340625Y152145D01*
X340589Y152226D01*
X340556Y152308D01*
X340526Y152391D01*
X340501Y152476D01*
X340479Y152562D01*
X340462Y152648D01*
X340448Y152736D01*
X340438Y152823D01*
X340432Y152912D01*
X340430Y153000D01*
D11*
X575005Y22225D03*
D12*
X600393Y22225D03*
D11*
X575005Y22860D03*
D12*
X600393Y22860D03*
D11*
X575005Y23495D03*
D12*
X600393Y23495D03*
D11*
X575005Y24130D03*
D12*
X600393Y24130D03*
X127318Y24765D03*
D13*
X133985Y24765D03*
X140335Y24765D03*
D14*
X155270Y24765D03*
D13*
X164465Y24765D03*
D15*
X171768Y24765D03*
D16*
X180340Y24765D03*
D11*
X575005Y24765D03*
D12*
X600393Y24765D03*
X127318Y25400D03*
D13*
X133985Y25400D03*
X140335Y25400D03*
D17*
X155258Y25400D03*
D13*
X164465Y25400D03*
D15*
X171768Y25400D03*
D16*
X180340Y25400D03*
D11*
X575005Y25400D03*
D12*
X600393Y25400D03*
X127318Y26035D03*
D18*
X133680Y26035D03*
D13*
X140335Y26035D03*
D17*
X155258Y26035D03*
D13*
X164465Y26035D03*
D15*
X171768Y26035D03*
D16*
X180340Y26035D03*
D11*
X575005Y26035D03*
D12*
X600393Y26035D03*
X127318Y26670D03*
D18*
X133680Y26670D03*
D13*
X140335Y26670D03*
D17*
X155258Y26670D03*
D13*
X164465Y26670D03*
D16*
X172085Y26670D03*
X180340Y26670D03*
D11*
X575005Y26670D03*
D12*
X600393Y26670D03*
X127318Y27305D03*
D19*
X133350Y27305D03*
D13*
X140335Y27305D03*
X152400Y27305D03*
D20*
X158128Y27305D03*
D13*
X164465Y27305D03*
D16*
X172085Y27305D03*
X180340Y27305D03*
D11*
X575005Y27305D03*
D12*
X600393Y27305D03*
X127318Y27940D03*
D19*
X133350Y27940D03*
D13*
X140335Y27940D03*
D11*
X152070Y27940D03*
D20*
X158128Y27940D03*
D13*
X164465Y27940D03*
D16*
X172085Y27940D03*
D21*
X180035Y27940D03*
D22*
X494348Y27940D03*
D11*
X575005Y27940D03*
D12*
X600393Y27940D03*
X127318Y28575D03*
D23*
X133045Y28575D03*
D13*
X140335Y28575D03*
D11*
X152070Y28575D03*
D20*
X158128Y28575D03*
D13*
X164465Y28575D03*
D16*
X172085Y28575D03*
D21*
X180035Y28575D03*
D11*
X411785Y28575D03*
D20*
X418478Y28575D03*
D14*
X427660Y28575D03*
D20*
X436258Y28575D03*
X442608Y28575D03*
D24*
X451180Y28575D03*
D22*
X494348Y28575D03*
D25*
X514363Y28575D03*
D11*
X575005Y28575D03*
D12*
X600393Y28575D03*
X127318Y29210D03*
D23*
X133045Y29210D03*
D13*
X140335Y29210D03*
D11*
X152070Y29210D03*
D20*
X158128Y29210D03*
D13*
X164465Y29210D03*
D16*
X172085Y29210D03*
D21*
X180035Y29210D03*
D13*
X412115Y29210D03*
D20*
X418478Y29210D03*
D26*
X427342Y29210D03*
D20*
X436258Y29210D03*
X442608Y29210D03*
D24*
X451180Y29210D03*
D22*
X494348Y29210D03*
D25*
X514363Y29210D03*
D11*
X575005Y29210D03*
D12*
X600393Y29210D03*
X127318Y29845D03*
D16*
X132715Y29845D03*
D13*
X140335Y29845D03*
D20*
X158128Y29845D03*
D13*
X164465Y29845D03*
X170815Y29845D03*
D11*
X174320Y29845D03*
D21*
X180035Y29845D03*
D13*
X412115Y29845D03*
D20*
X418478Y29845D03*
D27*
X427038Y29845D03*
D20*
X436258Y29845D03*
X442608Y29845D03*
D24*
X451180Y29845D03*
D22*
X494348Y29845D03*
D25*
X514363Y29845D03*
D11*
X575005Y29845D03*
D12*
X600393Y29845D03*
X127318Y30480D03*
D16*
X132715Y30480D03*
D13*
X140335Y30480D03*
D20*
X158128Y30480D03*
D13*
X164465Y30480D03*
X170815Y30480D03*
D11*
X174320Y30480D03*
X178130Y30480D03*
D13*
X181610Y30480D03*
X412115Y30480D03*
D20*
X418478Y30480D03*
D27*
X427038Y30480D03*
D20*
X436258Y30480D03*
X442608Y30480D03*
D24*
X451180Y30480D03*
D28*
X498158Y30480D03*
D25*
X514363Y30480D03*
D11*
X575005Y30480D03*
D12*
X600393Y30480D03*
X127318Y31115D03*
D21*
X132410Y31115D03*
D13*
X140335Y31115D03*
D20*
X158128Y31115D03*
D13*
X164465Y31115D03*
X170815Y31115D03*
D11*
X174320Y31115D03*
D13*
X177800Y31115D03*
X181610Y31115D03*
X412115Y31115D03*
D20*
X418478Y31115D03*
D27*
X427038Y31115D03*
D20*
X436258Y31115D03*
X442608Y31115D03*
D24*
X451180Y31115D03*
D29*
X496888Y31115D03*
D25*
X514363Y31115D03*
D11*
X575005Y31115D03*
D12*
X600393Y31115D03*
X127318Y31750D03*
D21*
X132410Y31750D03*
D13*
X140335Y31750D03*
D20*
X158128Y31750D03*
D13*
X164465Y31750D03*
X170815Y31750D03*
D11*
X174320Y31750D03*
D13*
X177800Y31750D03*
X181610Y31750D03*
X412115Y31750D03*
D20*
X418478Y31750D03*
X424193Y31750D03*
D11*
X430200Y31750D03*
D20*
X436258Y31750D03*
X442608Y31750D03*
D30*
X450850Y31750D03*
D14*
X494995Y31750D03*
D25*
X514363Y31750D03*
D11*
X575005Y31750D03*
D12*
X600393Y31750D03*
D29*
X129223Y32385D03*
D11*
X134315Y32385D03*
D13*
X140335Y32385D03*
D20*
X158128Y32385D03*
D13*
X164465Y32385D03*
X170815Y32385D03*
D31*
X174638Y32385D03*
D13*
X177800Y32385D03*
X181610Y32385D03*
X412115Y32385D03*
D20*
X418478Y32385D03*
X424193Y32385D03*
D11*
X430200Y32385D03*
D20*
X436258Y32385D03*
X442608Y32385D03*
D30*
X450850Y32385D03*
D32*
X492138Y32385D03*
D11*
X575005Y32385D03*
D12*
X600393Y32385D03*
D33*
X128918Y33020D03*
D11*
X134315Y33020D03*
D13*
X140335Y33020D03*
D20*
X158128Y33020D03*
D13*
X164465Y33020D03*
X170815Y33020D03*
D33*
X176543Y33020D03*
D13*
X181610Y33020D03*
X412115Y33020D03*
D20*
X418478Y33020D03*
X424193Y33020D03*
D11*
X430200Y33020D03*
D20*
X436258Y33020D03*
X442608Y33020D03*
D30*
X450850Y33020D03*
D29*
X491808Y33020D03*
D11*
X575005Y33020D03*
D12*
X600393Y33020D03*
D33*
X128918Y33655D03*
D11*
X134315Y33655D03*
D13*
X140335Y33655D03*
D20*
X158128Y33655D03*
D13*
X164465Y33655D03*
X170815Y33655D03*
D34*
X176213Y33655D03*
D13*
X181610Y33655D03*
X412115Y33655D03*
D20*
X418478Y33655D03*
X424193Y33655D03*
D11*
X430200Y33655D03*
D20*
X436258Y33655D03*
X442608Y33655D03*
D30*
X450850Y33655D03*
D35*
X493408Y33655D03*
D11*
X575005Y33655D03*
D12*
X600393Y33655D03*
D34*
X128588Y34290D03*
D11*
X134315Y34290D03*
D13*
X140335Y34290D03*
D20*
X158128Y34290D03*
D13*
X164465Y34290D03*
X170815Y34290D03*
D34*
X176213Y34290D03*
D13*
X181610Y34290D03*
X412115Y34290D03*
D20*
X418478Y34290D03*
X424193Y34290D03*
D11*
X430200Y34290D03*
D20*
X436258Y34290D03*
X442608Y34290D03*
D30*
X450850Y34290D03*
D36*
X495300Y34290D03*
D11*
X575005Y34290D03*
D12*
X600393Y34290D03*
D34*
X128588Y34925D03*
D11*
X134315Y34925D03*
D13*
X140335Y34925D03*
D11*
X152070Y34925D03*
D20*
X158128Y34925D03*
D13*
X164465Y34925D03*
X170815Y34925D03*
D37*
X176530Y34925D03*
D13*
X181610Y34925D03*
X412115Y34925D03*
D20*
X418478Y34925D03*
D27*
X427038Y34925D03*
D35*
X439433Y34925D03*
D30*
X450850Y34925D03*
D29*
X496888Y34925D03*
D11*
X575005Y34925D03*
D12*
X600393Y34925D03*
D38*
X128283Y35560D03*
D11*
X134315Y35560D03*
D13*
X140335Y35560D03*
D11*
X152070Y35560D03*
D20*
X158128Y35560D03*
D13*
X164465Y35560D03*
X170815Y35560D03*
D37*
X176530Y35560D03*
D13*
X181610Y35560D03*
X412115Y35560D03*
D20*
X418478Y35560D03*
D27*
X427038Y35560D03*
D35*
X439433Y35560D03*
D30*
X450850Y35560D03*
D28*
X498158Y35560D03*
D11*
X575005Y35560D03*
D12*
X600393Y35560D03*
D38*
X128283Y36195D03*
D11*
X134315Y36195D03*
D13*
X140335Y36195D03*
D11*
X152070Y36195D03*
D20*
X158128Y36195D03*
D13*
X164465Y36195D03*
X170815Y36195D03*
D37*
X176530Y36195D03*
D13*
X181610Y36195D03*
X412115Y36195D03*
D20*
X418478Y36195D03*
D26*
X427342Y36195D03*
D35*
X439433Y36195D03*
D30*
X450850Y36195D03*
D22*
X494348Y36195D03*
D11*
X575005Y36195D03*
D12*
X600393Y36195D03*
D38*
X128283Y36830D03*
D11*
X134315Y36830D03*
D13*
X140335Y36830D03*
D11*
X152070Y36830D03*
D20*
X158128Y36830D03*
D13*
X164465Y36830D03*
X170815Y36830D03*
D18*
X176225Y36830D03*
D13*
X181610Y36830D03*
X412115Y36830D03*
D20*
X418478Y36830D03*
D26*
X427342Y36830D03*
D35*
X439433Y36830D03*
D30*
X450850Y36830D03*
D22*
X494348Y36830D03*
D39*
X518173Y36830D03*
D11*
X575005Y36830D03*
D12*
X600393Y36830D03*
D28*
X127953Y37465D03*
D11*
X134315Y37465D03*
D13*
X140335Y37465D03*
D17*
X155258Y37465D03*
D13*
X164465Y37465D03*
X170815Y37465D03*
D20*
X176543Y37465D03*
D13*
X181610Y37465D03*
X412115Y37465D03*
D20*
X418478Y37465D03*
D27*
X427038Y37465D03*
D35*
X439433Y37465D03*
D30*
X450850Y37465D03*
D22*
X494348Y37465D03*
D40*
X518490Y37465D03*
D11*
X575005Y37465D03*
D12*
X600393Y37465D03*
D28*
X127953Y38100D03*
D11*
X134315Y38100D03*
D13*
X140335Y38100D03*
D17*
X155258Y38100D03*
D13*
X164465Y38100D03*
X170815Y38100D03*
D20*
X176543Y38100D03*
D13*
X181610Y38100D03*
X412115Y38100D03*
D20*
X418478Y38100D03*
X424193Y38100D03*
D11*
X430200Y38100D03*
D20*
X436258Y38100D03*
X442608Y38100D03*
D30*
X450850Y38100D03*
D41*
X518478Y38100D03*
D11*
X575005Y38100D03*
D12*
X600393Y38100D03*
D20*
X127648Y38735D03*
D11*
X134315Y38735D03*
D13*
X140335Y38735D03*
D17*
X155258Y38735D03*
D13*
X164465Y38735D03*
X170815Y38735D03*
D20*
X176543Y38735D03*
D13*
X181610Y38735D03*
X412115Y38735D03*
D20*
X418478Y38735D03*
X424193Y38735D03*
D11*
X430200Y38735D03*
D20*
X436258Y38735D03*
X442608Y38735D03*
D30*
X450850Y38735D03*
D41*
X518478Y38735D03*
D11*
X575005Y38735D03*
D31*
X593738Y38735D03*
D12*
X600393Y38735D03*
D20*
X127648Y39370D03*
D11*
X134315Y39370D03*
D13*
X140335Y39370D03*
D42*
X154940Y39370D03*
D13*
X164465Y39370D03*
X170815Y39370D03*
D20*
X176543Y39370D03*
D13*
X181610Y39370D03*
X412115Y39370D03*
D20*
X418478Y39370D03*
X424193Y39370D03*
D11*
X430200Y39370D03*
D20*
X436258Y39370D03*
X442608Y39370D03*
D30*
X450850Y39370D03*
D41*
X518478Y39370D03*
D11*
X575005Y39370D03*
D19*
X592455Y39370D03*
D12*
X600393Y39370D03*
X127318Y40005D03*
D11*
X134315Y40005D03*
D13*
X140335Y40005D03*
D16*
X154940Y40005D03*
D13*
X164465Y40005D03*
X170815Y40005D03*
D43*
X176530Y40005D03*
D11*
X181940Y40005D03*
D13*
X412115Y40005D03*
D20*
X418478Y40005D03*
X424193Y40005D03*
D11*
X430200Y40005D03*
D20*
X436258Y40005D03*
X442608Y40005D03*
D30*
X450850Y40005D03*
D24*
X494360Y40005D03*
D41*
X518478Y40005D03*
D11*
X575005Y40005D03*
D32*
X591198Y40005D03*
D12*
X600393Y40005D03*
D13*
X412115Y40640D03*
D20*
X418478Y40640D03*
X424193Y40640D03*
D11*
X430200Y40640D03*
D20*
X436258Y40640D03*
X442608Y40640D03*
D30*
X450850Y40640D03*
D22*
X494348Y40640D03*
D18*
X514020Y40640D03*
X522935Y40640D03*
D11*
X575005Y40640D03*
D17*
X590233Y40640D03*
D12*
X600393Y40640D03*
D44*
X415290Y41275D03*
D20*
X424193Y41275D03*
D11*
X430200Y41275D03*
D20*
X436258Y41275D03*
X442608Y41275D03*
D30*
X450850Y41275D03*
D22*
X494348Y41275D03*
D18*
X514020Y41275D03*
X522935Y41275D03*
D11*
X575005Y41275D03*
D24*
X588340Y41275D03*
D12*
X600393Y41275D03*
D44*
X415290Y41910D03*
D20*
X424193Y41910D03*
D11*
X430200Y41910D03*
D20*
X436258Y41910D03*
X442608Y41910D03*
D30*
X450850Y41910D03*
D22*
X494348Y41910D03*
D18*
X514020Y41910D03*
X522935Y41910D03*
D11*
X575005Y41910D03*
D36*
X586105Y41910D03*
D12*
X600393Y41910D03*
D44*
X415290Y42545D03*
D20*
X424193Y42545D03*
D11*
X430200Y42545D03*
D20*
X436258Y42545D03*
X442608Y42545D03*
D30*
X450850Y42545D03*
D11*
X489915Y42545D03*
D43*
X499110Y42545D03*
D18*
X514020Y42545D03*
X522935Y42545D03*
D11*
X575005Y42545D03*
D32*
X584848Y42545D03*
D12*
X600393Y42545D03*
D17*
X414973Y43180D03*
D20*
X424193Y43180D03*
D11*
X430200Y43180D03*
D20*
X436258Y43180D03*
X442608Y43180D03*
D30*
X450850Y43180D03*
D11*
X489915Y43180D03*
D43*
X499110Y43180D03*
D18*
X514020Y43180D03*
X522935Y43180D03*
D11*
X575005Y43180D03*
D34*
X583883Y43180D03*
D12*
X600393Y43180D03*
D14*
X414985Y43815D03*
D20*
X424193Y43815D03*
D11*
X430200Y43815D03*
D20*
X436258Y43815D03*
X442608Y43815D03*
D30*
X450850Y43815D03*
D11*
X489915Y43815D03*
D43*
X499110Y43815D03*
D18*
X514020Y43815D03*
X522935Y43815D03*
D11*
X575005Y43815D03*
D14*
X585165Y43815D03*
D12*
X600393Y43815D03*
D22*
X494348Y44450D03*
D25*
X514363Y44450D03*
D11*
X575005Y44450D03*
D40*
X587070Y44450D03*
D12*
X600393Y44450D03*
D22*
X494348Y45085D03*
D25*
X514363Y45085D03*
D11*
X575005Y45085D03*
D45*
X588023Y45085D03*
D12*
X600393Y45085D03*
D22*
X494348Y45720D03*
D25*
X514363Y45720D03*
D11*
X575005Y45720D03*
D39*
X589293Y45720D03*
D12*
X600393Y45720D03*
D44*
X494665Y46355D03*
D25*
X514363Y46355D03*
D11*
X575005Y46355D03*
D42*
X590550Y46355D03*
D12*
X600393Y46355D03*
D25*
X514363Y46990D03*
D11*
X575005Y46990D03*
D23*
X592150Y46990D03*
D12*
X600393Y46990D03*
D25*
X514363Y47625D03*
D11*
X575005Y47625D03*
X593420Y47625D03*
D12*
X600393Y47625D03*
D46*
X614058Y47625D03*
D11*
X575005Y48260D03*
D12*
X600393Y48260D03*
D47*
X614045Y48260D03*
D18*
X491185Y48895D03*
D28*
X498158Y48895D03*
D11*
X575005Y48895D03*
D12*
X600393Y48895D03*
D47*
X614045Y48895D03*
D38*
X490868Y49530D03*
D28*
X498158Y49530D03*
D11*
X575005Y49530D03*
D48*
X588340Y49530D03*
D12*
X600393Y49530D03*
D47*
X614045Y49530D03*
D38*
X490868Y50165D03*
D28*
X498158Y50165D03*
D11*
X575005Y50165D03*
D45*
X588023Y50165D03*
D12*
X600393Y50165D03*
D49*
X608648Y50165D03*
X619443Y50165D03*
D11*
X489915Y50800D03*
D43*
X499110Y50800D03*
D11*
X575005Y50800D03*
D45*
X588023Y50800D03*
D12*
X600393Y50800D03*
D49*
X608648Y50800D03*
X619443Y50800D03*
D11*
X489915Y51435D03*
D43*
X499110Y51435D03*
D11*
X575005Y51435D03*
D45*
X588023Y51435D03*
D12*
X600393Y51435D03*
D49*
X608648Y51435D03*
X619443Y51435D03*
D11*
X489915Y52070D03*
D43*
X499110Y52070D03*
D11*
X575005Y52070D03*
X582625Y52070D03*
X588340Y52070D03*
D31*
X593738Y52070D03*
D12*
X600393Y52070D03*
D49*
X608648Y52070D03*
X619443Y52070D03*
D11*
X489915Y52705D03*
D43*
X499110Y52705D03*
D11*
X575005Y52705D03*
X582625Y52705D03*
X588340Y52705D03*
D31*
X593738Y52705D03*
D12*
X600393Y52705D03*
D47*
X614045Y52705D03*
D22*
X494348Y53340D03*
D11*
X575005Y53340D03*
X582625Y53340D03*
X588340Y53340D03*
D31*
X593738Y53340D03*
D12*
X600393Y53340D03*
D47*
X614045Y53340D03*
D22*
X494348Y53975D03*
D11*
X575005Y53975D03*
X582625Y53975D03*
X588340Y53975D03*
D31*
X593738Y53975D03*
D12*
X600393Y53975D03*
D47*
X614045Y53975D03*
D50*
X494665Y54610D03*
D11*
X575005Y54610D03*
X582625Y54610D03*
X588340Y54610D03*
D31*
X593738Y54610D03*
D12*
X600393Y54610D03*
D47*
X614045Y54610D03*
D17*
X494348Y55245D03*
D11*
X575005Y55245D03*
X582625Y55245D03*
X588340Y55245D03*
D31*
X593738Y55245D03*
D12*
X600393Y55245D03*
D11*
X575005Y55880D03*
X582625Y55880D03*
X588340Y55880D03*
D31*
X593738Y55880D03*
D12*
X600393Y55880D03*
D11*
X575005Y56515D03*
X582625Y56515D03*
D31*
X593738Y56515D03*
D12*
X600393Y56515D03*
D11*
X575005Y57150D03*
D12*
X600393Y57150D03*
D11*
X489915Y57785D03*
X575005Y57785D03*
D12*
X600393Y57785D03*
D47*
X614045Y57785D03*
D11*
X489915Y58420D03*
X575005Y58420D03*
D12*
X600393Y58420D03*
D47*
X614045Y58420D03*
D11*
X489915Y59055D03*
D51*
X536893Y59055D03*
D11*
X575005Y59055D03*
D12*
X600393Y59055D03*
D47*
X614045Y59055D03*
D52*
X539115Y59690D03*
D11*
X575005Y59690D03*
D20*
X582943Y59690D03*
D12*
X600393Y59690D03*
D47*
X614045Y59690D03*
D25*
X514363Y60325D03*
D53*
X540703Y60325D03*
D11*
X575005Y60325D03*
D20*
X582943Y60325D03*
D12*
X600393Y60325D03*
D33*
X610883Y60325D03*
D25*
X514363Y60960D03*
D54*
X541973Y60960D03*
D11*
X575005Y60960D03*
D20*
X582943Y60960D03*
D12*
X600393Y60960D03*
D21*
X612470Y60960D03*
D25*
X514363Y61595D03*
D55*
X543547Y61595D03*
D11*
X575005Y61595D03*
D20*
X582943Y61595D03*
D12*
X600393Y61595D03*
D29*
X613728Y61595D03*
D11*
X489915Y62230D03*
D43*
X499110Y62230D03*
D25*
X514363Y62230D03*
D49*
X534353Y62230D03*
D13*
X539750Y62230D03*
D47*
X549910Y62230D03*
D11*
X575005Y62230D03*
D12*
X600393Y62230D03*
D21*
X614985Y62230D03*
D11*
X489915Y62865D03*
D31*
X494678Y62865D03*
D43*
X499110Y62865D03*
D25*
X514363Y62865D03*
D56*
X534365Y62865D03*
D57*
X539750Y62865D03*
D13*
X545465Y62865D03*
D39*
X553072Y62865D03*
D11*
X575005Y62865D03*
D12*
X600393Y62865D03*
D21*
X616280Y62865D03*
D11*
X489915Y63500D03*
D31*
X494678Y63500D03*
D43*
X499110Y63500D03*
D25*
X514363Y63500D03*
D56*
X534365Y63500D03*
D57*
X539750Y63500D03*
X544830Y63500D03*
D58*
X554673Y63500D03*
D11*
X575005Y63500D03*
D12*
X600393Y63500D03*
D21*
X617550Y63500D03*
D11*
X489915Y64135D03*
D31*
X494678Y64135D03*
D43*
X499110Y64135D03*
D23*
X514655Y64135D03*
D56*
X534365Y64135D03*
D59*
X539433Y64135D03*
D56*
X545160Y64135D03*
D13*
X550545Y64135D03*
D35*
X557543Y64135D03*
D11*
X575005Y64135D03*
D12*
X600393Y64135D03*
D47*
X614045Y64135D03*
D11*
X489915Y64770D03*
D31*
X494678Y64770D03*
D43*
X499110Y64770D03*
D28*
X514668Y64770D03*
D49*
X534353Y64770D03*
D57*
X539750Y64770D03*
D59*
X544513Y64770D03*
D57*
X549910Y64770D03*
D24*
X558470Y64770D03*
D11*
X575005Y64770D03*
D48*
X588340Y64770D03*
D12*
X600393Y64770D03*
D47*
X614045Y64770D03*
D11*
X489915Y65405D03*
D31*
X494678Y65405D03*
D43*
X499110Y65405D03*
D28*
X514668Y65405D03*
D15*
X534353Y65405D03*
D13*
X539115Y65405D03*
D57*
X544195Y65405D03*
X549910Y65405D03*
D58*
X559753Y65405D03*
D11*
X575005Y65405D03*
D45*
X588023Y65405D03*
D12*
X600393Y65405D03*
D47*
X614045Y65405D03*
D22*
X494348Y66040D03*
D28*
X514668Y66040D03*
D60*
X538798Y66040D03*
D59*
X549593Y66040D03*
D49*
X555308Y66040D03*
D61*
X562305Y66040D03*
D11*
X575005Y66040D03*
D45*
X588023Y66040D03*
D12*
X600393Y66040D03*
D47*
X614045Y66040D03*
D22*
X494348Y66675D03*
D28*
X514668Y66675D03*
D57*
X532765Y66675D03*
D40*
X540715Y66675D03*
D57*
X549275Y66675D03*
X554990Y66675D03*
D17*
X563563Y66675D03*
D45*
X588023Y66675D03*
D12*
X600393Y66675D03*
D22*
X494348Y67310D03*
D28*
X514668Y67310D03*
D62*
X532117Y67310D03*
D30*
X537210Y67310D03*
D24*
X545795Y67310D03*
D57*
X554990Y67310D03*
D24*
X564185Y67310D03*
D11*
X582625Y67310D03*
X588340Y67310D03*
D31*
X593738Y67310D03*
D12*
X600393Y67310D03*
D28*
X514668Y67945D03*
D62*
X532117Y67945D03*
D43*
X537210Y67945D03*
D12*
X542608Y67945D03*
D21*
X548970Y67945D03*
D20*
X554368Y67945D03*
D57*
X560070Y67945D03*
D32*
X567042Y67945D03*
D11*
X582625Y67945D03*
X588340Y67945D03*
D31*
X593738Y67945D03*
D12*
X600393Y67945D03*
D25*
X514363Y68580D03*
D62*
X532117Y68580D03*
D63*
X536893Y68580D03*
D43*
X542290Y68580D03*
D35*
X551193Y68580D03*
D59*
X559753Y68580D03*
D64*
X568008Y68580D03*
D11*
X582625Y68580D03*
X588340Y68580D03*
D31*
X593738Y68580D03*
D12*
X600393Y68580D03*
D25*
X514363Y69215D03*
D62*
X532117Y69215D03*
D63*
X536893Y69215D03*
X541973Y69215D03*
D43*
X547370Y69215D03*
D33*
X553733Y69215D03*
D57*
X559435Y69215D03*
D17*
X568643Y69215D03*
D11*
X582625Y69215D03*
X588340Y69215D03*
D31*
X593738Y69215D03*
D12*
X600393Y69215D03*
D64*
X611188Y69215D03*
D49*
X619443Y69215D03*
D11*
X165405Y69850D03*
D25*
X514363Y69850D03*
D56*
X532435Y69850D03*
D12*
X536893Y69850D03*
D63*
X541973Y69850D03*
D43*
X547370Y69850D03*
D61*
X555955Y69850D03*
D57*
X565150Y69850D03*
D29*
X571183Y69850D03*
D11*
X582625Y69850D03*
X588340Y69850D03*
D31*
X593738Y69850D03*
D12*
X600393Y69850D03*
D64*
X611188Y69850D03*
D49*
X619443Y69850D03*
D11*
X165405Y70485D03*
D18*
X491185Y70485D03*
D28*
X498158Y70485D03*
D25*
X514363Y70485D03*
D32*
X535292Y70485D03*
D30*
X541655Y70485D03*
D63*
X547053Y70485D03*
X552768Y70485D03*
D38*
X558178Y70485D03*
D57*
X564515Y70485D03*
D29*
X571818Y70485D03*
D11*
X582625Y70485D03*
X588340Y70485D03*
D31*
X593738Y70485D03*
D12*
X600393Y70485D03*
D64*
X611188Y70485D03*
D49*
X619443Y70485D03*
D11*
X165405Y71120D03*
D38*
X490868Y71120D03*
D28*
X498158Y71120D03*
D25*
X514363Y71120D03*
D46*
X537832Y71120D03*
D12*
X547053Y71120D03*
D43*
X552450Y71120D03*
D23*
X559130Y71120D03*
D43*
X563880Y71120D03*
D14*
X572465Y71120D03*
D11*
X582625Y71120D03*
X588340Y71120D03*
D31*
X593738Y71120D03*
D12*
X600393Y71120D03*
D64*
X611188Y71120D03*
D49*
X619443Y71120D03*
D11*
X165405Y71755D03*
D38*
X490868Y71755D03*
D28*
X498158Y71755D03*
D25*
X514363Y71755D03*
D19*
X534670Y71755D03*
D39*
X542912Y71755D03*
D56*
X552145Y71755D03*
D65*
X560705Y71755D03*
D61*
X573100Y71755D03*
D11*
X582625Y71755D03*
D31*
X593738Y71755D03*
D12*
X600393Y71755D03*
D49*
X608648Y71755D03*
X613728Y71755D03*
X619443Y71755D03*
D11*
X165405Y72390D03*
X489915Y72390D03*
D43*
X499110Y72390D03*
D31*
X534683Y72390D03*
D49*
X540068Y72390D03*
D66*
X546100Y72390D03*
D30*
X551815Y72390D03*
D43*
X557530Y72390D03*
D28*
X562928Y72390D03*
D43*
X569595Y72390D03*
D33*
X575323Y72390D03*
D12*
X600393Y72390D03*
D49*
X608648Y72390D03*
D31*
X614058Y72390D03*
D49*
X619443Y72390D03*
D11*
X165405Y73025D03*
X489915Y73025D03*
D43*
X499110Y73025D03*
D56*
X534365Y73025D03*
D57*
X539750Y73025D03*
D35*
X548627Y73025D03*
D56*
X557225Y73025D03*
D18*
X563575Y73025D03*
D43*
X568960Y73025D03*
D29*
X576263Y73025D03*
D12*
X600393Y73025D03*
D49*
X608648Y73025D03*
X619443Y73025D03*
D11*
X165405Y73660D03*
X489915Y73660D03*
D43*
X499110Y73660D03*
D56*
X534365Y73660D03*
D59*
X539433Y73660D03*
D57*
X544830Y73660D03*
D33*
X551167Y73660D03*
D31*
X556908Y73660D03*
D65*
X565785Y73660D03*
D29*
X576898Y73660D03*
D12*
X600393Y73660D03*
D49*
X608648Y73660D03*
X619443Y73660D03*
D22*
X141288Y74295D03*
D40*
X165430Y74295D03*
D11*
X489915Y74295D03*
D43*
X499110Y74295D03*
D56*
X534365Y74295D03*
D59*
X539433Y74295D03*
D62*
X544843Y74295D03*
D17*
X553403Y74295D03*
D43*
X562610Y74295D03*
D37*
X567690Y74295D03*
D67*
X577215Y74295D03*
D12*
X600393Y74295D03*
D47*
X614045Y74295D03*
D22*
X141288Y74930D03*
D40*
X165430Y74930D03*
D22*
X494348Y74930D03*
D18*
X522300Y74930D03*
D13*
X534035Y74930D03*
D49*
X539433Y74930D03*
D59*
X544513Y74930D03*
D49*
X550228Y74930D03*
D23*
X555320Y74930D03*
D31*
X561988Y74930D03*
D28*
X568008Y74930D03*
D12*
X574358Y74930D03*
D33*
X579133Y74930D03*
D12*
X600393Y74930D03*
D47*
X614045Y74930D03*
D22*
X141288Y75565D03*
D40*
X165430Y75565D03*
D22*
X494348Y75565D03*
D38*
X522618Y75565D03*
D44*
X536575Y75565D03*
D49*
X544513Y75565D03*
D57*
X549910Y75565D03*
D38*
X556247Y75565D03*
D11*
X561670Y75565D03*
D37*
X568325Y75565D03*
D43*
X573405Y75565D03*
D23*
X580085Y75565D03*
D12*
X600393Y75565D03*
D47*
X614045Y75565D03*
D22*
X141288Y76200D03*
D40*
X165430Y76200D03*
D50*
X494665Y76200D03*
D38*
X522618Y76200D03*
D60*
X538798Y76200D03*
D59*
X549593Y76200D03*
D49*
X555308Y76200D03*
D23*
X560400Y76200D03*
D65*
X570230Y76200D03*
D21*
X580720Y76200D03*
D12*
X600393Y76200D03*
D46*
X614058Y76200D03*
D11*
X165405Y76835D03*
D38*
X522618Y76835D03*
D56*
X532435Y76835D03*
D40*
X541350Y76835D03*
D49*
X548958Y76835D03*
D57*
X554990Y76835D03*
D19*
X560705Y76835D03*
D31*
X567068Y76835D03*
D13*
X572135Y76835D03*
D32*
X581038Y76835D03*
D12*
X600393Y76835D03*
D11*
X165405Y77470D03*
D38*
X522618Y77470D03*
D62*
X532117Y77470D03*
D12*
X536893Y77470D03*
D24*
X545795Y77470D03*
D59*
X554673Y77470D03*
D38*
X561327Y77470D03*
D31*
X566433Y77470D03*
D13*
X572135Y77470D03*
D68*
X581343Y77470D03*
D11*
X165405Y78105D03*
D38*
X522618Y78105D03*
D62*
X532117Y78105D03*
D63*
X536893Y78105D03*
D12*
X542608Y78105D03*
D33*
X548653Y78105D03*
D57*
X554355Y78105D03*
D42*
X563245Y78105D03*
D30*
X572770Y78105D03*
D43*
X578485Y78105D03*
D37*
X583565Y78105D03*
D11*
X165405Y78740D03*
D38*
X522618Y78740D03*
D62*
X532117Y78740D03*
D63*
X536893Y78740D03*
D43*
X542290Y78740D03*
D61*
X550875Y78740D03*
D59*
X559753Y78740D03*
D69*
X565468Y78740D03*
D14*
X575005Y78740D03*
D37*
X584200Y78740D03*
D11*
X165405Y79375D03*
D22*
X494348Y79375D03*
D25*
X514363Y79375D03*
D56*
X532435Y79375D03*
D43*
X536575Y79375D03*
D63*
X541973Y79375D03*
D43*
X547370Y79375D03*
D23*
X553415Y79375D03*
D57*
X559435Y79375D03*
D69*
X565468Y79375D03*
D57*
X571500Y79375D03*
D19*
X576580Y79375D03*
D33*
X584848Y79375D03*
D11*
X165405Y80010D03*
D22*
X494348Y80010D03*
D25*
X514363Y80010D03*
D57*
X532765Y80010D03*
D12*
X536893Y80010D03*
D43*
X541655Y80010D03*
X547370Y80010D03*
D65*
X555625Y80010D03*
D69*
X566103Y80010D03*
D57*
X570865Y80010D03*
D13*
X576580Y80010D03*
D21*
X585165Y80010D03*
D11*
X165405Y80645D03*
D22*
X494348Y80645D03*
D25*
X514363Y80645D03*
D40*
X537515Y80645D03*
D63*
X547053Y80645D03*
D12*
X552768Y80645D03*
D23*
X557860Y80645D03*
D66*
X567690Y80645D03*
D13*
X577215Y80645D03*
D32*
X585483Y80645D03*
D25*
X514363Y81280D03*
D40*
X538150Y81280D03*
D43*
X546735Y81280D03*
X552450Y81280D03*
D38*
X558178Y81280D03*
D57*
X564515Y81280D03*
D20*
X569608Y81280D03*
D13*
X577215Y81280D03*
D31*
X582308Y81280D03*
D19*
X587375Y81280D03*
D25*
X514363Y81915D03*
D13*
X534670Y81915D03*
D35*
X542912Y81915D03*
D56*
X552145Y81915D03*
D38*
X558813Y81915D03*
D43*
X563880Y81915D03*
D18*
X569925Y81915D03*
D64*
X578803Y81915D03*
D38*
X587997Y81915D03*
D63*
X499428Y82550D03*
D25*
X514363Y82550D03*
D31*
X534683Y82550D03*
D49*
X540068Y82550D03*
D23*
X545770Y82550D03*
D11*
X551510Y82550D03*
D68*
X560388Y82550D03*
D18*
X570560Y82550D03*
D57*
X575945Y82550D03*
D18*
X580720Y82550D03*
D23*
X588315Y82550D03*
D28*
X498158Y83185D03*
D25*
X514363Y83185D03*
D56*
X534365Y83185D03*
D57*
X539750Y83185D03*
D17*
X548323Y83185D03*
D43*
X557530Y83185D03*
D28*
X562928Y83185D03*
D14*
X572465Y83185D03*
D13*
X581025Y83185D03*
D33*
X588632Y83185D03*
D29*
X496888Y83820D03*
D38*
X522618Y83820D03*
D56*
X534365Y83820D03*
D57*
X539750Y83820D03*
X544830Y83820D03*
D23*
X550850Y83820D03*
D31*
X556908Y83820D03*
D28*
X562928Y83820D03*
D43*
X568960Y83820D03*
D28*
X573723Y83820D03*
D13*
X581025Y83820D03*
D70*
X588963Y83820D03*
D27*
X495618Y84455D03*
D38*
X522618Y84455D03*
D49*
X534353Y84455D03*
D57*
X539750Y84455D03*
D59*
X544513Y84455D03*
D42*
X553085Y84455D03*
D23*
X563575Y84455D03*
D43*
X568325Y84455D03*
D30*
X574040Y84455D03*
D13*
X581025Y84455D03*
D64*
X588963Y84455D03*
D26*
X493408Y85090D03*
D38*
X522618Y85090D03*
D69*
X534353Y85090D03*
D49*
X539433Y85090D03*
D59*
X544513Y85090D03*
D49*
X550228Y85090D03*
D23*
X555320Y85090D03*
D12*
X562293Y85090D03*
D38*
X567042Y85090D03*
D20*
X574688Y85090D03*
D19*
X581660Y85090D03*
D11*
X585800Y85090D03*
D38*
X591198Y85090D03*
D29*
X491808Y85725D03*
D38*
X522618Y85725D03*
D44*
X536575Y85725D03*
D57*
X544195Y85725D03*
X549910Y85725D03*
D19*
X555625Y85725D03*
D56*
X561670Y85725D03*
D28*
X567373Y85725D03*
D18*
X575005Y85725D03*
D43*
X579755Y85725D03*
D28*
X584518Y85725D03*
D38*
X591833Y85725D03*
X490868Y86360D03*
X522618Y86360D03*
D60*
X538798Y86360D03*
D57*
X549275Y86360D03*
D42*
X558165Y86360D03*
D30*
X567690Y86360D03*
D68*
X576263Y86360D03*
D30*
X584835Y86360D03*
D19*
X592455Y86360D03*
D32*
X492138Y86995D03*
D38*
X522618Y86995D03*
D56*
X532435Y86995D03*
D18*
X537540Y86995D03*
D21*
X543255Y86995D03*
D57*
X549275Y86995D03*
D42*
X558165Y86995D03*
D28*
X568008Y86995D03*
D43*
X573405Y86995D03*
D30*
X577850Y86995D03*
D12*
X585153Y86995D03*
D23*
X592760Y86995D03*
D39*
X494043Y87630D03*
D38*
X522618Y87630D03*
D62*
X532117Y87630D03*
D43*
X537210Y87630D03*
D61*
X545795Y87630D03*
D59*
X554673Y87630D03*
D69*
X560388Y87630D03*
D31*
X567068Y87630D03*
D23*
X571195Y87630D03*
D12*
X578168Y87630D03*
X585153Y87630D03*
D29*
X592773Y87630D03*
D50*
X494665Y88265D03*
D62*
X532117Y88265D03*
D63*
X536893Y88265D03*
D43*
X542290Y88265D03*
D23*
X548335Y88265D03*
D57*
X554355Y88265D03*
D13*
X560705Y88265D03*
D31*
X566433Y88265D03*
D13*
X571500Y88265D03*
D12*
X578168Y88265D03*
D18*
X585165Y88265D03*
D67*
X592455Y88265D03*
D14*
X496240Y88900D03*
D62*
X532117Y88900D03*
D63*
X536893Y88900D03*
D43*
X542290Y88900D03*
D61*
X550875Y88900D03*
D64*
X562928Y88900D03*
D49*
X571818Y88900D03*
D30*
X578485Y88900D03*
D68*
X586423Y88900D03*
D28*
X594678Y88900D03*
D23*
X497510Y89535D03*
D56*
X532435Y89535D03*
D43*
X536575Y89535D03*
D63*
X541973Y89535D03*
D12*
X547688Y89535D03*
D38*
X553098Y89535D03*
D57*
X560070Y89535D03*
D38*
X564528Y89535D03*
D13*
X572135Y89535D03*
D14*
X580720Y89535D03*
D13*
X588010Y89535D03*
D18*
X595325Y89535D03*
D43*
X499110Y90170D03*
D57*
X532765Y90170D03*
D30*
X536575Y90170D03*
D43*
X541655Y90170D03*
X547370Y90170D03*
D18*
X553415Y90170D03*
D56*
X559105Y90170D03*
D18*
X564845Y90170D03*
X572440Y90170D03*
D49*
X576898Y90170D03*
D69*
X581978Y90170D03*
D11*
X588340Y90170D03*
D38*
X595643Y90170D03*
D25*
X514363Y90805D03*
D64*
X535623Y90805D03*
D12*
X541338Y90805D03*
D63*
X547053Y90805D03*
D23*
X554050Y90805D03*
D12*
X558483Y90805D03*
D13*
X565150Y90805D03*
D64*
X573723Y90805D03*
D13*
X582295Y90805D03*
D11*
X588340Y90805D03*
D23*
X595960Y90805D03*
D25*
X514363Y91440D03*
D40*
X538150Y91440D03*
D43*
X546735Y91440D03*
D12*
X552768Y91440D03*
D37*
X557530Y91440D03*
D69*
X565468Y91440D03*
D57*
X570230Y91440D03*
D18*
X575640Y91440D03*
D13*
X582295Y91440D03*
D11*
X588340Y91440D03*
D33*
X596278Y91440D03*
D11*
X489915Y92075D03*
D43*
X499110Y92075D03*
D25*
X514363Y92075D03*
D49*
X534353Y92075D03*
D35*
X542912Y92075D03*
D43*
X552450Y92075D03*
D28*
X557848Y92075D03*
D64*
X567373Y92075D03*
D13*
X575945Y92075D03*
X582295Y92075D03*
D30*
X588645Y92075D03*
D21*
X595960Y92075D03*
D11*
X489915Y92710D03*
D31*
X494678Y92710D03*
D43*
X499110Y92710D03*
D25*
X514363Y92710D03*
D56*
X534365Y92710D03*
D49*
X540068Y92710D03*
D23*
X545770Y92710D03*
D31*
X551828Y92710D03*
D18*
X558495Y92710D03*
D43*
X563880Y92710D03*
D30*
X568960Y92710D03*
D49*
X576263Y92710D03*
D69*
X582613Y92710D03*
D64*
X590233Y92710D03*
D69*
X597853Y92710D03*
D11*
X489915Y93345D03*
D31*
X494678Y93345D03*
D43*
X499110Y93345D03*
D25*
X514363Y93345D03*
D56*
X534365Y93345D03*
D57*
X539750Y93345D03*
D17*
X548323Y93345D03*
D68*
X560388Y93345D03*
D20*
X569608Y93345D03*
D69*
X576263Y93345D03*
D64*
X583883Y93345D03*
D18*
X591515Y93345D03*
D69*
X598488Y93345D03*
D11*
X489915Y93980D03*
D31*
X494678Y93980D03*
D43*
X499110Y93980D03*
D25*
X514363Y93980D03*
D56*
X534365Y93980D03*
D57*
X539750Y93980D03*
D49*
X545148Y93980D03*
D19*
X550545Y93980D03*
D56*
X557225Y93980D03*
D28*
X562293Y93980D03*
D20*
X569608Y93980D03*
D64*
X578168Y93980D03*
D20*
X585483Y93980D03*
D13*
X591820Y93980D03*
D38*
X598792Y93980D03*
D11*
X489915Y94615D03*
D31*
X494678Y94615D03*
D43*
X499110Y94615D03*
D35*
X509283Y94615D03*
D49*
X534353Y94615D03*
D59*
X539433Y94615D03*
D57*
X544830Y94615D03*
D69*
X550863Y94615D03*
D56*
X556590Y94615D03*
D30*
X562610Y94615D03*
D18*
X569925Y94615D03*
D43*
X574675Y94615D03*
D18*
X579450Y94615D03*
D11*
X585800Y94615D03*
D49*
X592138Y94615D03*
D38*
X598792Y94615D03*
D11*
X489915Y95250D03*
D31*
X494678Y95250D03*
D43*
X499110Y95250D03*
D44*
X510540Y95250D03*
D19*
X534035Y95250D03*
D49*
X538798Y95250D03*
D59*
X544513Y95250D03*
D42*
X553085Y95250D03*
D28*
X562928Y95250D03*
D12*
X568643Y95250D03*
D38*
X572757Y95250D03*
D12*
X579438Y95250D03*
D11*
X585800Y95250D03*
D49*
X592138Y95250D03*
D23*
X599110Y95250D03*
D22*
X494348Y95885D03*
D35*
X511797Y95885D03*
D17*
X536258Y95885D03*
D57*
X544195Y95885D03*
D42*
X553085Y95885D03*
D38*
X563258Y95885D03*
D11*
X567385Y95885D03*
D30*
X572770Y95885D03*
D12*
X579438Y95885D03*
D11*
X585800Y95885D03*
D13*
X591820Y95885D03*
D21*
X599110Y95885D03*
D22*
X494348Y96520D03*
D36*
X513080Y96520D03*
D57*
X532765Y96520D03*
D24*
X540080Y96520D03*
D57*
X549910Y96520D03*
D69*
X555308Y96520D03*
D11*
X561670Y96520D03*
D19*
X566420Y96520D03*
D12*
X573088Y96520D03*
X579438Y96520D03*
D20*
X586118Y96520D03*
D46*
X596252Y96520D03*
D22*
X494348Y97155D03*
D35*
X514363Y97155D03*
D56*
X532435Y97155D03*
D30*
X537210Y97155D03*
D33*
X543573Y97155D03*
D57*
X549275Y97155D03*
D19*
X555625Y97155D03*
D49*
X561023Y97155D03*
D13*
X566420Y97155D03*
D30*
X573405Y97155D03*
D20*
X579768Y97155D03*
D65*
X587375Y97155D03*
D28*
X594678Y97155D03*
D38*
X600723Y97155D03*
D17*
X515938Y97790D03*
D62*
X532117Y97790D03*
D43*
X537210Y97790D03*
D61*
X545795Y97790D03*
D42*
X557530Y97790D03*
D20*
X567068Y97790D03*
D28*
X573723Y97790D03*
D68*
X581343Y97790D03*
D28*
X588963Y97790D03*
D12*
X594678Y97790D03*
D18*
X601675Y97790D03*
D27*
X517208Y98425D03*
D62*
X532117Y98425D03*
D63*
X536893Y98425D03*
D43*
X542290Y98425D03*
D23*
X547700Y98425D03*
D57*
X554355Y98425D03*
D18*
X559765Y98425D03*
D20*
X567068Y98425D03*
D65*
X575310Y98425D03*
D69*
X582613Y98425D03*
D12*
X588963Y98425D03*
D43*
X594995Y98425D03*
D18*
X601675Y98425D03*
D27*
X518478Y99060D03*
D62*
X532117Y99060D03*
D63*
X536893Y99060D03*
D43*
X542290Y99060D03*
D23*
X548970Y99060D03*
D43*
X553720Y99060D03*
D18*
X559765Y99060D03*
D28*
X567373Y99060D03*
D49*
X571818Y99060D03*
D69*
X576898Y99060D03*
D20*
X582943Y99060D03*
D43*
X589280Y99060D03*
X594995Y99060D03*
D38*
X601993Y99060D03*
D35*
X519443Y99695D03*
D56*
X532435Y99695D03*
D12*
X536893Y99695D03*
D63*
X541973Y99695D03*
D65*
X550545Y99695D03*
D69*
X560388Y99695D03*
D49*
X566103Y99695D03*
D38*
X570243Y99695D03*
D49*
X576898Y99695D03*
D11*
X583260Y99695D03*
D43*
X589280Y99695D03*
D12*
X595313Y99695D03*
D38*
X601993Y99695D03*
D50*
X494665Y100330D03*
D25*
X514363Y100330D03*
D49*
X533083Y100330D03*
D28*
X536893Y100330D03*
D43*
X541655Y100330D03*
X547370Y100330D03*
D28*
X552768Y100330D03*
D26*
X561988Y100330D03*
D13*
X570865Y100330D03*
D49*
X576898Y100330D03*
D11*
X583260Y100330D03*
D30*
X589280Y100330D03*
D18*
X595325Y100330D03*
D33*
X601993Y100330D03*
D22*
X494348Y100965D03*
D25*
X514363Y100965D03*
D40*
X537515Y100965D03*
D63*
X547053Y100965D03*
D38*
X553098Y100965D03*
D11*
X559130Y100965D03*
D18*
X563575Y100965D03*
D49*
X570548Y100965D03*
D13*
X577215Y100965D03*
D30*
X583565Y100965D03*
D28*
X589598Y100965D03*
D45*
X598818Y100965D03*
D22*
X494348Y101600D03*
D25*
X514363Y101600D03*
D24*
X538150Y101600D03*
D43*
X546735Y101600D03*
D27*
X555308Y101600D03*
D20*
X563893Y101600D03*
D13*
X570865Y101600D03*
D18*
X577520Y101600D03*
D71*
X590245Y101600D03*
D69*
X603568Y101600D03*
D11*
X489915Y102235D03*
D43*
X499110Y102235D03*
D25*
X514363Y102235D03*
D49*
X534353Y102235D03*
D35*
X542912Y102235D03*
D65*
X554990Y102235D03*
D11*
X564210Y102235D03*
D69*
X571183Y102235D03*
D47*
X581660Y102235D03*
D13*
X591820Y102235D03*
D49*
X597853Y102235D03*
D18*
X604190Y102235D03*
D11*
X489915Y102870D03*
D43*
X499110Y102870D03*
D25*
X514363Y102870D03*
D56*
X534365Y102870D03*
D49*
X540068Y102870D03*
D38*
X545452Y102870D03*
D31*
X551828Y102870D03*
D28*
X557213Y102870D03*
D20*
X564528Y102870D03*
D61*
X573100Y102870D03*
D18*
X580085Y102870D03*
D49*
X586423Y102870D03*
X592138Y102870D03*
D31*
X598183Y102870D03*
D18*
X604190Y102870D03*
D11*
X489915Y103505D03*
D43*
X499110Y103505D03*
D25*
X514363Y103505D03*
D56*
X534365Y103505D03*
D57*
X539750Y103505D03*
D38*
X546087Y103505D03*
D31*
X551193Y103505D03*
D30*
X557530Y103505D03*
D45*
X569608Y103505D03*
D11*
X580085Y103505D03*
D49*
X586423Y103505D03*
X592138Y103505D03*
D31*
X598183Y103505D03*
D38*
X604507Y103505D03*
D11*
X489915Y104140D03*
D43*
X499110Y104140D03*
D57*
X534035Y104140D03*
D59*
X539433Y104140D03*
D42*
X548005Y104140D03*
D28*
X557848Y104140D03*
D12*
X562928Y104140D03*
D37*
X567690Y104140D03*
D30*
X574040Y104140D03*
D57*
X580390Y104140D03*
D49*
X586423Y104140D03*
X592138Y104140D03*
X597853Y104140D03*
D38*
X604507Y104140D03*
D22*
X494348Y104775D03*
D13*
X534035Y104775D03*
D57*
X539115Y104775D03*
X544830Y104775D03*
D69*
X550228Y104775D03*
D68*
X559753Y104775D03*
D30*
X568325Y104775D03*
D12*
X574358Y104775D03*
D57*
X580390Y104775D03*
D49*
X586423Y104775D03*
D13*
X592455Y104775D03*
X598170Y104775D03*
D33*
X604507Y104775D03*
D22*
X494348Y105410D03*
D42*
X535940Y105410D03*
D59*
X544513Y105410D03*
D69*
X550863Y105410D03*
D11*
X556590Y105410D03*
D38*
X561327Y105410D03*
D30*
X568325Y105410D03*
D12*
X574358Y105410D03*
D49*
X580708Y105410D03*
D18*
X586435Y105410D03*
D72*
X598792Y105410D03*
D22*
X494348Y106045D03*
D17*
X536258Y106045D03*
D49*
X543878Y106045D03*
D38*
X551167Y106045D03*
D49*
X555943Y106045D03*
D30*
X561975Y106045D03*
X568325Y106045D03*
D20*
X574688Y106045D03*
D73*
X588023Y106045D03*
D28*
X600393Y106045D03*
D18*
X606120Y106045D03*
D56*
X532435Y106680D03*
D35*
X540398Y106680D03*
D57*
X549910Y106680D03*
D18*
X554685Y106680D03*
D30*
X561975Y106680D03*
D28*
X568643Y106680D03*
D74*
X579120Y106680D03*
D28*
X588963Y106680D03*
X594678Y106680D03*
D12*
X600393Y106680D03*
D20*
X606438Y106680D03*
D62*
X532117Y107315D03*
D43*
X537210Y107315D03*
D23*
X542620Y107315D03*
D57*
X549275Y107315D03*
D13*
X554990Y107315D03*
D30*
X561975Y107315D03*
D65*
X570230Y107315D03*
D18*
X577520Y107315D03*
D30*
X583565Y107315D03*
D12*
X588963Y107315D03*
D43*
X594995Y107315D03*
D12*
X600393Y107315D03*
D18*
X606755Y107315D03*
D40*
X518490Y107950D03*
D62*
X532117Y107950D03*
D63*
X536893Y107950D03*
D23*
X543255Y107950D03*
D57*
X548640Y107950D03*
D69*
X555308Y107950D03*
D37*
X562610Y107950D03*
D11*
X566750Y107950D03*
D13*
X571500Y107950D03*
D11*
X577545Y107950D03*
D31*
X583578Y107950D03*
D43*
X589280Y107950D03*
D63*
X594678Y107950D03*
D43*
X600710Y107950D03*
D18*
X606755Y107950D03*
D75*
X518160Y108585D03*
D62*
X532117Y108585D03*
D63*
X536893Y108585D03*
D26*
X545478Y108585D03*
D69*
X555308Y108585D03*
D57*
X560705Y108585D03*
D38*
X565163Y108585D03*
D49*
X571818Y108585D03*
D11*
X577545Y108585D03*
D31*
X583578Y108585D03*
D43*
X589280Y108585D03*
X594995Y108585D03*
X600710Y108585D03*
D38*
X607073Y108585D03*
D22*
X494348Y109220D03*
D75*
X518160Y109220D03*
D56*
X532435Y109220D03*
D43*
X536575Y109220D03*
X542290Y109220D03*
D18*
X547700Y109220D03*
D64*
X557213Y109220D03*
D49*
X565468Y109220D03*
D57*
X571500Y109220D03*
D31*
X577863Y109220D03*
X583578Y109220D03*
D12*
X589598Y109220D03*
D30*
X594995Y109220D03*
X600710Y109220D03*
D23*
X606755Y109220D03*
D22*
X494348Y109855D03*
D75*
X518160Y109855D03*
D57*
X532765Y109855D03*
D12*
X536258Y109855D03*
D63*
X541973Y109855D03*
D18*
X548335Y109855D03*
D43*
X553720Y109855D03*
D18*
X558495Y109855D03*
D49*
X565468Y109855D03*
X571818Y109855D03*
D30*
X577850Y109855D03*
X583565Y109855D03*
D28*
X589598Y109855D03*
D76*
X601040Y109855D03*
D22*
X494348Y110490D03*
D75*
X518160Y110490D03*
D21*
X534975Y110490D03*
D43*
X541655Y110490D03*
D68*
X550228Y110490D03*
D20*
X558813Y110490D03*
D13*
X565785Y110490D03*
X572135Y110490D03*
D28*
X578168Y110490D03*
D77*
X595643Y110490D03*
D23*
X492430Y111125D03*
D75*
X518160Y111125D03*
D24*
X537515Y111125D03*
D43*
X547370Y111125D03*
D37*
X551815Y111125D03*
D11*
X559130Y111125D03*
D69*
X566103Y111125D03*
D47*
X576580Y111125D03*
D23*
X586435Y111125D03*
D18*
X591515Y111125D03*
D49*
X597218Y111125D03*
X602298Y111125D03*
D13*
X608330Y111125D03*
D23*
X493725Y111760D03*
D74*
X509905Y111760D03*
D13*
X534670Y111760D03*
D33*
X540372Y111760D03*
D43*
X546735Y111760D03*
D30*
X552450Y111760D03*
D18*
X559765Y111760D03*
D42*
X567690Y111760D03*
D38*
X574688Y111760D03*
D18*
X580085Y111760D03*
D20*
X586118Y111760D03*
D49*
X591503Y111760D03*
D57*
X596900Y111760D03*
X602615Y111760D03*
D69*
X608648Y111760D03*
D15*
X494983Y112395D03*
D74*
X509905Y112395D03*
D31*
X534683Y112395D03*
D33*
X541007Y112395D03*
D12*
X546418Y112395D03*
X552768Y112395D03*
D26*
X561353Y112395D03*
D28*
X568643Y112395D03*
D11*
X575005Y112395D03*
D20*
X580403Y112395D03*
D49*
X586423Y112395D03*
D57*
X591820Y112395D03*
D59*
X597218Y112395D03*
X602298Y112395D03*
D13*
X608965Y112395D03*
D23*
X496265Y113030D03*
D74*
X509905Y113030D03*
D56*
X534365Y113030D03*
D57*
X539750Y113030D03*
D23*
X545135Y113030D03*
D18*
X553415Y113030D03*
D43*
X558165Y113030D03*
D28*
X562293Y113030D03*
D30*
X568960Y113030D03*
D43*
X574675Y113030D03*
D57*
X580390Y113030D03*
X586105Y113030D03*
X591820Y113030D03*
D59*
X597218Y113030D03*
X602298Y113030D03*
D13*
X608965Y113030D03*
D23*
X497510Y113665D03*
D74*
X509905Y113665D03*
D56*
X534365Y113665D03*
D57*
X539750Y113665D03*
D38*
X545452Y113665D03*
D68*
X554673Y113665D03*
D12*
X562928Y113665D03*
D43*
X568960Y113665D03*
X574675Y113665D03*
D57*
X580390Y113665D03*
D49*
X586423Y113665D03*
D57*
X591820Y113665D03*
D49*
X597218Y113665D03*
D57*
X602615Y113665D03*
D38*
X608952Y113665D03*
D22*
X494348Y114300D03*
D74*
X509905Y114300D03*
D57*
X534035Y114300D03*
D59*
X539433Y114300D03*
D38*
X546087Y114300D03*
D31*
X551193Y114300D03*
D13*
X556260Y114300D03*
D12*
X562928Y114300D03*
D43*
X568960Y114300D03*
D11*
X575005Y114300D03*
D49*
X580708Y114300D03*
D20*
X586118Y114300D03*
D13*
X591820Y114300D03*
D69*
X597218Y114300D03*
X602933Y114300D03*
D78*
X608330Y114300D03*
D22*
X494348Y114935D03*
D74*
X509905Y114935D03*
D13*
X534035Y114935D03*
D57*
X539115Y114935D03*
D64*
X547688Y114935D03*
D11*
X556590Y114935D03*
D12*
X562928Y114935D03*
D30*
X568960Y114935D03*
D18*
X575640Y114935D03*
D23*
X580720Y114935D03*
X586435Y114935D03*
D79*
X600710Y114935D03*
D22*
X494348Y115570D03*
D75*
X518160Y115570D03*
D42*
X535940Y115570D03*
D57*
X544830Y115570D03*
D69*
X549593Y115570D03*
D30*
X556895Y115570D03*
X563245Y115570D03*
D18*
X569290Y115570D03*
D80*
X586740Y115570D03*
D30*
X604520Y115570D03*
D28*
X609918Y115570D03*
D75*
X518160Y116205D03*
D17*
X536258Y116205D03*
D57*
X544195Y116205D03*
D13*
X549910Y116205D03*
D30*
X556895Y116205D03*
D81*
X570230Y116205D03*
D20*
X582943Y116205D03*
D30*
X588645Y116205D03*
D12*
X594043Y116205D03*
D11*
X599135Y116205D03*
X604215Y116205D03*
D30*
X610235Y116205D03*
D75*
X518160Y116840D03*
D56*
X532435Y116840D03*
D61*
X540080Y116840D03*
D69*
X550228Y116840D03*
D48*
X561670Y116840D03*
D13*
X572135Y116840D03*
D11*
X577545Y116840D03*
D31*
X582943Y116840D03*
X588658Y116840D03*
X593738Y116840D03*
D56*
X599135Y116840D03*
X604215Y116840D03*
D28*
X610553Y116840D03*
D75*
X518160Y117475D03*
D62*
X532117Y117475D03*
D61*
X540715Y117475D03*
D19*
X550545Y117475D03*
D64*
X557848Y117475D03*
D49*
X566103Y117475D03*
X571818Y117475D03*
D11*
X577545Y117475D03*
D31*
X582943Y117475D03*
D56*
X588340Y117475D03*
D31*
X593738Y117475D03*
D56*
X599135Y117475D03*
X604215Y117475D03*
D28*
X610553Y117475D03*
D23*
X491185Y118110D03*
D19*
X497205Y118110D03*
D75*
X518160Y118110D03*
D62*
X532117Y118110D03*
D43*
X537210Y118110D03*
D38*
X542938Y118110D03*
D64*
X552133Y118110D03*
D13*
X560070Y118110D03*
D31*
X566433Y118110D03*
D56*
X571830Y118110D03*
D31*
X577228Y118110D03*
X582943Y118110D03*
D56*
X588340Y118110D03*
D31*
X593738Y118110D03*
X599453Y118110D03*
X604533Y118110D03*
D28*
X610553Y118110D03*
D22*
X494348Y118745D03*
D40*
X518490Y118745D03*
D62*
X532117Y118745D03*
D63*
X536893Y118745D03*
D38*
X543573Y118745D03*
D57*
X548640Y118745D03*
D18*
X554050Y118745D03*
D49*
X560388Y118745D03*
D31*
X566433Y118745D03*
X572148Y118745D03*
D11*
X577545Y118745D03*
D31*
X582943Y118745D03*
D11*
X588340Y118745D03*
D12*
X594043Y118745D03*
D30*
X599440Y118745D03*
X604520Y118745D03*
D23*
X610565Y118745D03*
D22*
X494348Y119380D03*
D56*
X532435Y119380D03*
D43*
X536575Y119380D03*
D12*
X542608Y119380D03*
D37*
X546735Y119380D03*
D20*
X554368Y119380D03*
D49*
X560388Y119380D03*
X566103Y119380D03*
D13*
X572135Y119380D03*
X577215Y119380D03*
D20*
X582943Y119380D03*
D38*
X588632Y119380D03*
D25*
X602628Y119380D03*
D22*
X494348Y120015D03*
D57*
X532765Y120015D03*
D43*
X536575Y120015D03*
D63*
X541973Y120015D03*
D28*
X547053Y120015D03*
D20*
X554368Y120015D03*
D13*
X560705Y120015D03*
X566420Y120015D03*
D82*
X591503Y120015D03*
D31*
X494678Y120650D03*
D43*
X499110Y120650D03*
D21*
X534975Y120650D03*
D43*
X541655Y120650D03*
D30*
X547370Y120650D03*
D18*
X554685Y120650D03*
D83*
X570230Y120650D03*
D18*
X585165Y120650D03*
X590245Y120650D03*
D20*
X595643Y120650D03*
D18*
X601040Y120650D03*
D30*
X605790Y120650D03*
D18*
X611200Y120650D03*
D31*
X494678Y121285D03*
D43*
X499110Y121285D03*
D44*
X537210Y121285D03*
D18*
X547700Y121285D03*
D45*
X558813Y121285D03*
D18*
X569290Y121285D03*
D20*
X574688Y121285D03*
D12*
X579438Y121285D03*
X585153Y121285D03*
D43*
X590550Y121285D03*
X595630Y121285D03*
X600710Y121285D03*
X605790Y121285D03*
D18*
X611835Y121285D03*
D31*
X494678Y121920D03*
D43*
X499110Y121920D03*
D13*
X534670Y121920D03*
D19*
X539750Y121920D03*
D38*
X548018Y121920D03*
D12*
X552768Y121920D03*
D28*
X557213Y121920D03*
D30*
X563245Y121920D03*
D12*
X569278Y121920D03*
D43*
X574675Y121920D03*
X579755Y121920D03*
X585470Y121920D03*
X590550Y121920D03*
X595630Y121920D03*
X600710Y121920D03*
X605790Y121920D03*
D20*
X612153Y121920D03*
D22*
X494348Y122555D03*
D31*
X534683Y122555D03*
D38*
X540372Y122555D03*
D43*
X546735Y122555D03*
D38*
X551167Y122555D03*
D43*
X557530Y122555D03*
X563245Y122555D03*
X568960Y122555D03*
D63*
X574358Y122555D03*
D43*
X579755Y122555D03*
D63*
X585153Y122555D03*
X590233Y122555D03*
D56*
X595935Y122555D03*
D63*
X601028Y122555D03*
D43*
X605790Y122555D03*
D20*
X612153Y122555D03*
D22*
X494348Y123190D03*
D42*
X509905Y123190D03*
D38*
X520052Y123190D03*
D56*
X534365Y123190D03*
D23*
X541325Y123190D03*
D31*
X546113Y123190D03*
D20*
X551193Y123190D03*
D43*
X557530Y123190D03*
X563245Y123190D03*
X568960Y123190D03*
D63*
X574358Y123190D03*
D43*
X579755Y123190D03*
D63*
X585153Y123190D03*
D43*
X590550Y123190D03*
X595630Y123190D03*
X600710Y123190D03*
X605790Y123190D03*
D20*
X612153Y123190D03*
D22*
X494348Y123825D03*
D39*
X509918Y123825D03*
D16*
X520700Y123825D03*
D56*
X534365Y123825D03*
D49*
X540068Y123825D03*
D69*
X544513Y123825D03*
D11*
X551510Y123825D03*
D43*
X557530Y123825D03*
D12*
X563563Y123825D03*
D43*
X568960Y123825D03*
D12*
X574358Y123825D03*
D11*
X580085Y123825D03*
D12*
X585153Y123825D03*
X590233Y123825D03*
D11*
X595960Y123825D03*
D12*
X601028Y123825D03*
D30*
X605790Y123825D03*
D38*
X612153Y123825D03*
D22*
X494348Y124460D03*
D84*
X509905Y124460D03*
D70*
X521018Y124460D03*
D57*
X534035Y124460D03*
D59*
X539433Y124460D03*
D13*
X544830Y124460D03*
D11*
X551510Y124460D03*
D12*
X557848Y124460D03*
X563563Y124460D03*
D30*
X568960Y124460D03*
D35*
X577228Y124460D03*
D38*
X584848Y124460D03*
D23*
X590245Y124460D03*
D25*
X603898Y124460D03*
D84*
X509905Y125095D03*
D70*
X521018Y125095D03*
D69*
X533718Y125095D03*
D57*
X539115Y125095D03*
D49*
X545148Y125095D03*
D30*
X551815Y125095D03*
D28*
X557848Y125095D03*
D85*
X588023Y125095D03*
D84*
X509905Y125730D03*
D66*
X521335Y125730D03*
D64*
X535623Y125730D03*
D13*
X545465Y125730D03*
D86*
X569290Y125730D03*
D18*
X591515Y125730D03*
D69*
X597218Y125730D03*
D20*
X601993Y125730D03*
X607073Y125730D03*
D18*
X612470Y125730D03*
D84*
X509905Y126365D03*
D66*
X521335Y126365D03*
D42*
X535940Y126365D03*
D64*
X547688Y126365D03*
D38*
X554368Y126365D03*
D13*
X560070Y126365D03*
X565785Y126365D03*
D49*
X571183Y126365D03*
D57*
X576580Y126365D03*
X581660Y126365D03*
X586740Y126365D03*
X591820Y126365D03*
X597535Y126365D03*
X601980Y126365D03*
X607060Y126365D03*
D13*
X612775Y126365D03*
D11*
X489915Y127000D03*
D43*
X499110Y127000D03*
D84*
X509905Y127000D03*
D66*
X521335Y127000D03*
D56*
X532435Y127000D03*
D38*
X537858Y127000D03*
D49*
X544513Y127000D03*
D18*
X548335Y127000D03*
D49*
X554673Y127000D03*
D57*
X560070Y127000D03*
X565785Y127000D03*
X571500Y127000D03*
X576580Y127000D03*
X581660Y127000D03*
X586740Y127000D03*
X591820Y127000D03*
D59*
X597218Y127000D03*
X602298Y127000D03*
X607378Y127000D03*
D13*
X613410Y127000D03*
D11*
X489915Y127635D03*
D31*
X494678Y127635D03*
D43*
X499110Y127635D03*
D18*
X505790Y127635D03*
X514020Y127635D03*
X522935Y127635D03*
D62*
X532117Y127635D03*
D26*
X540398Y127635D03*
D20*
X548653Y127635D03*
D49*
X554673Y127635D03*
D59*
X560388Y127635D03*
D57*
X565785Y127635D03*
D59*
X571183Y127635D03*
D57*
X576580Y127635D03*
X581660Y127635D03*
D59*
X586423Y127635D03*
X592138Y127635D03*
X597218Y127635D03*
D62*
X601967Y127635D03*
D59*
X607378Y127635D03*
D13*
X613410Y127635D03*
D11*
X489915Y128270D03*
D31*
X494678Y128270D03*
D43*
X499110Y128270D03*
D18*
X505790Y128270D03*
X514020Y128270D03*
X522935Y128270D03*
D62*
X532117Y128270D03*
D43*
X537210Y128270D03*
D28*
X541973Y128270D03*
D49*
X548958Y128270D03*
D59*
X554673Y128270D03*
X560388Y128270D03*
D57*
X565785Y128270D03*
X571500Y128270D03*
X576580Y128270D03*
X581660Y128270D03*
X586740Y128270D03*
X591820Y128270D03*
D59*
X597218Y128270D03*
D57*
X601980Y128270D03*
X607060Y128270D03*
D13*
X613410Y128270D03*
D11*
X489915Y128905D03*
D31*
X494678Y128905D03*
D43*
X499110Y128905D03*
D18*
X505790Y128905D03*
X514020Y128905D03*
X522935Y128905D03*
D62*
X532117Y128905D03*
D63*
X536893Y128905D03*
D30*
X542290Y128905D03*
D49*
X548958Y128905D03*
X554673Y128905D03*
X560388Y128905D03*
D13*
X565785Y128905D03*
D49*
X571183Y128905D03*
X576263Y128905D03*
X581978Y128905D03*
D13*
X586740Y128905D03*
D49*
X592138Y128905D03*
X597218Y128905D03*
D20*
X601993Y128905D03*
X607073Y128905D03*
D69*
X613093Y128905D03*
D11*
X489915Y129540D03*
D31*
X494678Y129540D03*
D43*
X499110Y129540D03*
D18*
X505790Y129540D03*
X514020Y129540D03*
X522935Y129540D03*
D56*
X532435Y129540D03*
D43*
X536575Y129540D03*
D12*
X542608Y129540D03*
D49*
X548958Y129540D03*
D13*
X554990Y129540D03*
D69*
X560388Y129540D03*
D19*
X565785Y129540D03*
D44*
X574040Y129540D03*
D19*
X581660Y129540D03*
D87*
X599770Y129540D03*
D11*
X489915Y130175D03*
D31*
X494678Y130175D03*
D43*
X499110Y130175D03*
D18*
X505790Y130175D03*
X514020Y130175D03*
X522935Y130175D03*
D57*
X532765Y130175D03*
D12*
X536258Y130175D03*
D20*
X542938Y130175D03*
D38*
X549288Y130175D03*
D88*
X583895Y130175D03*
D22*
X494348Y130810D03*
D18*
X505790Y130810D03*
X514020Y130810D03*
X522935Y130810D03*
D33*
X534657Y130810D03*
D81*
X549910Y130810D03*
D37*
X562610Y130810D03*
D28*
X567373Y130810D03*
X573088Y130810D03*
D30*
X577850Y130810D03*
D20*
X582943Y130810D03*
D13*
X588010Y130810D03*
X593090Y130810D03*
X598170Y130810D03*
X603250Y130810D03*
X608330Y130810D03*
D69*
X613728Y130810D03*
D22*
X494348Y131445D03*
D67*
X507365Y131445D03*
D41*
X518478Y131445D03*
D23*
X535610Y131445D03*
D67*
X544195Y131445D03*
D30*
X551815Y131445D03*
X556895Y131445D03*
D12*
X562293Y131445D03*
D31*
X567703Y131445D03*
X572783Y131445D03*
X577863Y131445D03*
X582943Y131445D03*
X588023Y131445D03*
X593103Y131445D03*
X598183Y131445D03*
D49*
X602933Y131445D03*
D59*
X608013Y131445D03*
D13*
X614045Y131445D03*
D22*
X494348Y132080D03*
D67*
X507365Y132080D03*
D41*
X518478Y132080D03*
D17*
X537528Y132080D03*
D11*
X545795Y132080D03*
D31*
X551828Y132080D03*
D56*
X557225Y132080D03*
D43*
X562610Y132080D03*
D31*
X567703Y132080D03*
X572783Y132080D03*
X577863Y132080D03*
D56*
X583260Y132080D03*
X587705Y132080D03*
D31*
X593103Y132080D03*
D56*
X597865Y132080D03*
D59*
X602933Y132080D03*
X608013Y132080D03*
D13*
X614045Y132080D03*
D67*
X507365Y132715D03*
D41*
X518478Y132715D03*
D31*
X534683Y132715D03*
D19*
X539750Y132715D03*
D11*
X545795Y132715D03*
D31*
X551828Y132715D03*
D56*
X557225Y132715D03*
X562305Y132715D03*
X568020Y132715D03*
X572465Y132715D03*
X577545Y132715D03*
X583260Y132715D03*
D62*
X588023Y132715D03*
D56*
X592785Y132715D03*
D62*
X598183Y132715D03*
D59*
X602933Y132715D03*
X608013Y132715D03*
D13*
X614045Y132715D03*
D67*
X507365Y133350D03*
D40*
X518490Y133350D03*
D56*
X534365Y133350D03*
D13*
X539750Y133350D03*
D31*
X546113Y133350D03*
X551828Y133350D03*
D56*
X557225Y133350D03*
D43*
X562610Y133350D03*
D31*
X567703Y133350D03*
X572783Y133350D03*
X577863Y133350D03*
X582943Y133350D03*
X588023Y133350D03*
X593103Y133350D03*
D56*
X597865Y133350D03*
D59*
X602933Y133350D03*
D57*
X608330Y133350D03*
D13*
X614045Y133350D03*
D67*
X507365Y133985D03*
D40*
X518490Y133985D03*
D59*
X533718Y133985D03*
D49*
X540068Y133985D03*
D30*
X546100Y133985D03*
D12*
X552133Y133985D03*
X557213Y133985D03*
X562293Y133985D03*
D11*
X567385Y133985D03*
D30*
X572770Y133985D03*
D31*
X577863Y133985D03*
D11*
X582625Y133985D03*
D13*
X588010Y133985D03*
D49*
X592773Y133985D03*
X597853Y133985D03*
X602933Y133985D03*
X608013Y133985D03*
D69*
X613728Y133985D03*
D29*
X507683Y134620D03*
D24*
X518490Y134620D03*
D59*
X533718Y134620D03*
D13*
X540385Y134620D03*
D30*
X546100Y134620D03*
D28*
X552133Y134620D03*
D89*
X585483Y134620D03*
D50*
X494665Y135255D03*
D23*
X508305Y135255D03*
D27*
X518478Y135255D03*
D13*
X533400Y135255D03*
D90*
X576898Y135255D03*
D22*
X494348Y135890D03*
D69*
X533718Y135890D03*
D66*
X541655Y135890D03*
D38*
X548653Y135890D03*
D18*
X553415Y135890D03*
X558495Y135890D03*
X563575Y135890D03*
D28*
X568643Y135890D03*
X573723Y135890D03*
X578168Y135890D03*
X583883Y135890D03*
D30*
X588645Y135890D03*
D28*
X594043Y135890D03*
D20*
X598818Y135890D03*
D69*
X603568Y135890D03*
X608648Y135890D03*
X613728Y135890D03*
D22*
X494348Y136525D03*
D64*
X535623Y136525D03*
D20*
X542938Y136525D03*
D11*
X548335Y136525D03*
D12*
X553403Y136525D03*
X558483Y136525D03*
X563563Y136525D03*
X568643Y136525D03*
X573723Y136525D03*
X578803Y136525D03*
X583883Y136525D03*
D31*
X588658Y136525D03*
X593738Y136525D03*
X598818Y136525D03*
X603898Y136525D03*
X608978Y136525D03*
D13*
X614045Y136525D03*
D11*
X489915Y137160D03*
D43*
X499110Y137160D03*
D57*
X532765Y137160D03*
D30*
X537210Y137160D03*
D43*
X542925Y137160D03*
D57*
X548640Y137160D03*
D63*
X553403Y137160D03*
X558483Y137160D03*
X563563Y137160D03*
X568643Y137160D03*
X573723Y137160D03*
X578803Y137160D03*
D56*
X583895Y137160D03*
X588975Y137160D03*
D31*
X593738Y137160D03*
D56*
X598500Y137160D03*
X603580Y137160D03*
X608660Y137160D03*
D20*
X614693Y137160D03*
D11*
X489915Y137795D03*
D43*
X499110Y137795D03*
D62*
X532117Y137795D03*
D12*
X537528Y137795D03*
D56*
X543230Y137795D03*
X548310Y137795D03*
D63*
X553403Y137795D03*
X558483Y137795D03*
X563563Y137795D03*
X568643Y137795D03*
X573723Y137795D03*
X578803Y137795D03*
D56*
X583895Y137795D03*
X588975Y137795D03*
X594055Y137795D03*
D62*
X598818Y137795D03*
D56*
X603580Y137795D03*
X608660Y137795D03*
D20*
X614693Y137795D03*
D11*
X489915Y138430D03*
D43*
X499110Y138430D03*
D62*
X532117Y138430D03*
D12*
X537528Y138430D03*
D56*
X543230Y138430D03*
X548310Y138430D03*
D63*
X553403Y138430D03*
D43*
X558165Y138430D03*
D63*
X563563Y138430D03*
X568643Y138430D03*
X573723Y138430D03*
X578803Y138430D03*
D56*
X583895Y138430D03*
X588975Y138430D03*
D31*
X593738Y138430D03*
X598818Y138430D03*
D56*
X603580Y138430D03*
X608660Y138430D03*
D20*
X614693Y138430D03*
D11*
X489915Y139065D03*
D43*
X499110Y139065D03*
D91*
X513398Y139065D03*
D62*
X532117Y139065D03*
D12*
X537528Y139065D03*
D11*
X543255Y139065D03*
X548335Y139065D03*
D12*
X553403Y139065D03*
X558483Y139065D03*
X563563Y139065D03*
X568643Y139065D03*
X573723Y139065D03*
X578803Y139065D03*
D31*
X583578Y139065D03*
D12*
X588963Y139065D03*
X594043Y139065D03*
D31*
X598818Y139065D03*
D49*
X603568Y139065D03*
X608648Y139065D03*
D69*
X614363Y139065D03*
D22*
X494348Y139700D03*
D92*
X513728Y139700D03*
D62*
X532117Y139700D03*
D35*
X540398Y139700D03*
D24*
X550875Y139700D03*
D61*
X561035Y139700D03*
D93*
X591198Y139700D03*
D22*
X494348Y140335D03*
D94*
X514045Y140335D03*
D57*
X532765Y140335D03*
D95*
X575640Y140335D03*
D22*
X494348Y140970D03*
D94*
X514045Y140970D03*
D19*
X534035Y140970D03*
D96*
X576593Y140970D03*
D25*
X514363Y141605D03*
D49*
X534353Y141605D03*
X539433Y141605D03*
D57*
X544195Y141605D03*
D13*
X549275Y141605D03*
D11*
X554050Y141605D03*
X559130Y141605D03*
X564210Y141605D03*
D43*
X568960Y141605D03*
X574040Y141605D03*
X579120Y141605D03*
X584200Y141605D03*
D12*
X588963Y141605D03*
X594043Y141605D03*
D11*
X599135Y141605D03*
X604215Y141605D03*
D49*
X608648Y141605D03*
D69*
X614363Y141605D03*
D25*
X514363Y142240D03*
D56*
X534365Y142240D03*
D59*
X539433Y142240D03*
D57*
X544195Y142240D03*
X549275Y142240D03*
D56*
X554025Y142240D03*
X559105Y142240D03*
X564185Y142240D03*
D43*
X568960Y142240D03*
D63*
X573723Y142240D03*
D43*
X579120Y142240D03*
D56*
X583895Y142240D03*
X588975Y142240D03*
X594055Y142240D03*
D31*
X598818Y142240D03*
X603898Y142240D03*
X608978Y142240D03*
D20*
X614693Y142240D03*
D25*
X514363Y142875D03*
D56*
X534365Y142875D03*
D59*
X539433Y142875D03*
D97*
X544195Y142875D03*
D59*
X548958Y142875D03*
D56*
X554025Y142875D03*
X559105Y142875D03*
X564185Y142875D03*
D43*
X568960Y142875D03*
D98*
X574040Y142875D03*
D63*
X578803Y142875D03*
D56*
X583895Y142875D03*
X588975Y142875D03*
D62*
X593738Y142875D03*
D31*
X598818Y142875D03*
D62*
X603898Y142875D03*
D56*
X608660Y142875D03*
D20*
X614693Y142875D03*
D17*
X494348Y143510D03*
D69*
X512763Y143510D03*
D18*
X522935Y143510D03*
D56*
X534365Y143510D03*
D59*
X539433Y143510D03*
D57*
X544195Y143510D03*
D59*
X548958Y143510D03*
D56*
X554025Y143510D03*
X559105Y143510D03*
X564185Y143510D03*
D43*
X568960Y143510D03*
D63*
X574358Y143510D03*
D43*
X579120Y143510D03*
D56*
X583895Y143510D03*
D31*
X588658Y143510D03*
D56*
X594055Y143510D03*
D31*
X598818Y143510D03*
D56*
X603580Y143510D03*
X608660Y143510D03*
D20*
X614693Y143510D03*
D50*
X494665Y144145D03*
D69*
X512763Y144145D03*
D18*
X522935Y144145D03*
D49*
X534353Y144145D03*
D57*
X539115Y144145D03*
X544195Y144145D03*
X549275Y144145D03*
X554355Y144145D03*
D11*
X559130Y144145D03*
X564210Y144145D03*
D43*
X568960Y144145D03*
X574040Y144145D03*
D12*
X578803Y144145D03*
D43*
X584200Y144145D03*
D12*
X588963Y144145D03*
D31*
X593738Y144145D03*
X598818Y144145D03*
X603898Y144145D03*
X608978Y144145D03*
D69*
X614363Y144145D03*
D22*
X494348Y144780D03*
D69*
X512763Y144780D03*
D18*
X522935Y144780D03*
D69*
X534353Y144780D03*
X539433Y144780D03*
X544513Y144780D03*
D13*
X549275Y144780D03*
D18*
X554050Y144780D03*
X559130Y144780D03*
D20*
X563893Y144780D03*
D38*
X568973Y144780D03*
D30*
X574040Y144780D03*
D28*
X578803Y144780D03*
D30*
X584200Y144780D03*
D28*
X588963Y144780D03*
X594043Y144780D03*
D38*
X598792Y144780D03*
D13*
X603885Y144780D03*
D69*
X608648Y144780D03*
D19*
X614045Y144780D03*
D22*
X494348Y145415D03*
D69*
X512763Y145415D03*
D18*
X522935Y145415D03*
D57*
X532765Y145415D03*
D95*
X575640Y145415D03*
D11*
X489915Y146050D03*
D43*
X499110Y146050D03*
D69*
X512763Y146050D03*
D18*
X522935Y146050D03*
D56*
X532435Y146050D03*
D18*
X537540Y146050D03*
D99*
X578815Y146050D03*
D11*
X489915Y146685D03*
D43*
X499110Y146685D03*
D19*
X513080Y146685D03*
D18*
X522935Y146685D03*
D62*
X532117Y146685D03*
D12*
X537528Y146685D03*
D11*
X543255Y146685D03*
X548335Y146685D03*
D12*
X553403Y146685D03*
X558483Y146685D03*
X563563Y146685D03*
X568643Y146685D03*
X573723Y146685D03*
X578803Y146685D03*
X583883Y146685D03*
D30*
X588645Y146685D03*
D12*
X594043Y146685D03*
D11*
X598500Y146685D03*
D49*
X603568Y146685D03*
X608648Y146685D03*
D69*
X614363Y146685D03*
D11*
X489915Y147320D03*
D43*
X499110Y147320D03*
D25*
X514363Y147320D03*
D62*
X532117Y147320D03*
D12*
X537528Y147320D03*
D56*
X543230Y147320D03*
X548310Y147320D03*
D43*
X553720Y147320D03*
D63*
X558483Y147320D03*
D43*
X563880Y147320D03*
D63*
X568643Y147320D03*
X573723Y147320D03*
X578803Y147320D03*
D56*
X583895Y147320D03*
D31*
X588658Y147320D03*
X593738Y147320D03*
D56*
X598500Y147320D03*
D31*
X603898Y147320D03*
D56*
X608660Y147320D03*
D20*
X614693Y147320D03*
D22*
X494348Y147955D03*
D25*
X514363Y147955D03*
D62*
X532117Y147955D03*
D12*
X537528Y147955D03*
D56*
X543230Y147955D03*
X548310Y147955D03*
D63*
X553403Y147955D03*
X558483Y147955D03*
X563563Y147955D03*
X568643Y147955D03*
X573723Y147955D03*
D62*
X578498Y147955D03*
D56*
X583895Y147955D03*
D62*
X588658Y147955D03*
D31*
X593738Y147955D03*
D56*
X598500Y147955D03*
X603580Y147955D03*
X608660Y147955D03*
D11*
X614375Y147955D03*
D22*
X494348Y148590D03*
D25*
X514363Y148590D03*
D56*
X532435Y148590D03*
D30*
X537210Y148590D03*
D43*
X542925Y148590D03*
D56*
X548310Y148590D03*
D63*
X553403Y148590D03*
X558483Y148590D03*
X563563Y148590D03*
X568643Y148590D03*
X573723Y148590D03*
X578803Y148590D03*
D56*
X583895Y148590D03*
D62*
X588658Y148590D03*
D31*
X593738Y148590D03*
D56*
X598500Y148590D03*
X603580Y148590D03*
X608660Y148590D03*
D11*
X614375Y148590D03*
D22*
X494348Y149225D03*
D94*
X514045Y149225D03*
D32*
X535292Y149225D03*
D20*
X542938Y149225D03*
D57*
X548640Y149225D03*
D12*
X553403Y149225D03*
X558483Y149225D03*
D43*
X563880Y149225D03*
X568960Y149225D03*
D12*
X573723Y149225D03*
X578803Y149225D03*
D31*
X583578Y149225D03*
X588658Y149225D03*
X593738Y149225D03*
X598818Y149225D03*
D49*
X603568Y149225D03*
D31*
X608978Y149225D03*
D13*
X614045Y149225D03*
D24*
X494360Y149860D03*
D94*
X514045Y149860D03*
D47*
X538480Y149860D03*
D18*
X548335Y149860D03*
X553415Y149860D03*
X558495Y149860D03*
X563575Y149860D03*
D30*
X568960Y149860D03*
D28*
X573723Y149860D03*
X578803Y149860D03*
D30*
X583565Y149860D03*
X588645Y149860D03*
X593725Y149860D03*
D20*
X598818Y149860D03*
D13*
X603885Y149860D03*
D69*
X608648Y149860D03*
X613728Y149860D03*
D92*
X513728Y150495D03*
D69*
X533718Y150495D03*
D38*
X540372Y150495D03*
D100*
X579755Y150495D03*
D49*
X533718Y151130D03*
D69*
X540068Y151130D03*
D28*
X546418Y151130D03*
X552133Y151130D03*
D101*
X562610Y151130D03*
D102*
X593090Y151130D03*
D57*
X534035Y151765D03*
D13*
X539750Y151765D03*
D12*
X546418Y151765D03*
X552133Y151765D03*
X557213Y151765D03*
X562293Y151765D03*
X568008Y151765D03*
D30*
X572770Y151765D03*
X577850Y151765D03*
D14*
X585800Y151765D03*
D13*
X593090Y151765D03*
D69*
X597853Y151765D03*
D13*
X603250Y151765D03*
X608330Y151765D03*
D69*
X613728Y151765D03*
D50*
X494665Y152400D03*
D56*
X534365Y152400D03*
D49*
X539433Y152400D03*
D31*
X546113Y152400D03*
X551828Y152400D03*
X556908Y152400D03*
D43*
X562610Y152400D03*
D31*
X567703Y152400D03*
X572783Y152400D03*
X577863Y152400D03*
D56*
X583260Y152400D03*
D31*
X588023Y152400D03*
X593103Y152400D03*
X598183Y152400D03*
D57*
X603250Y152400D03*
X608330Y152400D03*
D13*
X614045Y152400D03*
D22*
X494348Y153035D03*
D31*
X534683Y153035D03*
D69*
X539433Y153035D03*
D31*
X546113Y153035D03*
X551828Y153035D03*
D56*
X557225Y153035D03*
X562305Y153035D03*
D31*
X567703Y153035D03*
D56*
X572465Y153035D03*
X577545Y153035D03*
X583260Y153035D03*
X587705Y153035D03*
X593420Y153035D03*
D62*
X598183Y153035D03*
D59*
X602933Y153035D03*
X608013Y153035D03*
D13*
X614045Y153035D03*
D22*
X494348Y153670D03*
D26*
X537858Y153670D03*
D11*
X545795Y153670D03*
X551510Y153670D03*
D56*
X557225Y153670D03*
X562305Y153670D03*
D31*
X567703Y153670D03*
D56*
X572465Y153670D03*
D31*
X577863Y153670D03*
D56*
X583260Y153670D03*
X587705Y153670D03*
X593420Y153670D03*
D62*
X598183Y153670D03*
D59*
X602933Y153670D03*
X608013Y153670D03*
D13*
X614045Y153670D03*
D22*
X494348Y154305D03*
D23*
X535610Y154305D03*
D43*
X541655Y154305D03*
D18*
X545770Y154305D03*
D11*
X551510Y154305D03*
D31*
X556908Y154305D03*
D12*
X562293Y154305D03*
D31*
X567703Y154305D03*
X572783Y154305D03*
X577863Y154305D03*
X582943Y154305D03*
X588023Y154305D03*
X593103Y154305D03*
X598183Y154305D03*
D57*
X603250Y154305D03*
X608330Y154305D03*
D13*
X614045Y154305D03*
D28*
X498158Y154940D03*
D23*
X534975Y154940D03*
D81*
X549910Y154940D03*
D38*
X561962Y154940D03*
D37*
X567690Y154940D03*
D38*
X572757Y154940D03*
D18*
X577520Y154940D03*
D28*
X583248Y154940D03*
D69*
X587693Y154940D03*
D13*
X593090Y154940D03*
X598170Y154940D03*
X603250Y154940D03*
X608330Y154940D03*
D19*
X613410Y154940D03*
D23*
X497510Y155575D03*
D25*
X514363Y155575D03*
D33*
X534657Y155575D03*
D18*
X543255Y155575D03*
D103*
X581038Y155575D03*
D65*
X495935Y156210D03*
D25*
X514363Y156210D03*
D56*
X532435Y156210D03*
D43*
X536575Y156210D03*
D20*
X542938Y156210D03*
D49*
X548958Y156210D03*
D13*
X554990Y156210D03*
D104*
X586740Y156210D03*
D14*
X493090Y156845D03*
D25*
X514363Y156845D03*
D62*
X532117Y156845D03*
D63*
X536893Y156845D03*
D30*
X542290Y156845D03*
D49*
X548958Y156845D03*
X554673Y156845D03*
X560388Y156845D03*
D13*
X565785Y156845D03*
D49*
X571183Y156845D03*
D13*
X576580Y156845D03*
D49*
X581343Y156845D03*
D13*
X586740Y156845D03*
X591820Y156845D03*
D49*
X597218Y156845D03*
X602298Y156845D03*
D20*
X607073Y156845D03*
D38*
X612788Y156845D03*
D33*
X491503Y157480D03*
D25*
X514363Y157480D03*
D62*
X532117Y157480D03*
D43*
X537210Y157480D03*
D28*
X541973Y157480D03*
D57*
X548640Y157480D03*
D59*
X554673Y157480D03*
X560388Y157480D03*
D57*
X565785Y157480D03*
X571500Y157480D03*
X576580Y157480D03*
X581660Y157480D03*
X586740Y157480D03*
X591820Y157480D03*
X596900Y157480D03*
D59*
X602298Y157480D03*
D57*
X607060Y157480D03*
D69*
X613093Y157480D03*
D26*
X492773Y158115D03*
D25*
X514363Y158115D03*
D62*
X532117Y158115D03*
D23*
X538810Y158115D03*
D11*
X543255Y158115D03*
D49*
X548958Y158115D03*
D57*
X554355Y158115D03*
D59*
X560388Y158115D03*
D57*
X565785Y158115D03*
D59*
X571183Y158115D03*
D57*
X576580Y158115D03*
X581660Y158115D03*
X586740Y158115D03*
X591820Y158115D03*
D59*
X597218Y158115D03*
X602298Y158115D03*
X607378Y158115D03*
D13*
X613410Y158115D03*
D24*
X494360Y158750D03*
D25*
X514363Y158750D03*
D56*
X532435Y158750D03*
D23*
X538175Y158750D03*
D57*
X544195Y158750D03*
D18*
X548970Y158750D03*
D49*
X554673Y158750D03*
X560388Y158750D03*
D57*
X565785Y158750D03*
D59*
X571183Y158750D03*
D57*
X576580Y158750D03*
X581660Y158750D03*
D59*
X586423Y158750D03*
D57*
X591820Y158750D03*
X596900Y158750D03*
D62*
X601967Y158750D03*
D59*
X607378Y158750D03*
D13*
X613410Y158750D03*
D14*
X496240Y159385D03*
D25*
X514363Y159385D03*
D57*
X532765Y159385D03*
D23*
X537540Y159385D03*
D38*
X546087Y159385D03*
D49*
X550228Y159385D03*
D18*
X554685Y159385D03*
D13*
X560070Y159385D03*
X565785Y159385D03*
D49*
X571183Y159385D03*
X576263Y159385D03*
D57*
X581660Y159385D03*
X586740Y159385D03*
X591820Y159385D03*
X596900Y159385D03*
X601980Y159385D03*
X607060Y159385D03*
D13*
X612775Y159385D03*
D23*
X497510Y160020D03*
D66*
X521335Y160020D03*
D42*
X535940Y160020D03*
D13*
X545465Y160020D03*
D45*
X556273Y160020D03*
D19*
X565785Y160020D03*
D69*
X571183Y160020D03*
D13*
X575945Y160020D03*
X581660Y160020D03*
D69*
X587058Y160020D03*
D13*
X591820Y160020D03*
X596900Y160020D03*
D20*
X601993Y160020D03*
D11*
X606755Y160020D03*
D18*
X612470Y160020D03*
D50*
X494665Y160655D03*
D35*
X520078Y160655D03*
D69*
X533718Y160655D03*
D49*
X538798Y160655D03*
D13*
X544830Y160655D03*
D30*
X551815Y160655D03*
D105*
X585165Y160655D03*
D22*
X494348Y161290D03*
D46*
X518808Y161290D03*
D57*
X534035Y161290D03*
D59*
X539433Y161290D03*
D13*
X544830Y161290D03*
D11*
X551510Y161290D03*
D12*
X557848Y161290D03*
D18*
X563575Y161290D03*
X569290Y161290D03*
X574370Y161290D03*
D106*
X595960Y161290D03*
D22*
X494348Y161925D03*
D107*
X516903Y161925D03*
D57*
X534035Y161925D03*
X539750Y161925D03*
D38*
X544208Y161925D03*
D11*
X551510Y161925D03*
D43*
X557530Y161925D03*
D12*
X563563Y161925D03*
D43*
X568960Y161925D03*
D12*
X574358Y161925D03*
D11*
X580085Y161925D03*
D18*
X585165Y161925D03*
D20*
X590563Y161925D03*
X595643Y161925D03*
D12*
X601028Y161925D03*
D20*
X606438Y161925D03*
D38*
X612153Y161925D03*
D22*
X494348Y162560D03*
D107*
X514337Y162560D03*
D56*
X534365Y162560D03*
D42*
X542925Y162560D03*
D20*
X551193Y162560D03*
D43*
X557530Y162560D03*
X563245Y162560D03*
X568960Y162560D03*
D63*
X574358Y162560D03*
D11*
X580085Y162560D03*
D12*
X585153Y162560D03*
D43*
X590550Y162560D03*
X595630Y162560D03*
X600710Y162560D03*
D12*
X606108Y162560D03*
D18*
X611835Y162560D03*
D108*
X511505Y163195D03*
D31*
X534683Y163195D03*
D38*
X540372Y163195D03*
D30*
X546735Y163195D03*
D69*
X550863Y163195D03*
D43*
X557530Y163195D03*
X563245Y163195D03*
X568960Y163195D03*
D63*
X574358Y163195D03*
D43*
X579755Y163195D03*
X585470Y163195D03*
D63*
X590233Y163195D03*
D43*
X595630Y163195D03*
D63*
X601028Y163195D03*
D43*
X605790Y163195D03*
D20*
X612153Y163195D03*
D40*
X509600Y163830D03*
D13*
X534670Y163830D03*
D19*
X539750Y163830D03*
D65*
X549910Y163830D03*
D28*
X557213Y163830D03*
D30*
X563245Y163830D03*
D43*
X568960Y163830D03*
X574675Y163830D03*
X579755Y163830D03*
D12*
X585153Y163830D03*
D43*
X590550Y163830D03*
X595630Y163830D03*
X600710Y163830D03*
X605790Y163830D03*
D20*
X612153Y163830D03*
D35*
X508648Y164465D03*
D44*
X537210Y164465D03*
D18*
X547700Y164465D03*
D45*
X558813Y164465D03*
D30*
X568960Y164465D03*
D20*
X574688Y164465D03*
X579768Y164465D03*
D12*
X585153Y164465D03*
X590233Y164465D03*
D43*
X595630Y164465D03*
X600710Y164465D03*
X605790Y164465D03*
D20*
X612153Y164465D03*
D109*
X510223Y165100D03*
D21*
X534975Y165100D03*
D43*
X541655Y165100D03*
D18*
X547700Y165100D03*
D20*
X554368Y165100D03*
D110*
X572770Y165100D03*
D18*
X590245Y165100D03*
D20*
X595643Y165100D03*
D30*
X600710Y165100D03*
X605790Y165100D03*
D20*
X611518Y165100D03*
D111*
X511823Y165735D03*
D57*
X532765Y165735D03*
D12*
X536258Y165735D03*
D43*
X541655Y165735D03*
D30*
X547370Y165735D03*
D11*
X554050Y165735D03*
D13*
X560705Y165735D03*
D69*
X566738Y165735D03*
D112*
X591185Y165735D03*
D91*
X513398Y166370D03*
D56*
X532435Y166370D03*
D43*
X536575Y166370D03*
D12*
X542608Y166370D03*
D23*
X547065Y166370D03*
D11*
X554050Y166370D03*
D49*
X560388Y166370D03*
D13*
X566420Y166370D03*
X572135Y166370D03*
D30*
X577850Y166370D03*
D28*
X583248Y166370D03*
D18*
X588315Y166370D03*
D37*
X594360Y166370D03*
D111*
X605168Y166370D03*
D113*
X515620Y167005D03*
D62*
X532117Y167005D03*
D63*
X536893Y167005D03*
D38*
X543573Y167005D03*
D11*
X548335Y167005D03*
D20*
X553733Y167005D03*
D49*
X560388Y167005D03*
D31*
X566433Y167005D03*
X572148Y167005D03*
D11*
X577545Y167005D03*
X583260Y167005D03*
X588340Y167005D03*
D12*
X594043Y167005D03*
D11*
X599135Y167005D03*
D30*
X604520Y167005D03*
D23*
X610565Y167005D03*
D114*
X517220Y167640D03*
D62*
X532117Y167640D03*
D43*
X537210Y167640D03*
D38*
X542938Y167640D03*
D49*
X549593Y167640D03*
D38*
X553733Y167640D03*
D49*
X560388Y167640D03*
X566103Y167640D03*
D31*
X572148Y167640D03*
D11*
X577545Y167640D03*
D56*
X583260Y167640D03*
D31*
X588658Y167640D03*
X593738Y167640D03*
D56*
X599135Y167640D03*
D31*
X604533Y167640D03*
D28*
X610553Y167640D03*
D46*
X518808Y168275D03*
D62*
X532117Y168275D03*
D12*
X537528Y168275D03*
D38*
X542938Y168275D03*
D19*
X550545Y168275D03*
D49*
X555308Y168275D03*
D13*
X560070Y168275D03*
D49*
X566103Y168275D03*
D31*
X572148Y168275D03*
D11*
X577545Y168275D03*
D56*
X583260Y168275D03*
D31*
X588658Y168275D03*
X593738Y168275D03*
D56*
X599135Y168275D03*
X604215Y168275D03*
D28*
X610553Y168275D03*
D17*
X520383Y168910D03*
D56*
X532435Y168910D03*
D61*
X540080Y168910D03*
D69*
X550228Y168910D03*
D64*
X558483Y168910D03*
D19*
X565785Y168910D03*
D13*
X572135Y168910D03*
D11*
X577545Y168910D03*
D31*
X582943Y168910D03*
D11*
X588340Y168910D03*
D31*
X593738Y168910D03*
X599453Y168910D03*
D56*
X604215Y168910D03*
D28*
X610553Y168910D03*
D21*
X521665Y169545D03*
D57*
X532765Y169545D03*
D33*
X537858Y169545D03*
D57*
X544195Y169545D03*
D13*
X549910Y169545D03*
D30*
X556895Y169545D03*
D74*
X567690Y169545D03*
D18*
X577520Y169545D03*
D20*
X582943Y169545D03*
D30*
X588645Y169545D03*
D12*
X594043Y169545D03*
D11*
X599135Y169545D03*
X604215Y169545D03*
D30*
X610235Y169545D03*
D25*
X514363Y170180D03*
D42*
X535940Y170180D03*
D59*
X544513Y170180D03*
D69*
X549593Y170180D03*
D30*
X556895Y170180D03*
X563245Y170180D03*
D115*
X579120Y170180D03*
D38*
X593712Y170180D03*
D37*
X599440Y170180D03*
D38*
X604507Y170180D03*
X609587Y170180D03*
D25*
X514363Y170815D03*
D19*
X534035Y170815D03*
D57*
X539115Y170815D03*
D64*
X547688Y170815D03*
D11*
X556590Y170815D03*
D12*
X562928Y170815D03*
D18*
X569290Y170815D03*
X575005Y170815D03*
D116*
X595313Y170815D03*
D25*
X514363Y171450D03*
D49*
X534353Y171450D03*
D59*
X539433Y171450D03*
D38*
X546087Y171450D03*
D31*
X551193Y171450D03*
D13*
X556260Y171450D03*
D12*
X562928Y171450D03*
X569278Y171450D03*
D11*
X575005Y171450D03*
D49*
X580708Y171450D03*
D20*
X586118Y171450D03*
D13*
X591820Y171450D03*
D111*
X603237Y171450D03*
D25*
X514363Y172085D03*
D56*
X534365Y172085D03*
D57*
X539750Y172085D03*
D38*
X545452Y172085D03*
D68*
X554673Y172085D03*
D12*
X562928Y172085D03*
X569278Y172085D03*
D43*
X574675Y172085D03*
D57*
X580390Y172085D03*
X586105Y172085D03*
X591820Y172085D03*
D49*
X597218Y172085D03*
D13*
X602615Y172085D03*
D38*
X608952Y172085D03*
D25*
X514363Y172720D03*
D56*
X534365Y172720D03*
D49*
X540068Y172720D03*
D23*
X545135Y172720D03*
X553415Y172720D03*
D12*
X557848Y172720D03*
D28*
X562928Y172720D03*
D30*
X568960Y172720D03*
D43*
X574675Y172720D03*
D57*
X580390Y172720D03*
X586105Y172720D03*
X591820Y172720D03*
D59*
X597218Y172720D03*
D57*
X602615Y172720D03*
D18*
X609270Y172720D03*
D25*
X514363Y173355D03*
D31*
X534683Y173355D03*
D42*
X542925Y173355D03*
D28*
X552768Y173355D03*
D14*
X561670Y173355D03*
D30*
X568960Y173355D03*
D11*
X575005Y173355D03*
D57*
X580390Y173355D03*
X586105Y173355D03*
X591820Y173355D03*
D59*
X597218Y173355D03*
X602298Y173355D03*
D13*
X608965Y173355D03*
X534670Y173990D03*
D23*
X540690Y173990D03*
D43*
X546735Y173990D03*
D30*
X552450Y173990D03*
D20*
X559448Y173990D03*
D64*
X567373Y173990D03*
D18*
X575005Y173990D03*
D20*
X580403Y173990D03*
X586118Y173990D03*
D57*
X591820Y173990D03*
X596900Y173990D03*
X602615Y173990D03*
D69*
X608648Y173990D03*
D39*
X537197Y174625D03*
D63*
X547053Y174625D03*
D28*
X552133Y174625D03*
D20*
X559448Y174625D03*
D117*
X576263Y174625D03*
D13*
X591820Y174625D03*
X596900Y174625D03*
X602615Y174625D03*
X608330Y174625D03*
D32*
X535292Y175260D03*
D43*
X541655Y175260D03*
D68*
X550228Y175260D03*
D11*
X559130Y175260D03*
D13*
X565785Y175260D03*
X572135Y175260D03*
D28*
X578168Y175260D03*
D118*
X593103Y175260D03*
D69*
X608013Y175260D03*
D57*
X532765Y175895D03*
D12*
X536893Y175895D03*
D63*
X541973Y175895D03*
D38*
X548653Y175895D03*
D12*
X553403Y175895D03*
D20*
X558813Y175895D03*
D49*
X565468Y175895D03*
X571818Y175895D03*
D30*
X577850Y175895D03*
D28*
X583883Y175895D03*
X589598Y175895D03*
D72*
X601358Y175895D03*
D56*
X532435Y176530D03*
D63*
X536893Y176530D03*
X541973Y176530D03*
D38*
X548018Y176530D03*
D64*
X557213Y176530D03*
D49*
X565468Y176530D03*
D57*
X571500Y176530D03*
D11*
X577545Y176530D03*
D30*
X583565Y176530D03*
D12*
X589598Y176530D03*
D30*
X594995Y176530D03*
D28*
X600393Y176530D03*
D23*
X606755Y176530D03*
D91*
X513398Y177165D03*
D62*
X532117Y177165D03*
D63*
X536893Y177165D03*
D43*
X542290Y177165D03*
D38*
X547383Y177165D03*
D69*
X555943Y177165D03*
D57*
X560705Y177165D03*
D18*
X564845Y177165D03*
D57*
X571500Y177165D03*
D11*
X577545Y177165D03*
X583260Y177165D03*
D43*
X589280Y177165D03*
X594995Y177165D03*
D12*
X600393Y177165D03*
D38*
X607073Y177165D03*
D92*
X513728Y177800D03*
D62*
X532117Y177800D03*
D43*
X537210Y177800D03*
D23*
X543890Y177800D03*
D57*
X548640Y177800D03*
D69*
X555308Y177800D03*
D32*
X563893Y177800D03*
D13*
X571500Y177800D03*
D11*
X577545Y177800D03*
X583260Y177800D03*
D43*
X589280Y177800D03*
D63*
X594678Y177800D03*
D43*
X600710Y177800D03*
D18*
X606755Y177800D03*
D94*
X514045Y178435D03*
D62*
X532117Y178435D03*
D12*
X537528Y178435D03*
D23*
X543255Y178435D03*
D57*
X549275Y178435D03*
D13*
X554990Y178435D03*
D30*
X561975Y178435D03*
D74*
X572770Y178435D03*
D11*
X583260Y178435D03*
D43*
X589280Y178435D03*
X594995Y178435D03*
D12*
X600393Y178435D03*
D18*
X606755Y178435D03*
D94*
X514045Y179070D03*
D56*
X532435Y179070D03*
D35*
X540398Y179070D03*
D57*
X549910Y179070D03*
D18*
X554685Y179070D03*
D30*
X561975Y179070D03*
X568325Y179070D03*
D109*
X578803Y179070D03*
D30*
X589280Y179070D03*
D12*
X594678Y179070D03*
X600393Y179070D03*
D20*
X606438Y179070D03*
D25*
X514363Y179705D03*
D44*
X536575Y179705D03*
D57*
X544195Y179705D03*
D64*
X552768Y179705D03*
D30*
X561975Y179705D03*
D12*
X568008Y179705D03*
D20*
X574688Y179705D03*
D119*
X587693Y179705D03*
D30*
X600075Y179705D03*
D18*
X606120Y179705D03*
D25*
X514363Y180340D03*
D15*
X534353Y180340D03*
D13*
X539115Y180340D03*
D59*
X544513Y180340D03*
D69*
X550863Y180340D03*
D31*
X556273Y180340D03*
D18*
X561645Y180340D03*
D12*
X568008Y180340D03*
X574358Y180340D03*
D20*
X580403Y180340D03*
D120*
X595948Y180340D03*
D25*
X514363Y180975D03*
D69*
X533718Y180975D03*
D57*
X539115Y180975D03*
X544830Y180975D03*
D69*
X550228Y180975D03*
D68*
X559753Y180975D03*
D12*
X568008Y180975D03*
X574358Y180975D03*
D49*
X580708Y180975D03*
X586423Y180975D03*
D13*
X592455Y180975D03*
X598170Y180975D03*
D21*
X604190Y180975D03*
D69*
X512763Y181610D03*
D18*
X522935Y181610D03*
D49*
X534353Y181610D03*
D59*
X539433Y181610D03*
D42*
X548005Y181610D03*
D28*
X557848Y181610D03*
D43*
X563245Y181610D03*
D28*
X568008Y181610D03*
D12*
X574358Y181610D03*
D57*
X580390Y181610D03*
D49*
X586423Y181610D03*
D57*
X592455Y181610D03*
D49*
X597853Y181610D03*
D38*
X604507Y181610D03*
D69*
X512763Y182245D03*
D18*
X522935Y182245D03*
D56*
X534365Y182245D03*
D59*
X539433Y182245D03*
D23*
X546405Y182245D03*
D31*
X551193Y182245D03*
D30*
X557530Y182245D03*
D68*
X566738Y182245D03*
D30*
X574040Y182245D03*
D11*
X580085Y182245D03*
D57*
X586105Y182245D03*
X592455Y182245D03*
D56*
X597865Y182245D03*
D38*
X604507Y182245D03*
D69*
X512763Y182880D03*
D18*
X522935Y182880D03*
D56*
X534365Y182880D03*
D57*
X539750Y182880D03*
D38*
X545452Y182880D03*
D31*
X551828Y182880D03*
D28*
X557213Y182880D03*
D20*
X564528Y182880D03*
D14*
X572465Y182880D03*
D18*
X580085Y182880D03*
D49*
X586423Y182880D03*
X592138Y182880D03*
D56*
X597865Y182880D03*
D18*
X604190Y182880D03*
D69*
X512763Y183515D03*
D18*
X522935Y183515D03*
D31*
X534683Y183515D03*
D61*
X543230Y183515D03*
D12*
X552133Y183515D03*
D38*
X556882Y183515D03*
D11*
X564210Y183515D03*
D13*
X570865Y183515D03*
D42*
X578485Y183515D03*
D18*
X585800Y183515D03*
D13*
X591820Y183515D03*
D49*
X597853Y183515D03*
D18*
X604190Y183515D03*
D69*
X512763Y184150D03*
D18*
X522935Y184150D03*
D69*
X534988Y184150D03*
D21*
X540690Y184150D03*
D43*
X546735Y184150D03*
D23*
X553415Y184150D03*
D43*
X558165Y184150D03*
D11*
X564210Y184150D03*
D13*
X570865Y184150D03*
D18*
X577520Y184150D03*
D48*
X587705Y184150D03*
D19*
X597535Y184150D03*
D69*
X603568Y184150D03*
D19*
X513080Y184785D03*
D18*
X522935Y184785D03*
D40*
X537515Y184785D03*
D63*
X547053Y184785D03*
D38*
X553098Y184785D03*
D43*
X558800Y184785D03*
D18*
X563575Y184785D03*
D49*
X570548Y184785D03*
D13*
X577215Y184785D03*
D28*
X583248Y184785D03*
D73*
X596278Y184785D03*
D25*
X514363Y185420D03*
D21*
X534975Y185420D03*
D43*
X541655Y185420D03*
X547370Y185420D03*
D37*
X552450Y185420D03*
D64*
X562293Y185420D03*
D49*
X570548Y185420D03*
D31*
X577228Y185420D03*
D11*
X583260Y185420D03*
D30*
X589280Y185420D03*
D18*
X595325Y185420D03*
D33*
X601993Y185420D03*
D25*
X514363Y186055D03*
D56*
X532435Y186055D03*
D43*
X536575Y186055D03*
D63*
X541973Y186055D03*
D12*
X547688Y186055D03*
D34*
X552133Y186055D03*
D69*
X560388Y186055D03*
D49*
X566103Y186055D03*
D38*
X570243Y186055D03*
D49*
X576898Y186055D03*
D11*
X583260Y186055D03*
D43*
X589280Y186055D03*
D12*
X595313Y186055D03*
D38*
X601993Y186055D03*
D25*
X514363Y186690D03*
D62*
X532117Y186690D03*
D63*
X536893Y186690D03*
D43*
X542290Y186690D03*
D38*
X548653Y186690D03*
D56*
X554025Y186690D03*
D13*
X560070Y186690D03*
D14*
X569290Y186690D03*
D13*
X576580Y186690D03*
D11*
X583260Y186690D03*
D43*
X589280Y186690D03*
D12*
X595313Y186690D03*
D38*
X601993Y186690D03*
D94*
X514045Y187325D03*
D62*
X532117Y187325D03*
D63*
X536893Y187325D03*
D12*
X542608Y187325D03*
D38*
X548018Y187325D03*
D57*
X554355Y187325D03*
D18*
X559765Y187325D03*
D20*
X567068Y187325D03*
D14*
X575005Y187325D03*
D20*
X582943Y187325D03*
D12*
X588963Y187325D03*
D43*
X594995Y187325D03*
D18*
X601675Y187325D03*
D94*
X514045Y187960D03*
D62*
X532117Y187960D03*
D43*
X537210Y187960D03*
D35*
X545478Y187960D03*
D42*
X557530Y187960D03*
D13*
X566420Y187960D03*
D28*
X573723Y187960D03*
D68*
X581343Y187960D03*
D28*
X588963Y187960D03*
D12*
X594678Y187960D03*
D20*
X601358Y187960D03*
D92*
X513728Y188595D03*
D62*
X532117Y188595D03*
D12*
X537528Y188595D03*
D21*
X543255Y188595D03*
D57*
X549275Y188595D03*
D42*
X557530Y188595D03*
D13*
X566420Y188595D03*
D30*
X573405Y188595D03*
D18*
X580085Y188595D03*
D68*
X587693Y188595D03*
D28*
X594678Y188595D03*
D18*
X601040Y188595D03*
D56*
X532435Y189230D03*
D24*
X540715Y189230D03*
D59*
X549593Y189230D03*
D19*
X555625Y189230D03*
D31*
X561353Y189230D03*
D69*
X566103Y189230D03*
D12*
X573088Y189230D03*
D20*
X579768Y189230D03*
D18*
X586435Y189230D03*
D109*
X595948Y189230D03*
D44*
X536575Y189865D03*
D49*
X543878Y189865D03*
D57*
X549910Y189865D03*
D38*
X555003Y189865D03*
X563258Y189865D03*
D11*
X567385Y189865D03*
D30*
X572770Y189865D03*
D12*
X579438Y189865D03*
D49*
X586423Y189865D03*
D69*
X592138Y189865D03*
D21*
X599110Y189865D03*
D19*
X534035Y190500D03*
D13*
X539115Y190500D03*
D59*
X544513Y190500D03*
D42*
X553085Y190500D03*
D28*
X562928Y190500D03*
D43*
X568325Y190500D03*
D38*
X572757Y190500D03*
D12*
X579438Y190500D03*
D57*
X586105Y190500D03*
D49*
X592138Y190500D03*
D23*
X599110Y190500D03*
D69*
X533718Y191135D03*
D49*
X539433Y191135D03*
D59*
X544513Y191135D03*
D38*
X551167Y191135D03*
D11*
X556590Y191135D03*
D30*
X562610Y191135D03*
D23*
X569925Y191135D03*
D43*
X574675Y191135D03*
D18*
X579450Y191135D03*
D11*
X585800Y191135D03*
D49*
X592138Y191135D03*
D38*
X598792Y191135D03*
D62*
X504203Y191770D03*
D56*
X534365Y191770D03*
D57*
X539750Y191770D03*
D49*
X545148Y191770D03*
D15*
X550228Y191770D03*
D31*
X556908Y191770D03*
D28*
X562293Y191770D03*
D18*
X569925Y191770D03*
D66*
X577850Y191770D03*
D20*
X585483Y191770D03*
D13*
X591820Y191770D03*
D69*
X598488Y191770D03*
D43*
X504825Y192405D03*
D57*
X523875Y192405D03*
D56*
X534365Y192405D03*
D57*
X539750Y192405D03*
D17*
X548323Y192405D03*
D68*
X560388Y192405D03*
D20*
X569608Y192405D03*
D69*
X576263Y192405D03*
D42*
X584200Y192405D03*
D13*
X591820Y192405D03*
D69*
X598488Y192405D03*
D30*
X505460Y193040D03*
D13*
X523240Y193040D03*
D56*
X534365Y193040D03*
D49*
X540068Y193040D03*
D23*
X545770Y193040D03*
D31*
X551828Y193040D03*
D18*
X558495Y193040D03*
D12*
X563563Y193040D03*
D18*
X569290Y193040D03*
D49*
X576263Y193040D03*
D69*
X582613Y193040D03*
D64*
X590233Y193040D03*
D19*
X597535Y193040D03*
D38*
X506108Y193675D03*
D18*
X522935Y193675D03*
D31*
X534683Y193675D03*
D35*
X542912Y193675D03*
D56*
X552145Y193675D03*
D28*
X557848Y193675D03*
D57*
X564515Y193675D03*
D38*
X568973Y193675D03*
D13*
X575945Y193675D03*
D11*
X582625Y193675D03*
D28*
X588963Y193675D03*
D21*
X595960Y193675D03*
D33*
X506743Y194310D03*
D23*
X522300Y194310D03*
D40*
X538150Y194310D03*
D12*
X546418Y194310D03*
X552768Y194310D03*
D37*
X557530Y194310D03*
D64*
X567373Y194310D03*
D18*
X575640Y194310D03*
D31*
X582308Y194310D03*
D30*
X588645Y194310D03*
D23*
X595960Y194310D03*
D67*
X507365Y194945D03*
D21*
X521665Y194945D03*
D40*
X537515Y194945D03*
D63*
X547053Y194945D03*
D65*
X555625Y194945D03*
D69*
X565468Y194945D03*
D64*
X573723Y194945D03*
D49*
X581978Y194945D03*
D11*
X588340Y194945D03*
D23*
X595960Y194945D03*
D65*
X508000Y195580D03*
D64*
X521018Y195580D03*
D57*
X532765Y195580D03*
D30*
X536575Y195580D03*
D43*
X541655Y195580D03*
D63*
X547053Y195580D03*
D38*
X553733Y195580D03*
D57*
X559435Y195580D03*
D13*
X565150Y195580D03*
D64*
X574358Y195580D03*
D69*
X581978Y195580D03*
D11*
X588340Y195580D03*
D38*
X595643Y195580D03*
D35*
X508648Y196215D03*
D42*
X520065Y196215D03*
D56*
X532435Y196215D03*
D12*
X536893Y196215D03*
D43*
X541655Y196215D03*
X547370Y196215D03*
D38*
X553098Y196215D03*
D49*
X559753Y196215D03*
D18*
X564845Y196215D03*
D13*
X572135Y196215D03*
D14*
X580720Y196215D03*
D13*
X588010Y196215D03*
D18*
X595325Y196215D03*
D24*
X509600Y196850D03*
D26*
X519443Y196850D03*
D62*
X532117Y196850D03*
D63*
X536893Y196850D03*
X541973Y196850D03*
D61*
X550875Y196850D03*
D38*
X561327Y196850D03*
D49*
X565468Y196850D03*
X571818Y196850D03*
D28*
X578803Y196850D03*
D68*
X586423Y196850D03*
D28*
X594678Y196850D03*
D76*
X514020Y197485D03*
D62*
X532117Y197485D03*
D63*
X536893Y197485D03*
D43*
X542290Y197485D03*
D23*
X548335Y197485D03*
D57*
X554355Y197485D03*
D69*
X561023Y197485D03*
D31*
X566433Y197485D03*
D13*
X571500Y197485D03*
D12*
X578803Y197485D03*
D18*
X585165Y197485D03*
D68*
X592138Y197485D03*
D60*
X514033Y198120D03*
D62*
X532117Y198120D03*
D63*
X536893Y198120D03*
D24*
X545795Y198120D03*
D59*
X554673Y198120D03*
D69*
X560388Y198120D03*
D14*
X569290Y198120D03*
D12*
X578168Y198120D03*
X585153Y198120D03*
D78*
X592455Y198120D03*
D121*
X53658Y198755D03*
D13*
X61595Y198755D03*
D20*
X67958Y198755D03*
D66*
X76835Y198755D03*
X94615Y198755D03*
D30*
X103505Y198755D03*
D26*
X113043Y198755D03*
D30*
X121285Y198755D03*
X128270Y198755D03*
D14*
X136855Y198755D03*
D39*
X514363Y198755D03*
D56*
X532435Y198755D03*
D12*
X537528Y198755D03*
D33*
X543573Y198755D03*
D57*
X549275Y198755D03*
D49*
X555308Y198755D03*
D38*
X560083Y198755D03*
D28*
X568008Y198755D03*
D31*
X572783Y198755D03*
D30*
X577850Y198755D03*
D43*
X584835Y198755D03*
D23*
X592150Y198755D03*
D121*
X53658Y199390D03*
D13*
X61595Y199390D03*
D20*
X67958Y199390D03*
D42*
X76835Y199390D03*
X94615Y199390D03*
D30*
X103505Y199390D03*
D61*
X112725Y199390D03*
D30*
X121285Y199390D03*
X128270Y199390D03*
D17*
X136843Y199390D03*
D61*
X514680Y199390D03*
D57*
X532765Y199390D03*
D24*
X540715Y199390D03*
D59*
X549593Y199390D03*
D42*
X558165Y199390D03*
D30*
X567690Y199390D03*
D68*
X576263Y199390D03*
D30*
X584835Y199390D03*
D19*
X592455Y199390D03*
D121*
X53658Y200025D03*
D13*
X61595Y200025D03*
D20*
X67958Y200025D03*
D17*
X77153Y200025D03*
X94933Y200025D03*
D30*
X103505Y200025D03*
D61*
X112725Y200025D03*
D30*
X121285Y200025D03*
X128270Y200025D03*
D17*
X136843Y200025D03*
D39*
X514998Y200025D03*
D44*
X536575Y200025D03*
D57*
X544195Y200025D03*
D59*
X549593Y200025D03*
D23*
X555930Y200025D03*
D31*
X561988Y200025D03*
D28*
X567373Y200025D03*
D18*
X575005Y200025D03*
D43*
X579755Y200025D03*
D28*
X584518Y200025D03*
D38*
X591833Y200025D03*
D121*
X53658Y200660D03*
D13*
X61595Y200660D03*
D20*
X67958Y200660D03*
D17*
X77153Y200660D03*
D44*
X94615Y200660D03*
D30*
X103505Y200660D03*
D61*
X112725Y200660D03*
D30*
X121285Y200660D03*
X128270Y200660D03*
D17*
X136843Y200660D03*
D122*
X515303Y200660D03*
D69*
X534353Y200660D03*
D49*
X539433Y200660D03*
D59*
X544513Y200660D03*
D49*
X550228Y200660D03*
D33*
X555003Y200660D03*
D12*
X562293Y200660D03*
D38*
X567042Y200660D03*
D20*
X574688Y200660D03*
D64*
X583248Y200660D03*
D18*
X591515Y200660D03*
D121*
X53658Y201295D03*
D13*
X61595Y201295D03*
D20*
X67958Y201295D03*
X74282Y201295D03*
X80023Y201295D03*
D69*
X91758Y201295D03*
D20*
X97803Y201295D03*
D30*
X103505Y201295D03*
D20*
X109868Y201295D03*
X115583Y201295D03*
D30*
X121285Y201295D03*
X128270Y201295D03*
D13*
X133985Y201295D03*
D20*
X139713Y201295D03*
D123*
X514985Y201295D03*
D49*
X534353Y201295D03*
D59*
X539433Y201295D03*
D57*
X544830Y201295D03*
D42*
X553085Y201295D03*
D65*
X565150Y201295D03*
D12*
X574358Y201295D03*
D69*
X581343Y201295D03*
D66*
X589280Y201295D03*
D20*
X53327Y201930D03*
D13*
X61595Y201930D03*
D20*
X67958Y201930D03*
D11*
X73965Y201930D03*
D20*
X80023Y201930D03*
D13*
X91440Y201930D03*
D20*
X97803Y201930D03*
D30*
X103505Y201930D03*
D20*
X109868Y201930D03*
X115583Y201930D03*
D30*
X121285Y201930D03*
X128270Y201930D03*
D13*
X133985Y201930D03*
D20*
X139713Y201930D03*
D61*
X509600Y201930D03*
X519760Y201930D03*
D56*
X534365Y201930D03*
D59*
X539433Y201930D03*
D57*
X544830Y201930D03*
D23*
X550850Y201930D03*
D31*
X556908Y201930D03*
D38*
X563258Y201930D03*
D43*
X568960Y201930D03*
D30*
X574040Y201930D03*
D13*
X581025Y201930D03*
D70*
X588963Y201930D03*
D20*
X53327Y202565D03*
D13*
X61595Y202565D03*
D20*
X67958Y202565D03*
D11*
X73965Y202565D03*
D20*
X80023Y202565D03*
D13*
X91440Y202565D03*
D20*
X97803Y202565D03*
D30*
X103505Y202565D03*
D20*
X109868Y202565D03*
X115583Y202565D03*
D30*
X121285Y202565D03*
X128270Y202565D03*
D13*
X133985Y202565D03*
D20*
X139713Y202565D03*
D61*
X508330Y202565D03*
D42*
X520700Y202565D03*
D56*
X534365Y202565D03*
D57*
X539750Y202565D03*
D17*
X548323Y202565D03*
D43*
X557530Y202565D03*
D28*
X562928Y202565D03*
D14*
X572465Y202565D03*
D13*
X581025Y202565D03*
D33*
X588632Y202565D03*
D20*
X53327Y203200D03*
D13*
X61595Y203200D03*
D20*
X67958Y203200D03*
D11*
X73965Y203200D03*
D20*
X80023Y203200D03*
D13*
X91440Y203200D03*
D20*
X97803Y203200D03*
D30*
X103505Y203200D03*
D20*
X109868Y203200D03*
X115583Y203200D03*
D30*
X121285Y203200D03*
X128270Y203200D03*
D13*
X133985Y203200D03*
D20*
X139713Y203200D03*
D68*
X507683Y203200D03*
D66*
X521335Y203200D03*
D56*
X534365Y203200D03*
D49*
X540068Y203200D03*
D44*
X548005Y203200D03*
D65*
X560705Y203200D03*
D18*
X570560Y203200D03*
D49*
X575628Y203200D03*
D18*
X580720Y203200D03*
D23*
X588315Y203200D03*
D20*
X53327Y203835D03*
D13*
X61595Y203835D03*
D20*
X67958Y203835D03*
D11*
X73965Y203835D03*
D20*
X80023Y203835D03*
D13*
X91440Y203835D03*
D20*
X97803Y203835D03*
D30*
X103505Y203835D03*
D20*
X109868Y203835D03*
X115583Y203835D03*
D30*
X121285Y203835D03*
X128270Y203835D03*
D13*
X133985Y203835D03*
D20*
X139713Y203835D03*
D21*
X507060Y203835D03*
D33*
X521983Y203835D03*
D49*
X534353Y203835D03*
D24*
X543230Y203835D03*
D56*
X552145Y203835D03*
D23*
X559130Y203835D03*
D12*
X563563Y203835D03*
D20*
X570243Y203835D03*
D64*
X578803Y203835D03*
D38*
X587997Y203835D03*
D20*
X53327Y204470D03*
D13*
X61595Y204470D03*
D20*
X67958Y204470D03*
D11*
X73965Y204470D03*
D20*
X80023Y204470D03*
D13*
X91440Y204470D03*
D20*
X97803Y204470D03*
D30*
X103505Y204470D03*
D20*
X109868Y204470D03*
X115583Y204470D03*
D30*
X121285Y204470D03*
X128270Y204470D03*
D13*
X133985Y204470D03*
D20*
X139713Y204470D03*
D124*
X230835Y204470D03*
D23*
X506425Y204470D03*
D38*
X522618Y204470D03*
D75*
X538480Y204470D03*
D30*
X546735Y204470D03*
D43*
X552450Y204470D03*
D38*
X558178Y204470D03*
D57*
X564515Y204470D03*
D20*
X569608Y204470D03*
D38*
X577202Y204470D03*
D31*
X582308Y204470D03*
D19*
X587375Y204470D03*
D20*
X53327Y205105D03*
D13*
X61595Y205105D03*
D20*
X67958Y205105D03*
D11*
X73965Y205105D03*
D20*
X80023Y205105D03*
D13*
X91440Y205105D03*
D20*
X97803Y205105D03*
D30*
X103505Y205105D03*
D20*
X109868Y205105D03*
X115583Y205105D03*
D30*
X121285Y205105D03*
X128270Y205105D03*
D13*
X133985Y205105D03*
D20*
X139713Y205105D03*
D125*
X230835Y205105D03*
D18*
X505790Y205105D03*
D13*
X523240Y205105D03*
D64*
X535623Y205105D03*
D30*
X541655Y205105D03*
D43*
X547370Y205105D03*
D12*
X552768Y205105D03*
D23*
X557860Y205105D03*
D42*
X567690Y205105D03*
D69*
X576898Y205105D03*
D32*
X585483Y205105D03*
D20*
X53327Y205740D03*
D13*
X61595Y205740D03*
D20*
X67958Y205740D03*
D11*
X73965Y205740D03*
D20*
X80023Y205740D03*
D13*
X91440Y205740D03*
D20*
X97803Y205740D03*
D30*
X103505Y205740D03*
D20*
X109868Y205740D03*
X115583Y205740D03*
D30*
X121285Y205740D03*
X128270Y205740D03*
D17*
X136843Y205740D03*
D126*
X230835Y205740D03*
D12*
X505143Y205740D03*
D49*
X523558Y205740D03*
D57*
X532765Y205740D03*
D30*
X536575Y205740D03*
D43*
X541655Y205740D03*
X547370Y205740D03*
D23*
X554050Y205740D03*
D43*
X558800Y205740D03*
D15*
X566103Y205740D03*
D57*
X570865Y205740D03*
D69*
X576898Y205740D03*
D21*
X585165Y205740D03*
D20*
X53327Y206375D03*
D13*
X61595Y206375D03*
D20*
X67958Y206375D03*
D11*
X73965Y206375D03*
D20*
X80023Y206375D03*
D13*
X91440Y206375D03*
D20*
X97803Y206375D03*
D30*
X103505Y206375D03*
D20*
X109868Y206375D03*
X115583Y206375D03*
D30*
X121285Y206375D03*
X128270Y206375D03*
D17*
X136843Y206375D03*
D31*
X191783Y206375D03*
D29*
X207328Y206375D03*
X223203Y206375D03*
D21*
X239725Y206375D03*
X255600Y206375D03*
D11*
X269570Y206375D03*
D43*
X504825Y206375D03*
D56*
X524205Y206375D03*
X532435Y206375D03*
D43*
X536575Y206375D03*
D63*
X541973Y206375D03*
D43*
X547370Y206375D03*
D38*
X553733Y206375D03*
D57*
X559435Y206375D03*
D69*
X565468Y206375D03*
D57*
X571500Y206375D03*
D69*
X576263Y206375D03*
D23*
X584530Y206375D03*
D20*
X53327Y207010D03*
D13*
X61595Y207010D03*
D20*
X67958Y207010D03*
D11*
X73965Y207010D03*
D20*
X80023Y207010D03*
D13*
X91440Y207010D03*
D20*
X97803Y207010D03*
D30*
X103505Y207010D03*
D20*
X109868Y207010D03*
X115583Y207010D03*
D30*
X121285Y207010D03*
X128270Y207010D03*
D17*
X136843Y207010D03*
D31*
X191148Y207010D03*
D37*
X207010Y207010D03*
D38*
X223533Y207010D03*
X239408Y207010D03*
X255918Y207010D03*
D31*
X270523Y207010D03*
D62*
X504203Y207010D03*
X532117Y207010D03*
D63*
X536893Y207010D03*
X541973Y207010D03*
D61*
X550875Y207010D03*
D57*
X559435Y207010D03*
D38*
X565163Y207010D03*
D14*
X575005Y207010D03*
D34*
X583883Y207010D03*
D20*
X53327Y207645D03*
D13*
X61595Y207645D03*
D20*
X67958Y207645D03*
D11*
X73965Y207645D03*
D20*
X80023Y207645D03*
D13*
X91440Y207645D03*
D20*
X97803Y207645D03*
D30*
X103505Y207645D03*
D20*
X109868Y207645D03*
X115583Y207645D03*
D30*
X121285Y207645D03*
X128270Y207645D03*
D17*
X136843Y207645D03*
D56*
X190830Y207645D03*
D28*
X207328Y207645D03*
X223203Y207645D03*
D18*
X239725Y207645D03*
D28*
X255588Y207645D03*
D31*
X270523Y207645D03*
D62*
X532117Y207645D03*
D63*
X536893Y207645D03*
D43*
X542290Y207645D03*
D33*
X548653Y207645D03*
D57*
X554355Y207645D03*
D49*
X560388Y207645D03*
D23*
X564845Y207645D03*
D28*
X573088Y207645D03*
D12*
X578168Y207645D03*
D23*
X583235Y207645D03*
D20*
X53327Y208280D03*
D13*
X61595Y208280D03*
D20*
X67958Y208280D03*
D11*
X73965Y208280D03*
D20*
X80023Y208280D03*
D13*
X91440Y208280D03*
D20*
X97803Y208280D03*
D30*
X103505Y208280D03*
D20*
X109868Y208280D03*
X115583Y208280D03*
D30*
X121285Y208280D03*
X128270Y208280D03*
D17*
X136843Y208280D03*
D56*
X190830Y208280D03*
D20*
X207023Y208280D03*
D30*
X223520Y208280D03*
D20*
X239408Y208280D03*
X255892Y208280D03*
D59*
X270828Y208280D03*
D62*
X532117Y208280D03*
D43*
X537210Y208280D03*
D20*
X542938Y208280D03*
D33*
X548018Y208280D03*
D59*
X554673Y208280D03*
D38*
X561327Y208280D03*
D31*
X566433Y208280D03*
D18*
X572440Y208280D03*
D68*
X581343Y208280D03*
D20*
X53327Y208915D03*
D13*
X61595Y208915D03*
D20*
X67958Y208915D03*
D11*
X73965Y208915D03*
D20*
X80023Y208915D03*
D13*
X91440Y208915D03*
D20*
X97803Y208915D03*
D30*
X103505Y208915D03*
D20*
X109868Y208915D03*
X115583Y208915D03*
D30*
X121285Y208915D03*
X128270Y208915D03*
D13*
X133985Y208915D03*
D20*
X139713Y208915D03*
D56*
X190830Y208915D03*
D20*
X207023Y208915D03*
D30*
X223520Y208915D03*
D20*
X239408Y208915D03*
X255892Y208915D03*
D59*
X270828Y208915D03*
D56*
X532435Y208915D03*
D30*
X537210Y208915D03*
D24*
X545160Y208915D03*
D57*
X554990Y208915D03*
D19*
X560705Y208915D03*
D31*
X567068Y208915D03*
D13*
X572135Y208915D03*
D32*
X581038Y208915D03*
D20*
X53327Y209550D03*
D13*
X61595Y209550D03*
D20*
X67958Y209550D03*
D11*
X73965Y209550D03*
D20*
X80023Y209550D03*
D13*
X91440Y209550D03*
D20*
X97803Y209550D03*
D30*
X103505Y209550D03*
D20*
X109868Y209550D03*
X115583Y209550D03*
D30*
X121285Y209550D03*
X128270Y209550D03*
D13*
X133985Y209550D03*
D20*
X139713Y209550D03*
D56*
X190830Y209550D03*
D20*
X207023Y209550D03*
D30*
X223520Y209550D03*
D20*
X239408Y209550D03*
X255892Y209550D03*
D59*
X270828Y209550D03*
D113*
X514985Y209550D03*
D60*
X538798Y209550D03*
D57*
X549275Y209550D03*
D49*
X555308Y209550D03*
D23*
X560400Y209550D03*
D14*
X569925Y209550D03*
D33*
X580403Y209550D03*
D20*
X53327Y210185D03*
D13*
X61595Y210185D03*
D20*
X67958Y210185D03*
D11*
X73965Y210185D03*
D20*
X80023Y210185D03*
D13*
X91440Y210185D03*
D20*
X97803Y210185D03*
D30*
X103505Y210185D03*
D20*
X109868Y210185D03*
X115583Y210185D03*
D30*
X121285Y210185D03*
X128270Y210185D03*
D13*
X133985Y210185D03*
D20*
X139713Y210185D03*
D56*
X190830Y210185D03*
D20*
X207023Y210185D03*
D30*
X223520Y210185D03*
D20*
X239408Y210185D03*
X255892Y210185D03*
D59*
X270828Y210185D03*
D94*
X514680Y210185D03*
D44*
X536575Y210185D03*
D57*
X544195Y210185D03*
X549910Y210185D03*
D17*
X558483Y210185D03*
D28*
X568643Y210185D03*
D43*
X573405Y210185D03*
D23*
X580085Y210185D03*
D20*
X53327Y210820D03*
D13*
X61595Y210820D03*
D20*
X67958Y210820D03*
X74282Y210820D03*
X80023Y210820D03*
D69*
X91758Y210820D03*
D20*
X97803Y210820D03*
D30*
X103505Y210820D03*
D20*
X109868Y210820D03*
X115583Y210820D03*
D18*
X121615Y210820D03*
D30*
X128270Y210820D03*
D13*
X133985Y210820D03*
D20*
X139713Y210820D03*
D56*
X190830Y210820D03*
D23*
X198425Y210820D03*
D20*
X207023Y210820D03*
D30*
X215265Y210820D03*
X223520Y210820D03*
D18*
X231470Y210820D03*
D20*
X239408Y210820D03*
D28*
X247333Y210820D03*
D20*
X255892Y210820D03*
X263512Y210820D03*
D59*
X270828Y210820D03*
D11*
X292405Y210820D03*
D31*
X318148Y210820D03*
D43*
X343535Y210820D03*
D57*
X368935Y210820D03*
D11*
X394665Y210820D03*
D12*
X420053Y210820D03*
D31*
X445148Y210820D03*
D11*
X470865Y210820D03*
D25*
X514363Y210820D03*
D69*
X534353Y210820D03*
D49*
X539433Y210820D03*
D59*
X544513Y210820D03*
D49*
X550228Y210820D03*
D23*
X555930Y210820D03*
D31*
X561988Y210820D03*
D28*
X568008Y210820D03*
D43*
X574040Y210820D03*
D23*
X579450Y210820D03*
D20*
X53327Y211455D03*
D44*
X64770Y211455D03*
D17*
X77153Y211455D03*
D44*
X94615Y211455D03*
D30*
X103505Y211455D03*
D61*
X112725Y211455D03*
D121*
X124778Y211455D03*
D13*
X133985Y211455D03*
D20*
X139713Y211455D03*
D56*
X190830Y211455D03*
D23*
X198425Y211455D03*
D20*
X207023Y211455D03*
D30*
X215265Y211455D03*
X223520Y211455D03*
D18*
X231470Y211455D03*
D20*
X239408Y211455D03*
D28*
X247333Y211455D03*
D20*
X255892Y211455D03*
X263512Y211455D03*
D59*
X270828Y211455D03*
D11*
X292405Y211455D03*
X300050Y211455D03*
D66*
X307975Y211455D03*
D11*
X317830Y211455D03*
D45*
X331483Y211455D03*
D11*
X343205Y211455D03*
X368630Y211455D03*
D21*
X377520Y211455D03*
D70*
X384493Y211455D03*
D11*
X394665Y211455D03*
D12*
X420053Y211455D03*
D11*
X445465Y211455D03*
X470865Y211455D03*
D25*
X514363Y211455D03*
D49*
X534353Y211455D03*
D57*
X539750Y211455D03*
D59*
X544513Y211455D03*
D17*
X553403Y211455D03*
D56*
X562305Y211455D03*
D37*
X567690Y211455D03*
D14*
X577545Y211455D03*
D20*
X53327Y212090D03*
D44*
X64770Y212090D03*
D17*
X77153Y212090D03*
D44*
X94615Y212090D03*
D30*
X103505Y212090D03*
D61*
X112725Y212090D03*
D121*
X124778Y212090D03*
D13*
X133985Y212090D03*
D20*
X139713Y212090D03*
D56*
X190830Y212090D03*
D23*
X198425Y212090D03*
D20*
X207023Y212090D03*
D30*
X215265Y212090D03*
X223520Y212090D03*
D18*
X231470Y212090D03*
D20*
X239408Y212090D03*
D28*
X247333Y212090D03*
D20*
X255892Y212090D03*
X263512Y212090D03*
D59*
X270828Y212090D03*
D11*
X292405Y212090D03*
X300050Y212090D03*
D65*
X307975Y212090D03*
D11*
X317830Y212090D03*
D45*
X331483Y212090D03*
D11*
X343205Y212090D03*
X368630Y212090D03*
D45*
X381013Y212090D03*
D11*
X394665Y212090D03*
D12*
X420053Y212090D03*
D11*
X445465Y212090D03*
X470865Y212090D03*
D25*
X514363Y212090D03*
D56*
X534365Y212090D03*
D57*
X539750Y212090D03*
D31*
X545478Y212090D03*
D33*
X551167Y212090D03*
D11*
X556590Y212090D03*
D65*
X565785Y212090D03*
D29*
X576898Y212090D03*
D20*
X53327Y212725D03*
D44*
X64770Y212725D03*
D17*
X77153Y212725D03*
X94933Y212725D03*
D30*
X103505Y212725D03*
D61*
X112725Y212725D03*
D17*
X124778Y212725D03*
D13*
X133985Y212725D03*
D20*
X139713Y212725D03*
D56*
X190830Y212725D03*
D23*
X198425Y212725D03*
D20*
X207023Y212725D03*
D30*
X215265Y212725D03*
X223520Y212725D03*
D18*
X231470Y212725D03*
D20*
X239408Y212725D03*
D28*
X247333Y212725D03*
D20*
X255892Y212725D03*
X263512Y212725D03*
D59*
X270828Y212725D03*
D11*
X292405Y212725D03*
X300050Y212725D03*
D65*
X307975Y212725D03*
D11*
X317830Y212725D03*
D45*
X331483Y212725D03*
D11*
X343205Y212725D03*
X368630Y212725D03*
D45*
X381013Y212725D03*
D11*
X394665Y212725D03*
D12*
X420053Y212725D03*
D11*
X445465Y212725D03*
X470865Y212725D03*
D25*
X514363Y212725D03*
D56*
X534365Y212725D03*
D57*
X539750Y212725D03*
D35*
X548627Y212725D03*
D56*
X557225Y212725D03*
D38*
X563893Y212725D03*
D43*
X568960Y212725D03*
D29*
X576263Y212725D03*
D20*
X53327Y213360D03*
D61*
X65100Y213360D03*
D42*
X76835Y213360D03*
X94615Y213360D03*
D30*
X103505Y213360D03*
D26*
X113043Y213360D03*
D17*
X124778Y213360D03*
D13*
X133985Y213360D03*
D20*
X139713Y213360D03*
D56*
X190830Y213360D03*
D23*
X198425Y213360D03*
D20*
X207023Y213360D03*
D18*
X215595Y213360D03*
D30*
X223520Y213360D03*
D18*
X231470Y213360D03*
X239725Y213360D03*
D28*
X247333Y213360D03*
D20*
X255892Y213360D03*
X263512Y213360D03*
D59*
X270828Y213360D03*
D11*
X292405Y213360D03*
X300050Y213360D03*
D65*
X307975Y213360D03*
D11*
X317830Y213360D03*
D45*
X331483Y213360D03*
D11*
X343205Y213360D03*
D45*
X354978Y213360D03*
D11*
X368630Y213360D03*
D45*
X381013Y213360D03*
D11*
X394665Y213360D03*
D12*
X420053Y213360D03*
D11*
X445465Y213360D03*
D64*
X456248Y213360D03*
D11*
X463880Y213360D03*
X470865Y213360D03*
D94*
X514045Y213360D03*
D31*
X534683Y213360D03*
D57*
X539750Y213360D03*
D70*
X546418Y213360D03*
D31*
X551828Y213360D03*
D43*
X557530Y213360D03*
D38*
X563258Y213360D03*
D63*
X569278Y213360D03*
D33*
X575323Y213360D03*
D20*
X53327Y213995D03*
D14*
X65100Y213995D03*
D66*
X76835Y213995D03*
X94615Y213995D03*
D30*
X103505Y213995D03*
D14*
X113360Y213995D03*
D68*
X124778Y213995D03*
D13*
X133985Y213995D03*
D20*
X139713Y213995D03*
D56*
X190830Y213995D03*
D23*
X198425Y213995D03*
D20*
X207023Y213995D03*
D22*
X219393Y213995D03*
D127*
X239395Y213995D03*
D20*
X255892Y213995D03*
X263512Y213995D03*
D59*
X270828Y213995D03*
D11*
X292405Y213995D03*
X300050Y213995D03*
X305130Y213995D03*
X310820Y213995D03*
X317830Y213995D03*
X336880Y213995D03*
X343205Y213995D03*
D45*
X354978Y213995D03*
D11*
X368630Y213995D03*
X375615Y213995D03*
D20*
X381013Y213995D03*
D11*
X386410Y213995D03*
X394665Y213995D03*
D12*
X420053Y213995D03*
D11*
X445465Y213995D03*
D26*
X455943Y213995D03*
D11*
X463880Y213995D03*
X470865Y213995D03*
D38*
X506108Y213995D03*
D13*
X534670Y213995D03*
D39*
X543547Y213995D03*
D56*
X552145Y213995D03*
D12*
X557848Y213995D03*
D37*
X562610Y213995D03*
D61*
X573100Y213995D03*
D56*
X190830Y214630D03*
D23*
X198425Y214630D03*
D20*
X207023Y214630D03*
D22*
X219393Y214630D03*
D101*
X236855Y214630D03*
D20*
X255892Y214630D03*
X263512Y214630D03*
D59*
X270828Y214630D03*
D11*
X292405Y214630D03*
X300050Y214630D03*
X305130Y214630D03*
X310820Y214630D03*
X317830Y214630D03*
X336880Y214630D03*
X343205Y214630D03*
D45*
X354978Y214630D03*
D11*
X368630Y214630D03*
X375615Y214630D03*
D20*
X381013Y214630D03*
D11*
X386410Y214630D03*
X394665Y214630D03*
D12*
X420053Y214630D03*
D11*
X445465Y214630D03*
D27*
X456248Y214630D03*
D11*
X463880Y214630D03*
X470865Y214630D03*
D38*
X506108Y214630D03*
D46*
X537832Y214630D03*
D12*
X547053Y214630D03*
D56*
X552145Y214630D03*
D23*
X559130Y214630D03*
D43*
X563880Y214630D03*
D14*
X572465Y214630D03*
D56*
X190830Y215265D03*
D23*
X198425Y215265D03*
D20*
X207023Y215265D03*
D22*
X219393Y215265D03*
D109*
X235903Y215265D03*
D20*
X255892Y215265D03*
X263512Y215265D03*
D59*
X270828Y215265D03*
D11*
X292405Y215265D03*
X300050Y215265D03*
X305130Y215265D03*
X310820Y215265D03*
X317830Y215265D03*
X336880Y215265D03*
X343205Y215265D03*
D45*
X354978Y215265D03*
D30*
X368935Y215265D03*
D11*
X375615Y215265D03*
D20*
X381013Y215265D03*
D11*
X386410Y215265D03*
X394665Y215265D03*
D12*
X420053Y215265D03*
D11*
X445465Y215265D03*
D27*
X456248Y215265D03*
D11*
X463880Y215265D03*
X470865Y215265D03*
D38*
X506108Y215265D03*
D32*
X535292Y215265D03*
D30*
X541655Y215265D03*
D43*
X547370Y215265D03*
D63*
X552768Y215265D03*
D23*
X558495Y215265D03*
D57*
X564515Y215265D03*
D67*
X572135Y215265D03*
D56*
X190830Y215900D03*
D23*
X198425Y215900D03*
D20*
X207023Y215900D03*
D37*
X222885Y215900D03*
D38*
X239408Y215900D03*
D20*
X255892Y215900D03*
D59*
X270828Y215900D03*
D11*
X292405Y215900D03*
X300050Y215900D03*
X305130Y215900D03*
X310820Y215900D03*
X317830Y215900D03*
X336880Y215900D03*
X343205Y215900D03*
X360375Y215900D03*
D30*
X368935Y215900D03*
D11*
X375615Y215900D03*
D20*
X381013Y215900D03*
D11*
X386410Y215900D03*
X394665Y215900D03*
X406705Y215900D03*
D12*
X420053Y215900D03*
D11*
X445465Y215900D03*
X453085Y215900D03*
X459410Y215900D03*
X463880Y215900D03*
X470865Y215900D03*
D38*
X506108Y215900D03*
D56*
X532435Y215900D03*
D12*
X536893Y215900D03*
D43*
X541655Y215900D03*
X547370Y215900D03*
D61*
X555955Y215900D03*
D57*
X565150Y215900D03*
D29*
X571183Y215900D03*
D56*
X190830Y216535D03*
D23*
X198425Y216535D03*
D20*
X207023Y216535D03*
D28*
X223203Y216535D03*
D18*
X239725Y216535D03*
D20*
X255892Y216535D03*
D59*
X270828Y216535D03*
D11*
X292405Y216535D03*
D14*
X302590Y216535D03*
D38*
X309867Y216535D03*
D11*
X317830Y216535D03*
D21*
X334975Y216535D03*
D11*
X343205Y216535D03*
X360375Y216535D03*
D30*
X368935Y216535D03*
D11*
X375615Y216535D03*
D20*
X381013Y216535D03*
D11*
X386410Y216535D03*
X394665Y216535D03*
X406705Y216535D03*
D12*
X420053Y216535D03*
D21*
X428955Y216535D03*
D33*
X435623Y216535D03*
D11*
X445465Y216535D03*
X453085Y216535D03*
X459410Y216535D03*
X463880Y216535D03*
X470865Y216535D03*
D20*
X478803Y216535D03*
D14*
X486740Y216535D03*
D38*
X506108Y216535D03*
D62*
X532117Y216535D03*
D43*
X536575Y216535D03*
D63*
X541973Y216535D03*
D43*
X547370Y216535D03*
D38*
X553733Y216535D03*
D57*
X559435Y216535D03*
D17*
X568643Y216535D03*
D56*
X190830Y217170D03*
D23*
X198425Y217170D03*
D20*
X207023Y217170D03*
D30*
X223520Y217170D03*
D20*
X239408Y217170D03*
D28*
X255588Y217170D03*
D59*
X270828Y217170D03*
D11*
X292405Y217170D03*
D14*
X302590Y217170D03*
D38*
X309867Y217170D03*
D11*
X317830Y217170D03*
D21*
X334975Y217170D03*
D11*
X343205Y217170D03*
X360375Y217170D03*
D30*
X368935Y217170D03*
D11*
X375615Y217170D03*
D20*
X381013Y217170D03*
D11*
X386410Y217170D03*
X394665Y217170D03*
D45*
X407683Y217170D03*
D12*
X420053Y217170D03*
D122*
X432118Y217170D03*
D11*
X445465Y217170D03*
X453085Y217170D03*
X459410Y217170D03*
X463880Y217170D03*
X470865Y217170D03*
D20*
X478803Y217170D03*
D26*
X487058Y217170D03*
D38*
X506108Y217170D03*
D62*
X532117Y217170D03*
D63*
X536893Y217170D03*
D43*
X542290Y217170D03*
D61*
X550875Y217170D03*
D59*
X559753Y217170D03*
D64*
X568008Y217170D03*
D11*
X79705Y217805D03*
D31*
X125743Y217805D03*
D56*
X190830Y217805D03*
D23*
X198425Y217805D03*
D28*
X207328Y217805D03*
D30*
X223520Y217805D03*
D20*
X239408Y217805D03*
D28*
X255588Y217805D03*
D59*
X270828Y217805D03*
D11*
X292405Y217805D03*
D14*
X302590Y217805D03*
D38*
X309867Y217805D03*
D11*
X317830Y217805D03*
D21*
X334975Y217805D03*
D11*
X343205Y217805D03*
X360375Y217805D03*
D30*
X368935Y217805D03*
D11*
X375615Y217805D03*
X381330Y217805D03*
X386410Y217805D03*
X394665Y217805D03*
D108*
X407365Y217805D03*
D12*
X420053Y217805D03*
D122*
X432118Y217805D03*
D11*
X445465Y217805D03*
X453085Y217805D03*
X459410Y217805D03*
X463880Y217805D03*
X470865Y217805D03*
D20*
X478803Y217805D03*
D61*
X486740Y217805D03*
D38*
X506108Y217805D03*
D62*
X532117Y217805D03*
D63*
X536893Y217805D03*
D43*
X542290Y217805D03*
D35*
X550558Y217805D03*
D57*
X560070Y217805D03*
D64*
X567373Y217805D03*
D11*
X79705Y218440D03*
D20*
X125743Y218440D03*
D56*
X190830Y218440D03*
D23*
X198425Y218440D03*
D28*
X207328Y218440D03*
D18*
X223850Y218440D03*
D20*
X239408Y218440D03*
D37*
X255270Y218440D03*
D59*
X270828Y218440D03*
D11*
X292405Y218440D03*
D32*
X302273Y218440D03*
D69*
X309563Y218440D03*
D11*
X317830Y218440D03*
D21*
X334975Y218440D03*
D11*
X343205Y218440D03*
D70*
X358458Y218440D03*
D30*
X368935Y218440D03*
D11*
X375615Y218440D03*
X386410Y218440D03*
X394665Y218440D03*
D108*
X407365Y218440D03*
D12*
X420053Y218440D03*
D122*
X432118Y218440D03*
D11*
X445465Y218440D03*
D38*
X454038Y218440D03*
D66*
X461645Y218440D03*
D11*
X470865Y218440D03*
D20*
X478803Y218440D03*
D61*
X486740Y218440D03*
D25*
X514363Y218440D03*
D56*
X532435Y218440D03*
D12*
X536893Y218440D03*
D24*
X545795Y218440D03*
D57*
X554355Y218440D03*
D39*
X564502Y218440D03*
D11*
X79705Y219075D03*
D20*
X125743Y219075D03*
D56*
X190830Y219075D03*
D23*
X198425Y219075D03*
D38*
X207658Y219075D03*
D18*
X223850Y219075D03*
D20*
X239408Y219075D03*
D84*
X251460Y219075D03*
D59*
X270828Y219075D03*
D11*
X292405Y219075D03*
X317830Y219075D03*
X343205Y219075D03*
D70*
X358458Y219075D03*
D30*
X368935Y219075D03*
D11*
X394665Y219075D03*
D108*
X407365Y219075D03*
D12*
X420053Y219075D03*
D20*
X426733Y219075D03*
D11*
X432130Y219075D03*
X437820Y219075D03*
X445465Y219075D03*
D38*
X454038Y219075D03*
D66*
X461645Y219075D03*
D11*
X470865Y219075D03*
D20*
X478803Y219075D03*
D11*
X483565Y219075D03*
X489915Y219075D03*
D25*
X514363Y219075D03*
D57*
X532765Y219075D03*
D114*
X543255Y219075D03*
D57*
X554990Y219075D03*
D44*
X563880Y219075D03*
D11*
X79705Y219710D03*
D20*
X125743Y219710D03*
D56*
X190830Y219710D03*
D23*
X198425Y219710D03*
D33*
X208293Y219710D03*
D23*
X224485Y219710D03*
D20*
X239408Y219710D03*
D84*
X251460Y219710D03*
D59*
X270828Y219710D03*
D11*
X292405Y219710D03*
X317830Y219710D03*
X343205Y219710D03*
D70*
X358458Y219710D03*
D30*
X368935Y219710D03*
D11*
X394665Y219710D03*
D45*
X407683Y219710D03*
D12*
X420053Y219710D03*
D20*
X426733Y219710D03*
D11*
X432130Y219710D03*
X437820Y219710D03*
X445465Y219710D03*
D38*
X454038Y219710D03*
D66*
X461645Y219710D03*
D11*
X470865Y219710D03*
D20*
X478803Y219710D03*
D11*
X483565Y219710D03*
X489915Y219710D03*
D25*
X514363Y219710D03*
D60*
X538798Y219710D03*
D57*
X549275Y219710D03*
X554990Y219710D03*
D17*
X562928Y219710D03*
D11*
X79705Y220345D03*
D20*
X125743Y220345D03*
D56*
X190830Y220345D03*
D23*
X198425Y220345D03*
D22*
X211138Y220345D03*
D40*
X227660Y220345D03*
D20*
X239408Y220345D03*
D38*
X247663Y220345D03*
D20*
X255892Y220345D03*
X263512Y220345D03*
D59*
X270828Y220345D03*
D11*
X292405Y220345D03*
X317830Y220345D03*
X343205Y220345D03*
D70*
X358458Y220345D03*
D30*
X368935Y220345D03*
D11*
X394665Y220345D03*
X406705Y220345D03*
D12*
X420053Y220345D03*
D20*
X426733Y220345D03*
D11*
X432130Y220345D03*
X437820Y220345D03*
X445465Y220345D03*
D69*
X454343Y220345D03*
D66*
X461645Y220345D03*
D11*
X470865Y220345D03*
D20*
X478803Y220345D03*
D11*
X483565Y220345D03*
X489915Y220345D03*
D25*
X514363Y220345D03*
D15*
X534353Y220345D03*
D13*
X539115Y220345D03*
D57*
X544195Y220345D03*
D59*
X549593Y220345D03*
D58*
X559753Y220345D03*
D11*
X79705Y220980D03*
D20*
X125743Y220980D03*
D56*
X190830Y220980D03*
D23*
X198425Y220980D03*
D22*
X211138Y220980D03*
D40*
X227660Y220980D03*
D20*
X239408Y220980D03*
D28*
X247333Y220980D03*
D20*
X255892Y220980D03*
X263512Y220980D03*
D59*
X270828Y220980D03*
D11*
X292405Y220980D03*
X317830Y220980D03*
X343205Y220980D03*
D30*
X368935Y220980D03*
D11*
X394665Y220980D03*
X406705Y220980D03*
D12*
X420053Y220980D03*
D20*
X426733Y220980D03*
D11*
X432130Y220980D03*
X437820Y220980D03*
X445465Y220980D03*
X470865Y220980D03*
D20*
X478803Y220980D03*
D11*
X483565Y220980D03*
X489915Y220980D03*
D94*
X514680Y220980D03*
D49*
X534353Y220980D03*
X539433Y220980D03*
D59*
X544513Y220980D03*
D57*
X549910Y220980D03*
D39*
X558787Y220980D03*
D128*
X79375Y221615D03*
D22*
X101918Y221615D03*
D20*
X125743Y221615D03*
D56*
X190830Y221615D03*
D23*
X198425Y221615D03*
D22*
X211138Y221615D03*
D40*
X227660Y221615D03*
D20*
X239408Y221615D03*
D28*
X247333Y221615D03*
D20*
X255892Y221615D03*
X263512Y221615D03*
D59*
X270828Y221615D03*
D11*
X292405Y221615D03*
X300050Y221615D03*
D66*
X307975Y221615D03*
D11*
X317830Y221615D03*
X326085Y221615D03*
D32*
X334023Y221615D03*
D11*
X343205Y221615D03*
D30*
X368935Y221615D03*
D11*
X375615Y221615D03*
D32*
X383553Y221615D03*
D11*
X394665Y221615D03*
X406705Y221615D03*
D12*
X420053Y221615D03*
D20*
X426733Y221615D03*
D11*
X432130Y221615D03*
X437820Y221615D03*
X445465Y221615D03*
X470865Y221615D03*
D14*
X481025Y221615D03*
D19*
X488950Y221615D03*
D92*
X514998Y221615D03*
D56*
X534365Y221615D03*
D59*
X539433Y221615D03*
D57*
X544830Y221615D03*
D49*
X550228Y221615D03*
D24*
X557860Y221615D03*
D58*
X79693Y222250D03*
D22*
X101918Y222250D03*
D39*
X125717Y222250D03*
D56*
X190830Y222250D03*
D23*
X198425Y222250D03*
D22*
X211138Y222250D03*
D40*
X227660Y222250D03*
D20*
X239408Y222250D03*
D28*
X247333Y222250D03*
D20*
X255892Y222250D03*
X263512Y222250D03*
D59*
X270828Y222250D03*
D11*
X292405Y222250D03*
X300050Y222250D03*
D65*
X307975Y222250D03*
D11*
X317830Y222250D03*
X326085Y222250D03*
D26*
X334023Y222250D03*
D11*
X343205Y222250D03*
D30*
X368935Y222250D03*
D11*
X375615Y222250D03*
D26*
X383553Y222250D03*
D11*
X394665Y222250D03*
X406705Y222250D03*
D12*
X420053Y222250D03*
D20*
X426733Y222250D03*
D11*
X432130Y222250D03*
X437820Y222250D03*
X445465Y222250D03*
X470865Y222250D03*
D14*
X481025Y222250D03*
D19*
X488950Y222250D03*
D56*
X534365Y222250D03*
D59*
X539433Y222250D03*
D57*
X544830Y222250D03*
D75*
X554990Y222250D03*
D58*
X79693Y222885D03*
D22*
X101918Y222885D03*
D39*
X125717Y222885D03*
D56*
X190830Y222885D03*
D22*
X211138Y222885D03*
D40*
X227660Y222885D03*
D20*
X239408Y222885D03*
D28*
X247333Y222885D03*
D20*
X255892Y222885D03*
X263512Y222885D03*
D59*
X270828Y222885D03*
D11*
X292405Y222885D03*
X300050Y222885D03*
D65*
X307975Y222885D03*
D11*
X317830Y222885D03*
X326085Y222885D03*
D26*
X334023Y222885D03*
D11*
X343205Y222885D03*
D30*
X368935Y222885D03*
D11*
X375615Y222885D03*
D26*
X383553Y222885D03*
D11*
X394665Y222885D03*
D17*
X409893Y222885D03*
D12*
X420053Y222885D03*
D20*
X426733Y222885D03*
D11*
X432130Y222885D03*
X437820Y222885D03*
X445465Y222885D03*
X470865Y222885D03*
D14*
X481025Y222885D03*
D19*
X488950Y222885D03*
D56*
X534365Y222885D03*
D57*
X539750Y222885D03*
D13*
X545465Y222885D03*
D40*
X553390Y222885D03*
D58*
X79693Y223520D03*
D22*
X101918Y223520D03*
D39*
X125717Y223520D03*
D56*
X190830Y223520D03*
D20*
X207023Y223520D03*
D30*
X223520Y223520D03*
D20*
X239408Y223520D03*
X255892Y223520D03*
X263512Y223520D03*
D59*
X270828Y223520D03*
D11*
X292405Y223520D03*
X300050Y223520D03*
D65*
X307975Y223520D03*
D11*
X317830Y223520D03*
X326085Y223520D03*
D26*
X334023Y223520D03*
D11*
X343205Y223520D03*
D30*
X368935Y223520D03*
D11*
X375615Y223520D03*
D26*
X383553Y223520D03*
D11*
X394665Y223520D03*
D17*
X409893Y223520D03*
D12*
X420053Y223520D03*
D20*
X426733Y223520D03*
D11*
X437820Y223520D03*
X445465Y223520D03*
X470865Y223520D03*
D14*
X481025Y223520D03*
D69*
X488633Y223520D03*
D31*
X534683Y223520D03*
D49*
X539433Y223520D03*
D52*
X549910Y223520D03*
D20*
X79388Y224155D03*
D39*
X125717Y224155D03*
D56*
X190830Y224155D03*
D20*
X207023Y224155D03*
D30*
X223520Y224155D03*
D20*
X239408Y224155D03*
X255892Y224155D03*
X263512Y224155D03*
D59*
X270828Y224155D03*
D11*
X292405Y224155D03*
X300050Y224155D03*
X305130Y224155D03*
X310820Y224155D03*
X317830Y224155D03*
X326085Y224155D03*
X331165Y224155D03*
X336880Y224155D03*
X343205Y224155D03*
D45*
X354978Y224155D03*
D30*
X368935Y224155D03*
D11*
X375615Y224155D03*
D43*
X380365Y224155D03*
D11*
X386410Y224155D03*
X394665Y224155D03*
D17*
X409893Y224155D03*
D12*
X420053Y224155D03*
D11*
X445465Y224155D03*
D45*
X458483Y224155D03*
D11*
X470865Y224155D03*
D129*
X543878Y224155D03*
D11*
X79705Y224790D03*
D20*
X125743Y224790D03*
D56*
X190830Y224790D03*
D20*
X207023Y224790D03*
D30*
X223520Y224790D03*
D20*
X239408Y224790D03*
X255892Y224790D03*
X263512Y224790D03*
D59*
X270828Y224790D03*
D11*
X292405Y224790D03*
X300050Y224790D03*
X305130Y224790D03*
X310820Y224790D03*
X317830Y224790D03*
X326085Y224790D03*
X331165Y224790D03*
X336880Y224790D03*
X343205Y224790D03*
D45*
X354978Y224790D03*
D30*
X368935Y224790D03*
D11*
X375615Y224790D03*
D43*
X380365Y224790D03*
D11*
X386410Y224790D03*
X394665Y224790D03*
D26*
X410223Y224790D03*
D12*
X420053Y224790D03*
D11*
X445465Y224790D03*
D45*
X458483Y224790D03*
D11*
X470865Y224790D03*
D130*
X542290Y224790D03*
D11*
X79705Y225425D03*
D20*
X125743Y225425D03*
D56*
X190830Y225425D03*
D20*
X207023Y225425D03*
D30*
X223520Y225425D03*
D20*
X239408Y225425D03*
X255892Y225425D03*
X263512Y225425D03*
D59*
X270828Y225425D03*
D11*
X292405Y225425D03*
X300050Y225425D03*
X305130Y225425D03*
X310820Y225425D03*
X317830Y225425D03*
X326085Y225425D03*
X331165Y225425D03*
X336880Y225425D03*
X343205Y225425D03*
D45*
X354978Y225425D03*
D30*
X368935Y225425D03*
D11*
X375615Y225425D03*
D43*
X380365Y225425D03*
D11*
X386410Y225425D03*
X394665Y225425D03*
D12*
X420053Y225425D03*
D11*
X445465Y225425D03*
D45*
X458483Y225425D03*
D11*
X470865Y225425D03*
D113*
X541020Y225425D03*
D11*
X79705Y226060D03*
D20*
X125743Y226060D03*
D56*
X190830Y226060D03*
D20*
X207023Y226060D03*
D30*
X223520Y226060D03*
D18*
X239725Y226060D03*
D28*
X255588Y226060D03*
D20*
X263512Y226060D03*
D59*
X270828Y226060D03*
D11*
X292405Y226060D03*
X300050Y226060D03*
X305130Y226060D03*
X310820Y226060D03*
X317830Y226060D03*
X326085Y226060D03*
X331165Y226060D03*
X336880Y226060D03*
X343205Y226060D03*
X360375Y226060D03*
D30*
X368935Y226060D03*
D11*
X375615Y226060D03*
D43*
X380365Y226060D03*
D11*
X386410Y226060D03*
X394665Y226060D03*
D12*
X420053Y226060D03*
D11*
X445465Y226060D03*
X463880Y226060D03*
X470865Y226060D03*
D18*
X505790Y226060D03*
D131*
X539433Y226060D03*
D11*
X79705Y226695D03*
D20*
X125743Y226695D03*
D31*
X191148Y226695D03*
D18*
X206705Y226695D03*
D30*
X223520Y226695D03*
D18*
X239725Y226695D03*
D28*
X255588Y226695D03*
D20*
X263512Y226695D03*
D59*
X270828Y226695D03*
D11*
X292405Y226695D03*
D14*
X302590Y226695D03*
D38*
X309867Y226695D03*
D11*
X317830Y226695D03*
D14*
X328625Y226695D03*
D19*
X335915Y226695D03*
D11*
X343205Y226695D03*
X360375Y226695D03*
D30*
X368935Y226695D03*
D67*
X377825Y226695D03*
D38*
X385458Y226695D03*
D11*
X394665Y226695D03*
D12*
X420053Y226695D03*
D11*
X445465Y226695D03*
X463880Y226695D03*
X470865Y226695D03*
D18*
X505790Y226695D03*
D44*
X536575Y226695D03*
D11*
X79705Y227330D03*
D20*
X125743Y227330D03*
D11*
X191465Y227330D03*
D38*
X206388Y227330D03*
D30*
X223520Y227330D03*
D37*
X240030Y227330D03*
X255270Y227330D03*
D20*
X263512Y227330D03*
D59*
X270828Y227330D03*
D11*
X292405Y227330D03*
D14*
X302590Y227330D03*
D38*
X309867Y227330D03*
D11*
X317830Y227330D03*
D14*
X328625Y227330D03*
D19*
X335915Y227330D03*
D11*
X343205Y227330D03*
D30*
X368935Y227330D03*
D67*
X377825Y227330D03*
D38*
X385458Y227330D03*
D11*
X394665Y227330D03*
D12*
X420053Y227330D03*
D11*
X445465Y227330D03*
X470865Y227330D03*
D18*
X505790Y227330D03*
D11*
X79705Y227965D03*
D20*
X125743Y227965D03*
D95*
X230835Y227965D03*
D11*
X292405Y227965D03*
D14*
X302590Y227965D03*
D38*
X309867Y227965D03*
D11*
X317830Y227965D03*
D14*
X328625Y227965D03*
D19*
X335915Y227965D03*
D11*
X343205Y227965D03*
D30*
X368935Y227965D03*
D67*
X377825Y227965D03*
D38*
X385458Y227965D03*
D11*
X394665Y227965D03*
D12*
X420053Y227965D03*
D11*
X445465Y227965D03*
X470865Y227965D03*
D18*
X505790Y227965D03*
D20*
X125743Y228600D03*
D95*
X230835Y228600D03*
D11*
X292405Y228600D03*
D32*
X302273Y228600D03*
D38*
X309867Y228600D03*
D11*
X317830Y228600D03*
D32*
X328308Y228600D03*
D19*
X335915Y228600D03*
D11*
X343205Y228600D03*
D30*
X368935Y228600D03*
D67*
X377825Y228600D03*
D18*
X385140Y228600D03*
D11*
X394665Y228600D03*
D12*
X420053Y228600D03*
D11*
X445465Y228600D03*
X470865Y228600D03*
D18*
X505790Y228600D03*
D31*
X191148Y229235D03*
D11*
X199085Y229235D03*
D56*
X207975Y229235D03*
D57*
X212725Y229235D03*
D62*
X220993Y229235D03*
D43*
X230505Y229235D03*
D31*
X238138Y229235D03*
X243192Y229235D03*
D11*
X247955Y229235D03*
D43*
X256540Y229235D03*
D11*
X261290Y229235D03*
D56*
X266395Y229235D03*
D59*
X270828Y229235D03*
D11*
X292405Y229235D03*
D21*
X301955Y229235D03*
D13*
X309245Y229235D03*
D11*
X317830Y229235D03*
D29*
X327978Y229235D03*
D13*
X335280Y229235D03*
D11*
X343205Y229235D03*
D30*
X368935Y229235D03*
D21*
X377520Y229235D03*
D30*
X384810Y229235D03*
D11*
X394665Y229235D03*
D12*
X420053Y229235D03*
D11*
X445465Y229235D03*
X470865Y229235D03*
D18*
X505790Y229235D03*
D56*
X190830Y229870D03*
D57*
X199390Y229870D03*
D56*
X207975Y229870D03*
D57*
X212725Y229870D03*
D62*
X220993Y229870D03*
D56*
X230200Y229870D03*
X238455Y229870D03*
D31*
X243192Y229870D03*
X247637Y229870D03*
D43*
X256540Y229870D03*
D11*
X261290Y229870D03*
D56*
X266395Y229870D03*
D59*
X270828Y229870D03*
D11*
X292405Y229870D03*
X317830Y229870D03*
X343205Y229870D03*
D30*
X368935Y229870D03*
D11*
X394665Y229870D03*
D12*
X420053Y229870D03*
D11*
X445465Y229870D03*
X470865Y229870D03*
D18*
X505790Y229870D03*
D56*
X190830Y230505D03*
X199720Y230505D03*
X207975Y230505D03*
X212395Y230505D03*
D62*
X220993Y230505D03*
D98*
X229870Y230505D03*
D56*
X238455Y230505D03*
D31*
X243192Y230505D03*
X247637Y230505D03*
D43*
X256540Y230505D03*
D31*
X260972Y230505D03*
D56*
X266395Y230505D03*
D59*
X270828Y230505D03*
D11*
X292405Y230505D03*
X317830Y230505D03*
X343205Y230505D03*
D30*
X368935Y230505D03*
D11*
X394665Y230505D03*
D12*
X420053Y230505D03*
D11*
X445465Y230505D03*
X470865Y230505D03*
D18*
X505790Y230505D03*
D56*
X190830Y231140D03*
X199720Y231140D03*
X207975Y231140D03*
X212395Y231140D03*
D62*
X220993Y231140D03*
D98*
X229870Y231140D03*
D56*
X238455Y231140D03*
D31*
X243192Y231140D03*
X247637Y231140D03*
D43*
X256540Y231140D03*
D31*
X260972Y231140D03*
D56*
X266395Y231140D03*
D59*
X270828Y231140D03*
D11*
X292405Y231140D03*
X317830Y231140D03*
X343205Y231140D03*
D30*
X368935Y231140D03*
D11*
X394665Y231140D03*
D12*
X420053Y231140D03*
D11*
X445465Y231140D03*
X470865Y231140D03*
D94*
X514045Y231140D03*
D56*
X190830Y231775D03*
D43*
X194945Y231775D03*
D23*
X201625Y231775D03*
D56*
X207975Y231775D03*
X212395Y231775D03*
X216865Y231775D03*
D20*
X222263Y231775D03*
D30*
X228600Y231775D03*
D31*
X234328Y231775D03*
D56*
X238455Y231775D03*
D31*
X243192Y231775D03*
X247637Y231775D03*
X252108Y231775D03*
D43*
X256540Y231775D03*
D59*
X260668Y231775D03*
D56*
X266395Y231775D03*
D59*
X270828Y231775D03*
D11*
X292405Y231775D03*
X317830Y231775D03*
X343205Y231775D03*
D30*
X368935Y231775D03*
D11*
X394665Y231775D03*
D12*
X420053Y231775D03*
D11*
X445465Y231775D03*
X470865Y231775D03*
D25*
X514363Y231775D03*
D56*
X190830Y232410D03*
D43*
X194945Y232410D03*
D23*
X201625Y232410D03*
D56*
X207975Y232410D03*
X212395Y232410D03*
X216865Y232410D03*
D20*
X222263Y232410D03*
D30*
X228600Y232410D03*
D31*
X234328Y232410D03*
D56*
X238455Y232410D03*
D31*
X243192Y232410D03*
X247637Y232410D03*
X252108Y232410D03*
D43*
X256540Y232410D03*
D59*
X260668Y232410D03*
D56*
X266395Y232410D03*
D59*
X270828Y232410D03*
D11*
X292405Y232410D03*
X317830Y232410D03*
X343205Y232410D03*
D30*
X368935Y232410D03*
D11*
X394665Y232410D03*
D12*
X420053Y232410D03*
D11*
X445465Y232410D03*
X470865Y232410D03*
D25*
X514363Y232410D03*
D56*
X190830Y233045D03*
D43*
X194945Y233045D03*
D23*
X201625Y233045D03*
D56*
X207975Y233045D03*
X212395Y233045D03*
X216865Y233045D03*
D20*
X222263Y233045D03*
D30*
X228600Y233045D03*
D49*
X233998Y233045D03*
D56*
X238455Y233045D03*
D31*
X243192Y233045D03*
X247637Y233045D03*
X252108Y233045D03*
D43*
X256540Y233045D03*
D97*
X260350Y233045D03*
D56*
X266395Y233045D03*
D59*
X270828Y233045D03*
D11*
X292405Y233045D03*
X317830Y233045D03*
X343205Y233045D03*
D30*
X368935Y233045D03*
D11*
X394665Y233045D03*
D12*
X420053Y233045D03*
D11*
X445465Y233045D03*
X470865Y233045D03*
D25*
X514363Y233045D03*
D42*
X56515Y233680D03*
D13*
X152400Y233680D03*
D78*
X193040Y233680D03*
D11*
X200355Y233680D03*
D56*
X207975Y233680D03*
X212395Y233680D03*
D20*
X222263Y233680D03*
D14*
X230835Y233680D03*
D56*
X238455Y233680D03*
D31*
X243192Y233680D03*
X247637Y233680D03*
X252108Y233680D03*
D43*
X256540Y233680D03*
D97*
X260350Y233680D03*
D56*
X266395Y233680D03*
D59*
X270828Y233680D03*
D11*
X292405Y233680D03*
X317830Y233680D03*
X343205Y233680D03*
D30*
X368935Y233680D03*
D11*
X394665Y233680D03*
D12*
X420053Y233680D03*
D11*
X445465Y233680D03*
X470865Y233680D03*
D25*
X514363Y233680D03*
D17*
X56198Y234315D03*
D13*
X152400Y234315D03*
D31*
X191148Y234315D03*
D43*
X200025Y234315D03*
D56*
X207975Y234315D03*
X212395Y234315D03*
D20*
X222263Y234315D03*
D18*
X228930Y234315D03*
D56*
X238455Y234315D03*
D31*
X243192Y234315D03*
X247637Y234315D03*
X252108Y234315D03*
D43*
X256540Y234315D03*
D56*
X266395Y234315D03*
D59*
X270828Y234315D03*
D11*
X292405Y234315D03*
X317830Y234315D03*
X343205Y234315D03*
D30*
X368935Y234315D03*
D11*
X394665Y234315D03*
D12*
X420053Y234315D03*
D11*
X445465Y234315D03*
X470865Y234315D03*
D25*
X514363Y234315D03*
D17*
X56198Y234950D03*
D13*
X152400Y234950D03*
D56*
X190830Y234950D03*
D43*
X200025Y234950D03*
D56*
X207975Y234950D03*
D57*
X212725Y234950D03*
D20*
X222263Y234950D03*
D30*
X228600Y234950D03*
D56*
X238455Y234950D03*
D31*
X243192Y234950D03*
X247637Y234950D03*
X252108Y234950D03*
D43*
X256540Y234950D03*
D56*
X266395Y234950D03*
D59*
X270828Y234950D03*
D11*
X292405Y234950D03*
X317830Y234950D03*
X343205Y234950D03*
D30*
X368935Y234950D03*
D11*
X394665Y234950D03*
D12*
X420053Y234950D03*
D11*
X445465Y234950D03*
X470865Y234950D03*
D94*
X514045Y234950D03*
D44*
X55880Y235585D03*
D13*
X152400Y235585D03*
D56*
X190830Y235585D03*
D11*
X199695Y235585D03*
D56*
X207975Y235585D03*
D57*
X212725Y235585D03*
D20*
X222263Y235585D03*
D30*
X228600Y235585D03*
D31*
X238138Y235585D03*
X243192Y235585D03*
X247637Y235585D03*
X252108Y235585D03*
D43*
X256540Y235585D03*
D56*
X266395Y235585D03*
D59*
X270828Y235585D03*
D11*
X292405Y235585D03*
X317830Y235585D03*
X343205Y235585D03*
D30*
X368935Y235585D03*
D11*
X394665Y235585D03*
D12*
X420053Y235585D03*
D11*
X445465Y235585D03*
X470865Y235585D03*
D18*
X53010Y236220D03*
D13*
X59055Y236220D03*
X152400Y236220D03*
D56*
X190830Y236220D03*
D18*
X199720Y236220D03*
D56*
X207975Y236220D03*
X212395Y236220D03*
D20*
X222263Y236220D03*
D30*
X228600Y236220D03*
D11*
X237820Y236220D03*
D31*
X243192Y236220D03*
X247637Y236220D03*
X252108Y236220D03*
D43*
X256540Y236220D03*
D97*
X262890Y236220D03*
D56*
X266395Y236220D03*
D59*
X270828Y236220D03*
D11*
X292405Y236220D03*
X317830Y236220D03*
X343205Y236220D03*
D30*
X368935Y236220D03*
D11*
X394665Y236220D03*
D12*
X420053Y236220D03*
D11*
X445465Y236220D03*
X470865Y236220D03*
D20*
X52692Y236855D03*
D13*
X59055Y236855D03*
X152400Y236855D03*
D56*
X190830Y236855D03*
D11*
X195275Y236855D03*
D16*
X201295Y236855D03*
D56*
X207975Y236855D03*
X212395Y236855D03*
X216865Y236855D03*
D20*
X222263Y236855D03*
D30*
X228600Y236855D03*
D31*
X234328Y236855D03*
X238138Y236855D03*
X243192Y236855D03*
X247637Y236855D03*
X252108Y236855D03*
D43*
X256540Y236855D03*
D59*
X262573Y236855D03*
D56*
X266395Y236855D03*
D59*
X270828Y236855D03*
D11*
X292405Y236855D03*
X317830Y236855D03*
X343205Y236855D03*
D30*
X368935Y236855D03*
D11*
X394665Y236855D03*
D12*
X420053Y236855D03*
D11*
X445465Y236855D03*
X470865Y236855D03*
D20*
X52692Y237490D03*
D13*
X59055Y237490D03*
X152400Y237490D03*
D56*
X190830Y237490D03*
D43*
X194945Y237490D03*
D23*
X201625Y237490D03*
D56*
X207975Y237490D03*
X212395Y237490D03*
X216865Y237490D03*
D20*
X222263Y237490D03*
D30*
X228600Y237490D03*
D31*
X234328Y237490D03*
D56*
X238455Y237490D03*
D31*
X243192Y237490D03*
X247637Y237490D03*
X252108Y237490D03*
D43*
X256540Y237490D03*
D59*
X262573Y237490D03*
D56*
X266395Y237490D03*
D59*
X270828Y237490D03*
D11*
X292405Y237490D03*
X317830Y237490D03*
X343205Y237490D03*
D30*
X368935Y237490D03*
D11*
X394665Y237490D03*
D12*
X420053Y237490D03*
D11*
X445465Y237490D03*
X470865Y237490D03*
D20*
X52692Y238125D03*
D13*
X59055Y238125D03*
X152400Y238125D03*
D56*
X190830Y238125D03*
D43*
X194945Y238125D03*
D23*
X201625Y238125D03*
D56*
X207975Y238125D03*
X212395Y238125D03*
X216865Y238125D03*
D20*
X222263Y238125D03*
D30*
X228600Y238125D03*
D31*
X234328Y238125D03*
D56*
X238455Y238125D03*
D31*
X243192Y238125D03*
X247637Y238125D03*
X252108Y238125D03*
D43*
X256540Y238125D03*
D31*
X262268Y238125D03*
D56*
X266395Y238125D03*
D59*
X270828Y238125D03*
D11*
X292405Y238125D03*
X317830Y238125D03*
X343205Y238125D03*
D30*
X368935Y238125D03*
D11*
X394665Y238125D03*
D12*
X420053Y238125D03*
D11*
X445465Y238125D03*
X470865Y238125D03*
D20*
X52692Y238760D03*
D13*
X59055Y238760D03*
X152400Y238760D03*
D56*
X190830Y238760D03*
X199720Y238760D03*
X207975Y238760D03*
X212395Y238760D03*
X216865Y238760D03*
D20*
X222263Y238760D03*
D30*
X228600Y238760D03*
D56*
X238455Y238760D03*
D31*
X247637Y238760D03*
D43*
X256540Y238760D03*
D31*
X262268Y238760D03*
D56*
X266395Y238760D03*
D59*
X270828Y238760D03*
D11*
X292405Y238760D03*
X317830Y238760D03*
X343205Y238760D03*
D30*
X368935Y238760D03*
D11*
X394665Y238760D03*
D12*
X420053Y238760D03*
D11*
X445465Y238760D03*
X470865Y238760D03*
D20*
X52692Y239395D03*
D13*
X59055Y239395D03*
X152400Y239395D03*
D56*
X190830Y239395D03*
X199720Y239395D03*
X207975Y239395D03*
X212395Y239395D03*
X216865Y239395D03*
D20*
X222263Y239395D03*
D30*
X228600Y239395D03*
D56*
X238455Y239395D03*
D31*
X247637Y239395D03*
D43*
X256540Y239395D03*
D11*
X261950Y239395D03*
D56*
X266395Y239395D03*
D59*
X270828Y239395D03*
D11*
X292405Y239395D03*
X317830Y239395D03*
X343205Y239395D03*
D30*
X368935Y239395D03*
D11*
X394665Y239395D03*
D12*
X420053Y239395D03*
D11*
X445465Y239395D03*
X470865Y239395D03*
D38*
X522618Y239395D03*
D17*
X56198Y240030D03*
D13*
X152400Y240030D03*
D56*
X190830Y240030D03*
D57*
X199390Y240030D03*
D56*
X207975Y240030D03*
X212395Y240030D03*
X216865Y240030D03*
D20*
X222263Y240030D03*
D30*
X228600Y240030D03*
D56*
X238455Y240030D03*
D31*
X247637Y240030D03*
D43*
X256540Y240030D03*
D11*
X261950Y240030D03*
D56*
X266395Y240030D03*
D59*
X270828Y240030D03*
D11*
X292405Y240030D03*
X317830Y240030D03*
X343205Y240030D03*
D30*
X368935Y240030D03*
D11*
X394665Y240030D03*
D12*
X420053Y240030D03*
D11*
X445465Y240030D03*
X470865Y240030D03*
D38*
X522618Y240030D03*
D17*
X56198Y240665D03*
D13*
X152400Y240665D03*
D31*
X191148Y240665D03*
D57*
X199390Y240665D03*
D56*
X207975Y240665D03*
X212395Y240665D03*
X216865Y240665D03*
D20*
X222263Y240665D03*
D18*
X228930Y240665D03*
D11*
X238455Y240665D03*
X247955Y240665D03*
D43*
X256540Y240665D03*
D13*
X261620Y240665D03*
D56*
X266395Y240665D03*
D59*
X270828Y240665D03*
D11*
X292405Y240665D03*
X317830Y240665D03*
X343205Y240665D03*
D30*
X368935Y240665D03*
D11*
X394665Y240665D03*
D12*
X420053Y240665D03*
D11*
X445465Y240665D03*
X470865Y240665D03*
D18*
X514020Y240665D03*
D38*
X522618Y240665D03*
D42*
X56515Y241300D03*
D13*
X152400Y241300D03*
D11*
X191465Y241300D03*
D132*
X214630Y241300D03*
D133*
X254013Y241300D03*
D11*
X292405Y241300D03*
X317830Y241300D03*
X343205Y241300D03*
D30*
X368935Y241300D03*
D11*
X394665Y241300D03*
D12*
X420053Y241300D03*
D11*
X445465Y241300D03*
X470865Y241300D03*
D18*
X514020Y241300D03*
D38*
X522618Y241300D03*
D17*
X56198Y241935D03*
D13*
X152400Y241935D03*
D134*
X231153Y241935D03*
D11*
X292405Y241935D03*
X317830Y241935D03*
X343205Y241935D03*
D30*
X368935Y241935D03*
D11*
X394665Y241935D03*
D12*
X420053Y241935D03*
D11*
X445465Y241935D03*
X470865Y241935D03*
D18*
X514020Y241935D03*
D38*
X522618Y241935D03*
D17*
X56198Y242570D03*
D13*
X152400Y242570D03*
D126*
X231470Y242570D03*
D11*
X292405Y242570D03*
X317830Y242570D03*
X343205Y242570D03*
D30*
X368935Y242570D03*
D11*
X394665Y242570D03*
D12*
X420053Y242570D03*
D11*
X445465Y242570D03*
X470865Y242570D03*
D18*
X514020Y242570D03*
D38*
X522618Y242570D03*
D20*
X52692Y243205D03*
D13*
X59055Y243205D03*
X152400Y243205D03*
D66*
X267970Y243205D03*
D11*
X292405Y243205D03*
X317830Y243205D03*
X343205Y243205D03*
D30*
X368935Y243205D03*
D11*
X394665Y243205D03*
D12*
X420053Y243205D03*
D11*
X445465Y243205D03*
X470865Y243205D03*
D18*
X514020Y243205D03*
D38*
X522618Y243205D03*
D20*
X52692Y243840D03*
D13*
X59055Y243840D03*
X152400Y243840D03*
D70*
X268288Y243840D03*
D11*
X292405Y243840D03*
X317830Y243840D03*
X343205Y243840D03*
D30*
X368935Y243840D03*
D11*
X394665Y243840D03*
D12*
X420053Y243840D03*
D11*
X445465Y243840D03*
X470865Y243840D03*
D18*
X514020Y243840D03*
D38*
X522618Y243840D03*
D20*
X52692Y244475D03*
D13*
X59055Y244475D03*
X152400Y244475D03*
D33*
X268618Y244475D03*
D11*
X292405Y244475D03*
X317830Y244475D03*
X343205Y244475D03*
D30*
X368935Y244475D03*
D11*
X394665Y244475D03*
D12*
X420053Y244475D03*
D11*
X445465Y244475D03*
X470865Y244475D03*
D18*
X514020Y244475D03*
D38*
X522618Y244475D03*
D20*
X52692Y245110D03*
D13*
X59055Y245110D03*
X152400Y245110D03*
D23*
X268935Y245110D03*
D11*
X292405Y245110D03*
X317830Y245110D03*
X343205Y245110D03*
D30*
X368935Y245110D03*
D11*
X394665Y245110D03*
D12*
X420053Y245110D03*
D11*
X445465Y245110D03*
X470865Y245110D03*
D18*
X514020Y245110D03*
D38*
X522618Y245110D03*
D20*
X52692Y245745D03*
D13*
X59055Y245745D03*
X152400Y245745D03*
D38*
X269253Y245745D03*
D11*
X292405Y245745D03*
X317830Y245745D03*
X343205Y245745D03*
D30*
X368935Y245745D03*
D11*
X394665Y245745D03*
D12*
X420053Y245745D03*
D11*
X445465Y245745D03*
X470865Y245745D03*
D25*
X514363Y245745D03*
D20*
X52692Y246380D03*
D13*
X59055Y246380D03*
D14*
X150190Y246380D03*
D69*
X269558Y246380D03*
D11*
X292405Y246380D03*
X317830Y246380D03*
X343205Y246380D03*
D30*
X368935Y246380D03*
D11*
X394665Y246380D03*
D12*
X420053Y246380D03*
D11*
X445465Y246380D03*
X470865Y246380D03*
D25*
X514363Y246380D03*
D20*
X52692Y247015D03*
D13*
X59055Y247015D03*
D14*
X150190Y247015D03*
D20*
X269888Y247015D03*
D57*
X368935Y247015D03*
D25*
X514363Y247015D03*
D20*
X52692Y247650D03*
D13*
X59055Y247650D03*
D14*
X150190Y247650D03*
D11*
X270205Y247650D03*
D25*
X514363Y247650D03*
D20*
X52692Y248285D03*
D13*
X59055Y248285D03*
D14*
X150190Y248285D03*
D31*
X270523Y248285D03*
D25*
X514363Y248285D03*
D20*
X52692Y248920D03*
D13*
X59055Y248920D03*
D14*
X150190Y248920D03*
D59*
X270828Y248920D03*
D25*
X514363Y248920D03*
D62*
X271158Y249555D03*
D25*
X514363Y249555D03*
M02*
