%
M48
M72
T01C0.0138
T02C0.0197
T03C0.0236
T04C0.0350
T05C0.0380
T06C0.0394
T07C0.0400
T08C0.0591
T09C0.1102
%
T01
X7440Y7680
X9690Y5930
X10940Y6430
X16690Y7680
X17190Y7430
X17690Y7680
X17190Y8180
X16690Y8680
X17190Y8930
X17690Y8680
T02
X10440Y12430
X9940Y12430
X9440Y12430
T03
X11190Y10930
X12940Y11930
X14060Y13780
X14190Y15430
X14050Y16050
X14120Y16850
X15940Y16930
X15940Y17430
X15940Y17930
X16936Y17446
X18000Y17740
X18190Y16180
X19940Y17430
X21440Y17930
X20440Y18930
X16440Y18930
X15920Y19270
X14090Y18700
X11940Y16680
X11940Y15930
X9940Y15680
X7940Y15680
X9940Y18430
X9090Y19660
X15940Y13930
X16190Y14930
X17190Y14430
X17750Y14490
X17460Y13670
X19970Y10720
X19280Y10360
X19440Y9590
X19190Y8930
X16440Y10180
X14440Y8430
X14190Y9180
X14690Y7680
X15190Y6680
X14940Y5930
X15940Y5930
X13380Y5280
X12770Y4960
X10440Y6930
X9190Y9180
X7440Y5180
X18440Y6180
T04
X18190Y13180
X19190Y13180
X8190Y20180
X7190Y20180
X6190Y20180
T05
X11940Y9930
X11940Y8930
X11940Y7930
X11940Y6930
X11940Y5930
X11940Y4930
X12190Y2680
X11190Y2680
X10190Y2680
X9190Y2680
X8190Y2680
X7190Y2680
X6190Y2680
X5190Y2680
X5190Y4180
X5190Y5180
X5190Y6180
X5190Y7180
X5190Y8180
X5190Y9180
X13190Y2680
X14190Y2680
X15190Y2680
X16190Y2680
X17190Y2680
X18190Y2680
X19190Y2680
X20190Y2680
T06
X6788Y12448
X5607Y10479
X4308Y12448
T07
X8690Y13930
X9690Y13930
T08
X5811Y14173
X5811Y15236
X5811Y16181
X5811Y17126
X5811Y18189
X3843Y18149
X2859Y18149
X3843Y16181
X3843Y14212
X2859Y14212
T09
X3576Y3066
X21995Y3066
X22080Y19830
X3576Y19830
M30
