G75*
%MOIN*%
%OFA0B0*%
%FSLAX25Y25*%
%IPPOS*%
%LPD*%
%AMOC8*
5,1,8,0,0,1.08239X$1,22.5*
%
%ADD10C,0.00000*%
D10*
X0034400Y0016800D02*
X0221900Y0016800D01*
X0214439Y0030658D02*
X0214441Y0030806D01*
X0214447Y0030954D01*
X0214457Y0031102D01*
X0214471Y0031249D01*
X0214489Y0031396D01*
X0214510Y0031542D01*
X0214536Y0031688D01*
X0214566Y0031833D01*
X0214599Y0031977D01*
X0214637Y0032120D01*
X0214678Y0032262D01*
X0214723Y0032403D01*
X0214771Y0032543D01*
X0214824Y0032682D01*
X0214880Y0032819D01*
X0214940Y0032954D01*
X0215003Y0033088D01*
X0215070Y0033220D01*
X0215141Y0033350D01*
X0215215Y0033478D01*
X0215292Y0033604D01*
X0215373Y0033728D01*
X0215457Y0033850D01*
X0215544Y0033969D01*
X0215635Y0034086D01*
X0215729Y0034201D01*
X0215825Y0034313D01*
X0215925Y0034423D01*
X0216027Y0034529D01*
X0216133Y0034633D01*
X0216241Y0034734D01*
X0216352Y0034832D01*
X0216465Y0034928D01*
X0216581Y0035020D01*
X0216699Y0035109D01*
X0216820Y0035194D01*
X0216943Y0035277D01*
X0217068Y0035356D01*
X0217195Y0035432D01*
X0217324Y0035504D01*
X0217455Y0035573D01*
X0217588Y0035638D01*
X0217723Y0035699D01*
X0217859Y0035757D01*
X0217996Y0035812D01*
X0218135Y0035862D01*
X0218276Y0035909D01*
X0218417Y0035952D01*
X0218560Y0035992D01*
X0218704Y0036027D01*
X0218848Y0036059D01*
X0218994Y0036086D01*
X0219140Y0036110D01*
X0219287Y0036130D01*
X0219434Y0036146D01*
X0219581Y0036158D01*
X0219729Y0036166D01*
X0219877Y0036170D01*
X0220025Y0036170D01*
X0220173Y0036166D01*
X0220321Y0036158D01*
X0220468Y0036146D01*
X0220615Y0036130D01*
X0220762Y0036110D01*
X0220908Y0036086D01*
X0221054Y0036059D01*
X0221198Y0036027D01*
X0221342Y0035992D01*
X0221485Y0035952D01*
X0221626Y0035909D01*
X0221767Y0035862D01*
X0221906Y0035812D01*
X0222043Y0035757D01*
X0222179Y0035699D01*
X0222314Y0035638D01*
X0222447Y0035573D01*
X0222578Y0035504D01*
X0222707Y0035432D01*
X0222834Y0035356D01*
X0222959Y0035277D01*
X0223082Y0035194D01*
X0223203Y0035109D01*
X0223321Y0035020D01*
X0223437Y0034928D01*
X0223550Y0034832D01*
X0223661Y0034734D01*
X0223769Y0034633D01*
X0223875Y0034529D01*
X0223977Y0034423D01*
X0224077Y0034313D01*
X0224173Y0034201D01*
X0224267Y0034086D01*
X0224358Y0033969D01*
X0224445Y0033850D01*
X0224529Y0033728D01*
X0224610Y0033604D01*
X0224687Y0033478D01*
X0224761Y0033350D01*
X0224832Y0033220D01*
X0224899Y0033088D01*
X0224962Y0032954D01*
X0225022Y0032819D01*
X0225078Y0032682D01*
X0225131Y0032543D01*
X0225179Y0032403D01*
X0225224Y0032262D01*
X0225265Y0032120D01*
X0225303Y0031977D01*
X0225336Y0031833D01*
X0225366Y0031688D01*
X0225392Y0031542D01*
X0225413Y0031396D01*
X0225431Y0031249D01*
X0225445Y0031102D01*
X0225455Y0030954D01*
X0225461Y0030806D01*
X0225463Y0030658D01*
X0225461Y0030510D01*
X0225455Y0030362D01*
X0225445Y0030214D01*
X0225431Y0030067D01*
X0225413Y0029920D01*
X0225392Y0029774D01*
X0225366Y0029628D01*
X0225336Y0029483D01*
X0225303Y0029339D01*
X0225265Y0029196D01*
X0225224Y0029054D01*
X0225179Y0028913D01*
X0225131Y0028773D01*
X0225078Y0028634D01*
X0225022Y0028497D01*
X0224962Y0028362D01*
X0224899Y0028228D01*
X0224832Y0028096D01*
X0224761Y0027966D01*
X0224687Y0027838D01*
X0224610Y0027712D01*
X0224529Y0027588D01*
X0224445Y0027466D01*
X0224358Y0027347D01*
X0224267Y0027230D01*
X0224173Y0027115D01*
X0224077Y0027003D01*
X0223977Y0026893D01*
X0223875Y0026787D01*
X0223769Y0026683D01*
X0223661Y0026582D01*
X0223550Y0026484D01*
X0223437Y0026388D01*
X0223321Y0026296D01*
X0223203Y0026207D01*
X0223082Y0026122D01*
X0222959Y0026039D01*
X0222834Y0025960D01*
X0222707Y0025884D01*
X0222578Y0025812D01*
X0222447Y0025743D01*
X0222314Y0025678D01*
X0222179Y0025617D01*
X0222043Y0025559D01*
X0221906Y0025504D01*
X0221767Y0025454D01*
X0221626Y0025407D01*
X0221485Y0025364D01*
X0221342Y0025324D01*
X0221198Y0025289D01*
X0221054Y0025257D01*
X0220908Y0025230D01*
X0220762Y0025206D01*
X0220615Y0025186D01*
X0220468Y0025170D01*
X0220321Y0025158D01*
X0220173Y0025150D01*
X0220025Y0025146D01*
X0219877Y0025146D01*
X0219729Y0025150D01*
X0219581Y0025158D01*
X0219434Y0025170D01*
X0219287Y0025186D01*
X0219140Y0025206D01*
X0218994Y0025230D01*
X0218848Y0025257D01*
X0218704Y0025289D01*
X0218560Y0025324D01*
X0218417Y0025364D01*
X0218276Y0025407D01*
X0218135Y0025454D01*
X0217996Y0025504D01*
X0217859Y0025559D01*
X0217723Y0025617D01*
X0217588Y0025678D01*
X0217455Y0025743D01*
X0217324Y0025812D01*
X0217195Y0025884D01*
X0217068Y0025960D01*
X0216943Y0026039D01*
X0216820Y0026122D01*
X0216699Y0026207D01*
X0216581Y0026296D01*
X0216465Y0026388D01*
X0216352Y0026484D01*
X0216241Y0026582D01*
X0216133Y0026683D01*
X0216027Y0026787D01*
X0215925Y0026893D01*
X0215825Y0027003D01*
X0215729Y0027115D01*
X0215635Y0027230D01*
X0215544Y0027347D01*
X0215457Y0027466D01*
X0215373Y0027588D01*
X0215292Y0027712D01*
X0215215Y0027838D01*
X0215141Y0027966D01*
X0215070Y0028096D01*
X0215003Y0028228D01*
X0214940Y0028362D01*
X0214880Y0028497D01*
X0214824Y0028634D01*
X0214771Y0028773D01*
X0214723Y0028913D01*
X0214678Y0029054D01*
X0214637Y0029196D01*
X0214599Y0029339D01*
X0214566Y0029483D01*
X0214536Y0029628D01*
X0214510Y0029774D01*
X0214489Y0029920D01*
X0214471Y0030067D01*
X0214457Y0030214D01*
X0214447Y0030362D01*
X0214441Y0030510D01*
X0214439Y0030658D01*
X0221900Y0016800D02*
X0222282Y0016960D01*
X0222660Y0017129D01*
X0223034Y0017307D01*
X0223403Y0017495D01*
X0223768Y0017691D01*
X0224127Y0017896D01*
X0224482Y0018111D01*
X0224831Y0018333D01*
X0225175Y0018565D01*
X0225513Y0018804D01*
X0225844Y0019052D01*
X0226170Y0019308D01*
X0226489Y0019571D01*
X0226802Y0019843D01*
X0227108Y0020122D01*
X0227407Y0020409D01*
X0227699Y0020702D01*
X0227984Y0021003D01*
X0228261Y0021311D01*
X0228531Y0021625D01*
X0228793Y0021946D01*
X0229046Y0022273D01*
X0229292Y0022607D01*
X0229530Y0022946D01*
X0229759Y0023291D01*
X0229979Y0023642D01*
X0230191Y0023997D01*
X0230394Y0024358D01*
X0230589Y0024724D01*
X0230774Y0025095D01*
X0230950Y0025469D01*
X0231117Y0025848D01*
X0231274Y0026232D01*
X0231422Y0026618D01*
X0231561Y0027009D01*
X0231690Y0027402D01*
X0231809Y0027799D01*
X0231919Y0028198D01*
X0232018Y0028600D01*
X0232108Y0029005D01*
X0232188Y0029411D01*
X0232258Y0029819D01*
X0232318Y0030229D01*
X0232367Y0030640D01*
X0232407Y0031052D01*
X0232436Y0031466D01*
X0232456Y0031879D01*
X0232465Y0032293D01*
X0232464Y0032707D01*
X0232453Y0033122D01*
X0232432Y0033535D01*
X0232401Y0033948D01*
X0232359Y0034360D01*
X0232308Y0034771D01*
X0232246Y0035181D01*
X0232175Y0035589D01*
X0232093Y0035995D01*
X0232001Y0036399D01*
X0231900Y0036800D01*
X0231900Y0046800D01*
X0211900Y0046800D01*
X0211900Y0116800D01*
X0231900Y0116800D01*
X0231900Y0199300D01*
X0221900Y0209300D02*
X0034400Y0209300D01*
X0024400Y0199300D02*
X0024400Y0034300D01*
X0030246Y0030658D02*
X0030248Y0030806D01*
X0030254Y0030954D01*
X0030264Y0031102D01*
X0030278Y0031249D01*
X0030296Y0031396D01*
X0030317Y0031542D01*
X0030343Y0031688D01*
X0030373Y0031833D01*
X0030406Y0031977D01*
X0030444Y0032120D01*
X0030485Y0032262D01*
X0030530Y0032403D01*
X0030578Y0032543D01*
X0030631Y0032682D01*
X0030687Y0032819D01*
X0030747Y0032954D01*
X0030810Y0033088D01*
X0030877Y0033220D01*
X0030948Y0033350D01*
X0031022Y0033478D01*
X0031099Y0033604D01*
X0031180Y0033728D01*
X0031264Y0033850D01*
X0031351Y0033969D01*
X0031442Y0034086D01*
X0031536Y0034201D01*
X0031632Y0034313D01*
X0031732Y0034423D01*
X0031834Y0034529D01*
X0031940Y0034633D01*
X0032048Y0034734D01*
X0032159Y0034832D01*
X0032272Y0034928D01*
X0032388Y0035020D01*
X0032506Y0035109D01*
X0032627Y0035194D01*
X0032750Y0035277D01*
X0032875Y0035356D01*
X0033002Y0035432D01*
X0033131Y0035504D01*
X0033262Y0035573D01*
X0033395Y0035638D01*
X0033530Y0035699D01*
X0033666Y0035757D01*
X0033803Y0035812D01*
X0033942Y0035862D01*
X0034083Y0035909D01*
X0034224Y0035952D01*
X0034367Y0035992D01*
X0034511Y0036027D01*
X0034655Y0036059D01*
X0034801Y0036086D01*
X0034947Y0036110D01*
X0035094Y0036130D01*
X0035241Y0036146D01*
X0035388Y0036158D01*
X0035536Y0036166D01*
X0035684Y0036170D01*
X0035832Y0036170D01*
X0035980Y0036166D01*
X0036128Y0036158D01*
X0036275Y0036146D01*
X0036422Y0036130D01*
X0036569Y0036110D01*
X0036715Y0036086D01*
X0036861Y0036059D01*
X0037005Y0036027D01*
X0037149Y0035992D01*
X0037292Y0035952D01*
X0037433Y0035909D01*
X0037574Y0035862D01*
X0037713Y0035812D01*
X0037850Y0035757D01*
X0037986Y0035699D01*
X0038121Y0035638D01*
X0038254Y0035573D01*
X0038385Y0035504D01*
X0038514Y0035432D01*
X0038641Y0035356D01*
X0038766Y0035277D01*
X0038889Y0035194D01*
X0039010Y0035109D01*
X0039128Y0035020D01*
X0039244Y0034928D01*
X0039357Y0034832D01*
X0039468Y0034734D01*
X0039576Y0034633D01*
X0039682Y0034529D01*
X0039784Y0034423D01*
X0039884Y0034313D01*
X0039980Y0034201D01*
X0040074Y0034086D01*
X0040165Y0033969D01*
X0040252Y0033850D01*
X0040336Y0033728D01*
X0040417Y0033604D01*
X0040494Y0033478D01*
X0040568Y0033350D01*
X0040639Y0033220D01*
X0040706Y0033088D01*
X0040769Y0032954D01*
X0040829Y0032819D01*
X0040885Y0032682D01*
X0040938Y0032543D01*
X0040986Y0032403D01*
X0041031Y0032262D01*
X0041072Y0032120D01*
X0041110Y0031977D01*
X0041143Y0031833D01*
X0041173Y0031688D01*
X0041199Y0031542D01*
X0041220Y0031396D01*
X0041238Y0031249D01*
X0041252Y0031102D01*
X0041262Y0030954D01*
X0041268Y0030806D01*
X0041270Y0030658D01*
X0041268Y0030510D01*
X0041262Y0030362D01*
X0041252Y0030214D01*
X0041238Y0030067D01*
X0041220Y0029920D01*
X0041199Y0029774D01*
X0041173Y0029628D01*
X0041143Y0029483D01*
X0041110Y0029339D01*
X0041072Y0029196D01*
X0041031Y0029054D01*
X0040986Y0028913D01*
X0040938Y0028773D01*
X0040885Y0028634D01*
X0040829Y0028497D01*
X0040769Y0028362D01*
X0040706Y0028228D01*
X0040639Y0028096D01*
X0040568Y0027966D01*
X0040494Y0027838D01*
X0040417Y0027712D01*
X0040336Y0027588D01*
X0040252Y0027466D01*
X0040165Y0027347D01*
X0040074Y0027230D01*
X0039980Y0027115D01*
X0039884Y0027003D01*
X0039784Y0026893D01*
X0039682Y0026787D01*
X0039576Y0026683D01*
X0039468Y0026582D01*
X0039357Y0026484D01*
X0039244Y0026388D01*
X0039128Y0026296D01*
X0039010Y0026207D01*
X0038889Y0026122D01*
X0038766Y0026039D01*
X0038641Y0025960D01*
X0038514Y0025884D01*
X0038385Y0025812D01*
X0038254Y0025743D01*
X0038121Y0025678D01*
X0037986Y0025617D01*
X0037850Y0025559D01*
X0037713Y0025504D01*
X0037574Y0025454D01*
X0037433Y0025407D01*
X0037292Y0025364D01*
X0037149Y0025324D01*
X0037005Y0025289D01*
X0036861Y0025257D01*
X0036715Y0025230D01*
X0036569Y0025206D01*
X0036422Y0025186D01*
X0036275Y0025170D01*
X0036128Y0025158D01*
X0035980Y0025150D01*
X0035832Y0025146D01*
X0035684Y0025146D01*
X0035536Y0025150D01*
X0035388Y0025158D01*
X0035241Y0025170D01*
X0035094Y0025186D01*
X0034947Y0025206D01*
X0034801Y0025230D01*
X0034655Y0025257D01*
X0034511Y0025289D01*
X0034367Y0025324D01*
X0034224Y0025364D01*
X0034083Y0025407D01*
X0033942Y0025454D01*
X0033803Y0025504D01*
X0033666Y0025559D01*
X0033530Y0025617D01*
X0033395Y0025678D01*
X0033262Y0025743D01*
X0033131Y0025812D01*
X0033002Y0025884D01*
X0032875Y0025960D01*
X0032750Y0026039D01*
X0032627Y0026122D01*
X0032506Y0026207D01*
X0032388Y0026296D01*
X0032272Y0026388D01*
X0032159Y0026484D01*
X0032048Y0026582D01*
X0031940Y0026683D01*
X0031834Y0026787D01*
X0031732Y0026893D01*
X0031632Y0027003D01*
X0031536Y0027115D01*
X0031442Y0027230D01*
X0031351Y0027347D01*
X0031264Y0027466D01*
X0031180Y0027588D01*
X0031099Y0027712D01*
X0031022Y0027838D01*
X0030948Y0027966D01*
X0030877Y0028096D01*
X0030810Y0028228D01*
X0030747Y0028362D01*
X0030687Y0028497D01*
X0030631Y0028634D01*
X0030578Y0028773D01*
X0030530Y0028913D01*
X0030485Y0029054D01*
X0030444Y0029196D01*
X0030406Y0029339D01*
X0030373Y0029483D01*
X0030343Y0029628D01*
X0030317Y0029774D01*
X0030296Y0029920D01*
X0030278Y0030067D01*
X0030264Y0030214D01*
X0030254Y0030362D01*
X0030248Y0030510D01*
X0030246Y0030658D01*
X0024400Y0034300D02*
X0024329Y0033934D01*
X0024267Y0033566D01*
X0024214Y0033196D01*
X0024169Y0032825D01*
X0024135Y0032454D01*
X0024109Y0032081D01*
X0024092Y0031708D01*
X0024084Y0031335D01*
X0024086Y0030962D01*
X0024097Y0030589D01*
X0024117Y0030216D01*
X0024146Y0029844D01*
X0024184Y0029472D01*
X0024231Y0029102D01*
X0024287Y0028733D01*
X0024353Y0028365D01*
X0024427Y0027999D01*
X0024510Y0027636D01*
X0024603Y0027274D01*
X0024704Y0026914D01*
X0024813Y0026558D01*
X0024932Y0026204D01*
X0025059Y0025853D01*
X0025195Y0025505D01*
X0025339Y0025160D01*
X0025492Y0024820D01*
X0025652Y0024483D01*
X0025822Y0024150D01*
X0025999Y0023821D01*
X0026184Y0023497D01*
X0026377Y0023178D01*
X0026578Y0022863D01*
X0026787Y0022553D01*
X0027003Y0022249D01*
X0027226Y0021950D01*
X0027457Y0021657D01*
X0027695Y0021369D01*
X0027939Y0021087D01*
X0028191Y0020811D01*
X0028449Y0020542D01*
X0028714Y0020279D01*
X0028986Y0020022D01*
X0029263Y0019772D01*
X0029547Y0019529D01*
X0029836Y0019294D01*
X0030131Y0019065D01*
X0030432Y0018843D01*
X0030737Y0018630D01*
X0031049Y0018423D01*
X0031365Y0018224D01*
X0031685Y0018033D01*
X0032011Y0017850D01*
X0032341Y0017676D01*
X0032675Y0017509D01*
X0033012Y0017350D01*
X0033354Y0017200D01*
X0033700Y0017058D01*
X0034048Y0016925D01*
X0034400Y0016800D01*
X0051743Y0102824D02*
X0060404Y0102824D01*
X0062373Y0104792D02*
X0062371Y0104878D01*
X0062366Y0104964D01*
X0062356Y0105049D01*
X0062343Y0105134D01*
X0062326Y0105218D01*
X0062306Y0105302D01*
X0062282Y0105384D01*
X0062254Y0105465D01*
X0062223Y0105546D01*
X0062189Y0105624D01*
X0062151Y0105701D01*
X0062109Y0105777D01*
X0062065Y0105850D01*
X0062017Y0105921D01*
X0061966Y0105991D01*
X0061912Y0106058D01*
X0061856Y0106122D01*
X0061796Y0106184D01*
X0061734Y0106244D01*
X0061670Y0106300D01*
X0061603Y0106354D01*
X0061533Y0106405D01*
X0061462Y0106453D01*
X0061389Y0106497D01*
X0061313Y0106539D01*
X0061236Y0106577D01*
X0061158Y0106611D01*
X0061077Y0106642D01*
X0060996Y0106670D01*
X0060914Y0106694D01*
X0060830Y0106714D01*
X0060746Y0106731D01*
X0060661Y0106744D01*
X0060576Y0106754D01*
X0060490Y0106759D01*
X0060404Y0106761D01*
X0051743Y0106761D01*
X0051657Y0106759D01*
X0051571Y0106754D01*
X0051486Y0106744D01*
X0051401Y0106731D01*
X0051317Y0106714D01*
X0051233Y0106694D01*
X0051151Y0106670D01*
X0051070Y0106642D01*
X0050989Y0106611D01*
X0050911Y0106577D01*
X0050834Y0106539D01*
X0050759Y0106497D01*
X0050685Y0106453D01*
X0050614Y0106405D01*
X0050544Y0106354D01*
X0050477Y0106300D01*
X0050413Y0106244D01*
X0050351Y0106184D01*
X0050291Y0106122D01*
X0050235Y0106058D01*
X0050181Y0105991D01*
X0050130Y0105921D01*
X0050082Y0105850D01*
X0050038Y0105777D01*
X0049996Y0105701D01*
X0049958Y0105624D01*
X0049924Y0105546D01*
X0049893Y0105465D01*
X0049865Y0105384D01*
X0049841Y0105302D01*
X0049821Y0105218D01*
X0049804Y0105134D01*
X0049791Y0105049D01*
X0049781Y0104964D01*
X0049776Y0104878D01*
X0049774Y0104792D01*
X0049776Y0104706D01*
X0049781Y0104620D01*
X0049791Y0104535D01*
X0049804Y0104450D01*
X0049821Y0104366D01*
X0049841Y0104282D01*
X0049865Y0104200D01*
X0049893Y0104119D01*
X0049924Y0104038D01*
X0049958Y0103960D01*
X0049996Y0103883D01*
X0050038Y0103808D01*
X0050082Y0103734D01*
X0050130Y0103663D01*
X0050181Y0103593D01*
X0050235Y0103526D01*
X0050291Y0103462D01*
X0050351Y0103400D01*
X0050413Y0103340D01*
X0050477Y0103284D01*
X0050544Y0103230D01*
X0050614Y0103179D01*
X0050685Y0103131D01*
X0050759Y0103087D01*
X0050834Y0103045D01*
X0050911Y0103007D01*
X0050989Y0102973D01*
X0051070Y0102942D01*
X0051151Y0102914D01*
X0051233Y0102890D01*
X0051317Y0102870D01*
X0051401Y0102853D01*
X0051486Y0102840D01*
X0051571Y0102830D01*
X0051657Y0102825D01*
X0051743Y0102823D01*
X0060404Y0102823D02*
X0060490Y0102825D01*
X0060576Y0102830D01*
X0060661Y0102840D01*
X0060746Y0102853D01*
X0060830Y0102870D01*
X0060914Y0102890D01*
X0060996Y0102914D01*
X0061077Y0102942D01*
X0061158Y0102973D01*
X0061236Y0103007D01*
X0061313Y0103045D01*
X0061389Y0103087D01*
X0061462Y0103131D01*
X0061533Y0103179D01*
X0061603Y0103230D01*
X0061670Y0103284D01*
X0061734Y0103340D01*
X0061796Y0103400D01*
X0061856Y0103462D01*
X0061912Y0103526D01*
X0061966Y0103593D01*
X0062017Y0103663D01*
X0062065Y0103734D01*
X0062109Y0103808D01*
X0062151Y0103883D01*
X0062189Y0103960D01*
X0062223Y0104038D01*
X0062254Y0104119D01*
X0062282Y0104200D01*
X0062306Y0104282D01*
X0062326Y0104366D01*
X0062343Y0104450D01*
X0062356Y0104535D01*
X0062366Y0104620D01*
X0062371Y0104706D01*
X0062373Y0104792D01*
X0067884Y0118178D02*
X0067884Y0130776D01*
X0067884Y0130777D02*
X0067798Y0130775D01*
X0067712Y0130770D01*
X0067627Y0130760D01*
X0067542Y0130747D01*
X0067458Y0130730D01*
X0067374Y0130710D01*
X0067292Y0130686D01*
X0067211Y0130658D01*
X0067130Y0130627D01*
X0067052Y0130593D01*
X0066975Y0130555D01*
X0066900Y0130513D01*
X0066826Y0130469D01*
X0066755Y0130421D01*
X0066685Y0130370D01*
X0066618Y0130316D01*
X0066554Y0130260D01*
X0066492Y0130200D01*
X0066432Y0130138D01*
X0066376Y0130074D01*
X0066322Y0130007D01*
X0066271Y0129937D01*
X0066223Y0129866D01*
X0066179Y0129793D01*
X0066137Y0129717D01*
X0066099Y0129640D01*
X0066065Y0129562D01*
X0066034Y0129481D01*
X0066006Y0129400D01*
X0065982Y0129318D01*
X0065962Y0129234D01*
X0065945Y0129150D01*
X0065932Y0129065D01*
X0065922Y0128980D01*
X0065917Y0128894D01*
X0065915Y0128808D01*
X0065916Y0128808D02*
X0065916Y0120146D01*
X0065915Y0120146D02*
X0065917Y0120060D01*
X0065922Y0119974D01*
X0065932Y0119889D01*
X0065945Y0119804D01*
X0065962Y0119720D01*
X0065982Y0119636D01*
X0066006Y0119554D01*
X0066034Y0119473D01*
X0066065Y0119392D01*
X0066099Y0119314D01*
X0066137Y0119237D01*
X0066179Y0119162D01*
X0066223Y0119088D01*
X0066271Y0119017D01*
X0066322Y0118947D01*
X0066376Y0118880D01*
X0066432Y0118816D01*
X0066492Y0118754D01*
X0066554Y0118694D01*
X0066618Y0118638D01*
X0066685Y0118584D01*
X0066755Y0118533D01*
X0066826Y0118485D01*
X0066900Y0118441D01*
X0066975Y0118399D01*
X0067052Y0118361D01*
X0067130Y0118327D01*
X0067211Y0118296D01*
X0067292Y0118268D01*
X0067374Y0118244D01*
X0067458Y0118224D01*
X0067542Y0118207D01*
X0067627Y0118194D01*
X0067712Y0118184D01*
X0067798Y0118179D01*
X0067884Y0118177D01*
X0067970Y0118179D01*
X0068056Y0118184D01*
X0068141Y0118194D01*
X0068226Y0118207D01*
X0068310Y0118224D01*
X0068394Y0118244D01*
X0068476Y0118268D01*
X0068557Y0118296D01*
X0068638Y0118327D01*
X0068716Y0118361D01*
X0068793Y0118399D01*
X0068869Y0118441D01*
X0068942Y0118485D01*
X0069013Y0118533D01*
X0069083Y0118584D01*
X0069150Y0118638D01*
X0069214Y0118694D01*
X0069276Y0118754D01*
X0069336Y0118816D01*
X0069392Y0118880D01*
X0069446Y0118947D01*
X0069497Y0119017D01*
X0069545Y0119088D01*
X0069589Y0119162D01*
X0069631Y0119237D01*
X0069669Y0119314D01*
X0069703Y0119392D01*
X0069734Y0119473D01*
X0069762Y0119554D01*
X0069786Y0119636D01*
X0069806Y0119720D01*
X0069823Y0119804D01*
X0069836Y0119889D01*
X0069846Y0119974D01*
X0069851Y0120060D01*
X0069853Y0120146D01*
X0069853Y0128808D01*
X0069851Y0128894D01*
X0069846Y0128980D01*
X0069836Y0129065D01*
X0069823Y0129150D01*
X0069806Y0129234D01*
X0069786Y0129318D01*
X0069762Y0129400D01*
X0069734Y0129481D01*
X0069703Y0129562D01*
X0069669Y0129640D01*
X0069631Y0129717D01*
X0069589Y0129793D01*
X0069545Y0129866D01*
X0069497Y0129937D01*
X0069446Y0130007D01*
X0069392Y0130074D01*
X0069336Y0130138D01*
X0069276Y0130200D01*
X0069214Y0130260D01*
X0069150Y0130316D01*
X0069083Y0130370D01*
X0069013Y0130421D01*
X0068942Y0130469D01*
X0068869Y0130513D01*
X0068793Y0130555D01*
X0068716Y0130593D01*
X0068638Y0130627D01*
X0068557Y0130658D01*
X0068476Y0130686D01*
X0068394Y0130710D01*
X0068310Y0130730D01*
X0068226Y0130747D01*
X0068141Y0130760D01*
X0068056Y0130770D01*
X0067970Y0130775D01*
X0067884Y0130777D01*
X0045050Y0128808D02*
X0045050Y0120146D01*
X0043081Y0118177D02*
X0042995Y0118179D01*
X0042909Y0118184D01*
X0042824Y0118194D01*
X0042739Y0118207D01*
X0042655Y0118224D01*
X0042571Y0118244D01*
X0042489Y0118268D01*
X0042408Y0118296D01*
X0042327Y0118327D01*
X0042249Y0118361D01*
X0042172Y0118399D01*
X0042097Y0118441D01*
X0042023Y0118485D01*
X0041952Y0118533D01*
X0041882Y0118584D01*
X0041815Y0118638D01*
X0041751Y0118694D01*
X0041689Y0118754D01*
X0041629Y0118816D01*
X0041573Y0118880D01*
X0041519Y0118947D01*
X0041468Y0119017D01*
X0041420Y0119088D01*
X0041376Y0119162D01*
X0041334Y0119237D01*
X0041296Y0119314D01*
X0041262Y0119392D01*
X0041231Y0119473D01*
X0041203Y0119554D01*
X0041179Y0119636D01*
X0041159Y0119720D01*
X0041142Y0119804D01*
X0041129Y0119889D01*
X0041119Y0119974D01*
X0041114Y0120060D01*
X0041112Y0120146D01*
X0041113Y0120146D02*
X0041113Y0128808D01*
X0041112Y0128808D02*
X0041114Y0128894D01*
X0041119Y0128980D01*
X0041129Y0129065D01*
X0041142Y0129150D01*
X0041159Y0129234D01*
X0041179Y0129318D01*
X0041203Y0129400D01*
X0041231Y0129481D01*
X0041262Y0129562D01*
X0041296Y0129640D01*
X0041334Y0129717D01*
X0041376Y0129793D01*
X0041420Y0129866D01*
X0041468Y0129937D01*
X0041519Y0130007D01*
X0041573Y0130074D01*
X0041629Y0130138D01*
X0041689Y0130200D01*
X0041751Y0130260D01*
X0041815Y0130316D01*
X0041882Y0130370D01*
X0041952Y0130421D01*
X0042023Y0130469D01*
X0042097Y0130513D01*
X0042172Y0130555D01*
X0042249Y0130593D01*
X0042327Y0130627D01*
X0042408Y0130658D01*
X0042489Y0130686D01*
X0042571Y0130710D01*
X0042655Y0130730D01*
X0042739Y0130747D01*
X0042824Y0130760D01*
X0042909Y0130770D01*
X0042995Y0130775D01*
X0043081Y0130777D01*
X0043167Y0130775D01*
X0043253Y0130770D01*
X0043338Y0130760D01*
X0043423Y0130747D01*
X0043507Y0130730D01*
X0043591Y0130710D01*
X0043673Y0130686D01*
X0043754Y0130658D01*
X0043835Y0130627D01*
X0043913Y0130593D01*
X0043990Y0130555D01*
X0044066Y0130513D01*
X0044139Y0130469D01*
X0044210Y0130421D01*
X0044280Y0130370D01*
X0044347Y0130316D01*
X0044411Y0130260D01*
X0044473Y0130200D01*
X0044533Y0130138D01*
X0044589Y0130074D01*
X0044643Y0130007D01*
X0044694Y0129937D01*
X0044742Y0129866D01*
X0044786Y0129793D01*
X0044828Y0129717D01*
X0044866Y0129640D01*
X0044900Y0129562D01*
X0044931Y0129481D01*
X0044959Y0129400D01*
X0044983Y0129318D01*
X0045003Y0129234D01*
X0045020Y0129150D01*
X0045033Y0129065D01*
X0045043Y0128980D01*
X0045048Y0128894D01*
X0045050Y0128808D01*
X0045050Y0120146D02*
X0045048Y0120060D01*
X0045043Y0119974D01*
X0045033Y0119889D01*
X0045020Y0119804D01*
X0045003Y0119720D01*
X0044983Y0119636D01*
X0044959Y0119554D01*
X0044931Y0119473D01*
X0044900Y0119392D01*
X0044866Y0119314D01*
X0044828Y0119237D01*
X0044786Y0119162D01*
X0044742Y0119088D01*
X0044694Y0119017D01*
X0044643Y0118947D01*
X0044589Y0118880D01*
X0044533Y0118816D01*
X0044473Y0118754D01*
X0044411Y0118694D01*
X0044347Y0118638D01*
X0044280Y0118584D01*
X0044210Y0118533D01*
X0044139Y0118485D01*
X0044066Y0118441D01*
X0043990Y0118399D01*
X0043913Y0118361D01*
X0043835Y0118327D01*
X0043754Y0118296D01*
X0043673Y0118268D01*
X0043591Y0118244D01*
X0043507Y0118224D01*
X0043423Y0118207D01*
X0043338Y0118194D01*
X0043253Y0118184D01*
X0043167Y0118179D01*
X0043081Y0118177D01*
X0035477Y0142121D02*
X0035479Y0142229D01*
X0035485Y0142338D01*
X0035495Y0142446D01*
X0035509Y0142553D01*
X0035527Y0142660D01*
X0035548Y0142767D01*
X0035574Y0142872D01*
X0035604Y0142977D01*
X0035637Y0143080D01*
X0035674Y0143182D01*
X0035715Y0143282D01*
X0035759Y0143381D01*
X0035808Y0143479D01*
X0035859Y0143574D01*
X0035914Y0143667D01*
X0035973Y0143759D01*
X0036035Y0143848D01*
X0036100Y0143935D01*
X0036168Y0144019D01*
X0036239Y0144101D01*
X0036313Y0144180D01*
X0036390Y0144256D01*
X0036470Y0144330D01*
X0036553Y0144400D01*
X0036638Y0144468D01*
X0036725Y0144532D01*
X0036815Y0144593D01*
X0036907Y0144651D01*
X0037001Y0144705D01*
X0037097Y0144756D01*
X0037194Y0144803D01*
X0037294Y0144847D01*
X0037395Y0144887D01*
X0037497Y0144923D01*
X0037600Y0144955D01*
X0037705Y0144984D01*
X0037811Y0145008D01*
X0037917Y0145029D01*
X0038024Y0145046D01*
X0038132Y0145059D01*
X0038240Y0145068D01*
X0038349Y0145073D01*
X0038457Y0145074D01*
X0038566Y0145071D01*
X0038674Y0145064D01*
X0038782Y0145053D01*
X0038889Y0145038D01*
X0038996Y0145019D01*
X0039102Y0144996D01*
X0039207Y0144970D01*
X0039312Y0144939D01*
X0039414Y0144905D01*
X0039516Y0144867D01*
X0039616Y0144825D01*
X0039715Y0144780D01*
X0039812Y0144731D01*
X0039906Y0144678D01*
X0039999Y0144622D01*
X0040090Y0144563D01*
X0040179Y0144500D01*
X0040265Y0144435D01*
X0040349Y0144366D01*
X0040430Y0144294D01*
X0040508Y0144219D01*
X0040584Y0144141D01*
X0040657Y0144060D01*
X0040727Y0143977D01*
X0040793Y0143892D01*
X0040857Y0143804D01*
X0040917Y0143713D01*
X0040974Y0143621D01*
X0041027Y0143526D01*
X0041077Y0143430D01*
X0041123Y0143332D01*
X0041166Y0143232D01*
X0041205Y0143131D01*
X0041240Y0143028D01*
X0041272Y0142925D01*
X0041299Y0142820D01*
X0041323Y0142714D01*
X0041343Y0142607D01*
X0041359Y0142500D01*
X0041371Y0142392D01*
X0041379Y0142284D01*
X0041383Y0142175D01*
X0041383Y0142067D01*
X0041379Y0141958D01*
X0041371Y0141850D01*
X0041359Y0141742D01*
X0041343Y0141635D01*
X0041323Y0141528D01*
X0041299Y0141422D01*
X0041272Y0141317D01*
X0041240Y0141214D01*
X0041205Y0141111D01*
X0041166Y0141010D01*
X0041123Y0140910D01*
X0041077Y0140812D01*
X0041027Y0140716D01*
X0040974Y0140621D01*
X0040917Y0140529D01*
X0040857Y0140438D01*
X0040793Y0140350D01*
X0040727Y0140265D01*
X0040657Y0140182D01*
X0040584Y0140101D01*
X0040508Y0140023D01*
X0040430Y0139948D01*
X0040349Y0139876D01*
X0040265Y0139807D01*
X0040179Y0139742D01*
X0040090Y0139679D01*
X0039999Y0139620D01*
X0039907Y0139564D01*
X0039812Y0139511D01*
X0039715Y0139462D01*
X0039616Y0139417D01*
X0039516Y0139375D01*
X0039414Y0139337D01*
X0039312Y0139303D01*
X0039207Y0139272D01*
X0039102Y0139246D01*
X0038996Y0139223D01*
X0038889Y0139204D01*
X0038782Y0139189D01*
X0038674Y0139178D01*
X0038566Y0139171D01*
X0038457Y0139168D01*
X0038349Y0139169D01*
X0038240Y0139174D01*
X0038132Y0139183D01*
X0038024Y0139196D01*
X0037917Y0139213D01*
X0037811Y0139234D01*
X0037705Y0139258D01*
X0037600Y0139287D01*
X0037497Y0139319D01*
X0037395Y0139355D01*
X0037294Y0139395D01*
X0037194Y0139439D01*
X0037097Y0139486D01*
X0037001Y0139537D01*
X0036907Y0139591D01*
X0036815Y0139649D01*
X0036725Y0139710D01*
X0036638Y0139774D01*
X0036553Y0139842D01*
X0036470Y0139912D01*
X0036390Y0139986D01*
X0036313Y0140062D01*
X0036239Y0140141D01*
X0036168Y0140223D01*
X0036100Y0140307D01*
X0036035Y0140394D01*
X0035973Y0140483D01*
X0035914Y0140575D01*
X0035859Y0140668D01*
X0035808Y0140763D01*
X0035759Y0140861D01*
X0035715Y0140960D01*
X0035674Y0141060D01*
X0035637Y0141162D01*
X0035604Y0141265D01*
X0035574Y0141370D01*
X0035548Y0141475D01*
X0035527Y0141582D01*
X0035509Y0141689D01*
X0035495Y0141796D01*
X0035485Y0141904D01*
X0035479Y0142013D01*
X0035477Y0142121D01*
X0025634Y0142121D02*
X0025636Y0142229D01*
X0025642Y0142338D01*
X0025652Y0142446D01*
X0025666Y0142553D01*
X0025684Y0142660D01*
X0025705Y0142767D01*
X0025731Y0142872D01*
X0025761Y0142977D01*
X0025794Y0143080D01*
X0025831Y0143182D01*
X0025872Y0143282D01*
X0025916Y0143381D01*
X0025965Y0143479D01*
X0026016Y0143574D01*
X0026071Y0143667D01*
X0026130Y0143759D01*
X0026192Y0143848D01*
X0026257Y0143935D01*
X0026325Y0144019D01*
X0026396Y0144101D01*
X0026470Y0144180D01*
X0026547Y0144256D01*
X0026627Y0144330D01*
X0026710Y0144400D01*
X0026795Y0144468D01*
X0026882Y0144532D01*
X0026972Y0144593D01*
X0027064Y0144651D01*
X0027158Y0144705D01*
X0027254Y0144756D01*
X0027351Y0144803D01*
X0027451Y0144847D01*
X0027552Y0144887D01*
X0027654Y0144923D01*
X0027757Y0144955D01*
X0027862Y0144984D01*
X0027968Y0145008D01*
X0028074Y0145029D01*
X0028181Y0145046D01*
X0028289Y0145059D01*
X0028397Y0145068D01*
X0028506Y0145073D01*
X0028614Y0145074D01*
X0028723Y0145071D01*
X0028831Y0145064D01*
X0028939Y0145053D01*
X0029046Y0145038D01*
X0029153Y0145019D01*
X0029259Y0144996D01*
X0029364Y0144970D01*
X0029469Y0144939D01*
X0029571Y0144905D01*
X0029673Y0144867D01*
X0029773Y0144825D01*
X0029872Y0144780D01*
X0029969Y0144731D01*
X0030063Y0144678D01*
X0030156Y0144622D01*
X0030247Y0144563D01*
X0030336Y0144500D01*
X0030422Y0144435D01*
X0030506Y0144366D01*
X0030587Y0144294D01*
X0030665Y0144219D01*
X0030741Y0144141D01*
X0030814Y0144060D01*
X0030884Y0143977D01*
X0030950Y0143892D01*
X0031014Y0143804D01*
X0031074Y0143713D01*
X0031131Y0143621D01*
X0031184Y0143526D01*
X0031234Y0143430D01*
X0031280Y0143332D01*
X0031323Y0143232D01*
X0031362Y0143131D01*
X0031397Y0143028D01*
X0031429Y0142925D01*
X0031456Y0142820D01*
X0031480Y0142714D01*
X0031500Y0142607D01*
X0031516Y0142500D01*
X0031528Y0142392D01*
X0031536Y0142284D01*
X0031540Y0142175D01*
X0031540Y0142067D01*
X0031536Y0141958D01*
X0031528Y0141850D01*
X0031516Y0141742D01*
X0031500Y0141635D01*
X0031480Y0141528D01*
X0031456Y0141422D01*
X0031429Y0141317D01*
X0031397Y0141214D01*
X0031362Y0141111D01*
X0031323Y0141010D01*
X0031280Y0140910D01*
X0031234Y0140812D01*
X0031184Y0140716D01*
X0031131Y0140621D01*
X0031074Y0140529D01*
X0031014Y0140438D01*
X0030950Y0140350D01*
X0030884Y0140265D01*
X0030814Y0140182D01*
X0030741Y0140101D01*
X0030665Y0140023D01*
X0030587Y0139948D01*
X0030506Y0139876D01*
X0030422Y0139807D01*
X0030336Y0139742D01*
X0030247Y0139679D01*
X0030156Y0139620D01*
X0030064Y0139564D01*
X0029969Y0139511D01*
X0029872Y0139462D01*
X0029773Y0139417D01*
X0029673Y0139375D01*
X0029571Y0139337D01*
X0029469Y0139303D01*
X0029364Y0139272D01*
X0029259Y0139246D01*
X0029153Y0139223D01*
X0029046Y0139204D01*
X0028939Y0139189D01*
X0028831Y0139178D01*
X0028723Y0139171D01*
X0028614Y0139168D01*
X0028506Y0139169D01*
X0028397Y0139174D01*
X0028289Y0139183D01*
X0028181Y0139196D01*
X0028074Y0139213D01*
X0027968Y0139234D01*
X0027862Y0139258D01*
X0027757Y0139287D01*
X0027654Y0139319D01*
X0027552Y0139355D01*
X0027451Y0139395D01*
X0027351Y0139439D01*
X0027254Y0139486D01*
X0027158Y0139537D01*
X0027064Y0139591D01*
X0026972Y0139649D01*
X0026882Y0139710D01*
X0026795Y0139774D01*
X0026710Y0139842D01*
X0026627Y0139912D01*
X0026547Y0139986D01*
X0026470Y0140062D01*
X0026396Y0140141D01*
X0026325Y0140223D01*
X0026257Y0140307D01*
X0026192Y0140394D01*
X0026130Y0140483D01*
X0026071Y0140575D01*
X0026016Y0140668D01*
X0025965Y0140763D01*
X0025916Y0140861D01*
X0025872Y0140960D01*
X0025831Y0141060D01*
X0025794Y0141162D01*
X0025761Y0141265D01*
X0025731Y0141370D01*
X0025705Y0141475D01*
X0025684Y0141582D01*
X0025666Y0141689D01*
X0025652Y0141796D01*
X0025642Y0141904D01*
X0025636Y0142013D01*
X0025634Y0142121D01*
X0055162Y0161806D02*
X0055164Y0161914D01*
X0055170Y0162023D01*
X0055180Y0162131D01*
X0055194Y0162238D01*
X0055212Y0162345D01*
X0055233Y0162452D01*
X0055259Y0162557D01*
X0055289Y0162662D01*
X0055322Y0162765D01*
X0055359Y0162867D01*
X0055400Y0162967D01*
X0055444Y0163066D01*
X0055493Y0163164D01*
X0055544Y0163259D01*
X0055599Y0163352D01*
X0055658Y0163444D01*
X0055720Y0163533D01*
X0055785Y0163620D01*
X0055853Y0163704D01*
X0055924Y0163786D01*
X0055998Y0163865D01*
X0056075Y0163941D01*
X0056155Y0164015D01*
X0056238Y0164085D01*
X0056323Y0164153D01*
X0056410Y0164217D01*
X0056500Y0164278D01*
X0056592Y0164336D01*
X0056686Y0164390D01*
X0056782Y0164441D01*
X0056879Y0164488D01*
X0056979Y0164532D01*
X0057080Y0164572D01*
X0057182Y0164608D01*
X0057285Y0164640D01*
X0057390Y0164669D01*
X0057496Y0164693D01*
X0057602Y0164714D01*
X0057709Y0164731D01*
X0057817Y0164744D01*
X0057925Y0164753D01*
X0058034Y0164758D01*
X0058142Y0164759D01*
X0058251Y0164756D01*
X0058359Y0164749D01*
X0058467Y0164738D01*
X0058574Y0164723D01*
X0058681Y0164704D01*
X0058787Y0164681D01*
X0058892Y0164655D01*
X0058997Y0164624D01*
X0059099Y0164590D01*
X0059201Y0164552D01*
X0059301Y0164510D01*
X0059400Y0164465D01*
X0059497Y0164416D01*
X0059591Y0164363D01*
X0059684Y0164307D01*
X0059775Y0164248D01*
X0059864Y0164185D01*
X0059950Y0164120D01*
X0060034Y0164051D01*
X0060115Y0163979D01*
X0060193Y0163904D01*
X0060269Y0163826D01*
X0060342Y0163745D01*
X0060412Y0163662D01*
X0060478Y0163577D01*
X0060542Y0163489D01*
X0060602Y0163398D01*
X0060659Y0163306D01*
X0060712Y0163211D01*
X0060762Y0163115D01*
X0060808Y0163017D01*
X0060851Y0162917D01*
X0060890Y0162816D01*
X0060925Y0162713D01*
X0060957Y0162610D01*
X0060984Y0162505D01*
X0061008Y0162399D01*
X0061028Y0162292D01*
X0061044Y0162185D01*
X0061056Y0162077D01*
X0061064Y0161969D01*
X0061068Y0161860D01*
X0061068Y0161752D01*
X0061064Y0161643D01*
X0061056Y0161535D01*
X0061044Y0161427D01*
X0061028Y0161320D01*
X0061008Y0161213D01*
X0060984Y0161107D01*
X0060957Y0161002D01*
X0060925Y0160899D01*
X0060890Y0160796D01*
X0060851Y0160695D01*
X0060808Y0160595D01*
X0060762Y0160497D01*
X0060712Y0160401D01*
X0060659Y0160306D01*
X0060602Y0160214D01*
X0060542Y0160123D01*
X0060478Y0160035D01*
X0060412Y0159950D01*
X0060342Y0159867D01*
X0060269Y0159786D01*
X0060193Y0159708D01*
X0060115Y0159633D01*
X0060034Y0159561D01*
X0059950Y0159492D01*
X0059864Y0159427D01*
X0059775Y0159364D01*
X0059684Y0159305D01*
X0059592Y0159249D01*
X0059497Y0159196D01*
X0059400Y0159147D01*
X0059301Y0159102D01*
X0059201Y0159060D01*
X0059099Y0159022D01*
X0058997Y0158988D01*
X0058892Y0158957D01*
X0058787Y0158931D01*
X0058681Y0158908D01*
X0058574Y0158889D01*
X0058467Y0158874D01*
X0058359Y0158863D01*
X0058251Y0158856D01*
X0058142Y0158853D01*
X0058034Y0158854D01*
X0057925Y0158859D01*
X0057817Y0158868D01*
X0057709Y0158881D01*
X0057602Y0158898D01*
X0057496Y0158919D01*
X0057390Y0158943D01*
X0057285Y0158972D01*
X0057182Y0159004D01*
X0057080Y0159040D01*
X0056979Y0159080D01*
X0056879Y0159124D01*
X0056782Y0159171D01*
X0056686Y0159222D01*
X0056592Y0159276D01*
X0056500Y0159334D01*
X0056410Y0159395D01*
X0056323Y0159459D01*
X0056238Y0159527D01*
X0056155Y0159597D01*
X0056075Y0159671D01*
X0055998Y0159747D01*
X0055924Y0159826D01*
X0055853Y0159908D01*
X0055785Y0159992D01*
X0055720Y0160079D01*
X0055658Y0160168D01*
X0055599Y0160260D01*
X0055544Y0160353D01*
X0055493Y0160448D01*
X0055444Y0160546D01*
X0055400Y0160645D01*
X0055359Y0160745D01*
X0055322Y0160847D01*
X0055289Y0160950D01*
X0055259Y0161055D01*
X0055233Y0161160D01*
X0055212Y0161267D01*
X0055194Y0161374D01*
X0055180Y0161481D01*
X0055170Y0161589D01*
X0055164Y0161698D01*
X0055162Y0161806D01*
X0035477Y0181491D02*
X0035479Y0181599D01*
X0035485Y0181708D01*
X0035495Y0181816D01*
X0035509Y0181923D01*
X0035527Y0182030D01*
X0035548Y0182137D01*
X0035574Y0182242D01*
X0035604Y0182347D01*
X0035637Y0182450D01*
X0035674Y0182552D01*
X0035715Y0182652D01*
X0035759Y0182751D01*
X0035808Y0182849D01*
X0035859Y0182944D01*
X0035914Y0183037D01*
X0035973Y0183129D01*
X0036035Y0183218D01*
X0036100Y0183305D01*
X0036168Y0183389D01*
X0036239Y0183471D01*
X0036313Y0183550D01*
X0036390Y0183626D01*
X0036470Y0183700D01*
X0036553Y0183770D01*
X0036638Y0183838D01*
X0036725Y0183902D01*
X0036815Y0183963D01*
X0036907Y0184021D01*
X0037001Y0184075D01*
X0037097Y0184126D01*
X0037194Y0184173D01*
X0037294Y0184217D01*
X0037395Y0184257D01*
X0037497Y0184293D01*
X0037600Y0184325D01*
X0037705Y0184354D01*
X0037811Y0184378D01*
X0037917Y0184399D01*
X0038024Y0184416D01*
X0038132Y0184429D01*
X0038240Y0184438D01*
X0038349Y0184443D01*
X0038457Y0184444D01*
X0038566Y0184441D01*
X0038674Y0184434D01*
X0038782Y0184423D01*
X0038889Y0184408D01*
X0038996Y0184389D01*
X0039102Y0184366D01*
X0039207Y0184340D01*
X0039312Y0184309D01*
X0039414Y0184275D01*
X0039516Y0184237D01*
X0039616Y0184195D01*
X0039715Y0184150D01*
X0039812Y0184101D01*
X0039906Y0184048D01*
X0039999Y0183992D01*
X0040090Y0183933D01*
X0040179Y0183870D01*
X0040265Y0183805D01*
X0040349Y0183736D01*
X0040430Y0183664D01*
X0040508Y0183589D01*
X0040584Y0183511D01*
X0040657Y0183430D01*
X0040727Y0183347D01*
X0040793Y0183262D01*
X0040857Y0183174D01*
X0040917Y0183083D01*
X0040974Y0182991D01*
X0041027Y0182896D01*
X0041077Y0182800D01*
X0041123Y0182702D01*
X0041166Y0182602D01*
X0041205Y0182501D01*
X0041240Y0182398D01*
X0041272Y0182295D01*
X0041299Y0182190D01*
X0041323Y0182084D01*
X0041343Y0181977D01*
X0041359Y0181870D01*
X0041371Y0181762D01*
X0041379Y0181654D01*
X0041383Y0181545D01*
X0041383Y0181437D01*
X0041379Y0181328D01*
X0041371Y0181220D01*
X0041359Y0181112D01*
X0041343Y0181005D01*
X0041323Y0180898D01*
X0041299Y0180792D01*
X0041272Y0180687D01*
X0041240Y0180584D01*
X0041205Y0180481D01*
X0041166Y0180380D01*
X0041123Y0180280D01*
X0041077Y0180182D01*
X0041027Y0180086D01*
X0040974Y0179991D01*
X0040917Y0179899D01*
X0040857Y0179808D01*
X0040793Y0179720D01*
X0040727Y0179635D01*
X0040657Y0179552D01*
X0040584Y0179471D01*
X0040508Y0179393D01*
X0040430Y0179318D01*
X0040349Y0179246D01*
X0040265Y0179177D01*
X0040179Y0179112D01*
X0040090Y0179049D01*
X0039999Y0178990D01*
X0039907Y0178934D01*
X0039812Y0178881D01*
X0039715Y0178832D01*
X0039616Y0178787D01*
X0039516Y0178745D01*
X0039414Y0178707D01*
X0039312Y0178673D01*
X0039207Y0178642D01*
X0039102Y0178616D01*
X0038996Y0178593D01*
X0038889Y0178574D01*
X0038782Y0178559D01*
X0038674Y0178548D01*
X0038566Y0178541D01*
X0038457Y0178538D01*
X0038349Y0178539D01*
X0038240Y0178544D01*
X0038132Y0178553D01*
X0038024Y0178566D01*
X0037917Y0178583D01*
X0037811Y0178604D01*
X0037705Y0178628D01*
X0037600Y0178657D01*
X0037497Y0178689D01*
X0037395Y0178725D01*
X0037294Y0178765D01*
X0037194Y0178809D01*
X0037097Y0178856D01*
X0037001Y0178907D01*
X0036907Y0178961D01*
X0036815Y0179019D01*
X0036725Y0179080D01*
X0036638Y0179144D01*
X0036553Y0179212D01*
X0036470Y0179282D01*
X0036390Y0179356D01*
X0036313Y0179432D01*
X0036239Y0179511D01*
X0036168Y0179593D01*
X0036100Y0179677D01*
X0036035Y0179764D01*
X0035973Y0179853D01*
X0035914Y0179945D01*
X0035859Y0180038D01*
X0035808Y0180133D01*
X0035759Y0180231D01*
X0035715Y0180330D01*
X0035674Y0180430D01*
X0035637Y0180532D01*
X0035604Y0180635D01*
X0035574Y0180740D01*
X0035548Y0180845D01*
X0035527Y0180952D01*
X0035509Y0181059D01*
X0035495Y0181166D01*
X0035485Y0181274D01*
X0035479Y0181383D01*
X0035477Y0181491D01*
X0025634Y0181491D02*
X0025636Y0181599D01*
X0025642Y0181708D01*
X0025652Y0181816D01*
X0025666Y0181923D01*
X0025684Y0182030D01*
X0025705Y0182137D01*
X0025731Y0182242D01*
X0025761Y0182347D01*
X0025794Y0182450D01*
X0025831Y0182552D01*
X0025872Y0182652D01*
X0025916Y0182751D01*
X0025965Y0182849D01*
X0026016Y0182944D01*
X0026071Y0183037D01*
X0026130Y0183129D01*
X0026192Y0183218D01*
X0026257Y0183305D01*
X0026325Y0183389D01*
X0026396Y0183471D01*
X0026470Y0183550D01*
X0026547Y0183626D01*
X0026627Y0183700D01*
X0026710Y0183770D01*
X0026795Y0183838D01*
X0026882Y0183902D01*
X0026972Y0183963D01*
X0027064Y0184021D01*
X0027158Y0184075D01*
X0027254Y0184126D01*
X0027351Y0184173D01*
X0027451Y0184217D01*
X0027552Y0184257D01*
X0027654Y0184293D01*
X0027757Y0184325D01*
X0027862Y0184354D01*
X0027968Y0184378D01*
X0028074Y0184399D01*
X0028181Y0184416D01*
X0028289Y0184429D01*
X0028397Y0184438D01*
X0028506Y0184443D01*
X0028614Y0184444D01*
X0028723Y0184441D01*
X0028831Y0184434D01*
X0028939Y0184423D01*
X0029046Y0184408D01*
X0029153Y0184389D01*
X0029259Y0184366D01*
X0029364Y0184340D01*
X0029469Y0184309D01*
X0029571Y0184275D01*
X0029673Y0184237D01*
X0029773Y0184195D01*
X0029872Y0184150D01*
X0029969Y0184101D01*
X0030063Y0184048D01*
X0030156Y0183992D01*
X0030247Y0183933D01*
X0030336Y0183870D01*
X0030422Y0183805D01*
X0030506Y0183736D01*
X0030587Y0183664D01*
X0030665Y0183589D01*
X0030741Y0183511D01*
X0030814Y0183430D01*
X0030884Y0183347D01*
X0030950Y0183262D01*
X0031014Y0183174D01*
X0031074Y0183083D01*
X0031131Y0182991D01*
X0031184Y0182896D01*
X0031234Y0182800D01*
X0031280Y0182702D01*
X0031323Y0182602D01*
X0031362Y0182501D01*
X0031397Y0182398D01*
X0031429Y0182295D01*
X0031456Y0182190D01*
X0031480Y0182084D01*
X0031500Y0181977D01*
X0031516Y0181870D01*
X0031528Y0181762D01*
X0031536Y0181654D01*
X0031540Y0181545D01*
X0031540Y0181437D01*
X0031536Y0181328D01*
X0031528Y0181220D01*
X0031516Y0181112D01*
X0031500Y0181005D01*
X0031480Y0180898D01*
X0031456Y0180792D01*
X0031429Y0180687D01*
X0031397Y0180584D01*
X0031362Y0180481D01*
X0031323Y0180380D01*
X0031280Y0180280D01*
X0031234Y0180182D01*
X0031184Y0180086D01*
X0031131Y0179991D01*
X0031074Y0179899D01*
X0031014Y0179808D01*
X0030950Y0179720D01*
X0030884Y0179635D01*
X0030814Y0179552D01*
X0030741Y0179471D01*
X0030665Y0179393D01*
X0030587Y0179318D01*
X0030506Y0179246D01*
X0030422Y0179177D01*
X0030336Y0179112D01*
X0030247Y0179049D01*
X0030156Y0178990D01*
X0030064Y0178934D01*
X0029969Y0178881D01*
X0029872Y0178832D01*
X0029773Y0178787D01*
X0029673Y0178745D01*
X0029571Y0178707D01*
X0029469Y0178673D01*
X0029364Y0178642D01*
X0029259Y0178616D01*
X0029153Y0178593D01*
X0029046Y0178574D01*
X0028939Y0178559D01*
X0028831Y0178548D01*
X0028723Y0178541D01*
X0028614Y0178538D01*
X0028506Y0178539D01*
X0028397Y0178544D01*
X0028289Y0178553D01*
X0028181Y0178566D01*
X0028074Y0178583D01*
X0027968Y0178604D01*
X0027862Y0178628D01*
X0027757Y0178657D01*
X0027654Y0178689D01*
X0027552Y0178725D01*
X0027451Y0178765D01*
X0027351Y0178809D01*
X0027254Y0178856D01*
X0027158Y0178907D01*
X0027064Y0178961D01*
X0026972Y0179019D01*
X0026882Y0179080D01*
X0026795Y0179144D01*
X0026710Y0179212D01*
X0026627Y0179282D01*
X0026547Y0179356D01*
X0026470Y0179432D01*
X0026396Y0179511D01*
X0026325Y0179593D01*
X0026257Y0179677D01*
X0026192Y0179764D01*
X0026130Y0179853D01*
X0026071Y0179945D01*
X0026016Y0180038D01*
X0025965Y0180133D01*
X0025916Y0180231D01*
X0025872Y0180330D01*
X0025831Y0180430D01*
X0025794Y0180532D01*
X0025761Y0180635D01*
X0025731Y0180740D01*
X0025705Y0180845D01*
X0025684Y0180952D01*
X0025666Y0181059D01*
X0025652Y0181166D01*
X0025642Y0181274D01*
X0025636Y0181383D01*
X0025634Y0181491D01*
X0024400Y0199300D02*
X0024419Y0199561D01*
X0024445Y0199822D01*
X0024477Y0200082D01*
X0024516Y0200341D01*
X0024561Y0200599D01*
X0024612Y0200856D01*
X0024670Y0201111D01*
X0024733Y0201365D01*
X0024803Y0201618D01*
X0024880Y0201868D01*
X0024962Y0202117D01*
X0025050Y0202364D01*
X0025145Y0202608D01*
X0025245Y0202850D01*
X0025351Y0203089D01*
X0025463Y0203326D01*
X0025581Y0203560D01*
X0025705Y0203791D01*
X0025834Y0204019D01*
X0025969Y0204244D01*
X0026109Y0204465D01*
X0026255Y0204683D01*
X0026405Y0204897D01*
X0026561Y0205107D01*
X0026723Y0205314D01*
X0026889Y0205516D01*
X0027060Y0205714D01*
X0027236Y0205909D01*
X0027417Y0206098D01*
X0027602Y0206283D01*
X0027791Y0206464D01*
X0027986Y0206640D01*
X0028184Y0206811D01*
X0028386Y0206977D01*
X0028593Y0207139D01*
X0028803Y0207295D01*
X0029017Y0207445D01*
X0029235Y0207591D01*
X0029456Y0207731D01*
X0029681Y0207866D01*
X0029909Y0207995D01*
X0030140Y0208119D01*
X0030374Y0208237D01*
X0030611Y0208349D01*
X0030850Y0208455D01*
X0031092Y0208555D01*
X0031336Y0208650D01*
X0031583Y0208738D01*
X0031832Y0208820D01*
X0032082Y0208897D01*
X0032335Y0208967D01*
X0032589Y0209030D01*
X0032844Y0209088D01*
X0033101Y0209139D01*
X0033359Y0209184D01*
X0033618Y0209223D01*
X0033878Y0209255D01*
X0034139Y0209281D01*
X0034400Y0209300D01*
X0030246Y0198296D02*
X0030248Y0198444D01*
X0030254Y0198592D01*
X0030264Y0198740D01*
X0030278Y0198887D01*
X0030296Y0199034D01*
X0030317Y0199180D01*
X0030343Y0199326D01*
X0030373Y0199471D01*
X0030406Y0199615D01*
X0030444Y0199758D01*
X0030485Y0199900D01*
X0030530Y0200041D01*
X0030578Y0200181D01*
X0030631Y0200320D01*
X0030687Y0200457D01*
X0030747Y0200592D01*
X0030810Y0200726D01*
X0030877Y0200858D01*
X0030948Y0200988D01*
X0031022Y0201116D01*
X0031099Y0201242D01*
X0031180Y0201366D01*
X0031264Y0201488D01*
X0031351Y0201607D01*
X0031442Y0201724D01*
X0031536Y0201839D01*
X0031632Y0201951D01*
X0031732Y0202061D01*
X0031834Y0202167D01*
X0031940Y0202271D01*
X0032048Y0202372D01*
X0032159Y0202470D01*
X0032272Y0202566D01*
X0032388Y0202658D01*
X0032506Y0202747D01*
X0032627Y0202832D01*
X0032750Y0202915D01*
X0032875Y0202994D01*
X0033002Y0203070D01*
X0033131Y0203142D01*
X0033262Y0203211D01*
X0033395Y0203276D01*
X0033530Y0203337D01*
X0033666Y0203395D01*
X0033803Y0203450D01*
X0033942Y0203500D01*
X0034083Y0203547D01*
X0034224Y0203590D01*
X0034367Y0203630D01*
X0034511Y0203665D01*
X0034655Y0203697D01*
X0034801Y0203724D01*
X0034947Y0203748D01*
X0035094Y0203768D01*
X0035241Y0203784D01*
X0035388Y0203796D01*
X0035536Y0203804D01*
X0035684Y0203808D01*
X0035832Y0203808D01*
X0035980Y0203804D01*
X0036128Y0203796D01*
X0036275Y0203784D01*
X0036422Y0203768D01*
X0036569Y0203748D01*
X0036715Y0203724D01*
X0036861Y0203697D01*
X0037005Y0203665D01*
X0037149Y0203630D01*
X0037292Y0203590D01*
X0037433Y0203547D01*
X0037574Y0203500D01*
X0037713Y0203450D01*
X0037850Y0203395D01*
X0037986Y0203337D01*
X0038121Y0203276D01*
X0038254Y0203211D01*
X0038385Y0203142D01*
X0038514Y0203070D01*
X0038641Y0202994D01*
X0038766Y0202915D01*
X0038889Y0202832D01*
X0039010Y0202747D01*
X0039128Y0202658D01*
X0039244Y0202566D01*
X0039357Y0202470D01*
X0039468Y0202372D01*
X0039576Y0202271D01*
X0039682Y0202167D01*
X0039784Y0202061D01*
X0039884Y0201951D01*
X0039980Y0201839D01*
X0040074Y0201724D01*
X0040165Y0201607D01*
X0040252Y0201488D01*
X0040336Y0201366D01*
X0040417Y0201242D01*
X0040494Y0201116D01*
X0040568Y0200988D01*
X0040639Y0200858D01*
X0040706Y0200726D01*
X0040769Y0200592D01*
X0040829Y0200457D01*
X0040885Y0200320D01*
X0040938Y0200181D01*
X0040986Y0200041D01*
X0041031Y0199900D01*
X0041072Y0199758D01*
X0041110Y0199615D01*
X0041143Y0199471D01*
X0041173Y0199326D01*
X0041199Y0199180D01*
X0041220Y0199034D01*
X0041238Y0198887D01*
X0041252Y0198740D01*
X0041262Y0198592D01*
X0041268Y0198444D01*
X0041270Y0198296D01*
X0041268Y0198148D01*
X0041262Y0198000D01*
X0041252Y0197852D01*
X0041238Y0197705D01*
X0041220Y0197558D01*
X0041199Y0197412D01*
X0041173Y0197266D01*
X0041143Y0197121D01*
X0041110Y0196977D01*
X0041072Y0196834D01*
X0041031Y0196692D01*
X0040986Y0196551D01*
X0040938Y0196411D01*
X0040885Y0196272D01*
X0040829Y0196135D01*
X0040769Y0196000D01*
X0040706Y0195866D01*
X0040639Y0195734D01*
X0040568Y0195604D01*
X0040494Y0195476D01*
X0040417Y0195350D01*
X0040336Y0195226D01*
X0040252Y0195104D01*
X0040165Y0194985D01*
X0040074Y0194868D01*
X0039980Y0194753D01*
X0039884Y0194641D01*
X0039784Y0194531D01*
X0039682Y0194425D01*
X0039576Y0194321D01*
X0039468Y0194220D01*
X0039357Y0194122D01*
X0039244Y0194026D01*
X0039128Y0193934D01*
X0039010Y0193845D01*
X0038889Y0193760D01*
X0038766Y0193677D01*
X0038641Y0193598D01*
X0038514Y0193522D01*
X0038385Y0193450D01*
X0038254Y0193381D01*
X0038121Y0193316D01*
X0037986Y0193255D01*
X0037850Y0193197D01*
X0037713Y0193142D01*
X0037574Y0193092D01*
X0037433Y0193045D01*
X0037292Y0193002D01*
X0037149Y0192962D01*
X0037005Y0192927D01*
X0036861Y0192895D01*
X0036715Y0192868D01*
X0036569Y0192844D01*
X0036422Y0192824D01*
X0036275Y0192808D01*
X0036128Y0192796D01*
X0035980Y0192788D01*
X0035832Y0192784D01*
X0035684Y0192784D01*
X0035536Y0192788D01*
X0035388Y0192796D01*
X0035241Y0192808D01*
X0035094Y0192824D01*
X0034947Y0192844D01*
X0034801Y0192868D01*
X0034655Y0192895D01*
X0034511Y0192927D01*
X0034367Y0192962D01*
X0034224Y0193002D01*
X0034083Y0193045D01*
X0033942Y0193092D01*
X0033803Y0193142D01*
X0033666Y0193197D01*
X0033530Y0193255D01*
X0033395Y0193316D01*
X0033262Y0193381D01*
X0033131Y0193450D01*
X0033002Y0193522D01*
X0032875Y0193598D01*
X0032750Y0193677D01*
X0032627Y0193760D01*
X0032506Y0193845D01*
X0032388Y0193934D01*
X0032272Y0194026D01*
X0032159Y0194122D01*
X0032048Y0194220D01*
X0031940Y0194321D01*
X0031834Y0194425D01*
X0031732Y0194531D01*
X0031632Y0194641D01*
X0031536Y0194753D01*
X0031442Y0194868D01*
X0031351Y0194985D01*
X0031264Y0195104D01*
X0031180Y0195226D01*
X0031099Y0195350D01*
X0031022Y0195476D01*
X0030948Y0195604D01*
X0030877Y0195734D01*
X0030810Y0195866D01*
X0030747Y0196000D01*
X0030687Y0196135D01*
X0030631Y0196272D01*
X0030578Y0196411D01*
X0030530Y0196551D01*
X0030485Y0196692D01*
X0030444Y0196834D01*
X0030406Y0196977D01*
X0030373Y0197121D01*
X0030343Y0197266D01*
X0030317Y0197412D01*
X0030296Y0197558D01*
X0030278Y0197705D01*
X0030264Y0197852D01*
X0030254Y0198000D01*
X0030248Y0198148D01*
X0030246Y0198296D01*
X0215286Y0198296D02*
X0215288Y0198444D01*
X0215294Y0198592D01*
X0215304Y0198740D01*
X0215318Y0198887D01*
X0215336Y0199034D01*
X0215357Y0199180D01*
X0215383Y0199326D01*
X0215413Y0199471D01*
X0215446Y0199615D01*
X0215484Y0199758D01*
X0215525Y0199900D01*
X0215570Y0200041D01*
X0215618Y0200181D01*
X0215671Y0200320D01*
X0215727Y0200457D01*
X0215787Y0200592D01*
X0215850Y0200726D01*
X0215917Y0200858D01*
X0215988Y0200988D01*
X0216062Y0201116D01*
X0216139Y0201242D01*
X0216220Y0201366D01*
X0216304Y0201488D01*
X0216391Y0201607D01*
X0216482Y0201724D01*
X0216576Y0201839D01*
X0216672Y0201951D01*
X0216772Y0202061D01*
X0216874Y0202167D01*
X0216980Y0202271D01*
X0217088Y0202372D01*
X0217199Y0202470D01*
X0217312Y0202566D01*
X0217428Y0202658D01*
X0217546Y0202747D01*
X0217667Y0202832D01*
X0217790Y0202915D01*
X0217915Y0202994D01*
X0218042Y0203070D01*
X0218171Y0203142D01*
X0218302Y0203211D01*
X0218435Y0203276D01*
X0218570Y0203337D01*
X0218706Y0203395D01*
X0218843Y0203450D01*
X0218982Y0203500D01*
X0219123Y0203547D01*
X0219264Y0203590D01*
X0219407Y0203630D01*
X0219551Y0203665D01*
X0219695Y0203697D01*
X0219841Y0203724D01*
X0219987Y0203748D01*
X0220134Y0203768D01*
X0220281Y0203784D01*
X0220428Y0203796D01*
X0220576Y0203804D01*
X0220724Y0203808D01*
X0220872Y0203808D01*
X0221020Y0203804D01*
X0221168Y0203796D01*
X0221315Y0203784D01*
X0221462Y0203768D01*
X0221609Y0203748D01*
X0221755Y0203724D01*
X0221901Y0203697D01*
X0222045Y0203665D01*
X0222189Y0203630D01*
X0222332Y0203590D01*
X0222473Y0203547D01*
X0222614Y0203500D01*
X0222753Y0203450D01*
X0222890Y0203395D01*
X0223026Y0203337D01*
X0223161Y0203276D01*
X0223294Y0203211D01*
X0223425Y0203142D01*
X0223554Y0203070D01*
X0223681Y0202994D01*
X0223806Y0202915D01*
X0223929Y0202832D01*
X0224050Y0202747D01*
X0224168Y0202658D01*
X0224284Y0202566D01*
X0224397Y0202470D01*
X0224508Y0202372D01*
X0224616Y0202271D01*
X0224722Y0202167D01*
X0224824Y0202061D01*
X0224924Y0201951D01*
X0225020Y0201839D01*
X0225114Y0201724D01*
X0225205Y0201607D01*
X0225292Y0201488D01*
X0225376Y0201366D01*
X0225457Y0201242D01*
X0225534Y0201116D01*
X0225608Y0200988D01*
X0225679Y0200858D01*
X0225746Y0200726D01*
X0225809Y0200592D01*
X0225869Y0200457D01*
X0225925Y0200320D01*
X0225978Y0200181D01*
X0226026Y0200041D01*
X0226071Y0199900D01*
X0226112Y0199758D01*
X0226150Y0199615D01*
X0226183Y0199471D01*
X0226213Y0199326D01*
X0226239Y0199180D01*
X0226260Y0199034D01*
X0226278Y0198887D01*
X0226292Y0198740D01*
X0226302Y0198592D01*
X0226308Y0198444D01*
X0226310Y0198296D01*
X0226308Y0198148D01*
X0226302Y0198000D01*
X0226292Y0197852D01*
X0226278Y0197705D01*
X0226260Y0197558D01*
X0226239Y0197412D01*
X0226213Y0197266D01*
X0226183Y0197121D01*
X0226150Y0196977D01*
X0226112Y0196834D01*
X0226071Y0196692D01*
X0226026Y0196551D01*
X0225978Y0196411D01*
X0225925Y0196272D01*
X0225869Y0196135D01*
X0225809Y0196000D01*
X0225746Y0195866D01*
X0225679Y0195734D01*
X0225608Y0195604D01*
X0225534Y0195476D01*
X0225457Y0195350D01*
X0225376Y0195226D01*
X0225292Y0195104D01*
X0225205Y0194985D01*
X0225114Y0194868D01*
X0225020Y0194753D01*
X0224924Y0194641D01*
X0224824Y0194531D01*
X0224722Y0194425D01*
X0224616Y0194321D01*
X0224508Y0194220D01*
X0224397Y0194122D01*
X0224284Y0194026D01*
X0224168Y0193934D01*
X0224050Y0193845D01*
X0223929Y0193760D01*
X0223806Y0193677D01*
X0223681Y0193598D01*
X0223554Y0193522D01*
X0223425Y0193450D01*
X0223294Y0193381D01*
X0223161Y0193316D01*
X0223026Y0193255D01*
X0222890Y0193197D01*
X0222753Y0193142D01*
X0222614Y0193092D01*
X0222473Y0193045D01*
X0222332Y0193002D01*
X0222189Y0192962D01*
X0222045Y0192927D01*
X0221901Y0192895D01*
X0221755Y0192868D01*
X0221609Y0192844D01*
X0221462Y0192824D01*
X0221315Y0192808D01*
X0221168Y0192796D01*
X0221020Y0192788D01*
X0220872Y0192784D01*
X0220724Y0192784D01*
X0220576Y0192788D01*
X0220428Y0192796D01*
X0220281Y0192808D01*
X0220134Y0192824D01*
X0219987Y0192844D01*
X0219841Y0192868D01*
X0219695Y0192895D01*
X0219551Y0192927D01*
X0219407Y0192962D01*
X0219264Y0193002D01*
X0219123Y0193045D01*
X0218982Y0193092D01*
X0218843Y0193142D01*
X0218706Y0193197D01*
X0218570Y0193255D01*
X0218435Y0193316D01*
X0218302Y0193381D01*
X0218171Y0193450D01*
X0218042Y0193522D01*
X0217915Y0193598D01*
X0217790Y0193677D01*
X0217667Y0193760D01*
X0217546Y0193845D01*
X0217428Y0193934D01*
X0217312Y0194026D01*
X0217199Y0194122D01*
X0217088Y0194220D01*
X0216980Y0194321D01*
X0216874Y0194425D01*
X0216772Y0194531D01*
X0216672Y0194641D01*
X0216576Y0194753D01*
X0216482Y0194868D01*
X0216391Y0194985D01*
X0216304Y0195104D01*
X0216220Y0195226D01*
X0216139Y0195350D01*
X0216062Y0195476D01*
X0215988Y0195604D01*
X0215917Y0195734D01*
X0215850Y0195866D01*
X0215787Y0196000D01*
X0215727Y0196135D01*
X0215671Y0196272D01*
X0215618Y0196411D01*
X0215570Y0196551D01*
X0215525Y0196692D01*
X0215484Y0196834D01*
X0215446Y0196977D01*
X0215413Y0197121D01*
X0215383Y0197266D01*
X0215357Y0197412D01*
X0215336Y0197558D01*
X0215318Y0197705D01*
X0215304Y0197852D01*
X0215294Y0198000D01*
X0215288Y0198148D01*
X0215286Y0198296D01*
X0221900Y0209300D02*
X0222161Y0209281D01*
X0222422Y0209255D01*
X0222682Y0209223D01*
X0222941Y0209184D01*
X0223199Y0209139D01*
X0223456Y0209088D01*
X0223711Y0209030D01*
X0223965Y0208967D01*
X0224218Y0208897D01*
X0224468Y0208820D01*
X0224717Y0208738D01*
X0224964Y0208650D01*
X0225208Y0208555D01*
X0225450Y0208455D01*
X0225689Y0208349D01*
X0225926Y0208237D01*
X0226160Y0208119D01*
X0226391Y0207995D01*
X0226619Y0207866D01*
X0226844Y0207731D01*
X0227065Y0207591D01*
X0227283Y0207445D01*
X0227497Y0207295D01*
X0227707Y0207139D01*
X0227914Y0206977D01*
X0228116Y0206811D01*
X0228314Y0206640D01*
X0228509Y0206464D01*
X0228698Y0206283D01*
X0228883Y0206098D01*
X0229064Y0205909D01*
X0229240Y0205714D01*
X0229411Y0205516D01*
X0229577Y0205314D01*
X0229739Y0205107D01*
X0229895Y0204897D01*
X0230045Y0204683D01*
X0230191Y0204465D01*
X0230331Y0204244D01*
X0230466Y0204019D01*
X0230595Y0203791D01*
X0230719Y0203560D01*
X0230837Y0203326D01*
X0230949Y0203089D01*
X0231055Y0202850D01*
X0231155Y0202608D01*
X0231250Y0202364D01*
X0231338Y0202117D01*
X0231420Y0201868D01*
X0231497Y0201618D01*
X0231567Y0201365D01*
X0231630Y0201111D01*
X0231688Y0200856D01*
X0231739Y0200599D01*
X0231784Y0200341D01*
X0231823Y0200082D01*
X0231855Y0199822D01*
X0231881Y0199561D01*
X0231900Y0199300D01*
M02*
