G75*
%MOIN*%
%OFA0B0*%
%FSLAX25Y25*%
%IPPOS*%
%LPD*%
%AMOC8*
5,1,8,0,0,1.08239X$1,22.5*
%
%ADD10R,0.22500X0.02500*%
%ADD11C,0.07000*%
%ADD12R,0.04331X0.05512*%
%ADD13R,0.03937X0.04331*%
%ADD14R,0.07087X0.06299*%
%ADD15R,0.04134X0.04252*%
%ADD16C,0.10000*%
%ADD17C,0.08858*%
%ADD18R,0.02362X0.06299*%
%ADD19R,0.02362X0.02362*%
%ADD20R,0.03150X0.03150*%
%ADD21C,0.07400*%
%ADD22C,0.00800*%
%ADD23R,0.05000X0.02500*%
%ADD24R,0.05906X0.07874*%
%ADD25C,0.00591*%
%ADD26C,0.00236*%
%ADD27R,0.06693X0.09449*%
%ADD28C,0.06800*%
%ADD29R,0.03543X0.05906*%
%ADD30R,0.05906X0.03543*%
%ADD31R,0.23622X0.23622*%
%ADD32R,0.04800X0.08800*%
%ADD33R,0.14173X0.08661*%
%ADD34C,0.07874*%
%ADD35C,0.07200*%
%ADD36R,0.06000X0.09000*%
%ADD37C,0.01600*%
%ADD38C,0.01000*%
%ADD39C,0.00900*%
%ADD40C,0.03962*%
%ADD41C,0.01200*%
%ADD42C,0.02400*%
%ADD43C,0.02978*%
%ADD44C,0.03200*%
%ADD45R,0.03962X0.03962*%
%ADD46C,0.03569*%
D10*
X0100650Y0125550D03*
D11*
X0181900Y0131800D03*
X0191900Y0131800D03*
D12*
X0205463Y0156800D03*
X0213337Y0156800D03*
X0153337Y0176800D03*
X0145463Y0176800D03*
X0133337Y0159300D03*
X0125463Y0159300D03*
X0113337Y0159300D03*
X0105463Y0159300D03*
D13*
X0106054Y0149300D03*
X0112746Y0149300D03*
X0146054Y0149300D03*
X0152746Y0149300D03*
X0166054Y0131800D03*
X0172746Y0131800D03*
X0206054Y0141800D03*
X0212746Y0141800D03*
X0199400Y0185954D03*
X0199400Y0192646D03*
X0169400Y0192646D03*
X0169400Y0185954D03*
X0112746Y0189300D03*
X0106054Y0189300D03*
X0080837Y0097745D03*
X0074144Y0097745D03*
X0074009Y0088355D03*
X0080702Y0088355D03*
D14*
X0079400Y0106288D03*
X0079400Y0117312D03*
X0121900Y0113788D03*
X0121900Y0124812D03*
D15*
X0145955Y0139300D03*
X0152845Y0139300D03*
X0132845Y0149300D03*
X0125955Y0149300D03*
X0145955Y0159300D03*
X0152845Y0159300D03*
X0152845Y0169300D03*
X0145955Y0169300D03*
X0146055Y0185400D03*
X0146155Y0191600D03*
X0153045Y0191600D03*
X0152945Y0185400D03*
X0112845Y0179300D03*
X0105955Y0179300D03*
X0105955Y0169300D03*
X0112845Y0169300D03*
X0185955Y0141800D03*
X0192845Y0141800D03*
X0205955Y0149300D03*
X0212845Y0149300D03*
X0212845Y0164300D03*
X0205955Y0164300D03*
X0205955Y0171800D03*
X0212845Y0171800D03*
X0109161Y0088234D03*
X0102271Y0088234D03*
D16*
X0038430Y0161806D03*
D17*
X0058115Y0152357D03*
X0058115Y0141728D03*
X0058115Y0171255D03*
X0058115Y0181885D03*
D18*
X0085463Y0189339D03*
X0093329Y0189350D03*
X0125471Y0181750D03*
X0133337Y0181761D03*
X0093329Y0151850D03*
X0085463Y0151839D03*
D19*
X0089400Y0149517D03*
X0089400Y0154162D03*
X0089400Y0187017D03*
X0089400Y0191662D03*
X0129400Y0184083D03*
X0129400Y0179438D03*
D20*
X0199400Y0142253D03*
X0199400Y0136347D03*
D21*
X0096900Y0139300D03*
X0086900Y0139300D03*
D22*
X0129400Y0190300D02*
X0129400Y0193300D01*
D23*
X0129400Y0193800D03*
X0129400Y0189800D03*
D24*
X0095306Y0176800D03*
X0083494Y0176800D03*
X0083494Y0164300D03*
X0095306Y0164300D03*
D25*
X0176290Y0156190D02*
X0187510Y0156190D01*
X0176290Y0156190D02*
X0176290Y0167410D01*
X0187510Y0167410D01*
X0187510Y0156190D01*
X0187510Y0156780D02*
X0176290Y0156780D01*
X0176290Y0157370D02*
X0187510Y0157370D01*
X0187510Y0157960D02*
X0176290Y0157960D01*
X0176290Y0158550D02*
X0187510Y0158550D01*
X0187510Y0159140D02*
X0176290Y0159140D01*
X0176290Y0159730D02*
X0187510Y0159730D01*
X0187510Y0160320D02*
X0176290Y0160320D01*
X0176290Y0160910D02*
X0187510Y0160910D01*
X0187510Y0161500D02*
X0176290Y0161500D01*
X0176290Y0162090D02*
X0187510Y0162090D01*
X0187510Y0162680D02*
X0176290Y0162680D01*
X0176290Y0163270D02*
X0187510Y0163270D01*
X0187510Y0163860D02*
X0176290Y0163860D01*
X0176290Y0164450D02*
X0187510Y0164450D01*
X0187510Y0165040D02*
X0176290Y0165040D01*
X0176290Y0165630D02*
X0187510Y0165630D01*
X0187510Y0166220D02*
X0176290Y0166220D01*
X0176290Y0166810D02*
X0187510Y0166810D01*
X0187510Y0167400D02*
X0176290Y0167400D01*
D26*
X0169322Y0167611D02*
X0169322Y0167061D01*
X0169322Y0167611D02*
X0171644Y0167611D01*
X0171644Y0167061D01*
X0169322Y0167061D01*
X0169322Y0167296D02*
X0171644Y0167296D01*
X0171644Y0167531D02*
X0169322Y0167531D01*
X0169322Y0168635D02*
X0169322Y0169185D01*
X0171644Y0169185D01*
X0171644Y0168635D01*
X0169322Y0168635D01*
X0169322Y0168870D02*
X0171644Y0168870D01*
X0171644Y0169105D02*
X0169322Y0169105D01*
X0169322Y0170210D02*
X0169322Y0170760D01*
X0171644Y0170760D01*
X0171644Y0170210D01*
X0169322Y0170210D01*
X0169322Y0170445D02*
X0171644Y0170445D01*
X0171644Y0170680D02*
X0169322Y0170680D01*
X0172964Y0174402D02*
X0173514Y0174402D01*
X0173514Y0172080D01*
X0172964Y0172080D01*
X0172964Y0174402D01*
X0172964Y0172315D02*
X0173514Y0172315D01*
X0173514Y0172550D02*
X0172964Y0172550D01*
X0172964Y0172785D02*
X0173514Y0172785D01*
X0173514Y0173020D02*
X0172964Y0173020D01*
X0172964Y0173255D02*
X0173514Y0173255D01*
X0173514Y0173490D02*
X0172964Y0173490D01*
X0172964Y0173725D02*
X0173514Y0173725D01*
X0173514Y0173960D02*
X0172964Y0173960D01*
X0172964Y0174195D02*
X0173514Y0174195D01*
X0174538Y0174402D02*
X0175088Y0174402D01*
X0175088Y0172080D01*
X0174538Y0172080D01*
X0174538Y0174402D01*
X0174538Y0172315D02*
X0175088Y0172315D01*
X0175088Y0172550D02*
X0174538Y0172550D01*
X0174538Y0172785D02*
X0175088Y0172785D01*
X0175088Y0173020D02*
X0174538Y0173020D01*
X0174538Y0173255D02*
X0175088Y0173255D01*
X0175088Y0173490D02*
X0174538Y0173490D01*
X0174538Y0173725D02*
X0175088Y0173725D01*
X0175088Y0173960D02*
X0174538Y0173960D01*
X0174538Y0174195D02*
X0175088Y0174195D01*
X0176113Y0174402D02*
X0176663Y0174402D01*
X0176663Y0172080D01*
X0176113Y0172080D01*
X0176113Y0174402D01*
X0176113Y0172315D02*
X0176663Y0172315D01*
X0176663Y0172550D02*
X0176113Y0172550D01*
X0176113Y0172785D02*
X0176663Y0172785D01*
X0176663Y0173020D02*
X0176113Y0173020D01*
X0176113Y0173255D02*
X0176663Y0173255D01*
X0176663Y0173490D02*
X0176113Y0173490D01*
X0176113Y0173725D02*
X0176663Y0173725D01*
X0176663Y0173960D02*
X0176113Y0173960D01*
X0176113Y0174195D02*
X0176663Y0174195D01*
X0177688Y0174402D02*
X0178238Y0174402D01*
X0178238Y0172080D01*
X0177688Y0172080D01*
X0177688Y0174402D01*
X0177688Y0172315D02*
X0178238Y0172315D01*
X0178238Y0172550D02*
X0177688Y0172550D01*
X0177688Y0172785D02*
X0178238Y0172785D01*
X0178238Y0173020D02*
X0177688Y0173020D01*
X0177688Y0173255D02*
X0178238Y0173255D01*
X0178238Y0173490D02*
X0177688Y0173490D01*
X0177688Y0173725D02*
X0178238Y0173725D01*
X0178238Y0173960D02*
X0177688Y0173960D01*
X0177688Y0174195D02*
X0178238Y0174195D01*
X0179263Y0174402D02*
X0179813Y0174402D01*
X0179813Y0172080D01*
X0179263Y0172080D01*
X0179263Y0174402D01*
X0179263Y0172315D02*
X0179813Y0172315D01*
X0179813Y0172550D02*
X0179263Y0172550D01*
X0179263Y0172785D02*
X0179813Y0172785D01*
X0179813Y0173020D02*
X0179263Y0173020D01*
X0179263Y0173255D02*
X0179813Y0173255D01*
X0179813Y0173490D02*
X0179263Y0173490D01*
X0179263Y0173725D02*
X0179813Y0173725D01*
X0179813Y0173960D02*
X0179263Y0173960D01*
X0179263Y0174195D02*
X0179813Y0174195D01*
X0180838Y0174402D02*
X0181388Y0174402D01*
X0181388Y0172080D01*
X0180838Y0172080D01*
X0180838Y0174402D01*
X0180838Y0172315D02*
X0181388Y0172315D01*
X0181388Y0172550D02*
X0180838Y0172550D01*
X0180838Y0172785D02*
X0181388Y0172785D01*
X0181388Y0173020D02*
X0180838Y0173020D01*
X0180838Y0173255D02*
X0181388Y0173255D01*
X0181388Y0173490D02*
X0180838Y0173490D01*
X0180838Y0173725D02*
X0181388Y0173725D01*
X0181388Y0173960D02*
X0180838Y0173960D01*
X0180838Y0174195D02*
X0181388Y0174195D01*
X0182412Y0174402D02*
X0182962Y0174402D01*
X0182962Y0172080D01*
X0182412Y0172080D01*
X0182412Y0174402D01*
X0182412Y0172315D02*
X0182962Y0172315D01*
X0182962Y0172550D02*
X0182412Y0172550D01*
X0182412Y0172785D02*
X0182962Y0172785D01*
X0182962Y0173020D02*
X0182412Y0173020D01*
X0182412Y0173255D02*
X0182962Y0173255D01*
X0182962Y0173490D02*
X0182412Y0173490D01*
X0182412Y0173725D02*
X0182962Y0173725D01*
X0182962Y0173960D02*
X0182412Y0173960D01*
X0182412Y0174195D02*
X0182962Y0174195D01*
X0183987Y0174402D02*
X0184537Y0174402D01*
X0184537Y0172080D01*
X0183987Y0172080D01*
X0183987Y0174402D01*
X0183987Y0172315D02*
X0184537Y0172315D01*
X0184537Y0172550D02*
X0183987Y0172550D01*
X0183987Y0172785D02*
X0184537Y0172785D01*
X0184537Y0173020D02*
X0183987Y0173020D01*
X0183987Y0173255D02*
X0184537Y0173255D01*
X0184537Y0173490D02*
X0183987Y0173490D01*
X0183987Y0173725D02*
X0184537Y0173725D01*
X0184537Y0173960D02*
X0183987Y0173960D01*
X0183987Y0174195D02*
X0184537Y0174195D01*
X0185562Y0174402D02*
X0186112Y0174402D01*
X0186112Y0172080D01*
X0185562Y0172080D01*
X0185562Y0174402D01*
X0185562Y0172315D02*
X0186112Y0172315D01*
X0186112Y0172550D02*
X0185562Y0172550D01*
X0185562Y0172785D02*
X0186112Y0172785D01*
X0186112Y0173020D02*
X0185562Y0173020D01*
X0185562Y0173255D02*
X0186112Y0173255D01*
X0186112Y0173490D02*
X0185562Y0173490D01*
X0185562Y0173725D02*
X0186112Y0173725D01*
X0186112Y0173960D02*
X0185562Y0173960D01*
X0185562Y0174195D02*
X0186112Y0174195D01*
X0187137Y0174402D02*
X0187687Y0174402D01*
X0187687Y0172080D01*
X0187137Y0172080D01*
X0187137Y0174402D01*
X0187137Y0172315D02*
X0187687Y0172315D01*
X0187687Y0172550D02*
X0187137Y0172550D01*
X0187137Y0172785D02*
X0187687Y0172785D01*
X0187687Y0173020D02*
X0187137Y0173020D01*
X0187137Y0173255D02*
X0187687Y0173255D01*
X0187687Y0173490D02*
X0187137Y0173490D01*
X0187137Y0173725D02*
X0187687Y0173725D01*
X0187687Y0173960D02*
X0187137Y0173960D01*
X0187137Y0174195D02*
X0187687Y0174195D01*
X0188712Y0174402D02*
X0189262Y0174402D01*
X0189262Y0172080D01*
X0188712Y0172080D01*
X0188712Y0174402D01*
X0188712Y0172315D02*
X0189262Y0172315D01*
X0189262Y0172550D02*
X0188712Y0172550D01*
X0188712Y0172785D02*
X0189262Y0172785D01*
X0189262Y0173020D02*
X0188712Y0173020D01*
X0188712Y0173255D02*
X0189262Y0173255D01*
X0189262Y0173490D02*
X0188712Y0173490D01*
X0188712Y0173725D02*
X0189262Y0173725D01*
X0189262Y0173960D02*
X0188712Y0173960D01*
X0188712Y0174195D02*
X0189262Y0174195D01*
X0190286Y0174402D02*
X0190836Y0174402D01*
X0190836Y0172080D01*
X0190286Y0172080D01*
X0190286Y0174402D01*
X0190286Y0172315D02*
X0190836Y0172315D01*
X0190836Y0172550D02*
X0190286Y0172550D01*
X0190286Y0172785D02*
X0190836Y0172785D01*
X0190836Y0173020D02*
X0190286Y0173020D01*
X0190286Y0173255D02*
X0190836Y0173255D01*
X0190836Y0173490D02*
X0190286Y0173490D01*
X0190286Y0173725D02*
X0190836Y0173725D01*
X0190836Y0173960D02*
X0190286Y0173960D01*
X0190286Y0174195D02*
X0190836Y0174195D01*
X0194478Y0170760D02*
X0194478Y0170210D01*
X0192156Y0170210D01*
X0192156Y0170760D01*
X0194478Y0170760D01*
X0194478Y0170445D02*
X0192156Y0170445D01*
X0192156Y0170680D02*
X0194478Y0170680D01*
X0194478Y0169185D02*
X0194478Y0168635D01*
X0192156Y0168635D01*
X0192156Y0169185D01*
X0194478Y0169185D01*
X0194478Y0168870D02*
X0192156Y0168870D01*
X0192156Y0169105D02*
X0194478Y0169105D01*
X0194478Y0167611D02*
X0194478Y0167061D01*
X0192156Y0167061D01*
X0192156Y0167611D01*
X0194478Y0167611D01*
X0194478Y0167296D02*
X0192156Y0167296D01*
X0192156Y0167531D02*
X0194478Y0167531D01*
X0194478Y0166036D02*
X0194478Y0165486D01*
X0192156Y0165486D01*
X0192156Y0166036D01*
X0194478Y0166036D01*
X0194478Y0165721D02*
X0192156Y0165721D01*
X0192156Y0165956D02*
X0194478Y0165956D01*
X0194478Y0164461D02*
X0194478Y0163911D01*
X0192156Y0163911D01*
X0192156Y0164461D01*
X0194478Y0164461D01*
X0194478Y0164146D02*
X0192156Y0164146D01*
X0192156Y0164381D02*
X0194478Y0164381D01*
X0194478Y0162886D02*
X0194478Y0162336D01*
X0192156Y0162336D01*
X0192156Y0162886D01*
X0194478Y0162886D01*
X0194478Y0162571D02*
X0192156Y0162571D01*
X0192156Y0162806D02*
X0194478Y0162806D01*
X0194478Y0161311D02*
X0194478Y0160761D01*
X0192156Y0160761D01*
X0192156Y0161311D01*
X0194478Y0161311D01*
X0194478Y0160996D02*
X0192156Y0160996D01*
X0192156Y0161231D02*
X0194478Y0161231D01*
X0194478Y0159737D02*
X0194478Y0159187D01*
X0192156Y0159187D01*
X0192156Y0159737D01*
X0194478Y0159737D01*
X0194478Y0159422D02*
X0192156Y0159422D01*
X0192156Y0159657D02*
X0194478Y0159657D01*
X0194478Y0158162D02*
X0194478Y0157612D01*
X0192156Y0157612D01*
X0192156Y0158162D01*
X0194478Y0158162D01*
X0194478Y0157847D02*
X0192156Y0157847D01*
X0192156Y0158082D02*
X0194478Y0158082D01*
X0194478Y0156587D02*
X0194478Y0156037D01*
X0192156Y0156037D01*
X0192156Y0156587D01*
X0194478Y0156587D01*
X0194478Y0156272D02*
X0192156Y0156272D01*
X0192156Y0156507D02*
X0194478Y0156507D01*
X0194478Y0155012D02*
X0194478Y0154462D01*
X0192156Y0154462D01*
X0192156Y0155012D01*
X0194478Y0155012D01*
X0194478Y0154697D02*
X0192156Y0154697D01*
X0192156Y0154932D02*
X0194478Y0154932D01*
X0194478Y0153437D02*
X0194478Y0152887D01*
X0192156Y0152887D01*
X0192156Y0153437D01*
X0194478Y0153437D01*
X0194478Y0153122D02*
X0192156Y0153122D01*
X0192156Y0153357D02*
X0194478Y0153357D01*
X0190836Y0149245D02*
X0190286Y0149245D01*
X0190286Y0151567D01*
X0190836Y0151567D01*
X0190836Y0149245D01*
X0190836Y0149480D02*
X0190286Y0149480D01*
X0190286Y0149715D02*
X0190836Y0149715D01*
X0190836Y0149950D02*
X0190286Y0149950D01*
X0190286Y0150185D02*
X0190836Y0150185D01*
X0190836Y0150420D02*
X0190286Y0150420D01*
X0190286Y0150655D02*
X0190836Y0150655D01*
X0190836Y0150890D02*
X0190286Y0150890D01*
X0190286Y0151125D02*
X0190836Y0151125D01*
X0190836Y0151360D02*
X0190286Y0151360D01*
X0189262Y0149245D02*
X0188712Y0149245D01*
X0188712Y0151567D01*
X0189262Y0151567D01*
X0189262Y0149245D01*
X0189262Y0149480D02*
X0188712Y0149480D01*
X0188712Y0149715D02*
X0189262Y0149715D01*
X0189262Y0149950D02*
X0188712Y0149950D01*
X0188712Y0150185D02*
X0189262Y0150185D01*
X0189262Y0150420D02*
X0188712Y0150420D01*
X0188712Y0150655D02*
X0189262Y0150655D01*
X0189262Y0150890D02*
X0188712Y0150890D01*
X0188712Y0151125D02*
X0189262Y0151125D01*
X0189262Y0151360D02*
X0188712Y0151360D01*
X0187687Y0149245D02*
X0187137Y0149245D01*
X0187137Y0151567D01*
X0187687Y0151567D01*
X0187687Y0149245D01*
X0187687Y0149480D02*
X0187137Y0149480D01*
X0187137Y0149715D02*
X0187687Y0149715D01*
X0187687Y0149950D02*
X0187137Y0149950D01*
X0187137Y0150185D02*
X0187687Y0150185D01*
X0187687Y0150420D02*
X0187137Y0150420D01*
X0187137Y0150655D02*
X0187687Y0150655D01*
X0187687Y0150890D02*
X0187137Y0150890D01*
X0187137Y0151125D02*
X0187687Y0151125D01*
X0187687Y0151360D02*
X0187137Y0151360D01*
X0186112Y0149245D02*
X0185562Y0149245D01*
X0185562Y0151567D01*
X0186112Y0151567D01*
X0186112Y0149245D01*
X0186112Y0149480D02*
X0185562Y0149480D01*
X0185562Y0149715D02*
X0186112Y0149715D01*
X0186112Y0149950D02*
X0185562Y0149950D01*
X0185562Y0150185D02*
X0186112Y0150185D01*
X0186112Y0150420D02*
X0185562Y0150420D01*
X0185562Y0150655D02*
X0186112Y0150655D01*
X0186112Y0150890D02*
X0185562Y0150890D01*
X0185562Y0151125D02*
X0186112Y0151125D01*
X0186112Y0151360D02*
X0185562Y0151360D01*
X0184537Y0149245D02*
X0183987Y0149245D01*
X0183987Y0151567D01*
X0184537Y0151567D01*
X0184537Y0149245D01*
X0184537Y0149480D02*
X0183987Y0149480D01*
X0183987Y0149715D02*
X0184537Y0149715D01*
X0184537Y0149950D02*
X0183987Y0149950D01*
X0183987Y0150185D02*
X0184537Y0150185D01*
X0184537Y0150420D02*
X0183987Y0150420D01*
X0183987Y0150655D02*
X0184537Y0150655D01*
X0184537Y0150890D02*
X0183987Y0150890D01*
X0183987Y0151125D02*
X0184537Y0151125D01*
X0184537Y0151360D02*
X0183987Y0151360D01*
X0182962Y0149245D02*
X0182412Y0149245D01*
X0182412Y0151567D01*
X0182962Y0151567D01*
X0182962Y0149245D01*
X0182962Y0149480D02*
X0182412Y0149480D01*
X0182412Y0149715D02*
X0182962Y0149715D01*
X0182962Y0149950D02*
X0182412Y0149950D01*
X0182412Y0150185D02*
X0182962Y0150185D01*
X0182962Y0150420D02*
X0182412Y0150420D01*
X0182412Y0150655D02*
X0182962Y0150655D01*
X0182962Y0150890D02*
X0182412Y0150890D01*
X0182412Y0151125D02*
X0182962Y0151125D01*
X0182962Y0151360D02*
X0182412Y0151360D01*
X0181388Y0149245D02*
X0180838Y0149245D01*
X0180838Y0151567D01*
X0181388Y0151567D01*
X0181388Y0149245D01*
X0181388Y0149480D02*
X0180838Y0149480D01*
X0180838Y0149715D02*
X0181388Y0149715D01*
X0181388Y0149950D02*
X0180838Y0149950D01*
X0180838Y0150185D02*
X0181388Y0150185D01*
X0181388Y0150420D02*
X0180838Y0150420D01*
X0180838Y0150655D02*
X0181388Y0150655D01*
X0181388Y0150890D02*
X0180838Y0150890D01*
X0180838Y0151125D02*
X0181388Y0151125D01*
X0181388Y0151360D02*
X0180838Y0151360D01*
X0179813Y0149245D02*
X0179263Y0149245D01*
X0179263Y0151567D01*
X0179813Y0151567D01*
X0179813Y0149245D01*
X0179813Y0149480D02*
X0179263Y0149480D01*
X0179263Y0149715D02*
X0179813Y0149715D01*
X0179813Y0149950D02*
X0179263Y0149950D01*
X0179263Y0150185D02*
X0179813Y0150185D01*
X0179813Y0150420D02*
X0179263Y0150420D01*
X0179263Y0150655D02*
X0179813Y0150655D01*
X0179813Y0150890D02*
X0179263Y0150890D01*
X0179263Y0151125D02*
X0179813Y0151125D01*
X0179813Y0151360D02*
X0179263Y0151360D01*
X0178238Y0149245D02*
X0177688Y0149245D01*
X0177688Y0151567D01*
X0178238Y0151567D01*
X0178238Y0149245D01*
X0178238Y0149480D02*
X0177688Y0149480D01*
X0177688Y0149715D02*
X0178238Y0149715D01*
X0178238Y0149950D02*
X0177688Y0149950D01*
X0177688Y0150185D02*
X0178238Y0150185D01*
X0178238Y0150420D02*
X0177688Y0150420D01*
X0177688Y0150655D02*
X0178238Y0150655D01*
X0178238Y0150890D02*
X0177688Y0150890D01*
X0177688Y0151125D02*
X0178238Y0151125D01*
X0178238Y0151360D02*
X0177688Y0151360D01*
X0176663Y0149245D02*
X0176113Y0149245D01*
X0176113Y0151567D01*
X0176663Y0151567D01*
X0176663Y0149245D01*
X0176663Y0149480D02*
X0176113Y0149480D01*
X0176113Y0149715D02*
X0176663Y0149715D01*
X0176663Y0149950D02*
X0176113Y0149950D01*
X0176113Y0150185D02*
X0176663Y0150185D01*
X0176663Y0150420D02*
X0176113Y0150420D01*
X0176113Y0150655D02*
X0176663Y0150655D01*
X0176663Y0150890D02*
X0176113Y0150890D01*
X0176113Y0151125D02*
X0176663Y0151125D01*
X0176663Y0151360D02*
X0176113Y0151360D01*
X0175088Y0149245D02*
X0174538Y0149245D01*
X0174538Y0151567D01*
X0175088Y0151567D01*
X0175088Y0149245D01*
X0175088Y0149480D02*
X0174538Y0149480D01*
X0174538Y0149715D02*
X0175088Y0149715D01*
X0175088Y0149950D02*
X0174538Y0149950D01*
X0174538Y0150185D02*
X0175088Y0150185D01*
X0175088Y0150420D02*
X0174538Y0150420D01*
X0174538Y0150655D02*
X0175088Y0150655D01*
X0175088Y0150890D02*
X0174538Y0150890D01*
X0174538Y0151125D02*
X0175088Y0151125D01*
X0175088Y0151360D02*
X0174538Y0151360D01*
X0173514Y0149245D02*
X0172964Y0149245D01*
X0172964Y0151567D01*
X0173514Y0151567D01*
X0173514Y0149245D01*
X0173514Y0149480D02*
X0172964Y0149480D01*
X0172964Y0149715D02*
X0173514Y0149715D01*
X0173514Y0149950D02*
X0172964Y0149950D01*
X0172964Y0150185D02*
X0173514Y0150185D01*
X0173514Y0150420D02*
X0172964Y0150420D01*
X0172964Y0150655D02*
X0173514Y0150655D01*
X0173514Y0150890D02*
X0172964Y0150890D01*
X0172964Y0151125D02*
X0173514Y0151125D01*
X0173514Y0151360D02*
X0172964Y0151360D01*
X0169322Y0152887D02*
X0169322Y0153437D01*
X0171644Y0153437D01*
X0171644Y0152887D01*
X0169322Y0152887D01*
X0169322Y0153122D02*
X0171644Y0153122D01*
X0171644Y0153357D02*
X0169322Y0153357D01*
X0169322Y0154462D02*
X0169322Y0155012D01*
X0171644Y0155012D01*
X0171644Y0154462D01*
X0169322Y0154462D01*
X0169322Y0154697D02*
X0171644Y0154697D01*
X0171644Y0154932D02*
X0169322Y0154932D01*
X0169322Y0156037D02*
X0169322Y0156587D01*
X0171644Y0156587D01*
X0171644Y0156037D01*
X0169322Y0156037D01*
X0169322Y0156272D02*
X0171644Y0156272D01*
X0171644Y0156507D02*
X0169322Y0156507D01*
X0169322Y0157612D02*
X0169322Y0158162D01*
X0171644Y0158162D01*
X0171644Y0157612D01*
X0169322Y0157612D01*
X0169322Y0157847D02*
X0171644Y0157847D01*
X0171644Y0158082D02*
X0169322Y0158082D01*
X0169322Y0159187D02*
X0169322Y0159737D01*
X0171644Y0159737D01*
X0171644Y0159187D01*
X0169322Y0159187D01*
X0169322Y0159422D02*
X0171644Y0159422D01*
X0171644Y0159657D02*
X0169322Y0159657D01*
X0169322Y0160761D02*
X0169322Y0161311D01*
X0171644Y0161311D01*
X0171644Y0160761D01*
X0169322Y0160761D01*
X0169322Y0160996D02*
X0171644Y0160996D01*
X0171644Y0161231D02*
X0169322Y0161231D01*
X0169322Y0162336D02*
X0169322Y0162886D01*
X0171644Y0162886D01*
X0171644Y0162336D01*
X0169322Y0162336D01*
X0169322Y0162571D02*
X0171644Y0162571D01*
X0171644Y0162806D02*
X0169322Y0162806D01*
X0169322Y0163911D02*
X0169322Y0164461D01*
X0171644Y0164461D01*
X0171644Y0163911D01*
X0169322Y0163911D01*
X0169322Y0164146D02*
X0171644Y0164146D01*
X0171644Y0164381D02*
X0169322Y0164381D01*
X0169322Y0165486D02*
X0169322Y0166036D01*
X0171644Y0166036D01*
X0171644Y0165486D01*
X0169322Y0165486D01*
X0169322Y0165721D02*
X0171644Y0165721D01*
X0171644Y0165956D02*
X0169322Y0165956D01*
D27*
X0177117Y0189300D03*
X0191683Y0189300D03*
D28*
X0081900Y0201800D03*
X0071900Y0201800D03*
X0061900Y0201800D03*
D29*
X0137215Y0117233D03*
X0142215Y0117233D03*
X0147215Y0117233D03*
X0152215Y0117233D03*
X0157215Y0117233D03*
X0162215Y0117233D03*
X0167215Y0117233D03*
X0172215Y0117233D03*
X0177215Y0117233D03*
X0182215Y0117233D03*
X0187215Y0117233D03*
X0192215Y0117233D03*
X0197215Y0117233D03*
X0202215Y0117233D03*
X0202215Y0046367D03*
X0197215Y0046367D03*
X0192215Y0046367D03*
X0187215Y0046367D03*
X0182215Y0046367D03*
X0177215Y0046367D03*
X0172215Y0046367D03*
X0167215Y0046367D03*
X0162215Y0046367D03*
X0157215Y0046367D03*
X0152215Y0046367D03*
X0147215Y0046367D03*
X0142215Y0046367D03*
X0137215Y0046367D03*
D30*
X0131349Y0059300D03*
X0131349Y0064300D03*
X0131349Y0069300D03*
X0131349Y0074300D03*
X0131349Y0079300D03*
X0131349Y0084300D03*
X0131349Y0089300D03*
X0131349Y0094300D03*
X0131349Y0099300D03*
X0131349Y0104300D03*
D31*
X0171900Y0081800D03*
D32*
X0108657Y0099167D03*
X0099557Y0099167D03*
X0090457Y0099167D03*
D33*
X0099557Y0123568D03*
D34*
X0067884Y0120540D02*
X0067884Y0128414D01*
X0043081Y0128414D02*
X0043081Y0120540D01*
X0052136Y0104792D02*
X0060010Y0104792D01*
D35*
X0051900Y0091800D03*
X0051900Y0081800D03*
X0051900Y0071800D03*
X0051900Y0061800D03*
X0051900Y0051800D03*
X0051900Y0041800D03*
X0051900Y0026800D03*
X0061900Y0026800D03*
X0071900Y0026800D03*
X0081900Y0026800D03*
X0091900Y0026800D03*
X0101900Y0026800D03*
X0111900Y0026800D03*
X0121900Y0026800D03*
X0131900Y0026800D03*
X0141900Y0026800D03*
X0151900Y0026800D03*
X0161900Y0026800D03*
X0171900Y0026800D03*
X0181900Y0026800D03*
X0191900Y0026800D03*
X0201900Y0026800D03*
X0119400Y0049300D03*
X0119400Y0059300D03*
X0119400Y0069300D03*
X0119400Y0079300D03*
X0119400Y0089300D03*
X0119400Y0099300D03*
D36*
X0110500Y0078400D03*
X0092500Y0078400D03*
X0080300Y0078500D03*
X0062300Y0078500D03*
X0062300Y0052500D03*
X0080300Y0052500D03*
X0092500Y0052400D03*
X0110500Y0052400D03*
D37*
X0042090Y0022407D02*
X0040692Y0021600D01*
X0050429Y0021600D01*
X0049827Y0021796D01*
X0049070Y0022182D01*
X0048382Y0022681D01*
X0047781Y0023282D01*
X0047282Y0023970D01*
X0046896Y0024727D01*
X0046633Y0025535D01*
X0046500Y0026375D01*
X0046500Y0026650D01*
X0051750Y0026650D01*
X0051750Y0026950D01*
X0051750Y0032200D01*
X0051475Y0032200D01*
X0050635Y0032067D01*
X0049827Y0031804D01*
X0049070Y0031418D01*
X0048382Y0030919D01*
X0047781Y0030318D01*
X0047282Y0029630D01*
X0046896Y0028873D01*
X0046633Y0028065D01*
X0046500Y0027225D01*
X0046500Y0026950D01*
X0051750Y0026950D01*
X0052050Y0026950D01*
X0052050Y0032200D01*
X0052325Y0032200D01*
X0053165Y0032067D01*
X0053973Y0031804D01*
X0054730Y0031418D01*
X0055418Y0030919D01*
X0056019Y0030318D01*
X0056518Y0029630D01*
X0056551Y0029566D01*
X0056813Y0030199D01*
X0058501Y0031887D01*
X0060707Y0032800D01*
X0063093Y0032800D01*
X0063492Y0032635D01*
X0064757Y0033900D01*
X0061323Y0033900D01*
X0060257Y0034341D01*
X0059441Y0035157D01*
X0056144Y0038455D01*
X0056019Y0038282D01*
X0055418Y0037681D01*
X0054730Y0037182D01*
X0053973Y0036796D01*
X0053165Y0036533D01*
X0052325Y0036400D01*
X0052050Y0036400D01*
X0052050Y0041650D01*
X0051750Y0041650D01*
X0051750Y0036400D01*
X0051475Y0036400D01*
X0050635Y0036533D01*
X0049827Y0036796D01*
X0049070Y0037182D01*
X0048382Y0037681D01*
X0047781Y0038282D01*
X0047282Y0038970D01*
X0046896Y0039727D01*
X0046633Y0040535D01*
X0046500Y0041375D01*
X0046500Y0041650D01*
X0051750Y0041650D01*
X0051750Y0041950D01*
X0046500Y0041950D01*
X0046500Y0042225D01*
X0046633Y0043065D01*
X0046896Y0043873D01*
X0047282Y0044630D01*
X0047781Y0045318D01*
X0048382Y0045919D01*
X0049070Y0046418D01*
X0049134Y0046451D01*
X0048501Y0046713D01*
X0046813Y0048401D01*
X0045900Y0050607D01*
X0045900Y0052993D01*
X0046244Y0053824D01*
X0045201Y0054257D01*
X0042701Y0056757D01*
X0041857Y0057601D01*
X0041400Y0058703D01*
X0041400Y0077397D01*
X0041857Y0078499D01*
X0045900Y0082543D01*
X0045900Y0082993D01*
X0046813Y0085199D01*
X0048415Y0086800D01*
X0046813Y0088401D01*
X0045900Y0090607D01*
X0045900Y0092993D01*
X0046813Y0095199D01*
X0048501Y0096887D01*
X0050707Y0097800D01*
X0053093Y0097800D01*
X0055299Y0096887D01*
X0056987Y0095199D01*
X0057488Y0093989D01*
X0059441Y0095943D01*
X0060257Y0096758D01*
X0061323Y0097200D01*
X0063057Y0097200D01*
X0066146Y0100288D01*
X0067248Y0100745D01*
X0069924Y0100745D01*
X0070141Y0101270D01*
X0070816Y0101945D01*
X0071698Y0102310D01*
X0074256Y0102310D01*
X0074179Y0102444D01*
X0074416Y0102033D01*
X0074751Y0101698D01*
X0075162Y0101461D01*
X0075620Y0101339D01*
X0078625Y0101339D01*
X0078625Y0105513D01*
X0080175Y0105513D01*
X0080175Y0101339D01*
X0083180Y0101339D01*
X0083638Y0101461D01*
X0084049Y0101698D01*
X0084384Y0102033D01*
X0084621Y0102444D01*
X0084743Y0102902D01*
X0084743Y0105513D01*
X0080175Y0105513D01*
X0080175Y0107063D01*
X0084743Y0107063D01*
X0084743Y0109300D01*
X0091900Y0109300D01*
X0091900Y0105367D01*
X0090857Y0105367D01*
X0090857Y0099567D01*
X0090057Y0099567D01*
X0090057Y0098767D01*
X0086257Y0098767D01*
X0086257Y0096800D01*
X0084205Y0096800D01*
X0084205Y0100490D01*
X0083385Y0101310D01*
X0078289Y0101310D01*
X0077491Y0100512D01*
X0076692Y0101310D01*
X0071596Y0101310D01*
X0070776Y0100490D01*
X0070776Y0099745D01*
X0067016Y0099745D01*
X0064072Y0096800D01*
X0036900Y0096800D01*
X0036900Y0124300D01*
X0042897Y0124300D01*
X0042897Y0124293D01*
X0043265Y0124293D01*
X0043265Y0114803D01*
X0043533Y0114803D01*
X0044425Y0114944D01*
X0045283Y0115223D01*
X0046088Y0115633D01*
X0046819Y0116164D01*
X0047457Y0116803D01*
X0047988Y0117533D01*
X0048398Y0118338D01*
X0048677Y0119197D01*
X0048818Y0120089D01*
X0048818Y0124293D01*
X0043265Y0124293D01*
X0043265Y0124300D01*
X0059400Y0124300D01*
X0059400Y0110529D01*
X0056257Y0110529D01*
X0056257Y0104976D01*
X0055889Y0104976D01*
X0055889Y0104608D01*
X0046399Y0104608D01*
X0046399Y0104341D01*
X0046540Y0103449D01*
X0046820Y0102590D01*
X0047229Y0101785D01*
X0047760Y0101055D01*
X0048399Y0100416D01*
X0049129Y0099885D01*
X0049934Y0099475D01*
X0050793Y0099196D01*
X0051685Y0099055D01*
X0055889Y0099055D01*
X0055889Y0104608D01*
X0056257Y0104608D01*
X0056257Y0099055D01*
X0060462Y0099055D01*
X0061354Y0099196D01*
X0062212Y0099475D01*
X0063017Y0099885D01*
X0063748Y0100416D01*
X0064386Y0101055D01*
X0064917Y0101785D01*
X0065327Y0102590D01*
X0065606Y0103449D01*
X0065747Y0104341D01*
X0065747Y0104608D01*
X0056258Y0104608D01*
X0056258Y0104976D01*
X0065747Y0104976D01*
X0065747Y0105244D01*
X0065606Y0106136D01*
X0065327Y0106994D01*
X0064917Y0107799D01*
X0064386Y0108530D01*
X0063748Y0109168D01*
X0063566Y0109300D01*
X0074057Y0109300D01*
X0074057Y0107063D01*
X0078625Y0107063D01*
X0078625Y0105513D01*
X0074057Y0105513D01*
X0074057Y0102902D01*
X0074179Y0102444D01*
X0074057Y0102902D01*
X0074057Y0104437D01*
X0065747Y0104457D01*
X0065747Y0104341D01*
X0065606Y0103449D01*
X0065327Y0102590D01*
X0064917Y0101785D01*
X0064386Y0101055D01*
X0063748Y0100416D01*
X0063017Y0099885D01*
X0062212Y0099475D01*
X0061354Y0099196D01*
X0060462Y0099055D01*
X0056257Y0099055D01*
X0056257Y0104481D01*
X0055889Y0104482D01*
X0055889Y0099055D01*
X0051685Y0099055D01*
X0050793Y0099196D01*
X0049934Y0099475D01*
X0049129Y0099885D01*
X0048399Y0100416D01*
X0047760Y0101055D01*
X0047229Y0101785D01*
X0046820Y0102590D01*
X0046540Y0103449D01*
X0046399Y0104341D01*
X0046399Y0104505D01*
X0029200Y0104548D01*
X0029200Y0038683D01*
X0029427Y0038910D01*
X0031778Y0040267D01*
X0034401Y0040970D01*
X0037116Y0040970D01*
X0039738Y0040267D01*
X0042090Y0038910D01*
X0044010Y0036990D01*
X0045367Y0034638D01*
X0046070Y0032016D01*
X0046070Y0029301D01*
X0045367Y0026678D01*
X0044010Y0024327D01*
X0042090Y0022407D01*
X0041393Y0022004D02*
X0049417Y0022004D01*
X0047548Y0023603D02*
X0043286Y0023603D01*
X0044515Y0025201D02*
X0046741Y0025201D01*
X0045400Y0026800D02*
X0051750Y0026800D01*
X0051750Y0028399D02*
X0052050Y0028399D01*
X0052050Y0029997D02*
X0051750Y0029997D01*
X0051750Y0031596D02*
X0052050Y0031596D01*
X0054383Y0031596D02*
X0058210Y0031596D01*
X0056730Y0029997D02*
X0056252Y0029997D01*
X0059806Y0034793D02*
X0045278Y0034793D01*
X0045754Y0033194D02*
X0064051Y0033194D01*
X0058208Y0036391D02*
X0044355Y0036391D01*
X0043010Y0037990D02*
X0048074Y0037990D01*
X0046966Y0039588D02*
X0040915Y0039588D01*
X0046530Y0041187D02*
X0029200Y0041187D01*
X0029200Y0042785D02*
X0046589Y0042785D01*
X0047156Y0044384D02*
X0029200Y0044384D01*
X0029200Y0045982D02*
X0048469Y0045982D01*
X0047634Y0047581D02*
X0029200Y0047581D01*
X0029200Y0049179D02*
X0046491Y0049179D01*
X0045900Y0050778D02*
X0029200Y0050778D01*
X0029200Y0052376D02*
X0045900Y0052376D01*
X0045882Y0053975D02*
X0029200Y0053975D01*
X0029200Y0055573D02*
X0043884Y0055573D01*
X0042286Y0057172D02*
X0029200Y0057172D01*
X0029200Y0058770D02*
X0041400Y0058770D01*
X0041400Y0060369D02*
X0029200Y0060369D01*
X0029200Y0061967D02*
X0041400Y0061967D01*
X0041400Y0063566D02*
X0029200Y0063566D01*
X0029200Y0065164D02*
X0041400Y0065164D01*
X0041400Y0066763D02*
X0029200Y0066763D01*
X0029200Y0068361D02*
X0041400Y0068361D01*
X0041400Y0069960D02*
X0029200Y0069960D01*
X0029200Y0071558D02*
X0041400Y0071558D01*
X0041400Y0073157D02*
X0029200Y0073157D01*
X0029200Y0074755D02*
X0041400Y0074755D01*
X0041400Y0076354D02*
X0029200Y0076354D01*
X0029200Y0077952D02*
X0041630Y0077952D01*
X0042908Y0079551D02*
X0029200Y0079551D01*
X0029200Y0081149D02*
X0044507Y0081149D01*
X0045900Y0082748D02*
X0029200Y0082748D01*
X0029200Y0084346D02*
X0046460Y0084346D01*
X0047560Y0085945D02*
X0029200Y0085945D01*
X0029200Y0087543D02*
X0047671Y0087543D01*
X0046507Y0089142D02*
X0029200Y0089142D01*
X0029200Y0090740D02*
X0045900Y0090740D01*
X0045900Y0092339D02*
X0029200Y0092339D01*
X0029200Y0093937D02*
X0046291Y0093937D01*
X0047151Y0095536D02*
X0029200Y0095536D01*
X0029200Y0097134D02*
X0049100Y0097134D01*
X0048515Y0100332D02*
X0036900Y0100332D01*
X0036900Y0101930D02*
X0047156Y0101930D01*
X0029200Y0101930D01*
X0029200Y0100332D02*
X0048515Y0100332D01*
X0046528Y0103529D02*
X0036900Y0103529D01*
X0036900Y0105127D02*
X0046399Y0105127D01*
X0046399Y0105244D02*
X0046399Y0104976D01*
X0055889Y0104976D01*
X0055889Y0110529D01*
X0051685Y0110529D01*
X0050793Y0110388D01*
X0049934Y0110109D01*
X0049129Y0109699D01*
X0048399Y0109168D01*
X0047760Y0108530D01*
X0047229Y0107799D01*
X0046820Y0106994D01*
X0046540Y0106136D01*
X0046399Y0105244D01*
X0046732Y0106726D02*
X0036900Y0106726D01*
X0036900Y0108324D02*
X0047611Y0108324D01*
X0049568Y0109923D02*
X0036900Y0109923D01*
X0036900Y0111521D02*
X0059400Y0111521D01*
X0059400Y0113120D02*
X0036900Y0113120D01*
X0036900Y0114718D02*
X0059400Y0114718D01*
X0059400Y0116317D02*
X0046971Y0116317D01*
X0048182Y0117915D02*
X0059400Y0117915D01*
X0059400Y0119514D02*
X0048727Y0119514D01*
X0048818Y0121112D02*
X0059400Y0121112D01*
X0059400Y0122711D02*
X0048818Y0122711D01*
X0043265Y0122711D02*
X0042897Y0122711D01*
X0042897Y0124293D02*
X0042897Y0114803D01*
X0042630Y0114803D01*
X0041738Y0114944D01*
X0040879Y0115223D01*
X0040074Y0115633D01*
X0039344Y0116164D01*
X0038705Y0116803D01*
X0038174Y0117533D01*
X0037764Y0118338D01*
X0037485Y0119197D01*
X0037344Y0120089D01*
X0037344Y0124293D01*
X0042897Y0124293D01*
X0043081Y0124477D02*
X0054223Y0124477D01*
X0054400Y0124300D01*
X0054400Y0106465D01*
X0056073Y0104792D01*
X0057569Y0106288D01*
X0079400Y0106288D01*
X0080175Y0106726D02*
X0091900Y0106726D01*
X0091900Y0108324D02*
X0084743Y0108324D01*
X0084743Y0105127D02*
X0087160Y0105127D01*
X0087363Y0105244D02*
X0086952Y0105007D01*
X0086617Y0104672D01*
X0086380Y0104262D01*
X0086257Y0103804D01*
X0086257Y0099567D01*
X0090057Y0099567D01*
X0090057Y0098767D01*
X0086257Y0098767D01*
X0086257Y0094530D01*
X0086380Y0094072D01*
X0086617Y0093662D01*
X0086952Y0093327D01*
X0087363Y0093090D01*
X0087820Y0092967D01*
X0090057Y0092967D01*
X0090057Y0098767D01*
X0090857Y0098767D01*
X0090857Y0092967D01*
X0093094Y0092967D01*
X0093552Y0093090D01*
X0093963Y0093327D01*
X0094298Y0093662D01*
X0094535Y0094072D01*
X0094657Y0094530D01*
X0094657Y0098767D01*
X0090858Y0098767D01*
X0090858Y0099567D01*
X0094657Y0099567D01*
X0094657Y0103804D01*
X0094535Y0104262D01*
X0094463Y0104386D01*
X0094899Y0104385D01*
X0094757Y0104044D01*
X0094757Y0094290D01*
X0095123Y0093407D01*
X0095798Y0092732D01*
X0095957Y0092666D01*
X0095957Y0090400D01*
X0086015Y0090400D01*
X0084437Y0093683D01*
X0084437Y0093817D01*
X0084840Y0094220D01*
X0085205Y0095102D01*
X0085205Y0100388D01*
X0084840Y0101270D01*
X0084230Y0101880D01*
X0084384Y0102033D01*
X0084621Y0102444D01*
X0084743Y0102902D01*
X0084743Y0104410D01*
X0086464Y0104406D01*
X0086380Y0104262D01*
X0086257Y0103804D01*
X0086257Y0099567D01*
X0090057Y0099567D01*
X0090057Y0105367D01*
X0087820Y0105367D01*
X0087363Y0105244D01*
X0086257Y0103529D02*
X0084743Y0103529D01*
X0086257Y0103529D01*
X0086257Y0101930D02*
X0084280Y0101930D01*
X0086257Y0101930D01*
X0086257Y0100332D02*
X0084205Y0100332D01*
X0085205Y0100332D02*
X0086257Y0100332D01*
X0086257Y0098733D02*
X0084205Y0098733D01*
X0085205Y0098733D02*
X0086257Y0098733D01*
X0086257Y0097134D02*
X0084205Y0097134D01*
X0085205Y0097134D02*
X0086257Y0097134D01*
X0086257Y0095536D02*
X0085205Y0095536D01*
X0084558Y0093937D02*
X0086458Y0093937D01*
X0085083Y0092339D02*
X0095957Y0092339D01*
X0095957Y0090740D02*
X0085851Y0090740D01*
X0090457Y0093243D02*
X0091900Y0091800D01*
X0090457Y0093243D02*
X0090457Y0099167D01*
X0090057Y0098733D02*
X0090857Y0098733D01*
X0090857Y0097134D02*
X0090057Y0097134D01*
X0090057Y0095536D02*
X0090857Y0095536D01*
X0090857Y0093937D02*
X0090057Y0093937D01*
X0094457Y0093937D02*
X0094903Y0093937D01*
X0094757Y0095536D02*
X0094657Y0095536D01*
X0094657Y0097134D02*
X0094757Y0097134D01*
X0094757Y0098733D02*
X0094657Y0098733D01*
X0094657Y0100332D02*
X0094757Y0100332D01*
X0094757Y0101930D02*
X0094657Y0101930D01*
X0094657Y0103529D02*
X0094757Y0103529D01*
X0090857Y0103529D02*
X0090057Y0103529D01*
X0090057Y0105127D02*
X0090857Y0105127D01*
X0090857Y0101930D02*
X0090057Y0101930D01*
X0090057Y0100332D02*
X0090857Y0100332D01*
X0080175Y0101930D02*
X0078625Y0101930D01*
X0078625Y0103529D02*
X0080175Y0103529D01*
X0080175Y0105127D02*
X0078625Y0105127D01*
X0078625Y0106726D02*
X0065414Y0106726D01*
X0065747Y0105127D02*
X0074057Y0105127D01*
X0074057Y0103529D02*
X0065619Y0103529D01*
X0074057Y0103529D01*
X0074520Y0101930D02*
X0064991Y0101930D01*
X0070801Y0101930D01*
X0070776Y0100332D02*
X0063631Y0100332D01*
X0066250Y0100332D01*
X0066005Y0098733D02*
X0036900Y0098733D01*
X0036900Y0097134D02*
X0064406Y0097134D01*
X0064590Y0098733D02*
X0029200Y0098733D01*
X0029200Y0103529D02*
X0046528Y0103529D01*
X0054700Y0097134D02*
X0061165Y0097134D01*
X0059035Y0095536D02*
X0056649Y0095536D01*
X0056257Y0100332D02*
X0055889Y0100332D01*
X0056257Y0100332D01*
X0056257Y0101930D02*
X0055889Y0101930D01*
X0056257Y0101930D01*
X0056257Y0103529D02*
X0055889Y0103529D01*
X0056257Y0103529D01*
X0056257Y0105127D02*
X0055889Y0105127D01*
X0055889Y0106726D02*
X0056257Y0106726D01*
X0056257Y0108324D02*
X0055889Y0108324D01*
X0055889Y0109923D02*
X0056257Y0109923D01*
X0064535Y0108324D02*
X0074057Y0108324D01*
X0074144Y0097745D02*
X0072845Y0097745D01*
X0074400Y0084300D02*
X0069400Y0079300D01*
X0072300Y0077675D02*
X0072300Y0075501D01*
X0073101Y0074700D01*
X0075500Y0074700D01*
X0075500Y0077800D01*
X0079600Y0077800D01*
X0079600Y0079200D01*
X0075500Y0079200D01*
X0075500Y0080816D01*
X0075432Y0080807D01*
X0072300Y0077675D01*
X0072578Y0077952D02*
X0079600Y0077952D01*
X0081000Y0077952D02*
X0091800Y0077952D01*
X0091800Y0077700D02*
X0087700Y0077700D01*
X0087700Y0073663D01*
X0087823Y0073205D01*
X0088060Y0072795D01*
X0088395Y0072460D01*
X0088805Y0072223D01*
X0089263Y0072100D01*
X0091800Y0072100D01*
X0091800Y0077700D01*
X0093200Y0077700D01*
X0093200Y0072100D01*
X0095737Y0072100D01*
X0096195Y0072223D01*
X0096209Y0072231D01*
X0096201Y0063189D01*
X0096126Y0063189D01*
X0094697Y0062597D01*
X0093603Y0061503D01*
X0093011Y0060074D01*
X0093011Y0059300D01*
X0089023Y0059300D01*
X0088141Y0058935D01*
X0087465Y0058259D01*
X0087300Y0057860D01*
X0087300Y0069877D01*
X0086858Y0070943D01*
X0084801Y0073000D01*
X0084977Y0073305D01*
X0085100Y0073763D01*
X0085100Y0077800D01*
X0081000Y0077800D01*
X0081000Y0079200D01*
X0085100Y0079200D01*
X0085100Y0083200D01*
X0087717Y0083200D01*
X0087700Y0083137D01*
X0087700Y0079100D01*
X0091800Y0079100D01*
X0091800Y0077700D01*
X0091800Y0076354D02*
X0093200Y0076354D01*
X0093200Y0074755D02*
X0091800Y0074755D01*
X0091800Y0073157D02*
X0093200Y0073157D01*
X0096208Y0071558D02*
X0086243Y0071558D01*
X0087266Y0069960D02*
X0096207Y0069960D01*
X0096206Y0068361D02*
X0087300Y0068361D01*
X0087300Y0066763D02*
X0096204Y0066763D01*
X0096203Y0065164D02*
X0087300Y0065164D01*
X0087300Y0063566D02*
X0096202Y0063566D01*
X0094067Y0061967D02*
X0087300Y0061967D01*
X0087300Y0060369D02*
X0093133Y0060369D01*
X0096900Y0059300D02*
X0099400Y0061800D01*
X0099409Y0072300D01*
X0099400Y0086800D01*
X0101900Y0086800D02*
X0102966Y0088234D01*
X0102271Y0088234D01*
X0103344Y0092760D02*
X0103992Y0093407D01*
X0104107Y0093686D01*
X0104223Y0093407D01*
X0104898Y0092732D01*
X0105780Y0092367D01*
X0111535Y0092367D01*
X0112417Y0092732D01*
X0113092Y0093407D01*
X0113457Y0094290D01*
X0113457Y0097968D01*
X0114313Y0095901D01*
X0115915Y0094300D01*
X0114313Y0092699D01*
X0113400Y0090493D01*
X0113400Y0088107D01*
X0114313Y0085901D01*
X0115915Y0084300D01*
X0115634Y0084019D01*
X0115535Y0084259D01*
X0114859Y0084935D01*
X0113977Y0085300D01*
X0112840Y0085300D01*
X0112905Y0085413D01*
X0113028Y0085871D01*
X0113028Y0088000D01*
X0109394Y0088000D01*
X0109394Y0088467D01*
X0113028Y0088467D01*
X0113028Y0090597D01*
X0112905Y0091055D01*
X0112668Y0091465D01*
X0112333Y0091800D01*
X0111922Y0092037D01*
X0111465Y0092160D01*
X0109394Y0092160D01*
X0109394Y0088467D01*
X0108927Y0088467D01*
X0108927Y0092160D01*
X0106857Y0092160D01*
X0106399Y0092037D01*
X0106181Y0091911D01*
X0105697Y0092394D01*
X0104815Y0092760D01*
X0103344Y0092760D01*
X0105753Y0092339D02*
X0114164Y0092339D01*
X0113502Y0090740D02*
X0112989Y0090740D01*
X0113028Y0089142D02*
X0113400Y0089142D01*
X0113633Y0087543D02*
X0113028Y0087543D01*
X0113028Y0085945D02*
X0114295Y0085945D01*
X0115448Y0084346D02*
X0115868Y0084346D01*
X0109394Y0089142D02*
X0108927Y0089142D01*
X0108927Y0090740D02*
X0109394Y0090740D01*
X0113312Y0093937D02*
X0115552Y0093937D01*
X0114679Y0095536D02*
X0113457Y0095536D01*
X0113457Y0097134D02*
X0113803Y0097134D01*
X0113457Y0100632D02*
X0113457Y0104044D01*
X0113335Y0104340D01*
X0115948Y0104333D01*
X0114313Y0102699D01*
X0113457Y0100632D01*
X0113457Y0101930D02*
X0113995Y0101930D01*
X0113457Y0103529D02*
X0115143Y0103529D01*
X0122869Y0104316D02*
X0124487Y0102699D01*
X0125400Y0100493D01*
X0125400Y0098107D01*
X0125235Y0097708D01*
X0125643Y0097300D01*
X0125996Y0097300D01*
X0125996Y0101549D01*
X0126361Y0102431D01*
X0126596Y0102666D01*
X0126596Y0104214D01*
X0131263Y0104214D01*
X0131263Y0104386D01*
X0131263Y0107872D01*
X0130661Y0107872D01*
X0133043Y0114623D01*
X0133043Y0113803D01*
X0133409Y0112921D01*
X0133900Y0112430D01*
X0133900Y0111203D01*
X0134357Y0110101D01*
X0135201Y0109257D01*
X0143900Y0100557D01*
X0143900Y0095714D01*
X0142771Y0096181D01*
X0142400Y0096181D01*
X0142400Y0099897D01*
X0141943Y0100999D01*
X0141099Y0101843D01*
X0139997Y0102300D01*
X0136391Y0102300D01*
X0136336Y0102431D01*
X0136102Y0102666D01*
X0136102Y0104214D01*
X0131435Y0104214D01*
X0131435Y0104386D01*
X0136102Y0104386D01*
X0136102Y0106309D01*
X0135979Y0106766D01*
X0135742Y0107177D01*
X0135407Y0107512D01*
X0134996Y0107749D01*
X0134539Y0107872D01*
X0131435Y0107872D01*
X0131435Y0104386D01*
X0131263Y0104386D01*
X0129430Y0104386D01*
X0129400Y0104300D01*
X0122869Y0104316D01*
X0123657Y0103529D02*
X0126596Y0103529D01*
X0126154Y0101930D02*
X0124805Y0101930D01*
X0125400Y0100332D02*
X0125996Y0100332D01*
X0125996Y0098733D02*
X0125400Y0098733D01*
X0131263Y0105127D02*
X0131435Y0105127D01*
X0131435Y0106726D02*
X0131263Y0106726D01*
X0130820Y0108324D02*
X0136133Y0108324D01*
X0135990Y0106726D02*
X0137732Y0106726D01*
X0139330Y0105127D02*
X0136102Y0105127D01*
X0136102Y0103529D02*
X0140929Y0103529D01*
X0140890Y0101930D02*
X0142527Y0101930D01*
X0142220Y0100332D02*
X0143900Y0100332D01*
X0143900Y0098733D02*
X0142400Y0098733D01*
X0142400Y0097134D02*
X0143900Y0097134D01*
X0134535Y0109923D02*
X0131384Y0109923D01*
X0131949Y0111521D02*
X0133900Y0111521D01*
X0133326Y0113120D02*
X0132513Y0113120D01*
X0125019Y0119338D02*
X0125019Y0119862D01*
X0122675Y0119862D01*
X0122675Y0124037D01*
X0122675Y0125587D01*
X0127243Y0125587D01*
X0127243Y0128198D01*
X0127121Y0128656D01*
X0126884Y0129067D01*
X0126650Y0129300D01*
X0131900Y0129300D01*
X0131900Y0122996D01*
X0131882Y0123014D01*
X0130271Y0123681D01*
X0128529Y0123681D01*
X0127243Y0123149D01*
X0127243Y0124037D01*
X0122675Y0124037D01*
X0121125Y0124037D01*
X0116557Y0124037D01*
X0116557Y0121425D01*
X0116679Y0120967D01*
X0116916Y0120557D01*
X0117251Y0120222D01*
X0117662Y0119985D01*
X0118120Y0119862D01*
X0121125Y0119862D01*
X0121125Y0124037D01*
X0121125Y0125587D01*
X0116557Y0125587D01*
X0116557Y0128198D01*
X0116679Y0128656D01*
X0116916Y0129067D01*
X0117150Y0129300D01*
X0108637Y0129300D01*
X0108679Y0129258D01*
X0108703Y0129200D01*
X0112377Y0129200D01*
X0113259Y0128835D01*
X0113935Y0128159D01*
X0114300Y0127277D01*
X0114300Y0123823D01*
X0113935Y0122941D01*
X0113259Y0122265D01*
X0112377Y0121900D01*
X0109044Y0121900D01*
X0109044Y0118760D01*
X0108679Y0117878D01*
X0108004Y0117202D01*
X0107121Y0116837D01*
X0091993Y0116837D01*
X0091111Y0117202D01*
X0090436Y0117878D01*
X0090071Y0118760D01*
X0090071Y0121900D01*
X0088923Y0121900D01*
X0088041Y0122265D01*
X0087365Y0122941D01*
X0087000Y0123823D01*
X0087000Y0127277D01*
X0087365Y0128159D01*
X0088041Y0128835D01*
X0088923Y0129200D01*
X0090412Y0129200D01*
X0090436Y0129258D01*
X0090478Y0129300D01*
X0086900Y0129300D01*
X0086900Y0114300D01*
X0114400Y0114300D01*
X0114400Y0119300D01*
X0117788Y0119300D01*
X0117879Y0119338D01*
X0125019Y0119338D01*
X0125019Y0119514D02*
X0109044Y0119514D01*
X0109044Y0121112D02*
X0116641Y0121112D01*
X0116557Y0122711D02*
X0113705Y0122711D01*
X0114300Y0124309D02*
X0121125Y0124309D01*
X0122675Y0124309D02*
X0131900Y0124309D01*
X0131900Y0125908D02*
X0127243Y0125908D01*
X0127243Y0127506D02*
X0131900Y0127506D01*
X0131900Y0129105D02*
X0126846Y0129105D01*
X0122675Y0122711D02*
X0121125Y0122711D01*
X0121125Y0121112D02*
X0122675Y0121112D01*
X0116557Y0125908D02*
X0114300Y0125908D01*
X0114205Y0127506D02*
X0116557Y0127506D01*
X0116954Y0129105D02*
X0112607Y0129105D01*
X0114400Y0117915D02*
X0108694Y0117915D01*
X0114400Y0116317D02*
X0086900Y0116317D01*
X0086900Y0117915D02*
X0090421Y0117915D01*
X0090071Y0119514D02*
X0086900Y0119514D01*
X0086900Y0121112D02*
X0090071Y0121112D01*
X0087595Y0122711D02*
X0086900Y0122711D01*
X0086900Y0124309D02*
X0087000Y0124309D01*
X0087000Y0125908D02*
X0086900Y0125908D01*
X0086900Y0127506D02*
X0087095Y0127506D01*
X0086900Y0129105D02*
X0088693Y0129105D01*
X0082001Y0136800D02*
X0062845Y0136800D01*
X0063904Y0137859D01*
X0064025Y0138150D01*
X0076338Y0138198D01*
X0076471Y0138155D01*
X0077050Y0138201D01*
X0077630Y0138203D01*
X0077759Y0138257D01*
X0077899Y0138268D01*
X0078416Y0138532D01*
X0078951Y0138756D01*
X0079050Y0138855D01*
X0079174Y0138919D01*
X0079551Y0139361D01*
X0079960Y0139773D01*
X0080013Y0139902D01*
X0085461Y0146290D01*
X0087121Y0146290D01*
X0087820Y0146579D01*
X0087982Y0146535D01*
X0089400Y0146535D01*
X0089400Y0149516D01*
X0089400Y0146535D01*
X0090818Y0146535D01*
X0090992Y0146582D01*
X0091670Y0146301D01*
X0094987Y0146301D01*
X0095869Y0146666D01*
X0096545Y0147341D01*
X0096910Y0148223D01*
X0096910Y0153094D01*
X0096918Y0153086D01*
X0098529Y0152419D01*
X0100271Y0152419D01*
X0101882Y0153086D01*
X0103114Y0154318D01*
X0103290Y0154744D01*
X0105180Y0154744D01*
X0105180Y0159017D01*
X0105746Y0159017D01*
X0105746Y0154744D01*
X0107865Y0154744D01*
X0108323Y0154867D01*
X0108734Y0155104D01*
X0109043Y0155413D01*
X0109137Y0155185D01*
X0109812Y0154509D01*
X0110694Y0154144D01*
X0111400Y0154144D01*
X0111400Y0153865D01*
X0110301Y0153865D01*
X0109418Y0153500D01*
X0108935Y0153017D01*
X0108717Y0153143D01*
X0108259Y0153265D01*
X0106238Y0153265D01*
X0106238Y0149484D01*
X0105869Y0149484D01*
X0105869Y0149300D01*
X0099400Y0149300D01*
X0099400Y0144867D01*
X0098113Y0145400D01*
X0095687Y0145400D01*
X0093445Y0144471D01*
X0091729Y0142755D01*
X0091532Y0142281D01*
X0091095Y0142883D01*
X0090483Y0143495D01*
X0089783Y0144004D01*
X0089011Y0144397D01*
X0088188Y0144665D01*
X0087333Y0144800D01*
X0087100Y0144800D01*
X0087100Y0139500D01*
X0086700Y0139500D01*
X0086700Y0144800D01*
X0086467Y0144800D01*
X0085612Y0144665D01*
X0084789Y0144397D01*
X0084017Y0144004D01*
X0083317Y0143495D01*
X0082705Y0142883D01*
X0082196Y0142183D01*
X0081803Y0141411D01*
X0081535Y0140588D01*
X0081400Y0139733D01*
X0081400Y0139500D01*
X0086700Y0139500D01*
X0086700Y0139100D01*
X0081400Y0139100D01*
X0081400Y0138867D01*
X0081535Y0138012D01*
X0081803Y0137189D01*
X0082001Y0136800D01*
X0081850Y0137097D02*
X0063143Y0137097D01*
X0064006Y0145350D02*
X0063904Y0145596D01*
X0062458Y0147043D01*
X0063904Y0148489D01*
X0064944Y0150999D01*
X0064944Y0153716D01*
X0063904Y0156226D01*
X0063701Y0156429D01*
X0064687Y0157415D01*
X0065868Y0160264D01*
X0065868Y0163348D01*
X0064687Y0166198D01*
X0063701Y0167184D01*
X0063904Y0167387D01*
X0064944Y0169897D01*
X0064944Y0172614D01*
X0063904Y0175123D01*
X0062458Y0176570D01*
X0063904Y0178017D01*
X0064003Y0178254D01*
X0073675Y0178204D01*
X0073684Y0178200D01*
X0074390Y0178200D01*
X0075097Y0178196D01*
X0075106Y0178200D01*
X0076786Y0178200D01*
X0077386Y0178162D01*
X0077498Y0178200D01*
X0077616Y0178200D01*
X0078142Y0178418D01*
X0078142Y0172386D01*
X0078507Y0171503D01*
X0079182Y0170828D01*
X0079854Y0170550D01*
X0079182Y0170272D01*
X0078507Y0169596D01*
X0078142Y0168714D01*
X0078142Y0159886D01*
X0078507Y0159003D01*
X0079182Y0158328D01*
X0080064Y0157963D01*
X0085306Y0157963D01*
X0085880Y0157389D01*
X0083804Y0157389D01*
X0082922Y0157024D01*
X0082247Y0156348D01*
X0081882Y0155466D01*
X0081882Y0153188D01*
X0075233Y0145394D01*
X0064006Y0145350D01*
X0062812Y0146688D02*
X0076338Y0146688D01*
X0077701Y0148287D02*
X0063702Y0148287D01*
X0064483Y0149885D02*
X0079065Y0149885D01*
X0080428Y0151484D02*
X0064944Y0151484D01*
X0064944Y0153082D02*
X0081792Y0153082D01*
X0081882Y0154681D02*
X0064544Y0154681D01*
X0063851Y0156279D02*
X0082219Y0156279D01*
X0085391Y0157878D02*
X0064879Y0157878D01*
X0065541Y0159476D02*
X0078311Y0159476D01*
X0078142Y0161075D02*
X0065868Y0161075D01*
X0065868Y0162673D02*
X0078142Y0162673D01*
X0078142Y0164272D02*
X0065485Y0164272D01*
X0064823Y0165870D02*
X0078142Y0165870D01*
X0078142Y0167469D02*
X0063938Y0167469D01*
X0064601Y0169068D02*
X0078288Y0169068D01*
X0079574Y0170666D02*
X0064944Y0170666D01*
X0064944Y0172265D02*
X0078192Y0172265D01*
X0078142Y0173863D02*
X0064427Y0173863D01*
X0063566Y0175462D02*
X0078142Y0175462D01*
X0078142Y0177060D02*
X0062948Y0177060D01*
X0064028Y0185454D02*
X0063904Y0185753D01*
X0061983Y0187674D01*
X0059473Y0188714D01*
X0056757Y0188714D01*
X0054247Y0187674D01*
X0052326Y0185753D01*
X0051286Y0183243D01*
X0051286Y0180527D01*
X0052326Y0178017D01*
X0053772Y0176570D01*
X0052326Y0175123D01*
X0051286Y0172614D01*
X0051286Y0169897D01*
X0052326Y0167387D01*
X0052528Y0167184D01*
X0051542Y0166198D01*
X0050362Y0163348D01*
X0050362Y0160264D01*
X0051542Y0157415D01*
X0052528Y0156429D01*
X0052326Y0156226D01*
X0051286Y0153716D01*
X0051286Y0150999D01*
X0052326Y0148489D01*
X0053772Y0147043D01*
X0052326Y0145596D01*
X0051286Y0143086D01*
X0051286Y0140369D01*
X0052326Y0137859D01*
X0053385Y0136800D01*
X0044073Y0136800D01*
X0045002Y0137730D01*
X0046183Y0140579D01*
X0046183Y0143663D01*
X0045002Y0146513D01*
X0042821Y0148694D01*
X0039972Y0149874D01*
X0036888Y0149874D01*
X0034038Y0148694D01*
X0033509Y0148164D01*
X0032979Y0148694D01*
X0030130Y0149874D01*
X0029200Y0149874D01*
X0029200Y0173739D01*
X0030130Y0173739D01*
X0032979Y0174919D01*
X0033509Y0175449D01*
X0034038Y0174919D01*
X0036888Y0173739D01*
X0039972Y0173739D01*
X0042821Y0174919D01*
X0045002Y0177100D01*
X0046183Y0179949D01*
X0046183Y0183033D01*
X0045002Y0185883D01*
X0042821Y0188064D01*
X0040398Y0189068D01*
X0042090Y0190045D01*
X0044010Y0191964D01*
X0045367Y0194316D01*
X0046070Y0196938D01*
X0046070Y0199654D01*
X0045367Y0202276D01*
X0044083Y0204500D01*
X0056741Y0204500D01*
X0056100Y0202954D01*
X0056100Y0200646D01*
X0056983Y0198515D01*
X0058615Y0196883D01*
X0060746Y0196000D01*
X0063054Y0196000D01*
X0065185Y0196883D01*
X0066817Y0198515D01*
X0067230Y0199512D01*
X0067453Y0199075D01*
X0067934Y0198412D01*
X0068512Y0197834D01*
X0069175Y0197353D01*
X0069904Y0196981D01*
X0070682Y0196728D01*
X0071491Y0196600D01*
X0071825Y0196600D01*
X0071825Y0201725D01*
X0071975Y0201725D01*
X0071975Y0196600D01*
X0072309Y0196600D01*
X0073118Y0196728D01*
X0073896Y0196981D01*
X0074625Y0197353D01*
X0075288Y0197834D01*
X0075866Y0198412D01*
X0076347Y0199075D01*
X0076570Y0199512D01*
X0076983Y0198515D01*
X0078615Y0196883D01*
X0080746Y0196000D01*
X0083054Y0196000D01*
X0085185Y0196883D01*
X0086817Y0198515D01*
X0087700Y0200646D01*
X0087700Y0202954D01*
X0087059Y0204500D01*
X0121900Y0204500D01*
X0121900Y0185401D01*
X0121890Y0185377D01*
X0121890Y0178123D01*
X0121900Y0178098D01*
X0121900Y0176800D01*
X0122696Y0176800D01*
X0122930Y0176565D01*
X0123106Y0176493D01*
X0124441Y0175157D01*
X0125257Y0174341D01*
X0126323Y0173900D01*
X0134000Y0173900D01*
X0134000Y0168119D01*
X0133751Y0168141D01*
X0132612Y0167784D01*
X0131697Y0167018D01*
X0130964Y0165616D01*
X0130881Y0165535D01*
X0130689Y0165090D01*
X0130465Y0164660D01*
X0130454Y0164545D01*
X0130409Y0164439D01*
X0130407Y0164337D01*
X0129812Y0164091D01*
X0129137Y0163415D01*
X0129043Y0163187D01*
X0128734Y0163496D01*
X0128323Y0163733D01*
X0127865Y0163856D01*
X0125746Y0163856D01*
X0125746Y0159583D01*
X0125180Y0159583D01*
X0125180Y0163856D01*
X0123061Y0163856D01*
X0122603Y0163733D01*
X0122192Y0163496D01*
X0121857Y0163161D01*
X0121793Y0163051D01*
X0121279Y0163264D01*
X0119043Y0165499D01*
X0118199Y0166343D01*
X0117312Y0166711D01*
X0117312Y0171903D01*
X0116946Y0172785D01*
X0116271Y0173461D01*
X0115389Y0173826D01*
X0110301Y0173826D01*
X0109418Y0173461D01*
X0109400Y0173442D01*
X0109382Y0173461D01*
X0108499Y0173826D01*
X0105007Y0173826D01*
X0105955Y0174774D01*
X0108499Y0174774D01*
X0109382Y0175139D01*
X0109865Y0175623D01*
X0110083Y0175497D01*
X0110541Y0175374D01*
X0112611Y0175374D01*
X0112611Y0179066D01*
X0113078Y0179066D01*
X0113078Y0175374D01*
X0115149Y0175374D01*
X0115607Y0175497D01*
X0116017Y0175734D01*
X0116352Y0176069D01*
X0116589Y0176479D01*
X0116712Y0176937D01*
X0116712Y0179067D01*
X0113078Y0179067D01*
X0113078Y0179533D01*
X0116712Y0179533D01*
X0116712Y0181663D01*
X0116589Y0182121D01*
X0116352Y0182531D01*
X0116017Y0182866D01*
X0115607Y0183103D01*
X0115149Y0183226D01*
X0113078Y0183226D01*
X0113078Y0179534D01*
X0112611Y0179534D01*
X0112611Y0183226D01*
X0110541Y0183226D01*
X0110083Y0183103D01*
X0109865Y0182977D01*
X0109382Y0183461D01*
X0108499Y0183826D01*
X0103781Y0183826D01*
X0103781Y0184735D01*
X0108499Y0184735D01*
X0109382Y0185100D01*
X0109865Y0185583D01*
X0110083Y0185457D01*
X0110541Y0185335D01*
X0112562Y0185335D01*
X0112562Y0189116D01*
X0112931Y0189116D01*
X0112931Y0189484D01*
X0116515Y0189484D01*
X0116515Y0191702D01*
X0116392Y0192160D01*
X0116155Y0192571D01*
X0115820Y0192906D01*
X0115410Y0193143D01*
X0114952Y0193265D01*
X0112931Y0193265D01*
X0112931Y0189484D01*
X0112562Y0189484D01*
X0112562Y0193265D01*
X0110541Y0193265D01*
X0110083Y0193143D01*
X0109865Y0193017D01*
X0109382Y0193500D01*
X0108499Y0193865D01*
X0103608Y0193865D01*
X0102726Y0193500D01*
X0102050Y0192825D01*
X0101916Y0192500D01*
X0096910Y0192500D01*
X0096910Y0192977D01*
X0096545Y0193859D01*
X0095869Y0194535D01*
X0094987Y0194900D01*
X0091670Y0194900D01*
X0090959Y0194605D01*
X0090818Y0194643D01*
X0089400Y0194643D01*
X0087982Y0194643D01*
X0087820Y0194600D01*
X0087121Y0194889D01*
X0083804Y0194889D01*
X0082922Y0194524D01*
X0082247Y0193848D01*
X0081882Y0192966D01*
X0081882Y0190983D01*
X0075541Y0185400D01*
X0074409Y0185400D01*
X0064028Y0185454D01*
X0063007Y0186651D02*
X0076962Y0186651D01*
X0078778Y0188250D02*
X0060595Y0188250D01*
X0055635Y0188250D02*
X0042373Y0188250D01*
X0041750Y0189848D02*
X0080593Y0189848D01*
X0081882Y0191447D02*
X0043492Y0191447D01*
X0044634Y0193045D02*
X0081915Y0193045D01*
X0083212Y0194644D02*
X0045455Y0194644D01*
X0045883Y0196242D02*
X0060162Y0196242D01*
X0057657Y0197841D02*
X0046070Y0197841D01*
X0046070Y0199439D02*
X0056600Y0199439D01*
X0056100Y0201038D02*
X0045699Y0201038D01*
X0045160Y0202636D02*
X0056100Y0202636D01*
X0056631Y0204235D02*
X0044237Y0204235D01*
X0044234Y0186651D02*
X0053223Y0186651D01*
X0052035Y0185053D02*
X0045346Y0185053D01*
X0046008Y0183454D02*
X0051373Y0183454D01*
X0051286Y0181856D02*
X0046183Y0181856D01*
X0046183Y0180257D02*
X0051397Y0180257D01*
X0052060Y0178659D02*
X0045648Y0178659D01*
X0044963Y0177060D02*
X0053282Y0177060D01*
X0052664Y0175462D02*
X0043364Y0175462D01*
X0040273Y0173863D02*
X0051803Y0173863D01*
X0051286Y0172265D02*
X0029200Y0172265D01*
X0029200Y0170666D02*
X0051286Y0170666D01*
X0051629Y0169068D02*
X0029200Y0169068D01*
X0029200Y0167469D02*
X0034639Y0167469D01*
X0034644Y0167472D02*
X0033937Y0166930D01*
X0033306Y0166299D01*
X0032764Y0165592D01*
X0032318Y0164820D01*
X0031977Y0163997D01*
X0031746Y0163136D01*
X0031660Y0162483D01*
X0037753Y0162483D01*
X0037753Y0161130D01*
X0031660Y0161130D01*
X0031746Y0160477D01*
X0031977Y0159616D01*
X0032318Y0158792D01*
X0032764Y0158020D01*
X0033306Y0157313D01*
X0033937Y0156683D01*
X0034644Y0156140D01*
X0035416Y0155694D01*
X0036239Y0155353D01*
X0037100Y0155123D01*
X0037754Y0155037D01*
X0037754Y0161130D01*
X0039106Y0161130D01*
X0039106Y0155037D01*
X0039759Y0155123D01*
X0040620Y0155353D01*
X0041444Y0155694D01*
X0042216Y0156140D01*
X0042923Y0156683D01*
X0043553Y0157313D01*
X0044096Y0158020D01*
X0044542Y0158792D01*
X0044883Y0159616D01*
X0045114Y0160477D01*
X0045200Y0161130D01*
X0039106Y0161130D01*
X0039106Y0162483D01*
X0037754Y0162483D01*
X0037754Y0168576D01*
X0037100Y0168490D01*
X0036239Y0168259D01*
X0035416Y0167918D01*
X0034644Y0167472D01*
X0032977Y0165870D02*
X0029200Y0165870D01*
X0029200Y0164272D02*
X0032091Y0164272D01*
X0031685Y0162673D02*
X0029200Y0162673D01*
X0029200Y0161075D02*
X0031668Y0161075D01*
X0032035Y0159476D02*
X0029200Y0159476D01*
X0029200Y0157878D02*
X0032873Y0157878D01*
X0034462Y0156279D02*
X0029200Y0156279D01*
X0029200Y0154681D02*
X0051686Y0154681D01*
X0051286Y0153082D02*
X0029200Y0153082D01*
X0029200Y0151484D02*
X0051286Y0151484D01*
X0051747Y0149885D02*
X0029200Y0149885D01*
X0033386Y0148287D02*
X0033631Y0148287D01*
X0037754Y0156279D02*
X0039106Y0156279D01*
X0039106Y0157878D02*
X0037754Y0157878D01*
X0037754Y0159476D02*
X0039106Y0159476D01*
X0039106Y0161075D02*
X0037754Y0161075D01*
X0037754Y0162673D02*
X0039106Y0162673D01*
X0039106Y0162483D02*
X0039106Y0168576D01*
X0039759Y0168490D01*
X0040620Y0168259D01*
X0041444Y0167918D01*
X0042216Y0167472D01*
X0042923Y0166930D01*
X0043553Y0166299D01*
X0044096Y0165592D01*
X0044542Y0164820D01*
X0044883Y0163997D01*
X0045114Y0163136D01*
X0045200Y0162483D01*
X0039106Y0162483D01*
X0039106Y0164272D02*
X0037754Y0164272D01*
X0037754Y0165870D02*
X0039106Y0165870D01*
X0039106Y0167469D02*
X0037754Y0167469D01*
X0042220Y0167469D02*
X0052291Y0167469D01*
X0051407Y0165870D02*
X0043883Y0165870D01*
X0044769Y0164272D02*
X0050745Y0164272D01*
X0050362Y0162673D02*
X0045174Y0162673D01*
X0045192Y0161075D02*
X0050362Y0161075D01*
X0050688Y0159476D02*
X0044825Y0159476D01*
X0043987Y0157878D02*
X0051351Y0157878D01*
X0052379Y0156279D02*
X0042397Y0156279D01*
X0043228Y0148287D02*
X0052528Y0148287D01*
X0053418Y0146688D02*
X0044827Y0146688D01*
X0045592Y0145090D02*
X0052116Y0145090D01*
X0051454Y0143491D02*
X0046183Y0143491D01*
X0046183Y0141893D02*
X0051286Y0141893D01*
X0051317Y0140294D02*
X0046065Y0140294D01*
X0045403Y0138696D02*
X0051979Y0138696D01*
X0053087Y0137097D02*
X0044370Y0137097D01*
X0037344Y0122711D02*
X0036900Y0122711D01*
X0036900Y0121112D02*
X0037344Y0121112D01*
X0037435Y0119514D02*
X0036900Y0119514D01*
X0036900Y0117915D02*
X0037980Y0117915D01*
X0036900Y0116317D02*
X0039191Y0116317D01*
X0042897Y0116317D02*
X0043265Y0116317D01*
X0043265Y0117915D02*
X0042897Y0117915D01*
X0042897Y0119514D02*
X0043265Y0119514D01*
X0043265Y0121112D02*
X0042897Y0121112D01*
X0078807Y0138696D02*
X0081427Y0138696D01*
X0081489Y0140294D02*
X0080347Y0140294D01*
X0081711Y0141893D02*
X0082048Y0141893D01*
X0083074Y0143491D02*
X0083313Y0143491D01*
X0084438Y0145090D02*
X0094938Y0145090D01*
X0095892Y0146688D02*
X0099400Y0146688D01*
X0099400Y0146800D02*
X0101900Y0149300D01*
X0106054Y0149300D01*
X0105869Y0149484D02*
X0102285Y0149484D01*
X0102285Y0151702D01*
X0102408Y0152160D01*
X0102645Y0152571D01*
X0102980Y0152906D01*
X0103390Y0153143D01*
X0103848Y0153265D01*
X0105869Y0153265D01*
X0105869Y0149484D01*
X0105869Y0149885D02*
X0106238Y0149885D01*
X0106238Y0151484D02*
X0105869Y0151484D01*
X0105869Y0153082D02*
X0106238Y0153082D01*
X0108821Y0153082D02*
X0109001Y0153082D01*
X0109641Y0154681D02*
X0103264Y0154681D01*
X0103286Y0153082D02*
X0101873Y0153082D01*
X0102285Y0151484D02*
X0096910Y0151484D01*
X0096910Y0153082D02*
X0096927Y0153082D01*
X0093329Y0154271D02*
X0093329Y0151850D01*
X0093329Y0154271D02*
X0092900Y0155800D01*
X0089994Y0157800D01*
X0083494Y0164300D01*
X0084400Y0164300D01*
X0084400Y0166800D01*
X0086900Y0169300D01*
X0086900Y0169400D01*
X0087700Y0170200D01*
X0099700Y0170200D01*
X0101600Y0172100D01*
X0101600Y0174945D01*
X0105955Y0179300D01*
X0109388Y0183454D02*
X0121890Y0183454D01*
X0121890Y0181856D02*
X0116660Y0181856D01*
X0116712Y0180257D02*
X0121890Y0180257D01*
X0121890Y0178659D02*
X0116712Y0178659D01*
X0116712Y0177060D02*
X0121900Y0177060D01*
X0119400Y0176800D02*
X0119400Y0179300D01*
X0112845Y0179300D01*
X0112845Y0189202D01*
X0112746Y0189300D01*
X0112931Y0189116D02*
X0112931Y0185335D01*
X0114952Y0185335D01*
X0115410Y0185457D01*
X0115820Y0185694D01*
X0116155Y0186029D01*
X0116392Y0186440D01*
X0116515Y0186898D01*
X0116515Y0189116D01*
X0112931Y0189116D01*
X0112931Y0189848D02*
X0112562Y0189848D01*
X0112562Y0188250D02*
X0112931Y0188250D01*
X0112931Y0186651D02*
X0112562Y0186651D01*
X0116449Y0186651D02*
X0121900Y0186651D01*
X0121890Y0185053D02*
X0109267Y0185053D01*
X0112611Y0181856D02*
X0113078Y0181856D01*
X0113078Y0180257D02*
X0112611Y0180257D01*
X0112611Y0178659D02*
X0113078Y0178659D01*
X0113078Y0177060D02*
X0112611Y0177060D01*
X0112611Y0175462D02*
X0113078Y0175462D01*
X0115475Y0175462D02*
X0124137Y0175462D01*
X0117162Y0172265D02*
X0134000Y0172265D01*
X0134000Y0173863D02*
X0105044Y0173863D01*
X0109704Y0175462D02*
X0110214Y0175462D01*
X0112845Y0169300D02*
X0111900Y0168355D01*
X0105746Y0163712D02*
X0105746Y0159583D01*
X0105180Y0159583D01*
X0105180Y0163856D01*
X0103061Y0163856D01*
X0102603Y0163733D01*
X0102192Y0163496D01*
X0101857Y0163161D01*
X0101620Y0162751D01*
X0101498Y0162293D01*
X0101498Y0160673D01*
X0100658Y0161021D01*
X0100658Y0167133D01*
X0101488Y0167477D01*
X0101488Y0166697D01*
X0101854Y0165815D01*
X0102529Y0165139D01*
X0103411Y0164774D01*
X0104683Y0164774D01*
X0104745Y0164712D01*
X0105122Y0164311D01*
X0105166Y0164291D01*
X0105746Y0163712D01*
X0105185Y0164272D02*
X0100658Y0164272D01*
X0100658Y0165870D02*
X0101830Y0165870D01*
X0101488Y0167469D02*
X0101469Y0167469D01*
X0101600Y0162673D02*
X0100658Y0162673D01*
X0100658Y0161075D02*
X0101498Y0161075D01*
X0105180Y0161075D02*
X0105746Y0161075D01*
X0105746Y0162673D02*
X0105180Y0162673D01*
X0105180Y0157878D02*
X0105746Y0157878D01*
X0105746Y0156279D02*
X0105180Y0156279D01*
X0099400Y0156800D02*
X0094400Y0161800D01*
X0094400Y0163394D01*
X0095306Y0164300D01*
X0089400Y0154162D02*
X0089400Y0149517D01*
X0089400Y0152498D01*
X0089400Y0154162D01*
X0089400Y0154162D01*
X0089400Y0153082D02*
X0089400Y0153082D01*
X0089400Y0151484D02*
X0089400Y0151484D01*
X0089400Y0149885D02*
X0089400Y0149885D01*
X0089400Y0149517D02*
X0089400Y0149517D01*
X0089400Y0149516D02*
X0089400Y0149516D01*
X0089400Y0148287D02*
X0089400Y0148287D01*
X0089400Y0146800D02*
X0086900Y0144300D01*
X0086900Y0139300D01*
X0086700Y0140294D02*
X0087100Y0140294D01*
X0087100Y0141893D02*
X0086700Y0141893D01*
X0086700Y0143491D02*
X0087100Y0143491D01*
X0090487Y0143491D02*
X0092465Y0143491D01*
X0096900Y0139300D02*
X0101300Y0139200D01*
X0103800Y0141700D01*
X0105600Y0144200D01*
X0110400Y0144200D01*
X0112746Y0149300D01*
X0117400Y0149300D02*
X0117400Y0155048D01*
X0117537Y0155185D01*
X0117588Y0155308D01*
X0118529Y0154919D01*
X0120271Y0154919D01*
X0121793Y0155549D01*
X0121857Y0155439D01*
X0122192Y0155104D01*
X0122603Y0154867D01*
X0123061Y0154744D01*
X0125180Y0154744D01*
X0125180Y0159017D01*
X0125746Y0159017D01*
X0125746Y0154744D01*
X0127865Y0154744D01*
X0128323Y0154867D01*
X0128734Y0155104D01*
X0129043Y0155413D01*
X0129137Y0155185D01*
X0129812Y0154509D01*
X0129945Y0154455D01*
X0129945Y0153679D01*
X0129418Y0153461D01*
X0128935Y0152977D01*
X0128717Y0153103D01*
X0128259Y0153226D01*
X0126189Y0153226D01*
X0126189Y0149534D01*
X0125722Y0149534D01*
X0125722Y0153226D01*
X0123651Y0153226D01*
X0123193Y0153103D01*
X0122783Y0152866D01*
X0122448Y0152531D01*
X0122211Y0152121D01*
X0122088Y0151663D01*
X0122088Y0149533D01*
X0125722Y0149533D01*
X0125722Y0149300D01*
X0117400Y0149300D01*
X0117400Y0149885D02*
X0122088Y0149885D01*
X0122088Y0151484D02*
X0117400Y0151484D01*
X0117400Y0153082D02*
X0123157Y0153082D01*
X0125722Y0153082D02*
X0126189Y0153082D01*
X0126189Y0151484D02*
X0125722Y0151484D01*
X0125722Y0149885D02*
X0126189Y0149885D01*
X0125955Y0149300D02*
X0125463Y0149792D01*
X0125463Y0159300D01*
X0125180Y0157878D02*
X0125746Y0157878D01*
X0125746Y0156279D02*
X0125180Y0156279D01*
X0128753Y0153082D02*
X0129040Y0153082D01*
X0129641Y0154681D02*
X0117400Y0154681D01*
X0125180Y0161075D02*
X0125746Y0161075D01*
X0125746Y0162673D02*
X0125180Y0162673D01*
X0120271Y0164272D02*
X0130250Y0164272D01*
X0131097Y0165870D02*
X0118672Y0165870D01*
X0117312Y0167469D02*
X0132236Y0167469D01*
X0134000Y0169068D02*
X0117312Y0169068D01*
X0117312Y0170666D02*
X0134000Y0170666D01*
X0140500Y0163000D02*
X0140500Y0160500D01*
X0145722Y0159066D02*
X0145722Y0155374D01*
X0145060Y0155374D01*
X0144962Y0154105D01*
X0145201Y0154343D01*
X0146231Y0155374D01*
X0146189Y0155374D01*
X0146189Y0159066D01*
X0145722Y0159066D01*
X0145722Y0157878D02*
X0146189Y0157878D01*
X0146189Y0156279D02*
X0145722Y0156279D01*
X0145538Y0154681D02*
X0145006Y0154681D01*
X0144926Y0144735D02*
X0144017Y0143826D01*
X0148499Y0143826D01*
X0149382Y0143461D01*
X0149865Y0142977D01*
X0150083Y0143103D01*
X0150541Y0143226D01*
X0152611Y0143226D01*
X0152611Y0139534D01*
X0153078Y0139534D01*
X0153078Y0143226D01*
X0155149Y0143226D01*
X0155607Y0143103D01*
X0156017Y0142866D01*
X0156352Y0142531D01*
X0156589Y0142121D01*
X0156712Y0141663D01*
X0156712Y0139533D01*
X0153078Y0139533D01*
X0153078Y0139067D01*
X0156712Y0139067D01*
X0156712Y0136937D01*
X0156589Y0136479D01*
X0156352Y0136069D01*
X0156017Y0135734D01*
X0155607Y0135497D01*
X0155149Y0135374D01*
X0153078Y0135374D01*
X0153078Y0139066D01*
X0152611Y0139066D01*
X0152611Y0135374D01*
X0150541Y0135374D01*
X0150083Y0135497D01*
X0149865Y0135623D01*
X0149382Y0135139D01*
X0148499Y0134774D01*
X0143770Y0134774D01*
X0143082Y0134086D01*
X0141471Y0133419D01*
X0139729Y0133419D01*
X0139684Y0133437D01*
X0137729Y0127900D01*
X0162426Y0127900D01*
X0162050Y0128275D01*
X0161685Y0129157D01*
X0161685Y0134443D01*
X0162050Y0135325D01*
X0162726Y0136000D01*
X0163608Y0136365D01*
X0168499Y0136365D01*
X0169382Y0136000D01*
X0169400Y0135981D01*
X0169418Y0136000D01*
X0170219Y0136332D01*
X0170219Y0137200D01*
X0168261Y0137200D01*
X0167537Y0136900D01*
X0166263Y0136900D01*
X0165087Y0137387D01*
X0164187Y0138287D01*
X0163700Y0139463D01*
X0163700Y0145304D01*
X0162771Y0144919D01*
X0161029Y0144919D01*
X0159418Y0145586D01*
X0158704Y0146300D01*
X0156967Y0146300D01*
X0156750Y0145775D01*
X0156074Y0145100D01*
X0155192Y0144735D01*
X0150301Y0144735D01*
X0149418Y0145100D01*
X0149400Y0145118D01*
X0149382Y0145100D01*
X0148499Y0144735D01*
X0144926Y0144735D01*
X0149357Y0145090D02*
X0149443Y0145090D01*
X0149307Y0143491D02*
X0163700Y0143491D01*
X0163700Y0141893D02*
X0156650Y0141893D01*
X0156712Y0140294D02*
X0163700Y0140294D01*
X0164018Y0138696D02*
X0156712Y0138696D01*
X0156712Y0137097D02*
X0165787Y0137097D01*
X0168013Y0137097D02*
X0170219Y0137097D01*
X0166900Y0140100D02*
X0166900Y0153162D01*
X0170100Y0150262D02*
X0171045Y0150262D01*
X0171045Y0148992D01*
X0171176Y0148505D01*
X0171428Y0148067D01*
X0171785Y0147710D01*
X0172223Y0147458D01*
X0172710Y0147327D01*
X0173239Y0147327D01*
X0173763Y0147327D01*
X0173119Y0145771D01*
X0173119Y0144029D01*
X0173545Y0143000D01*
X0170100Y0143000D01*
X0170100Y0150262D01*
X0170100Y0149885D02*
X0171045Y0149885D01*
X0171301Y0148287D02*
X0170100Y0148287D01*
X0170100Y0146688D02*
X0173499Y0146688D01*
X0173239Y0147327D02*
X0173239Y0147832D01*
X0173239Y0147832D01*
X0173239Y0147327D01*
X0173119Y0145090D02*
X0170100Y0145090D01*
X0170100Y0143491D02*
X0173341Y0143491D01*
X0173239Y0150406D02*
X0174194Y0150406D01*
X0174813Y0150406D01*
X0174813Y0150406D01*
X0173239Y0150406D01*
X0173239Y0150406D01*
X0180859Y0153860D02*
X0180765Y0154094D01*
X0181100Y0154094D01*
X0181100Y0161000D01*
X0182700Y0161000D01*
X0188399Y0161000D01*
X0187641Y0161757D01*
X0187292Y0162600D01*
X0182700Y0162600D01*
X0182700Y0167500D01*
X0181100Y0167500D01*
X0181100Y0162600D01*
X0182700Y0162600D01*
X0182700Y0161000D01*
X0182700Y0154094D01*
X0187786Y0154094D01*
X0188319Y0154237D01*
X0188797Y0154513D01*
X0189187Y0154903D01*
X0189463Y0155381D01*
X0189605Y0155914D01*
X0189605Y0160004D01*
X0189638Y0159990D01*
X0189638Y0158685D01*
X0189642Y0158674D01*
X0189638Y0158663D01*
X0189638Y0157110D01*
X0189642Y0157099D01*
X0189638Y0157088D01*
X0189638Y0155535D01*
X0189642Y0155524D01*
X0189638Y0155514D01*
X0189638Y0154086D01*
X0188210Y0154086D01*
X0188199Y0154081D01*
X0188188Y0154086D01*
X0186635Y0154086D01*
X0186624Y0154081D01*
X0186613Y0154086D01*
X0185061Y0154086D01*
X0185050Y0154081D01*
X0185039Y0154086D01*
X0183486Y0154086D01*
X0183475Y0154081D01*
X0183464Y0154086D01*
X0181911Y0154086D01*
X0181113Y0153755D01*
X0180859Y0153860D01*
X0181100Y0154681D02*
X0182700Y0154681D01*
X0182700Y0156279D02*
X0181100Y0156279D01*
X0181100Y0157878D02*
X0182700Y0157878D01*
X0182700Y0159476D02*
X0181100Y0159476D01*
X0181100Y0161000D02*
X0176700Y0161000D01*
X0176700Y0162600D01*
X0181100Y0162600D01*
X0181100Y0161000D01*
X0181100Y0161075D02*
X0176700Y0161075D01*
X0181100Y0162673D02*
X0182700Y0162673D01*
X0182700Y0161075D02*
X0188324Y0161075D01*
X0189605Y0159476D02*
X0189638Y0159476D01*
X0189605Y0157878D02*
X0189638Y0157878D01*
X0189605Y0156279D02*
X0189638Y0156279D01*
X0189638Y0154681D02*
X0188965Y0154681D01*
X0193355Y0150969D02*
X0193355Y0148744D01*
X0192972Y0147819D01*
X0192263Y0147110D01*
X0191338Y0146727D01*
X0189785Y0146727D01*
X0189774Y0146731D01*
X0189763Y0146727D01*
X0188210Y0146727D01*
X0188199Y0146731D01*
X0188188Y0146727D01*
X0187321Y0146727D01*
X0187300Y0146585D01*
X0187300Y0146326D01*
X0188499Y0146326D01*
X0189382Y0145961D01*
X0189865Y0145477D01*
X0190083Y0145603D01*
X0190541Y0145726D01*
X0192611Y0145726D01*
X0192611Y0142034D01*
X0193078Y0142034D01*
X0193078Y0145726D01*
X0195149Y0145726D01*
X0195607Y0145603D01*
X0195987Y0145384D01*
X0196466Y0145862D01*
X0196500Y0145876D01*
X0196500Y0147377D01*
X0196941Y0148443D01*
X0199211Y0150713D01*
X0199000Y0151223D01*
X0199000Y0158099D01*
X0197388Y0159711D01*
X0196997Y0159711D01*
X0196997Y0158685D01*
X0196992Y0158674D01*
X0196997Y0158663D01*
X0196997Y0157110D01*
X0196992Y0157099D01*
X0196997Y0157088D01*
X0196997Y0155535D01*
X0196992Y0155524D01*
X0196997Y0155514D01*
X0196997Y0153961D01*
X0196613Y0153035D01*
X0196397Y0152818D01*
X0196397Y0152634D01*
X0196266Y0152146D01*
X0196014Y0151709D01*
X0195656Y0151352D01*
X0195219Y0151099D01*
X0194731Y0150969D01*
X0193355Y0150969D01*
X0193355Y0149885D02*
X0198384Y0149885D01*
X0199000Y0151484D02*
X0195789Y0151484D01*
X0196633Y0153082D02*
X0199000Y0153082D01*
X0199000Y0154681D02*
X0196997Y0154681D01*
X0196997Y0156279D02*
X0199000Y0156279D01*
X0199000Y0157878D02*
X0196997Y0157878D01*
X0196997Y0159476D02*
X0197622Y0159476D01*
X0196877Y0148287D02*
X0193166Y0148287D01*
X0196500Y0146688D02*
X0187315Y0146688D01*
X0192611Y0145090D02*
X0193078Y0145090D01*
X0193078Y0143491D02*
X0192611Y0143491D01*
X0192611Y0141566D02*
X0193078Y0141566D01*
X0193078Y0137874D01*
X0195149Y0137874D01*
X0195425Y0137948D01*
X0195425Y0135770D01*
X0195353Y0135843D01*
X0194678Y0136333D01*
X0193934Y0136712D01*
X0193141Y0136969D01*
X0192317Y0137100D01*
X0191975Y0137100D01*
X0191975Y0131875D01*
X0197200Y0131875D01*
X0197200Y0132217D01*
X0197163Y0132449D01*
X0197348Y0132372D01*
X0199677Y0132372D01*
X0199951Y0132148D01*
X0200257Y0131841D01*
X0200394Y0131785D01*
X0200509Y0131691D01*
X0200923Y0131566D01*
X0201323Y0131400D01*
X0201471Y0131400D01*
X0201613Y0131357D01*
X0202044Y0131400D01*
X0204977Y0131400D01*
X0206043Y0131841D01*
X0206858Y0132657D01*
X0207300Y0133723D01*
X0207300Y0137235D01*
X0208499Y0137235D01*
X0209382Y0137600D01*
X0209865Y0138083D01*
X0210083Y0137957D01*
X0210541Y0137835D01*
X0212562Y0137835D01*
X0212562Y0141616D01*
X0212931Y0141616D01*
X0212931Y0141984D01*
X0216515Y0141984D01*
X0216515Y0144202D01*
X0216392Y0144660D01*
X0216155Y0145071D01*
X0215820Y0145406D01*
X0215635Y0145513D01*
X0216017Y0145734D01*
X0216352Y0146069D01*
X0216589Y0146479D01*
X0216712Y0146937D01*
X0216712Y0149067D01*
X0213078Y0149067D01*
X0213078Y0149533D01*
X0216712Y0149533D01*
X0216712Y0151663D01*
X0216589Y0152121D01*
X0216385Y0152475D01*
X0216608Y0152604D01*
X0216943Y0152939D01*
X0217180Y0153349D01*
X0217302Y0153807D01*
X0217302Y0156517D01*
X0213620Y0156517D01*
X0213620Y0157083D01*
X0217302Y0157083D01*
X0217302Y0159793D01*
X0217180Y0160251D01*
X0216943Y0160661D01*
X0216608Y0160996D01*
X0216385Y0161125D01*
X0216589Y0161479D01*
X0216712Y0161937D01*
X0216712Y0164067D01*
X0213078Y0164067D01*
X0213078Y0164533D01*
X0216712Y0164533D01*
X0216712Y0166663D01*
X0216589Y0167121D01*
X0216352Y0167531D01*
X0216017Y0167866D01*
X0215699Y0168050D01*
X0216017Y0168234D01*
X0216352Y0168569D01*
X0216589Y0168979D01*
X0216712Y0169437D01*
X0216712Y0171567D01*
X0213078Y0171567D01*
X0213078Y0172033D01*
X0216712Y0172033D01*
X0216712Y0174163D01*
X0216589Y0174621D01*
X0216352Y0175031D01*
X0216017Y0175366D01*
X0215607Y0175603D01*
X0215149Y0175726D01*
X0213078Y0175726D01*
X0213078Y0172034D01*
X0212611Y0172034D01*
X0212611Y0175726D01*
X0210541Y0175726D01*
X0210083Y0175603D01*
X0209865Y0175477D01*
X0209382Y0175961D01*
X0208499Y0176326D01*
X0203411Y0176326D01*
X0202529Y0175961D01*
X0201854Y0175285D01*
X0201488Y0174403D01*
X0201488Y0171760D01*
X0196116Y0171760D01*
X0196014Y0171938D01*
X0195656Y0172296D01*
X0195219Y0172548D01*
X0194731Y0172679D01*
X0193317Y0172679D01*
X0192755Y0172679D01*
X0192755Y0173241D01*
X0191837Y0173241D01*
X0192755Y0173241D01*
X0192755Y0174655D01*
X0192624Y0175143D01*
X0192372Y0175580D01*
X0192291Y0175661D01*
X0193030Y0176400D01*
X0204977Y0176400D01*
X0206043Y0176841D01*
X0211043Y0181841D01*
X0211858Y0182657D01*
X0212300Y0183723D01*
X0212300Y0192391D01*
X0212546Y0191964D01*
X0214466Y0190045D01*
X0216817Y0188687D01*
X0219440Y0187984D01*
X0222155Y0187984D01*
X0224778Y0188687D01*
X0227100Y0190028D01*
X0227100Y0121600D01*
X0210945Y0121600D01*
X0209181Y0120869D01*
X0207831Y0119519D01*
X0207100Y0117755D01*
X0207100Y0113121D01*
X0206943Y0113499D01*
X0206099Y0114343D01*
X0205787Y0114473D01*
X0205787Y0117147D01*
X0202301Y0117147D01*
X0202301Y0117319D01*
X0205787Y0117319D01*
X0205787Y0120423D01*
X0205664Y0120881D01*
X0205427Y0121291D01*
X0205092Y0121626D01*
X0204681Y0121863D01*
X0204224Y0121986D01*
X0202301Y0121986D01*
X0202301Y0117319D01*
X0202129Y0117319D01*
X0202129Y0121986D01*
X0200815Y0121986D01*
X0200815Y0122201D01*
X0200267Y0123524D01*
X0197452Y0126339D01*
X0196439Y0127352D01*
X0195384Y0127789D01*
X0195943Y0128347D01*
X0196433Y0129022D01*
X0196812Y0129766D01*
X0197069Y0130559D01*
X0197200Y0131383D01*
X0197200Y0131725D01*
X0191975Y0131725D01*
X0191975Y0131875D01*
X0191825Y0131875D01*
X0191825Y0137100D01*
X0191483Y0137100D01*
X0190659Y0136969D01*
X0189866Y0136712D01*
X0189122Y0136333D01*
X0188447Y0135843D01*
X0187857Y0135253D01*
X0187367Y0134578D01*
X0187239Y0134327D01*
X0186902Y0135142D01*
X0185242Y0136802D01*
X0184316Y0137186D01*
X0184509Y0137200D01*
X0184977Y0137200D01*
X0185080Y0137243D01*
X0185192Y0137251D01*
X0185237Y0137274D01*
X0188499Y0137274D01*
X0189382Y0137639D01*
X0189865Y0138123D01*
X0190083Y0137997D01*
X0190541Y0137874D01*
X0192611Y0137874D01*
X0192611Y0141566D01*
X0192611Y0140294D02*
X0193078Y0140294D01*
X0193078Y0138696D02*
X0192611Y0138696D01*
X0192334Y0137097D02*
X0195425Y0137097D01*
X0191975Y0137097D02*
X0191825Y0137097D01*
X0191466Y0137097D02*
X0184529Y0137097D01*
X0186545Y0135499D02*
X0188103Y0135499D01*
X0191825Y0135499D02*
X0191975Y0135499D01*
X0191975Y0133900D02*
X0191825Y0133900D01*
X0191825Y0132302D02*
X0191975Y0132302D01*
X0196475Y0129105D02*
X0227100Y0129105D01*
X0227100Y0130703D02*
X0197092Y0130703D01*
X0197187Y0132302D02*
X0199763Y0132302D01*
X0196067Y0127506D02*
X0227100Y0127506D01*
X0227100Y0125908D02*
X0197883Y0125908D01*
X0199482Y0124309D02*
X0227100Y0124309D01*
X0227100Y0122711D02*
X0200604Y0122711D01*
X0202129Y0121112D02*
X0202301Y0121112D01*
X0202301Y0119514D02*
X0202129Y0119514D01*
X0202129Y0117915D02*
X0202301Y0117915D01*
X0205787Y0117915D02*
X0207166Y0117915D01*
X0207100Y0116317D02*
X0205787Y0116317D01*
X0205787Y0114718D02*
X0207100Y0114718D01*
X0207829Y0119514D02*
X0205787Y0119514D01*
X0205530Y0121112D02*
X0209768Y0121112D01*
X0206503Y0132302D02*
X0227100Y0132302D01*
X0227100Y0133900D02*
X0207300Y0133900D01*
X0207300Y0135499D02*
X0227100Y0135499D01*
X0227100Y0137097D02*
X0207300Y0137097D01*
X0212562Y0138696D02*
X0212931Y0138696D01*
X0212931Y0137835D02*
X0214952Y0137835D01*
X0215410Y0137957D01*
X0215820Y0138194D01*
X0216155Y0138529D01*
X0216392Y0138940D01*
X0216515Y0139398D01*
X0216515Y0141616D01*
X0212931Y0141616D01*
X0212931Y0137835D01*
X0212931Y0140294D02*
X0212562Y0140294D01*
X0212931Y0141893D02*
X0227100Y0141893D01*
X0227100Y0143491D02*
X0216515Y0143491D01*
X0216136Y0145090D02*
X0227100Y0145090D01*
X0227100Y0146688D02*
X0216645Y0146688D01*
X0216712Y0148287D02*
X0227100Y0148287D01*
X0227100Y0149885D02*
X0216712Y0149885D01*
X0216712Y0151484D02*
X0227100Y0151484D01*
X0227100Y0153082D02*
X0217026Y0153082D01*
X0217302Y0154681D02*
X0227100Y0154681D01*
X0227100Y0156279D02*
X0217302Y0156279D01*
X0217302Y0157878D02*
X0227100Y0157878D01*
X0227100Y0159476D02*
X0217302Y0159476D01*
X0216471Y0161075D02*
X0227100Y0161075D01*
X0227100Y0162673D02*
X0216712Y0162673D01*
X0213078Y0162673D02*
X0212611Y0162673D01*
X0212611Y0161356D02*
X0212611Y0164066D01*
X0213078Y0164066D01*
X0213078Y0160374D01*
X0213620Y0160374D01*
X0213620Y0157083D01*
X0213054Y0157083D01*
X0213054Y0161356D01*
X0212611Y0161356D01*
X0213054Y0161075D02*
X0213078Y0161075D01*
X0213054Y0159476D02*
X0213620Y0159476D01*
X0213620Y0157878D02*
X0213054Y0157878D01*
X0213054Y0156517D02*
X0213620Y0156517D01*
X0213620Y0153226D01*
X0213078Y0153226D01*
X0213078Y0149534D01*
X0212611Y0149534D01*
X0212611Y0152244D01*
X0213054Y0152244D01*
X0213054Y0156517D01*
X0213054Y0156279D02*
X0213620Y0156279D01*
X0213620Y0154681D02*
X0213054Y0154681D01*
X0213054Y0153082D02*
X0213078Y0153082D01*
X0213078Y0151484D02*
X0212611Y0151484D01*
X0212611Y0149885D02*
X0213078Y0149885D01*
X0213078Y0149066D02*
X0213078Y0145765D01*
X0212931Y0145765D01*
X0212931Y0141984D01*
X0212562Y0141984D01*
X0212562Y0145374D01*
X0212611Y0145374D01*
X0212611Y0149066D01*
X0213078Y0149066D01*
X0213078Y0148287D02*
X0212611Y0148287D01*
X0212611Y0146688D02*
X0213078Y0146688D01*
X0212931Y0145090D02*
X0212562Y0145090D01*
X0212562Y0143491D02*
X0212931Y0143491D01*
X0216515Y0140294D02*
X0227100Y0140294D01*
X0227100Y0138696D02*
X0216251Y0138696D01*
X0213078Y0164272D02*
X0227100Y0164272D01*
X0227100Y0165870D02*
X0216712Y0165870D01*
X0216388Y0167469D02*
X0227100Y0167469D01*
X0227100Y0169068D02*
X0216613Y0169068D01*
X0216712Y0170666D02*
X0227100Y0170666D01*
X0227100Y0172265D02*
X0216712Y0172265D01*
X0216712Y0173863D02*
X0227100Y0173863D01*
X0227100Y0175462D02*
X0215852Y0175462D01*
X0213078Y0175462D02*
X0212611Y0175462D01*
X0212611Y0173863D02*
X0213078Y0173863D01*
X0213078Y0172265D02*
X0212611Y0172265D01*
X0212611Y0171566D02*
X0213078Y0171566D01*
X0213078Y0164534D01*
X0212611Y0164534D01*
X0212611Y0167874D01*
X0212611Y0171566D01*
X0212611Y0170666D02*
X0213078Y0170666D01*
X0213078Y0169068D02*
X0212611Y0169068D01*
X0212611Y0167469D02*
X0213078Y0167469D01*
X0213078Y0165870D02*
X0212611Y0165870D01*
X0202030Y0175462D02*
X0192440Y0175462D01*
X0192755Y0173863D02*
X0201488Y0173863D01*
X0201488Y0172265D02*
X0195688Y0172265D01*
X0193317Y0172265D02*
X0193317Y0172265D01*
X0193317Y0172679D02*
X0193317Y0171810D01*
X0193317Y0172679D01*
X0193317Y0171810D02*
X0193317Y0171810D01*
X0191837Y0173241D02*
X0191837Y0173241D01*
X0182700Y0167469D02*
X0181100Y0167469D01*
X0181100Y0165870D02*
X0182700Y0165870D01*
X0182700Y0164272D02*
X0181100Y0164272D01*
X0171045Y0173335D02*
X0168615Y0173335D01*
X0168615Y0173562D01*
X0168173Y0174628D01*
X0167701Y0175100D01*
X0171164Y0175100D01*
X0171045Y0174655D01*
X0171045Y0173335D01*
X0171045Y0173863D02*
X0168490Y0173863D01*
X0179238Y0176921D02*
X0179238Y0177279D01*
X0179069Y0177687D01*
X0180408Y0177696D01*
X0180469Y0177675D01*
X0180678Y0177381D01*
X0180947Y0176921D01*
X0180336Y0176921D01*
X0180325Y0176916D01*
X0180314Y0176921D01*
X0179238Y0176921D01*
X0179238Y0177060D02*
X0180866Y0177060D01*
X0176057Y0186800D02*
X0176057Y0189300D01*
X0177117Y0189300D01*
X0169584Y0190519D02*
X0169584Y0192462D01*
X0169216Y0192462D01*
X0169216Y0190519D01*
X0169584Y0190519D01*
X0169584Y0191447D02*
X0169216Y0191447D01*
X0169216Y0192462D02*
X0165631Y0192462D01*
X0165631Y0190244D01*
X0165744Y0189825D01*
X0165397Y0189478D01*
X0165031Y0188596D01*
X0165031Y0187770D01*
X0162748Y0190053D01*
X0162914Y0190218D01*
X0163581Y0191829D01*
X0163581Y0193571D01*
X0163452Y0193884D01*
X0163463Y0193900D01*
X0165631Y0193900D01*
X0165631Y0192831D01*
X0169216Y0192831D01*
X0169216Y0192462D01*
X0169400Y0192450D02*
X0169400Y0192646D01*
X0165631Y0193045D02*
X0163581Y0193045D01*
X0163423Y0191447D02*
X0165631Y0191447D01*
X0165738Y0189848D02*
X0162953Y0189848D01*
X0164552Y0188250D02*
X0165031Y0188250D01*
X0158613Y0197081D02*
X0158329Y0197081D01*
X0156718Y0196414D01*
X0156184Y0195880D01*
X0155589Y0196126D01*
X0150501Y0196126D01*
X0149618Y0195761D01*
X0149135Y0195277D01*
X0148917Y0195403D01*
X0148459Y0195526D01*
X0146389Y0195526D01*
X0146389Y0191834D01*
X0145922Y0191834D01*
X0145922Y0195526D01*
X0143851Y0195526D01*
X0143393Y0195403D01*
X0142983Y0195166D01*
X0142648Y0194831D01*
X0142411Y0194421D01*
X0142288Y0193963D01*
X0142288Y0191833D01*
X0145922Y0191833D01*
X0145922Y0191367D01*
X0142288Y0191367D01*
X0142288Y0189237D01*
X0142411Y0188779D01*
X0142522Y0188587D01*
X0142311Y0188221D01*
X0142188Y0187763D01*
X0142188Y0185633D01*
X0145822Y0185633D01*
X0145822Y0185167D01*
X0142188Y0185167D01*
X0142188Y0184400D01*
X0141900Y0184400D01*
X0141900Y0204500D01*
X0212472Y0204500D01*
X0211189Y0202276D01*
X0210486Y0199654D01*
X0210486Y0197315D01*
X0209358Y0198443D01*
X0208543Y0199258D01*
X0207477Y0199700D01*
X0162176Y0199700D01*
X0161880Y0199757D01*
X0161605Y0199700D01*
X0161323Y0199700D01*
X0161045Y0199585D01*
X0160750Y0199524D01*
X0160517Y0199366D01*
X0160257Y0199258D01*
X0160044Y0199046D01*
X0159795Y0198877D01*
X0159640Y0198642D01*
X0159441Y0198443D01*
X0159326Y0198165D01*
X0158613Y0197081D01*
X0159113Y0197841D02*
X0141900Y0197841D01*
X0141900Y0199439D02*
X0160625Y0199439D01*
X0156546Y0196242D02*
X0141900Y0196242D01*
X0141900Y0194644D02*
X0142540Y0194644D01*
X0141900Y0194300D02*
X0131900Y0194300D01*
X0129400Y0193800D01*
X0121900Y0193045D02*
X0115579Y0193045D01*
X0116515Y0191447D02*
X0121900Y0191447D01*
X0121900Y0189848D02*
X0116515Y0189848D01*
X0116515Y0188250D02*
X0121900Y0188250D01*
X0121900Y0194644D02*
X0095606Y0194644D01*
X0096882Y0193045D02*
X0102271Y0193045D01*
X0106054Y0189300D02*
X0093379Y0189300D01*
X0093329Y0189350D01*
X0094100Y0186079D01*
X0094100Y0184400D01*
X0094000Y0184300D01*
X0091900Y0184300D01*
X0089400Y0181800D01*
X0089400Y0179300D01*
X0086900Y0176800D01*
X0083494Y0176800D01*
X0089400Y0187017D02*
X0089400Y0189998D01*
X0089400Y0191662D01*
X0089400Y0187017D01*
X0089400Y0187017D01*
X0089400Y0188250D02*
X0089400Y0188250D01*
X0089400Y0189848D02*
X0089400Y0189848D01*
X0089400Y0191447D02*
X0089400Y0191447D01*
X0089400Y0191662D02*
X0089400Y0191662D01*
X0089400Y0194643D01*
X0089400Y0191662D01*
X0089400Y0191662D01*
X0089400Y0193045D02*
X0089400Y0193045D01*
X0091052Y0194644D02*
X0087714Y0194644D01*
X0086143Y0197841D02*
X0121900Y0197841D01*
X0121900Y0199439D02*
X0087200Y0199439D01*
X0087700Y0201038D02*
X0121900Y0201038D01*
X0121900Y0202636D02*
X0087700Y0202636D01*
X0087169Y0204235D02*
X0121900Y0204235D01*
X0121900Y0196242D02*
X0083638Y0196242D01*
X0080162Y0196242D02*
X0063638Y0196242D01*
X0066143Y0197841D02*
X0068505Y0197841D01*
X0067267Y0199439D02*
X0067200Y0199439D01*
X0071825Y0199439D02*
X0071975Y0199439D01*
X0071900Y0199300D02*
X0071900Y0201800D01*
X0071825Y0201038D02*
X0071975Y0201038D01*
X0071975Y0197841D02*
X0071825Y0197841D01*
X0075295Y0197841D02*
X0077657Y0197841D01*
X0076600Y0199439D02*
X0076533Y0199439D01*
X0099400Y0184300D02*
X0099400Y0180894D01*
X0095306Y0176800D01*
X0112562Y0191447D02*
X0112931Y0191447D01*
X0112931Y0193045D02*
X0112562Y0193045D01*
X0109914Y0193045D02*
X0109836Y0193045D01*
X0141900Y0193045D02*
X0142288Y0193045D01*
X0141900Y0194300D02*
X0146155Y0191600D01*
X0146155Y0187000D01*
X0146289Y0186651D02*
X0145822Y0186651D01*
X0145822Y0185634D02*
X0145822Y0187674D01*
X0145922Y0187674D01*
X0145922Y0191366D01*
X0146389Y0191366D01*
X0146389Y0189326D01*
X0146289Y0189326D01*
X0146289Y0185634D01*
X0145822Y0185634D01*
X0142188Y0185053D02*
X0141900Y0185053D01*
X0141900Y0186651D02*
X0142188Y0186651D01*
X0142328Y0188250D02*
X0141900Y0188250D01*
X0141900Y0189848D02*
X0142288Y0189848D01*
X0141900Y0191447D02*
X0145922Y0191447D01*
X0145922Y0193045D02*
X0146389Y0193045D01*
X0146389Y0194644D02*
X0145922Y0194644D01*
X0141900Y0201038D02*
X0210857Y0201038D01*
X0210486Y0199439D02*
X0208106Y0199439D01*
X0209960Y0197841D02*
X0210486Y0197841D01*
X0211396Y0202636D02*
X0141900Y0202636D01*
X0141900Y0204235D02*
X0212319Y0204235D01*
X0205699Y0193900D02*
X0203168Y0193900D01*
X0203168Y0192831D01*
X0199584Y0192831D01*
X0199584Y0192462D01*
X0203168Y0192462D01*
X0203168Y0190244D01*
X0203056Y0189825D01*
X0203403Y0189478D01*
X0203768Y0188596D01*
X0203768Y0183311D01*
X0203403Y0182429D01*
X0203174Y0182200D01*
X0203199Y0182200D01*
X0206500Y0185501D01*
X0206500Y0193099D01*
X0205699Y0193900D01*
X0206500Y0193045D02*
X0203168Y0193045D01*
X0203168Y0191447D02*
X0206500Y0191447D01*
X0206500Y0189848D02*
X0203062Y0189848D01*
X0203768Y0188250D02*
X0206500Y0188250D01*
X0206500Y0186651D02*
X0203768Y0186651D01*
X0203768Y0185053D02*
X0206051Y0185053D01*
X0204453Y0183454D02*
X0203768Y0183454D01*
X0199400Y0185954D02*
X0198554Y0186800D01*
X0196900Y0186800D01*
X0194400Y0189300D01*
X0191683Y0189300D01*
X0206261Y0177060D02*
X0227100Y0177060D01*
X0227100Y0178659D02*
X0207860Y0178659D01*
X0209458Y0180257D02*
X0227100Y0180257D01*
X0227100Y0181856D02*
X0211057Y0181856D01*
X0212189Y0183454D02*
X0227100Y0183454D01*
X0227100Y0185053D02*
X0212300Y0185053D01*
X0212300Y0186651D02*
X0227100Y0186651D01*
X0227100Y0188250D02*
X0223146Y0188250D01*
X0226789Y0189848D02*
X0227100Y0189848D01*
X0218450Y0188250D02*
X0212300Y0188250D01*
X0212300Y0189848D02*
X0214806Y0189848D01*
X0213064Y0191447D02*
X0212300Y0191447D01*
X0163700Y0145090D02*
X0163184Y0145090D01*
X0160616Y0145090D02*
X0156050Y0145090D01*
X0153078Y0141893D02*
X0152611Y0141893D01*
X0152611Y0140294D02*
X0153078Y0140294D01*
X0152845Y0139300D02*
X0154400Y0137745D01*
X0153078Y0137097D02*
X0152611Y0137097D01*
X0152611Y0135499D02*
X0153078Y0135499D01*
X0155610Y0135499D02*
X0162224Y0135499D01*
X0161685Y0133900D02*
X0142634Y0133900D01*
X0139283Y0132302D02*
X0161685Y0132302D01*
X0161685Y0130703D02*
X0138719Y0130703D01*
X0138155Y0129105D02*
X0161707Y0129105D01*
X0153078Y0138696D02*
X0152611Y0138696D01*
X0150080Y0135499D02*
X0149741Y0135499D01*
X0145955Y0139300D02*
X0144400Y0139300D01*
X0142215Y0117233D02*
X0141900Y0116918D01*
X0159900Y0109557D02*
X0160201Y0109257D01*
X0174046Y0095411D01*
X0172700Y0095411D01*
X0172700Y0082600D01*
X0185511Y0082600D01*
X0185511Y0093800D01*
X0185657Y0093800D01*
X0188036Y0091421D01*
X0187519Y0090171D01*
X0187519Y0088429D01*
X0188186Y0086818D01*
X0189418Y0085586D01*
X0191029Y0084919D01*
X0192771Y0084919D01*
X0194382Y0085586D01*
X0195614Y0086818D01*
X0196281Y0088429D01*
X0196281Y0090171D01*
X0195657Y0091679D01*
X0196882Y0092186D01*
X0198114Y0093418D01*
X0198781Y0095029D01*
X0198781Y0096771D01*
X0198114Y0098382D01*
X0196882Y0099614D01*
X0195558Y0100162D01*
X0196514Y0101118D01*
X0197181Y0102729D01*
X0197181Y0103523D01*
X0197218Y0103486D01*
X0198829Y0102819D01*
X0200571Y0102819D01*
X0201400Y0103162D01*
X0201400Y0053703D01*
X0201857Y0052601D01*
X0202701Y0051757D01*
X0203338Y0051120D01*
X0202301Y0051120D01*
X0202301Y0046453D01*
X0202129Y0046453D01*
X0202129Y0051120D01*
X0200581Y0051120D01*
X0200346Y0051354D01*
X0199464Y0051720D01*
X0194966Y0051720D01*
X0194715Y0051616D01*
X0194464Y0051720D01*
X0189966Y0051720D01*
X0189715Y0051616D01*
X0189464Y0051720D01*
X0186345Y0051720D01*
X0187113Y0052487D01*
X0187600Y0053663D01*
X0187600Y0058804D01*
X0188114Y0059318D01*
X0188781Y0060929D01*
X0188781Y0062671D01*
X0188114Y0064282D01*
X0186882Y0065514D01*
X0185271Y0066181D01*
X0183529Y0066181D01*
X0181918Y0065514D01*
X0180686Y0064282D01*
X0180019Y0062671D01*
X0180019Y0060929D01*
X0180686Y0059318D01*
X0181200Y0058804D01*
X0181200Y0057500D01*
X0163396Y0057500D01*
X0163781Y0058429D01*
X0163781Y0060171D01*
X0163114Y0061782D01*
X0162330Y0062566D01*
X0161943Y0063499D01*
X0159900Y0065543D01*
X0159900Y0068189D01*
X0171100Y0068189D01*
X0171100Y0081000D01*
X0172700Y0081000D01*
X0172700Y0082600D01*
X0171100Y0082600D01*
X0171100Y0095411D01*
X0159900Y0095411D01*
X0159900Y0109557D01*
X0160201Y0109257D02*
X0160201Y0109257D01*
X0159900Y0108324D02*
X0161133Y0108324D01*
X0159900Y0106726D02*
X0162732Y0106726D01*
X0164330Y0105127D02*
X0159900Y0105127D01*
X0159900Y0103529D02*
X0165929Y0103529D01*
X0167527Y0101930D02*
X0159900Y0101930D01*
X0159900Y0100332D02*
X0169126Y0100332D01*
X0170724Y0098733D02*
X0159900Y0098733D01*
X0159900Y0097134D02*
X0172323Y0097134D01*
X0173921Y0095536D02*
X0159900Y0095536D01*
X0171100Y0093937D02*
X0172700Y0093937D01*
X0172700Y0092339D02*
X0171100Y0092339D01*
X0171100Y0090740D02*
X0172700Y0090740D01*
X0172700Y0089142D02*
X0171100Y0089142D01*
X0171100Y0087543D02*
X0172700Y0087543D01*
X0172700Y0085945D02*
X0171100Y0085945D01*
X0171100Y0084346D02*
X0172700Y0084346D01*
X0172700Y0082748D02*
X0171100Y0082748D01*
X0171100Y0082600D02*
X0159900Y0082600D01*
X0159900Y0081000D01*
X0171100Y0081000D01*
X0171100Y0082600D01*
X0171100Y0081149D02*
X0159900Y0081149D01*
X0171100Y0079551D02*
X0172700Y0079551D01*
X0172700Y0081000D02*
X0172700Y0068189D01*
X0183948Y0068189D01*
X0184406Y0068312D01*
X0184816Y0068549D01*
X0185151Y0068884D01*
X0185388Y0069294D01*
X0185511Y0069752D01*
X0185511Y0081000D01*
X0172700Y0081000D01*
X0172700Y0081149D02*
X0201400Y0081149D01*
X0201900Y0081800D02*
X0201900Y0046367D01*
X0202215Y0046367D01*
X0202129Y0046453D02*
X0202129Y0046281D01*
X0201387Y0046281D01*
X0201387Y0046453D01*
X0202129Y0046453D01*
X0202129Y0046281D02*
X0202301Y0046281D01*
X0202301Y0041614D01*
X0203900Y0041614D01*
X0203900Y0040543D01*
X0200657Y0037300D01*
X0190115Y0037300D01*
X0190115Y0041014D01*
X0194464Y0041014D01*
X0194715Y0041118D01*
X0194966Y0041014D01*
X0199464Y0041014D01*
X0200346Y0041380D01*
X0200581Y0041614D01*
X0202129Y0041614D01*
X0202129Y0046281D01*
X0202129Y0045982D02*
X0202301Y0045982D01*
X0202301Y0044384D02*
X0202129Y0044384D01*
X0202129Y0042785D02*
X0202301Y0042785D01*
X0203900Y0041187D02*
X0199880Y0041187D01*
X0202945Y0039588D02*
X0190115Y0039588D01*
X0190115Y0037990D02*
X0201347Y0037990D01*
X0202129Y0047581D02*
X0202301Y0047581D01*
X0202301Y0049179D02*
X0202129Y0049179D01*
X0202129Y0050778D02*
X0202301Y0050778D01*
X0202081Y0052376D02*
X0187002Y0052376D01*
X0187600Y0053975D02*
X0201400Y0053975D01*
X0201400Y0055573D02*
X0187600Y0055573D01*
X0187600Y0057172D02*
X0201400Y0057172D01*
X0201400Y0058770D02*
X0187600Y0058770D01*
X0188549Y0060369D02*
X0201400Y0060369D01*
X0201400Y0061967D02*
X0188781Y0061967D01*
X0188411Y0063566D02*
X0201400Y0063566D01*
X0201400Y0065164D02*
X0187232Y0065164D01*
X0184492Y0068361D02*
X0201400Y0068361D01*
X0201400Y0066763D02*
X0159900Y0066763D01*
X0160278Y0065164D02*
X0181568Y0065164D01*
X0180389Y0063566D02*
X0161877Y0063566D01*
X0162929Y0061967D02*
X0180019Y0061967D01*
X0180251Y0060369D02*
X0163699Y0060369D01*
X0163781Y0058770D02*
X0181200Y0058770D01*
X0184400Y0061800D02*
X0184400Y0054300D01*
X0151900Y0054300D01*
X0151900Y0046682D01*
X0151902Y0046649D01*
X0151907Y0046617D01*
X0151915Y0046585D01*
X0151927Y0046554D01*
X0151942Y0046525D01*
X0151960Y0046497D01*
X0151981Y0046471D01*
X0152004Y0046448D01*
X0152030Y0046427D01*
X0152058Y0046409D01*
X0152087Y0046394D01*
X0152118Y0046382D01*
X0152150Y0046374D01*
X0152182Y0046369D01*
X0152215Y0046367D01*
X0171100Y0068361D02*
X0172700Y0068361D01*
X0172700Y0069960D02*
X0171100Y0069960D01*
X0171100Y0071558D02*
X0172700Y0071558D01*
X0172700Y0073157D02*
X0171100Y0073157D01*
X0171100Y0074755D02*
X0172700Y0074755D01*
X0172700Y0076354D02*
X0171100Y0076354D01*
X0171100Y0077952D02*
X0172700Y0077952D01*
X0185511Y0077952D02*
X0201400Y0077952D01*
X0201400Y0076354D02*
X0185511Y0076354D01*
X0185511Y0074755D02*
X0201400Y0074755D01*
X0201400Y0073157D02*
X0185511Y0073157D01*
X0185511Y0071558D02*
X0201400Y0071558D01*
X0201400Y0069960D02*
X0185511Y0069960D01*
X0185511Y0079551D02*
X0201400Y0079551D01*
X0201400Y0082748D02*
X0185511Y0082748D01*
X0185511Y0084346D02*
X0201400Y0084346D01*
X0201400Y0085945D02*
X0194741Y0085945D01*
X0195914Y0087543D02*
X0201400Y0087543D01*
X0201400Y0089142D02*
X0196281Y0089142D01*
X0196045Y0090740D02*
X0201400Y0090740D01*
X0201400Y0092339D02*
X0197035Y0092339D01*
X0198329Y0093937D02*
X0201400Y0093937D01*
X0201400Y0095536D02*
X0198781Y0095536D01*
X0198631Y0097134D02*
X0201400Y0097134D01*
X0201400Y0098733D02*
X0197763Y0098733D01*
X0195727Y0100332D02*
X0201400Y0100332D01*
X0201400Y0101930D02*
X0196850Y0101930D01*
X0187118Y0092339D02*
X0185511Y0092339D01*
X0185511Y0090740D02*
X0187755Y0090740D01*
X0187519Y0089142D02*
X0185511Y0089142D01*
X0185511Y0087543D02*
X0187886Y0087543D01*
X0189059Y0085945D02*
X0185511Y0085945D01*
X0115915Y0064300D02*
X0114313Y0062699D01*
X0113400Y0060493D01*
X0113400Y0059300D01*
X0107023Y0059300D01*
X0106141Y0058935D01*
X0105465Y0058259D01*
X0105100Y0057377D01*
X0105100Y0047423D01*
X0105465Y0046541D01*
X0106141Y0045865D01*
X0107023Y0045500D01*
X0113977Y0045500D01*
X0114499Y0045716D01*
X0115415Y0044800D01*
X0088001Y0044800D01*
X0087300Y0045501D01*
X0087300Y0046940D01*
X0087465Y0046541D01*
X0088141Y0045865D01*
X0089023Y0045500D01*
X0095977Y0045500D01*
X0096859Y0045865D01*
X0097535Y0046541D01*
X0097900Y0047423D01*
X0097900Y0055505D01*
X0099103Y0056003D01*
X0100197Y0057097D01*
X0100789Y0058526D01*
X0100789Y0058663D01*
X0101664Y0059539D01*
X0102111Y0059985D01*
X0102112Y0059986D01*
X0102113Y0059987D01*
X0102357Y0060577D01*
X0102599Y0061161D01*
X0102599Y0061162D01*
X0102600Y0061163D01*
X0102600Y0061800D01*
X0102609Y0071663D01*
X0102609Y0071665D01*
X0102609Y0072294D01*
X0102610Y0072934D01*
X0102609Y0072936D01*
X0102602Y0083200D01*
X0102616Y0083200D01*
X0103842Y0083708D01*
X0104815Y0083708D01*
X0105324Y0083919D01*
X0105100Y0083377D01*
X0105100Y0073423D01*
X0105465Y0072541D01*
X0106141Y0071865D01*
X0106500Y0071716D01*
X0106500Y0066900D01*
X0106103Y0066503D01*
X0105511Y0065074D01*
X0105511Y0063526D01*
X0106103Y0062097D01*
X0107197Y0061003D01*
X0108626Y0060411D01*
X0110174Y0060411D01*
X0111603Y0061003D01*
X0112697Y0062097D01*
X0113289Y0063526D01*
X0113289Y0065074D01*
X0112697Y0066503D01*
X0112300Y0066900D01*
X0112300Y0071500D01*
X0113817Y0071500D01*
X0113400Y0070493D01*
X0113400Y0068107D01*
X0114313Y0065901D01*
X0115915Y0064300D01*
X0115180Y0063566D02*
X0113289Y0063566D01*
X0113251Y0065164D02*
X0115050Y0065164D01*
X0113957Y0066763D02*
X0112437Y0066763D01*
X0112300Y0068361D02*
X0113400Y0068361D01*
X0113400Y0069960D02*
X0112300Y0069960D01*
X0106500Y0069960D02*
X0102607Y0069960D01*
X0102608Y0071558D02*
X0106500Y0071558D01*
X0105210Y0073157D02*
X0102609Y0073157D01*
X0102608Y0074755D02*
X0105100Y0074755D01*
X0105100Y0076354D02*
X0102607Y0076354D01*
X0102606Y0077952D02*
X0105100Y0077952D01*
X0105100Y0079551D02*
X0102605Y0079551D01*
X0102604Y0081149D02*
X0105100Y0081149D01*
X0105100Y0082748D02*
X0102603Y0082748D01*
X0104400Y0069300D02*
X0105109Y0069300D01*
X0106500Y0068361D02*
X0102606Y0068361D01*
X0102604Y0066763D02*
X0106363Y0066763D01*
X0105549Y0065164D02*
X0102603Y0065164D01*
X0102602Y0063566D02*
X0105511Y0063566D01*
X0106233Y0061967D02*
X0102600Y0061967D01*
X0102271Y0060369D02*
X0113400Y0060369D01*
X0114010Y0061967D02*
X0112567Y0061967D01*
X0105976Y0058770D02*
X0100896Y0058770D01*
X0100228Y0057172D02*
X0105100Y0057172D01*
X0105100Y0055573D02*
X0098065Y0055573D01*
X0097900Y0053975D02*
X0105100Y0053975D01*
X0105100Y0052376D02*
X0097900Y0052376D01*
X0097900Y0050778D02*
X0105100Y0050778D01*
X0105100Y0049179D02*
X0097900Y0049179D01*
X0097900Y0047581D02*
X0105100Y0047581D01*
X0106024Y0045982D02*
X0096976Y0045982D01*
X0088024Y0045982D02*
X0087300Y0045982D01*
X0087300Y0058770D02*
X0087976Y0058770D01*
X0087851Y0073157D02*
X0084892Y0073157D01*
X0085100Y0074755D02*
X0087700Y0074755D01*
X0087700Y0076354D02*
X0085100Y0076354D01*
X0085100Y0079551D02*
X0087700Y0079551D01*
X0087700Y0081149D02*
X0085100Y0081149D01*
X0085100Y0082748D02*
X0087700Y0082748D01*
X0075500Y0079551D02*
X0074176Y0079551D01*
X0075500Y0076354D02*
X0072300Y0076354D01*
X0073046Y0074755D02*
X0075500Y0074755D01*
X0052050Y0041187D02*
X0051750Y0041187D01*
X0051750Y0039588D02*
X0052050Y0039588D01*
X0052050Y0037990D02*
X0051750Y0037990D01*
X0055726Y0037990D02*
X0056609Y0037990D01*
X0049417Y0031596D02*
X0046070Y0031596D01*
X0046070Y0029997D02*
X0047548Y0029997D01*
X0046741Y0028399D02*
X0045828Y0028399D01*
X0030602Y0039588D02*
X0029200Y0039588D01*
X0086900Y0114718D02*
X0114400Y0114718D01*
X0099400Y0145090D02*
X0098862Y0145090D01*
X0099400Y0148287D02*
X0096910Y0148287D01*
X0096910Y0149885D02*
X0102285Y0149885D01*
X0089400Y0146688D02*
X0089400Y0146688D01*
X0036587Y0173863D02*
X0030430Y0173863D01*
X0145922Y0188250D02*
X0146289Y0188250D01*
X0146389Y0189848D02*
X0145922Y0189848D01*
D38*
X0153045Y0191600D02*
X0153245Y0189300D01*
X0159400Y0189300D01*
X0163800Y0184900D01*
X0163800Y0183400D01*
X0167100Y0180500D01*
X0180900Y0180600D01*
X0182300Y0180100D01*
X0182800Y0179400D01*
X0185800Y0179800D02*
X0183600Y0182900D01*
X0187400Y0179800D02*
X0189200Y0181600D01*
X0191900Y0179300D02*
X0204400Y0179300D01*
X0209400Y0184300D01*
X0209400Y0194300D01*
X0206900Y0196800D01*
X0161900Y0196800D01*
X0159200Y0192700D01*
X0164400Y0189300D02*
X0166250Y0192450D01*
X0169400Y0192450D01*
X0171900Y0186800D02*
X0171054Y0185954D01*
X0169400Y0185954D01*
X0171900Y0186800D02*
X0176057Y0186800D01*
X0177466Y0185391D01*
X0174400Y0178100D02*
X0174813Y0177687D01*
X0173239Y0175461D02*
X0170361Y0175461D01*
X0169361Y0174461D01*
X0165715Y0172985D02*
X0165715Y0170485D01*
X0164790Y0168910D02*
X0159400Y0174300D01*
X0159400Y0169300D02*
X0161900Y0166800D01*
X0166900Y0166800D01*
X0167939Y0165761D01*
X0173800Y0169400D02*
X0173800Y0159800D01*
X0173500Y0159500D01*
X0173400Y0159500D01*
X0173800Y0159100D01*
X0173800Y0155600D01*
X0172937Y0154737D01*
X0170483Y0153162D02*
X0166900Y0153162D01*
X0164862Y0153162D01*
X0161600Y0153400D01*
X0161000Y0155600D02*
X0146300Y0155600D01*
X0143200Y0155600D01*
X0141900Y0154300D01*
X0145600Y0156400D02*
X0145600Y0158945D01*
X0145955Y0159300D01*
X0145600Y0156400D02*
X0146300Y0155600D01*
X0140500Y0163000D02*
X0155500Y0163000D01*
X0157464Y0161036D01*
X0158589Y0162611D02*
X0155600Y0165600D01*
X0145000Y0165600D01*
X0145000Y0165200D01*
X0136900Y0165100D01*
X0136900Y0176800D01*
X0126900Y0176800D01*
X0125471Y0178229D01*
X0125471Y0181750D01*
X0129400Y0179438D02*
X0129400Y0184083D01*
X0129400Y0186800D01*
X0119400Y0186800D01*
X0116900Y0189300D01*
X0112746Y0189300D01*
X0129400Y0189800D02*
X0129400Y0186800D01*
X0145463Y0176800D02*
X0145955Y0176308D01*
X0145955Y0169300D01*
X0145155Y0168500D01*
X0141200Y0168500D01*
X0136900Y0165100D02*
X0134079Y0165100D01*
X0133337Y0159300D02*
X0132845Y0158808D01*
X0132845Y0149300D01*
X0141900Y0139300D02*
X0141900Y0139100D01*
X0140600Y0137800D01*
X0141900Y0139300D02*
X0145955Y0139300D01*
X0152845Y0139300D02*
X0159400Y0139300D01*
X0166900Y0140100D02*
X0184400Y0140100D01*
X0184262Y0141938D01*
X0184262Y0150406D01*
X0184300Y0147200D01*
X0184400Y0146800D01*
X0184400Y0143355D01*
X0185955Y0141800D01*
X0192845Y0141800D02*
X0192845Y0145245D01*
X0194400Y0146800D01*
X0196900Y0146800D01*
X0196900Y0151800D01*
X0195538Y0153162D01*
X0193317Y0153162D01*
X0189738Y0153162D01*
X0189000Y0153900D01*
X0181513Y0153900D01*
X0181113Y0154300D01*
X0181113Y0161013D01*
X0181113Y0154300D02*
X0181113Y0150406D01*
X0177963Y0150406D02*
X0178000Y0153200D01*
X0173239Y0150406D02*
X0173200Y0148000D01*
X0173239Y0148139D02*
X0171900Y0144300D01*
X0177500Y0144900D02*
X0177963Y0147637D01*
X0167875Y0156312D02*
X0166300Y0157887D01*
X0164087Y0157887D01*
X0161000Y0155600D01*
X0164837Y0154737D02*
X0164862Y0153162D01*
X0159914Y0164186D02*
X0156500Y0167600D01*
X0156500Y0167200D01*
X0156900Y0166800D01*
X0156500Y0167600D02*
X0156100Y0167600D01*
X0154400Y0169300D01*
X0152845Y0169300D01*
X0152845Y0176308D01*
X0153337Y0176800D01*
X0159400Y0179300D02*
X0165715Y0172985D01*
X0173800Y0169400D02*
X0174800Y0170400D01*
X0184100Y0170400D01*
X0188500Y0170200D01*
X0189400Y0169300D01*
X0189400Y0169200D01*
X0189700Y0168900D01*
X0190100Y0168500D01*
X0190100Y0163400D01*
X0190889Y0162611D01*
X0193317Y0162611D01*
X0198589Y0162611D01*
X0201900Y0159300D01*
X0201900Y0151800D01*
X0203150Y0150550D01*
X0199400Y0146800D01*
X0199400Y0142253D01*
X0204400Y0141800D02*
X0206054Y0141800D01*
X0204400Y0141800D02*
X0204400Y0134300D01*
X0201900Y0134300D01*
X0199400Y0136347D01*
X0212746Y0141800D02*
X0219400Y0141800D01*
X0219400Y0149300D01*
X0219400Y0156800D01*
X0219400Y0164300D01*
X0214400Y0179300D01*
X0212845Y0171800D01*
X0205955Y0171800D02*
X0204400Y0169300D01*
X0204010Y0168910D01*
X0199400Y0166800D02*
X0201900Y0164300D01*
X0205955Y0164300D01*
X0205463Y0163808D01*
X0205463Y0156800D01*
X0203150Y0150550D02*
X0204400Y0149300D01*
X0205955Y0149300D01*
X0212845Y0149300D02*
X0219400Y0149300D01*
X0219400Y0156800D02*
X0213337Y0156800D01*
X0212845Y0164300D02*
X0219400Y0164300D01*
X0199400Y0166800D02*
X0196900Y0166800D01*
X0196364Y0167336D01*
X0193317Y0168910D02*
X0193307Y0168900D01*
X0189700Y0168900D01*
X0195585Y0170485D02*
X0198150Y0173050D01*
X0199400Y0174300D01*
X0198150Y0173050D02*
X0196900Y0174300D01*
X0196900Y0176800D01*
X0191900Y0176800D01*
X0180000Y0177400D02*
X0177963Y0175363D01*
X0174800Y0170900D02*
X0174800Y0170400D01*
X0199400Y0192646D02*
X0202746Y0192646D01*
X0204400Y0189300D01*
X0174600Y0136700D02*
X0173600Y0132654D01*
X0172746Y0131800D01*
X0110500Y0078400D02*
X0109400Y0074300D01*
X0109400Y0064300D01*
X0104400Y0069300D02*
X0104400Y0081800D01*
X0109161Y0088234D01*
X0092500Y0078400D02*
X0080400Y0078400D01*
X0080300Y0078500D01*
X0076100Y0078500D01*
X0074400Y0076800D01*
X0071900Y0071800D02*
X0069400Y0074300D01*
X0069400Y0079300D01*
X0068600Y0078500D01*
X0062300Y0078500D01*
X0056900Y0071800D02*
X0069400Y0071800D01*
X0069400Y0056800D01*
X0074400Y0051800D01*
X0066900Y0059300D02*
X0059400Y0059300D01*
X0059400Y0064300D01*
X0056900Y0071800D02*
X0056900Y0089300D01*
X0061900Y0094300D01*
X0064400Y0094300D01*
X0071900Y0071800D02*
X0081900Y0071800D01*
X0084400Y0069300D01*
X0084400Y0044300D01*
X0086900Y0041800D01*
X0079400Y0039300D02*
X0069400Y0039300D01*
X0066900Y0041800D01*
X0066900Y0059300D01*
X0056900Y0056800D02*
X0056900Y0041800D01*
X0061900Y0036800D01*
X0186900Y0036800D01*
X0187215Y0037115D01*
X0187215Y0046367D01*
X0056900Y0056800D02*
X0046900Y0056800D01*
D39*
X0152845Y0159300D02*
X0161900Y0159300D01*
X0162062Y0159462D01*
X0170483Y0159462D01*
X0172983Y0159462D01*
X0173021Y0159500D01*
X0173400Y0159500D01*
X0170483Y0161036D02*
X0157464Y0161036D01*
X0158589Y0162611D02*
X0170483Y0162611D01*
X0170483Y0164186D02*
X0159914Y0164186D01*
X0164790Y0168910D02*
X0170483Y0168910D01*
X0170483Y0170485D02*
X0165715Y0170485D01*
X0167939Y0165761D02*
X0170483Y0165761D01*
X0174800Y0170900D02*
X0174813Y0173241D01*
X0174813Y0177687D01*
X0175000Y0178100D02*
X0176388Y0176712D01*
X0176388Y0173241D01*
X0177963Y0173241D02*
X0177963Y0175363D01*
X0173239Y0175461D02*
X0173239Y0173241D01*
X0184262Y0173241D02*
X0184100Y0170400D01*
X0184262Y0173241D02*
X0184200Y0176800D01*
X0184200Y0177000D01*
X0182800Y0179400D01*
X0185800Y0179800D02*
X0185837Y0173241D01*
X0187412Y0173241D02*
X0187400Y0179800D01*
X0188987Y0176387D02*
X0191900Y0179300D01*
X0191900Y0176800D02*
X0190561Y0175461D01*
X0190561Y0173241D01*
X0188987Y0173241D02*
X0188987Y0176387D01*
X0193317Y0170485D02*
X0195585Y0170485D01*
X0193317Y0168910D02*
X0204010Y0168910D01*
X0196364Y0167336D02*
X0193317Y0167336D01*
X0177963Y0150406D02*
X0177963Y0147637D01*
X0176400Y0148000D02*
X0176388Y0150406D01*
X0174813Y0150406D02*
X0174800Y0148000D01*
X0176400Y0148000D01*
X0174800Y0148000D02*
X0173200Y0148000D01*
X0173239Y0148139D02*
X0173239Y0150406D01*
X0172937Y0154737D02*
X0170483Y0154737D01*
X0164837Y0154737D01*
X0167875Y0156312D02*
X0170483Y0156312D01*
X0170483Y0157887D02*
X0166300Y0157887D01*
D40*
X0161900Y0149300D03*
X0159400Y0139300D03*
X0171900Y0144300D03*
X0177500Y0144900D03*
X0174600Y0136700D03*
X0181900Y0161800D03*
X0169361Y0174461D03*
X0159400Y0174300D03*
X0159400Y0169300D03*
X0159400Y0179300D03*
X0164400Y0189300D03*
X0159200Y0192700D03*
X0140900Y0187000D03*
X0141200Y0168500D03*
X0140500Y0160500D03*
X0141900Y0154300D03*
X0140600Y0137800D03*
X0129400Y0119300D03*
X0141900Y0091800D03*
X0144400Y0084300D03*
X0146900Y0076800D03*
X0151900Y0066800D03*
X0149400Y0059300D03*
X0159400Y0059300D03*
X0184400Y0061800D03*
X0191900Y0089300D03*
X0194400Y0095900D03*
X0192800Y0103600D03*
X0199700Y0107200D03*
X0164400Y0101800D03*
X0104400Y0069300D03*
X0091900Y0091800D03*
X0074400Y0051800D03*
X0079400Y0156800D03*
X0099400Y0156800D03*
X0119400Y0159300D03*
X0119400Y0166800D03*
X0099400Y0184300D03*
X0090900Y0196600D03*
X0180000Y0177400D03*
X0199400Y0174300D03*
X0214400Y0179300D03*
X0204400Y0189300D03*
D41*
X0199400Y0185954D02*
X0199400Y0181800D01*
X0198900Y0181600D01*
X0189200Y0181600D01*
X0183600Y0182900D02*
X0173400Y0182900D01*
X0169400Y0185954D01*
X0165600Y0178100D02*
X0158300Y0185400D01*
X0152945Y0185400D01*
X0152900Y0181400D01*
X0140900Y0181400D01*
X0139400Y0181800D01*
X0134400Y0181800D01*
X0133337Y0181761D01*
X0140900Y0187000D02*
X0146155Y0187000D01*
X0146055Y0185400D01*
X0165600Y0178100D02*
X0174400Y0178100D01*
X0175000Y0178100D01*
X0161600Y0153400D02*
X0148500Y0153400D01*
X0146900Y0151800D01*
X0146900Y0150146D01*
X0146054Y0149300D01*
X0152746Y0149300D02*
X0161900Y0149300D01*
X0166054Y0131800D02*
X0166900Y0130954D01*
X0166900Y0126800D01*
X0181900Y0126800D01*
X0181900Y0131800D01*
X0191900Y0131800D02*
X0196900Y0131800D01*
X0201900Y0126800D01*
X0201900Y0117548D01*
X0202215Y0117233D01*
X0204400Y0111800D02*
X0194400Y0111800D01*
X0192215Y0113985D01*
X0192215Y0117233D01*
X0199700Y0107200D02*
X0182900Y0107200D01*
X0176900Y0114300D01*
X0176900Y0116918D01*
X0177215Y0117233D01*
X0172215Y0117233D02*
X0171900Y0116918D01*
X0172215Y0117233D02*
X0171900Y0117548D01*
X0171900Y0119300D01*
X0171900Y0117548D02*
X0171900Y0114300D01*
X0182000Y0103500D01*
X0192800Y0103600D01*
X0190000Y0099700D02*
X0194400Y0095900D01*
X0191900Y0091800D02*
X0186900Y0096800D01*
X0176900Y0096800D01*
X0161900Y0111800D01*
X0161900Y0117548D01*
X0162215Y0117233D01*
X0161900Y0117548D02*
X0161900Y0119300D01*
X0157215Y0117233D02*
X0156900Y0116918D01*
X0156900Y0064300D01*
X0159400Y0061800D01*
X0159400Y0059300D01*
X0149400Y0059300D02*
X0146900Y0064300D01*
X0146900Y0069300D01*
X0151900Y0074300D01*
X0151900Y0106800D01*
X0146900Y0111800D01*
X0146900Y0116918D01*
X0147215Y0117233D01*
X0151900Y0116918D02*
X0152215Y0117233D01*
X0151900Y0116918D02*
X0151900Y0111800D01*
X0154400Y0109300D01*
X0154400Y0071800D01*
X0151900Y0069300D01*
X0151900Y0066800D01*
X0146900Y0076800D02*
X0149400Y0079300D01*
X0149400Y0104300D01*
X0141900Y0111800D01*
X0141900Y0116918D01*
X0137215Y0117233D02*
X0136900Y0116918D01*
X0136900Y0111800D01*
X0146900Y0101800D01*
X0146900Y0086800D01*
X0144400Y0084300D01*
X0141900Y0091800D02*
X0139400Y0094300D01*
X0139400Y0099300D01*
X0131349Y0099300D01*
X0129400Y0099300D01*
X0131349Y0094300D02*
X0124400Y0094300D01*
X0119400Y0099300D01*
X0114400Y0104200D02*
X0113100Y0102900D01*
X0113100Y0089673D01*
X0109161Y0088234D01*
X0119400Y0089300D02*
X0131349Y0089300D01*
X0131349Y0084300D02*
X0129400Y0084300D01*
X0119400Y0079300D01*
X0121900Y0074300D02*
X0119400Y0069300D01*
X0121900Y0074300D02*
X0129400Y0079300D01*
X0131349Y0079300D01*
X0131349Y0074300D02*
X0127100Y0074300D01*
X0125300Y0072500D01*
X0125300Y0067500D01*
X0120900Y0063100D01*
X0120900Y0060800D01*
X0119400Y0059300D01*
X0124800Y0062900D02*
X0126600Y0064200D01*
X0126600Y0066200D01*
X0129700Y0069300D01*
X0131349Y0069300D01*
X0131349Y0064300D02*
X0136900Y0064300D01*
X0136900Y0054300D01*
X0133800Y0052800D01*
X0127700Y0055651D02*
X0131349Y0059300D01*
X0127700Y0055651D02*
X0127700Y0049600D01*
X0124800Y0055200D02*
X0119400Y0049300D01*
X0124800Y0055200D02*
X0124800Y0062900D01*
X0136467Y0046367D02*
X0131900Y0041800D01*
X0086900Y0041800D01*
X0079400Y0039300D02*
X0179400Y0039300D01*
X0181900Y0041800D01*
X0181900Y0046052D01*
X0182215Y0046367D01*
X0201900Y0034300D02*
X0206900Y0039300D01*
X0206900Y0051800D01*
X0204400Y0054300D01*
X0204400Y0111800D01*
X0190000Y0099700D02*
X0180900Y0099700D01*
X0166900Y0114300D01*
X0166900Y0116918D01*
X0167215Y0117233D01*
X0164400Y0101800D02*
X0171900Y0094300D01*
X0171900Y0081800D01*
X0201900Y0081800D01*
X0191900Y0089300D02*
X0191900Y0091800D01*
X0191900Y0131800D02*
X0194400Y0134300D01*
X0194400Y0140245D01*
X0192845Y0141800D01*
X0133337Y0159300D02*
X0133400Y0163800D01*
X0134079Y0165100D01*
X0125463Y0159300D02*
X0124400Y0160363D01*
X0124400Y0161800D01*
X0119400Y0166800D01*
X0119400Y0176800D01*
X0112845Y0169300D02*
X0113500Y0168645D01*
X0113500Y0166000D01*
X0115700Y0163800D01*
X0116500Y0163800D01*
X0119400Y0160900D01*
X0119400Y0159300D01*
X0114400Y0156800D02*
X0113337Y0159300D01*
X0111900Y0161800D01*
X0106900Y0166800D01*
X0105955Y0169300D01*
X0105463Y0159300D02*
X0104400Y0156800D01*
X0104400Y0151800D01*
X0106054Y0149300D01*
X0112746Y0149300D02*
X0114400Y0149300D01*
X0114400Y0156800D01*
X0099400Y0146800D02*
X0089400Y0146800D01*
X0089400Y0149517D01*
X0089400Y0154162D01*
X0086900Y0156800D01*
X0079400Y0156800D01*
X0049400Y0169300D02*
X0038430Y0161806D01*
X0049400Y0169300D02*
X0049400Y0186800D01*
X0051900Y0189300D01*
X0069400Y0189300D01*
X0071900Y0191800D01*
X0071900Y0201800D01*
X0090900Y0196600D02*
X0089400Y0191662D01*
X0089400Y0187017D01*
X0096900Y0194300D02*
X0111900Y0194300D01*
X0111900Y0190146D01*
X0112746Y0189300D01*
X0096900Y0194300D02*
X0094600Y0196600D01*
X0090900Y0196600D01*
X0129400Y0119300D02*
X0129400Y0111800D01*
X0124400Y0106800D02*
X0116900Y0106800D01*
X0114400Y0104300D01*
X0114400Y0104200D01*
X0124400Y0106800D02*
X0126900Y0104300D01*
X0129400Y0104300D01*
X0072845Y0097745D02*
X0067845Y0097745D01*
X0064400Y0094300D01*
X0056900Y0105619D02*
X0057569Y0106288D01*
X0051900Y0081800D02*
X0049400Y0081800D01*
X0044400Y0076800D01*
X0044400Y0059300D01*
X0046900Y0056800D01*
X0059400Y0064300D02*
X0051900Y0071800D01*
X0072746Y0053454D02*
X0074400Y0051800D01*
X0069400Y0034300D02*
X0061900Y0026800D01*
X0069400Y0034300D02*
X0201900Y0034300D01*
X0137215Y0046367D02*
X0136467Y0046367D01*
D42*
X0101900Y0086800D02*
X0099400Y0086800D01*
X0084400Y0086800D01*
X0083150Y0088050D01*
X0080955Y0088355D01*
X0080702Y0088355D01*
X0083150Y0088050D02*
X0080837Y0092863D01*
X0080837Y0097745D01*
X0079400Y0106288D02*
X0079912Y0106800D01*
X0089400Y0106800D01*
X0090457Y0105743D01*
X0090457Y0099167D01*
X0099557Y0099167D02*
X0099557Y0089143D01*
X0101900Y0086800D01*
X0108657Y0099167D02*
X0108657Y0108557D01*
X0111900Y0109300D01*
X0121900Y0113473D02*
X0121900Y0113788D01*
X0124912Y0114300D01*
X0129400Y0111800D01*
X0129400Y0104300D01*
X0131349Y0104300D01*
X0122412Y0124300D02*
X0121900Y0124812D01*
X0121900Y0139300D01*
X0124400Y0141800D01*
X0136900Y0141800D01*
X0144400Y0149300D01*
X0146054Y0149300D01*
X0121900Y0124812D02*
X0114912Y0124812D01*
X0114400Y0124300D01*
X0122412Y0124300D02*
X0194400Y0124300D01*
X0197215Y0121485D01*
X0197215Y0117233D01*
X0085463Y0151839D02*
X0076900Y0141800D01*
X0058115Y0141728D01*
X0067884Y0124477D02*
X0079223Y0124477D01*
X0079400Y0124300D01*
X0079400Y0117312D01*
X0074009Y0088355D02*
X0074009Y0087191D01*
X0074400Y0084300D01*
X0074400Y0181800D02*
X0058115Y0181885D01*
X0074400Y0181800D02*
X0076900Y0181800D01*
X0085463Y0189339D01*
D43*
X0171900Y0089300D03*
X0176900Y0086800D03*
X0171900Y0081800D03*
X0176900Y0076800D03*
X0171900Y0074300D03*
X0166900Y0076800D03*
X0166900Y0086800D03*
X0109400Y0064300D03*
X0096900Y0059300D03*
X0074400Y0076800D03*
D44*
X0099557Y0099167D02*
X0099557Y0111957D01*
X0101900Y0114300D01*
X0109400Y0114300D01*
X0111900Y0116800D01*
X0111900Y0121800D01*
X0114400Y0124300D01*
D45*
X0111900Y0109300D03*
X0133800Y0052800D03*
X0127700Y0049600D03*
D46*
X0104400Y0124300D03*
X0099400Y0124300D03*
X0094400Y0124300D03*
M02*
