G75*
%MOIN*%
%OFA0B0*%
%FSLAX25Y25*%
%IPPOS*%
%LPD*%
%AMOC8*
5,1,8,0,0,1.08239X$1,22.5*
%
%ADD10R,0.22500X0.02500*%
%ADD11C,0.07000*%
%ADD12C,0.10000*%
%ADD13C,0.08858*%
%ADD14C,0.07400*%
%ADD15C,0.06800*%
%ADD16C,0.07874*%
%ADD17C,0.07200*%
%ADD18C,0.03962*%
%ADD19C,0.01000*%
%ADD20C,0.01200*%
%ADD21C,0.01600*%
%ADD22C,0.02978*%
%ADD23R,0.03962X0.03962*%
%ADD24C,0.02400*%
%ADD25C,0.03569*%
D10*
X0100650Y0123050D03*
D11*
X0181900Y0131800D03*
X0191900Y0131800D03*
D12*
X0038430Y0161806D03*
D13*
X0058115Y0152357D03*
X0058115Y0141728D03*
X0058115Y0171255D03*
X0058115Y0181885D03*
D14*
X0086900Y0139300D03*
X0096900Y0139300D03*
D15*
X0081900Y0201800D03*
X0071900Y0201800D03*
X0061900Y0201800D03*
D16*
X0067884Y0128414D02*
X0067884Y0120540D01*
X0060010Y0104792D02*
X0052136Y0104792D01*
X0043081Y0120540D02*
X0043081Y0128414D01*
D17*
X0051900Y0091800D03*
X0051900Y0081800D03*
X0051900Y0071800D03*
X0051900Y0061800D03*
X0051900Y0051800D03*
X0051900Y0041800D03*
X0051900Y0026800D03*
X0061900Y0026800D03*
X0071900Y0026800D03*
X0081900Y0026800D03*
X0091900Y0026800D03*
X0101900Y0026800D03*
X0111900Y0026800D03*
X0121900Y0026800D03*
X0131900Y0026800D03*
X0141900Y0026800D03*
X0151900Y0026800D03*
X0161900Y0026800D03*
X0171900Y0026800D03*
X0181900Y0026800D03*
X0191900Y0026800D03*
X0201900Y0026800D03*
X0119400Y0049300D03*
X0119400Y0059300D03*
X0119400Y0069300D03*
X0119400Y0079300D03*
X0119400Y0089300D03*
X0119400Y0099300D03*
D18*
X0129400Y0119300D03*
X0140600Y0137800D03*
X0141900Y0154300D03*
X0140500Y0160500D03*
X0141200Y0168500D03*
X0159400Y0169300D03*
X0159400Y0174300D03*
X0159400Y0179300D03*
X0169361Y0174461D03*
X0180000Y0177400D03*
X0181900Y0161800D03*
X0199400Y0174300D03*
X0214400Y0179300D03*
X0204400Y0189300D03*
X0164400Y0189300D03*
X0159200Y0192700D03*
X0140900Y0187000D03*
X0119400Y0166800D03*
X0119400Y0159300D03*
X0099400Y0156800D03*
X0079400Y0156800D03*
X0099400Y0184300D03*
X0090900Y0196600D03*
X0159400Y0139300D03*
X0161900Y0149300D03*
X0171900Y0144300D03*
X0177500Y0144900D03*
X0174600Y0136700D03*
X0199700Y0107200D03*
X0192800Y0103600D03*
X0194400Y0095900D03*
X0191900Y0089300D03*
X0164400Y0101800D03*
X0144400Y0084300D03*
X0141900Y0091800D03*
X0146900Y0076800D03*
X0151900Y0066800D03*
X0149400Y0059300D03*
X0159400Y0059300D03*
X0184400Y0061800D03*
X0104400Y0069300D03*
X0091900Y0091800D03*
X0074400Y0051800D03*
D19*
X0074400Y0064300D01*
X0109400Y0064300D01*
X0074400Y0069300D02*
X0074400Y0076800D01*
X0136900Y0129300D02*
X0136900Y0131800D01*
X0136900Y0149300D01*
X0141900Y0154300D01*
X0141900Y0144300D01*
X0144400Y0141800D01*
X0156900Y0141800D01*
X0159400Y0139300D01*
X0164400Y0136800D02*
X0164400Y0149300D01*
X0161900Y0149300D01*
X0164400Y0149300D02*
X0164400Y0181800D01*
X0159400Y0186800D01*
X0159200Y0192700D01*
X0164400Y0189300D02*
X0184400Y0189300D01*
X0184400Y0182400D01*
X0180000Y0177400D01*
X0179400Y0166800D01*
X0181900Y0166800D01*
X0181900Y0161800D01*
X0176900Y0156800D01*
X0176900Y0154300D01*
X0171900Y0149300D01*
X0171900Y0144300D01*
X0169400Y0144300D01*
X0169400Y0129300D01*
X0166900Y0126800D01*
X0164400Y0126800D01*
X0139400Y0126800D01*
X0136900Y0129300D01*
X0144400Y0134300D02*
X0161900Y0134300D01*
X0164400Y0136800D01*
X0174600Y0136700D02*
X0177500Y0144900D01*
X0176900Y0166800D02*
X0179400Y0166800D01*
X0176900Y0166800D02*
X0169400Y0174300D01*
X0169561Y0174461D01*
X0169361Y0174461D01*
X0159400Y0174300D02*
X0156900Y0171800D01*
X0154400Y0174300D02*
X0159400Y0179300D01*
X0141900Y0169300D02*
X0141900Y0169200D01*
X0141000Y0168300D02*
X0121100Y0168300D01*
X0119600Y0166800D01*
X0119400Y0166800D01*
X0140600Y0137800D02*
X0140900Y0137800D01*
X0144400Y0134300D01*
X0181900Y0166800D02*
X0199400Y0166800D01*
X0199400Y0174300D01*
X0199400Y0166800D02*
X0214400Y0166800D01*
X0214400Y0179300D01*
X0204400Y0189300D02*
X0184400Y0189300D01*
D20*
X0164400Y0189300D02*
X0164500Y0196500D01*
X0147400Y0196500D01*
X0141900Y0189300D01*
X0140900Y0187000D01*
X0154400Y0174300D02*
X0109400Y0174300D01*
X0099400Y0171800D02*
X0156900Y0171800D01*
X0159400Y0169300D02*
X0141900Y0169300D01*
X0141900Y0169200D02*
X0141200Y0168500D01*
X0141000Y0168300D01*
X0164400Y0126800D02*
X0164400Y0101800D01*
X0144400Y0084300D02*
X0141900Y0081800D01*
X0141900Y0054300D01*
X0144400Y0051800D01*
X0144400Y0046800D01*
X0131900Y0034300D01*
X0126900Y0034300D01*
X0121900Y0029300D01*
X0121900Y0026800D01*
X0115900Y0034300D02*
X0123400Y0041800D01*
X0129400Y0041800D01*
X0131900Y0044300D01*
X0131900Y0050900D01*
X0133800Y0052800D01*
X0127700Y0049600D02*
X0114900Y0036800D01*
X0101900Y0036800D01*
X0091900Y0026800D01*
X0101900Y0026800D02*
X0101900Y0029300D01*
X0106900Y0034300D01*
X0115900Y0034300D01*
X0121900Y0036800D02*
X0111900Y0026800D01*
X0121900Y0036800D02*
X0129400Y0036800D01*
X0139400Y0046800D01*
X0139400Y0086800D01*
X0141900Y0089300D01*
X0141900Y0091800D01*
X0146900Y0076800D02*
X0146900Y0066800D01*
X0144400Y0064300D01*
X0144400Y0056800D01*
X0146900Y0054300D01*
X0146900Y0044300D01*
X0134400Y0031800D01*
X0131900Y0026800D01*
X0141900Y0026800D02*
X0151900Y0036800D01*
X0151900Y0056800D01*
X0149400Y0059300D01*
X0154400Y0061800D02*
X0154400Y0031800D01*
X0151900Y0029300D01*
X0151900Y0026800D01*
X0161900Y0026800D02*
X0161900Y0056800D01*
X0159400Y0059300D01*
X0154400Y0061800D02*
X0151900Y0066800D01*
X0179400Y0039300D02*
X0171900Y0031800D01*
X0171900Y0026800D01*
X0181900Y0026800D02*
X0181900Y0031800D01*
X0184400Y0034300D01*
X0191900Y0034300D01*
X0196900Y0039300D01*
X0196900Y0095300D01*
X0194400Y0095900D01*
X0199400Y0099300D02*
X0192800Y0103600D01*
X0199700Y0106500D02*
X0204400Y0101800D01*
X0204400Y0029300D01*
X0201900Y0026800D01*
X0191900Y0026800D02*
X0191900Y0029300D01*
X0199400Y0036800D01*
X0199400Y0099300D01*
X0199700Y0106500D02*
X0199700Y0107200D01*
X0194400Y0089300D02*
X0191900Y0089300D01*
X0194400Y0089300D02*
X0194400Y0041800D01*
X0191900Y0039300D01*
X0179400Y0039300D01*
X0074400Y0041800D02*
X0061900Y0029300D01*
X0061900Y0026800D01*
X0051900Y0026800D02*
X0051900Y0041800D01*
X0074400Y0041800D02*
X0074400Y0051800D01*
X0074400Y0136800D02*
X0074400Y0156800D01*
X0076900Y0156800D01*
X0076900Y0166800D01*
X0091900Y0166800D01*
X0091900Y0195600D01*
X0090900Y0196600D01*
X0079400Y0156800D02*
X0076900Y0156800D01*
D21*
X0044400Y0024300D02*
X0048400Y0020400D01*
X0078400Y0020400D01*
X0081900Y0021800D01*
X0081900Y0026800D01*
X0082425Y0032800D02*
X0083713Y0034087D01*
X0084613Y0034987D01*
X0085100Y0036163D01*
X0085100Y0056100D01*
X0094600Y0056100D01*
X0094697Y0056003D01*
X0096126Y0055411D01*
X0097674Y0055411D01*
X0099103Y0056003D01*
X0100197Y0057097D01*
X0100789Y0058526D01*
X0100789Y0060074D01*
X0100240Y0061400D01*
X0106800Y0061400D01*
X0107197Y0061003D01*
X0108626Y0060411D01*
X0110174Y0060411D01*
X0111603Y0061003D01*
X0112697Y0062097D01*
X0113289Y0063526D01*
X0113289Y0065074D01*
X0112697Y0066503D01*
X0111603Y0067597D01*
X0110174Y0068189D01*
X0108626Y0068189D01*
X0107197Y0067597D01*
X0106800Y0067200D01*
X0073823Y0067200D01*
X0072757Y0066758D01*
X0071941Y0065943D01*
X0071500Y0064877D01*
X0071500Y0055096D01*
X0070686Y0054282D01*
X0070019Y0052671D01*
X0070019Y0050929D01*
X0070686Y0049318D01*
X0071400Y0048604D01*
X0071400Y0043043D01*
X0061157Y0032800D01*
X0060707Y0032800D01*
X0058501Y0031887D01*
X0056813Y0030199D01*
X0056551Y0029566D01*
X0056518Y0029630D01*
X0056019Y0030318D01*
X0055418Y0030919D01*
X0054730Y0031418D01*
X0053973Y0031804D01*
X0053165Y0032067D01*
X0052325Y0032200D01*
X0052050Y0032200D01*
X0052050Y0026950D01*
X0051750Y0026950D01*
X0051750Y0032200D01*
X0051475Y0032200D01*
X0050635Y0032067D01*
X0049827Y0031804D01*
X0049070Y0031418D01*
X0048382Y0030919D01*
X0047781Y0030318D01*
X0047600Y0030069D01*
X0047600Y0037437D01*
X0047113Y0038613D01*
X0046213Y0039513D01*
X0045100Y0040625D01*
X0045100Y0107975D01*
X0048167Y0111041D01*
X0085930Y0110179D01*
X0089861Y0106248D01*
X0091184Y0105700D01*
X0108144Y0105700D01*
X0108559Y0105284D01*
X0109441Y0104919D01*
X0114358Y0104919D01*
X0115241Y0105284D01*
X0115916Y0105959D01*
X0116281Y0106841D01*
X0116281Y0109485D01*
X0124400Y0109300D01*
X0139470Y0156185D01*
X0139629Y0156119D01*
X0141371Y0156119D01*
X0142982Y0156786D01*
X0144214Y0158018D01*
X0144881Y0159629D01*
X0144881Y0161371D01*
X0144214Y0162982D01*
X0142982Y0164214D01*
X0142641Y0164355D01*
X0143682Y0164786D01*
X0144914Y0166018D01*
X0145031Y0166300D01*
X0156204Y0166300D01*
X0156918Y0165586D01*
X0158529Y0164919D01*
X0160271Y0164919D01*
X0161500Y0165428D01*
X0161500Y0153681D01*
X0161029Y0153681D01*
X0159418Y0153014D01*
X0158186Y0151782D01*
X0157519Y0150171D01*
X0157519Y0148429D01*
X0158186Y0146818D01*
X0159418Y0145586D01*
X0161029Y0144919D01*
X0161500Y0144919D01*
X0161500Y0138001D01*
X0160699Y0137200D01*
X0145601Y0137200D01*
X0144981Y0137820D01*
X0144981Y0138671D01*
X0144314Y0140282D01*
X0143082Y0141514D01*
X0141471Y0142181D01*
X0139729Y0142181D01*
X0138118Y0141514D01*
X0136886Y0140282D01*
X0136219Y0138671D01*
X0136219Y0136929D01*
X0136886Y0135318D01*
X0138118Y0134086D01*
X0139729Y0133419D01*
X0141180Y0133419D01*
X0141941Y0132657D01*
X0142757Y0131841D01*
X0143823Y0131400D01*
X0162477Y0131400D01*
X0163543Y0131841D01*
X0166043Y0134341D01*
X0166858Y0135157D01*
X0167300Y0136223D01*
X0167300Y0182377D01*
X0166858Y0183443D01*
X0166043Y0184258D01*
X0162260Y0188042D01*
X0162210Y0189514D01*
X0162914Y0190218D01*
X0163581Y0191829D01*
X0163581Y0193571D01*
X0162914Y0195182D01*
X0161682Y0196414D01*
X0160071Y0197081D01*
X0158329Y0197081D01*
X0156718Y0196414D01*
X0155486Y0195182D01*
X0154819Y0193571D01*
X0154819Y0191829D01*
X0155486Y0190218D01*
X0156414Y0189290D01*
X0156500Y0186751D01*
X0156500Y0186223D01*
X0156519Y0186176D01*
X0156521Y0186125D01*
X0156740Y0185645D01*
X0156941Y0185157D01*
X0156977Y0185121D01*
X0156999Y0185075D01*
X0157384Y0184715D01*
X0158450Y0183649D01*
X0156918Y0183014D01*
X0155686Y0181782D01*
X0155019Y0180171D01*
X0155019Y0179020D01*
X0153299Y0177300D01*
X0146257Y0177300D01*
X0146900Y0179300D01*
X0141900Y0181800D01*
X0141900Y0204500D01*
X0212472Y0204500D01*
X0211189Y0202276D01*
X0210486Y0199654D01*
X0210486Y0196938D01*
X0211189Y0194316D01*
X0212546Y0191964D01*
X0214466Y0190045D01*
X0216817Y0188687D01*
X0219440Y0187984D01*
X0222155Y0187984D01*
X0224778Y0188687D01*
X0227100Y0190028D01*
X0227100Y0121600D01*
X0210945Y0121600D01*
X0209181Y0120869D01*
X0207831Y0119519D01*
X0207100Y0117755D01*
X0207100Y0103121D01*
X0206943Y0103499D01*
X0206099Y0104343D01*
X0204081Y0106362D01*
X0204081Y0108071D01*
X0203414Y0109682D01*
X0202182Y0110914D01*
X0200571Y0111581D01*
X0198829Y0111581D01*
X0197218Y0110914D01*
X0195986Y0109682D01*
X0195319Y0108071D01*
X0195319Y0107277D01*
X0195282Y0107314D01*
X0193671Y0107981D01*
X0191929Y0107981D01*
X0190318Y0107314D01*
X0189086Y0106082D01*
X0188419Y0104471D01*
X0188419Y0102729D01*
X0189086Y0101118D01*
X0190318Y0099886D01*
X0191642Y0099338D01*
X0190686Y0098382D01*
X0190019Y0096771D01*
X0190019Y0095029D01*
X0190643Y0093521D01*
X0189418Y0093014D01*
X0188186Y0091782D01*
X0187600Y0090367D01*
X0187600Y0126281D01*
X0187637Y0126392D01*
X0187600Y0126914D01*
X0187600Y0127437D01*
X0187555Y0127545D01*
X0187547Y0127662D01*
X0187313Y0128129D01*
X0187113Y0128613D01*
X0187030Y0128696D01*
X0187014Y0128728D01*
X0187239Y0129273D01*
X0187367Y0129022D01*
X0187857Y0128347D01*
X0188447Y0127757D01*
X0189122Y0127267D01*
X0189866Y0126888D01*
X0190659Y0126630D01*
X0191483Y0126500D01*
X0191825Y0126500D01*
X0191825Y0131725D01*
X0191975Y0131725D01*
X0191975Y0131875D01*
X0191825Y0131875D01*
X0191825Y0137100D01*
X0191483Y0137100D01*
X0190659Y0136969D01*
X0189866Y0136712D01*
X0189122Y0136333D01*
X0188447Y0135843D01*
X0187857Y0135253D01*
X0187367Y0134578D01*
X0187239Y0134327D01*
X0186902Y0135142D01*
X0185242Y0136802D01*
X0183074Y0137700D01*
X0180726Y0137700D01*
X0178981Y0136977D01*
X0178981Y0137571D01*
X0178443Y0138870D01*
X0179139Y0140837D01*
X0179982Y0141186D01*
X0181214Y0142418D01*
X0181881Y0144029D01*
X0181881Y0145771D01*
X0181214Y0147382D01*
X0179982Y0148614D01*
X0178371Y0149281D01*
X0176629Y0149281D01*
X0175018Y0148614D01*
X0173786Y0147382D01*
X0173119Y0145771D01*
X0173119Y0144029D01*
X0173657Y0142730D01*
X0172961Y0140763D01*
X0172118Y0140414D01*
X0170886Y0139182D01*
X0170219Y0137571D01*
X0170219Y0135829D01*
X0170886Y0134218D01*
X0172118Y0132986D01*
X0173729Y0132319D01*
X0175471Y0132319D01*
X0176000Y0132538D01*
X0176000Y0130626D01*
X0176898Y0128458D01*
X0178558Y0126798D01*
X0180726Y0125900D01*
X0181200Y0125900D01*
X0181200Y0064796D01*
X0180686Y0064282D01*
X0180019Y0062671D01*
X0180019Y0060929D01*
X0180686Y0059318D01*
X0181918Y0058086D01*
X0183529Y0057419D01*
X0185271Y0057419D01*
X0186882Y0058086D01*
X0188114Y0059318D01*
X0188781Y0060929D01*
X0188781Y0062671D01*
X0188114Y0064282D01*
X0187600Y0064796D01*
X0187600Y0088233D01*
X0188186Y0086818D01*
X0189418Y0085586D01*
X0191029Y0084919D01*
X0191400Y0084919D01*
X0191400Y0043043D01*
X0190657Y0042300D01*
X0178803Y0042300D01*
X0177701Y0041843D01*
X0169357Y0033499D01*
X0168900Y0032397D01*
X0168900Y0032052D01*
X0168501Y0031887D01*
X0166900Y0030285D01*
X0165299Y0031887D01*
X0164900Y0032052D01*
X0164900Y0057397D01*
X0164443Y0058499D01*
X0163781Y0059162D01*
X0163781Y0060171D01*
X0163114Y0061782D01*
X0161882Y0063014D01*
X0160271Y0063681D01*
X0158529Y0063681D01*
X0157111Y0063094D01*
X0156943Y0063499D01*
X0156866Y0063577D01*
X0156013Y0065282D01*
X0156281Y0065929D01*
X0156281Y0067671D01*
X0155614Y0069282D01*
X0154382Y0070514D01*
X0152771Y0071181D01*
X0151029Y0071181D01*
X0149900Y0070714D01*
X0149900Y0073604D01*
X0150614Y0074318D01*
X0151281Y0075929D01*
X0151281Y0077671D01*
X0150614Y0079282D01*
X0149382Y0080514D01*
X0147771Y0081181D01*
X0147477Y0081181D01*
X0148114Y0081818D01*
X0148781Y0083429D01*
X0148781Y0085171D01*
X0148114Y0086782D01*
X0146882Y0088014D01*
X0145271Y0088681D01*
X0144977Y0088681D01*
X0145614Y0089318D01*
X0146281Y0090929D01*
X0146281Y0092671D01*
X0145614Y0094282D01*
X0144382Y0095514D01*
X0142771Y0096181D01*
X0141029Y0096181D01*
X0139418Y0095514D01*
X0138186Y0094282D01*
X0137519Y0092671D01*
X0137519Y0090929D01*
X0138036Y0089679D01*
X0137701Y0089343D01*
X0136857Y0088499D01*
X0136400Y0087397D01*
X0136400Y0057122D01*
X0136258Y0057181D01*
X0131341Y0057181D01*
X0130459Y0056816D01*
X0129784Y0056141D01*
X0129419Y0055258D01*
X0129419Y0053981D01*
X0125241Y0053981D01*
X0124359Y0053616D01*
X0123964Y0053221D01*
X0122885Y0054300D01*
X0124487Y0055901D01*
X0125400Y0058107D01*
X0125400Y0060493D01*
X0124487Y0062699D01*
X0122885Y0064300D01*
X0124487Y0065901D01*
X0125400Y0068107D01*
X0125400Y0070493D01*
X0124487Y0072699D01*
X0122885Y0074300D01*
X0124487Y0075901D01*
X0125400Y0078107D01*
X0125400Y0080493D01*
X0124487Y0082699D01*
X0122885Y0084300D01*
X0124487Y0085901D01*
X0125400Y0088107D01*
X0125400Y0090493D01*
X0124487Y0092699D01*
X0122885Y0094300D01*
X0124487Y0095901D01*
X0125400Y0098107D01*
X0125400Y0100493D01*
X0124487Y0102699D01*
X0122799Y0104387D01*
X0120593Y0105300D01*
X0118207Y0105300D01*
X0116001Y0104387D01*
X0114313Y0102699D01*
X0113400Y0100493D01*
X0113400Y0098107D01*
X0114313Y0095901D01*
X0115915Y0094300D01*
X0114313Y0092699D01*
X0113400Y0090493D01*
X0113400Y0088107D01*
X0114313Y0085901D01*
X0115915Y0084300D01*
X0114313Y0082699D01*
X0113400Y0080493D01*
X0113400Y0078107D01*
X0114313Y0075901D01*
X0115915Y0074300D01*
X0114313Y0072699D01*
X0113400Y0070493D01*
X0113400Y0068107D01*
X0114313Y0065901D01*
X0115915Y0064300D01*
X0114313Y0062699D01*
X0113400Y0060493D01*
X0113400Y0058107D01*
X0114313Y0055901D01*
X0115915Y0054300D01*
X0114313Y0052699D01*
X0113400Y0050493D01*
X0113400Y0048107D01*
X0114313Y0045901D01*
X0116001Y0044213D01*
X0117465Y0043607D01*
X0113657Y0039800D01*
X0101303Y0039800D01*
X0100201Y0039343D01*
X0099357Y0038499D01*
X0093492Y0032635D01*
X0093093Y0032800D01*
X0090707Y0032800D01*
X0088501Y0031887D01*
X0086900Y0030285D01*
X0085299Y0031887D01*
X0083093Y0032800D01*
X0082425Y0032800D01*
X0082820Y0033194D02*
X0094051Y0033194D01*
X0095650Y0034793D02*
X0084418Y0034793D01*
X0085100Y0036391D02*
X0097248Y0036391D01*
X0098847Y0037990D02*
X0085100Y0037990D01*
X0085100Y0039588D02*
X0100792Y0039588D01*
X0088210Y0031596D02*
X0085590Y0031596D01*
X0081900Y0036800D02*
X0081900Y0059300D01*
X0096900Y0059300D01*
X0095735Y0055573D02*
X0085100Y0055573D01*
X0085100Y0053975D02*
X0115589Y0053975D01*
X0114642Y0055573D02*
X0098065Y0055573D01*
X0100228Y0057172D02*
X0113787Y0057172D01*
X0113400Y0058770D02*
X0100789Y0058770D01*
X0100667Y0060369D02*
X0113400Y0060369D01*
X0114010Y0061967D02*
X0112567Y0061967D01*
X0113289Y0063566D02*
X0115180Y0063566D01*
X0115050Y0065164D02*
X0113251Y0065164D01*
X0113957Y0066763D02*
X0112437Y0066763D01*
X0113400Y0068361D02*
X0056947Y0068361D01*
X0056987Y0068401D02*
X0057900Y0070607D01*
X0057900Y0072993D01*
X0056987Y0075199D01*
X0055385Y0076800D01*
X0056987Y0078401D01*
X0057900Y0080607D01*
X0057900Y0082993D01*
X0056987Y0085199D01*
X0055385Y0086800D01*
X0056987Y0088401D01*
X0057900Y0090607D01*
X0057900Y0092993D01*
X0056987Y0095199D01*
X0055299Y0096887D01*
X0053093Y0097800D01*
X0050707Y0097800D01*
X0048501Y0096887D01*
X0046813Y0095199D01*
X0045900Y0092993D01*
X0045900Y0090607D01*
X0046813Y0088401D01*
X0048415Y0086800D01*
X0046813Y0085199D01*
X0045900Y0082993D01*
X0045900Y0080607D01*
X0046813Y0078401D01*
X0048415Y0076800D01*
X0046813Y0075199D01*
X0045900Y0072993D01*
X0045900Y0070607D01*
X0046813Y0068401D01*
X0048415Y0066800D01*
X0046813Y0065199D01*
X0045900Y0062993D01*
X0045900Y0060607D01*
X0046813Y0058401D01*
X0048415Y0056800D01*
X0046813Y0055199D01*
X0045900Y0052993D01*
X0045900Y0050607D01*
X0046813Y0048401D01*
X0048501Y0046713D01*
X0049134Y0046451D01*
X0049070Y0046418D01*
X0048382Y0045919D01*
X0047781Y0045318D01*
X0047282Y0044630D01*
X0046896Y0043873D01*
X0046633Y0043065D01*
X0046500Y0042225D01*
X0046500Y0041950D01*
X0051750Y0041950D01*
X0051750Y0041650D01*
X0046500Y0041650D01*
X0046500Y0041375D01*
X0046633Y0040535D01*
X0046896Y0039727D01*
X0047282Y0038970D01*
X0047781Y0038282D01*
X0048382Y0037681D01*
X0049070Y0037182D01*
X0049827Y0036796D01*
X0050635Y0036533D01*
X0051475Y0036400D01*
X0051750Y0036400D01*
X0051750Y0041650D01*
X0052050Y0041650D01*
X0052050Y0041950D01*
X0057300Y0041950D01*
X0057300Y0042225D01*
X0057167Y0043065D01*
X0056904Y0043873D01*
X0056518Y0044630D01*
X0056019Y0045318D01*
X0055418Y0045919D01*
X0054730Y0046418D01*
X0054666Y0046451D01*
X0055299Y0046713D01*
X0056987Y0048401D01*
X0057900Y0050607D01*
X0057900Y0052993D01*
X0056987Y0055199D01*
X0055385Y0056800D01*
X0056987Y0058401D01*
X0057900Y0060607D01*
X0057900Y0062993D01*
X0056987Y0065199D01*
X0055385Y0066800D01*
X0056987Y0068401D01*
X0057632Y0069960D02*
X0113400Y0069960D01*
X0113841Y0071558D02*
X0057900Y0071558D01*
X0057832Y0073157D02*
X0114772Y0073157D01*
X0115459Y0074755D02*
X0057170Y0074755D01*
X0055831Y0076354D02*
X0114126Y0076354D01*
X0113464Y0077952D02*
X0056538Y0077952D01*
X0057463Y0079551D02*
X0113400Y0079551D01*
X0113672Y0081149D02*
X0057900Y0081149D01*
X0057900Y0082748D02*
X0114363Y0082748D01*
X0115868Y0084346D02*
X0057340Y0084346D01*
X0056240Y0085945D02*
X0114295Y0085945D01*
X0113633Y0087543D02*
X0056129Y0087543D01*
X0057293Y0089142D02*
X0113400Y0089142D01*
X0113502Y0090740D02*
X0057900Y0090740D01*
X0057900Y0092339D02*
X0114164Y0092339D01*
X0115552Y0093937D02*
X0057509Y0093937D01*
X0056649Y0095536D02*
X0114679Y0095536D01*
X0113803Y0097134D02*
X0054700Y0097134D01*
X0055889Y0099055D02*
X0051685Y0099055D01*
X0050793Y0099196D01*
X0049934Y0099475D01*
X0049129Y0099885D01*
X0048399Y0100416D01*
X0047760Y0101055D01*
X0047229Y0101785D01*
X0046820Y0102590D01*
X0046540Y0103449D01*
X0046399Y0104341D01*
X0046399Y0104608D01*
X0055889Y0104608D01*
X0055889Y0104976D01*
X0046399Y0104976D01*
X0046399Y0105244D01*
X0046540Y0106136D01*
X0046820Y0106994D01*
X0047229Y0107799D01*
X0047760Y0108530D01*
X0048399Y0109168D01*
X0049129Y0109699D01*
X0049934Y0110109D01*
X0050793Y0110388D01*
X0051685Y0110529D01*
X0055889Y0110529D01*
X0055889Y0104976D01*
X0056257Y0104976D01*
X0056257Y0110529D01*
X0060462Y0110529D01*
X0061354Y0110388D01*
X0062212Y0110109D01*
X0063017Y0109699D01*
X0063748Y0109168D01*
X0064386Y0108530D01*
X0064917Y0107799D01*
X0065327Y0106994D01*
X0065606Y0106136D01*
X0065747Y0105244D01*
X0065747Y0104976D01*
X0056258Y0104976D01*
X0056258Y0104608D01*
X0065747Y0104608D01*
X0065747Y0104341D01*
X0065606Y0103449D01*
X0065327Y0102590D01*
X0064917Y0101785D01*
X0064386Y0101055D01*
X0063748Y0100416D01*
X0063017Y0099885D01*
X0062212Y0099475D01*
X0061354Y0099196D01*
X0060462Y0099055D01*
X0056257Y0099055D01*
X0056257Y0104608D01*
X0055889Y0104608D01*
X0055889Y0099055D01*
X0055889Y0100332D02*
X0056257Y0100332D01*
X0056257Y0101930D02*
X0055889Y0101930D01*
X0055889Y0103529D02*
X0056257Y0103529D01*
X0056257Y0105127D02*
X0055889Y0105127D01*
X0055889Y0106726D02*
X0056257Y0106726D01*
X0056257Y0108324D02*
X0055889Y0108324D01*
X0055889Y0109923D02*
X0056257Y0109923D01*
X0061900Y0114300D02*
X0046900Y0114300D01*
X0041900Y0109300D01*
X0041900Y0039300D01*
X0044400Y0036800D01*
X0044400Y0024300D01*
X0051900Y0026800D02*
X0064400Y0039300D01*
X0064400Y0066800D01*
X0066900Y0069300D01*
X0074400Y0069300D01*
X0091900Y0069300D01*
X0091900Y0091800D01*
X0089383Y0106726D02*
X0065414Y0106726D01*
X0065747Y0105127D02*
X0108939Y0105127D01*
X0113995Y0101930D02*
X0064991Y0101930D01*
X0065619Y0103529D02*
X0115143Y0103529D01*
X0114861Y0105127D02*
X0117789Y0105127D01*
X0116233Y0106726D02*
X0181200Y0106726D01*
X0181200Y0108324D02*
X0116281Y0108324D01*
X0121011Y0105127D02*
X0181200Y0105127D01*
X0181200Y0103529D02*
X0123657Y0103529D01*
X0124805Y0101930D02*
X0181200Y0101930D01*
X0181200Y0100332D02*
X0125400Y0100332D01*
X0125400Y0098733D02*
X0181200Y0098733D01*
X0181200Y0097134D02*
X0124997Y0097134D01*
X0124121Y0095536D02*
X0139471Y0095536D01*
X0138043Y0093937D02*
X0123248Y0093937D01*
X0124636Y0092339D02*
X0137519Y0092339D01*
X0137597Y0090740D02*
X0125298Y0090740D01*
X0125400Y0089142D02*
X0137499Y0089142D01*
X0136461Y0087543D02*
X0125167Y0087543D01*
X0124505Y0085945D02*
X0136400Y0085945D01*
X0136400Y0084346D02*
X0122932Y0084346D01*
X0124437Y0082748D02*
X0136400Y0082748D01*
X0136400Y0081149D02*
X0125128Y0081149D01*
X0125400Y0079551D02*
X0136400Y0079551D01*
X0136400Y0077952D02*
X0125336Y0077952D01*
X0124674Y0076354D02*
X0136400Y0076354D01*
X0136400Y0074755D02*
X0123341Y0074755D01*
X0124028Y0073157D02*
X0136400Y0073157D01*
X0136400Y0071558D02*
X0124959Y0071558D01*
X0125400Y0069960D02*
X0136400Y0069960D01*
X0136400Y0068361D02*
X0125400Y0068361D01*
X0124843Y0066763D02*
X0136400Y0066763D01*
X0136400Y0065164D02*
X0123750Y0065164D01*
X0123620Y0063566D02*
X0136400Y0063566D01*
X0136400Y0061967D02*
X0124790Y0061967D01*
X0125400Y0060369D02*
X0136400Y0060369D01*
X0136400Y0058770D02*
X0125400Y0058770D01*
X0125013Y0057172D02*
X0131319Y0057172D01*
X0129549Y0055573D02*
X0124158Y0055573D01*
X0123211Y0053975D02*
X0125226Y0053975D01*
X0136281Y0057172D02*
X0136400Y0057172D01*
X0149900Y0071558D02*
X0181200Y0071558D01*
X0181200Y0069960D02*
X0154936Y0069960D01*
X0155995Y0068361D02*
X0181200Y0068361D01*
X0181200Y0066763D02*
X0156281Y0066763D01*
X0156072Y0065164D02*
X0181200Y0065164D01*
X0180389Y0063566D02*
X0160550Y0063566D01*
X0158250Y0063566D02*
X0156877Y0063566D01*
X0162929Y0061967D02*
X0180019Y0061967D01*
X0180251Y0060369D02*
X0163699Y0060369D01*
X0164172Y0058770D02*
X0181234Y0058770D01*
X0184400Y0061800D02*
X0184400Y0126800D01*
X0181900Y0131800D01*
X0177850Y0127506D02*
X0130252Y0127506D01*
X0129738Y0125908D02*
X0180708Y0125908D01*
X0181200Y0124309D02*
X0129224Y0124309D01*
X0129400Y0124300D02*
X0136900Y0131800D01*
X0138566Y0133900D02*
X0132307Y0133900D01*
X0131793Y0132302D02*
X0142297Y0132302D01*
X0136811Y0135499D02*
X0132821Y0135499D01*
X0133335Y0137097D02*
X0136219Y0137097D01*
X0136229Y0138696D02*
X0133849Y0138696D01*
X0134362Y0140294D02*
X0136898Y0140294D01*
X0134876Y0141893D02*
X0139033Y0141893D01*
X0135390Y0143491D02*
X0161500Y0143491D01*
X0161500Y0141893D02*
X0142167Y0141893D01*
X0144302Y0140294D02*
X0161500Y0140294D01*
X0161500Y0138696D02*
X0144971Y0138696D01*
X0135904Y0145090D02*
X0160616Y0145090D01*
X0158316Y0146688D02*
X0136418Y0146688D01*
X0136931Y0148287D02*
X0157578Y0148287D01*
X0157519Y0149885D02*
X0137445Y0149885D01*
X0137959Y0151484D02*
X0158063Y0151484D01*
X0159583Y0153082D02*
X0138473Y0153082D01*
X0138987Y0154681D02*
X0161500Y0154681D01*
X0161500Y0156279D02*
X0141759Y0156279D01*
X0144074Y0157878D02*
X0161500Y0157878D01*
X0161500Y0159476D02*
X0144818Y0159476D01*
X0144881Y0161075D02*
X0161500Y0161075D01*
X0161500Y0162673D02*
X0144342Y0162673D01*
X0142842Y0164272D02*
X0161500Y0164272D01*
X0156634Y0165870D02*
X0144766Y0165870D01*
X0140500Y0160500D02*
X0136800Y0159300D01*
X0119400Y0159300D01*
X0115393Y0161075D02*
X0102600Y0161075D01*
X0102600Y0159796D02*
X0102600Y0168800D01*
X0137218Y0168800D01*
X0135500Y0162500D01*
X0122396Y0162500D01*
X0121882Y0163014D01*
X0120271Y0163681D01*
X0118529Y0163681D01*
X0116918Y0163014D01*
X0115686Y0161782D01*
X0115019Y0160171D01*
X0115019Y0158429D01*
X0115686Y0156818D01*
X0116918Y0155586D01*
X0118529Y0154919D01*
X0120271Y0154919D01*
X0121882Y0155586D01*
X0122396Y0156100D01*
X0133755Y0156100D01*
X0131900Y0149300D01*
X0099400Y0149300D01*
X0099400Y0144867D01*
X0098113Y0145400D01*
X0095687Y0145400D01*
X0093445Y0144471D01*
X0091729Y0142755D01*
X0091532Y0142281D01*
X0091095Y0142883D01*
X0090483Y0143495D01*
X0089783Y0144004D01*
X0089011Y0144397D01*
X0088188Y0144665D01*
X0087333Y0144800D01*
X0087100Y0144800D01*
X0087100Y0139500D01*
X0086700Y0139500D01*
X0086700Y0144800D01*
X0086467Y0144800D01*
X0085612Y0144665D01*
X0084789Y0144397D01*
X0084017Y0144004D01*
X0083317Y0143495D01*
X0082705Y0142883D01*
X0082196Y0142183D01*
X0081803Y0141411D01*
X0081535Y0140588D01*
X0081400Y0139733D01*
X0081400Y0139500D01*
X0086700Y0139500D01*
X0086700Y0139100D01*
X0081400Y0139100D01*
X0081400Y0138867D01*
X0081535Y0138012D01*
X0081803Y0137189D01*
X0082001Y0136800D01*
X0062845Y0136800D01*
X0063904Y0137859D01*
X0064944Y0140369D01*
X0064944Y0143086D01*
X0063904Y0145596D01*
X0062458Y0147043D01*
X0063904Y0148489D01*
X0064944Y0150999D01*
X0064944Y0153716D01*
X0063904Y0156226D01*
X0063701Y0156429D01*
X0064687Y0157415D01*
X0065868Y0160264D01*
X0065868Y0163348D01*
X0064687Y0166198D01*
X0063701Y0167184D01*
X0063904Y0167387D01*
X0064402Y0168588D01*
X0064539Y0168600D01*
X0072537Y0168600D01*
X0073713Y0169087D01*
X0074613Y0169987D01*
X0077113Y0172487D01*
X0077600Y0173663D01*
X0077600Y0185475D01*
X0083713Y0191587D01*
X0084613Y0192487D01*
X0085100Y0193663D01*
X0085100Y0196848D01*
X0085185Y0196883D01*
X0086817Y0198515D01*
X0087700Y0200646D01*
X0087700Y0202954D01*
X0087059Y0204500D01*
X0121900Y0204500D01*
X0121900Y0177300D01*
X0110925Y0177300D01*
X0103781Y0184444D01*
X0103781Y0185171D01*
X0103114Y0186782D01*
X0101882Y0188014D01*
X0100271Y0188681D01*
X0098529Y0188681D01*
X0096918Y0188014D01*
X0095686Y0186782D01*
X0095019Y0185171D01*
X0095019Y0183429D01*
X0095686Y0181818D01*
X0096918Y0180586D01*
X0098529Y0179919D01*
X0099256Y0179919D01*
X0104375Y0174800D01*
X0100519Y0174800D01*
X0100037Y0175000D01*
X0098763Y0175000D01*
X0097587Y0174513D01*
X0096687Y0173613D01*
X0096200Y0172437D01*
X0096200Y0159796D01*
X0095686Y0159282D01*
X0095019Y0157671D01*
X0095019Y0155929D01*
X0095686Y0154318D01*
X0096918Y0153086D01*
X0098529Y0152419D01*
X0100271Y0152419D01*
X0101882Y0153086D01*
X0103114Y0154318D01*
X0103781Y0155929D01*
X0103781Y0157671D01*
X0103114Y0159282D01*
X0102600Y0159796D01*
X0102919Y0159476D02*
X0115019Y0159476D01*
X0115247Y0157878D02*
X0103696Y0157878D01*
X0103781Y0156279D02*
X0116225Y0156279D01*
X0116578Y0162673D02*
X0102600Y0162673D01*
X0102600Y0164272D02*
X0135983Y0164272D01*
X0135547Y0162673D02*
X0122222Y0162673D01*
X0133368Y0154681D02*
X0103264Y0154681D01*
X0101873Y0153082D02*
X0132932Y0153082D01*
X0132496Y0151484D02*
X0064944Y0151484D01*
X0064944Y0153082D02*
X0096927Y0153082D01*
X0095536Y0154681D02*
X0064544Y0154681D01*
X0063851Y0156279D02*
X0095019Y0156279D01*
X0095104Y0157878D02*
X0064879Y0157878D01*
X0065541Y0159476D02*
X0095881Y0159476D01*
X0096200Y0161075D02*
X0065868Y0161075D01*
X0065868Y0162673D02*
X0096200Y0162673D01*
X0096200Y0164272D02*
X0065485Y0164272D01*
X0064823Y0165870D02*
X0096200Y0165870D01*
X0096200Y0167469D02*
X0063938Y0167469D01*
X0064400Y0171800D02*
X0058115Y0171255D01*
X0064400Y0171800D02*
X0071900Y0171800D01*
X0074400Y0174300D01*
X0074400Y0186800D01*
X0081900Y0194300D01*
X0081900Y0201800D01*
X0076570Y0199512D02*
X0076983Y0198515D01*
X0078615Y0196883D01*
X0078700Y0196848D01*
X0078700Y0195625D01*
X0072587Y0189513D01*
X0071687Y0188613D01*
X0071200Y0187437D01*
X0071200Y0175625D01*
X0070575Y0175000D01*
X0064894Y0175000D01*
X0064758Y0175043D01*
X0064261Y0175000D01*
X0063956Y0175000D01*
X0063904Y0175123D01*
X0062458Y0176570D01*
X0063904Y0178017D01*
X0064944Y0180527D01*
X0064944Y0183243D01*
X0063904Y0185753D01*
X0061983Y0187674D01*
X0059473Y0188714D01*
X0056757Y0188714D01*
X0054247Y0187674D01*
X0053484Y0186912D01*
X0059324Y0194698D01*
X0060661Y0196035D01*
X0060746Y0196000D01*
X0063054Y0196000D01*
X0065185Y0196883D01*
X0066817Y0198515D01*
X0067230Y0199512D01*
X0067453Y0199075D01*
X0067934Y0198412D01*
X0068512Y0197834D01*
X0069175Y0197353D01*
X0069904Y0196981D01*
X0070682Y0196728D01*
X0071491Y0196600D01*
X0071825Y0196600D01*
X0071825Y0201725D01*
X0071975Y0201725D01*
X0071975Y0196600D01*
X0072309Y0196600D01*
X0073118Y0196728D01*
X0073896Y0196981D01*
X0074625Y0197353D01*
X0075288Y0197834D01*
X0075866Y0198412D01*
X0076347Y0199075D01*
X0076570Y0199512D01*
X0076600Y0199439D02*
X0076533Y0199439D01*
X0077657Y0197841D02*
X0075295Y0197841D01*
X0078700Y0196242D02*
X0063638Y0196242D01*
X0066143Y0197841D02*
X0068505Y0197841D01*
X0067267Y0199439D02*
X0067200Y0199439D01*
X0071825Y0199439D02*
X0071975Y0199439D01*
X0071975Y0197841D02*
X0071825Y0197841D01*
X0071825Y0201038D02*
X0071975Y0201038D01*
X0077718Y0194644D02*
X0059283Y0194644D01*
X0058084Y0193045D02*
X0076120Y0193045D01*
X0074521Y0191447D02*
X0056885Y0191447D01*
X0055686Y0189848D02*
X0072923Y0189848D01*
X0071537Y0188250D02*
X0060595Y0188250D01*
X0063007Y0186651D02*
X0071200Y0186651D01*
X0071200Y0185053D02*
X0064195Y0185053D01*
X0064857Y0183454D02*
X0071200Y0183454D01*
X0071200Y0181856D02*
X0064944Y0181856D01*
X0064832Y0180257D02*
X0071200Y0180257D01*
X0071200Y0178659D02*
X0064170Y0178659D01*
X0062948Y0177060D02*
X0071200Y0177060D01*
X0071036Y0175462D02*
X0063566Y0175462D01*
X0073665Y0169068D02*
X0096200Y0169068D01*
X0096200Y0170666D02*
X0075291Y0170666D01*
X0076890Y0172265D02*
X0096200Y0172265D01*
X0096938Y0173863D02*
X0077600Y0173863D01*
X0077600Y0175462D02*
X0103713Y0175462D01*
X0102114Y0177060D02*
X0077600Y0177060D01*
X0077600Y0178659D02*
X0100516Y0178659D01*
X0097712Y0180257D02*
X0077600Y0180257D01*
X0077600Y0181856D02*
X0095670Y0181856D01*
X0095019Y0183454D02*
X0077600Y0183454D01*
X0077600Y0185053D02*
X0095019Y0185053D01*
X0095632Y0186651D02*
X0078777Y0186651D01*
X0080375Y0188250D02*
X0097487Y0188250D01*
X0101313Y0188250D02*
X0121900Y0188250D01*
X0121900Y0189848D02*
X0081974Y0189848D01*
X0083572Y0191447D02*
X0121900Y0191447D01*
X0121900Y0193045D02*
X0084844Y0193045D01*
X0085100Y0194644D02*
X0121900Y0194644D01*
X0121900Y0196242D02*
X0085100Y0196242D01*
X0086143Y0197841D02*
X0121900Y0197841D01*
X0121900Y0199439D02*
X0087200Y0199439D01*
X0087700Y0201038D02*
X0121900Y0201038D01*
X0121900Y0202636D02*
X0087700Y0202636D01*
X0087169Y0204235D02*
X0121900Y0204235D01*
X0121900Y0186651D02*
X0103168Y0186651D01*
X0103781Y0185053D02*
X0121900Y0185053D01*
X0121900Y0183454D02*
X0104771Y0183454D01*
X0106370Y0181856D02*
X0121900Y0181856D01*
X0121900Y0180257D02*
X0107968Y0180257D01*
X0109567Y0178659D02*
X0121900Y0178659D01*
X0109400Y0174300D02*
X0099400Y0184300D01*
X0099400Y0171800D02*
X0099400Y0156800D01*
X0099400Y0148287D02*
X0063702Y0148287D01*
X0064483Y0149885D02*
X0132060Y0149885D01*
X0136419Y0165870D02*
X0102600Y0165870D01*
X0102600Y0167469D02*
X0136855Y0167469D01*
X0146694Y0178659D02*
X0154657Y0178659D01*
X0155054Y0180257D02*
X0144986Y0180257D01*
X0141900Y0181856D02*
X0155760Y0181856D01*
X0157981Y0183454D02*
X0141900Y0183454D01*
X0141900Y0185053D02*
X0157022Y0185053D01*
X0156500Y0186651D02*
X0141900Y0186651D01*
X0141900Y0188250D02*
X0156449Y0188250D01*
X0155856Y0189848D02*
X0141900Y0189848D01*
X0141900Y0191447D02*
X0154977Y0191447D01*
X0154819Y0193045D02*
X0141900Y0193045D01*
X0141900Y0194644D02*
X0155263Y0194644D01*
X0156546Y0196242D02*
X0141900Y0196242D01*
X0141900Y0197841D02*
X0210486Y0197841D01*
X0210486Y0199439D02*
X0141900Y0199439D01*
X0141900Y0201038D02*
X0210857Y0201038D01*
X0211396Y0202636D02*
X0141900Y0202636D01*
X0141900Y0204235D02*
X0212319Y0204235D01*
X0210672Y0196242D02*
X0161854Y0196242D01*
X0163137Y0194644D02*
X0211101Y0194644D01*
X0211922Y0193045D02*
X0163581Y0193045D01*
X0163423Y0191447D02*
X0213064Y0191447D01*
X0214806Y0189848D02*
X0162544Y0189848D01*
X0162253Y0188250D02*
X0218450Y0188250D01*
X0223146Y0188250D02*
X0227100Y0188250D01*
X0227100Y0189848D02*
X0226789Y0189848D01*
X0227100Y0186651D02*
X0163650Y0186651D01*
X0165249Y0185053D02*
X0227100Y0185053D01*
X0227100Y0183454D02*
X0166847Y0183454D01*
X0167300Y0181856D02*
X0227100Y0181856D01*
X0227100Y0180257D02*
X0167300Y0180257D01*
X0167300Y0178659D02*
X0227100Y0178659D01*
X0227100Y0177060D02*
X0167300Y0177060D01*
X0167300Y0175462D02*
X0227100Y0175462D01*
X0227100Y0173863D02*
X0167300Y0173863D01*
X0167300Y0172265D02*
X0227100Y0172265D01*
X0227100Y0170666D02*
X0167300Y0170666D01*
X0167300Y0169068D02*
X0227100Y0169068D01*
X0227100Y0167469D02*
X0167300Y0167469D01*
X0167300Y0165870D02*
X0227100Y0165870D01*
X0227100Y0164272D02*
X0167300Y0164272D01*
X0167300Y0162673D02*
X0227100Y0162673D01*
X0227100Y0161075D02*
X0167300Y0161075D01*
X0167300Y0159476D02*
X0227100Y0159476D01*
X0227100Y0157878D02*
X0167300Y0157878D01*
X0167300Y0156279D02*
X0227100Y0156279D01*
X0227100Y0154681D02*
X0167300Y0154681D01*
X0167300Y0153082D02*
X0227100Y0153082D01*
X0227100Y0151484D02*
X0167300Y0151484D01*
X0167300Y0149885D02*
X0227100Y0149885D01*
X0227100Y0148287D02*
X0180309Y0148287D01*
X0181501Y0146688D02*
X0227100Y0146688D01*
X0227100Y0145090D02*
X0181881Y0145090D01*
X0181659Y0143491D02*
X0227100Y0143491D01*
X0227100Y0141893D02*
X0180689Y0141893D01*
X0178947Y0140294D02*
X0227100Y0140294D01*
X0227100Y0138696D02*
X0178515Y0138696D01*
X0178981Y0137097D02*
X0179271Y0137097D01*
X0173360Y0141893D02*
X0167300Y0141893D01*
X0167300Y0143491D02*
X0173341Y0143491D01*
X0173119Y0145090D02*
X0167300Y0145090D01*
X0167300Y0146688D02*
X0173499Y0146688D01*
X0174691Y0148287D02*
X0167300Y0148287D01*
X0167300Y0140294D02*
X0171998Y0140294D01*
X0170685Y0138696D02*
X0167300Y0138696D01*
X0167300Y0137097D02*
X0170219Y0137097D01*
X0170355Y0135499D02*
X0167000Y0135499D01*
X0165601Y0133900D02*
X0171204Y0133900D01*
X0176000Y0132302D02*
X0164003Y0132302D01*
X0176000Y0130703D02*
X0131280Y0130703D01*
X0130766Y0129105D02*
X0176630Y0129105D01*
X0181200Y0122711D02*
X0128711Y0122711D01*
X0128197Y0121112D02*
X0181200Y0121112D01*
X0181200Y0119514D02*
X0127683Y0119514D01*
X0127169Y0117915D02*
X0181200Y0117915D01*
X0181200Y0116317D02*
X0126655Y0116317D01*
X0126142Y0114718D02*
X0181200Y0114718D01*
X0181200Y0113120D02*
X0125628Y0113120D01*
X0125114Y0111521D02*
X0181200Y0111521D01*
X0181200Y0109923D02*
X0124600Y0109923D01*
X0129400Y0119300D02*
X0129400Y0124300D01*
X0113400Y0100332D02*
X0063631Y0100332D01*
X0064535Y0108324D02*
X0087785Y0108324D01*
X0086186Y0109923D02*
X0062578Y0109923D01*
X0061900Y0114300D02*
X0067884Y0120284D01*
X0067884Y0124477D01*
X0062200Y0134300D02*
X0068000Y0137500D01*
X0073700Y0137500D01*
X0074400Y0136800D01*
X0084400Y0139300D01*
X0086900Y0139300D01*
X0086700Y0140294D02*
X0087100Y0140294D01*
X0087100Y0141893D02*
X0086700Y0141893D01*
X0086700Y0143491D02*
X0087100Y0143491D01*
X0083313Y0143491D02*
X0064776Y0143491D01*
X0064944Y0141893D02*
X0082048Y0141893D01*
X0081489Y0140294D02*
X0064913Y0140294D01*
X0064251Y0138696D02*
X0081427Y0138696D01*
X0081850Y0137097D02*
X0063143Y0137097D01*
X0062200Y0134300D02*
X0054400Y0134300D01*
X0046900Y0136800D01*
X0046900Y0151800D01*
X0041894Y0161806D01*
X0038430Y0161806D01*
X0039106Y0161130D02*
X0039106Y0155037D01*
X0039759Y0155123D01*
X0040620Y0155353D01*
X0041444Y0155694D01*
X0042216Y0156140D01*
X0042923Y0156683D01*
X0043553Y0157313D01*
X0044096Y0158020D01*
X0044542Y0158792D01*
X0044883Y0159616D01*
X0045114Y0160477D01*
X0045200Y0161130D01*
X0039106Y0161130D01*
X0037754Y0161130D01*
X0037754Y0155037D01*
X0037100Y0155123D01*
X0036239Y0155353D01*
X0035416Y0155694D01*
X0034644Y0156140D01*
X0033937Y0156683D01*
X0033306Y0157313D01*
X0032764Y0158020D01*
X0032318Y0158792D01*
X0031977Y0159616D01*
X0031746Y0160477D01*
X0031660Y0161130D01*
X0037753Y0161130D01*
X0037753Y0162483D01*
X0031660Y0162483D01*
X0031746Y0163136D01*
X0031977Y0163997D01*
X0032318Y0164820D01*
X0032764Y0165592D01*
X0033306Y0166299D01*
X0033937Y0166930D01*
X0034644Y0167472D01*
X0035416Y0167918D01*
X0036239Y0168259D01*
X0037100Y0168490D01*
X0037754Y0168576D01*
X0037754Y0162483D01*
X0039106Y0162483D01*
X0039106Y0168576D01*
X0039759Y0168490D01*
X0040620Y0168259D01*
X0041444Y0167918D01*
X0042216Y0167472D01*
X0042923Y0166930D01*
X0043553Y0166299D01*
X0044096Y0165592D01*
X0044542Y0164820D01*
X0044883Y0163997D01*
X0045114Y0163136D01*
X0045200Y0162483D01*
X0039106Y0162483D01*
X0039106Y0161130D01*
X0039106Y0161075D02*
X0037754Y0161075D01*
X0037754Y0162673D02*
X0039106Y0162673D01*
X0039106Y0164272D02*
X0037754Y0164272D01*
X0037754Y0165870D02*
X0039106Y0165870D01*
X0039106Y0167469D02*
X0037754Y0167469D01*
X0042220Y0167469D02*
X0046200Y0167469D01*
X0046200Y0165870D02*
X0043883Y0165870D01*
X0044769Y0164272D02*
X0046200Y0164272D01*
X0046200Y0162673D02*
X0045174Y0162673D01*
X0045192Y0161075D02*
X0046200Y0161075D01*
X0046200Y0159476D02*
X0044825Y0159476D01*
X0043987Y0157878D02*
X0046200Y0157878D01*
X0046200Y0156817D02*
X0046194Y0156196D01*
X0046200Y0156180D01*
X0046200Y0156163D01*
X0046437Y0155590D01*
X0046669Y0155015D01*
X0046681Y0155003D01*
X0046687Y0154987D01*
X0047126Y0154548D01*
X0047560Y0154106D01*
X0047575Y0154099D01*
X0047587Y0154087D01*
X0048161Y0153850D01*
X0051286Y0152518D01*
X0051286Y0150999D01*
X0052326Y0148489D01*
X0053772Y0147043D01*
X0052326Y0145596D01*
X0051286Y0143086D01*
X0051286Y0140369D01*
X0052326Y0137859D01*
X0053385Y0136800D01*
X0044073Y0136800D01*
X0045002Y0137730D01*
X0046183Y0140579D01*
X0046183Y0143663D01*
X0045002Y0146513D01*
X0042821Y0148694D01*
X0039972Y0149874D01*
X0036888Y0149874D01*
X0034038Y0148694D01*
X0033509Y0148164D01*
X0032979Y0148694D01*
X0030130Y0149874D01*
X0029200Y0149874D01*
X0029200Y0173739D01*
X0030130Y0173739D01*
X0032979Y0174919D01*
X0033509Y0175449D01*
X0034038Y0174919D01*
X0036888Y0173739D01*
X0039972Y0173739D01*
X0042821Y0174919D01*
X0045002Y0177100D01*
X0046183Y0179949D01*
X0046183Y0183033D01*
X0045002Y0185883D01*
X0042821Y0188064D01*
X0040398Y0189068D01*
X0042090Y0190045D01*
X0044010Y0191964D01*
X0045367Y0194316D01*
X0046070Y0196938D01*
X0046070Y0199654D01*
X0045367Y0202276D01*
X0044083Y0204500D01*
X0056741Y0204500D01*
X0056100Y0202954D01*
X0056100Y0200646D01*
X0056135Y0200561D01*
X0054923Y0199348D01*
X0054722Y0199229D01*
X0054476Y0198902D01*
X0054187Y0198613D01*
X0054098Y0198397D01*
X0046976Y0188902D01*
X0046687Y0188613D01*
X0046598Y0188397D01*
X0046458Y0188211D01*
X0046357Y0187814D01*
X0046200Y0187437D01*
X0046200Y0187203D01*
X0046142Y0186978D01*
X0046200Y0186573D01*
X0046200Y0156817D01*
X0046195Y0156279D02*
X0042397Y0156279D01*
X0046994Y0154681D02*
X0029200Y0154681D01*
X0029200Y0156279D02*
X0034462Y0156279D01*
X0032873Y0157878D02*
X0029200Y0157878D01*
X0029200Y0159476D02*
X0032035Y0159476D01*
X0031668Y0161075D02*
X0029200Y0161075D01*
X0029200Y0162673D02*
X0031685Y0162673D01*
X0032091Y0164272D02*
X0029200Y0164272D01*
X0029200Y0165870D02*
X0032977Y0165870D01*
X0034639Y0167469D02*
X0029200Y0167469D01*
X0029200Y0169068D02*
X0046200Y0169068D01*
X0046200Y0170666D02*
X0029200Y0170666D01*
X0029200Y0172265D02*
X0046200Y0172265D01*
X0046200Y0173863D02*
X0040273Y0173863D01*
X0043364Y0175462D02*
X0046200Y0175462D01*
X0046200Y0177060D02*
X0044963Y0177060D01*
X0045648Y0178659D02*
X0046200Y0178659D01*
X0046183Y0180257D02*
X0046200Y0180257D01*
X0046183Y0181856D02*
X0046200Y0181856D01*
X0046200Y0183454D02*
X0046008Y0183454D01*
X0046200Y0185053D02*
X0045346Y0185053D01*
X0046189Y0186651D02*
X0044234Y0186651D01*
X0042373Y0188250D02*
X0046487Y0188250D01*
X0047686Y0189848D02*
X0041750Y0189848D01*
X0043492Y0191447D02*
X0048885Y0191447D01*
X0050084Y0193045D02*
X0044634Y0193045D01*
X0045455Y0194644D02*
X0051283Y0194644D01*
X0052482Y0196242D02*
X0045883Y0196242D01*
X0046070Y0197841D02*
X0053681Y0197841D01*
X0055014Y0199439D02*
X0046070Y0199439D01*
X0045699Y0201038D02*
X0056100Y0201038D01*
X0056100Y0202636D02*
X0045160Y0202636D01*
X0044237Y0204235D02*
X0056631Y0204235D01*
X0061900Y0201800D02*
X0056900Y0196800D01*
X0049400Y0186800D01*
X0049400Y0156800D01*
X0058115Y0153085D01*
X0058115Y0152357D01*
X0052528Y0148287D02*
X0043228Y0148287D01*
X0044827Y0146688D02*
X0053418Y0146688D01*
X0052116Y0145090D02*
X0045592Y0145090D01*
X0046183Y0143491D02*
X0051454Y0143491D01*
X0051286Y0141893D02*
X0046183Y0141893D01*
X0046065Y0140294D02*
X0051317Y0140294D01*
X0051979Y0138696D02*
X0045403Y0138696D01*
X0044370Y0137097D02*
X0053087Y0137097D01*
X0064114Y0145090D02*
X0094938Y0145090D01*
X0092465Y0143491D02*
X0090487Y0143491D01*
X0098862Y0145090D02*
X0099400Y0145090D01*
X0099400Y0146688D02*
X0062812Y0146688D01*
X0051747Y0149885D02*
X0029200Y0149885D01*
X0029200Y0151484D02*
X0051286Y0151484D01*
X0049961Y0153082D02*
X0029200Y0153082D01*
X0033386Y0148287D02*
X0033631Y0148287D01*
X0037754Y0156279D02*
X0039106Y0156279D01*
X0039106Y0157878D02*
X0037754Y0157878D01*
X0037754Y0159476D02*
X0039106Y0159476D01*
X0036587Y0173863D02*
X0030430Y0173863D01*
X0054487Y0188250D02*
X0055635Y0188250D01*
X0083713Y0191587D02*
X0083713Y0191587D01*
X0049568Y0109923D02*
X0047048Y0109923D01*
X0047611Y0108324D02*
X0045450Y0108324D01*
X0045100Y0106726D02*
X0046732Y0106726D01*
X0046399Y0105127D02*
X0045100Y0105127D01*
X0045100Y0103529D02*
X0046528Y0103529D01*
X0047156Y0101930D02*
X0045100Y0101930D01*
X0045100Y0100332D02*
X0048515Y0100332D01*
X0045100Y0098733D02*
X0113400Y0098733D01*
X0144329Y0095536D02*
X0181200Y0095536D01*
X0181200Y0093937D02*
X0145757Y0093937D01*
X0146281Y0092339D02*
X0181200Y0092339D01*
X0181200Y0090740D02*
X0146203Y0090740D01*
X0145438Y0089142D02*
X0181200Y0089142D01*
X0181200Y0087543D02*
X0147352Y0087543D01*
X0148461Y0085945D02*
X0181200Y0085945D01*
X0181200Y0084346D02*
X0148781Y0084346D01*
X0148499Y0082748D02*
X0181200Y0082748D01*
X0181200Y0081149D02*
X0147848Y0081149D01*
X0150345Y0079551D02*
X0181200Y0079551D01*
X0181200Y0077952D02*
X0151165Y0077952D01*
X0151281Y0076354D02*
X0181200Y0076354D01*
X0181200Y0074755D02*
X0150795Y0074755D01*
X0149900Y0073157D02*
X0181200Y0073157D01*
X0187600Y0073157D02*
X0191400Y0073157D01*
X0191400Y0074755D02*
X0187600Y0074755D01*
X0187600Y0076354D02*
X0191400Y0076354D01*
X0191400Y0077952D02*
X0187600Y0077952D01*
X0187600Y0079551D02*
X0191400Y0079551D01*
X0191400Y0081149D02*
X0187600Y0081149D01*
X0187600Y0082748D02*
X0191400Y0082748D01*
X0191400Y0084346D02*
X0187600Y0084346D01*
X0187600Y0085945D02*
X0189059Y0085945D01*
X0187886Y0087543D02*
X0187600Y0087543D01*
X0187600Y0090740D02*
X0187755Y0090740D01*
X0187600Y0092339D02*
X0188743Y0092339D01*
X0187600Y0093937D02*
X0190471Y0093937D01*
X0190019Y0095536D02*
X0187600Y0095536D01*
X0187600Y0097134D02*
X0190169Y0097134D01*
X0191037Y0098733D02*
X0187600Y0098733D01*
X0187600Y0100332D02*
X0189873Y0100332D01*
X0188750Y0101930D02*
X0187600Y0101930D01*
X0187600Y0103529D02*
X0188419Y0103529D01*
X0188690Y0105127D02*
X0187600Y0105127D01*
X0187600Y0106726D02*
X0189730Y0106726D01*
X0187600Y0108324D02*
X0195424Y0108324D01*
X0196227Y0109923D02*
X0187600Y0109923D01*
X0187600Y0111521D02*
X0198684Y0111521D01*
X0200716Y0111521D02*
X0207100Y0111521D01*
X0207100Y0109923D02*
X0203173Y0109923D01*
X0203976Y0108324D02*
X0207100Y0108324D01*
X0207100Y0106726D02*
X0204081Y0106726D01*
X0205316Y0105127D02*
X0207100Y0105127D01*
X0207100Y0103529D02*
X0206914Y0103529D01*
X0207100Y0113120D02*
X0187600Y0113120D01*
X0187600Y0114718D02*
X0207100Y0114718D01*
X0207100Y0116317D02*
X0187600Y0116317D01*
X0187600Y0117915D02*
X0207166Y0117915D01*
X0207829Y0119514D02*
X0187600Y0119514D01*
X0187600Y0121112D02*
X0209768Y0121112D01*
X0196433Y0129022D02*
X0196812Y0129766D01*
X0197069Y0130559D01*
X0197200Y0131383D01*
X0197200Y0131725D01*
X0191975Y0131725D01*
X0191975Y0126500D01*
X0192317Y0126500D01*
X0193141Y0126630D01*
X0193934Y0126888D01*
X0194678Y0127267D01*
X0195353Y0127757D01*
X0195943Y0128347D01*
X0196433Y0129022D01*
X0196475Y0129105D02*
X0227100Y0129105D01*
X0227100Y0130703D02*
X0197092Y0130703D01*
X0197200Y0131875D02*
X0197200Y0132217D01*
X0197069Y0133041D01*
X0196812Y0133834D01*
X0196433Y0134578D01*
X0195943Y0135253D01*
X0195353Y0135843D01*
X0194678Y0136333D01*
X0193934Y0136712D01*
X0193141Y0136969D01*
X0192317Y0137100D01*
X0191975Y0137100D01*
X0191975Y0131875D01*
X0197200Y0131875D01*
X0197187Y0132302D02*
X0227100Y0132302D01*
X0227100Y0133900D02*
X0196778Y0133900D01*
X0195697Y0135499D02*
X0227100Y0135499D01*
X0227100Y0137097D02*
X0192334Y0137097D01*
X0191975Y0137097D02*
X0191825Y0137097D01*
X0191466Y0137097D02*
X0184529Y0137097D01*
X0186545Y0135499D02*
X0188103Y0135499D01*
X0191825Y0135499D02*
X0191975Y0135499D01*
X0191975Y0133900D02*
X0191825Y0133900D01*
X0191825Y0132302D02*
X0191975Y0132302D01*
X0191975Y0130703D02*
X0191825Y0130703D01*
X0191825Y0129105D02*
X0191975Y0129105D01*
X0191975Y0127506D02*
X0191825Y0127506D01*
X0195007Y0127506D02*
X0227100Y0127506D01*
X0227100Y0125908D02*
X0187600Y0125908D01*
X0187571Y0127506D02*
X0188793Y0127506D01*
X0187325Y0129105D02*
X0187170Y0129105D01*
X0187600Y0124309D02*
X0227100Y0124309D01*
X0227100Y0122711D02*
X0187600Y0122711D01*
X0187600Y0071558D02*
X0191400Y0071558D01*
X0191400Y0069960D02*
X0187600Y0069960D01*
X0187600Y0068361D02*
X0191400Y0068361D01*
X0191400Y0066763D02*
X0187600Y0066763D01*
X0187600Y0065164D02*
X0191400Y0065164D01*
X0191400Y0063566D02*
X0188411Y0063566D01*
X0188781Y0061967D02*
X0191400Y0061967D01*
X0191400Y0060369D02*
X0188549Y0060369D01*
X0187566Y0058770D02*
X0191400Y0058770D01*
X0191400Y0057172D02*
X0164900Y0057172D01*
X0164900Y0055573D02*
X0191400Y0055573D01*
X0191400Y0053975D02*
X0164900Y0053975D01*
X0164900Y0052376D02*
X0191400Y0052376D01*
X0191400Y0050778D02*
X0164900Y0050778D01*
X0164900Y0049179D02*
X0191400Y0049179D01*
X0191400Y0047581D02*
X0164900Y0047581D01*
X0164900Y0045982D02*
X0191400Y0045982D01*
X0191400Y0044384D02*
X0164900Y0044384D01*
X0164900Y0042785D02*
X0191142Y0042785D01*
X0177044Y0041187D02*
X0164900Y0041187D01*
X0164900Y0039588D02*
X0175445Y0039588D01*
X0173847Y0037990D02*
X0164900Y0037990D01*
X0164900Y0036391D02*
X0172248Y0036391D01*
X0170650Y0034793D02*
X0164900Y0034793D01*
X0164900Y0033194D02*
X0169230Y0033194D01*
X0168210Y0031596D02*
X0165590Y0031596D01*
X0116642Y0042785D02*
X0085100Y0042785D01*
X0085100Y0041187D02*
X0115044Y0041187D01*
X0115831Y0044384D02*
X0085100Y0044384D01*
X0085100Y0045982D02*
X0114280Y0045982D01*
X0113618Y0047581D02*
X0085100Y0047581D01*
X0085100Y0049179D02*
X0113400Y0049179D01*
X0113518Y0050778D02*
X0085100Y0050778D01*
X0085100Y0052376D02*
X0114180Y0052376D01*
X0104400Y0069300D02*
X0091900Y0069300D01*
X0072768Y0066763D02*
X0055422Y0066763D01*
X0057001Y0065164D02*
X0071619Y0065164D01*
X0071500Y0063566D02*
X0057663Y0063566D01*
X0057900Y0061967D02*
X0071500Y0061967D01*
X0071500Y0060369D02*
X0057801Y0060369D01*
X0057139Y0058770D02*
X0071500Y0058770D01*
X0071500Y0057172D02*
X0055757Y0057172D01*
X0056612Y0055573D02*
X0071500Y0055573D01*
X0070559Y0053975D02*
X0057494Y0053975D01*
X0057900Y0052376D02*
X0070019Y0052376D01*
X0070081Y0050778D02*
X0057900Y0050778D01*
X0057309Y0049179D02*
X0070825Y0049179D01*
X0071400Y0047581D02*
X0056166Y0047581D01*
X0055331Y0045982D02*
X0071400Y0045982D01*
X0071400Y0044384D02*
X0056644Y0044384D01*
X0057211Y0042785D02*
X0071142Y0042785D01*
X0069544Y0041187D02*
X0057270Y0041187D01*
X0057300Y0041375D02*
X0057167Y0040535D01*
X0056904Y0039727D01*
X0056518Y0038970D01*
X0056019Y0038282D01*
X0055418Y0037681D01*
X0054730Y0037182D01*
X0053973Y0036796D01*
X0053165Y0036533D01*
X0052325Y0036400D01*
X0052050Y0036400D01*
X0052050Y0041650D01*
X0057300Y0041650D01*
X0057300Y0041375D01*
X0056834Y0039588D02*
X0067945Y0039588D01*
X0066347Y0037990D02*
X0055726Y0037990D01*
X0052050Y0037990D02*
X0051750Y0037990D01*
X0051750Y0039588D02*
X0052050Y0039588D01*
X0052050Y0041187D02*
X0051750Y0041187D01*
X0048074Y0037990D02*
X0047371Y0037990D01*
X0047600Y0036391D02*
X0064748Y0036391D01*
X0063150Y0034793D02*
X0047600Y0034793D01*
X0047600Y0033194D02*
X0061551Y0033194D01*
X0058210Y0031596D02*
X0054383Y0031596D01*
X0052050Y0031596D02*
X0051750Y0031596D01*
X0051750Y0029997D02*
X0052050Y0029997D01*
X0052050Y0028399D02*
X0051750Y0028399D01*
X0049417Y0031596D02*
X0047600Y0031596D01*
X0046966Y0039588D02*
X0046137Y0039588D01*
X0046530Y0041187D02*
X0045100Y0041187D01*
X0045100Y0042785D02*
X0046589Y0042785D01*
X0047156Y0044384D02*
X0045100Y0044384D01*
X0045100Y0045982D02*
X0048469Y0045982D01*
X0047634Y0047581D02*
X0045100Y0047581D01*
X0045100Y0049179D02*
X0046491Y0049179D01*
X0045900Y0050778D02*
X0045100Y0050778D01*
X0045100Y0052376D02*
X0045900Y0052376D01*
X0046306Y0053975D02*
X0045100Y0053975D01*
X0045100Y0055573D02*
X0047188Y0055573D01*
X0048043Y0057172D02*
X0045100Y0057172D01*
X0045100Y0058770D02*
X0046661Y0058770D01*
X0045998Y0060369D02*
X0045100Y0060369D01*
X0045100Y0061967D02*
X0045900Y0061967D01*
X0046137Y0063566D02*
X0045100Y0063566D01*
X0045100Y0065164D02*
X0046799Y0065164D01*
X0048378Y0066763D02*
X0045100Y0066763D01*
X0045100Y0068361D02*
X0046853Y0068361D01*
X0046168Y0069960D02*
X0045100Y0069960D01*
X0045100Y0071558D02*
X0045900Y0071558D01*
X0045968Y0073157D02*
X0045100Y0073157D01*
X0045100Y0074755D02*
X0046630Y0074755D01*
X0047969Y0076354D02*
X0045100Y0076354D01*
X0045100Y0077952D02*
X0047262Y0077952D01*
X0046337Y0079551D02*
X0045100Y0079551D01*
X0045100Y0081149D02*
X0045900Y0081149D01*
X0045900Y0082748D02*
X0045100Y0082748D01*
X0045100Y0084346D02*
X0046460Y0084346D01*
X0047560Y0085945D02*
X0045100Y0085945D01*
X0045100Y0087543D02*
X0047671Y0087543D01*
X0046507Y0089142D02*
X0045100Y0089142D01*
X0045100Y0090740D02*
X0045900Y0090740D01*
X0045900Y0092339D02*
X0045100Y0092339D01*
X0045100Y0093937D02*
X0046291Y0093937D01*
X0047151Y0095536D02*
X0045100Y0095536D01*
X0045100Y0097134D02*
X0049100Y0097134D01*
X0081900Y0036800D02*
X0071900Y0026800D01*
X0056730Y0029997D02*
X0056252Y0029997D01*
D22*
X0096900Y0059300D03*
X0109400Y0064300D03*
X0074400Y0076800D03*
X0166900Y0076800D03*
X0171900Y0074300D03*
X0176900Y0076800D03*
X0171900Y0081800D03*
X0166900Y0086800D03*
X0171900Y0089300D03*
X0176900Y0086800D03*
D23*
X0133800Y0052800D03*
X0127700Y0049600D03*
X0111900Y0109300D03*
D24*
X0091900Y0109300D01*
X0086900Y0114300D01*
X0086900Y0121800D01*
X0081900Y0126800D01*
X0070207Y0126800D01*
X0067884Y0124477D01*
D25*
X0094400Y0124300D03*
X0099400Y0124300D03*
X0104400Y0124300D03*
M02*
