G75*
%MOIN*%
%OFA0B0*%
%FSLAX25Y25*%
%IPPOS*%
%LPD*%
%AMOC8*
5,1,8,0,0,1.08239X$1,22.5*
%
%ADD10R,0.01000X0.00100*%
%ADD11R,0.01100X0.00100*%
%ADD12R,0.00900X0.00100*%
%ADD13R,0.00100X0.00100*%
%ADD14R,0.00700X0.00100*%
%ADD15R,0.01600X0.00100*%
%ADD16R,0.02000X0.00100*%
%ADD17R,0.02500X0.00100*%
%ADD18R,0.01200X0.00100*%
%ADD19R,0.02900X0.00100*%
%ADD20R,0.05100X0.00100*%
%ADD21R,0.03000X0.00100*%
%ADD22R,0.01500X0.00100*%
%ADD23R,0.03100X0.00100*%
%ADD24R,0.01300X0.00100*%
%ADD25R,0.06300X0.00100*%
%ADD26R,0.03400X0.00100*%
%ADD27R,0.05600X0.00100*%
%ADD28R,0.01800X0.00100*%
%ADD29R,0.03200X0.00100*%
%ADD30R,0.01700X0.00100*%
%ADD31R,0.03300X0.00100*%
%ADD32R,0.03800X0.00100*%
%ADD33R,0.05800X0.00100*%
%ADD34R,0.01900X0.00100*%
%ADD35R,0.04300X0.00100*%
%ADD36R,0.06000X0.00100*%
%ADD37R,0.04700X0.00100*%
%ADD38R,0.06100X0.00100*%
%ADD39R,0.02100X0.00100*%
%ADD40R,0.03500X0.00100*%
%ADD41R,0.05200X0.00100*%
%ADD42R,0.06200X0.00100*%
%ADD43R,0.02200X0.00100*%
%ADD44R,0.04600X0.00100*%
%ADD45R,0.04000X0.00100*%
%ADD46R,0.02300X0.00100*%
%ADD47R,0.05900X0.00100*%
%ADD48R,0.02800X0.00100*%
%ADD49R,0.03600X0.00100*%
%ADD50R,0.04400X0.00100*%
%ADD51R,0.03900X0.00100*%
%ADD52R,0.04800X0.00100*%
%ADD53R,0.04200X0.00100*%
%ADD54R,0.01400X0.00100*%
%ADD55R,0.03700X0.00100*%
%ADD56R,0.04100X0.00100*%
%ADD57R,0.02400X0.00100*%
%ADD58R,0.02700X0.00100*%
%ADD59R,0.02600X0.00100*%
%ADD60R,0.05700X0.00100*%
%ADD61R,0.00600X0.00100*%
%ADD62R,0.05500X0.00100*%
%ADD63R,0.00200X0.00100*%
%ADD64R,0.04900X0.00100*%
%ADD65R,0.00100X0.06300*%
%ADD66R,0.00100X0.01200*%
%ADD67R,0.00100X0.03800*%
%ADD68R,0.00100X0.06200*%
%ADD69R,0.00100X0.03100*%
%ADD70R,0.00100X0.03000*%
%ADD71R,0.00100X0.02800*%
%ADD72R,0.00100X0.02900*%
%ADD73R,0.00100X0.02600*%
%ADD74R,0.00100X0.02500*%
%ADD75R,0.00100X0.01500*%
%ADD76R,0.00100X0.01800*%
%ADD77R,0.00100X0.03200*%
%ADD78R,0.00100X0.01900*%
%ADD79R,0.00100X0.03400*%
%ADD80R,0.00100X0.02000*%
%ADD81R,0.00100X0.03500*%
%ADD82R,0.00100X0.03600*%
%ADD83R,0.00100X0.02100*%
%ADD84R,0.00100X0.01100*%
%ADD85R,0.00100X0.03700*%
%ADD86R,0.00100X0.03300*%
%ADD87R,0.00100X0.01700*%
%ADD88R,0.05400X0.00100*%
%ADD89R,0.00100X0.05100*%
%ADD90R,0.00100X0.05500*%
%ADD91R,0.00100X0.05800*%
%ADD92R,0.00100X0.05900*%
%ADD93R,0.00100X0.06100*%
%ADD94R,0.00100X0.01400*%
%ADD95R,0.00100X0.01300*%
%ADD96R,0.00100X0.06000*%
%ADD97R,0.00100X0.05600*%
%ADD98R,0.00100X0.05300*%
%ADD99R,0.00100X0.05400*%
%ADD100R,0.00100X0.05700*%
%ADD101R,0.00100X0.02700*%
%ADD102R,0.00100X0.02400*%
%ADD103R,0.00100X0.02300*%
%ADD104R,0.23100X0.00100*%
%ADD105R,0.31700X0.00100*%
%ADD106C,0.00600*%
D10*
X0056850Y0021100D03*
X0056850Y0021200D03*
X0056850Y0021300D03*
X0056850Y0021400D03*
X0056850Y0021500D03*
X0056850Y0021600D03*
X0056850Y0021700D03*
X0056850Y0021800D03*
X0056850Y0021900D03*
X0056850Y0022000D03*
X0056850Y0022100D03*
X0056850Y0022200D03*
X0056850Y0022300D03*
X0056850Y0022400D03*
X0056850Y0022500D03*
X0056850Y0022600D03*
X0056850Y0022700D03*
X0056850Y0022800D03*
X0056850Y0022900D03*
X0056850Y0023000D03*
X0056850Y0023100D03*
X0056850Y0023200D03*
X0056850Y0023300D03*
X0056850Y0023400D03*
X0056850Y0023500D03*
X0056850Y0023600D03*
X0056850Y0023700D03*
X0056850Y0023800D03*
X0056850Y0023900D03*
X0056850Y0024000D03*
X0056850Y0024100D03*
X0056850Y0024200D03*
X0056850Y0024300D03*
X0056850Y0024400D03*
X0056850Y0024500D03*
X0056850Y0024600D03*
X0056850Y0024700D03*
X0056850Y0024800D03*
X0056850Y0024900D03*
X0056850Y0025000D03*
X0056850Y0025100D03*
X0056850Y0025200D03*
X0056850Y0025300D03*
X0056850Y0025400D03*
X0056850Y0025500D03*
X0056850Y0025600D03*
X0056850Y0025700D03*
X0056850Y0025800D03*
X0056850Y0025900D03*
X0056850Y0026000D03*
X0056850Y0026100D03*
X0056850Y0026200D03*
X0056850Y0026300D03*
X0056850Y0026400D03*
X0056850Y0026500D03*
X0056850Y0026600D03*
X0056850Y0026700D03*
X0056850Y0026800D03*
X0056850Y0026900D03*
X0056850Y0027000D03*
X0056850Y0027100D03*
X0056850Y0027200D03*
X0056850Y0027300D03*
X0056850Y0027400D03*
X0056850Y0027500D03*
X0056850Y0027600D03*
X0056850Y0027700D03*
X0056850Y0027800D03*
X0056850Y0027900D03*
X0056850Y0028000D03*
X0056850Y0028100D03*
X0056850Y0028200D03*
X0056850Y0028300D03*
X0056850Y0028400D03*
X0056850Y0028500D03*
X0056850Y0028600D03*
X0056850Y0028700D03*
X0056850Y0028800D03*
X0056850Y0028900D03*
X0056850Y0029000D03*
X0056850Y0029100D03*
X0056850Y0029200D03*
X0056850Y0029300D03*
X0056850Y0029400D03*
X0056850Y0029500D03*
X0056850Y0029600D03*
X0056850Y0029700D03*
X0056850Y0029800D03*
X0056850Y0029900D03*
X0056850Y0030000D03*
X0056850Y0030100D03*
X0056850Y0030200D03*
X0056850Y0030300D03*
X0056850Y0030400D03*
X0056850Y0030500D03*
X0056850Y0030600D03*
X0056850Y0030700D03*
X0056850Y0030800D03*
X0056850Y0030900D03*
X0056850Y0031000D03*
X0056850Y0031100D03*
X0056850Y0031200D03*
X0056850Y0031300D03*
X0056850Y0031400D03*
X0056850Y0031500D03*
X0056850Y0031600D03*
X0056850Y0031700D03*
X0056850Y0031800D03*
X0056850Y0031900D03*
X0056850Y0032000D03*
X0056850Y0032100D03*
X0056850Y0032200D03*
X0056850Y0032300D03*
X0056850Y0032400D03*
X0056850Y0032500D03*
X0056850Y0032600D03*
X0056850Y0032700D03*
X0056850Y0032800D03*
X0056850Y0032900D03*
X0056850Y0033000D03*
X0056850Y0033100D03*
X0056850Y0033200D03*
X0056850Y0033300D03*
X0056850Y0033400D03*
X0056850Y0033500D03*
X0056850Y0033600D03*
X0056850Y0033700D03*
X0056850Y0033800D03*
X0056850Y0033900D03*
X0056850Y0034000D03*
X0056850Y0034100D03*
X0056850Y0034200D03*
X0056850Y0034300D03*
X0056850Y0034400D03*
X0056850Y0034500D03*
X0056850Y0034600D03*
X0056850Y0034700D03*
X0056850Y0034800D03*
X0056850Y0034900D03*
X0056850Y0035000D03*
X0056850Y0035100D03*
X0056850Y0035200D03*
X0056850Y0035300D03*
X0056850Y0035400D03*
X0056850Y0035500D03*
X0056850Y0035600D03*
X0056850Y0035700D03*
X0056850Y0035800D03*
X0056850Y0035900D03*
X0056850Y0036000D03*
X0056850Y0036100D03*
X0056850Y0036200D03*
X0056850Y0036300D03*
X0056850Y0036400D03*
X0056850Y0036500D03*
X0056850Y0036600D03*
X0056850Y0036700D03*
X0056850Y0036800D03*
X0056850Y0036900D03*
X0056850Y0037000D03*
X0056850Y0037100D03*
X0056850Y0037200D03*
X0056850Y0037300D03*
X0056850Y0037400D03*
X0056850Y0037500D03*
X0056850Y0037600D03*
X0056850Y0037700D03*
X0056850Y0037800D03*
X0056850Y0037900D03*
X0056850Y0038000D03*
X0056850Y0038100D03*
X0056850Y0038200D03*
X0056850Y0038300D03*
X0056850Y0038400D03*
X0056850Y0038500D03*
X0056850Y0038600D03*
X0056850Y0038700D03*
X0056850Y0038800D03*
X0056850Y0038900D03*
X0056850Y0039000D03*
X0056850Y0039100D03*
X0069750Y0041600D03*
X0086850Y0041600D03*
X0086850Y0041700D03*
X0086850Y0041800D03*
X0086850Y0041900D03*
X0086850Y0042000D03*
X0086850Y0042100D03*
X0086850Y0042200D03*
X0086850Y0042300D03*
X0086850Y0042400D03*
X0086850Y0042500D03*
X0086850Y0042600D03*
X0086850Y0042700D03*
X0086850Y0042800D03*
X0086850Y0042900D03*
X0086850Y0043000D03*
X0086850Y0043100D03*
X0086850Y0043200D03*
X0086850Y0043300D03*
X0086850Y0043400D03*
X0086850Y0043500D03*
X0086850Y0043600D03*
X0086850Y0043700D03*
X0086850Y0043800D03*
X0086850Y0043900D03*
X0086850Y0044000D03*
X0086850Y0044100D03*
X0086850Y0044200D03*
X0086850Y0044300D03*
X0086850Y0044400D03*
X0086850Y0044500D03*
X0086850Y0044600D03*
X0086850Y0044700D03*
X0086850Y0044800D03*
X0086850Y0044900D03*
X0086850Y0045000D03*
X0086850Y0045100D03*
X0086850Y0045200D03*
X0086850Y0045300D03*
X0086850Y0045400D03*
X0086850Y0045500D03*
X0086850Y0045600D03*
X0086850Y0045700D03*
X0087050Y0044800D03*
X0087050Y0044700D03*
X0087050Y0044600D03*
X0087050Y0044500D03*
X0086850Y0041500D03*
X0086850Y0041400D03*
X0086850Y0041300D03*
X0086850Y0041200D03*
X0086850Y0041100D03*
X0086850Y0041000D03*
X0086850Y0040900D03*
X0086850Y0040800D03*
X0086850Y0040700D03*
X0086850Y0040600D03*
X0086850Y0040500D03*
X0086850Y0040400D03*
X0086850Y0040300D03*
X0086850Y0040200D03*
X0086850Y0040100D03*
X0086850Y0040000D03*
X0086850Y0039900D03*
X0086850Y0039800D03*
X0086850Y0039700D03*
X0086850Y0039600D03*
X0086850Y0039500D03*
X0086850Y0039400D03*
X0086850Y0039300D03*
X0086850Y0039200D03*
X0086850Y0039100D03*
X0086850Y0039000D03*
X0086850Y0038900D03*
X0086850Y0038800D03*
X0086850Y0038700D03*
X0086850Y0038600D03*
X0086850Y0038500D03*
X0086850Y0038400D03*
X0086850Y0038300D03*
X0086850Y0038200D03*
X0086850Y0038100D03*
X0086850Y0038000D03*
X0086850Y0037900D03*
X0086850Y0037800D03*
X0086850Y0037700D03*
X0086850Y0037600D03*
X0086850Y0037500D03*
X0086850Y0037400D03*
X0086850Y0037300D03*
X0086850Y0037200D03*
X0086850Y0037100D03*
X0086850Y0037000D03*
X0086850Y0036900D03*
X0086850Y0036800D03*
X0086850Y0036700D03*
X0086850Y0036600D03*
X0086850Y0036500D03*
X0086850Y0036400D03*
X0086850Y0036300D03*
X0086850Y0036200D03*
X0086850Y0036100D03*
X0086850Y0036000D03*
X0086850Y0035900D03*
X0086850Y0035800D03*
X0086850Y0035700D03*
X0086850Y0035600D03*
X0086850Y0035500D03*
X0086850Y0035400D03*
X0086850Y0035300D03*
X0086850Y0035200D03*
X0086850Y0035100D03*
X0086850Y0035000D03*
X0086850Y0034900D03*
X0086850Y0034800D03*
X0086850Y0034700D03*
X0086850Y0034600D03*
X0086850Y0034500D03*
X0086850Y0034400D03*
X0086850Y0034300D03*
X0086850Y0034200D03*
X0086850Y0034100D03*
X0086850Y0034000D03*
X0086850Y0033900D03*
X0086850Y0033800D03*
X0086850Y0033700D03*
X0086850Y0033600D03*
X0086850Y0033500D03*
X0086850Y0033400D03*
X0086850Y0033300D03*
X0086850Y0033200D03*
X0086850Y0033100D03*
X0086850Y0033000D03*
X0086850Y0032900D03*
X0086850Y0032800D03*
X0086850Y0032700D03*
X0086850Y0032600D03*
X0086850Y0032500D03*
X0086850Y0032400D03*
X0086850Y0032300D03*
X0086850Y0032200D03*
X0086850Y0032100D03*
X0086850Y0032000D03*
X0086850Y0031900D03*
X0086850Y0031800D03*
X0086850Y0031700D03*
X0086850Y0031600D03*
X0086850Y0031500D03*
X0086850Y0031400D03*
X0086850Y0031300D03*
X0086850Y0031200D03*
X0086850Y0031100D03*
X0086850Y0031000D03*
X0086850Y0030900D03*
X0086850Y0030800D03*
X0086850Y0030700D03*
X0086850Y0030600D03*
X0086850Y0030500D03*
X0086850Y0030400D03*
X0086850Y0030300D03*
X0086850Y0030200D03*
X0086850Y0030100D03*
X0086850Y0030000D03*
X0086850Y0029900D03*
X0086850Y0029800D03*
X0086850Y0029700D03*
X0086850Y0029600D03*
X0086850Y0029500D03*
X0086850Y0029400D03*
X0086850Y0029300D03*
X0086850Y0029200D03*
X0086850Y0029100D03*
X0086850Y0029000D03*
X0086850Y0028900D03*
X0086850Y0028800D03*
X0086850Y0028700D03*
X0086850Y0028600D03*
X0086850Y0028500D03*
X0086850Y0028400D03*
X0086850Y0028300D03*
X0086850Y0028200D03*
X0086850Y0028100D03*
X0086850Y0028000D03*
X0086850Y0027900D03*
X0086850Y0027800D03*
X0086850Y0027700D03*
X0086850Y0027600D03*
X0086850Y0027500D03*
X0086850Y0027400D03*
X0086850Y0027300D03*
X0086850Y0027200D03*
X0086850Y0027100D03*
X0086850Y0027000D03*
X0086850Y0026900D03*
X0086850Y0026800D03*
X0086850Y0026700D03*
X0086850Y0026600D03*
X0086850Y0026500D03*
X0086850Y0026400D03*
X0086850Y0026300D03*
X0086850Y0026200D03*
X0086850Y0026100D03*
X0086850Y0026000D03*
X0086850Y0025900D03*
X0086850Y0025800D03*
X0086850Y0025700D03*
X0086850Y0025600D03*
X0086850Y0025500D03*
X0086850Y0025400D03*
X0086850Y0025300D03*
X0086850Y0025200D03*
X0086850Y0025100D03*
X0086850Y0025000D03*
X0086850Y0024900D03*
X0086850Y0024800D03*
X0086850Y0024700D03*
X0086850Y0024600D03*
X0086850Y0024500D03*
X0086850Y0024400D03*
X0086850Y0024300D03*
X0086850Y0024200D03*
X0086850Y0024100D03*
X0086850Y0024000D03*
X0086850Y0023900D03*
X0086850Y0023800D03*
X0086850Y0023700D03*
X0086850Y0023600D03*
X0086850Y0023500D03*
X0086850Y0023400D03*
X0086850Y0023300D03*
X0086850Y0023200D03*
X0086850Y0023100D03*
X0086850Y0023000D03*
X0086850Y0022900D03*
X0086850Y0022800D03*
X0086850Y0022700D03*
X0086850Y0022600D03*
X0086850Y0022500D03*
X0086850Y0022400D03*
X0086850Y0022300D03*
X0086850Y0022200D03*
X0086850Y0022100D03*
X0086850Y0022000D03*
X0086850Y0021900D03*
X0086850Y0021800D03*
X0086850Y0021700D03*
X0086850Y0021600D03*
X0086850Y0021500D03*
X0086850Y0021400D03*
X0086850Y0021300D03*
X0086850Y0021200D03*
X0086850Y0021100D03*
X0096850Y0021100D03*
X0096850Y0021200D03*
X0096850Y0021300D03*
X0096850Y0021400D03*
X0096850Y0021500D03*
X0096850Y0021600D03*
X0096850Y0021700D03*
X0096850Y0021800D03*
X0096850Y0021900D03*
X0096850Y0022000D03*
X0096850Y0022100D03*
X0096850Y0022200D03*
X0096850Y0022300D03*
X0096850Y0022400D03*
X0096850Y0022500D03*
X0096850Y0022600D03*
X0096850Y0022700D03*
X0096850Y0022800D03*
X0096850Y0022900D03*
X0096850Y0023000D03*
X0096850Y0023100D03*
X0096850Y0023200D03*
X0096850Y0023300D03*
X0096850Y0023400D03*
X0096850Y0023500D03*
X0096850Y0023600D03*
X0096850Y0023700D03*
X0096850Y0023800D03*
X0096850Y0023900D03*
X0096850Y0024000D03*
X0096850Y0024100D03*
X0096850Y0024200D03*
X0096850Y0024300D03*
X0096850Y0024400D03*
X0096850Y0024500D03*
X0096850Y0024600D03*
X0096850Y0024700D03*
X0096850Y0024800D03*
X0096850Y0024900D03*
X0096850Y0025000D03*
X0096850Y0025100D03*
X0096850Y0025200D03*
X0096850Y0025300D03*
X0096850Y0025400D03*
X0096850Y0025500D03*
X0096850Y0025600D03*
X0096850Y0025700D03*
X0096850Y0025800D03*
X0096850Y0025900D03*
X0096850Y0026000D03*
X0096850Y0026100D03*
X0096850Y0026200D03*
X0096850Y0026300D03*
X0096850Y0026400D03*
X0096850Y0026500D03*
X0096850Y0026600D03*
X0096850Y0026700D03*
X0096850Y0026800D03*
X0096850Y0026900D03*
X0096850Y0027000D03*
X0096850Y0027100D03*
X0096850Y0027200D03*
X0096850Y0027300D03*
X0096850Y0027400D03*
X0096850Y0027500D03*
X0096850Y0027600D03*
X0096850Y0027700D03*
X0096850Y0027800D03*
X0096850Y0027900D03*
X0096850Y0028000D03*
X0096850Y0028100D03*
X0096850Y0028200D03*
X0096850Y0028300D03*
X0096850Y0028400D03*
X0096850Y0028500D03*
X0096850Y0028600D03*
X0096850Y0028700D03*
X0096850Y0028800D03*
X0096850Y0028900D03*
X0096850Y0029000D03*
X0096850Y0029100D03*
X0096850Y0029200D03*
X0096850Y0029300D03*
X0096850Y0029400D03*
X0096850Y0029500D03*
X0096850Y0029600D03*
X0096850Y0029700D03*
X0096850Y0029800D03*
X0096850Y0029900D03*
X0096850Y0030000D03*
X0096850Y0030100D03*
X0096850Y0030200D03*
X0096850Y0030300D03*
X0096850Y0030400D03*
X0096850Y0030500D03*
X0096850Y0030600D03*
X0096850Y0030700D03*
X0096850Y0030800D03*
X0096850Y0030900D03*
X0096850Y0031000D03*
X0096850Y0031100D03*
X0096850Y0031200D03*
X0096850Y0031300D03*
X0096850Y0031400D03*
X0096850Y0031500D03*
X0096850Y0031600D03*
X0096850Y0031700D03*
X0096850Y0031800D03*
X0096850Y0031900D03*
X0096850Y0032000D03*
X0096850Y0032100D03*
X0096850Y0032200D03*
X0096850Y0032300D03*
X0096850Y0032400D03*
X0096850Y0032500D03*
X0096850Y0032600D03*
X0096850Y0032700D03*
X0096850Y0032800D03*
X0096850Y0032900D03*
X0096850Y0033000D03*
X0096850Y0033100D03*
X0096850Y0033200D03*
X0096850Y0033300D03*
X0096850Y0033400D03*
X0096850Y0033500D03*
X0096850Y0033600D03*
X0096850Y0033700D03*
X0096850Y0033800D03*
X0096850Y0033900D03*
X0096850Y0034000D03*
X0096850Y0034100D03*
X0096850Y0034200D03*
X0096850Y0034300D03*
X0096850Y0034400D03*
X0096850Y0034500D03*
X0096850Y0034600D03*
X0096850Y0034700D03*
X0096850Y0034800D03*
X0096850Y0034900D03*
X0096850Y0035000D03*
X0096850Y0035100D03*
X0096850Y0035200D03*
X0096850Y0035300D03*
X0096850Y0035400D03*
X0096850Y0035500D03*
X0096850Y0035600D03*
X0096850Y0035700D03*
X0096850Y0035800D03*
X0096850Y0035900D03*
X0096850Y0036000D03*
X0096850Y0036100D03*
X0096850Y0036200D03*
X0096850Y0036300D03*
X0096850Y0036400D03*
X0096850Y0036500D03*
X0096850Y0036600D03*
X0096850Y0036700D03*
X0096850Y0036800D03*
X0096850Y0036900D03*
X0096850Y0037000D03*
X0096850Y0037100D03*
X0096850Y0037200D03*
X0096850Y0037300D03*
X0096850Y0037400D03*
X0096850Y0037500D03*
X0096850Y0037600D03*
X0096850Y0037700D03*
X0096850Y0037800D03*
X0096850Y0037900D03*
X0096850Y0038000D03*
X0096850Y0038100D03*
X0096850Y0038200D03*
X0096850Y0038300D03*
X0096850Y0038400D03*
X0096850Y0038500D03*
X0096850Y0038600D03*
X0096850Y0038700D03*
X0096850Y0038800D03*
X0096850Y0038900D03*
X0096850Y0039000D03*
X0096850Y0039100D03*
X0096850Y0039200D03*
X0096850Y0039300D03*
X0096850Y0039400D03*
X0096850Y0039500D03*
X0096850Y0039600D03*
X0096850Y0039700D03*
X0096850Y0039800D03*
X0096850Y0039900D03*
X0096850Y0040000D03*
X0096850Y0040100D03*
X0096850Y0040200D03*
X0096850Y0040300D03*
X0096850Y0040400D03*
X0096850Y0040500D03*
X0096850Y0040600D03*
X0096850Y0040700D03*
X0096850Y0040800D03*
X0096850Y0040900D03*
X0096850Y0041000D03*
X0096850Y0041100D03*
X0096850Y0041200D03*
X0096850Y0041300D03*
X0096850Y0041400D03*
X0096850Y0041500D03*
X0096850Y0041600D03*
X0096850Y0041700D03*
X0096850Y0041800D03*
X0096850Y0041900D03*
X0096850Y0042000D03*
X0096850Y0042100D03*
X0096850Y0042200D03*
X0096850Y0042300D03*
X0096850Y0042400D03*
X0096850Y0042500D03*
X0096850Y0042600D03*
X0096850Y0042700D03*
X0096850Y0042800D03*
X0096850Y0042900D03*
X0096850Y0043000D03*
X0096850Y0043100D03*
X0096850Y0043200D03*
X0096850Y0043300D03*
X0096850Y0043400D03*
X0096850Y0043500D03*
X0096850Y0043600D03*
X0096850Y0043700D03*
X0096850Y0043800D03*
X0096850Y0043900D03*
X0096850Y0044000D03*
X0096850Y0044100D03*
X0096850Y0044200D03*
X0096850Y0044300D03*
X0096850Y0044400D03*
X0096850Y0044500D03*
X0096850Y0044600D03*
X0096850Y0044700D03*
X0096850Y0044800D03*
X0096850Y0044900D03*
X0096850Y0045000D03*
X0096850Y0045100D03*
X0096850Y0045200D03*
X0096850Y0045300D03*
X0096850Y0045400D03*
X0096850Y0045500D03*
X0096850Y0045600D03*
X0096850Y0045700D03*
X0097050Y0044800D03*
X0097050Y0044700D03*
X0097050Y0044600D03*
X0097050Y0044500D03*
X0107050Y0044800D03*
X0126950Y0044800D03*
X0136850Y0042400D03*
X0136850Y0042300D03*
X0136850Y0042200D03*
X0136850Y0042100D03*
X0136850Y0042000D03*
X0136850Y0041900D03*
X0136850Y0041800D03*
X0136850Y0041700D03*
X0136850Y0041600D03*
X0136850Y0041500D03*
X0136850Y0041400D03*
X0136850Y0041300D03*
X0136850Y0041200D03*
X0136850Y0041100D03*
X0136850Y0041000D03*
X0136850Y0040900D03*
X0136850Y0040800D03*
X0136850Y0040700D03*
X0136850Y0040600D03*
X0136850Y0040500D03*
X0136850Y0040400D03*
X0136850Y0040300D03*
X0136850Y0040200D03*
X0136850Y0040100D03*
X0136850Y0040000D03*
X0136850Y0039900D03*
X0136850Y0039800D03*
X0136850Y0039700D03*
X0136850Y0039600D03*
X0136850Y0039500D03*
X0136850Y0039400D03*
X0136850Y0039300D03*
X0136850Y0039200D03*
X0136850Y0039100D03*
X0136850Y0039000D03*
X0136850Y0038900D03*
X0136850Y0038800D03*
X0136850Y0038700D03*
X0136850Y0038600D03*
X0136850Y0038500D03*
X0136850Y0038400D03*
X0136850Y0038300D03*
X0136850Y0038200D03*
X0136850Y0038100D03*
X0136850Y0038000D03*
X0136850Y0037900D03*
X0136850Y0037800D03*
X0136850Y0037700D03*
X0136850Y0037600D03*
X0136850Y0037500D03*
X0136850Y0037400D03*
X0136850Y0037300D03*
X0136850Y0037200D03*
X0136850Y0037100D03*
X0136850Y0037000D03*
X0136850Y0036900D03*
X0136850Y0036800D03*
X0136850Y0036700D03*
X0136850Y0036600D03*
X0136850Y0036500D03*
X0136850Y0036400D03*
X0136850Y0036300D03*
X0136850Y0036200D03*
X0136850Y0036100D03*
X0136850Y0036000D03*
X0136850Y0035900D03*
X0136850Y0035800D03*
X0136850Y0035700D03*
X0136850Y0035600D03*
X0136850Y0035500D03*
X0136850Y0035400D03*
X0136850Y0035300D03*
X0136850Y0035200D03*
X0136850Y0035100D03*
X0136850Y0035000D03*
X0136850Y0034900D03*
X0136850Y0034800D03*
X0136850Y0034700D03*
X0136850Y0034600D03*
X0136850Y0034500D03*
X0136850Y0034400D03*
X0136850Y0034300D03*
X0136850Y0034200D03*
X0136850Y0034100D03*
X0136850Y0034000D03*
X0136850Y0033900D03*
X0136850Y0033800D03*
X0136850Y0033700D03*
X0136850Y0033600D03*
X0136850Y0033500D03*
X0136850Y0033400D03*
X0136850Y0033300D03*
X0136850Y0033200D03*
X0136850Y0033100D03*
X0136850Y0033000D03*
X0136850Y0032900D03*
X0136850Y0032800D03*
X0136850Y0032700D03*
X0136850Y0032600D03*
X0136850Y0032500D03*
X0136850Y0032400D03*
X0136850Y0032300D03*
X0136850Y0032200D03*
X0136850Y0032100D03*
X0136850Y0032000D03*
X0136850Y0031900D03*
X0136850Y0031800D03*
X0136850Y0031700D03*
X0136850Y0031600D03*
X0136850Y0031500D03*
X0136850Y0031400D03*
X0136850Y0031300D03*
X0136850Y0031200D03*
X0136850Y0031100D03*
X0136850Y0031000D03*
X0136850Y0030900D03*
X0136850Y0030800D03*
X0136850Y0030700D03*
X0136850Y0030600D03*
X0136850Y0030500D03*
X0136850Y0030400D03*
X0136850Y0030300D03*
X0136850Y0030200D03*
X0136850Y0030100D03*
X0136850Y0030000D03*
X0136850Y0029900D03*
X0136850Y0029800D03*
X0136850Y0029700D03*
X0136850Y0029600D03*
X0136850Y0029500D03*
X0136850Y0029400D03*
X0136850Y0029300D03*
X0136850Y0029200D03*
X0136850Y0029100D03*
X0136850Y0029000D03*
X0136850Y0028900D03*
X0136850Y0028800D03*
X0136850Y0028700D03*
X0136850Y0028600D03*
X0136850Y0028500D03*
X0136850Y0028400D03*
X0136850Y0028300D03*
X0136850Y0028200D03*
X0136850Y0028100D03*
X0136850Y0028000D03*
X0136850Y0027900D03*
X0136850Y0027800D03*
X0136850Y0027700D03*
X0136850Y0027600D03*
X0136850Y0027500D03*
X0136850Y0027400D03*
X0136850Y0027300D03*
X0136850Y0027200D03*
X0136850Y0027100D03*
X0136850Y0027000D03*
X0136850Y0026900D03*
X0136850Y0026800D03*
X0136850Y0026700D03*
X0136850Y0026600D03*
X0136850Y0026500D03*
X0136850Y0026400D03*
X0136850Y0026300D03*
X0136850Y0026200D03*
X0136850Y0026100D03*
X0136850Y0026000D03*
X0136850Y0025900D03*
X0136850Y0025800D03*
X0136850Y0025700D03*
X0136850Y0025600D03*
X0136850Y0025500D03*
X0136850Y0025400D03*
X0136850Y0025300D03*
X0136850Y0025200D03*
X0136850Y0025100D03*
X0136850Y0025000D03*
X0136850Y0024900D03*
X0136850Y0024800D03*
X0136850Y0024700D03*
X0136850Y0024600D03*
X0136850Y0024500D03*
X0136850Y0024400D03*
X0136850Y0024300D03*
X0136850Y0024200D03*
X0136850Y0024100D03*
X0136850Y0024000D03*
X0136850Y0023900D03*
X0136850Y0023800D03*
X0136850Y0023700D03*
X0136850Y0023600D03*
X0136850Y0023500D03*
X0136850Y0023400D03*
X0136850Y0023300D03*
X0136850Y0023200D03*
X0136850Y0023100D03*
X0136850Y0023000D03*
X0136850Y0022900D03*
X0136850Y0022800D03*
X0136850Y0022700D03*
X0136850Y0022600D03*
X0136850Y0022500D03*
X0136850Y0022400D03*
X0136850Y0022300D03*
X0136850Y0022200D03*
X0136850Y0022100D03*
X0136850Y0022000D03*
X0136850Y0021900D03*
X0136850Y0021800D03*
X0136850Y0021700D03*
X0136850Y0021600D03*
X0136850Y0021500D03*
X0136850Y0021400D03*
X0136850Y0021300D03*
X0136850Y0021200D03*
X0136850Y0021100D03*
X0146850Y0021100D03*
X0146850Y0021200D03*
X0146850Y0021300D03*
X0146850Y0021400D03*
X0146850Y0021500D03*
X0146850Y0021600D03*
X0146850Y0021700D03*
X0146850Y0021800D03*
X0146850Y0021900D03*
X0146850Y0022000D03*
X0146850Y0022100D03*
X0146850Y0022200D03*
X0146850Y0022300D03*
X0146850Y0022400D03*
X0146850Y0022500D03*
X0146850Y0022600D03*
X0146850Y0022700D03*
X0146850Y0022800D03*
X0146850Y0022900D03*
X0146850Y0023000D03*
X0146850Y0023100D03*
X0146850Y0023200D03*
X0146850Y0023300D03*
X0146850Y0023400D03*
X0146850Y0023500D03*
X0146850Y0023600D03*
X0146850Y0023700D03*
X0146850Y0023800D03*
X0146850Y0023900D03*
X0146850Y0024000D03*
X0146850Y0024100D03*
X0146850Y0024200D03*
X0146850Y0024300D03*
X0146850Y0024400D03*
X0146850Y0024500D03*
X0146850Y0024600D03*
X0146850Y0024700D03*
X0146850Y0024800D03*
X0146850Y0024900D03*
X0146850Y0025000D03*
X0146850Y0025100D03*
X0146850Y0025200D03*
X0146850Y0025300D03*
X0146850Y0025400D03*
X0146850Y0025500D03*
X0146850Y0025600D03*
X0146850Y0025700D03*
X0146850Y0025800D03*
X0146850Y0025900D03*
X0146850Y0026000D03*
X0146850Y0026100D03*
X0146850Y0026200D03*
X0146850Y0026300D03*
X0146850Y0026400D03*
X0146850Y0026500D03*
X0146850Y0026600D03*
X0146850Y0026700D03*
X0146850Y0026800D03*
X0146850Y0026900D03*
X0146850Y0027000D03*
X0146850Y0027100D03*
X0146850Y0027200D03*
X0146850Y0027300D03*
X0146850Y0027400D03*
X0146850Y0027500D03*
X0146850Y0027600D03*
X0146850Y0027700D03*
X0146850Y0027800D03*
X0146850Y0027900D03*
X0146850Y0028000D03*
X0146850Y0028100D03*
X0146850Y0028200D03*
X0146850Y0028300D03*
X0146850Y0028400D03*
X0146850Y0028500D03*
X0146850Y0028600D03*
X0146850Y0028700D03*
X0146850Y0028800D03*
X0146850Y0028900D03*
X0146850Y0029000D03*
X0146850Y0029100D03*
X0146850Y0029200D03*
X0146850Y0029300D03*
X0146850Y0029400D03*
X0146850Y0029500D03*
X0146850Y0029600D03*
X0146850Y0029700D03*
X0146850Y0029800D03*
X0146850Y0029900D03*
X0146850Y0030000D03*
X0146850Y0030100D03*
X0146850Y0030200D03*
X0146850Y0030300D03*
X0146850Y0030400D03*
X0146850Y0030500D03*
X0146850Y0030600D03*
X0146850Y0030700D03*
X0146850Y0030800D03*
X0146850Y0030900D03*
X0146850Y0031000D03*
X0146850Y0031100D03*
X0146850Y0031200D03*
X0146850Y0031300D03*
X0146850Y0031400D03*
X0146850Y0031500D03*
X0146850Y0031600D03*
X0146850Y0031700D03*
X0146850Y0031800D03*
X0146850Y0031900D03*
X0146850Y0032000D03*
X0146850Y0032100D03*
X0146850Y0032200D03*
X0146850Y0032300D03*
X0146850Y0032400D03*
X0146850Y0032500D03*
X0146850Y0032600D03*
X0146850Y0032700D03*
X0146850Y0032800D03*
X0146850Y0032900D03*
X0146850Y0033000D03*
X0146850Y0033100D03*
X0146850Y0033200D03*
X0146850Y0033300D03*
X0146850Y0033400D03*
X0146850Y0033500D03*
X0146850Y0033600D03*
X0146850Y0033700D03*
X0146850Y0033800D03*
X0146850Y0033900D03*
X0146850Y0034000D03*
X0146850Y0034100D03*
X0146850Y0034200D03*
X0146850Y0034300D03*
X0146850Y0034400D03*
X0146850Y0034500D03*
X0146850Y0034600D03*
X0146850Y0034700D03*
X0146850Y0034800D03*
X0146850Y0034900D03*
X0146850Y0035000D03*
X0146850Y0035100D03*
X0146850Y0035200D03*
X0146850Y0035300D03*
X0146850Y0035400D03*
X0146850Y0035500D03*
X0146850Y0035600D03*
X0146850Y0035700D03*
X0146850Y0035800D03*
X0146850Y0035900D03*
X0146850Y0036000D03*
X0146850Y0036100D03*
X0146850Y0036200D03*
X0146850Y0036300D03*
X0146850Y0036400D03*
X0146850Y0036500D03*
X0146850Y0036600D03*
X0146850Y0036700D03*
X0146850Y0036800D03*
X0146850Y0036900D03*
X0146850Y0037000D03*
X0146850Y0037100D03*
X0146850Y0037200D03*
X0146850Y0037300D03*
X0146850Y0037400D03*
X0146850Y0037500D03*
X0146850Y0037600D03*
X0146850Y0037700D03*
X0146850Y0037800D03*
X0146850Y0037900D03*
X0146850Y0038000D03*
X0146850Y0038100D03*
X0146850Y0038200D03*
X0146850Y0038300D03*
X0146850Y0038400D03*
X0146850Y0038500D03*
X0146850Y0038600D03*
X0146850Y0038700D03*
X0146850Y0038800D03*
X0146850Y0038900D03*
X0146850Y0039000D03*
X0146850Y0039100D03*
X0146850Y0039200D03*
X0146850Y0039300D03*
X0146850Y0039400D03*
X0146850Y0039500D03*
X0146850Y0039600D03*
X0146850Y0039700D03*
X0146850Y0039800D03*
X0146850Y0039900D03*
X0146850Y0040000D03*
X0146850Y0040100D03*
X0146850Y0040200D03*
X0146850Y0040300D03*
X0146850Y0040400D03*
X0146850Y0040500D03*
X0146850Y0040600D03*
X0146850Y0040700D03*
X0146850Y0040800D03*
X0146850Y0040900D03*
X0146850Y0041000D03*
X0146850Y0041100D03*
X0146850Y0041200D03*
X0146850Y0041300D03*
X0146850Y0041400D03*
X0146850Y0041500D03*
X0146850Y0041600D03*
X0146850Y0041700D03*
X0146850Y0041800D03*
X0146850Y0041900D03*
X0146850Y0042000D03*
X0146850Y0042100D03*
X0146850Y0042200D03*
X0146850Y0042300D03*
X0146850Y0042400D03*
X0156750Y0042400D03*
X0156750Y0042300D03*
X0156750Y0042200D03*
X0156750Y0042100D03*
X0156750Y0042000D03*
X0156750Y0041900D03*
X0156750Y0041800D03*
X0156750Y0041700D03*
X0156750Y0041600D03*
X0156750Y0041500D03*
X0156750Y0041400D03*
X0156750Y0041300D03*
X0156750Y0041200D03*
X0156750Y0041100D03*
X0156750Y0041000D03*
X0156750Y0040900D03*
X0156750Y0040800D03*
X0156750Y0040700D03*
X0156750Y0040600D03*
X0156750Y0040500D03*
X0156750Y0040400D03*
X0156750Y0040300D03*
X0156750Y0040200D03*
X0156750Y0040100D03*
X0156750Y0040000D03*
X0156750Y0039900D03*
X0156750Y0039800D03*
X0156750Y0039700D03*
X0156750Y0039600D03*
X0156750Y0039500D03*
X0156750Y0039400D03*
X0156750Y0039300D03*
X0156750Y0039200D03*
X0156750Y0039100D03*
X0156750Y0039000D03*
X0156750Y0038900D03*
X0156750Y0038800D03*
X0156750Y0038700D03*
X0156750Y0038600D03*
X0156750Y0038500D03*
X0156750Y0038400D03*
X0156750Y0038300D03*
X0156750Y0038200D03*
X0156750Y0038100D03*
X0156750Y0038000D03*
X0156750Y0037900D03*
X0156750Y0037800D03*
X0156750Y0037700D03*
X0156750Y0037600D03*
X0156750Y0037500D03*
X0156750Y0037400D03*
X0156750Y0037300D03*
X0156750Y0037200D03*
X0156750Y0037100D03*
X0156750Y0037000D03*
X0156750Y0036900D03*
X0156750Y0036800D03*
X0156750Y0036700D03*
X0156750Y0036600D03*
X0156750Y0036500D03*
X0156750Y0036400D03*
X0156750Y0036300D03*
X0156750Y0036200D03*
X0156750Y0036100D03*
X0156750Y0036000D03*
X0156750Y0035900D03*
X0156750Y0035800D03*
X0156750Y0035700D03*
X0156750Y0035600D03*
X0156750Y0035500D03*
X0156750Y0035400D03*
X0156750Y0035300D03*
X0156750Y0035200D03*
X0156750Y0035100D03*
X0156750Y0035000D03*
X0156750Y0034900D03*
X0156750Y0034800D03*
X0156750Y0034700D03*
X0156750Y0034600D03*
X0156750Y0034500D03*
X0156750Y0034400D03*
X0156750Y0034300D03*
X0156750Y0034200D03*
X0156750Y0034100D03*
X0156750Y0034000D03*
X0156750Y0033900D03*
X0156750Y0033800D03*
X0156750Y0033700D03*
X0156750Y0033600D03*
X0156750Y0033500D03*
X0156750Y0033400D03*
X0156750Y0033300D03*
X0156750Y0033200D03*
X0156750Y0033100D03*
X0156750Y0033000D03*
X0156750Y0032900D03*
X0156750Y0032800D03*
X0156750Y0032700D03*
X0156750Y0032600D03*
X0156750Y0032500D03*
X0156750Y0032400D03*
X0156750Y0032300D03*
X0156750Y0032200D03*
X0156750Y0032100D03*
X0156750Y0032000D03*
X0156750Y0031900D03*
X0156750Y0031800D03*
X0156750Y0031700D03*
X0156750Y0031600D03*
X0156750Y0031500D03*
X0156750Y0031400D03*
X0156750Y0031300D03*
X0156750Y0031200D03*
X0156750Y0031100D03*
X0156750Y0031000D03*
X0156750Y0030900D03*
X0156750Y0030800D03*
X0156750Y0030700D03*
X0156750Y0030600D03*
X0156750Y0030500D03*
X0156750Y0030400D03*
X0156750Y0030300D03*
X0156750Y0030200D03*
X0156750Y0030100D03*
X0156750Y0030000D03*
X0156750Y0029900D03*
X0156750Y0029800D03*
X0156750Y0029700D03*
X0156750Y0029600D03*
X0156750Y0029500D03*
X0156750Y0029400D03*
X0156750Y0029300D03*
X0156750Y0029200D03*
X0156750Y0029100D03*
X0156750Y0029000D03*
X0156750Y0028900D03*
X0156750Y0028800D03*
X0156750Y0028700D03*
X0156750Y0028600D03*
X0156750Y0028500D03*
X0156750Y0028400D03*
X0156750Y0028300D03*
X0156750Y0028200D03*
X0156750Y0028100D03*
X0156750Y0028000D03*
X0156750Y0027900D03*
X0156750Y0027800D03*
X0156750Y0027700D03*
X0156750Y0027600D03*
X0156750Y0027500D03*
X0156750Y0027400D03*
X0156750Y0027300D03*
X0156750Y0027200D03*
X0156750Y0027100D03*
X0156750Y0027000D03*
X0156750Y0026900D03*
X0156750Y0026800D03*
X0156750Y0026700D03*
X0156750Y0026600D03*
X0156750Y0026500D03*
X0156750Y0026400D03*
X0156750Y0026300D03*
X0156750Y0026200D03*
X0156750Y0026100D03*
X0156750Y0026000D03*
X0156750Y0025900D03*
X0156750Y0025800D03*
X0156750Y0025700D03*
X0156750Y0025600D03*
X0156750Y0025500D03*
X0156750Y0025400D03*
X0156750Y0025300D03*
X0156750Y0025200D03*
X0156750Y0025100D03*
X0156750Y0025000D03*
X0156750Y0024900D03*
X0156750Y0024800D03*
X0156750Y0024700D03*
X0156750Y0024600D03*
X0156750Y0024500D03*
X0156750Y0024400D03*
X0156750Y0024300D03*
X0156750Y0024200D03*
X0156750Y0024100D03*
X0156750Y0024000D03*
X0156750Y0023900D03*
X0156750Y0023800D03*
X0156750Y0023700D03*
X0156750Y0023600D03*
X0156750Y0023500D03*
X0156750Y0023400D03*
X0156750Y0023300D03*
X0156750Y0023200D03*
X0156750Y0023100D03*
X0156750Y0023000D03*
X0156750Y0022900D03*
X0156750Y0022800D03*
X0156750Y0022700D03*
X0156750Y0022600D03*
X0156750Y0022500D03*
X0156750Y0022400D03*
X0156750Y0022300D03*
X0156750Y0022200D03*
X0156750Y0022100D03*
X0156750Y0022000D03*
X0156750Y0021900D03*
X0156750Y0021800D03*
X0156750Y0021700D03*
X0156750Y0021600D03*
X0156750Y0021500D03*
X0156750Y0021400D03*
X0156750Y0021300D03*
X0156750Y0021200D03*
X0156750Y0021100D03*
X0166950Y0021100D03*
X0166950Y0021200D03*
X0166950Y0021300D03*
X0166950Y0021400D03*
X0166950Y0021500D03*
X0166950Y0021600D03*
X0166950Y0021700D03*
X0166950Y0021800D03*
X0166950Y0021900D03*
X0166950Y0022000D03*
X0166950Y0022100D03*
X0166950Y0022200D03*
X0166950Y0022300D03*
X0166950Y0022400D03*
X0166950Y0022500D03*
X0166950Y0022600D03*
X0166950Y0022700D03*
X0166950Y0022800D03*
X0166950Y0022900D03*
X0166950Y0023000D03*
X0166950Y0023100D03*
X0166950Y0023200D03*
X0166950Y0023300D03*
X0166950Y0023400D03*
X0166950Y0023500D03*
X0166950Y0023600D03*
X0166950Y0023700D03*
X0166950Y0023800D03*
X0166950Y0023900D03*
X0166950Y0024000D03*
X0166950Y0024100D03*
X0166950Y0024200D03*
X0166950Y0024300D03*
X0166950Y0024400D03*
X0166950Y0024500D03*
X0166950Y0024600D03*
X0166950Y0024700D03*
X0166950Y0024800D03*
X0166950Y0024900D03*
X0166950Y0025000D03*
X0166950Y0025100D03*
X0166950Y0025200D03*
X0166950Y0025300D03*
X0166950Y0025400D03*
X0166950Y0025500D03*
X0166950Y0025600D03*
X0166950Y0025700D03*
X0166950Y0025800D03*
X0166950Y0025900D03*
X0166950Y0026000D03*
X0166950Y0026100D03*
X0166950Y0026200D03*
X0166950Y0026300D03*
X0166950Y0026400D03*
X0166950Y0026500D03*
X0166950Y0026600D03*
X0166950Y0026700D03*
X0166950Y0026800D03*
X0166950Y0026900D03*
X0166950Y0027000D03*
X0166950Y0027100D03*
X0166950Y0027200D03*
X0166950Y0027300D03*
X0166950Y0027400D03*
X0166950Y0027500D03*
X0166950Y0027600D03*
X0166950Y0027700D03*
X0166950Y0027800D03*
X0166950Y0027900D03*
X0166950Y0028000D03*
X0166950Y0028100D03*
X0166950Y0028200D03*
X0166950Y0028300D03*
X0166950Y0028400D03*
X0166950Y0028500D03*
X0166950Y0028600D03*
X0166950Y0028700D03*
X0166950Y0028800D03*
X0166950Y0028900D03*
X0166950Y0029000D03*
X0166950Y0029100D03*
X0166950Y0029200D03*
X0166950Y0029300D03*
X0166950Y0029400D03*
X0166950Y0029500D03*
X0166950Y0029600D03*
X0166950Y0029700D03*
X0166950Y0029800D03*
X0166950Y0029900D03*
X0166950Y0030000D03*
X0166950Y0030100D03*
X0166950Y0030200D03*
X0166950Y0030300D03*
X0166950Y0030400D03*
X0166950Y0030500D03*
X0166950Y0030600D03*
X0166950Y0030700D03*
X0166950Y0030800D03*
X0166950Y0030900D03*
X0166950Y0031000D03*
X0166950Y0031100D03*
X0166950Y0031200D03*
X0166950Y0031300D03*
X0166950Y0031400D03*
X0166950Y0031500D03*
X0166950Y0031600D03*
X0166950Y0031700D03*
X0166950Y0031800D03*
X0166950Y0031900D03*
X0166950Y0032000D03*
X0166950Y0032100D03*
X0166950Y0032200D03*
X0166950Y0032300D03*
X0166950Y0032400D03*
X0166950Y0032500D03*
X0166950Y0032600D03*
X0166950Y0032700D03*
X0166950Y0032800D03*
X0166950Y0032900D03*
X0166950Y0033000D03*
X0166950Y0033100D03*
X0166950Y0033200D03*
X0166950Y0033300D03*
X0166950Y0033400D03*
X0166950Y0033500D03*
X0166950Y0033600D03*
X0166950Y0033700D03*
X0166950Y0033800D03*
X0166950Y0033900D03*
X0166950Y0034000D03*
X0166950Y0034100D03*
X0166950Y0034200D03*
X0166950Y0034300D03*
X0166950Y0034400D03*
X0166950Y0034500D03*
X0166950Y0034600D03*
X0166950Y0034700D03*
X0166950Y0034800D03*
X0166950Y0034900D03*
X0166950Y0035000D03*
X0166950Y0035100D03*
X0166950Y0035200D03*
X0166950Y0035300D03*
X0166950Y0035400D03*
X0166950Y0035500D03*
X0166950Y0035600D03*
X0166950Y0035700D03*
X0166950Y0035800D03*
X0166950Y0035900D03*
X0166950Y0036000D03*
X0166950Y0036100D03*
X0166950Y0036200D03*
X0166950Y0036300D03*
X0166950Y0036400D03*
X0166950Y0036500D03*
X0166950Y0036600D03*
X0166950Y0036700D03*
X0166950Y0036800D03*
X0166950Y0036900D03*
X0166950Y0037000D03*
X0166950Y0037100D03*
X0166950Y0037200D03*
X0166950Y0037300D03*
X0166950Y0037400D03*
X0166950Y0037500D03*
X0166950Y0037600D03*
X0166950Y0037700D03*
X0166950Y0037800D03*
X0166950Y0037900D03*
X0166950Y0038000D03*
X0166950Y0038100D03*
X0166950Y0038200D03*
X0166950Y0038300D03*
X0166950Y0038400D03*
X0166950Y0038500D03*
X0166950Y0038600D03*
X0166950Y0038700D03*
X0166950Y0038800D03*
X0166950Y0038900D03*
X0166950Y0039000D03*
X0166950Y0039100D03*
X0166950Y0039200D03*
X0166950Y0039300D03*
X0166950Y0039400D03*
X0166950Y0039500D03*
X0166950Y0039600D03*
X0166950Y0039700D03*
X0166950Y0039800D03*
X0166950Y0039900D03*
X0166950Y0040000D03*
X0166950Y0040100D03*
X0166950Y0040200D03*
X0166950Y0040300D03*
X0166950Y0040400D03*
X0166950Y0040500D03*
X0166950Y0040600D03*
X0166950Y0040700D03*
X0166950Y0040800D03*
X0166950Y0040900D03*
X0166950Y0041000D03*
X0166950Y0041100D03*
X0166950Y0041200D03*
X0166950Y0041300D03*
X0166950Y0041400D03*
X0166950Y0041500D03*
X0166950Y0041600D03*
X0166950Y0041700D03*
X0166950Y0041800D03*
X0166950Y0041900D03*
X0166950Y0042000D03*
X0166950Y0042100D03*
X0166950Y0042200D03*
X0166950Y0042300D03*
X0166950Y0042400D03*
X0176850Y0042400D03*
X0176850Y0042300D03*
X0176850Y0042200D03*
X0176850Y0042100D03*
X0176850Y0042000D03*
X0176850Y0041900D03*
X0176850Y0041800D03*
X0176850Y0041700D03*
X0176850Y0041600D03*
X0176850Y0041500D03*
X0176850Y0041400D03*
X0176850Y0041300D03*
X0176850Y0041200D03*
X0176850Y0041100D03*
X0176850Y0041000D03*
X0176850Y0040900D03*
X0176850Y0040800D03*
X0176850Y0040700D03*
X0176850Y0040600D03*
X0176850Y0040500D03*
X0176850Y0040400D03*
X0176850Y0040300D03*
X0176850Y0040200D03*
X0176850Y0040100D03*
X0176850Y0040000D03*
X0176850Y0039900D03*
X0176850Y0039800D03*
X0176850Y0039700D03*
X0176850Y0039600D03*
X0176850Y0039500D03*
X0176850Y0039400D03*
X0176850Y0039300D03*
X0176850Y0039200D03*
X0176850Y0039100D03*
X0176850Y0039000D03*
X0176850Y0038900D03*
X0176850Y0038800D03*
X0176850Y0038700D03*
X0176850Y0038600D03*
X0176850Y0038500D03*
X0176850Y0038400D03*
X0176850Y0038300D03*
X0176850Y0038200D03*
X0176850Y0038100D03*
X0176850Y0038000D03*
X0176850Y0037900D03*
X0176850Y0037800D03*
X0176850Y0037700D03*
X0176850Y0037600D03*
X0176850Y0037500D03*
X0176850Y0037400D03*
X0176850Y0037300D03*
X0176850Y0037200D03*
X0176850Y0037100D03*
X0176850Y0037000D03*
X0176850Y0036900D03*
X0176850Y0036800D03*
X0176850Y0036700D03*
X0176850Y0036600D03*
X0176850Y0036500D03*
X0176850Y0036400D03*
X0176850Y0036300D03*
X0176850Y0036200D03*
X0176850Y0036100D03*
X0176850Y0036000D03*
X0176850Y0035900D03*
X0176850Y0035800D03*
X0176850Y0035700D03*
X0176850Y0035600D03*
X0176850Y0035500D03*
X0176850Y0035400D03*
X0176850Y0035300D03*
X0176850Y0035200D03*
X0176850Y0035100D03*
X0176850Y0035000D03*
X0176850Y0034900D03*
X0176850Y0034800D03*
X0176850Y0034700D03*
X0176850Y0034600D03*
X0176850Y0034500D03*
X0176850Y0034400D03*
X0176850Y0034300D03*
X0176850Y0034200D03*
X0176850Y0034100D03*
X0176850Y0034000D03*
X0176850Y0033900D03*
X0176850Y0033800D03*
X0176850Y0033700D03*
X0176850Y0033600D03*
X0176850Y0033500D03*
X0176850Y0033400D03*
X0176850Y0033300D03*
X0176850Y0033200D03*
X0176850Y0033100D03*
X0176850Y0033000D03*
X0176850Y0032900D03*
X0176850Y0032800D03*
X0176850Y0032700D03*
X0176850Y0032600D03*
X0176850Y0032500D03*
X0176850Y0032400D03*
X0176850Y0032300D03*
X0176850Y0032200D03*
X0176850Y0032100D03*
X0176850Y0032000D03*
X0176850Y0031900D03*
X0176850Y0031800D03*
X0176850Y0031700D03*
X0176850Y0031600D03*
X0176850Y0031500D03*
X0176850Y0031400D03*
X0176850Y0031300D03*
X0176850Y0031200D03*
X0176850Y0031100D03*
X0176850Y0031000D03*
X0176850Y0030900D03*
X0176850Y0030800D03*
X0176850Y0030700D03*
X0176850Y0030600D03*
X0176850Y0030500D03*
X0176850Y0030400D03*
X0176850Y0030300D03*
X0176850Y0030200D03*
X0176850Y0030100D03*
X0176850Y0030000D03*
X0176850Y0029900D03*
X0176850Y0029800D03*
X0176850Y0029700D03*
X0176850Y0029600D03*
X0176850Y0029500D03*
X0176850Y0029400D03*
X0176850Y0029300D03*
X0176850Y0029200D03*
X0176850Y0029100D03*
X0176850Y0029000D03*
X0176850Y0028900D03*
X0176850Y0028800D03*
X0176850Y0028700D03*
X0176850Y0028600D03*
X0176850Y0028500D03*
X0176850Y0028400D03*
X0176850Y0028300D03*
X0176850Y0028200D03*
X0176850Y0028100D03*
X0176850Y0028000D03*
X0176850Y0027900D03*
X0176850Y0027800D03*
X0176850Y0027700D03*
X0176850Y0027600D03*
X0176850Y0027500D03*
X0176850Y0027400D03*
X0176850Y0027300D03*
X0176850Y0027200D03*
X0176850Y0027100D03*
X0176850Y0027000D03*
X0176850Y0026900D03*
X0176850Y0026800D03*
X0176850Y0026700D03*
X0176850Y0026600D03*
X0176850Y0026500D03*
X0176850Y0026400D03*
X0176850Y0026300D03*
X0176850Y0026200D03*
X0176850Y0026100D03*
X0176850Y0026000D03*
X0176850Y0025900D03*
X0176850Y0025800D03*
X0176850Y0025700D03*
X0176850Y0025600D03*
X0176850Y0025500D03*
X0176850Y0025400D03*
X0176850Y0025300D03*
X0176850Y0025200D03*
X0176850Y0025100D03*
X0176850Y0025000D03*
X0176850Y0024900D03*
X0176850Y0024800D03*
X0176850Y0024700D03*
X0176850Y0024600D03*
X0176850Y0024500D03*
X0176850Y0024400D03*
X0176850Y0024300D03*
X0176850Y0024200D03*
X0176850Y0024100D03*
X0176850Y0024000D03*
X0176850Y0023900D03*
X0176850Y0023800D03*
X0176850Y0023700D03*
X0176850Y0023600D03*
X0176850Y0023500D03*
X0176850Y0023400D03*
X0176850Y0023300D03*
X0176850Y0023200D03*
X0176850Y0023100D03*
X0176850Y0023000D03*
X0176850Y0022900D03*
X0176850Y0022800D03*
X0176850Y0022700D03*
X0176850Y0022600D03*
X0176850Y0022500D03*
X0176850Y0022400D03*
X0176850Y0022300D03*
X0176850Y0022200D03*
X0176850Y0022100D03*
X0176850Y0022000D03*
X0176850Y0021900D03*
X0176850Y0021800D03*
X0176850Y0021700D03*
X0176850Y0021600D03*
X0176850Y0021500D03*
X0176850Y0021400D03*
X0176850Y0021300D03*
X0176850Y0021200D03*
X0176850Y0021100D03*
X0186850Y0021100D03*
X0186850Y0021200D03*
X0186850Y0021300D03*
X0186850Y0021400D03*
X0186850Y0021500D03*
X0186850Y0021600D03*
X0186850Y0021700D03*
X0186850Y0021800D03*
X0186850Y0021900D03*
X0186850Y0022000D03*
X0186850Y0022100D03*
X0186850Y0022200D03*
X0186850Y0022300D03*
X0186850Y0022400D03*
X0186850Y0022500D03*
X0186850Y0022600D03*
X0186850Y0022700D03*
X0186850Y0022800D03*
X0186850Y0022900D03*
X0186850Y0023000D03*
X0186850Y0023100D03*
X0186850Y0023200D03*
X0186850Y0023300D03*
X0186850Y0023400D03*
X0186850Y0023500D03*
X0186850Y0023600D03*
X0186850Y0023700D03*
X0186850Y0023800D03*
X0186850Y0023900D03*
X0186850Y0024000D03*
X0186850Y0024100D03*
X0186850Y0024200D03*
X0186850Y0024300D03*
X0186850Y0024400D03*
X0186850Y0024500D03*
X0186850Y0024600D03*
X0186850Y0024700D03*
X0186850Y0024800D03*
X0186850Y0024900D03*
X0186850Y0025000D03*
X0186850Y0025100D03*
X0186850Y0025200D03*
X0186850Y0025300D03*
X0186850Y0025400D03*
X0186850Y0025500D03*
X0186850Y0025600D03*
X0186850Y0025700D03*
X0186850Y0025800D03*
X0186850Y0025900D03*
X0186850Y0026000D03*
X0186850Y0026100D03*
X0186850Y0026200D03*
X0186850Y0026300D03*
X0186850Y0026400D03*
X0186850Y0026500D03*
X0186850Y0026600D03*
X0186850Y0026700D03*
X0186850Y0026800D03*
X0186850Y0026900D03*
X0186850Y0027000D03*
X0186850Y0027100D03*
X0186850Y0027200D03*
X0186850Y0027300D03*
X0186850Y0027400D03*
X0186850Y0027500D03*
X0186850Y0027600D03*
X0186850Y0027700D03*
X0186850Y0027800D03*
X0186850Y0027900D03*
X0186850Y0028000D03*
X0186850Y0028100D03*
X0186850Y0028200D03*
X0186850Y0028300D03*
X0186850Y0028400D03*
X0186850Y0028500D03*
X0186850Y0028600D03*
X0186850Y0028700D03*
X0186850Y0028800D03*
X0186850Y0028900D03*
X0186850Y0029000D03*
X0186850Y0029100D03*
X0186850Y0029200D03*
X0186850Y0029300D03*
X0186850Y0029400D03*
X0186850Y0029500D03*
X0186850Y0029600D03*
X0186850Y0029700D03*
X0186850Y0029800D03*
X0186850Y0029900D03*
X0186850Y0030000D03*
X0186850Y0030100D03*
X0186850Y0030200D03*
X0186850Y0030300D03*
X0186850Y0030400D03*
X0186850Y0030500D03*
X0186850Y0030600D03*
X0186850Y0030700D03*
X0186850Y0030800D03*
X0186850Y0030900D03*
X0186850Y0031000D03*
X0186850Y0031100D03*
X0186850Y0031200D03*
X0186850Y0031300D03*
X0186850Y0031400D03*
X0186850Y0031500D03*
X0186850Y0031600D03*
X0186850Y0031700D03*
X0186850Y0031800D03*
X0186850Y0031900D03*
X0186850Y0032000D03*
X0186850Y0032100D03*
X0186850Y0032200D03*
X0186850Y0032300D03*
X0186850Y0032400D03*
X0186850Y0032500D03*
X0186850Y0032600D03*
X0186850Y0032700D03*
X0186850Y0032800D03*
X0186850Y0032900D03*
X0186850Y0033000D03*
X0186850Y0033100D03*
X0186850Y0033200D03*
X0186850Y0033300D03*
X0186850Y0033400D03*
X0186850Y0033500D03*
X0186850Y0033600D03*
X0186850Y0033700D03*
X0186850Y0033800D03*
X0186850Y0033900D03*
X0186850Y0034000D03*
X0186850Y0034100D03*
X0186850Y0034200D03*
X0186850Y0034300D03*
X0186850Y0034400D03*
X0186850Y0034500D03*
X0186850Y0034600D03*
X0186850Y0034700D03*
X0186850Y0034800D03*
X0186850Y0034900D03*
X0186850Y0035000D03*
X0186850Y0035100D03*
X0186850Y0035200D03*
X0186850Y0035300D03*
X0186850Y0035400D03*
X0186850Y0035500D03*
X0186850Y0035600D03*
X0186850Y0035700D03*
X0186850Y0035800D03*
X0186850Y0035900D03*
X0186850Y0036000D03*
X0186850Y0036100D03*
X0186850Y0036200D03*
X0186850Y0036300D03*
X0186850Y0036400D03*
X0186850Y0036500D03*
X0186850Y0036600D03*
X0186850Y0036700D03*
X0186850Y0036800D03*
X0186850Y0036900D03*
X0186850Y0037000D03*
X0186850Y0037100D03*
X0186850Y0037200D03*
X0186850Y0037300D03*
X0186850Y0037400D03*
X0186850Y0037500D03*
X0186850Y0037600D03*
X0186850Y0037700D03*
X0186850Y0037800D03*
X0186850Y0037900D03*
X0186850Y0038000D03*
X0186850Y0038100D03*
X0186850Y0038200D03*
X0186850Y0038300D03*
X0186850Y0038400D03*
X0186850Y0038500D03*
X0186850Y0038600D03*
X0186850Y0038700D03*
X0186850Y0038800D03*
X0186850Y0038900D03*
X0186850Y0039000D03*
X0186850Y0039100D03*
X0186850Y0039200D03*
X0186850Y0039300D03*
X0186850Y0039400D03*
X0186850Y0039500D03*
X0186850Y0039600D03*
X0186850Y0039700D03*
X0186850Y0039800D03*
X0186850Y0039900D03*
X0186850Y0040000D03*
X0186850Y0040100D03*
X0186850Y0040200D03*
X0186850Y0040300D03*
X0186850Y0040400D03*
X0186850Y0040500D03*
X0186850Y0040600D03*
X0186850Y0040700D03*
X0186850Y0040800D03*
X0186850Y0040900D03*
X0186850Y0041000D03*
X0186850Y0041100D03*
X0186850Y0041200D03*
X0186850Y0041300D03*
X0186850Y0041400D03*
X0186850Y0041500D03*
X0186850Y0041600D03*
X0186850Y0041700D03*
X0186850Y0041800D03*
X0186850Y0041900D03*
X0186850Y0042000D03*
X0186850Y0042100D03*
X0186850Y0042200D03*
X0186850Y0042300D03*
X0186850Y0042400D03*
X0196850Y0042400D03*
X0196850Y0042300D03*
X0196850Y0042200D03*
X0196850Y0042100D03*
X0196850Y0042000D03*
X0196850Y0041900D03*
X0196850Y0041800D03*
X0196850Y0041700D03*
X0196850Y0041600D03*
X0196850Y0041500D03*
X0196850Y0041400D03*
X0196850Y0041300D03*
X0196850Y0041200D03*
X0196850Y0041100D03*
X0196850Y0041000D03*
X0196850Y0040900D03*
X0196850Y0040800D03*
X0196850Y0040700D03*
X0196850Y0040600D03*
X0196850Y0040500D03*
X0196850Y0040400D03*
X0196850Y0040300D03*
X0196850Y0040200D03*
X0196850Y0040100D03*
X0196850Y0040000D03*
X0196850Y0039900D03*
X0196850Y0039800D03*
X0196850Y0039700D03*
X0196850Y0039600D03*
X0196850Y0039500D03*
X0196850Y0039400D03*
X0196850Y0039300D03*
X0196850Y0039200D03*
X0196850Y0039100D03*
X0196850Y0039000D03*
X0196850Y0038900D03*
X0196850Y0038800D03*
X0196850Y0038700D03*
X0196850Y0038600D03*
X0196850Y0038500D03*
X0196850Y0038400D03*
X0196850Y0038300D03*
X0196850Y0038200D03*
X0196850Y0038100D03*
X0196850Y0038000D03*
X0196850Y0037900D03*
X0196850Y0037800D03*
X0196850Y0037700D03*
X0196850Y0037600D03*
X0196850Y0037500D03*
X0196850Y0037400D03*
X0196850Y0037300D03*
X0196850Y0037200D03*
X0196850Y0037100D03*
X0196850Y0037000D03*
X0196850Y0036900D03*
X0196850Y0036800D03*
X0196850Y0036700D03*
X0196850Y0036600D03*
X0196850Y0036500D03*
X0196850Y0036400D03*
X0196850Y0036300D03*
X0196850Y0036200D03*
X0196850Y0036100D03*
X0196850Y0036000D03*
X0196850Y0035900D03*
X0196850Y0035800D03*
X0196850Y0035700D03*
X0196850Y0035600D03*
X0196850Y0035500D03*
X0196850Y0035400D03*
X0196850Y0035300D03*
X0196850Y0035200D03*
X0196850Y0035100D03*
X0196850Y0035000D03*
X0196850Y0034900D03*
X0196850Y0034800D03*
X0196850Y0034700D03*
X0196850Y0034600D03*
X0196850Y0034500D03*
X0196850Y0034400D03*
X0196850Y0034300D03*
X0196850Y0034200D03*
X0196850Y0034100D03*
X0196850Y0034000D03*
X0196850Y0033900D03*
X0196850Y0033800D03*
X0196850Y0033700D03*
X0196850Y0033600D03*
X0196850Y0033500D03*
X0196850Y0033400D03*
X0196850Y0033300D03*
X0196850Y0033200D03*
X0196850Y0033100D03*
X0196850Y0033000D03*
X0196850Y0032900D03*
X0196850Y0032800D03*
X0196850Y0032700D03*
X0196850Y0032600D03*
X0196850Y0032500D03*
X0196850Y0032400D03*
X0196850Y0032300D03*
X0196850Y0032200D03*
X0196850Y0032100D03*
X0196850Y0032000D03*
X0196850Y0031900D03*
X0196850Y0031800D03*
X0196850Y0031700D03*
X0196850Y0031600D03*
X0196850Y0031500D03*
X0196850Y0031400D03*
X0196850Y0031300D03*
X0196850Y0031200D03*
X0196850Y0031100D03*
X0196850Y0031000D03*
X0196850Y0030900D03*
X0196850Y0030800D03*
X0196850Y0030700D03*
X0196850Y0030600D03*
X0196850Y0030500D03*
X0196850Y0030400D03*
X0196850Y0030300D03*
X0196850Y0030200D03*
X0196850Y0030100D03*
X0196850Y0030000D03*
X0196850Y0029900D03*
X0196850Y0029800D03*
X0196850Y0029700D03*
X0196850Y0029600D03*
X0196850Y0029500D03*
X0196850Y0029400D03*
X0196850Y0029300D03*
X0196850Y0029200D03*
X0196850Y0029100D03*
X0196850Y0029000D03*
X0196850Y0028900D03*
X0196850Y0028800D03*
X0196850Y0028700D03*
X0196850Y0028600D03*
X0196850Y0028500D03*
X0196850Y0028400D03*
X0196850Y0028300D03*
X0196850Y0028200D03*
X0196850Y0028100D03*
X0196850Y0028000D03*
X0196850Y0027900D03*
X0196850Y0027800D03*
X0196850Y0027700D03*
X0196850Y0027600D03*
X0196850Y0027500D03*
X0196850Y0027400D03*
X0196850Y0027300D03*
X0196850Y0027200D03*
X0196850Y0027100D03*
X0196850Y0027000D03*
X0196850Y0026900D03*
X0196850Y0026800D03*
X0196850Y0026700D03*
X0196850Y0026600D03*
X0196850Y0026500D03*
X0196850Y0026400D03*
X0196850Y0026300D03*
X0196850Y0026200D03*
X0196850Y0026100D03*
X0196850Y0026000D03*
X0196850Y0025900D03*
X0196850Y0025800D03*
X0196850Y0025700D03*
X0196850Y0025600D03*
X0196850Y0025500D03*
X0196850Y0025400D03*
X0196850Y0025300D03*
X0196850Y0025200D03*
X0196850Y0025100D03*
X0196850Y0025000D03*
X0196850Y0024900D03*
X0196850Y0024800D03*
X0196850Y0024700D03*
X0196850Y0024600D03*
X0196850Y0024500D03*
X0196850Y0024400D03*
X0196850Y0024300D03*
X0196850Y0024200D03*
X0196850Y0024100D03*
X0196850Y0024000D03*
X0196850Y0023900D03*
X0196850Y0023800D03*
X0196850Y0023700D03*
X0196850Y0023600D03*
X0196850Y0023500D03*
X0196850Y0023400D03*
X0196850Y0023300D03*
X0196850Y0023200D03*
X0196850Y0023100D03*
X0196850Y0023000D03*
X0196850Y0022900D03*
X0196850Y0022800D03*
X0196850Y0022700D03*
X0196850Y0022600D03*
X0196850Y0022500D03*
X0196850Y0022400D03*
X0196850Y0022300D03*
X0196850Y0022200D03*
X0196850Y0022100D03*
X0196850Y0022000D03*
X0196850Y0021900D03*
X0196850Y0021800D03*
X0196850Y0021700D03*
X0196850Y0021600D03*
X0196850Y0021500D03*
X0196850Y0021400D03*
X0196850Y0021300D03*
X0196850Y0021200D03*
X0196850Y0021100D03*
X0096850Y0129200D03*
X0096850Y0129300D03*
X0096850Y0129400D03*
X0096850Y0129500D03*
X0096850Y0129600D03*
X0096850Y0129700D03*
X0096850Y0129800D03*
X0096850Y0129900D03*
X0096850Y0130000D03*
X0096850Y0130100D03*
X0096850Y0130200D03*
X0096850Y0130300D03*
X0096850Y0130400D03*
X0096850Y0130500D03*
X0096850Y0130600D03*
X0096850Y0130700D03*
X0096850Y0131900D03*
X0096850Y0132000D03*
X0096850Y0132100D03*
X0096850Y0132200D03*
X0096850Y0132300D03*
X0096850Y0132400D03*
X0096850Y0132500D03*
X0096850Y0132600D03*
X0096850Y0132700D03*
X0096850Y0132800D03*
X0096850Y0132900D03*
X0096850Y0133000D03*
X0096850Y0133100D03*
X0096850Y0133200D03*
X0096850Y0133300D03*
X0096850Y0133400D03*
X0096850Y0133500D03*
X0108750Y0135600D03*
X0108750Y0135700D03*
X0108750Y0135800D03*
X0109450Y0138400D03*
X0109450Y0138500D03*
X0109550Y0138900D03*
X0109550Y0139000D03*
X0109650Y0139300D03*
X0109650Y0139400D03*
X0109650Y0139500D03*
X0109750Y0139700D03*
X0109750Y0139800D03*
X0109750Y0139900D03*
X0198950Y0199100D03*
X0198950Y0199200D03*
X0198950Y0199300D03*
X0199650Y0201900D03*
X0199750Y0202300D03*
X0199750Y0202400D03*
X0199850Y0202700D03*
X0199850Y0202800D03*
X0199850Y0202900D03*
X0199950Y0203100D03*
X0199950Y0203200D03*
X0199950Y0203300D03*
X0199950Y0203400D03*
D11*
X0185300Y0200300D03*
X0181700Y0200300D03*
X0181700Y0200400D03*
X0181700Y0200500D03*
X0181700Y0200600D03*
X0181700Y0200700D03*
X0181700Y0200800D03*
X0181700Y0200900D03*
X0181700Y0201000D03*
X0181700Y0201100D03*
X0181700Y0201200D03*
X0181700Y0201300D03*
X0181700Y0200200D03*
X0181700Y0200100D03*
X0181700Y0200000D03*
X0181700Y0199900D03*
X0181700Y0199800D03*
X0181700Y0199700D03*
X0181700Y0199600D03*
X0181700Y0199500D03*
X0181700Y0199400D03*
X0181700Y0199300D03*
X0181700Y0199200D03*
X0181700Y0199100D03*
X0181700Y0199000D03*
X0181700Y0198900D03*
X0128100Y0141700D03*
X0128100Y0141600D03*
X0128100Y0141500D03*
X0128100Y0141400D03*
X0128100Y0141300D03*
X0128100Y0141200D03*
X0128100Y0141100D03*
X0128100Y0141000D03*
X0128100Y0140900D03*
X0128100Y0140800D03*
X0128100Y0140700D03*
X0128100Y0140600D03*
X0128100Y0140500D03*
X0128100Y0140400D03*
X0128100Y0140300D03*
X0128100Y0140200D03*
X0128100Y0140100D03*
X0128100Y0140000D03*
X0128100Y0139900D03*
X0128100Y0139800D03*
X0128100Y0139700D03*
X0128100Y0139600D03*
X0128100Y0139500D03*
X0128100Y0139400D03*
X0128100Y0139300D03*
X0128100Y0139200D03*
X0128100Y0139100D03*
X0128100Y0139000D03*
X0128100Y0138900D03*
X0128100Y0138800D03*
X0128100Y0138700D03*
X0128100Y0138600D03*
X0128100Y0138500D03*
X0125300Y0138500D03*
X0125300Y0138600D03*
X0125300Y0138700D03*
X0125300Y0138800D03*
X0125300Y0138900D03*
X0125300Y0138400D03*
X0125300Y0138300D03*
X0125300Y0138200D03*
X0125300Y0138100D03*
X0125300Y0138000D03*
X0125300Y0137900D03*
X0125300Y0137800D03*
X0125300Y0137700D03*
X0125300Y0137600D03*
X0125300Y0137500D03*
X0125300Y0137400D03*
X0125300Y0137300D03*
X0125300Y0137200D03*
X0125300Y0137100D03*
X0125300Y0137000D03*
X0125300Y0136900D03*
X0125300Y0136800D03*
X0125300Y0136700D03*
X0125300Y0136600D03*
X0125300Y0136500D03*
X0125300Y0136400D03*
X0125300Y0136300D03*
X0125300Y0136200D03*
X0125300Y0136100D03*
X0125300Y0136000D03*
X0125300Y0135900D03*
X0125300Y0135800D03*
X0125300Y0135700D03*
X0125300Y0135600D03*
X0128100Y0135600D03*
X0108700Y0135900D03*
X0096900Y0130800D03*
X0080300Y0189100D03*
X0080300Y0189200D03*
X0080300Y0189300D03*
X0080300Y0189400D03*
X0080300Y0189500D03*
X0080300Y0189600D03*
X0080300Y0189700D03*
X0080300Y0189800D03*
X0080300Y0189900D03*
X0080300Y0190000D03*
X0080300Y0190100D03*
X0080300Y0190200D03*
X0080300Y0190300D03*
X0080300Y0190400D03*
X0080300Y0190500D03*
X0080300Y0190600D03*
X0080300Y0190700D03*
X0080300Y0191800D03*
X0080300Y0191900D03*
X0080300Y0192000D03*
X0080300Y0192100D03*
X0080300Y0192200D03*
X0080300Y0192300D03*
X0080300Y0192400D03*
X0080300Y0192500D03*
X0080300Y0192600D03*
X0080300Y0192700D03*
X0080300Y0192800D03*
X0080300Y0192900D03*
X0080300Y0193000D03*
X0080300Y0193100D03*
X0080300Y0193200D03*
X0080300Y0193300D03*
X0080300Y0193400D03*
X0062800Y0193400D03*
X0062800Y0193300D03*
X0062800Y0193200D03*
X0062800Y0193100D03*
X0062800Y0193000D03*
X0062800Y0192900D03*
X0062800Y0192800D03*
X0062800Y0192700D03*
X0062800Y0192600D03*
X0062800Y0192500D03*
X0062800Y0192400D03*
X0062800Y0192300D03*
X0062800Y0192200D03*
X0062800Y0192100D03*
X0062800Y0192000D03*
X0062800Y0191900D03*
X0062800Y0191800D03*
X0062800Y0190700D03*
X0062800Y0190600D03*
X0062800Y0190500D03*
X0062800Y0190400D03*
X0062800Y0190300D03*
X0062800Y0190200D03*
X0062800Y0190100D03*
X0062800Y0190000D03*
X0062800Y0189900D03*
X0062800Y0189800D03*
X0062800Y0189700D03*
X0062800Y0189600D03*
X0062800Y0189500D03*
X0062800Y0189400D03*
X0062800Y0189300D03*
X0062800Y0189200D03*
X0062800Y0189100D03*
X0107400Y0199100D03*
X0107400Y0199200D03*
X0107400Y0199300D03*
X0107400Y0199400D03*
X0107400Y0199500D03*
X0107400Y0199600D03*
X0107400Y0199700D03*
X0107400Y0199800D03*
X0107400Y0199900D03*
X0107400Y0200000D03*
X0107400Y0200100D03*
X0107400Y0200200D03*
X0107400Y0200300D03*
X0107400Y0200400D03*
X0107400Y0200500D03*
X0107400Y0200600D03*
X0107400Y0200700D03*
X0107400Y0200800D03*
X0107400Y0200900D03*
X0107400Y0201000D03*
X0107400Y0201100D03*
X0107400Y0201200D03*
X0107400Y0201300D03*
X0107400Y0201400D03*
X0107400Y0201500D03*
X0107400Y0201600D03*
X0107400Y0201700D03*
X0107400Y0201800D03*
X0107400Y0201900D03*
X0107400Y0202000D03*
X0107400Y0202100D03*
X0107400Y0202200D03*
X0107400Y0202300D03*
X0107400Y0202400D03*
X0110200Y0202400D03*
X0110200Y0202500D03*
X0110200Y0202600D03*
X0110200Y0202700D03*
X0110200Y0202800D03*
X0110200Y0202900D03*
X0110200Y0203000D03*
X0110200Y0203100D03*
X0110200Y0203200D03*
X0110200Y0203300D03*
X0110200Y0203400D03*
X0110200Y0203500D03*
X0110200Y0203600D03*
X0110200Y0203700D03*
X0110200Y0203800D03*
X0110200Y0203900D03*
X0110200Y0204000D03*
X0110200Y0204100D03*
X0110200Y0204200D03*
X0110200Y0204300D03*
X0110200Y0204400D03*
X0110200Y0204500D03*
X0110200Y0204600D03*
X0110200Y0204700D03*
X0110200Y0204800D03*
X0110200Y0204900D03*
X0110200Y0205000D03*
X0110200Y0205100D03*
X0110200Y0205200D03*
X0110200Y0202300D03*
X0110200Y0202200D03*
X0110200Y0202100D03*
X0110200Y0202000D03*
X0110200Y0199100D03*
X0034600Y0060800D03*
X0034600Y0060700D03*
X0034600Y0060600D03*
X0034600Y0060500D03*
X0034600Y0060400D03*
X0034600Y0060300D03*
X0034600Y0060200D03*
X0034600Y0060100D03*
X0034600Y0060000D03*
X0034600Y0059900D03*
X0034600Y0059800D03*
X0034600Y0059700D03*
X0034600Y0059600D03*
X0034600Y0059500D03*
X0034600Y0059400D03*
X0034600Y0059300D03*
X0059300Y0045000D03*
X0059100Y0040400D03*
X0059100Y0040300D03*
X0059100Y0040200D03*
X0059100Y0040100D03*
X0059100Y0040000D03*
X0059100Y0039900D03*
X0059100Y0039800D03*
X0059100Y0039700D03*
X0059100Y0039600D03*
X0059100Y0039500D03*
X0059100Y0039400D03*
X0059100Y0039300D03*
X0059100Y0039200D03*
X0061600Y0039300D03*
X0061600Y0039400D03*
X0061600Y0039500D03*
X0061600Y0039600D03*
X0061600Y0039700D03*
X0061600Y0039800D03*
X0061600Y0039900D03*
X0061600Y0040000D03*
X0061600Y0040100D03*
X0061600Y0040200D03*
X0061600Y0040300D03*
X0061600Y0040400D03*
X0064200Y0040300D03*
X0064200Y0040200D03*
X0064200Y0040100D03*
X0064200Y0040000D03*
X0064200Y0039900D03*
X0064200Y0039800D03*
X0064200Y0039700D03*
X0064200Y0039600D03*
X0064200Y0039500D03*
X0064200Y0039400D03*
X0064200Y0039300D03*
X0066900Y0039300D03*
X0066900Y0039400D03*
X0066900Y0039500D03*
X0066900Y0039600D03*
X0066900Y0039700D03*
X0066900Y0039800D03*
X0066900Y0039900D03*
X0066900Y0040000D03*
X0066900Y0040100D03*
X0066900Y0040200D03*
X0066900Y0040300D03*
X0066900Y0040400D03*
X0066900Y0040500D03*
X0066900Y0040600D03*
X0066900Y0040700D03*
X0066900Y0040800D03*
X0066900Y0040900D03*
X0066900Y0041000D03*
X0066900Y0041100D03*
X0066900Y0041200D03*
X0066900Y0041300D03*
X0066900Y0041400D03*
X0066900Y0041500D03*
X0066900Y0041600D03*
X0066900Y0041700D03*
X0066900Y0041800D03*
X0066900Y0041900D03*
X0066900Y0042000D03*
X0066900Y0042100D03*
X0066900Y0042200D03*
X0066900Y0042300D03*
X0066900Y0042400D03*
X0066900Y0042500D03*
X0066900Y0042600D03*
X0066900Y0042700D03*
X0066900Y0042800D03*
X0066900Y0042900D03*
X0066900Y0043000D03*
X0066900Y0043100D03*
X0066900Y0043200D03*
X0066900Y0043300D03*
X0066900Y0043400D03*
X0066900Y0043500D03*
X0066900Y0043600D03*
X0066900Y0043700D03*
X0066900Y0043800D03*
X0066900Y0043900D03*
X0066900Y0044000D03*
X0066900Y0044100D03*
X0066900Y0044200D03*
X0066900Y0044300D03*
X0066900Y0044400D03*
X0066900Y0044500D03*
X0066900Y0044600D03*
X0066900Y0044700D03*
X0066900Y0044800D03*
X0066900Y0044900D03*
X0066900Y0045000D03*
X0066900Y0045100D03*
X0066900Y0045200D03*
X0066900Y0045300D03*
X0066900Y0045400D03*
X0066900Y0045500D03*
X0066900Y0045600D03*
X0066900Y0045700D03*
X0067100Y0044800D03*
X0067100Y0044700D03*
X0067100Y0044600D03*
X0067100Y0044500D03*
X0066900Y0039200D03*
X0066900Y0039100D03*
X0066900Y0039000D03*
X0066900Y0038900D03*
X0066900Y0038800D03*
X0066900Y0038700D03*
X0066900Y0038600D03*
X0066900Y0038500D03*
X0066900Y0038400D03*
X0066900Y0038300D03*
X0066900Y0038200D03*
X0066900Y0038100D03*
X0066900Y0038000D03*
X0066900Y0037900D03*
X0066900Y0037800D03*
X0066900Y0037700D03*
X0066900Y0037600D03*
X0066900Y0037500D03*
X0066900Y0037400D03*
X0066900Y0037300D03*
X0066900Y0037200D03*
X0066900Y0037100D03*
X0066900Y0037000D03*
X0066900Y0036900D03*
X0066900Y0036800D03*
X0066900Y0036700D03*
X0066900Y0036600D03*
X0066900Y0036500D03*
X0066900Y0036400D03*
X0066900Y0036300D03*
X0066900Y0036200D03*
X0066900Y0036100D03*
X0066900Y0036000D03*
X0066900Y0035900D03*
X0066900Y0035800D03*
X0066900Y0035700D03*
X0066900Y0035600D03*
X0066900Y0035500D03*
X0066900Y0035400D03*
X0066900Y0035300D03*
X0066900Y0035200D03*
X0066900Y0035100D03*
X0066900Y0035000D03*
X0066900Y0034900D03*
X0066900Y0034800D03*
X0066900Y0034700D03*
X0066900Y0034600D03*
X0066900Y0034500D03*
X0066900Y0034400D03*
X0066900Y0034300D03*
X0066900Y0034200D03*
X0066900Y0034100D03*
X0066900Y0034000D03*
X0066900Y0033900D03*
X0066900Y0033800D03*
X0066900Y0033700D03*
X0066900Y0033600D03*
X0066900Y0033500D03*
X0066900Y0033400D03*
X0066900Y0033300D03*
X0066900Y0033200D03*
X0066900Y0033100D03*
X0066900Y0033000D03*
X0066900Y0032900D03*
X0066900Y0032800D03*
X0066900Y0032700D03*
X0066900Y0032600D03*
X0066900Y0032500D03*
X0066900Y0032400D03*
X0066900Y0032300D03*
X0066900Y0032200D03*
X0066900Y0032100D03*
X0066900Y0032000D03*
X0066900Y0031900D03*
X0066900Y0031800D03*
X0066900Y0031700D03*
X0066900Y0031600D03*
X0066900Y0031500D03*
X0066900Y0031400D03*
X0066900Y0031300D03*
X0066900Y0031200D03*
X0066900Y0031100D03*
X0066900Y0031000D03*
X0066900Y0030900D03*
X0066900Y0030800D03*
X0066900Y0030700D03*
X0066900Y0030600D03*
X0066900Y0030500D03*
X0066900Y0030400D03*
X0066900Y0030300D03*
X0066900Y0030200D03*
X0066900Y0030100D03*
X0066900Y0030000D03*
X0066900Y0029900D03*
X0066900Y0029800D03*
X0066900Y0029700D03*
X0066900Y0029600D03*
X0066900Y0029500D03*
X0066900Y0029400D03*
X0066900Y0029300D03*
X0066900Y0029200D03*
X0066900Y0029100D03*
X0066900Y0029000D03*
X0066900Y0028900D03*
X0066900Y0028800D03*
X0066900Y0028700D03*
X0066900Y0028600D03*
X0066900Y0028500D03*
X0066900Y0028400D03*
X0066900Y0028300D03*
X0066900Y0028200D03*
X0066900Y0028100D03*
X0066900Y0028000D03*
X0066900Y0027900D03*
X0066900Y0027800D03*
X0066900Y0027700D03*
X0066900Y0027600D03*
X0066900Y0027500D03*
X0066900Y0027400D03*
X0066900Y0027300D03*
X0066900Y0027200D03*
X0066900Y0027100D03*
X0066900Y0027000D03*
X0066900Y0026900D03*
X0066900Y0026800D03*
X0066900Y0026700D03*
X0066900Y0026600D03*
X0066900Y0026500D03*
X0066900Y0026400D03*
X0066900Y0026300D03*
X0066900Y0026200D03*
X0066900Y0026100D03*
X0066900Y0026000D03*
X0066900Y0025900D03*
X0066900Y0025800D03*
X0066900Y0025700D03*
X0066900Y0025600D03*
X0066900Y0025500D03*
X0066900Y0025400D03*
X0066900Y0025300D03*
X0066900Y0025200D03*
X0066900Y0025100D03*
X0066900Y0025000D03*
X0066900Y0024900D03*
X0066900Y0024800D03*
X0066900Y0024700D03*
X0066900Y0024600D03*
X0066900Y0024500D03*
X0066900Y0024400D03*
X0066900Y0024300D03*
X0066900Y0024200D03*
X0066900Y0024100D03*
X0066900Y0024000D03*
X0066900Y0023900D03*
X0066900Y0023800D03*
X0066900Y0023700D03*
X0066900Y0023600D03*
X0066900Y0023500D03*
X0066900Y0023400D03*
X0066900Y0023300D03*
X0066900Y0023200D03*
X0066900Y0023100D03*
X0066900Y0023000D03*
X0066900Y0022900D03*
X0066900Y0022800D03*
X0066900Y0022700D03*
X0066900Y0022600D03*
X0066900Y0022500D03*
X0066900Y0022400D03*
X0066900Y0022300D03*
X0066900Y0022200D03*
X0066900Y0022100D03*
X0066900Y0022000D03*
X0066900Y0021900D03*
X0066900Y0021800D03*
X0066900Y0021700D03*
X0066900Y0021600D03*
X0066900Y0021500D03*
X0066900Y0021400D03*
X0066900Y0021300D03*
X0066900Y0021200D03*
X0066900Y0021100D03*
X0076800Y0021100D03*
X0076800Y0021200D03*
X0076800Y0021300D03*
X0076800Y0021400D03*
X0076800Y0021500D03*
X0076800Y0021600D03*
X0076800Y0021700D03*
X0076800Y0021800D03*
X0076800Y0021900D03*
X0076800Y0022000D03*
X0076800Y0022100D03*
X0076800Y0022200D03*
X0076800Y0022300D03*
X0076800Y0022400D03*
X0076800Y0022500D03*
X0076800Y0022600D03*
X0076800Y0022700D03*
X0076800Y0022800D03*
X0076800Y0022900D03*
X0076800Y0023000D03*
X0076800Y0023100D03*
X0076800Y0023200D03*
X0076800Y0023300D03*
X0076800Y0023400D03*
X0076800Y0023500D03*
X0076800Y0023600D03*
X0076800Y0023700D03*
X0076800Y0023800D03*
X0076800Y0023900D03*
X0076800Y0024000D03*
X0076800Y0024100D03*
X0076800Y0024200D03*
X0076800Y0024300D03*
X0076800Y0024400D03*
X0076800Y0024500D03*
X0076800Y0024600D03*
X0076800Y0024700D03*
X0076800Y0024800D03*
X0076800Y0024900D03*
X0076800Y0025000D03*
X0076800Y0025100D03*
X0076800Y0025200D03*
X0076800Y0025300D03*
X0076800Y0025400D03*
X0076800Y0025500D03*
X0076800Y0025600D03*
X0076800Y0025700D03*
X0076800Y0025800D03*
X0076800Y0025900D03*
X0076800Y0026000D03*
X0076800Y0026100D03*
X0076800Y0026200D03*
X0076800Y0026300D03*
X0076800Y0026400D03*
X0076800Y0026500D03*
X0076800Y0026600D03*
X0076800Y0026700D03*
X0076800Y0026800D03*
X0076800Y0026900D03*
X0076800Y0027000D03*
X0076800Y0027100D03*
X0076800Y0027200D03*
X0076800Y0027300D03*
X0076800Y0027400D03*
X0076800Y0027500D03*
X0076800Y0027600D03*
X0076800Y0027700D03*
X0076800Y0027800D03*
X0076800Y0027900D03*
X0076800Y0028000D03*
X0076800Y0028100D03*
X0076800Y0028200D03*
X0076800Y0028300D03*
X0076800Y0028400D03*
X0076800Y0028500D03*
X0076800Y0028600D03*
X0076800Y0028700D03*
X0076800Y0028800D03*
X0076800Y0028900D03*
X0076800Y0029000D03*
X0076800Y0029100D03*
X0076800Y0029200D03*
X0076800Y0029300D03*
X0076800Y0029400D03*
X0076800Y0029500D03*
X0076800Y0029600D03*
X0076800Y0029700D03*
X0076800Y0029800D03*
X0076800Y0029900D03*
X0076800Y0030000D03*
X0076800Y0030100D03*
X0076800Y0030200D03*
X0076800Y0030300D03*
X0076800Y0030400D03*
X0076800Y0030500D03*
X0076800Y0030600D03*
X0076800Y0030700D03*
X0076800Y0030800D03*
X0076800Y0030900D03*
X0076800Y0031000D03*
X0076800Y0031100D03*
X0076800Y0031200D03*
X0076800Y0031300D03*
X0076800Y0031400D03*
X0076800Y0031500D03*
X0076800Y0031600D03*
X0076800Y0031700D03*
X0076800Y0031800D03*
X0076800Y0031900D03*
X0076800Y0032000D03*
X0076800Y0032100D03*
X0076800Y0032200D03*
X0076800Y0032300D03*
X0076800Y0032400D03*
X0076800Y0032500D03*
X0076800Y0032600D03*
X0076800Y0032700D03*
X0076800Y0032800D03*
X0076800Y0032900D03*
X0076800Y0033000D03*
X0076800Y0033100D03*
X0076800Y0033200D03*
X0076800Y0033300D03*
X0076800Y0033400D03*
X0076800Y0033500D03*
X0076800Y0033600D03*
X0076800Y0033700D03*
X0076800Y0033800D03*
X0076800Y0033900D03*
X0076800Y0034000D03*
X0076800Y0034100D03*
X0076800Y0034200D03*
X0076800Y0034300D03*
X0076800Y0034400D03*
X0076800Y0034500D03*
X0076800Y0034600D03*
X0076800Y0034700D03*
X0076800Y0034800D03*
X0076800Y0034900D03*
X0076800Y0035000D03*
X0076800Y0035100D03*
X0076800Y0035200D03*
X0076800Y0035300D03*
X0076800Y0035400D03*
X0076800Y0035500D03*
X0076800Y0035600D03*
X0076800Y0035700D03*
X0076800Y0035800D03*
X0076800Y0035900D03*
X0076800Y0036000D03*
X0076800Y0036100D03*
X0076800Y0036200D03*
X0076800Y0036300D03*
X0076800Y0036400D03*
X0076800Y0036500D03*
X0076800Y0036600D03*
X0076800Y0036700D03*
X0076800Y0036800D03*
X0076800Y0036900D03*
X0076800Y0037000D03*
X0076800Y0037100D03*
X0076800Y0037200D03*
X0076800Y0037300D03*
X0076800Y0037400D03*
X0076800Y0037500D03*
X0076800Y0037600D03*
X0076800Y0037700D03*
X0076800Y0037800D03*
X0076800Y0037900D03*
X0076800Y0038000D03*
X0076800Y0038100D03*
X0076800Y0038200D03*
X0076800Y0038300D03*
X0076800Y0038400D03*
X0076800Y0038500D03*
X0076800Y0038600D03*
X0076800Y0038700D03*
X0076800Y0038800D03*
X0076800Y0038900D03*
X0076800Y0039000D03*
X0076800Y0039100D03*
X0076800Y0039200D03*
X0076800Y0039300D03*
X0076800Y0039400D03*
X0076800Y0039500D03*
X0076800Y0039600D03*
X0076800Y0039700D03*
X0076800Y0039800D03*
X0076800Y0039900D03*
X0076800Y0040000D03*
X0076800Y0040100D03*
X0076800Y0040200D03*
X0076800Y0040300D03*
X0076800Y0040400D03*
X0076800Y0040500D03*
X0076800Y0040600D03*
X0076800Y0040700D03*
X0076800Y0040800D03*
X0076800Y0040900D03*
X0076800Y0041000D03*
X0076800Y0041100D03*
X0076800Y0041200D03*
X0076800Y0041300D03*
X0076800Y0041400D03*
X0076800Y0041500D03*
X0076800Y0041600D03*
X0076800Y0041700D03*
X0076800Y0041800D03*
X0076800Y0041900D03*
X0076800Y0042000D03*
X0076800Y0042100D03*
X0076800Y0042200D03*
X0076800Y0042300D03*
X0076800Y0042400D03*
X0076800Y0042500D03*
X0076800Y0042600D03*
X0076800Y0042700D03*
X0076800Y0042800D03*
X0076800Y0042900D03*
X0076800Y0043000D03*
X0076800Y0043100D03*
X0076800Y0043200D03*
X0076800Y0043300D03*
X0076800Y0043400D03*
X0076800Y0043500D03*
X0076800Y0043600D03*
X0076800Y0043700D03*
X0076800Y0043800D03*
X0076800Y0043900D03*
X0076800Y0044000D03*
X0076800Y0044100D03*
X0076800Y0044200D03*
X0076800Y0044300D03*
X0076800Y0044400D03*
X0076800Y0044500D03*
X0076800Y0044600D03*
X0076800Y0044700D03*
X0076800Y0044800D03*
X0076800Y0044900D03*
X0076800Y0045000D03*
X0076800Y0045100D03*
X0076800Y0045200D03*
X0076800Y0045300D03*
X0076800Y0045400D03*
X0076800Y0045500D03*
X0076800Y0045600D03*
X0076800Y0045700D03*
X0077000Y0044800D03*
X0077000Y0044700D03*
X0077000Y0044600D03*
X0077000Y0044500D03*
X0069800Y0037400D03*
X0069800Y0035500D03*
X0069800Y0035400D03*
X0069800Y0035300D03*
X0069800Y0035200D03*
X0069800Y0035100D03*
X0069800Y0035000D03*
X0069800Y0034900D03*
X0069800Y0034800D03*
X0069800Y0034700D03*
X0069800Y0034600D03*
X0069800Y0034500D03*
X0069800Y0034400D03*
X0069800Y0034300D03*
X0069800Y0034200D03*
X0069800Y0034100D03*
X0069800Y0034000D03*
X0069800Y0033900D03*
X0069800Y0033800D03*
X0069800Y0033700D03*
X0069800Y0033600D03*
X0069800Y0033500D03*
X0069800Y0033400D03*
X0069800Y0033300D03*
X0069800Y0033200D03*
X0079700Y0032800D03*
X0092600Y0039600D03*
X0092600Y0039700D03*
X0092600Y0039800D03*
X0092600Y0039900D03*
X0092600Y0040000D03*
X0092600Y0040100D03*
X0092600Y0040200D03*
X0092600Y0040300D03*
X0092600Y0040400D03*
X0092600Y0040500D03*
X0092600Y0040600D03*
X0092600Y0040700D03*
X0099800Y0039700D03*
X0099800Y0039600D03*
X0099800Y0039500D03*
X0099800Y0039400D03*
X0099800Y0039300D03*
X0099800Y0039200D03*
X0099800Y0039100D03*
X0099800Y0039000D03*
X0099800Y0038900D03*
X0099800Y0038800D03*
X0099800Y0038700D03*
X0099800Y0038600D03*
X0099800Y0038500D03*
X0099800Y0038400D03*
X0099800Y0038300D03*
X0099800Y0038200D03*
X0099800Y0038100D03*
X0099800Y0038000D03*
X0099800Y0037900D03*
X0099800Y0037800D03*
X0099800Y0037700D03*
X0099800Y0037600D03*
X0099800Y0037500D03*
X0099800Y0037400D03*
X0102000Y0037400D03*
X0102000Y0037500D03*
X0102000Y0037600D03*
X0102000Y0037700D03*
X0102000Y0037800D03*
X0102000Y0037900D03*
X0102000Y0038000D03*
X0102000Y0038100D03*
X0102000Y0038200D03*
X0102000Y0038300D03*
X0102000Y0038400D03*
X0102000Y0038500D03*
X0106900Y0038500D03*
X0106900Y0038600D03*
X0106900Y0038700D03*
X0106900Y0038800D03*
X0106900Y0038900D03*
X0106900Y0039000D03*
X0106900Y0039100D03*
X0106900Y0039200D03*
X0106900Y0039300D03*
X0106900Y0039400D03*
X0106900Y0039500D03*
X0106900Y0039600D03*
X0106900Y0039700D03*
X0106900Y0039800D03*
X0106900Y0039900D03*
X0106900Y0040000D03*
X0106900Y0040100D03*
X0106900Y0040200D03*
X0106900Y0040300D03*
X0106900Y0040400D03*
X0106900Y0040500D03*
X0106900Y0040600D03*
X0106900Y0040700D03*
X0106900Y0040800D03*
X0106900Y0040900D03*
X0106900Y0041000D03*
X0106900Y0041100D03*
X0106900Y0041200D03*
X0106900Y0041300D03*
X0106900Y0041400D03*
X0106900Y0041500D03*
X0106900Y0041600D03*
X0106900Y0041700D03*
X0106900Y0041800D03*
X0106900Y0041900D03*
X0106900Y0042000D03*
X0106900Y0042100D03*
X0106900Y0042200D03*
X0106900Y0042300D03*
X0106900Y0042400D03*
X0106900Y0042500D03*
X0106900Y0042600D03*
X0106900Y0042700D03*
X0106900Y0042800D03*
X0106900Y0042900D03*
X0106900Y0043000D03*
X0106900Y0043100D03*
X0106900Y0043200D03*
X0106900Y0043300D03*
X0106900Y0043400D03*
X0106900Y0043500D03*
X0106900Y0043600D03*
X0106900Y0043700D03*
X0106900Y0043800D03*
X0106900Y0043900D03*
X0106900Y0044000D03*
X0106900Y0044100D03*
X0106900Y0044200D03*
X0106900Y0044300D03*
X0106900Y0044400D03*
X0106900Y0044500D03*
X0106900Y0044600D03*
X0106900Y0044700D03*
X0106900Y0044800D03*
X0106900Y0044900D03*
X0106900Y0045000D03*
X0106900Y0045100D03*
X0106900Y0045200D03*
X0106900Y0045300D03*
X0106900Y0045400D03*
X0106900Y0045500D03*
X0106900Y0045600D03*
X0106900Y0045700D03*
X0107100Y0044700D03*
X0107100Y0044600D03*
X0107100Y0044500D03*
X0106900Y0038400D03*
X0106900Y0038300D03*
X0106900Y0038200D03*
X0106900Y0038100D03*
X0106900Y0038000D03*
X0106900Y0037900D03*
X0106900Y0037800D03*
X0106900Y0037700D03*
X0106900Y0037600D03*
X0106900Y0037500D03*
X0106900Y0037400D03*
X0106900Y0037300D03*
X0106900Y0037200D03*
X0106900Y0037100D03*
X0106900Y0037000D03*
X0106900Y0036900D03*
X0106900Y0036800D03*
X0106900Y0036700D03*
X0106900Y0036600D03*
X0106900Y0036500D03*
X0106900Y0036400D03*
X0106900Y0036300D03*
X0106900Y0036200D03*
X0106900Y0036100D03*
X0106900Y0036000D03*
X0106900Y0035900D03*
X0106900Y0035800D03*
X0106900Y0035700D03*
X0106900Y0035600D03*
X0106900Y0035500D03*
X0106900Y0035400D03*
X0106900Y0035300D03*
X0106900Y0035200D03*
X0106900Y0035100D03*
X0106900Y0035000D03*
X0106900Y0034900D03*
X0106900Y0034800D03*
X0106900Y0034700D03*
X0106900Y0034600D03*
X0106900Y0034500D03*
X0106900Y0034400D03*
X0106900Y0034300D03*
X0106900Y0034200D03*
X0106900Y0034100D03*
X0106900Y0034000D03*
X0106900Y0033900D03*
X0106900Y0033800D03*
X0106900Y0033700D03*
X0106900Y0033600D03*
X0106900Y0033500D03*
X0106900Y0033400D03*
X0106900Y0033300D03*
X0106900Y0033200D03*
X0106900Y0033100D03*
X0106900Y0033000D03*
X0106900Y0032900D03*
X0106900Y0032800D03*
X0106900Y0032700D03*
X0106900Y0032600D03*
X0106900Y0032500D03*
X0106900Y0032400D03*
X0106900Y0032300D03*
X0106900Y0032200D03*
X0106900Y0032100D03*
X0106900Y0032000D03*
X0106900Y0031900D03*
X0106900Y0031800D03*
X0106900Y0031700D03*
X0106900Y0031600D03*
X0106900Y0031500D03*
X0106900Y0031400D03*
X0106900Y0031300D03*
X0106900Y0031200D03*
X0106900Y0031100D03*
X0106900Y0031000D03*
X0106900Y0030900D03*
X0106900Y0030800D03*
X0106900Y0030700D03*
X0106900Y0030600D03*
X0106900Y0030500D03*
X0106900Y0030400D03*
X0106900Y0030300D03*
X0106900Y0030200D03*
X0106900Y0030100D03*
X0106900Y0030000D03*
X0106900Y0029900D03*
X0106900Y0029800D03*
X0106900Y0029700D03*
X0106900Y0029600D03*
X0106900Y0029500D03*
X0106900Y0029400D03*
X0106900Y0029300D03*
X0106900Y0029200D03*
X0106900Y0029100D03*
X0106900Y0029000D03*
X0106900Y0028900D03*
X0106900Y0028800D03*
X0106900Y0028700D03*
X0106900Y0028600D03*
X0106900Y0028500D03*
X0106900Y0028400D03*
X0106900Y0028300D03*
X0106900Y0028200D03*
X0106900Y0028100D03*
X0106900Y0028000D03*
X0106900Y0027900D03*
X0106900Y0027800D03*
X0106900Y0027700D03*
X0106900Y0027600D03*
X0106900Y0027500D03*
X0106900Y0027400D03*
X0106900Y0027300D03*
X0106900Y0027200D03*
X0106900Y0027100D03*
X0106900Y0027000D03*
X0106900Y0026900D03*
X0106900Y0026800D03*
X0106900Y0026700D03*
X0106900Y0026600D03*
X0106900Y0026500D03*
X0106900Y0026400D03*
X0106900Y0026300D03*
X0106900Y0026200D03*
X0106900Y0026100D03*
X0106900Y0026000D03*
X0106900Y0025900D03*
X0106900Y0025800D03*
X0106900Y0025700D03*
X0106900Y0025600D03*
X0106900Y0025500D03*
X0106900Y0025400D03*
X0106900Y0025300D03*
X0106900Y0025200D03*
X0106900Y0025100D03*
X0106900Y0025000D03*
X0106900Y0024900D03*
X0106900Y0024800D03*
X0106900Y0024700D03*
X0106900Y0024600D03*
X0106900Y0024500D03*
X0106900Y0024400D03*
X0106900Y0024300D03*
X0106900Y0024200D03*
X0106900Y0024100D03*
X0106900Y0024000D03*
X0106900Y0023900D03*
X0106900Y0023800D03*
X0106900Y0023700D03*
X0106900Y0023600D03*
X0106900Y0023500D03*
X0106900Y0023400D03*
X0106900Y0023300D03*
X0106900Y0023200D03*
X0106900Y0023100D03*
X0106900Y0023000D03*
X0106900Y0022900D03*
X0106900Y0022800D03*
X0106900Y0022700D03*
X0106900Y0022600D03*
X0106900Y0022500D03*
X0106900Y0022400D03*
X0106900Y0022300D03*
X0106900Y0022200D03*
X0106900Y0022100D03*
X0106900Y0022000D03*
X0106900Y0021900D03*
X0106900Y0021800D03*
X0106900Y0021700D03*
X0106900Y0021600D03*
X0106900Y0021500D03*
X0106900Y0021400D03*
X0106900Y0021300D03*
X0106900Y0021200D03*
X0106900Y0021100D03*
X0116800Y0021100D03*
X0116800Y0021200D03*
X0116800Y0021300D03*
X0116800Y0021400D03*
X0116800Y0021500D03*
X0116800Y0021600D03*
X0116800Y0021700D03*
X0116800Y0021800D03*
X0116800Y0021900D03*
X0116800Y0022000D03*
X0116800Y0022100D03*
X0116800Y0022200D03*
X0116800Y0022300D03*
X0116800Y0022400D03*
X0116800Y0022500D03*
X0116800Y0022600D03*
X0116800Y0022700D03*
X0116800Y0022800D03*
X0116800Y0022900D03*
X0116800Y0023000D03*
X0116800Y0023100D03*
X0116800Y0023200D03*
X0116800Y0023300D03*
X0116800Y0023400D03*
X0116800Y0023500D03*
X0116800Y0023600D03*
X0116800Y0023700D03*
X0116800Y0023800D03*
X0116800Y0023900D03*
X0116800Y0024000D03*
X0116800Y0024100D03*
X0116800Y0024200D03*
X0116800Y0024300D03*
X0116800Y0024400D03*
X0116800Y0024500D03*
X0116800Y0024600D03*
X0116800Y0024700D03*
X0116800Y0024800D03*
X0116800Y0024900D03*
X0116800Y0025000D03*
X0116800Y0025100D03*
X0116800Y0025200D03*
X0116800Y0025300D03*
X0116800Y0025400D03*
X0116800Y0025500D03*
X0116800Y0025600D03*
X0116800Y0025700D03*
X0116800Y0025800D03*
X0116800Y0025900D03*
X0116800Y0026000D03*
X0116800Y0026100D03*
X0116800Y0026200D03*
X0116800Y0026300D03*
X0116800Y0026400D03*
X0116800Y0026500D03*
X0116800Y0026600D03*
X0116800Y0026700D03*
X0116800Y0026800D03*
X0116800Y0026900D03*
X0116800Y0027000D03*
X0116800Y0027100D03*
X0116800Y0027200D03*
X0116800Y0027300D03*
X0116800Y0027400D03*
X0116800Y0027500D03*
X0116800Y0027600D03*
X0116800Y0027700D03*
X0116800Y0027800D03*
X0116800Y0027900D03*
X0116800Y0028000D03*
X0116800Y0028100D03*
X0116800Y0028200D03*
X0116800Y0028300D03*
X0116800Y0028400D03*
X0116800Y0028500D03*
X0116800Y0028600D03*
X0116800Y0028700D03*
X0116800Y0028800D03*
X0116800Y0028900D03*
X0116800Y0029000D03*
X0116800Y0029100D03*
X0116800Y0029200D03*
X0116800Y0029300D03*
X0116800Y0029400D03*
X0116800Y0029500D03*
X0116800Y0029600D03*
X0116800Y0029700D03*
X0116800Y0029800D03*
X0116800Y0029900D03*
X0116800Y0030000D03*
X0116800Y0030100D03*
X0116800Y0030200D03*
X0116800Y0030300D03*
X0116800Y0030400D03*
X0116800Y0030500D03*
X0116800Y0030600D03*
X0116800Y0030700D03*
X0116800Y0030800D03*
X0116800Y0030900D03*
X0116800Y0031000D03*
X0116800Y0031100D03*
X0116800Y0031200D03*
X0116800Y0031300D03*
X0116800Y0031400D03*
X0116800Y0031500D03*
X0116800Y0031600D03*
X0116800Y0031700D03*
X0116800Y0031800D03*
X0116800Y0031900D03*
X0116800Y0032000D03*
X0116800Y0032100D03*
X0116800Y0032200D03*
X0116800Y0032300D03*
X0116800Y0032400D03*
X0116800Y0032500D03*
X0116800Y0032600D03*
X0116800Y0032700D03*
X0116800Y0032800D03*
X0116800Y0032900D03*
X0116800Y0033000D03*
X0116800Y0033100D03*
X0116800Y0033200D03*
X0116800Y0033300D03*
X0116800Y0033400D03*
X0116800Y0033500D03*
X0116800Y0033600D03*
X0116800Y0033700D03*
X0116800Y0033800D03*
X0116800Y0033900D03*
X0116800Y0034000D03*
X0116800Y0034100D03*
X0116800Y0034200D03*
X0116800Y0034300D03*
X0116800Y0034400D03*
X0116800Y0034500D03*
X0116800Y0034600D03*
X0116800Y0034700D03*
X0116800Y0034800D03*
X0116800Y0034900D03*
X0116800Y0035000D03*
X0116800Y0035100D03*
X0116800Y0035200D03*
X0116800Y0035300D03*
X0116800Y0035400D03*
X0116800Y0035500D03*
X0116800Y0035600D03*
X0116800Y0035700D03*
X0116800Y0035800D03*
X0116800Y0035900D03*
X0116800Y0036000D03*
X0116800Y0036100D03*
X0116800Y0036200D03*
X0116800Y0036300D03*
X0116800Y0036400D03*
X0116800Y0036500D03*
X0116800Y0036600D03*
X0116800Y0036700D03*
X0116800Y0036800D03*
X0116800Y0036900D03*
X0116800Y0037000D03*
X0116800Y0037100D03*
X0116800Y0037200D03*
X0116800Y0037300D03*
X0116800Y0037400D03*
X0116800Y0037500D03*
X0116800Y0037600D03*
X0116800Y0037700D03*
X0116800Y0037800D03*
X0116800Y0037900D03*
X0116800Y0038000D03*
X0116800Y0038100D03*
X0116800Y0038200D03*
X0116800Y0038300D03*
X0116800Y0038400D03*
X0116800Y0038500D03*
X0116800Y0038600D03*
X0116800Y0038700D03*
X0116800Y0038800D03*
X0116800Y0038900D03*
X0116800Y0039000D03*
X0116800Y0039100D03*
X0116800Y0039200D03*
X0116800Y0039300D03*
X0116800Y0039400D03*
X0116800Y0039500D03*
X0116800Y0039600D03*
X0116800Y0039700D03*
X0116800Y0039800D03*
X0116800Y0039900D03*
X0116800Y0040000D03*
X0116800Y0040100D03*
X0116800Y0040200D03*
X0116800Y0040300D03*
X0116800Y0040400D03*
X0116800Y0040500D03*
X0116800Y0040600D03*
X0116800Y0040700D03*
X0116800Y0040800D03*
X0116800Y0040900D03*
X0116800Y0041000D03*
X0116800Y0041100D03*
X0116800Y0041200D03*
X0116800Y0041300D03*
X0116800Y0041400D03*
X0116800Y0041500D03*
X0116800Y0041600D03*
X0116800Y0041700D03*
X0116800Y0041800D03*
X0116800Y0041900D03*
X0116800Y0042000D03*
X0116800Y0042100D03*
X0116800Y0042200D03*
X0116800Y0042300D03*
X0116800Y0042400D03*
X0116800Y0042500D03*
X0116800Y0042600D03*
X0116800Y0042700D03*
X0116800Y0042800D03*
X0116800Y0042900D03*
X0116800Y0043000D03*
X0116800Y0043100D03*
X0116800Y0043200D03*
X0116800Y0043300D03*
X0116800Y0043400D03*
X0116800Y0043500D03*
X0116800Y0043600D03*
X0116800Y0043700D03*
X0116800Y0043800D03*
X0116800Y0043900D03*
X0116800Y0044000D03*
X0116800Y0044100D03*
X0116800Y0044200D03*
X0116800Y0044300D03*
X0116800Y0044400D03*
X0116800Y0044500D03*
X0116800Y0044600D03*
X0116800Y0044700D03*
X0116800Y0044800D03*
X0116800Y0044900D03*
X0116800Y0045000D03*
X0116800Y0045100D03*
X0116800Y0045200D03*
X0116800Y0045300D03*
X0116800Y0045400D03*
X0116800Y0045500D03*
X0116800Y0045600D03*
X0116800Y0045700D03*
X0117000Y0044800D03*
X0117000Y0044700D03*
X0117000Y0044600D03*
X0117000Y0044500D03*
X0109800Y0038400D03*
X0109800Y0038300D03*
X0109800Y0038200D03*
X0109800Y0038100D03*
X0109800Y0038000D03*
X0109800Y0037900D03*
X0109800Y0037800D03*
X0109800Y0037700D03*
X0109800Y0037600D03*
X0109800Y0037500D03*
X0109800Y0037400D03*
X0109800Y0037300D03*
X0109800Y0037200D03*
X0109800Y0037100D03*
X0109800Y0037000D03*
X0109800Y0036900D03*
X0109800Y0036800D03*
X0109800Y0036700D03*
X0109800Y0036600D03*
X0109800Y0036500D03*
X0109800Y0036400D03*
X0109800Y0036300D03*
X0109800Y0036200D03*
X0109800Y0036100D03*
X0109800Y0033700D03*
X0109800Y0033600D03*
X0109800Y0033500D03*
X0109800Y0033400D03*
X0109800Y0033300D03*
X0109800Y0033200D03*
X0126700Y0033200D03*
X0126700Y0033300D03*
X0126700Y0033400D03*
X0126700Y0033500D03*
X0126700Y0033600D03*
X0126700Y0033700D03*
X0126700Y0033800D03*
X0126700Y0033900D03*
X0126700Y0034000D03*
X0126700Y0034100D03*
X0126700Y0034200D03*
X0126700Y0034300D03*
X0126700Y0034400D03*
X0126700Y0034500D03*
X0126700Y0034600D03*
X0126700Y0034700D03*
X0126700Y0034800D03*
X0126700Y0034900D03*
X0126700Y0035000D03*
X0126700Y0035100D03*
X0126700Y0035200D03*
X0126700Y0035300D03*
X0126700Y0035400D03*
X0126700Y0035500D03*
X0126700Y0035600D03*
X0126700Y0035700D03*
X0126700Y0035800D03*
X0126700Y0035900D03*
X0126700Y0036000D03*
X0126700Y0036100D03*
X0126700Y0036200D03*
X0126700Y0036300D03*
X0126700Y0036400D03*
X0126700Y0036500D03*
X0126700Y0036600D03*
X0126700Y0036700D03*
X0126700Y0036800D03*
X0126700Y0036900D03*
X0126700Y0037000D03*
X0126700Y0037100D03*
X0126700Y0037200D03*
X0126700Y0037300D03*
X0126700Y0037400D03*
X0126700Y0037500D03*
X0126700Y0037600D03*
X0126700Y0037700D03*
X0126700Y0037800D03*
X0126700Y0037900D03*
X0126700Y0038000D03*
X0126700Y0038100D03*
X0126700Y0038200D03*
X0126700Y0038300D03*
X0126700Y0038400D03*
X0126700Y0038500D03*
X0126700Y0038600D03*
X0126700Y0038700D03*
X0126700Y0038800D03*
X0126700Y0038900D03*
X0126700Y0039000D03*
X0126700Y0039100D03*
X0126700Y0039200D03*
X0126700Y0039300D03*
X0126700Y0039400D03*
X0126700Y0039500D03*
X0126700Y0039600D03*
X0126700Y0039700D03*
X0126700Y0039800D03*
X0126700Y0039900D03*
X0126700Y0040000D03*
X0126700Y0040100D03*
X0126700Y0040200D03*
X0126700Y0040300D03*
X0126700Y0040400D03*
X0126700Y0040500D03*
X0126700Y0040600D03*
X0126700Y0040700D03*
X0126700Y0040800D03*
X0126700Y0040900D03*
X0126700Y0041000D03*
X0126700Y0041100D03*
X0126700Y0041200D03*
X0126700Y0041300D03*
X0126700Y0041400D03*
X0126700Y0041500D03*
X0126700Y0041600D03*
X0126700Y0041700D03*
X0126700Y0041800D03*
X0126700Y0041900D03*
X0126700Y0042000D03*
X0126700Y0042100D03*
X0126700Y0042200D03*
X0126700Y0042300D03*
X0126700Y0042400D03*
X0126700Y0042500D03*
X0126700Y0042600D03*
X0126700Y0042700D03*
X0126700Y0042800D03*
X0126700Y0042900D03*
X0126700Y0043000D03*
X0126700Y0043100D03*
X0126700Y0043200D03*
X0126700Y0043300D03*
X0126700Y0043400D03*
X0126700Y0043500D03*
X0126700Y0043600D03*
X0126700Y0043700D03*
X0126700Y0043800D03*
X0126700Y0043900D03*
X0126700Y0044000D03*
X0126700Y0044100D03*
X0126700Y0044200D03*
X0126700Y0044300D03*
X0126700Y0044400D03*
X0126700Y0044500D03*
X0126700Y0044600D03*
X0126700Y0044700D03*
X0126700Y0044800D03*
X0126700Y0044900D03*
X0126700Y0045000D03*
X0126700Y0045100D03*
X0126700Y0045200D03*
X0126700Y0045300D03*
X0126700Y0045400D03*
X0126700Y0045500D03*
X0126700Y0045600D03*
X0126700Y0045700D03*
X0126900Y0044700D03*
X0126900Y0044600D03*
X0126900Y0044500D03*
X0126700Y0033100D03*
X0126700Y0033000D03*
X0126700Y0032900D03*
X0126700Y0032800D03*
X0126700Y0032700D03*
X0126700Y0032600D03*
X0126700Y0032500D03*
X0126700Y0032400D03*
X0126700Y0032300D03*
X0126700Y0032200D03*
X0126700Y0032100D03*
X0126700Y0032000D03*
X0126700Y0031900D03*
X0126700Y0031800D03*
X0126700Y0031700D03*
X0126700Y0031600D03*
X0126700Y0031500D03*
X0126700Y0031400D03*
X0126700Y0031300D03*
X0126700Y0031200D03*
X0126700Y0031100D03*
X0126700Y0031000D03*
X0126700Y0030900D03*
X0126700Y0030800D03*
X0126700Y0030700D03*
X0126700Y0030600D03*
X0126700Y0030500D03*
X0126700Y0030400D03*
X0126700Y0030300D03*
X0126700Y0030200D03*
X0126700Y0030100D03*
X0126700Y0030000D03*
X0126700Y0029900D03*
X0126700Y0029800D03*
X0126700Y0029700D03*
X0126700Y0029600D03*
X0126700Y0029500D03*
X0126700Y0029400D03*
X0126700Y0029300D03*
X0126700Y0029200D03*
X0126700Y0029100D03*
X0126700Y0029000D03*
X0126700Y0028900D03*
X0126700Y0028800D03*
X0126700Y0028700D03*
X0126700Y0028600D03*
X0126700Y0028500D03*
X0126700Y0028400D03*
X0126700Y0028300D03*
X0126700Y0028200D03*
X0126700Y0028100D03*
X0126700Y0028000D03*
X0126700Y0027900D03*
X0126700Y0027800D03*
X0126700Y0027700D03*
X0126700Y0027600D03*
X0126700Y0027500D03*
X0126700Y0027400D03*
X0126700Y0027300D03*
X0126700Y0027200D03*
X0126700Y0027100D03*
X0126700Y0027000D03*
X0126700Y0026900D03*
X0126700Y0026800D03*
X0126700Y0026700D03*
X0126700Y0026600D03*
X0126700Y0026500D03*
X0126700Y0026400D03*
X0126700Y0026300D03*
X0126700Y0026200D03*
X0126700Y0026100D03*
X0126700Y0026000D03*
X0126700Y0025900D03*
X0126700Y0025800D03*
X0126700Y0025700D03*
X0126700Y0025600D03*
X0126700Y0025500D03*
X0126700Y0025400D03*
X0126700Y0025300D03*
X0126700Y0025200D03*
X0126700Y0025100D03*
X0126700Y0025000D03*
X0126700Y0024900D03*
X0126700Y0024800D03*
X0126700Y0024700D03*
X0126700Y0024600D03*
X0126700Y0024500D03*
X0126700Y0024400D03*
X0126700Y0024300D03*
X0126700Y0024200D03*
X0126700Y0024100D03*
X0126700Y0024000D03*
X0126700Y0023900D03*
X0126700Y0023800D03*
X0126700Y0023700D03*
X0126700Y0023600D03*
X0126700Y0023500D03*
X0126700Y0023400D03*
X0126700Y0023300D03*
X0126700Y0023200D03*
X0126700Y0023100D03*
X0126700Y0023000D03*
X0126700Y0022900D03*
X0126700Y0022800D03*
X0126700Y0022700D03*
X0126700Y0022600D03*
X0126700Y0022500D03*
X0126700Y0022400D03*
X0126700Y0022300D03*
X0126700Y0022200D03*
X0126700Y0022100D03*
X0126700Y0022000D03*
X0126700Y0021900D03*
X0126700Y0021800D03*
X0126700Y0021700D03*
X0126700Y0021600D03*
X0126700Y0021500D03*
X0126700Y0021400D03*
X0126700Y0021300D03*
X0126700Y0021200D03*
X0126700Y0021100D03*
X0142600Y0034500D03*
X0142600Y0034600D03*
X0142600Y0034700D03*
X0142600Y0034800D03*
X0142600Y0034900D03*
X0142600Y0035000D03*
X0142600Y0035100D03*
X0142600Y0035200D03*
X0142600Y0035300D03*
X0142600Y0035400D03*
X0142600Y0035500D03*
X0142600Y0035600D03*
X0149800Y0035600D03*
X0149800Y0035500D03*
X0149800Y0035400D03*
X0149800Y0035300D03*
X0149800Y0035200D03*
X0149800Y0035100D03*
X0149800Y0035000D03*
X0149800Y0034900D03*
X0149800Y0034800D03*
X0149800Y0034700D03*
X0149800Y0034600D03*
X0149800Y0034500D03*
X0152600Y0034500D03*
X0152600Y0034600D03*
X0152600Y0034700D03*
X0152600Y0034800D03*
X0152600Y0034900D03*
X0152600Y0035000D03*
X0152600Y0035100D03*
X0152600Y0035200D03*
X0152600Y0035300D03*
X0152600Y0035400D03*
X0152600Y0035500D03*
X0152600Y0035600D03*
X0149800Y0039200D03*
X0149800Y0039300D03*
X0149800Y0039400D03*
X0149800Y0039500D03*
X0149800Y0039600D03*
X0149800Y0039700D03*
X0149800Y0039800D03*
X0149800Y0039900D03*
X0149800Y0040000D03*
X0149800Y0040100D03*
X0149800Y0040200D03*
X0149800Y0040300D03*
X0149800Y0040400D03*
X0149800Y0040500D03*
X0149800Y0040600D03*
X0149800Y0040700D03*
X0149800Y0040800D03*
X0149800Y0040900D03*
X0149800Y0041000D03*
X0149800Y0041100D03*
X0149800Y0041200D03*
X0149800Y0041300D03*
X0149800Y0041400D03*
X0149800Y0041500D03*
X0162500Y0035600D03*
X0162500Y0035500D03*
X0162500Y0035400D03*
X0162500Y0035300D03*
X0162500Y0035200D03*
X0162500Y0035100D03*
X0162500Y0035000D03*
X0162500Y0034900D03*
X0162500Y0034800D03*
X0162500Y0034700D03*
X0162500Y0034600D03*
X0162500Y0034500D03*
X0164800Y0036800D03*
X0182600Y0039100D03*
X0182600Y0039200D03*
X0182600Y0039300D03*
X0182600Y0039400D03*
X0182600Y0039500D03*
X0182600Y0039600D03*
X0182600Y0039700D03*
X0182600Y0039800D03*
X0182600Y0039900D03*
X0182600Y0040000D03*
X0182600Y0040100D03*
X0182600Y0040200D03*
X0189800Y0040200D03*
X0189800Y0040300D03*
X0189800Y0040400D03*
X0189800Y0040500D03*
X0189800Y0040600D03*
X0189800Y0040700D03*
X0189800Y0040800D03*
X0189800Y0040900D03*
X0189800Y0041000D03*
X0189800Y0041100D03*
X0189800Y0041200D03*
X0189800Y0041300D03*
X0189800Y0041400D03*
X0189800Y0040100D03*
X0189800Y0040000D03*
X0189800Y0039900D03*
X0189800Y0039800D03*
X0189800Y0039700D03*
X0189800Y0039600D03*
X0189800Y0039500D03*
X0189800Y0039400D03*
X0189800Y0039300D03*
X0189800Y0039200D03*
X0189800Y0039100D03*
X0192000Y0039100D03*
X0192000Y0039200D03*
X0192000Y0039300D03*
X0192000Y0039400D03*
X0192000Y0039500D03*
X0192000Y0039600D03*
X0192000Y0039700D03*
X0192000Y0039800D03*
X0192000Y0039900D03*
X0192000Y0040000D03*
X0192000Y0040100D03*
X0189800Y0035500D03*
X0189800Y0035400D03*
X0189800Y0035300D03*
X0189800Y0035200D03*
X0189800Y0035100D03*
X0189800Y0035000D03*
X0189800Y0034900D03*
X0189800Y0034800D03*
X0189800Y0034700D03*
X0189800Y0034600D03*
X0189800Y0034500D03*
X0189800Y0034400D03*
X0189800Y0034300D03*
X0189800Y0034200D03*
X0189800Y0034100D03*
X0189800Y0034000D03*
X0189800Y0033900D03*
X0189800Y0033800D03*
X0189800Y0033700D03*
X0189800Y0033600D03*
X0189800Y0033500D03*
X0189800Y0033400D03*
X0189800Y0033300D03*
X0189800Y0033200D03*
X0199600Y0033300D03*
X0199600Y0033400D03*
X0199600Y0033500D03*
X0199600Y0033600D03*
X0199600Y0033700D03*
X0199600Y0033800D03*
X0199600Y0033900D03*
X0199600Y0034000D03*
X0199600Y0034100D03*
X0199600Y0034200D03*
X0199600Y0034300D03*
X0199600Y0034400D03*
X0199600Y0034500D03*
X0199600Y0034600D03*
X0199600Y0034700D03*
X0199600Y0034800D03*
X0199600Y0034900D03*
X0199600Y0035000D03*
X0199600Y0035100D03*
X0199600Y0035200D03*
X0199600Y0035300D03*
X0199600Y0035400D03*
X0199600Y0035500D03*
X0199600Y0035600D03*
D12*
X0206900Y0035600D03*
X0206900Y0035700D03*
X0206900Y0035800D03*
X0206900Y0035900D03*
X0206900Y0036000D03*
X0206900Y0036100D03*
X0206900Y0036200D03*
X0206900Y0036300D03*
X0206900Y0036400D03*
X0206900Y0036500D03*
X0206900Y0036600D03*
X0206900Y0036700D03*
X0206900Y0036800D03*
X0206900Y0036900D03*
X0206900Y0037000D03*
X0206900Y0037100D03*
X0206900Y0037200D03*
X0206900Y0037300D03*
X0206900Y0037400D03*
X0206900Y0037500D03*
X0206900Y0037600D03*
X0206900Y0037700D03*
X0206900Y0037800D03*
X0206900Y0037900D03*
X0206900Y0038000D03*
X0206900Y0038100D03*
X0206900Y0038200D03*
X0206900Y0038300D03*
X0206900Y0038400D03*
X0206900Y0038500D03*
X0206900Y0038600D03*
X0206900Y0038700D03*
X0206900Y0038800D03*
X0206900Y0038900D03*
X0206900Y0039000D03*
X0206900Y0039100D03*
X0206900Y0039200D03*
X0206900Y0039300D03*
X0206900Y0039400D03*
X0206900Y0039500D03*
X0206900Y0039600D03*
X0206900Y0039700D03*
X0206900Y0039800D03*
X0206900Y0039900D03*
X0206900Y0040000D03*
X0206900Y0040100D03*
X0206900Y0040200D03*
X0206900Y0040300D03*
X0206900Y0040400D03*
X0206900Y0040500D03*
X0206900Y0040600D03*
X0206900Y0040700D03*
X0206900Y0040800D03*
X0206900Y0040900D03*
X0206900Y0041000D03*
X0206900Y0041100D03*
X0206900Y0041200D03*
X0206900Y0041300D03*
X0206900Y0041400D03*
X0206900Y0041500D03*
X0206900Y0041600D03*
X0206900Y0041700D03*
X0206900Y0041800D03*
X0206900Y0041900D03*
X0206900Y0042000D03*
X0206900Y0042100D03*
X0206900Y0042200D03*
X0206900Y0042300D03*
X0206900Y0042400D03*
X0206900Y0035500D03*
X0206900Y0035400D03*
X0206900Y0035300D03*
X0206900Y0035200D03*
X0206900Y0035100D03*
X0206900Y0035000D03*
X0206900Y0034900D03*
X0206900Y0034800D03*
X0206900Y0034700D03*
X0206900Y0034600D03*
X0206900Y0034500D03*
X0206900Y0034400D03*
X0206900Y0034300D03*
X0206900Y0034200D03*
X0206900Y0034100D03*
X0206900Y0034000D03*
X0206900Y0033900D03*
X0206900Y0033800D03*
X0206900Y0033700D03*
X0206900Y0033600D03*
X0206900Y0033500D03*
X0206900Y0033400D03*
X0206900Y0033300D03*
X0206900Y0033200D03*
X0206900Y0033100D03*
X0206900Y0033000D03*
X0206900Y0032900D03*
X0206900Y0032800D03*
X0206900Y0032700D03*
X0206900Y0032600D03*
X0206900Y0032500D03*
X0206900Y0032400D03*
X0206900Y0032300D03*
X0206900Y0032200D03*
X0206900Y0032100D03*
X0206900Y0032000D03*
X0206900Y0031900D03*
X0206900Y0031800D03*
X0206900Y0031700D03*
X0206900Y0031600D03*
X0206900Y0031400D03*
X0206900Y0031300D03*
X0206900Y0031200D03*
X0206900Y0031100D03*
X0206900Y0031000D03*
X0206900Y0030900D03*
X0206900Y0030800D03*
X0206900Y0030700D03*
X0206900Y0030600D03*
X0206900Y0030500D03*
X0206900Y0030400D03*
X0206900Y0030300D03*
X0206900Y0030200D03*
X0206900Y0030100D03*
X0206900Y0030000D03*
X0206900Y0029900D03*
X0206900Y0029800D03*
X0206900Y0029700D03*
X0206900Y0029600D03*
X0206900Y0029500D03*
X0206900Y0029400D03*
X0206900Y0029300D03*
X0206900Y0029200D03*
X0206900Y0029100D03*
X0206900Y0029000D03*
X0206900Y0028900D03*
X0206900Y0028800D03*
X0206900Y0028700D03*
X0206900Y0028600D03*
X0206900Y0028500D03*
X0206900Y0028400D03*
X0206900Y0028300D03*
X0206900Y0028200D03*
X0206900Y0028100D03*
X0206900Y0028000D03*
X0206900Y0027900D03*
X0206900Y0027800D03*
X0206900Y0027700D03*
X0206900Y0027600D03*
X0206900Y0027500D03*
X0206900Y0027400D03*
X0206900Y0027300D03*
X0206900Y0027200D03*
X0206900Y0027100D03*
X0206900Y0027000D03*
X0206900Y0026900D03*
X0206900Y0026800D03*
X0206900Y0026700D03*
X0206900Y0026600D03*
X0206900Y0026500D03*
X0206900Y0026400D03*
X0206900Y0026300D03*
X0206900Y0026200D03*
X0206900Y0026100D03*
X0206900Y0026000D03*
X0206900Y0025900D03*
X0206900Y0025800D03*
X0206900Y0025700D03*
X0206900Y0025600D03*
X0206900Y0025500D03*
X0206900Y0025400D03*
X0206900Y0025300D03*
X0206900Y0025200D03*
X0206900Y0025100D03*
X0206900Y0025000D03*
X0206900Y0024900D03*
X0206900Y0024800D03*
X0206900Y0024700D03*
X0206900Y0024600D03*
X0206900Y0024500D03*
X0206900Y0024400D03*
X0206900Y0024300D03*
X0206900Y0024200D03*
X0206900Y0024100D03*
X0206900Y0024000D03*
X0206900Y0023900D03*
X0206900Y0023800D03*
X0206900Y0023700D03*
X0206900Y0023600D03*
X0206900Y0023500D03*
X0206900Y0023400D03*
X0206900Y0023300D03*
X0206900Y0023200D03*
X0206900Y0023100D03*
X0206900Y0023000D03*
X0206900Y0022900D03*
X0206900Y0022800D03*
X0206900Y0022700D03*
X0206900Y0022600D03*
X0206900Y0022500D03*
X0206900Y0022400D03*
X0206900Y0022300D03*
X0206900Y0022200D03*
X0206900Y0022100D03*
X0206900Y0022000D03*
X0206900Y0021900D03*
X0206900Y0021800D03*
X0206900Y0021700D03*
X0206900Y0021600D03*
X0206900Y0021500D03*
X0206900Y0021400D03*
X0206900Y0021300D03*
X0206900Y0021200D03*
X0206900Y0021100D03*
X0079600Y0037000D03*
X0108700Y0135500D03*
X0109400Y0138300D03*
X0109500Y0138600D03*
X0109500Y0138700D03*
X0109500Y0138800D03*
X0109600Y0139100D03*
X0109600Y0139200D03*
X0109700Y0139600D03*
X0198900Y0199000D03*
X0199700Y0202000D03*
X0199700Y0202100D03*
X0199700Y0202200D03*
X0199800Y0202500D03*
X0199800Y0202600D03*
X0199900Y0203000D03*
D13*
X0079300Y0032600D03*
D14*
X0079500Y0032700D03*
D15*
X0079950Y0032900D03*
X0063450Y0038000D03*
X0059750Y0041500D03*
X0140550Y0033200D03*
X0150550Y0033200D03*
X0164150Y0038000D03*
X0127850Y0136500D03*
X0127850Y0136600D03*
X0125550Y0140800D03*
X0125550Y0140900D03*
X0108750Y0137100D03*
X0108750Y0137000D03*
X0108750Y0136900D03*
X0108750Y0136800D03*
X0109950Y0200000D03*
X0109950Y0200100D03*
X0107650Y0204300D03*
X0107650Y0204400D03*
X0172950Y0202400D03*
X0173050Y0202000D03*
X0174450Y0199200D03*
X0198950Y0200400D03*
X0198950Y0200500D03*
D16*
X0198950Y0201400D03*
X0197350Y0205200D03*
X0200850Y0205200D03*
X0172950Y0202800D03*
X0173050Y0201600D03*
X0109750Y0200900D03*
X0109750Y0200800D03*
X0107850Y0203400D03*
X0107850Y0203500D03*
X0110650Y0141700D03*
X0108750Y0137900D03*
X0108750Y0137800D03*
X0125750Y0140000D03*
X0125750Y0140100D03*
X0127650Y0137500D03*
X0127650Y0137400D03*
X0127650Y0137300D03*
X0059550Y0041100D03*
X0059550Y0041000D03*
X0059550Y0040900D03*
X0059550Y0040800D03*
X0059550Y0040700D03*
X0059550Y0040600D03*
X0059550Y0040500D03*
X0063650Y0038400D03*
X0063650Y0038300D03*
X0070250Y0037600D03*
X0080150Y0036700D03*
X0084450Y0034900D03*
X0080150Y0033000D03*
X0090350Y0038700D03*
X0104350Y0036500D03*
X0104350Y0036400D03*
X0120250Y0036500D03*
X0120250Y0036600D03*
X0140350Y0033500D03*
X0150350Y0033500D03*
X0150350Y0033600D03*
X0160250Y0033600D03*
X0164350Y0038400D03*
X0164350Y0038500D03*
X0180350Y0038100D03*
X0194350Y0038100D03*
X0194350Y0038200D03*
D17*
X0127400Y0138400D03*
X0126000Y0139000D03*
X0107300Y0140100D03*
X0173000Y0201100D03*
X0173000Y0201200D03*
X0173000Y0203200D03*
X0173000Y0203300D03*
X0188800Y0205200D03*
X0197500Y0203700D03*
X0197500Y0203600D03*
X0200700Y0203500D03*
X0109500Y0201900D03*
X0108100Y0202500D03*
X0060200Y0036800D03*
X0080400Y0033100D03*
D18*
X0049150Y0034500D03*
X0049150Y0034600D03*
X0049150Y0034700D03*
X0049150Y0034800D03*
X0049150Y0034900D03*
X0049150Y0035000D03*
X0049150Y0035100D03*
X0049150Y0035200D03*
X0049150Y0035300D03*
X0049150Y0035400D03*
X0049150Y0035500D03*
X0049150Y0035600D03*
X0049150Y0035700D03*
X0049150Y0035800D03*
X0049150Y0035900D03*
X0049150Y0036000D03*
X0049150Y0036100D03*
X0049150Y0036200D03*
X0049150Y0036300D03*
X0049150Y0036400D03*
X0049150Y0036500D03*
X0049150Y0036600D03*
X0049150Y0036700D03*
X0049150Y0036800D03*
X0051650Y0035600D03*
X0051650Y0035500D03*
X0051650Y0035400D03*
X0051650Y0035300D03*
X0051650Y0035200D03*
X0054250Y0035200D03*
X0054250Y0035300D03*
X0054250Y0035400D03*
X0054250Y0035500D03*
X0054250Y0035600D03*
X0054250Y0035100D03*
X0054250Y0035000D03*
X0054250Y0034900D03*
X0054250Y0034800D03*
X0054250Y0034700D03*
X0054250Y0034600D03*
X0059050Y0034600D03*
X0059050Y0034700D03*
X0059050Y0034800D03*
X0059050Y0034900D03*
X0059050Y0035000D03*
X0059050Y0035100D03*
X0059050Y0035200D03*
X0059050Y0035300D03*
X0059050Y0035400D03*
X0059050Y0035500D03*
X0059050Y0035600D03*
X0059050Y0034500D03*
X0061550Y0034600D03*
X0061550Y0034700D03*
X0061550Y0034800D03*
X0061550Y0034900D03*
X0061550Y0035000D03*
X0061550Y0035100D03*
X0061550Y0035200D03*
X0061550Y0035300D03*
X0061550Y0035400D03*
X0061550Y0035500D03*
X0061550Y0035600D03*
X0061550Y0039200D03*
X0064150Y0039200D03*
X0064150Y0040400D03*
X0059150Y0042400D03*
X0059150Y0042500D03*
X0059150Y0042600D03*
X0059150Y0042700D03*
X0059150Y0042800D03*
X0059150Y0042900D03*
X0059150Y0043000D03*
X0059150Y0043100D03*
X0059150Y0043200D03*
X0059150Y0043300D03*
X0059150Y0043400D03*
X0059150Y0043500D03*
X0059150Y0043600D03*
X0059150Y0043700D03*
X0059350Y0044500D03*
X0059350Y0044600D03*
X0059350Y0044700D03*
X0059350Y0044800D03*
X0059350Y0044900D03*
X0059150Y0045000D03*
X0059150Y0045100D03*
X0059150Y0045200D03*
X0059150Y0045300D03*
X0059150Y0045400D03*
X0059150Y0045500D03*
X0059150Y0045600D03*
X0059150Y0045700D03*
X0074850Y0035500D03*
X0074850Y0035400D03*
X0074850Y0035300D03*
X0074850Y0035200D03*
X0074850Y0035100D03*
X0074850Y0035000D03*
X0074850Y0034900D03*
X0074850Y0034800D03*
X0074850Y0034700D03*
X0074850Y0034600D03*
X0074850Y0034500D03*
X0074850Y0034400D03*
X0074850Y0034300D03*
X0074850Y0034200D03*
X0074850Y0034100D03*
X0074850Y0034000D03*
X0074850Y0033900D03*
X0074850Y0033800D03*
X0074850Y0033700D03*
X0074850Y0033600D03*
X0074850Y0033500D03*
X0074850Y0033400D03*
X0074850Y0033300D03*
X0074850Y0033200D03*
X0089750Y0034400D03*
X0089750Y0034500D03*
X0089750Y0034600D03*
X0089750Y0034700D03*
X0089750Y0034800D03*
X0089750Y0034900D03*
X0089750Y0035000D03*
X0089750Y0035100D03*
X0089750Y0035200D03*
X0089750Y0035300D03*
X0089750Y0035400D03*
X0089750Y0035500D03*
X0089750Y0035600D03*
X0089750Y0035700D03*
X0089750Y0035800D03*
X0089750Y0035900D03*
X0089750Y0039600D03*
X0089750Y0039700D03*
X0089750Y0039800D03*
X0089750Y0039900D03*
X0089750Y0040000D03*
X0089750Y0040100D03*
X0089750Y0040200D03*
X0089750Y0040300D03*
X0089750Y0040400D03*
X0089750Y0040500D03*
X0089750Y0040600D03*
X0089750Y0040700D03*
X0094850Y0040700D03*
X0094850Y0040800D03*
X0094850Y0040900D03*
X0094850Y0041000D03*
X0094850Y0041100D03*
X0094850Y0041200D03*
X0094850Y0041300D03*
X0094850Y0041400D03*
X0094850Y0041500D03*
X0094850Y0041600D03*
X0094850Y0041700D03*
X0094850Y0041800D03*
X0094850Y0041900D03*
X0094850Y0040600D03*
X0094850Y0040500D03*
X0094850Y0040400D03*
X0094850Y0040300D03*
X0094850Y0040200D03*
X0094850Y0040100D03*
X0094850Y0040000D03*
X0094850Y0039900D03*
X0094850Y0039800D03*
X0094850Y0039700D03*
X0094850Y0039600D03*
X0099750Y0033700D03*
X0099750Y0033600D03*
X0099750Y0033500D03*
X0099750Y0033400D03*
X0099750Y0033300D03*
X0099750Y0033200D03*
X0104950Y0037400D03*
X0104950Y0037500D03*
X0104950Y0037600D03*
X0104950Y0037700D03*
X0104950Y0037800D03*
X0104950Y0037900D03*
X0104950Y0038000D03*
X0104950Y0038100D03*
X0104950Y0038200D03*
X0104950Y0038300D03*
X0104950Y0038400D03*
X0104950Y0038500D03*
X0114850Y0038400D03*
X0114850Y0038300D03*
X0114850Y0038200D03*
X0114850Y0038100D03*
X0114850Y0038000D03*
X0114850Y0037900D03*
X0114850Y0037800D03*
X0114850Y0037700D03*
X0114850Y0037600D03*
X0114850Y0037500D03*
X0114850Y0037400D03*
X0114850Y0037300D03*
X0114850Y0037200D03*
X0114850Y0037100D03*
X0114850Y0037000D03*
X0114850Y0036900D03*
X0114850Y0036800D03*
X0114850Y0036700D03*
X0114850Y0036600D03*
X0114850Y0036500D03*
X0114850Y0036400D03*
X0114850Y0036300D03*
X0114850Y0036200D03*
X0114850Y0036100D03*
X0119750Y0037400D03*
X0119750Y0037500D03*
X0119750Y0037600D03*
X0119750Y0037700D03*
X0119750Y0037800D03*
X0119750Y0037900D03*
X0119750Y0038000D03*
X0119750Y0038100D03*
X0119750Y0038200D03*
X0119750Y0038300D03*
X0119750Y0038400D03*
X0119750Y0038500D03*
X0122550Y0038500D03*
X0122550Y0038400D03*
X0122550Y0038300D03*
X0122550Y0038200D03*
X0122550Y0038100D03*
X0122550Y0038000D03*
X0122550Y0037900D03*
X0122550Y0037800D03*
X0122550Y0037700D03*
X0122550Y0037600D03*
X0122550Y0037500D03*
X0122550Y0037400D03*
X0124850Y0037400D03*
X0124850Y0037500D03*
X0124850Y0037600D03*
X0124850Y0037700D03*
X0124850Y0037800D03*
X0124850Y0037900D03*
X0124850Y0038000D03*
X0124850Y0038100D03*
X0124850Y0038200D03*
X0124850Y0038300D03*
X0124850Y0038400D03*
X0124850Y0038500D03*
X0124850Y0038600D03*
X0124850Y0038700D03*
X0124850Y0038800D03*
X0124850Y0038900D03*
X0124850Y0039000D03*
X0124850Y0039100D03*
X0124850Y0039200D03*
X0124850Y0039300D03*
X0124850Y0039400D03*
X0124850Y0039500D03*
X0124850Y0039600D03*
X0124850Y0039700D03*
X0129650Y0033700D03*
X0129650Y0033600D03*
X0129650Y0033500D03*
X0129650Y0033400D03*
X0129650Y0033300D03*
X0129650Y0033200D03*
X0132550Y0037400D03*
X0132550Y0037500D03*
X0132550Y0037600D03*
X0132550Y0037700D03*
X0132550Y0037800D03*
X0132550Y0037900D03*
X0132550Y0038000D03*
X0132550Y0038100D03*
X0132550Y0038200D03*
X0132550Y0038300D03*
X0132550Y0038400D03*
X0132550Y0039800D03*
X0132550Y0039900D03*
X0132550Y0040000D03*
X0132550Y0040100D03*
X0132550Y0040200D03*
X0132550Y0040300D03*
X0132550Y0040400D03*
X0132550Y0040500D03*
X0139850Y0040300D03*
X0139850Y0040200D03*
X0139850Y0040100D03*
X0139850Y0040000D03*
X0139850Y0039900D03*
X0139850Y0039800D03*
X0139850Y0039700D03*
X0139850Y0039600D03*
X0139850Y0039500D03*
X0139850Y0039400D03*
X0139850Y0039300D03*
X0139850Y0039200D03*
X0139750Y0035600D03*
X0139750Y0035500D03*
X0139750Y0035400D03*
X0139750Y0035300D03*
X0139750Y0035200D03*
X0139750Y0035100D03*
X0139750Y0035000D03*
X0139750Y0034900D03*
X0139750Y0034800D03*
X0139750Y0034700D03*
X0139750Y0034600D03*
X0139750Y0034500D03*
X0139750Y0034400D03*
X0144850Y0034500D03*
X0144850Y0034600D03*
X0144850Y0034700D03*
X0144850Y0034800D03*
X0144850Y0034900D03*
X0144850Y0035000D03*
X0144850Y0035100D03*
X0144850Y0035200D03*
X0144850Y0035300D03*
X0144850Y0035400D03*
X0144850Y0035500D03*
X0144850Y0035600D03*
X0144850Y0035700D03*
X0144850Y0035800D03*
X0144850Y0035900D03*
X0144850Y0036000D03*
X0144850Y0036100D03*
X0144850Y0036200D03*
X0144850Y0036300D03*
X0144850Y0036400D03*
X0144850Y0036500D03*
X0144850Y0036600D03*
X0144850Y0036700D03*
X0144850Y0036800D03*
X0149850Y0034400D03*
X0154850Y0034500D03*
X0154850Y0034600D03*
X0154850Y0034700D03*
X0154850Y0034800D03*
X0154850Y0034900D03*
X0154850Y0035000D03*
X0154850Y0035100D03*
X0154850Y0035200D03*
X0154850Y0035300D03*
X0154850Y0035400D03*
X0154850Y0035500D03*
X0154850Y0035600D03*
X0154850Y0035700D03*
X0154850Y0035800D03*
X0154850Y0035900D03*
X0154850Y0036000D03*
X0154850Y0036100D03*
X0154850Y0036200D03*
X0154850Y0036300D03*
X0154850Y0036400D03*
X0154850Y0036500D03*
X0154850Y0036600D03*
X0154850Y0036700D03*
X0154850Y0036800D03*
X0154850Y0039200D03*
X0154850Y0039300D03*
X0154850Y0039400D03*
X0154850Y0039500D03*
X0154850Y0039600D03*
X0154850Y0039700D03*
X0154850Y0039800D03*
X0154850Y0039900D03*
X0154850Y0040000D03*
X0154850Y0040100D03*
X0154850Y0040200D03*
X0154850Y0040300D03*
X0152350Y0040300D03*
X0152350Y0040200D03*
X0152350Y0040100D03*
X0152350Y0040000D03*
X0152350Y0039900D03*
X0152350Y0039800D03*
X0152350Y0039700D03*
X0152350Y0039600D03*
X0152350Y0039500D03*
X0152350Y0039400D03*
X0152350Y0039300D03*
X0152350Y0039200D03*
X0159750Y0039200D03*
X0159750Y0039300D03*
X0159750Y0039400D03*
X0159750Y0039500D03*
X0159750Y0039600D03*
X0159750Y0039700D03*
X0159750Y0039800D03*
X0159750Y0039900D03*
X0159750Y0040000D03*
X0159750Y0040100D03*
X0159750Y0040200D03*
X0159750Y0040300D03*
X0159750Y0040400D03*
X0159750Y0040500D03*
X0159750Y0040600D03*
X0159750Y0040700D03*
X0159750Y0040800D03*
X0159750Y0040900D03*
X0159750Y0041000D03*
X0159750Y0041100D03*
X0159750Y0041200D03*
X0159750Y0041300D03*
X0159750Y0041400D03*
X0159750Y0041500D03*
X0161950Y0040300D03*
X0161950Y0040200D03*
X0161950Y0040100D03*
X0161950Y0040000D03*
X0161950Y0039900D03*
X0161950Y0039800D03*
X0161950Y0039700D03*
X0161950Y0039600D03*
X0161950Y0039500D03*
X0161950Y0039400D03*
X0161950Y0039300D03*
X0161950Y0039200D03*
X0164850Y0039200D03*
X0164850Y0039300D03*
X0164850Y0039400D03*
X0164850Y0039500D03*
X0164850Y0039600D03*
X0164850Y0039700D03*
X0164850Y0039800D03*
X0164850Y0039900D03*
X0164850Y0040000D03*
X0164850Y0040100D03*
X0164850Y0040200D03*
X0164850Y0040300D03*
X0169850Y0040100D03*
X0169850Y0040000D03*
X0169850Y0039900D03*
X0169850Y0039800D03*
X0169850Y0039700D03*
X0169850Y0039600D03*
X0169850Y0039500D03*
X0169850Y0039400D03*
X0169850Y0039300D03*
X0169850Y0039200D03*
X0169850Y0039100D03*
X0169850Y0039000D03*
X0169850Y0038900D03*
X0169850Y0038800D03*
X0169850Y0038700D03*
X0169850Y0038600D03*
X0169850Y0038500D03*
X0169850Y0038400D03*
X0169850Y0038300D03*
X0169850Y0038200D03*
X0169850Y0038100D03*
X0169850Y0038000D03*
X0169850Y0037900D03*
X0169850Y0037800D03*
X0169850Y0035500D03*
X0169850Y0035400D03*
X0169850Y0035300D03*
X0169850Y0035200D03*
X0169850Y0035100D03*
X0169850Y0035000D03*
X0169850Y0034900D03*
X0169850Y0034800D03*
X0169850Y0034700D03*
X0169850Y0034600D03*
X0169850Y0034500D03*
X0169850Y0034400D03*
X0169850Y0034300D03*
X0169850Y0034200D03*
X0169850Y0034100D03*
X0169850Y0034000D03*
X0169850Y0033900D03*
X0169850Y0033800D03*
X0169850Y0033700D03*
X0169850Y0033600D03*
X0169850Y0033500D03*
X0169850Y0033400D03*
X0169850Y0033300D03*
X0169850Y0033200D03*
X0172350Y0033600D03*
X0174850Y0033600D03*
X0174850Y0033700D03*
X0174850Y0033800D03*
X0174850Y0033900D03*
X0174850Y0034000D03*
X0174850Y0034100D03*
X0174850Y0034200D03*
X0174850Y0034300D03*
X0174850Y0034400D03*
X0174850Y0034500D03*
X0174850Y0034600D03*
X0174850Y0034700D03*
X0174850Y0034800D03*
X0174850Y0034900D03*
X0174850Y0035000D03*
X0174850Y0035100D03*
X0174850Y0035200D03*
X0174850Y0035300D03*
X0174850Y0035400D03*
X0174850Y0035500D03*
X0174850Y0033500D03*
X0174850Y0033400D03*
X0174850Y0033300D03*
X0174850Y0033200D03*
X0174850Y0037800D03*
X0174850Y0037900D03*
X0174850Y0038000D03*
X0174850Y0038100D03*
X0174850Y0038200D03*
X0174850Y0038300D03*
X0174850Y0038400D03*
X0174850Y0038500D03*
X0174850Y0038600D03*
X0174850Y0038700D03*
X0174850Y0038800D03*
X0174850Y0038900D03*
X0174850Y0039000D03*
X0174850Y0039100D03*
X0174850Y0039200D03*
X0174850Y0039300D03*
X0174850Y0039400D03*
X0174850Y0039500D03*
X0174850Y0039600D03*
X0174850Y0039700D03*
X0174850Y0039800D03*
X0174850Y0039900D03*
X0174850Y0040000D03*
X0174850Y0040100D03*
X0179750Y0040100D03*
X0179750Y0040200D03*
X0179750Y0040000D03*
X0179750Y0039900D03*
X0179750Y0039800D03*
X0179750Y0039700D03*
X0179750Y0039600D03*
X0179750Y0039500D03*
X0179750Y0039400D03*
X0179750Y0039300D03*
X0179750Y0039200D03*
X0179750Y0039100D03*
X0179750Y0035500D03*
X0179750Y0035400D03*
X0179750Y0035300D03*
X0179750Y0035200D03*
X0179750Y0035100D03*
X0179750Y0035000D03*
X0179750Y0034900D03*
X0179750Y0034800D03*
X0179750Y0034700D03*
X0179750Y0034600D03*
X0179750Y0034500D03*
X0179750Y0034400D03*
X0179750Y0034300D03*
X0179750Y0034200D03*
X0179750Y0034100D03*
X0179750Y0034000D03*
X0179750Y0033900D03*
X0179750Y0033800D03*
X0179750Y0033700D03*
X0179750Y0033600D03*
X0179750Y0033500D03*
X0179750Y0033400D03*
X0179750Y0033300D03*
X0179750Y0033200D03*
X0182250Y0033600D03*
X0182250Y0033700D03*
X0182250Y0033800D03*
X0182250Y0033900D03*
X0182250Y0034000D03*
X0182250Y0034100D03*
X0182250Y0034200D03*
X0182250Y0034300D03*
X0182250Y0034400D03*
X0182250Y0034500D03*
X0182250Y0034600D03*
X0182250Y0034700D03*
X0182250Y0034800D03*
X0182250Y0034900D03*
X0182250Y0035000D03*
X0182250Y0035100D03*
X0182250Y0035200D03*
X0182250Y0035300D03*
X0182250Y0035400D03*
X0182250Y0035500D03*
X0184850Y0039100D03*
X0184850Y0039200D03*
X0184850Y0039300D03*
X0184850Y0039400D03*
X0184850Y0039500D03*
X0184850Y0039600D03*
X0184850Y0039700D03*
X0184850Y0039800D03*
X0184850Y0039900D03*
X0184850Y0040000D03*
X0184850Y0040100D03*
X0184850Y0040200D03*
X0184850Y0040300D03*
X0184850Y0040400D03*
X0184850Y0040500D03*
X0184850Y0040600D03*
X0184850Y0040700D03*
X0184850Y0040800D03*
X0184850Y0040900D03*
X0184850Y0041000D03*
X0184850Y0041100D03*
X0184850Y0041200D03*
X0184850Y0041300D03*
X0184850Y0041400D03*
X0192050Y0040200D03*
X0194950Y0040200D03*
X0194950Y0040100D03*
X0194950Y0040000D03*
X0194950Y0039900D03*
X0194950Y0039800D03*
X0194950Y0039700D03*
X0194950Y0039600D03*
X0194950Y0039500D03*
X0194950Y0039400D03*
X0194950Y0039300D03*
X0194950Y0039200D03*
X0194950Y0039100D03*
X0194850Y0035500D03*
X0194850Y0035400D03*
X0194850Y0035300D03*
X0194850Y0035200D03*
X0194850Y0035100D03*
X0194850Y0035000D03*
X0194850Y0034900D03*
X0194850Y0034800D03*
X0194850Y0034700D03*
X0194850Y0034600D03*
X0194850Y0034500D03*
X0194850Y0034400D03*
X0194850Y0034300D03*
X0194850Y0034200D03*
X0194850Y0034100D03*
X0194850Y0034000D03*
X0194850Y0033900D03*
X0194850Y0033800D03*
X0194850Y0033700D03*
X0194850Y0033600D03*
X0194850Y0033500D03*
X0194850Y0033400D03*
X0194850Y0033300D03*
X0194850Y0033200D03*
X0192250Y0033600D03*
X0202050Y0033700D03*
X0204650Y0033700D03*
X0204650Y0033800D03*
X0204650Y0033900D03*
X0204650Y0034000D03*
X0204650Y0034100D03*
X0204650Y0034200D03*
X0204650Y0034300D03*
X0204650Y0034400D03*
X0204650Y0034500D03*
X0204650Y0034600D03*
X0204650Y0034700D03*
X0204650Y0034800D03*
X0204650Y0034900D03*
X0204650Y0035000D03*
X0204650Y0035100D03*
X0204650Y0035200D03*
X0204650Y0035300D03*
X0204650Y0035400D03*
X0204650Y0035500D03*
X0204650Y0035600D03*
X0204650Y0033600D03*
X0204650Y0033500D03*
X0204650Y0033400D03*
X0204650Y0033300D03*
X0202550Y0039100D03*
X0202550Y0039200D03*
X0202550Y0039300D03*
X0202550Y0039400D03*
X0202550Y0039500D03*
X0202550Y0039600D03*
X0202550Y0039700D03*
X0202550Y0039800D03*
X0202550Y0039900D03*
X0202550Y0040000D03*
X0202550Y0040100D03*
X0202550Y0041500D03*
X0202550Y0041600D03*
X0202550Y0041700D03*
X0202550Y0041800D03*
X0202550Y0041900D03*
X0202550Y0042000D03*
X0202550Y0042100D03*
X0202550Y0042200D03*
X0159750Y0035600D03*
X0159750Y0035500D03*
X0159750Y0035400D03*
X0159750Y0035300D03*
X0159750Y0035200D03*
X0159750Y0035100D03*
X0159750Y0035000D03*
X0159750Y0034900D03*
X0159750Y0034800D03*
X0159750Y0034700D03*
X0159750Y0034600D03*
X0159750Y0034500D03*
X0159750Y0034400D03*
X0119750Y0033700D03*
X0119750Y0033600D03*
X0119750Y0033500D03*
X0119750Y0033400D03*
X0119750Y0033300D03*
X0119750Y0033200D03*
X0032150Y0059300D03*
X0032150Y0059400D03*
X0032150Y0059500D03*
X0032150Y0059600D03*
X0032150Y0059700D03*
X0032150Y0059800D03*
X0032150Y0059900D03*
X0032150Y0060000D03*
X0032150Y0060100D03*
X0032150Y0060200D03*
X0032150Y0060300D03*
X0032150Y0060400D03*
X0032150Y0060500D03*
X0032150Y0060600D03*
X0032150Y0060700D03*
X0032150Y0060800D03*
X0032150Y0060900D03*
X0032150Y0061000D03*
X0032150Y0061100D03*
X0032150Y0061200D03*
X0032150Y0062100D03*
X0032150Y0062200D03*
X0032150Y0062300D03*
X0032150Y0062400D03*
X0032150Y0062500D03*
X0032150Y0062600D03*
X0032150Y0062700D03*
X0032150Y0062800D03*
X0032150Y0062900D03*
X0032150Y0063000D03*
X0032150Y0063100D03*
X0032150Y0063200D03*
X0032150Y0063300D03*
X0032150Y0063400D03*
X0032150Y0064700D03*
X0032150Y0064800D03*
X0032150Y0064900D03*
X0032150Y0065000D03*
X0032150Y0065100D03*
X0032150Y0065200D03*
X0032150Y0065300D03*
X0032150Y0065400D03*
X0032150Y0065500D03*
X0032150Y0065600D03*
X0032150Y0065700D03*
X0032150Y0065800D03*
X0032150Y0065900D03*
X0032150Y0066000D03*
X0032050Y0068100D03*
X0032050Y0068200D03*
X0032050Y0068300D03*
X0032050Y0068400D03*
X0032050Y0068500D03*
X0032050Y0068600D03*
X0032050Y0068700D03*
X0032050Y0068800D03*
X0032050Y0068900D03*
X0032050Y0069000D03*
X0032050Y0069100D03*
X0106650Y0135500D03*
X0106650Y0135600D03*
X0106650Y0135700D03*
X0106650Y0135800D03*
X0106650Y0135900D03*
X0106650Y0136000D03*
X0106650Y0136100D03*
X0106650Y0136200D03*
X0106650Y0136300D03*
X0106650Y0136400D03*
X0106650Y0136500D03*
X0106650Y0136600D03*
X0106650Y0136700D03*
X0106650Y0136800D03*
X0106650Y0136900D03*
X0106650Y0137000D03*
X0106650Y0137100D03*
X0106650Y0137200D03*
X0106650Y0137300D03*
X0106650Y0137400D03*
X0106650Y0137500D03*
X0106650Y0137600D03*
X0106650Y0137700D03*
X0106650Y0137800D03*
X0106650Y0137900D03*
X0106650Y0138000D03*
X0106650Y0138100D03*
X0106650Y0138200D03*
X0106650Y0138300D03*
X0106650Y0138400D03*
X0106650Y0138500D03*
X0106650Y0138600D03*
X0106650Y0138700D03*
X0106650Y0138800D03*
X0106650Y0138900D03*
X0106650Y0139000D03*
X0106650Y0139100D03*
X0106650Y0139200D03*
X0106650Y0139300D03*
X0106650Y0139400D03*
X0106650Y0139500D03*
X0106650Y0139600D03*
X0106650Y0139700D03*
X0106650Y0139800D03*
X0106650Y0139900D03*
X0106650Y0140000D03*
X0107950Y0140000D03*
X0107950Y0139900D03*
X0107950Y0139800D03*
X0108050Y0139600D03*
X0108050Y0139500D03*
X0108050Y0139400D03*
X0108050Y0139300D03*
X0108150Y0139100D03*
X0108150Y0139000D03*
X0108150Y0138900D03*
X0108150Y0138800D03*
X0108250Y0138700D03*
X0108250Y0138600D03*
X0108250Y0138500D03*
X0108250Y0138400D03*
X0108250Y0138300D03*
X0108750Y0136300D03*
X0108750Y0136200D03*
X0108750Y0136100D03*
X0108750Y0136000D03*
X0113550Y0135500D03*
X0115950Y0136700D03*
X0115950Y0136800D03*
X0115950Y0136900D03*
X0115950Y0137000D03*
X0115950Y0137100D03*
X0115950Y0137200D03*
X0115950Y0137300D03*
X0115950Y0137400D03*
X0115950Y0137500D03*
X0115950Y0137600D03*
X0115950Y0137700D03*
X0115950Y0137800D03*
X0115950Y0137900D03*
X0115950Y0138000D03*
X0115950Y0138100D03*
X0115950Y0138200D03*
X0115950Y0138300D03*
X0115950Y0138400D03*
X0115950Y0138500D03*
X0115950Y0138600D03*
X0115950Y0138700D03*
X0115950Y0138800D03*
X0115950Y0138900D03*
X0115950Y0139000D03*
X0115950Y0139100D03*
X0115950Y0139200D03*
X0115950Y0139300D03*
X0115950Y0139400D03*
X0115950Y0139500D03*
X0115950Y0139600D03*
X0115950Y0139700D03*
X0115950Y0139800D03*
X0115950Y0139900D03*
X0115950Y0140000D03*
X0115950Y0140100D03*
X0115950Y0140200D03*
X0115950Y0140300D03*
X0115950Y0140400D03*
X0115950Y0140500D03*
X0118350Y0140500D03*
X0118350Y0140400D03*
X0118350Y0140300D03*
X0118350Y0140200D03*
X0118350Y0140100D03*
X0118350Y0140000D03*
X0118350Y0139900D03*
X0118350Y0139800D03*
X0118350Y0139700D03*
X0118350Y0139600D03*
X0118350Y0137700D03*
X0118350Y0137600D03*
X0118350Y0137500D03*
X0118350Y0137400D03*
X0118350Y0137300D03*
X0118350Y0137200D03*
X0118350Y0137100D03*
X0118350Y0137000D03*
X0118350Y0136900D03*
X0118350Y0136800D03*
X0118350Y0136700D03*
X0123050Y0135500D03*
X0128050Y0135700D03*
X0128050Y0135800D03*
X0125350Y0141600D03*
X0125350Y0141700D03*
X0123050Y0141700D03*
X0113550Y0141700D03*
X0110150Y0199200D03*
X0110150Y0199300D03*
X0112450Y0200300D03*
X0112450Y0200400D03*
X0112450Y0200500D03*
X0112450Y0200600D03*
X0112450Y0200700D03*
X0112450Y0200800D03*
X0112450Y0200900D03*
X0112450Y0201000D03*
X0112450Y0201100D03*
X0112450Y0201200D03*
X0112450Y0201300D03*
X0112450Y0201400D03*
X0112450Y0201500D03*
X0112450Y0202800D03*
X0112450Y0202900D03*
X0112450Y0203000D03*
X0112450Y0203100D03*
X0112450Y0203200D03*
X0112450Y0203300D03*
X0112450Y0203400D03*
X0112450Y0203500D03*
X0112450Y0203600D03*
X0112450Y0203700D03*
X0112450Y0203800D03*
X0112450Y0203900D03*
X0107450Y0205100D03*
X0107450Y0205200D03*
X0101150Y0205100D03*
X0101150Y0205000D03*
X0101150Y0204900D03*
X0101150Y0204800D03*
X0101150Y0204700D03*
X0101150Y0204600D03*
X0101150Y0204500D03*
X0101150Y0204400D03*
X0101150Y0204300D03*
X0101150Y0204200D03*
X0101150Y0204100D03*
X0101150Y0204000D03*
X0101150Y0203900D03*
X0101150Y0203800D03*
X0101150Y0203700D03*
X0101150Y0203600D03*
X0101150Y0203500D03*
X0101150Y0203400D03*
X0101150Y0203300D03*
X0101150Y0203200D03*
X0101150Y0203100D03*
X0101150Y0203000D03*
X0101150Y0202900D03*
X0101150Y0202800D03*
X0101150Y0202700D03*
X0101150Y0202600D03*
X0101150Y0202500D03*
X0101150Y0202400D03*
X0101150Y0202300D03*
X0101150Y0202200D03*
X0101150Y0202100D03*
X0101150Y0202000D03*
X0101150Y0201900D03*
X0101150Y0201800D03*
X0101150Y0201700D03*
X0101150Y0201600D03*
X0101150Y0201500D03*
X0101150Y0201400D03*
X0101150Y0201300D03*
X0101150Y0201200D03*
X0101150Y0201100D03*
X0101150Y0201000D03*
X0101150Y0200900D03*
X0101150Y0200800D03*
X0101150Y0200700D03*
X0101150Y0200600D03*
X0101150Y0200500D03*
X0101150Y0200400D03*
X0101150Y0200300D03*
X0101150Y0200200D03*
X0093850Y0199000D03*
X0093850Y0201400D03*
X0093850Y0201500D03*
X0093850Y0202800D03*
X0093850Y0202900D03*
X0093850Y0203000D03*
X0093850Y0203100D03*
X0093850Y0203200D03*
X0093850Y0203300D03*
X0093850Y0203400D03*
X0093850Y0203500D03*
X0093850Y0203600D03*
X0093850Y0203700D03*
X0093850Y0203800D03*
X0093850Y0203900D03*
X0093850Y0204000D03*
X0091450Y0204000D03*
X0091450Y0203900D03*
X0091450Y0203800D03*
X0091450Y0203700D03*
X0091450Y0203600D03*
X0091450Y0203500D03*
X0091450Y0203400D03*
X0091450Y0203300D03*
X0091450Y0203200D03*
X0091450Y0203100D03*
X0091450Y0203000D03*
X0091450Y0202900D03*
X0091450Y0202800D03*
X0119150Y0202800D03*
X0119150Y0202900D03*
X0119150Y0203000D03*
X0119150Y0203100D03*
X0119150Y0203200D03*
X0119150Y0203300D03*
X0119150Y0203400D03*
X0119150Y0203500D03*
X0119150Y0203600D03*
X0119150Y0203700D03*
X0119150Y0203800D03*
X0119150Y0203900D03*
X0119150Y0204000D03*
X0119150Y0202700D03*
X0119150Y0202600D03*
X0119150Y0202500D03*
X0119150Y0202400D03*
X0119150Y0202300D03*
X0119150Y0202200D03*
X0119150Y0202100D03*
X0119150Y0202000D03*
X0119150Y0201900D03*
X0119150Y0201800D03*
X0119150Y0201700D03*
X0119150Y0201600D03*
X0119150Y0201500D03*
X0119150Y0201400D03*
X0119150Y0201300D03*
X0119150Y0201200D03*
X0119150Y0201100D03*
X0119150Y0201000D03*
X0119150Y0200900D03*
X0119150Y0200800D03*
X0119150Y0200700D03*
X0119150Y0200600D03*
X0119150Y0200500D03*
X0119150Y0200400D03*
X0119150Y0200300D03*
X0121550Y0200300D03*
X0121550Y0200400D03*
X0121550Y0200500D03*
X0121550Y0200600D03*
X0121550Y0200700D03*
X0121550Y0200800D03*
X0121550Y0200900D03*
X0121550Y0201000D03*
X0121550Y0201100D03*
X0121550Y0201200D03*
X0121550Y0201300D03*
X0121550Y0201400D03*
X0121550Y0201500D03*
X0121550Y0201600D03*
X0121550Y0201700D03*
X0121550Y0201800D03*
X0121550Y0201900D03*
X0121550Y0202000D03*
X0121550Y0202100D03*
X0121550Y0202200D03*
X0121550Y0202300D03*
X0121550Y0202400D03*
X0121550Y0202500D03*
X0121550Y0202600D03*
X0121550Y0202700D03*
X0121550Y0202800D03*
X0121550Y0202900D03*
X0121550Y0203000D03*
X0121550Y0203100D03*
X0121550Y0203200D03*
X0121550Y0203300D03*
X0121550Y0203400D03*
X0121550Y0203500D03*
X0121550Y0203600D03*
X0121550Y0203700D03*
X0121550Y0203800D03*
X0121550Y0203900D03*
X0121550Y0204000D03*
X0126350Y0204000D03*
X0126350Y0204100D03*
X0126350Y0204200D03*
X0126350Y0204300D03*
X0126350Y0204400D03*
X0126350Y0204500D03*
X0126350Y0204600D03*
X0126350Y0204700D03*
X0126350Y0204800D03*
X0126350Y0204900D03*
X0126350Y0205000D03*
X0126350Y0205100D03*
X0126350Y0203900D03*
X0126350Y0203800D03*
X0126350Y0203700D03*
X0126350Y0203600D03*
X0126350Y0203500D03*
X0126350Y0203400D03*
X0126350Y0203300D03*
X0126350Y0203200D03*
X0126350Y0203100D03*
X0126350Y0203000D03*
X0126350Y0202900D03*
X0126350Y0202800D03*
X0126350Y0202700D03*
X0126350Y0202600D03*
X0126350Y0202500D03*
X0126350Y0202400D03*
X0126350Y0202300D03*
X0126350Y0202200D03*
X0126350Y0202100D03*
X0126350Y0202000D03*
X0126350Y0201900D03*
X0126350Y0201800D03*
X0126350Y0201700D03*
X0126350Y0201600D03*
X0126350Y0201500D03*
X0126350Y0201400D03*
X0126350Y0201300D03*
X0126350Y0201200D03*
X0126350Y0201100D03*
X0126350Y0201000D03*
X0126350Y0200900D03*
X0126350Y0200800D03*
X0126350Y0200700D03*
X0126350Y0200600D03*
X0126350Y0200500D03*
X0126350Y0200400D03*
X0126350Y0200300D03*
X0162850Y0200300D03*
X0162850Y0200400D03*
X0162850Y0200500D03*
X0162850Y0200600D03*
X0162850Y0200700D03*
X0162850Y0200800D03*
X0162850Y0200900D03*
X0162850Y0201000D03*
X0162850Y0201100D03*
X0162850Y0201200D03*
X0162850Y0201300D03*
X0162850Y0201400D03*
X0162850Y0201500D03*
X0162850Y0201600D03*
X0162850Y0201700D03*
X0162850Y0201800D03*
X0162850Y0201900D03*
X0162850Y0202000D03*
X0162850Y0202100D03*
X0162850Y0202200D03*
X0162850Y0202300D03*
X0162850Y0202400D03*
X0162850Y0202500D03*
X0162850Y0202600D03*
X0162850Y0202700D03*
X0162850Y0202800D03*
X0162850Y0202900D03*
X0162850Y0203000D03*
X0162850Y0203100D03*
X0162850Y0203200D03*
X0162850Y0203300D03*
X0162850Y0203400D03*
X0162850Y0203500D03*
X0162850Y0203600D03*
X0162850Y0203700D03*
X0162850Y0203800D03*
X0162850Y0203900D03*
X0162850Y0204000D03*
X0162850Y0204100D03*
X0162850Y0204200D03*
X0162850Y0204300D03*
X0162850Y0204400D03*
X0162850Y0204500D03*
X0162850Y0204600D03*
X0162850Y0204700D03*
X0162850Y0204800D03*
X0162850Y0204900D03*
X0162850Y0205000D03*
X0162850Y0205100D03*
X0166750Y0205100D03*
X0166750Y0205000D03*
X0166750Y0204900D03*
X0166750Y0204800D03*
X0166750Y0204700D03*
X0166750Y0204600D03*
X0166750Y0204500D03*
X0166750Y0204400D03*
X0166750Y0204300D03*
X0166750Y0204200D03*
X0166750Y0204100D03*
X0166750Y0204000D03*
X0166750Y0203900D03*
X0166750Y0203800D03*
X0166750Y0203700D03*
X0166750Y0203600D03*
X0166750Y0203500D03*
X0166750Y0203400D03*
X0166750Y0203300D03*
X0166750Y0203200D03*
X0166750Y0203100D03*
X0166750Y0203000D03*
X0166750Y0202900D03*
X0166750Y0202800D03*
X0166750Y0202700D03*
X0166750Y0202600D03*
X0166750Y0202500D03*
X0166750Y0202400D03*
X0166750Y0202300D03*
X0166750Y0202200D03*
X0166750Y0202100D03*
X0166750Y0202000D03*
X0166750Y0201900D03*
X0166750Y0201800D03*
X0166750Y0201700D03*
X0166750Y0201600D03*
X0166750Y0201500D03*
X0166750Y0201400D03*
X0166750Y0201300D03*
X0166750Y0201200D03*
X0166750Y0201100D03*
X0166750Y0201000D03*
X0166750Y0200900D03*
X0166750Y0200800D03*
X0166750Y0200700D03*
X0166750Y0200600D03*
X0166750Y0200500D03*
X0166750Y0200400D03*
X0169350Y0200400D03*
X0169350Y0200500D03*
X0169350Y0200600D03*
X0169350Y0200700D03*
X0169350Y0200800D03*
X0169350Y0200900D03*
X0169350Y0201000D03*
X0169350Y0201100D03*
X0169350Y0201200D03*
X0169350Y0201300D03*
X0169350Y0201400D03*
X0169350Y0201500D03*
X0169350Y0201600D03*
X0169350Y0201700D03*
X0169350Y0201800D03*
X0169350Y0201900D03*
X0169350Y0202000D03*
X0169350Y0202100D03*
X0169350Y0202200D03*
X0169350Y0202300D03*
X0169350Y0202400D03*
X0169350Y0202500D03*
X0169350Y0202600D03*
X0169350Y0202700D03*
X0169350Y0202800D03*
X0169350Y0202900D03*
X0169350Y0203000D03*
X0169350Y0203100D03*
X0169350Y0203200D03*
X0169350Y0203300D03*
X0169350Y0203400D03*
X0169350Y0203500D03*
X0169350Y0203600D03*
X0169350Y0203700D03*
X0169350Y0203800D03*
X0169350Y0203900D03*
X0169350Y0204000D03*
X0169350Y0204100D03*
X0169350Y0204200D03*
X0169350Y0204300D03*
X0169350Y0204400D03*
X0169350Y0204500D03*
X0169350Y0204600D03*
X0169350Y0204700D03*
X0169350Y0204800D03*
X0169350Y0204900D03*
X0169350Y0205000D03*
X0169350Y0205100D03*
X0169350Y0200300D03*
X0162850Y0200200D03*
X0176650Y0200200D03*
X0176650Y0200300D03*
X0176650Y0200400D03*
X0176650Y0200500D03*
X0176650Y0200600D03*
X0176650Y0200700D03*
X0176650Y0200800D03*
X0176650Y0200900D03*
X0176650Y0201000D03*
X0176650Y0201100D03*
X0176650Y0201200D03*
X0176650Y0201300D03*
X0176650Y0201400D03*
X0176650Y0201500D03*
X0176650Y0201600D03*
X0176650Y0201700D03*
X0176650Y0201800D03*
X0176650Y0201900D03*
X0176650Y0202000D03*
X0176650Y0202100D03*
X0176650Y0202200D03*
X0176650Y0202300D03*
X0176650Y0202400D03*
X0176650Y0202500D03*
X0176650Y0202600D03*
X0176650Y0202700D03*
X0176650Y0202800D03*
X0176650Y0202900D03*
X0176650Y0203000D03*
X0176650Y0203100D03*
X0176650Y0203200D03*
X0176650Y0203300D03*
X0176650Y0203400D03*
X0176650Y0203500D03*
X0176650Y0203600D03*
X0176650Y0203700D03*
X0176650Y0203800D03*
X0176650Y0203900D03*
X0176650Y0204000D03*
X0176650Y0204100D03*
X0176650Y0204200D03*
X0176650Y0204300D03*
X0176650Y0204400D03*
X0176650Y0204500D03*
X0176650Y0204600D03*
X0176650Y0204700D03*
X0176650Y0204800D03*
X0176650Y0204900D03*
X0176650Y0205000D03*
X0176650Y0205100D03*
X0180550Y0205100D03*
X0180550Y0205000D03*
X0180550Y0204900D03*
X0180550Y0204800D03*
X0180550Y0204700D03*
X0180550Y0204600D03*
X0180550Y0204500D03*
X0180550Y0204400D03*
X0180550Y0204300D03*
X0180550Y0204200D03*
X0180550Y0204100D03*
X0180550Y0204000D03*
X0180550Y0203900D03*
X0180550Y0203800D03*
X0180550Y0203700D03*
X0180550Y0203600D03*
X0180550Y0203500D03*
X0180550Y0203400D03*
X0180550Y0203300D03*
X0180550Y0203200D03*
X0180550Y0203100D03*
X0180550Y0203000D03*
X0180550Y0202900D03*
X0180550Y0202800D03*
X0181750Y0201400D03*
X0182950Y0202800D03*
X0182950Y0202900D03*
X0182950Y0203000D03*
X0182950Y0203100D03*
X0182950Y0203200D03*
X0182950Y0203300D03*
X0182950Y0203400D03*
X0182950Y0203500D03*
X0182950Y0203600D03*
X0182950Y0203700D03*
X0182950Y0203800D03*
X0182950Y0203900D03*
X0182950Y0204000D03*
X0182950Y0204100D03*
X0182950Y0204200D03*
X0182950Y0204300D03*
X0182950Y0204400D03*
X0182950Y0204500D03*
X0182950Y0204600D03*
X0182950Y0204700D03*
X0182950Y0204800D03*
X0182950Y0204900D03*
X0182950Y0205000D03*
X0182950Y0205100D03*
X0187650Y0204000D03*
X0187650Y0203900D03*
X0187650Y0203800D03*
X0187650Y0203700D03*
X0187650Y0203600D03*
X0187650Y0203500D03*
X0187650Y0203400D03*
X0187650Y0203300D03*
X0187650Y0203200D03*
X0187650Y0203100D03*
X0187650Y0203000D03*
X0187650Y0202900D03*
X0187650Y0202800D03*
X0187650Y0202700D03*
X0187650Y0202600D03*
X0187650Y0202500D03*
X0187650Y0202400D03*
X0187650Y0202300D03*
X0187650Y0202200D03*
X0187650Y0202100D03*
X0187650Y0202000D03*
X0187650Y0201900D03*
X0187650Y0201800D03*
X0187650Y0201700D03*
X0187650Y0201600D03*
X0187650Y0201500D03*
X0187650Y0201400D03*
X0187650Y0201300D03*
X0187650Y0201200D03*
X0187650Y0201100D03*
X0187650Y0201000D03*
X0187650Y0200900D03*
X0187650Y0200800D03*
X0187650Y0200700D03*
X0187650Y0200600D03*
X0187650Y0200500D03*
X0187650Y0200400D03*
X0187650Y0200300D03*
X0187650Y0200200D03*
X0190050Y0200200D03*
X0190050Y0200300D03*
X0190050Y0200400D03*
X0190050Y0200500D03*
X0190050Y0200600D03*
X0190050Y0200700D03*
X0190050Y0200800D03*
X0190050Y0200900D03*
X0190050Y0201000D03*
X0190050Y0201100D03*
X0190050Y0203100D03*
X0190050Y0203200D03*
X0190050Y0203300D03*
X0190050Y0203400D03*
X0190050Y0203500D03*
X0190050Y0203600D03*
X0190050Y0203700D03*
X0190050Y0203800D03*
X0190050Y0203900D03*
X0190050Y0204000D03*
X0192350Y0204000D03*
X0192350Y0203900D03*
X0192350Y0203800D03*
X0192350Y0203700D03*
X0192350Y0203600D03*
X0192350Y0203500D03*
X0192350Y0203400D03*
X0192350Y0203300D03*
X0192350Y0203200D03*
X0192350Y0203100D03*
X0192350Y0203000D03*
X0192350Y0202900D03*
X0192350Y0202800D03*
X0192350Y0202700D03*
X0192350Y0202600D03*
X0192350Y0202500D03*
X0192350Y0202400D03*
X0192350Y0202300D03*
X0192350Y0202200D03*
X0192350Y0202100D03*
X0192350Y0202000D03*
X0192350Y0201900D03*
X0192350Y0201800D03*
X0192350Y0201700D03*
X0192350Y0201600D03*
X0192350Y0201500D03*
X0192350Y0201400D03*
X0192350Y0201300D03*
X0192350Y0201200D03*
X0192350Y0201100D03*
X0192350Y0201000D03*
X0192350Y0200900D03*
X0192350Y0200800D03*
X0192350Y0200700D03*
X0192350Y0200600D03*
X0192350Y0200500D03*
X0192350Y0200400D03*
X0192350Y0200300D03*
X0194750Y0200300D03*
X0194750Y0200400D03*
X0194750Y0200500D03*
X0194750Y0200600D03*
X0194750Y0200700D03*
X0194750Y0200800D03*
X0194750Y0200900D03*
X0194750Y0201000D03*
X0194750Y0201100D03*
X0194750Y0201200D03*
X0194750Y0201300D03*
X0194750Y0201400D03*
X0194750Y0201500D03*
X0194750Y0201600D03*
X0194750Y0201700D03*
X0194750Y0201800D03*
X0194750Y0201900D03*
X0194750Y0202000D03*
X0194750Y0202100D03*
X0194750Y0202200D03*
X0194750Y0202300D03*
X0194750Y0202400D03*
X0194750Y0202500D03*
X0194750Y0202600D03*
X0194750Y0202700D03*
X0194750Y0202800D03*
X0194750Y0202900D03*
X0194750Y0203000D03*
X0194750Y0203100D03*
X0194750Y0203200D03*
X0194750Y0203300D03*
X0194750Y0203400D03*
X0194750Y0203500D03*
X0194750Y0203600D03*
X0194750Y0203700D03*
X0194750Y0203800D03*
X0194750Y0203900D03*
X0194750Y0204000D03*
X0196850Y0203500D03*
X0196850Y0203400D03*
X0196850Y0203300D03*
X0196850Y0203200D03*
X0196850Y0203100D03*
X0196850Y0203000D03*
X0196850Y0202900D03*
X0196850Y0202800D03*
X0196850Y0202700D03*
X0196850Y0202600D03*
X0196850Y0202500D03*
X0196850Y0202400D03*
X0196850Y0202300D03*
X0196850Y0202200D03*
X0196850Y0202100D03*
X0196850Y0202000D03*
X0196850Y0201900D03*
X0196850Y0201800D03*
X0196850Y0201700D03*
X0196850Y0201600D03*
X0196850Y0201500D03*
X0196850Y0201400D03*
X0196850Y0201300D03*
X0196850Y0201200D03*
X0196850Y0201100D03*
X0196850Y0201000D03*
X0196850Y0200900D03*
X0196850Y0200800D03*
X0196850Y0200700D03*
X0196850Y0200600D03*
X0196850Y0200500D03*
X0196850Y0200400D03*
X0196850Y0200300D03*
X0196850Y0200200D03*
X0196850Y0200100D03*
X0196850Y0200000D03*
X0196850Y0199900D03*
X0196850Y0199800D03*
X0196850Y0199700D03*
X0196850Y0199600D03*
X0196850Y0199500D03*
X0196850Y0199400D03*
X0196850Y0199300D03*
X0196850Y0199200D03*
X0196850Y0199100D03*
X0196850Y0199000D03*
X0198950Y0199400D03*
X0198950Y0199500D03*
X0198950Y0199600D03*
X0198950Y0199700D03*
X0198450Y0201900D03*
X0198450Y0202000D03*
X0198450Y0202100D03*
X0198450Y0202200D03*
X0198350Y0202300D03*
X0198350Y0202400D03*
X0198350Y0202500D03*
X0198350Y0202600D03*
X0198350Y0202700D03*
X0198250Y0202800D03*
X0198250Y0202900D03*
X0198250Y0203000D03*
X0198250Y0203100D03*
X0198250Y0203200D03*
X0198150Y0203300D03*
X0198150Y0203400D03*
X0198150Y0203500D03*
X0050350Y0203500D03*
X0050350Y0203600D03*
X0050350Y0203700D03*
X0050350Y0203800D03*
X0050350Y0203900D03*
X0050350Y0204000D03*
X0050350Y0204100D03*
X0050350Y0204200D03*
X0050350Y0204300D03*
X0050350Y0204400D03*
X0050350Y0204500D03*
X0050350Y0204600D03*
X0050350Y0204700D03*
X0050350Y0204800D03*
X0050350Y0204900D03*
X0050350Y0205000D03*
X0050350Y0205100D03*
X0050350Y0203400D03*
X0050350Y0203300D03*
X0050350Y0203200D03*
X0050350Y0203100D03*
X0050350Y0203000D03*
X0050350Y0202900D03*
X0050350Y0202800D03*
X0050350Y0202700D03*
X0050350Y0202600D03*
X0050350Y0202500D03*
X0050350Y0202400D03*
X0050350Y0202300D03*
X0050350Y0202200D03*
X0050350Y0202100D03*
X0050350Y0202000D03*
X0050350Y0201900D03*
X0050350Y0201800D03*
X0050350Y0201700D03*
X0050350Y0201600D03*
X0050350Y0201500D03*
X0050350Y0201400D03*
X0050350Y0201300D03*
X0050350Y0201200D03*
X0050350Y0201100D03*
X0050350Y0201000D03*
X0050350Y0200900D03*
X0050350Y0200800D03*
X0050350Y0200700D03*
X0050350Y0200600D03*
X0050350Y0200500D03*
X0050350Y0200400D03*
X0050350Y0200300D03*
X0050350Y0200200D03*
D19*
X0051200Y0200100D03*
X0051200Y0200000D03*
X0051200Y0199900D03*
X0051200Y0199800D03*
X0051200Y0199700D03*
X0051200Y0199600D03*
X0051200Y0199500D03*
X0051200Y0199400D03*
X0051200Y0199300D03*
X0051200Y0199200D03*
X0051200Y0199100D03*
X0051200Y0199000D03*
X0102000Y0199000D03*
X0102000Y0199100D03*
X0102000Y0199200D03*
X0102000Y0199300D03*
X0102000Y0199400D03*
X0102000Y0199500D03*
X0102000Y0199600D03*
X0102000Y0199700D03*
X0102000Y0199800D03*
X0102000Y0199900D03*
X0102000Y0200000D03*
X0102000Y0200100D03*
X0120400Y0199100D03*
X0159300Y0201600D03*
X0159300Y0201700D03*
X0159300Y0201800D03*
X0159300Y0201900D03*
X0159300Y0202000D03*
X0159300Y0202100D03*
X0159300Y0202200D03*
X0159300Y0202300D03*
X0159300Y0202400D03*
X0159300Y0202500D03*
X0159300Y0202600D03*
X0163700Y0200100D03*
X0163700Y0200000D03*
X0163700Y0199900D03*
X0163700Y0199800D03*
X0163700Y0199700D03*
X0163700Y0199600D03*
X0163700Y0199500D03*
X0163700Y0199400D03*
X0163700Y0199300D03*
X0163700Y0199200D03*
X0163700Y0199100D03*
X0163700Y0199000D03*
X0188800Y0205100D03*
X0193500Y0199100D03*
X0117100Y0141600D03*
X0083800Y0042800D03*
X0083600Y0042700D03*
X0083400Y0042600D03*
X0083200Y0042500D03*
X0080700Y0041300D03*
X0074000Y0039300D03*
X0070700Y0037800D03*
X0070800Y0036600D03*
X0063300Y0036700D03*
X0062900Y0041500D03*
X0080600Y0033200D03*
X0084000Y0034700D03*
X0110800Y0039500D03*
X0121100Y0039700D03*
X0140700Y0039100D03*
X0140700Y0039000D03*
X0140700Y0038900D03*
X0140700Y0038800D03*
X0140700Y0038700D03*
X0140700Y0038600D03*
X0140700Y0038500D03*
X0140700Y0038400D03*
X0170800Y0036600D03*
X0170800Y0036500D03*
X0173900Y0036600D03*
X0170800Y0041100D03*
X0170800Y0041200D03*
X0183800Y0036600D03*
X0193500Y0041400D03*
D20*
X0092300Y0033200D03*
X0071800Y0038300D03*
X0051700Y0033300D03*
D21*
X0060150Y0036500D03*
X0060150Y0036600D03*
X0060350Y0038100D03*
X0063250Y0036600D03*
X0063250Y0036500D03*
X0070750Y0036500D03*
X0073850Y0036600D03*
X0073950Y0039800D03*
X0103450Y0039700D03*
X0110750Y0039400D03*
X0113850Y0039500D03*
X0123950Y0036100D03*
X0143950Y0033200D03*
X0153950Y0033200D03*
X0173850Y0041200D03*
X0183950Y0037800D03*
X0193850Y0036600D03*
X0203650Y0036700D03*
X0168050Y0199100D03*
X0181750Y0201600D03*
X0193550Y0205000D03*
X0120350Y0205000D03*
X0092350Y0205200D03*
D22*
X0107600Y0204600D03*
X0107600Y0204500D03*
X0110000Y0199900D03*
X0110000Y0199800D03*
X0171500Y0205100D03*
X0171600Y0205000D03*
X0171600Y0204900D03*
X0171700Y0204700D03*
X0171800Y0204500D03*
X0173000Y0202300D03*
X0173000Y0202200D03*
X0173000Y0202100D03*
X0173800Y0200600D03*
X0173900Y0200400D03*
X0174000Y0200200D03*
X0174100Y0200000D03*
X0174100Y0199900D03*
X0174200Y0199800D03*
X0174200Y0199700D03*
X0174300Y0199600D03*
X0174300Y0199500D03*
X0174400Y0199400D03*
X0174400Y0199300D03*
X0174500Y0199100D03*
X0174500Y0199000D03*
X0199000Y0200200D03*
X0199000Y0200300D03*
X0125500Y0141100D03*
X0125500Y0141000D03*
X0127900Y0136400D03*
X0127900Y0136300D03*
X0180500Y0037800D03*
X0194100Y0037800D03*
X0160500Y0033200D03*
X0104100Y0036100D03*
X0070000Y0037500D03*
D23*
X0073900Y0036500D03*
X0080700Y0036400D03*
X0091200Y0041900D03*
X0093900Y0038400D03*
X0113900Y0039400D03*
X0163400Y0041500D03*
X0163900Y0033200D03*
X0173900Y0036500D03*
X0173900Y0041100D03*
X0117100Y0135700D03*
X0113500Y0199000D03*
X0125100Y0199100D03*
D24*
X0123800Y0200300D03*
X0123800Y0200400D03*
X0123800Y0200500D03*
X0123800Y0200600D03*
X0123800Y0200700D03*
X0123800Y0200800D03*
X0123800Y0200900D03*
X0123800Y0201000D03*
X0123800Y0201100D03*
X0123800Y0201200D03*
X0123800Y0201300D03*
X0123800Y0201400D03*
X0123800Y0201500D03*
X0123800Y0201600D03*
X0123800Y0201700D03*
X0123800Y0201800D03*
X0123800Y0201900D03*
X0123800Y0202000D03*
X0123800Y0202100D03*
X0123800Y0202200D03*
X0123800Y0202300D03*
X0123800Y0202400D03*
X0123800Y0202500D03*
X0123800Y0202600D03*
X0123800Y0202700D03*
X0123800Y0202800D03*
X0123800Y0202900D03*
X0123800Y0203000D03*
X0123800Y0203100D03*
X0123800Y0203200D03*
X0123800Y0203300D03*
X0123800Y0203400D03*
X0123800Y0203500D03*
X0123800Y0203600D03*
X0123800Y0203700D03*
X0123800Y0203800D03*
X0123800Y0203900D03*
X0123800Y0204000D03*
X0123800Y0204100D03*
X0123800Y0204200D03*
X0123800Y0204300D03*
X0123800Y0204400D03*
X0123800Y0204500D03*
X0123800Y0204600D03*
X0123800Y0204700D03*
X0123800Y0204800D03*
X0123800Y0204900D03*
X0123800Y0205000D03*
X0123800Y0205100D03*
X0129600Y0203900D03*
X0129600Y0203800D03*
X0129600Y0203700D03*
X0129600Y0203600D03*
X0129600Y0203500D03*
X0129600Y0203400D03*
X0129600Y0203300D03*
X0129600Y0203200D03*
X0129600Y0203100D03*
X0129600Y0203000D03*
X0129600Y0202900D03*
X0129600Y0202800D03*
X0129600Y0202700D03*
X0129600Y0202600D03*
X0129600Y0202500D03*
X0129600Y0202400D03*
X0129600Y0202300D03*
X0129600Y0202200D03*
X0129600Y0202100D03*
X0129600Y0202000D03*
X0129600Y0201900D03*
X0129600Y0201800D03*
X0129600Y0201700D03*
X0129600Y0201600D03*
X0129600Y0201500D03*
X0129600Y0201400D03*
X0129600Y0201300D03*
X0129600Y0201200D03*
X0129600Y0201100D03*
X0129600Y0201000D03*
X0129600Y0200900D03*
X0129600Y0200800D03*
X0129600Y0200700D03*
X0129600Y0200600D03*
X0129600Y0200500D03*
X0129600Y0200400D03*
X0129600Y0200300D03*
X0129600Y0200200D03*
X0129600Y0200100D03*
X0129600Y0200000D03*
X0129600Y0199900D03*
X0129600Y0199800D03*
X0129600Y0199700D03*
X0129600Y0199600D03*
X0129600Y0199500D03*
X0129600Y0199400D03*
X0129600Y0199300D03*
X0129600Y0199200D03*
X0129600Y0199100D03*
X0129600Y0199000D03*
X0112500Y0204000D03*
X0108800Y0202200D03*
X0108700Y0202400D03*
X0108900Y0202000D03*
X0110100Y0199500D03*
X0110100Y0199400D03*
X0105100Y0199400D03*
X0105100Y0199500D03*
X0105100Y0199600D03*
X0105100Y0199700D03*
X0105100Y0199800D03*
X0105100Y0199900D03*
X0105100Y0200000D03*
X0105100Y0200100D03*
X0105100Y0200200D03*
X0105100Y0200300D03*
X0105100Y0200400D03*
X0105100Y0200500D03*
X0105100Y0200600D03*
X0105100Y0200700D03*
X0105100Y0200800D03*
X0105100Y0200900D03*
X0105100Y0201000D03*
X0105100Y0201100D03*
X0105100Y0201200D03*
X0105100Y0201300D03*
X0105100Y0201400D03*
X0105100Y0201500D03*
X0105100Y0201600D03*
X0105100Y0201700D03*
X0105100Y0201800D03*
X0105100Y0201900D03*
X0105100Y0202000D03*
X0105100Y0202100D03*
X0105100Y0202200D03*
X0105100Y0202300D03*
X0105100Y0202400D03*
X0105100Y0202500D03*
X0105100Y0202600D03*
X0105100Y0202700D03*
X0105100Y0202800D03*
X0105100Y0202900D03*
X0105100Y0203000D03*
X0105100Y0203100D03*
X0105100Y0203200D03*
X0105100Y0203300D03*
X0105100Y0203400D03*
X0105100Y0203500D03*
X0105100Y0203600D03*
X0105100Y0203700D03*
X0105100Y0203800D03*
X0105100Y0203900D03*
X0105100Y0204000D03*
X0105100Y0204100D03*
X0105100Y0204200D03*
X0105100Y0204300D03*
X0105100Y0204400D03*
X0105100Y0204500D03*
X0105100Y0204600D03*
X0105100Y0204700D03*
X0105100Y0204800D03*
X0105100Y0204900D03*
X0105100Y0205000D03*
X0105100Y0205100D03*
X0107500Y0205000D03*
X0107500Y0204900D03*
X0105100Y0199300D03*
X0105100Y0199200D03*
X0105100Y0199100D03*
X0105100Y0199000D03*
X0093900Y0199100D03*
X0093900Y0199200D03*
X0093900Y0199300D03*
X0093900Y0199400D03*
X0093900Y0199500D03*
X0093900Y0199600D03*
X0093900Y0199700D03*
X0093900Y0199800D03*
X0093900Y0199900D03*
X0093900Y0200000D03*
X0093900Y0200100D03*
X0093900Y0200200D03*
X0093900Y0200300D03*
X0093900Y0200400D03*
X0093900Y0200500D03*
X0093900Y0200600D03*
X0093900Y0200700D03*
X0093900Y0200800D03*
X0093900Y0200900D03*
X0093900Y0201000D03*
X0093900Y0201100D03*
X0093900Y0201200D03*
X0093900Y0201300D03*
X0091500Y0201300D03*
X0091500Y0201400D03*
X0091500Y0201500D03*
X0091500Y0201200D03*
X0091500Y0201100D03*
X0091500Y0201000D03*
X0091500Y0200900D03*
X0091500Y0200800D03*
X0091500Y0200700D03*
X0091500Y0200600D03*
X0091500Y0200500D03*
X0091500Y0200400D03*
X0091500Y0200300D03*
X0091500Y0200200D03*
X0091500Y0200100D03*
X0091500Y0200000D03*
X0091500Y0199900D03*
X0091500Y0199800D03*
X0091500Y0199700D03*
X0091500Y0199600D03*
X0091500Y0199500D03*
X0091500Y0199400D03*
X0091500Y0199300D03*
X0091500Y0199200D03*
X0091500Y0199100D03*
X0091500Y0199000D03*
X0113500Y0141600D03*
X0113500Y0141500D03*
X0113500Y0141400D03*
X0113500Y0141300D03*
X0113500Y0141200D03*
X0113500Y0141100D03*
X0113500Y0141000D03*
X0113500Y0140900D03*
X0113500Y0140800D03*
X0113500Y0140700D03*
X0113500Y0140600D03*
X0113500Y0140500D03*
X0113500Y0140400D03*
X0113500Y0140300D03*
X0113500Y0140200D03*
X0113500Y0140100D03*
X0113500Y0140000D03*
X0113500Y0139900D03*
X0113500Y0139800D03*
X0113500Y0139700D03*
X0113500Y0139600D03*
X0113500Y0139500D03*
X0113500Y0139400D03*
X0113500Y0139300D03*
X0113500Y0139200D03*
X0113500Y0139100D03*
X0113500Y0139000D03*
X0113500Y0138900D03*
X0113500Y0138800D03*
X0113500Y0138700D03*
X0113500Y0138600D03*
X0113500Y0138500D03*
X0113500Y0138400D03*
X0113500Y0138300D03*
X0113500Y0138200D03*
X0113500Y0138100D03*
X0113500Y0138000D03*
X0113500Y0137900D03*
X0113500Y0137800D03*
X0113500Y0137700D03*
X0113500Y0137600D03*
X0113500Y0137500D03*
X0113500Y0137400D03*
X0113500Y0137300D03*
X0113500Y0137200D03*
X0113500Y0137100D03*
X0113500Y0137000D03*
X0113500Y0136900D03*
X0113500Y0136800D03*
X0113500Y0136700D03*
X0113500Y0136600D03*
X0113500Y0136500D03*
X0113500Y0136400D03*
X0113500Y0136300D03*
X0113500Y0136200D03*
X0113500Y0136100D03*
X0113500Y0136000D03*
X0113500Y0135900D03*
X0113500Y0135800D03*
X0113500Y0135700D03*
X0113500Y0135600D03*
X0111000Y0135600D03*
X0111000Y0135700D03*
X0111000Y0135800D03*
X0111000Y0135900D03*
X0111000Y0136000D03*
X0111000Y0136100D03*
X0111000Y0136200D03*
X0111000Y0136300D03*
X0111000Y0136400D03*
X0111000Y0136500D03*
X0111000Y0136600D03*
X0111000Y0136700D03*
X0111000Y0136800D03*
X0111000Y0136900D03*
X0111000Y0137000D03*
X0111000Y0137100D03*
X0111000Y0137200D03*
X0111000Y0137300D03*
X0111000Y0137400D03*
X0111000Y0137500D03*
X0111000Y0137600D03*
X0111000Y0137700D03*
X0111000Y0137800D03*
X0111000Y0137900D03*
X0111000Y0138000D03*
X0111000Y0138100D03*
X0111000Y0138200D03*
X0111000Y0138300D03*
X0111000Y0138400D03*
X0111000Y0138500D03*
X0111000Y0138600D03*
X0111000Y0138700D03*
X0111000Y0138800D03*
X0111000Y0138900D03*
X0111000Y0139000D03*
X0111000Y0139100D03*
X0111000Y0139200D03*
X0111000Y0139300D03*
X0111000Y0139400D03*
X0111000Y0139500D03*
X0111000Y0139600D03*
X0111000Y0139700D03*
X0111000Y0139800D03*
X0111000Y0139900D03*
X0108100Y0139200D03*
X0108000Y0139700D03*
X0111000Y0135500D03*
X0123000Y0135600D03*
X0123000Y0135700D03*
X0123000Y0135800D03*
X0123000Y0135900D03*
X0123000Y0136000D03*
X0123000Y0136100D03*
X0123000Y0136200D03*
X0123000Y0136300D03*
X0123000Y0136400D03*
X0123000Y0136500D03*
X0123000Y0136600D03*
X0123000Y0136700D03*
X0123000Y0136800D03*
X0123000Y0136900D03*
X0123000Y0137000D03*
X0123000Y0137100D03*
X0123000Y0137200D03*
X0123000Y0137300D03*
X0123000Y0137400D03*
X0123000Y0137500D03*
X0123000Y0137600D03*
X0123000Y0137700D03*
X0123000Y0137800D03*
X0123000Y0137900D03*
X0123000Y0138000D03*
X0123000Y0138100D03*
X0123000Y0138200D03*
X0123000Y0138300D03*
X0123000Y0138400D03*
X0123000Y0138500D03*
X0123000Y0138600D03*
X0123000Y0138700D03*
X0123000Y0138800D03*
X0123000Y0138900D03*
X0123000Y0139000D03*
X0123000Y0139100D03*
X0123000Y0139200D03*
X0123000Y0139300D03*
X0123000Y0139400D03*
X0123000Y0139500D03*
X0123000Y0139600D03*
X0123000Y0139700D03*
X0123000Y0139800D03*
X0123000Y0139900D03*
X0123000Y0140000D03*
X0123000Y0140100D03*
X0123000Y0140200D03*
X0123000Y0140300D03*
X0123000Y0140400D03*
X0123000Y0140500D03*
X0123000Y0140600D03*
X0123000Y0140700D03*
X0123000Y0140800D03*
X0123000Y0140900D03*
X0123000Y0141000D03*
X0123000Y0141100D03*
X0123000Y0141200D03*
X0123000Y0141300D03*
X0123000Y0141400D03*
X0123000Y0141500D03*
X0123000Y0141600D03*
X0125400Y0141500D03*
X0125400Y0141400D03*
X0126600Y0138900D03*
X0126700Y0138700D03*
X0126800Y0138500D03*
X0128000Y0136000D03*
X0128000Y0135900D03*
X0158500Y0199000D03*
X0158500Y0199100D03*
X0158500Y0199200D03*
X0158500Y0199300D03*
X0158500Y0199400D03*
X0158500Y0199500D03*
X0158500Y0199600D03*
X0158500Y0199700D03*
X0158500Y0199800D03*
X0158500Y0199900D03*
X0158500Y0200000D03*
X0158500Y0200100D03*
X0158500Y0200200D03*
X0158500Y0200300D03*
X0158500Y0200400D03*
X0158500Y0200500D03*
X0158500Y0200600D03*
X0158500Y0200700D03*
X0158500Y0200800D03*
X0158500Y0200900D03*
X0158500Y0201000D03*
X0158500Y0201100D03*
X0158500Y0201200D03*
X0158500Y0201300D03*
X0158500Y0201400D03*
X0158500Y0201500D03*
X0158500Y0202800D03*
X0158500Y0202900D03*
X0158500Y0203000D03*
X0158500Y0203100D03*
X0158500Y0203200D03*
X0158500Y0203300D03*
X0158500Y0203400D03*
X0158500Y0203500D03*
X0158500Y0203600D03*
X0158500Y0203700D03*
X0158500Y0203800D03*
X0158500Y0203900D03*
X0166800Y0200300D03*
X0171300Y0199000D03*
X0171400Y0199200D03*
X0171500Y0199400D03*
X0171600Y0199600D03*
X0171700Y0199800D03*
X0171800Y0200000D03*
X0171900Y0200100D03*
X0171900Y0200200D03*
X0172000Y0200300D03*
X0172000Y0200400D03*
X0172100Y0200500D03*
X0172100Y0200600D03*
X0172200Y0200700D03*
X0172200Y0200800D03*
X0173800Y0203700D03*
X0173900Y0203900D03*
X0185300Y0200200D03*
X0185300Y0200100D03*
X0185300Y0200000D03*
X0185300Y0199900D03*
X0185300Y0199800D03*
X0185300Y0199700D03*
X0185300Y0199600D03*
X0185300Y0199500D03*
X0185300Y0199400D03*
X0185300Y0199300D03*
X0185300Y0199200D03*
X0185300Y0199100D03*
X0185300Y0199000D03*
X0199000Y0199800D03*
X0201200Y0199000D03*
X0037100Y0069100D03*
X0037100Y0069000D03*
X0037100Y0068900D03*
X0037100Y0068800D03*
X0037100Y0068700D03*
X0037100Y0068600D03*
X0037100Y0068500D03*
X0037100Y0068400D03*
X0037100Y0068300D03*
X0037100Y0068200D03*
X0037100Y0068100D03*
X0069900Y0041500D03*
X0072300Y0035500D03*
X0072300Y0035400D03*
X0072300Y0035300D03*
X0072300Y0035200D03*
X0072300Y0035100D03*
X0072300Y0035000D03*
X0072300Y0034900D03*
X0072300Y0034800D03*
X0072300Y0034700D03*
X0072300Y0034600D03*
X0072300Y0034500D03*
X0072300Y0034400D03*
X0072300Y0034300D03*
X0072300Y0034200D03*
X0072300Y0034100D03*
X0072300Y0034000D03*
X0072300Y0033900D03*
X0072300Y0033800D03*
X0072300Y0033700D03*
X0072300Y0033600D03*
X0079800Y0036900D03*
X0094800Y0035900D03*
X0094800Y0035800D03*
X0094800Y0035700D03*
X0094800Y0035600D03*
X0094800Y0035500D03*
X0094800Y0035400D03*
X0094800Y0035300D03*
X0094800Y0035200D03*
X0094800Y0035100D03*
X0094800Y0035000D03*
X0094800Y0034900D03*
X0094800Y0034800D03*
X0094800Y0034700D03*
X0094800Y0034600D03*
X0094800Y0034500D03*
X0094800Y0034400D03*
X0112300Y0036600D03*
X0112300Y0036700D03*
X0112300Y0036800D03*
X0112300Y0036900D03*
X0112300Y0037000D03*
X0112300Y0037100D03*
X0112300Y0037200D03*
X0112300Y0037300D03*
X0112300Y0037400D03*
X0112300Y0037500D03*
X0112300Y0037600D03*
X0112300Y0037700D03*
X0112300Y0037800D03*
X0112300Y0037900D03*
X0112300Y0038000D03*
X0112300Y0038100D03*
X0112300Y0038200D03*
X0112300Y0038300D03*
X0112300Y0038400D03*
X0164800Y0036700D03*
X0164800Y0036600D03*
X0164800Y0036500D03*
X0164800Y0036400D03*
X0164800Y0036300D03*
X0164800Y0036200D03*
X0164800Y0036100D03*
X0164800Y0036000D03*
X0164800Y0035900D03*
X0164800Y0035800D03*
X0164800Y0035700D03*
X0164800Y0035600D03*
X0164800Y0035500D03*
X0164800Y0035400D03*
X0164800Y0035300D03*
X0164800Y0035200D03*
X0164800Y0035100D03*
X0164800Y0035000D03*
X0164800Y0034900D03*
X0164800Y0034800D03*
X0164800Y0034700D03*
X0164800Y0034600D03*
X0164800Y0034500D03*
X0172300Y0034500D03*
X0172300Y0034600D03*
X0172300Y0034700D03*
X0172300Y0034800D03*
X0172300Y0034900D03*
X0172300Y0035000D03*
X0172300Y0035100D03*
X0172300Y0035200D03*
X0172300Y0035300D03*
X0172300Y0035400D03*
X0172300Y0035500D03*
X0172300Y0034400D03*
X0172300Y0034300D03*
X0172300Y0034200D03*
X0172300Y0034100D03*
X0172300Y0034000D03*
X0172300Y0033900D03*
X0172300Y0033800D03*
X0172300Y0033700D03*
X0172300Y0038300D03*
X0172300Y0038400D03*
X0172300Y0038500D03*
X0172300Y0038600D03*
X0172300Y0038700D03*
X0172300Y0038800D03*
X0172300Y0038900D03*
X0172300Y0039000D03*
X0172300Y0039100D03*
X0172300Y0039200D03*
X0172300Y0039300D03*
X0172300Y0039400D03*
X0172300Y0039500D03*
X0172300Y0039600D03*
X0172300Y0039700D03*
X0172300Y0039800D03*
X0172300Y0039900D03*
X0172300Y0040000D03*
X0172300Y0040100D03*
X0179800Y0039000D03*
X0184800Y0035500D03*
X0184800Y0035400D03*
X0184800Y0035300D03*
X0184800Y0035200D03*
X0184800Y0035100D03*
X0184800Y0035000D03*
X0184800Y0034900D03*
X0184800Y0034800D03*
X0184800Y0034700D03*
X0184800Y0034600D03*
X0184800Y0034500D03*
X0184800Y0034400D03*
X0184800Y0034300D03*
X0184800Y0034200D03*
X0184800Y0034100D03*
X0184800Y0034000D03*
X0184800Y0033900D03*
X0184800Y0033800D03*
X0184800Y0033700D03*
X0184800Y0033600D03*
X0184800Y0033500D03*
X0184800Y0033400D03*
X0184800Y0033300D03*
X0184800Y0033200D03*
X0192300Y0033700D03*
X0192300Y0033800D03*
X0192300Y0033900D03*
X0192300Y0034000D03*
X0192300Y0034100D03*
X0192300Y0034200D03*
X0192300Y0034300D03*
X0192300Y0034400D03*
X0192300Y0034500D03*
X0192300Y0034600D03*
X0192300Y0034700D03*
X0192300Y0034800D03*
X0192300Y0034900D03*
X0192300Y0035000D03*
X0192300Y0035100D03*
X0192300Y0035200D03*
X0192300Y0035300D03*
X0192300Y0035400D03*
X0192300Y0035500D03*
X0194900Y0039000D03*
X0202100Y0035600D03*
X0202100Y0035500D03*
X0202100Y0035400D03*
X0202100Y0035300D03*
X0202100Y0035200D03*
X0202100Y0035100D03*
X0202100Y0035000D03*
X0202100Y0034900D03*
X0202100Y0034800D03*
X0202100Y0034700D03*
X0202100Y0034600D03*
X0202100Y0034500D03*
X0202100Y0034400D03*
X0202100Y0034300D03*
X0202100Y0034200D03*
X0202100Y0034100D03*
X0202100Y0034000D03*
X0202100Y0033900D03*
X0202100Y0033800D03*
X0054200Y0034500D03*
D25*
X0051700Y0034400D03*
X0051700Y0034300D03*
X0051700Y0034200D03*
X0051700Y0034100D03*
X0061600Y0034100D03*
X0061600Y0034200D03*
X0061600Y0034300D03*
X0061600Y0034400D03*
X0061600Y0034000D03*
X0061600Y0033900D03*
X0061600Y0033800D03*
X0061600Y0033700D03*
X0061600Y0033600D03*
X0061600Y0033500D03*
X0061600Y0033400D03*
X0061600Y0033300D03*
X0061600Y0035700D03*
X0061600Y0035800D03*
X0061600Y0035900D03*
X0061600Y0036000D03*
X0061600Y0036100D03*
X0061600Y0036200D03*
X0082300Y0037800D03*
X0082300Y0037900D03*
X0082300Y0038000D03*
X0082300Y0038100D03*
X0082300Y0038200D03*
X0082300Y0038300D03*
X0082300Y0038400D03*
X0082300Y0038500D03*
X0082300Y0038600D03*
X0082300Y0038700D03*
X0082300Y0038800D03*
X0082300Y0038900D03*
X0082300Y0034000D03*
X0092300Y0034000D03*
X0092300Y0034100D03*
X0092300Y0034200D03*
X0092300Y0034300D03*
X0092300Y0033900D03*
X0092300Y0033800D03*
X0092300Y0036000D03*
X0092300Y0036100D03*
X0092300Y0036200D03*
X0092300Y0036300D03*
X0092300Y0036400D03*
X0092300Y0036500D03*
X0102300Y0034200D03*
X0102300Y0034100D03*
X0102300Y0034000D03*
X0102300Y0033900D03*
X0102300Y0033800D03*
X0132200Y0038600D03*
X0132200Y0038700D03*
X0132200Y0038800D03*
X0132200Y0038900D03*
X0132200Y0039000D03*
X0132200Y0039100D03*
X0132200Y0039200D03*
X0132200Y0039300D03*
X0132200Y0039400D03*
X0132200Y0039500D03*
X0132200Y0039600D03*
X0182300Y0036300D03*
X0182300Y0036200D03*
X0182300Y0036100D03*
X0182300Y0036000D03*
X0182300Y0035900D03*
X0182300Y0035800D03*
X0182300Y0035700D03*
X0182300Y0035600D03*
X0034600Y0066900D03*
X0034600Y0067000D03*
X0034600Y0067100D03*
X0034600Y0067200D03*
X0034600Y0067300D03*
X0034600Y0067400D03*
X0034600Y0067500D03*
X0034600Y0067600D03*
X0034600Y0067700D03*
X0034600Y0067800D03*
X0034600Y0067900D03*
X0034600Y0068000D03*
X0034600Y0069200D03*
X0034600Y0069300D03*
X0034600Y0069400D03*
X0034600Y0069500D03*
X0034600Y0069600D03*
X0034600Y0069700D03*
D26*
X0060350Y0038300D03*
X0080850Y0033300D03*
X0083750Y0034600D03*
X0091150Y0041800D03*
X0093750Y0039500D03*
X0093750Y0039400D03*
X0093750Y0039300D03*
X0093750Y0039200D03*
X0093750Y0039100D03*
X0093750Y0039000D03*
X0093750Y0038900D03*
X0093750Y0038800D03*
X0093750Y0038700D03*
X0123750Y0036500D03*
X0123750Y0036400D03*
X0143750Y0034400D03*
X0143750Y0034300D03*
X0143750Y0034200D03*
X0143750Y0034100D03*
X0143750Y0034000D03*
X0143750Y0033900D03*
X0143750Y0033800D03*
X0143750Y0033700D03*
X0143750Y0033600D03*
X0143750Y0033500D03*
X0153750Y0033600D03*
X0153750Y0033700D03*
X0153750Y0033800D03*
X0153750Y0033900D03*
X0153750Y0034000D03*
X0153750Y0034100D03*
X0153750Y0034200D03*
X0153750Y0034300D03*
X0153750Y0034400D03*
X0161150Y0036600D03*
X0160850Y0038000D03*
X0160850Y0038100D03*
X0160850Y0038200D03*
X0160850Y0038300D03*
X0160850Y0038400D03*
X0160850Y0038500D03*
X0160850Y0038600D03*
X0160850Y0038700D03*
X0160850Y0038800D03*
X0160850Y0038900D03*
X0160850Y0039000D03*
X0160850Y0039100D03*
X0163750Y0033500D03*
X0163750Y0033400D03*
X0183750Y0038100D03*
X0183750Y0038200D03*
X0183750Y0038300D03*
X0183750Y0038400D03*
X0183750Y0038500D03*
X0183750Y0038600D03*
X0183750Y0038700D03*
X0183750Y0038800D03*
X0183750Y0038900D03*
X0183750Y0039000D03*
X0117150Y0135900D03*
X0120350Y0199400D03*
X0120350Y0204700D03*
X0120350Y0204800D03*
X0092550Y0205000D03*
X0092550Y0202100D03*
X0092550Y0201900D03*
X0168050Y0199200D03*
X0181750Y0201800D03*
X0181750Y0201900D03*
X0188850Y0199400D03*
X0193550Y0199400D03*
X0193550Y0199300D03*
X0193550Y0204700D03*
X0193550Y0204800D03*
X0188850Y0204800D03*
X0188850Y0204900D03*
D27*
X0092350Y0033300D03*
X0081950Y0033800D03*
X0051650Y0033400D03*
D28*
X0059650Y0041400D03*
X0063550Y0038100D03*
X0090450Y0038500D03*
X0104250Y0036200D03*
X0120350Y0036300D03*
X0140450Y0033300D03*
X0150450Y0033300D03*
X0164250Y0038100D03*
X0180450Y0037900D03*
X0194250Y0037900D03*
X0127750Y0136900D03*
X0127750Y0137000D03*
X0125650Y0140400D03*
X0125650Y0140500D03*
X0108750Y0137500D03*
X0108750Y0137400D03*
X0108750Y0137300D03*
X0109850Y0200400D03*
X0109850Y0200500D03*
X0107750Y0203800D03*
X0107750Y0203900D03*
X0107750Y0204000D03*
X0172950Y0202600D03*
X0173050Y0201800D03*
X0198950Y0201000D03*
X0198950Y0200900D03*
D29*
X0193550Y0199200D03*
X0188850Y0199200D03*
X0188850Y0205000D03*
X0193550Y0204900D03*
X0181750Y0201700D03*
X0120350Y0199200D03*
X0120350Y0204900D03*
X0113450Y0205200D03*
X0092450Y0205100D03*
X0092450Y0202000D03*
X0117150Y0141500D03*
X0070850Y0041000D03*
X0062950Y0041400D03*
X0060350Y0038200D03*
X0083850Y0035200D03*
X0121150Y0039600D03*
X0123850Y0036200D03*
X0141150Y0036700D03*
X0143850Y0033300D03*
X0151250Y0036700D03*
X0153850Y0033300D03*
X0161150Y0036700D03*
X0181150Y0041300D03*
X0183850Y0037900D03*
D30*
X0160400Y0033300D03*
X0120400Y0036200D03*
X0090500Y0038400D03*
X0080000Y0036800D03*
X0070100Y0041400D03*
X0127800Y0136700D03*
X0127800Y0136800D03*
X0125600Y0140600D03*
X0125600Y0140700D03*
X0108800Y0137200D03*
X0109900Y0200200D03*
X0109900Y0200300D03*
X0107700Y0204100D03*
X0107700Y0204200D03*
X0173000Y0202500D03*
X0173000Y0201900D03*
X0199000Y0200800D03*
X0199000Y0200700D03*
X0199000Y0200600D03*
D31*
X0188800Y0199300D03*
X0159500Y0204000D03*
X0159500Y0204100D03*
X0159500Y0204200D03*
X0159500Y0204300D03*
X0159500Y0204400D03*
X0159500Y0204500D03*
X0159500Y0204600D03*
X0159500Y0204700D03*
X0159500Y0204800D03*
X0159500Y0204900D03*
X0159500Y0205000D03*
X0159500Y0205100D03*
X0125100Y0199200D03*
X0120400Y0199300D03*
X0113500Y0199300D03*
X0113500Y0199400D03*
X0113500Y0199500D03*
X0113500Y0199600D03*
X0113500Y0199700D03*
X0113500Y0199800D03*
X0113500Y0199900D03*
X0113500Y0200000D03*
X0113500Y0200100D03*
X0113500Y0200200D03*
X0113500Y0199200D03*
X0113500Y0199100D03*
X0113500Y0204100D03*
X0113500Y0204200D03*
X0113500Y0204300D03*
X0113500Y0204400D03*
X0113500Y0204500D03*
X0113500Y0204600D03*
X0113500Y0204700D03*
X0113500Y0204800D03*
X0113500Y0204900D03*
X0113500Y0205000D03*
X0113500Y0205100D03*
X0117100Y0141400D03*
X0117100Y0135800D03*
X0153600Y0041400D03*
X0153800Y0033500D03*
X0153800Y0033400D03*
X0143800Y0033400D03*
X0163800Y0033300D03*
X0183800Y0038000D03*
X0190900Y0038000D03*
X0190900Y0038100D03*
X0190900Y0038200D03*
X0190900Y0038300D03*
X0190900Y0038400D03*
X0190900Y0038500D03*
X0190900Y0038600D03*
X0190900Y0038700D03*
X0190900Y0038800D03*
X0190900Y0038900D03*
X0190900Y0039000D03*
X0190900Y0037900D03*
X0190900Y0037800D03*
X0193500Y0041300D03*
X0123800Y0036300D03*
X0103500Y0039600D03*
X0100900Y0037300D03*
X0100900Y0037200D03*
X0100900Y0037100D03*
X0100900Y0037000D03*
X0100900Y0036900D03*
X0100900Y0036800D03*
X0100900Y0036700D03*
X0100900Y0036600D03*
X0100900Y0036500D03*
X0100900Y0036400D03*
X0100900Y0036300D03*
X0100900Y0036200D03*
X0100900Y0036100D03*
X0093800Y0038500D03*
X0093800Y0038600D03*
X0070900Y0037900D03*
X0062900Y0041300D03*
D32*
X0062850Y0034500D03*
X0071150Y0038000D03*
X0081050Y0033400D03*
X0091150Y0041500D03*
X0121150Y0039300D03*
X0141150Y0036300D03*
X0163450Y0041200D03*
X0181150Y0041000D03*
X0181150Y0040900D03*
X0200950Y0037900D03*
X0052950Y0036800D03*
X0052950Y0036700D03*
X0052950Y0036600D03*
X0052950Y0036500D03*
X0052950Y0036400D03*
X0052950Y0036300D03*
X0052950Y0036200D03*
X0052950Y0036100D03*
X0052950Y0036000D03*
X0052950Y0035900D03*
X0052950Y0035800D03*
X0052950Y0035700D03*
X0125050Y0199800D03*
X0125050Y0199900D03*
X0125050Y0200000D03*
X0125050Y0200100D03*
X0125050Y0200200D03*
X0168050Y0200200D03*
X0168050Y0200100D03*
X0168050Y0200000D03*
X0168050Y0199900D03*
X0168050Y0199800D03*
X0168050Y0199700D03*
X0168050Y0199600D03*
D33*
X0072550Y0038800D03*
X0082550Y0034200D03*
X0092350Y0033400D03*
X0132350Y0034800D03*
X0051650Y0033500D03*
D34*
X0059600Y0041200D03*
X0059600Y0041300D03*
X0063600Y0038200D03*
X0074500Y0039500D03*
X0090400Y0038600D03*
X0104300Y0036300D03*
X0120300Y0036400D03*
X0140400Y0033400D03*
X0150400Y0033400D03*
X0160300Y0033400D03*
X0160300Y0033500D03*
X0164300Y0038200D03*
X0164300Y0038300D03*
X0180400Y0038000D03*
X0194300Y0038000D03*
X0127700Y0137100D03*
X0127700Y0137200D03*
X0125700Y0140200D03*
X0125700Y0140300D03*
X0108800Y0137700D03*
X0108800Y0137600D03*
X0109800Y0200600D03*
X0109800Y0200700D03*
X0107800Y0203600D03*
X0107800Y0203700D03*
X0173000Y0202700D03*
X0173000Y0201700D03*
X0199000Y0201300D03*
X0199000Y0201200D03*
X0199000Y0201100D03*
D35*
X0087400Y0131900D03*
X0087400Y0131800D03*
X0087400Y0131700D03*
X0087400Y0131600D03*
X0087400Y0131500D03*
X0087400Y0131400D03*
X0087400Y0131300D03*
X0087400Y0131200D03*
X0087400Y0131100D03*
X0087400Y0131000D03*
X0087400Y0130900D03*
X0071900Y0190600D03*
X0071900Y0190700D03*
X0071900Y0190800D03*
X0071900Y0190900D03*
X0071900Y0191000D03*
X0071900Y0191100D03*
X0071900Y0191200D03*
X0071900Y0191300D03*
X0071900Y0191400D03*
X0071900Y0191500D03*
X0071900Y0191600D03*
X0071400Y0040700D03*
X0073300Y0040100D03*
X0081300Y0033500D03*
D36*
X0072250Y0038500D03*
X0092350Y0033500D03*
X0112450Y0034700D03*
X0122350Y0034700D03*
X0132250Y0034700D03*
X0142450Y0041400D03*
X0152350Y0038300D03*
X0051650Y0033700D03*
X0051650Y0033600D03*
X0034650Y0070000D03*
D37*
X0071900Y0040500D03*
X0072300Y0040400D03*
X0082100Y0035800D03*
X0081500Y0033600D03*
X0152300Y0037900D03*
D38*
X0152300Y0038400D03*
X0142400Y0041300D03*
X0132200Y0034600D03*
X0132200Y0034500D03*
X0122300Y0034500D03*
X0122300Y0034600D03*
X0112400Y0034600D03*
X0102400Y0034600D03*
X0102400Y0034700D03*
X0092300Y0033700D03*
X0092300Y0033600D03*
X0092300Y0036700D03*
X0092300Y0036800D03*
X0082200Y0033900D03*
X0034600Y0069900D03*
X0182300Y0036500D03*
X0182300Y0036400D03*
X0192300Y0036500D03*
X0202100Y0036600D03*
D39*
X0194400Y0038300D03*
X0194400Y0038400D03*
X0194400Y0038500D03*
X0180300Y0038400D03*
X0180300Y0038300D03*
X0180300Y0038200D03*
X0164400Y0038600D03*
X0164400Y0038700D03*
X0164400Y0038800D03*
X0164400Y0038900D03*
X0164400Y0039000D03*
X0164400Y0039100D03*
X0160200Y0034300D03*
X0160200Y0034200D03*
X0160200Y0034100D03*
X0160200Y0034000D03*
X0160200Y0033900D03*
X0160200Y0033800D03*
X0160200Y0033700D03*
X0150300Y0033700D03*
X0150300Y0033800D03*
X0150300Y0033900D03*
X0150300Y0034000D03*
X0150300Y0034100D03*
X0150300Y0034200D03*
X0150300Y0034300D03*
X0140300Y0033800D03*
X0140300Y0033700D03*
X0140300Y0033600D03*
X0120200Y0036700D03*
X0120200Y0036800D03*
X0120200Y0036900D03*
X0120200Y0037000D03*
X0120200Y0037100D03*
X0120200Y0037200D03*
X0120200Y0037300D03*
X0104500Y0037300D03*
X0104400Y0036800D03*
X0104400Y0036700D03*
X0104400Y0036600D03*
X0090300Y0038800D03*
X0090300Y0038900D03*
X0070300Y0041300D03*
X0063700Y0039100D03*
X0063700Y0039000D03*
X0063700Y0038900D03*
X0063700Y0038800D03*
X0063700Y0038700D03*
X0063700Y0038600D03*
X0063700Y0038500D03*
X0108800Y0138000D03*
X0108800Y0138100D03*
X0108800Y0138200D03*
X0110600Y0141200D03*
X0110600Y0141300D03*
X0110600Y0141400D03*
X0110600Y0141500D03*
X0110600Y0141600D03*
X0107100Y0141700D03*
X0125800Y0139900D03*
X0125800Y0139800D03*
X0125800Y0139700D03*
X0127600Y0137700D03*
X0127600Y0137600D03*
X0109700Y0201000D03*
X0109700Y0201100D03*
X0107900Y0203200D03*
X0107900Y0203300D03*
X0173000Y0202900D03*
X0173000Y0201500D03*
X0199000Y0201500D03*
X0199000Y0201600D03*
X0199000Y0201700D03*
X0200900Y0205100D03*
D40*
X0193500Y0199500D03*
X0181700Y0202000D03*
X0168100Y0199300D03*
X0125100Y0199300D03*
X0120400Y0199500D03*
X0092600Y0201700D03*
X0092600Y0201800D03*
X0092600Y0202200D03*
X0092600Y0202300D03*
X0092600Y0204800D03*
X0092600Y0204900D03*
X0117100Y0141300D03*
X0117100Y0141200D03*
X0117100Y0136000D03*
X0153600Y0041300D03*
X0153600Y0041200D03*
X0151200Y0036600D03*
X0141200Y0036600D03*
X0130900Y0036100D03*
X0123700Y0036600D03*
X0123700Y0036700D03*
X0123700Y0036800D03*
X0123700Y0036900D03*
X0123700Y0037000D03*
X0123700Y0037100D03*
X0123700Y0037200D03*
X0123700Y0037300D03*
X0121100Y0039500D03*
X0080900Y0036300D03*
X0073700Y0039200D03*
X0073700Y0039900D03*
X0071000Y0040900D03*
X0062900Y0041200D03*
X0060300Y0038400D03*
X0163400Y0041400D03*
X0163700Y0034400D03*
X0163700Y0034300D03*
X0163700Y0034200D03*
X0163700Y0034100D03*
X0163700Y0034000D03*
X0163700Y0033900D03*
X0163700Y0033800D03*
X0163700Y0033700D03*
X0163700Y0033600D03*
X0181200Y0041200D03*
X0193500Y0041200D03*
D41*
X0082850Y0034300D03*
X0081750Y0033700D03*
X0072850Y0038900D03*
D42*
X0072350Y0038700D03*
X0072350Y0038600D03*
X0072350Y0036400D03*
X0072350Y0036300D03*
X0072350Y0036200D03*
X0072350Y0036100D03*
X0072350Y0036000D03*
X0072350Y0035900D03*
X0072350Y0035800D03*
X0072350Y0035700D03*
X0072350Y0035600D03*
X0082350Y0034100D03*
X0082250Y0040100D03*
X0082250Y0040200D03*
X0082250Y0040300D03*
X0082250Y0040400D03*
X0082250Y0040500D03*
X0082250Y0040600D03*
X0082250Y0040700D03*
X0082250Y0040800D03*
X0082250Y0040900D03*
X0082250Y0041000D03*
X0082250Y0041100D03*
X0082250Y0042900D03*
X0082250Y0043000D03*
X0082250Y0043100D03*
X0082250Y0043200D03*
X0082250Y0043300D03*
X0082250Y0043400D03*
X0082250Y0043500D03*
X0082250Y0043600D03*
X0082250Y0043700D03*
X0082250Y0043800D03*
X0082250Y0043900D03*
X0092350Y0036600D03*
X0102350Y0034500D03*
X0102350Y0034400D03*
X0102350Y0034300D03*
X0112350Y0034300D03*
X0112350Y0034400D03*
X0112350Y0034500D03*
X0112350Y0034200D03*
X0112350Y0034100D03*
X0112350Y0034000D03*
X0112350Y0033900D03*
X0112350Y0033800D03*
X0112350Y0038500D03*
X0112350Y0038600D03*
X0112350Y0038700D03*
X0112350Y0038800D03*
X0112350Y0038900D03*
X0112350Y0039000D03*
X0112350Y0039100D03*
X0112350Y0039200D03*
X0112350Y0039300D03*
X0122250Y0034400D03*
X0122250Y0034300D03*
X0122250Y0034200D03*
X0122250Y0034100D03*
X0122250Y0034000D03*
X0122250Y0033900D03*
X0122250Y0033800D03*
X0132150Y0033800D03*
X0132150Y0033900D03*
X0132150Y0034000D03*
X0132150Y0034100D03*
X0132150Y0034200D03*
X0132150Y0034300D03*
X0132150Y0034400D03*
X0132250Y0038500D03*
X0132250Y0039700D03*
X0142350Y0040400D03*
X0142350Y0040500D03*
X0142350Y0040600D03*
X0142350Y0040700D03*
X0142350Y0040800D03*
X0142350Y0040900D03*
X0142350Y0041000D03*
X0142350Y0041100D03*
X0142350Y0041200D03*
X0152350Y0039100D03*
X0152350Y0039000D03*
X0152350Y0038900D03*
X0152350Y0038800D03*
X0152350Y0038700D03*
X0152350Y0038600D03*
X0152350Y0038500D03*
X0172350Y0040200D03*
X0172350Y0040300D03*
X0172350Y0040400D03*
X0172350Y0040500D03*
X0172350Y0040600D03*
X0172350Y0040700D03*
X0172350Y0040800D03*
X0172350Y0040900D03*
X0172350Y0041000D03*
X0172350Y0036400D03*
X0172350Y0036300D03*
X0172350Y0036200D03*
X0172350Y0036100D03*
X0172350Y0036000D03*
X0172350Y0035900D03*
X0172350Y0035800D03*
X0172350Y0035700D03*
X0172350Y0035600D03*
X0192350Y0035600D03*
X0192350Y0035700D03*
X0192350Y0035800D03*
X0192350Y0035900D03*
X0192350Y0036000D03*
X0192350Y0036100D03*
X0192350Y0036200D03*
X0192350Y0036300D03*
X0192350Y0036400D03*
X0202150Y0036400D03*
X0202150Y0036500D03*
X0202150Y0036300D03*
X0202150Y0036200D03*
X0202150Y0036100D03*
X0202150Y0036000D03*
X0202150Y0035900D03*
X0202150Y0035800D03*
X0202150Y0035700D03*
X0202150Y0040200D03*
X0202150Y0040300D03*
X0202150Y0040400D03*
X0202150Y0040500D03*
X0202150Y0040600D03*
X0202150Y0040700D03*
X0202150Y0040800D03*
X0202150Y0040900D03*
X0202150Y0041000D03*
X0202150Y0041100D03*
X0202150Y0041200D03*
X0202150Y0041300D03*
X0202150Y0041400D03*
X0061650Y0043800D03*
X0061650Y0043900D03*
X0061650Y0044000D03*
X0061650Y0044100D03*
X0061650Y0044200D03*
X0061650Y0044300D03*
X0061650Y0044400D03*
X0061650Y0044500D03*
X0061650Y0044600D03*
X0061650Y0044700D03*
X0061650Y0044800D03*
X0061650Y0044900D03*
X0061650Y0036400D03*
X0061650Y0036300D03*
X0051650Y0034000D03*
X0051650Y0033900D03*
X0051650Y0033800D03*
X0034650Y0058100D03*
X0034650Y0058200D03*
X0034650Y0058300D03*
X0034650Y0058400D03*
X0034650Y0058500D03*
X0034650Y0058600D03*
X0034650Y0058700D03*
X0034650Y0058800D03*
X0034650Y0058900D03*
X0034650Y0059000D03*
X0034650Y0059100D03*
X0034650Y0059200D03*
X0034650Y0063500D03*
X0034650Y0063600D03*
X0034650Y0063700D03*
X0034650Y0063800D03*
X0034650Y0063900D03*
X0034650Y0064000D03*
X0034650Y0064100D03*
X0034650Y0064200D03*
X0034650Y0064300D03*
X0034650Y0064400D03*
X0034650Y0064500D03*
X0034650Y0064600D03*
X0034650Y0066800D03*
X0034650Y0069800D03*
X0034650Y0071600D03*
X0034650Y0071700D03*
X0034650Y0071800D03*
X0034650Y0071900D03*
X0034650Y0072000D03*
X0034650Y0072100D03*
X0034650Y0072200D03*
X0034650Y0072300D03*
X0034650Y0072400D03*
X0034650Y0072500D03*
X0034650Y0072600D03*
X0034650Y0072700D03*
X0034650Y0072800D03*
D43*
X0074350Y0039600D03*
X0090250Y0039500D03*
X0090250Y0039400D03*
X0090250Y0039300D03*
X0090250Y0039200D03*
X0090250Y0039100D03*
X0090250Y0039000D03*
X0104450Y0037200D03*
X0104450Y0037100D03*
X0104450Y0037000D03*
X0104450Y0036900D03*
X0140250Y0034300D03*
X0140250Y0034200D03*
X0140250Y0034100D03*
X0140250Y0034000D03*
X0140250Y0033900D03*
X0170850Y0041400D03*
X0180250Y0038900D03*
X0180250Y0038800D03*
X0180250Y0038700D03*
X0180250Y0038600D03*
X0180250Y0038500D03*
X0194450Y0038600D03*
X0194450Y0038700D03*
X0194450Y0038800D03*
X0194450Y0038900D03*
X0127550Y0137800D03*
X0127550Y0137900D03*
X0125850Y0139500D03*
X0125850Y0139600D03*
X0110550Y0140700D03*
X0110550Y0140800D03*
X0110550Y0140900D03*
X0110550Y0141000D03*
X0110550Y0141100D03*
X0107150Y0141200D03*
X0107150Y0141300D03*
X0107150Y0141400D03*
X0107150Y0141500D03*
X0107150Y0141600D03*
X0109650Y0201200D03*
X0109650Y0201300D03*
X0107950Y0203000D03*
X0107950Y0203100D03*
X0172950Y0203000D03*
X0173050Y0201400D03*
X0197350Y0204800D03*
X0197350Y0204900D03*
X0197350Y0205000D03*
X0197350Y0205100D03*
X0200850Y0205000D03*
X0200850Y0204900D03*
X0200850Y0204800D03*
X0200850Y0204700D03*
X0200850Y0204600D03*
X0198950Y0201800D03*
D44*
X0073050Y0040200D03*
X0072650Y0040300D03*
X0071550Y0040600D03*
X0073150Y0039000D03*
X0071550Y0038200D03*
X0081450Y0036000D03*
X0082550Y0035700D03*
X0082950Y0035600D03*
X0083150Y0034400D03*
D45*
X0083450Y0034500D03*
X0083450Y0035400D03*
X0091150Y0040800D03*
X0091150Y0040900D03*
X0091150Y0041000D03*
X0091150Y0041100D03*
X0091150Y0041200D03*
X0091150Y0041300D03*
X0103450Y0039100D03*
X0103450Y0039000D03*
X0121150Y0038900D03*
X0121150Y0038800D03*
X0121150Y0038700D03*
X0121150Y0038600D03*
X0131150Y0037300D03*
X0131050Y0036400D03*
X0131050Y0036300D03*
X0141150Y0036100D03*
X0141150Y0036000D03*
X0141150Y0035900D03*
X0141150Y0035800D03*
X0141150Y0035700D03*
X0163450Y0040800D03*
X0163450Y0040900D03*
X0181150Y0040700D03*
X0181150Y0040600D03*
X0181150Y0040500D03*
X0181150Y0040400D03*
X0181150Y0040300D03*
X0193450Y0040700D03*
X0193450Y0040800D03*
X0201050Y0038200D03*
X0201050Y0038100D03*
X0073450Y0039100D03*
D46*
X0074300Y0039400D03*
X0084300Y0035000D03*
X0084300Y0034800D03*
X0062900Y0041600D03*
X0110800Y0039700D03*
X0113800Y0039700D03*
X0173800Y0041400D03*
X0127500Y0138000D03*
X0127500Y0138100D03*
X0125900Y0139300D03*
X0125900Y0139400D03*
X0110500Y0140100D03*
X0110500Y0140200D03*
X0110500Y0140300D03*
X0110500Y0140400D03*
X0110500Y0140500D03*
X0110500Y0140600D03*
X0107200Y0140700D03*
X0107200Y0140800D03*
X0107200Y0140900D03*
X0107200Y0141000D03*
X0107200Y0141100D03*
X0109600Y0201400D03*
X0109600Y0201500D03*
X0109600Y0201600D03*
X0108000Y0202800D03*
X0108000Y0202900D03*
X0173000Y0203100D03*
X0173000Y0201300D03*
X0188900Y0199000D03*
X0197400Y0204300D03*
X0197400Y0204400D03*
X0197400Y0204500D03*
X0197400Y0204600D03*
X0197400Y0204700D03*
X0200800Y0204500D03*
X0200800Y0204400D03*
X0200800Y0204300D03*
X0200800Y0204200D03*
X0200800Y0204100D03*
D47*
X0034600Y0070100D03*
X0092300Y0036900D03*
X0102500Y0034800D03*
X0112500Y0034800D03*
X0122400Y0034800D03*
X0142500Y0041500D03*
X0152300Y0038200D03*
D48*
X0140750Y0038200D03*
X0140750Y0038300D03*
X0113850Y0039600D03*
X0084050Y0035100D03*
X0080550Y0036500D03*
X0080550Y0041200D03*
X0080950Y0041400D03*
X0081150Y0041500D03*
X0081350Y0041600D03*
X0081550Y0041700D03*
X0081750Y0041800D03*
X0081950Y0041900D03*
X0082150Y0042000D03*
X0082350Y0042100D03*
X0082550Y0042200D03*
X0082750Y0042300D03*
X0082950Y0042400D03*
X0073850Y0036700D03*
X0070650Y0041100D03*
X0060150Y0036700D03*
X0173850Y0036700D03*
X0173850Y0041300D03*
X0181150Y0041400D03*
X0180750Y0036600D03*
X0190750Y0036600D03*
X0200550Y0036700D03*
X0117150Y0135600D03*
X0177450Y0199000D03*
X0177450Y0199100D03*
X0177450Y0199200D03*
X0177450Y0199300D03*
X0177450Y0199400D03*
X0177450Y0199500D03*
X0177450Y0199600D03*
X0177450Y0199700D03*
X0177450Y0199800D03*
X0177450Y0199900D03*
X0177450Y0200000D03*
X0177450Y0200100D03*
X0188850Y0199100D03*
X0193550Y0205100D03*
X0159250Y0202700D03*
X0120350Y0205100D03*
X0113250Y0202700D03*
X0113250Y0202600D03*
X0113250Y0202500D03*
X0113250Y0202400D03*
X0113250Y0202300D03*
X0113250Y0202200D03*
X0113250Y0202100D03*
X0113250Y0202000D03*
X0113250Y0201900D03*
X0113250Y0201800D03*
X0113250Y0201700D03*
X0113250Y0201600D03*
D49*
X0120350Y0200200D03*
X0120350Y0200100D03*
X0120350Y0200000D03*
X0120350Y0199900D03*
X0120350Y0199800D03*
X0120350Y0199700D03*
X0120350Y0199600D03*
X0120350Y0204100D03*
X0120350Y0204200D03*
X0120350Y0204300D03*
X0120350Y0204400D03*
X0120350Y0204500D03*
X0120350Y0204600D03*
X0125050Y0199400D03*
X0092650Y0201600D03*
X0092650Y0202400D03*
X0092650Y0202500D03*
X0092650Y0202600D03*
X0092650Y0202700D03*
X0092650Y0204100D03*
X0092650Y0204200D03*
X0092650Y0204300D03*
X0092650Y0204400D03*
X0092650Y0204500D03*
X0092650Y0204600D03*
X0092650Y0204700D03*
X0117150Y0141100D03*
X0117150Y0141000D03*
X0117150Y0140900D03*
X0117150Y0140800D03*
X0117150Y0140700D03*
X0117150Y0140600D03*
X0117150Y0136600D03*
X0117150Y0136500D03*
X0117150Y0136400D03*
X0117150Y0136300D03*
X0117150Y0136200D03*
X0117150Y0136100D03*
X0168050Y0199400D03*
X0168050Y0199500D03*
X0181750Y0202100D03*
X0181750Y0202200D03*
X0181750Y0202300D03*
X0181750Y0202400D03*
X0181750Y0202500D03*
X0181750Y0202600D03*
X0181750Y0202700D03*
X0188850Y0204100D03*
X0188850Y0204200D03*
X0188850Y0204300D03*
X0188850Y0204400D03*
X0188850Y0204500D03*
X0188850Y0204600D03*
X0188850Y0204700D03*
X0188850Y0200100D03*
X0188850Y0200000D03*
X0188850Y0199900D03*
X0188850Y0199800D03*
X0188850Y0199700D03*
X0188850Y0199600D03*
X0188850Y0199500D03*
X0193550Y0199600D03*
X0193550Y0199700D03*
X0193550Y0199800D03*
X0193550Y0199900D03*
X0193550Y0200000D03*
X0193550Y0200100D03*
X0193550Y0200200D03*
X0193550Y0204100D03*
X0193550Y0204200D03*
X0193550Y0204300D03*
X0193550Y0204400D03*
X0193550Y0204500D03*
X0193550Y0204600D03*
X0181150Y0041100D03*
X0200850Y0037800D03*
X0161150Y0036500D03*
X0141150Y0036500D03*
X0121150Y0039400D03*
X0103450Y0039500D03*
X0091150Y0041700D03*
X0083650Y0035300D03*
X0060350Y0038500D03*
X0060350Y0038600D03*
X0060350Y0038700D03*
X0060350Y0038800D03*
X0060350Y0038900D03*
X0060350Y0039000D03*
X0060350Y0039100D03*
D50*
X0083250Y0035500D03*
X0096850Y0129300D03*
X0096850Y0130900D03*
X0096850Y0131000D03*
X0096850Y0131100D03*
X0096850Y0131200D03*
X0096850Y0131300D03*
X0096850Y0131400D03*
X0096850Y0131500D03*
X0096850Y0131600D03*
X0096850Y0131700D03*
X0080250Y0190800D03*
X0080250Y0190900D03*
X0080250Y0191000D03*
X0080250Y0191100D03*
X0080250Y0191200D03*
X0080250Y0191300D03*
X0080250Y0191400D03*
X0080250Y0191500D03*
X0080250Y0191600D03*
X0080250Y0191700D03*
X0062850Y0191700D03*
X0062850Y0191600D03*
X0062850Y0191500D03*
X0062850Y0191400D03*
X0062850Y0191300D03*
X0062850Y0191200D03*
X0062850Y0191100D03*
X0062850Y0191000D03*
X0062850Y0190900D03*
X0062850Y0190800D03*
D51*
X0129600Y0204000D03*
X0129600Y0204100D03*
X0129600Y0204200D03*
X0129600Y0204300D03*
X0129600Y0204400D03*
X0129600Y0204500D03*
X0129600Y0204600D03*
X0129600Y0204700D03*
X0129600Y0204800D03*
X0129600Y0204900D03*
X0129600Y0205000D03*
X0129600Y0205100D03*
X0163400Y0041100D03*
X0163400Y0041000D03*
X0161100Y0036300D03*
X0161100Y0036200D03*
X0161100Y0036100D03*
X0161100Y0036000D03*
X0161100Y0035900D03*
X0161100Y0035800D03*
X0161100Y0035700D03*
X0151200Y0035700D03*
X0151200Y0035800D03*
X0151200Y0035900D03*
X0151200Y0036000D03*
X0151200Y0036100D03*
X0151200Y0036200D03*
X0151200Y0036300D03*
X0141200Y0036200D03*
X0131000Y0036200D03*
X0121100Y0039000D03*
X0121100Y0039100D03*
X0121100Y0039200D03*
X0103500Y0039200D03*
X0103500Y0039300D03*
X0091200Y0041400D03*
X0081100Y0036200D03*
X0073500Y0040000D03*
X0071200Y0040800D03*
X0181200Y0040800D03*
X0193500Y0040900D03*
X0193500Y0041000D03*
X0201000Y0038000D03*
D52*
X0081750Y0035900D03*
D53*
X0081250Y0036100D03*
X0071350Y0038100D03*
D54*
X0059850Y0041600D03*
X0120550Y0036100D03*
X0127950Y0136100D03*
X0127950Y0136200D03*
X0126750Y0138600D03*
X0126650Y0138800D03*
X0125450Y0141200D03*
X0125450Y0141300D03*
X0108750Y0136700D03*
X0108750Y0136600D03*
X0108750Y0136500D03*
X0108750Y0136400D03*
X0110050Y0199600D03*
X0110050Y0199700D03*
X0108850Y0202100D03*
X0108750Y0202300D03*
X0107550Y0204700D03*
X0107550Y0204800D03*
X0171350Y0199100D03*
X0171450Y0199300D03*
X0171550Y0199500D03*
X0171650Y0199700D03*
X0171750Y0199900D03*
X0173750Y0200700D03*
X0173750Y0200800D03*
X0173850Y0200500D03*
X0173950Y0200300D03*
X0174050Y0200100D03*
X0173750Y0203600D03*
X0173850Y0203800D03*
X0173950Y0204000D03*
X0174050Y0204100D03*
X0174050Y0204200D03*
X0174150Y0204300D03*
X0174150Y0204400D03*
X0174250Y0204500D03*
X0174250Y0204600D03*
X0174350Y0204700D03*
X0174450Y0204800D03*
X0174450Y0204900D03*
X0174550Y0205000D03*
X0174550Y0205100D03*
X0172150Y0203900D03*
X0172150Y0203800D03*
X0172250Y0203700D03*
X0172250Y0203600D03*
X0172050Y0204000D03*
X0172050Y0204100D03*
X0171950Y0204200D03*
X0171950Y0204300D03*
X0171850Y0204400D03*
X0171750Y0204600D03*
X0171650Y0204800D03*
X0198950Y0200100D03*
X0198950Y0200000D03*
X0198950Y0199900D03*
X0201250Y0199900D03*
X0201250Y0200000D03*
X0201250Y0200100D03*
X0201250Y0200200D03*
X0201250Y0200300D03*
X0201250Y0200400D03*
X0201250Y0200500D03*
X0201250Y0200600D03*
X0201250Y0200700D03*
X0201250Y0200800D03*
X0201250Y0200900D03*
X0201250Y0201000D03*
X0201250Y0201100D03*
X0201250Y0201200D03*
X0201250Y0201300D03*
X0201250Y0201400D03*
X0201250Y0201500D03*
X0201250Y0201600D03*
X0201250Y0201700D03*
X0201250Y0201800D03*
X0201250Y0201900D03*
X0201250Y0202000D03*
X0201250Y0202100D03*
X0201250Y0202200D03*
X0201250Y0202300D03*
X0201250Y0202400D03*
X0201250Y0202500D03*
X0201250Y0202600D03*
X0201250Y0202700D03*
X0201250Y0202800D03*
X0201250Y0202900D03*
X0201250Y0203000D03*
X0201250Y0203100D03*
X0201250Y0203200D03*
X0201250Y0203300D03*
X0201250Y0203400D03*
X0201250Y0199800D03*
X0201250Y0199700D03*
X0201250Y0199600D03*
X0201250Y0199500D03*
X0201250Y0199400D03*
X0201250Y0199300D03*
X0201250Y0199200D03*
X0201250Y0199100D03*
D55*
X0125100Y0199500D03*
X0125100Y0199600D03*
X0125100Y0199700D03*
X0153600Y0041100D03*
X0153600Y0041000D03*
X0153600Y0040900D03*
X0153600Y0040800D03*
X0153600Y0040700D03*
X0153600Y0040600D03*
X0153600Y0040500D03*
X0153600Y0040400D03*
X0151200Y0036500D03*
X0151200Y0036400D03*
X0161100Y0036400D03*
X0163400Y0041300D03*
X0141200Y0036400D03*
X0103500Y0039400D03*
X0091200Y0041600D03*
X0062900Y0041100D03*
X0062900Y0041000D03*
X0062900Y0040900D03*
X0062900Y0040800D03*
X0062900Y0040700D03*
X0062900Y0040600D03*
X0062900Y0040500D03*
X0193500Y0041100D03*
D56*
X0193500Y0040600D03*
X0193500Y0040500D03*
X0193500Y0040400D03*
X0193500Y0040300D03*
X0201100Y0039000D03*
X0201100Y0038900D03*
X0201100Y0038800D03*
X0201100Y0038700D03*
X0201100Y0038600D03*
X0201100Y0038500D03*
X0201100Y0038400D03*
X0201100Y0038300D03*
X0163400Y0040400D03*
X0163400Y0040500D03*
X0163400Y0040600D03*
X0163400Y0040700D03*
X0131100Y0037200D03*
X0131100Y0037100D03*
X0131100Y0037000D03*
X0131100Y0036900D03*
X0131100Y0036800D03*
X0131100Y0036700D03*
X0131100Y0036600D03*
X0131100Y0036500D03*
X0103500Y0038600D03*
X0103500Y0038700D03*
X0103500Y0038800D03*
X0103500Y0038900D03*
D57*
X0080350Y0036600D03*
X0070450Y0037700D03*
X0070450Y0041200D03*
X0063550Y0036900D03*
X0125950Y0139100D03*
X0125950Y0139200D03*
X0127450Y0138300D03*
X0127450Y0138200D03*
X0110450Y0140000D03*
X0107250Y0140200D03*
X0107250Y0140300D03*
X0107250Y0140400D03*
X0107250Y0140500D03*
X0107250Y0140600D03*
X0120350Y0199000D03*
X0120350Y0205200D03*
X0109550Y0201800D03*
X0109550Y0201700D03*
X0108050Y0202600D03*
X0108050Y0202700D03*
X0193550Y0205200D03*
X0197450Y0204200D03*
X0197450Y0204100D03*
X0197450Y0204000D03*
X0197450Y0203900D03*
X0197450Y0203800D03*
X0200750Y0203800D03*
X0200750Y0203900D03*
X0200750Y0204000D03*
X0200750Y0203700D03*
X0200750Y0203600D03*
X0193550Y0199000D03*
D58*
X0173000Y0200900D03*
X0173000Y0201000D03*
X0173000Y0203400D03*
X0173000Y0203500D03*
X0170800Y0041300D03*
X0161100Y0036800D03*
X0153600Y0041500D03*
X0151200Y0036800D03*
X0141200Y0036800D03*
X0140800Y0038100D03*
X0110800Y0039600D03*
X0070800Y0036700D03*
X0063400Y0036800D03*
X0060300Y0038000D03*
X0183800Y0036700D03*
X0193800Y0036700D03*
X0203600Y0036800D03*
D59*
X0200550Y0036800D03*
X0190750Y0036700D03*
X0180750Y0036700D03*
X0170850Y0036700D03*
X0140850Y0038000D03*
X0074150Y0039700D03*
X0117150Y0141700D03*
X0125050Y0199000D03*
X0168050Y0199000D03*
X0181750Y0201500D03*
D60*
X0034600Y0070200D03*
X0092300Y0037000D03*
X0152300Y0038100D03*
D61*
X0079450Y0037100D03*
X0069550Y0037300D03*
X0069550Y0041700D03*
D62*
X0072000Y0038400D03*
X0092300Y0037100D03*
X0152300Y0038000D03*
D63*
X0079250Y0037200D03*
X0069350Y0037200D03*
X0069350Y0041800D03*
D64*
X0092300Y0037200D03*
D65*
X0091200Y0086800D03*
X0091100Y0086800D03*
X0091000Y0086800D03*
X0090900Y0086800D03*
X0090800Y0086800D03*
X0090700Y0086800D03*
X0089400Y0086800D03*
X0089300Y0086800D03*
X0089200Y0086800D03*
X0089100Y0086800D03*
X0089000Y0086800D03*
X0088900Y0086800D03*
X0093600Y0086800D03*
X0093700Y0086800D03*
X0093800Y0086800D03*
X0093900Y0086800D03*
X0094000Y0086800D03*
X0094100Y0086800D03*
X0095800Y0086800D03*
X0095900Y0086800D03*
X0096000Y0086800D03*
X0096100Y0086800D03*
X0096200Y0086800D03*
X0096300Y0086800D03*
X0060700Y0087200D03*
X0060600Y0087200D03*
X0060500Y0087200D03*
X0060400Y0087200D03*
X0060300Y0087200D03*
X0059000Y0087200D03*
X0058900Y0087200D03*
X0058800Y0087200D03*
X0058700Y0087200D03*
X0058600Y0087200D03*
X0058500Y0087200D03*
X0058400Y0087200D03*
X0058300Y0087200D03*
X0058200Y0087200D03*
X0058100Y0087200D03*
X0058000Y0087200D03*
X0057900Y0087200D03*
D66*
X0059100Y0087250D03*
X0059200Y0087250D03*
X0059300Y0087250D03*
X0059400Y0087250D03*
X0059500Y0087250D03*
X0059600Y0087250D03*
X0059700Y0087250D03*
X0059800Y0087250D03*
X0059900Y0087250D03*
X0060000Y0087250D03*
X0060100Y0087250D03*
X0060100Y0089750D03*
X0060000Y0089750D03*
X0059900Y0089750D03*
X0059800Y0089750D03*
X0059700Y0089750D03*
X0059600Y0089750D03*
X0059500Y0089750D03*
X0059400Y0089750D03*
X0059300Y0089750D03*
X0059200Y0089750D03*
X0059100Y0089750D03*
X0063700Y0084650D03*
X0064900Y0084650D03*
X0066900Y0089650D03*
X0067000Y0089650D03*
X0067100Y0089650D03*
X0067200Y0089650D03*
X0067300Y0089650D03*
X0067400Y0089650D03*
X0067500Y0089650D03*
X0067600Y0089650D03*
X0067700Y0089650D03*
X0067800Y0089650D03*
X0067900Y0089650D03*
X0068000Y0089650D03*
X0068100Y0089650D03*
X0068200Y0089650D03*
X0069500Y0089650D03*
X0069600Y0089650D03*
X0069700Y0089650D03*
X0069800Y0089650D03*
X0069900Y0089650D03*
X0070000Y0089650D03*
X0070100Y0089650D03*
X0070200Y0089650D03*
X0070300Y0089650D03*
X0070400Y0089650D03*
X0070500Y0089650D03*
X0070600Y0089650D03*
X0070700Y0089650D03*
X0089500Y0089350D03*
X0089600Y0089350D03*
X0089700Y0089350D03*
X0089800Y0089350D03*
X0089900Y0089350D03*
X0090000Y0089350D03*
X0090100Y0089350D03*
X0090200Y0089350D03*
X0090300Y0089350D03*
X0090400Y0089350D03*
X0090500Y0089350D03*
X0090600Y0089350D03*
X0094200Y0089350D03*
X0094300Y0089350D03*
X0094400Y0089350D03*
X0094500Y0089350D03*
X0094600Y0089350D03*
X0094700Y0089350D03*
X0094800Y0089350D03*
X0094900Y0089350D03*
X0095000Y0089350D03*
X0095100Y0089350D03*
X0095200Y0089350D03*
X0095300Y0089350D03*
X0095400Y0089350D03*
X0095500Y0089350D03*
D67*
X0060200Y0088450D03*
D68*
X0060800Y0087150D03*
X0060900Y0087150D03*
X0068300Y0087150D03*
X0068400Y0087150D03*
X0068500Y0087150D03*
X0068600Y0087150D03*
X0068700Y0087150D03*
X0068800Y0087150D03*
X0068900Y0087150D03*
X0069000Y0087150D03*
X0069100Y0087150D03*
X0069200Y0087150D03*
X0069300Y0087150D03*
X0069400Y0087150D03*
X0086000Y0086750D03*
X0086100Y0086750D03*
X0086200Y0086750D03*
X0086300Y0086750D03*
X0086400Y0086750D03*
X0086500Y0086750D03*
X0086600Y0086750D03*
X0086700Y0086750D03*
X0086800Y0086750D03*
X0086900Y0086750D03*
X0087000Y0086750D03*
X0087100Y0086750D03*
X0093500Y0086750D03*
D69*
X0094500Y0085200D03*
X0061000Y0088700D03*
D70*
X0061100Y0088650D03*
X0062600Y0088450D03*
X0061100Y0085550D03*
X0061000Y0085550D03*
X0066000Y0085950D03*
D71*
X0061300Y0085450D03*
X0061200Y0088650D03*
D72*
X0061200Y0085500D03*
X0094400Y0085100D03*
D73*
X0094200Y0084950D03*
X0062500Y0088450D03*
X0061300Y0088650D03*
D74*
X0061400Y0085300D03*
X0066100Y0085900D03*
D75*
X0062500Y0085400D03*
X0066100Y0089000D03*
D76*
X0065900Y0089150D03*
X0062600Y0085250D03*
D77*
X0062700Y0088450D03*
D78*
X0065800Y0089200D03*
X0062700Y0085200D03*
D79*
X0062800Y0088450D03*
D80*
X0065000Y0089250D03*
X0065100Y0089250D03*
X0065200Y0089250D03*
X0065300Y0089250D03*
X0065400Y0089250D03*
X0065500Y0089250D03*
X0065600Y0089250D03*
X0065700Y0089250D03*
X0062900Y0085150D03*
X0062800Y0085150D03*
D81*
X0065700Y0085900D03*
X0065800Y0085900D03*
X0062900Y0088500D03*
X0094700Y0085400D03*
X0095600Y0088200D03*
D82*
X0063700Y0088450D03*
X0063600Y0088450D03*
X0063500Y0088450D03*
X0063400Y0088450D03*
X0063300Y0088450D03*
X0063200Y0088450D03*
X0063100Y0088450D03*
X0063000Y0088450D03*
D83*
X0063000Y0085100D03*
X0063100Y0085100D03*
X0063200Y0085100D03*
X0063300Y0085100D03*
X0063400Y0085100D03*
X0063500Y0085100D03*
X0063600Y0085100D03*
D84*
X0063800Y0084600D03*
X0063900Y0084600D03*
X0064000Y0084600D03*
X0064100Y0084600D03*
X0064200Y0084600D03*
X0064300Y0084600D03*
X0064400Y0084600D03*
X0064500Y0084600D03*
X0064600Y0084600D03*
X0064700Y0084600D03*
X0064800Y0084600D03*
X0064800Y0087200D03*
X0064900Y0087200D03*
X0064700Y0087200D03*
X0064600Y0087200D03*
X0064500Y0087200D03*
X0064400Y0087200D03*
X0064300Y0087200D03*
X0064200Y0087200D03*
X0064100Y0087200D03*
X0064000Y0087200D03*
X0063900Y0087200D03*
X0063800Y0087200D03*
X0063800Y0089700D03*
X0063900Y0089700D03*
X0064000Y0089700D03*
X0064100Y0089700D03*
X0064200Y0089700D03*
X0064300Y0089700D03*
X0064400Y0089700D03*
X0064500Y0089700D03*
X0064600Y0089700D03*
X0064700Y0089700D03*
X0064800Y0089700D03*
X0064900Y0089700D03*
X0070800Y0089700D03*
D85*
X0065600Y0085900D03*
X0065500Y0085900D03*
X0065400Y0085900D03*
X0065300Y0085900D03*
X0065200Y0085900D03*
X0065100Y0085900D03*
X0065000Y0085900D03*
X0094800Y0085500D03*
D86*
X0094600Y0085300D03*
X0095700Y0088300D03*
X0065900Y0085900D03*
D87*
X0066000Y0089100D03*
D88*
X0034650Y0070300D03*
D89*
X0088300Y0086800D03*
D90*
X0088400Y0086800D03*
D91*
X0088500Y0086750D03*
D92*
X0088600Y0086800D03*
X0091600Y0086800D03*
X0093200Y0086800D03*
X0096700Y0086800D03*
D93*
X0096500Y0086800D03*
X0096400Y0086800D03*
X0093400Y0086800D03*
X0093300Y0086800D03*
X0091400Y0086800D03*
X0091300Y0086800D03*
X0088800Y0086800D03*
X0088700Y0086800D03*
D94*
X0089500Y0084350D03*
D95*
X0089600Y0084300D03*
X0089700Y0084300D03*
X0089800Y0084300D03*
X0089900Y0084300D03*
X0090000Y0084300D03*
X0090100Y0084300D03*
X0090200Y0084300D03*
X0090300Y0084300D03*
X0090400Y0084300D03*
X0090500Y0084300D03*
X0090600Y0084300D03*
X0094900Y0084300D03*
X0095000Y0084300D03*
X0095100Y0084300D03*
X0095200Y0084300D03*
X0095300Y0084300D03*
X0095400Y0084300D03*
X0095500Y0084300D03*
X0095600Y0084300D03*
X0095700Y0084300D03*
D96*
X0096600Y0086750D03*
X0091500Y0086750D03*
D97*
X0091700Y0086750D03*
X0096800Y0086750D03*
D98*
X0096900Y0086800D03*
X0091800Y0086800D03*
D99*
X0093000Y0086750D03*
D100*
X0093100Y0086800D03*
D101*
X0094300Y0085000D03*
D102*
X0094900Y0086350D03*
X0095000Y0086550D03*
X0095100Y0086750D03*
D103*
X0095200Y0086900D03*
X0095300Y0087100D03*
X0095400Y0087300D03*
X0095500Y0087500D03*
D104*
X0117500Y0133000D03*
X0117500Y0133100D03*
X0117500Y0133200D03*
X0117500Y0133300D03*
X0117500Y0133400D03*
X0117500Y0133500D03*
X0117500Y0133600D03*
X0117500Y0133700D03*
X0117500Y0133800D03*
X0117500Y0133900D03*
D105*
X0115800Y0196500D03*
X0115800Y0196600D03*
X0115800Y0196700D03*
X0115800Y0196800D03*
X0115800Y0196900D03*
X0115800Y0197000D03*
X0115800Y0197100D03*
X0115800Y0197200D03*
X0115800Y0197300D03*
X0115800Y0197400D03*
X0115800Y0197500D03*
X0115800Y0197600D03*
X0115800Y0197700D03*
X0115800Y0197800D03*
D106*
X0197200Y0133003D02*
X0199469Y0133003D01*
X0198334Y0133003D02*
X0198334Y0129600D01*
X0200883Y0129600D02*
X0200883Y0133003D01*
X0200883Y0131301D02*
X0203152Y0131301D01*
X0204566Y0130734D02*
X0206268Y0130734D01*
X0206835Y0131301D01*
X0206835Y0132436D01*
X0206268Y0133003D01*
X0204566Y0133003D01*
X0204566Y0129600D01*
X0203152Y0129600D02*
X0203152Y0133003D01*
X0205701Y0130734D02*
X0206835Y0129600D01*
X0208249Y0130167D02*
X0208817Y0129600D01*
X0209951Y0129600D01*
X0210518Y0130167D01*
X0210518Y0133003D01*
X0208249Y0133003D02*
X0208249Y0130167D01*
M02*
