G75*
%MOIN*%
%OFA0B0*%
%FSLAX25Y25*%
%IPPOS*%
%LPD*%
%AMOC8*
5,1,8,0,0,1.08239X$1,22.5*
%
%ADD10C,0.11824*%
%ADD11C,0.07800*%
%ADD12C,0.10800*%
%ADD13C,0.09658*%
%ADD14C,0.06706*%
%ADD15C,0.08200*%
%ADD16C,0.07600*%
%ADD17C,0.08674*%
%ADD18C,0.08000*%
D10*
X0035758Y0030658D03*
X0219951Y0030658D03*
X0220798Y0198296D03*
X0035758Y0198296D03*
D11*
X0181900Y0131800D03*
X0191900Y0131800D03*
D12*
X0038430Y0161806D03*
D13*
X0058115Y0152357D03*
X0058115Y0141728D03*
X0058115Y0171255D03*
X0058115Y0181885D03*
D14*
X0038430Y0181491D03*
X0028587Y0181491D03*
X0058115Y0161806D03*
X0038430Y0142121D03*
X0028587Y0142121D03*
D15*
X0086900Y0139300D03*
X0096900Y0139300D03*
D16*
X0081900Y0201800D03*
X0071900Y0201800D03*
X0061900Y0201800D03*
D17*
X0067884Y0128414D02*
X0067884Y0120540D01*
X0060010Y0104792D02*
X0052136Y0104792D01*
X0043081Y0120540D02*
X0043081Y0128414D01*
D18*
X0051900Y0091800D03*
X0051900Y0081800D03*
X0051900Y0071800D03*
X0051900Y0061800D03*
X0051900Y0051800D03*
X0051900Y0041800D03*
X0051900Y0026800D03*
X0061900Y0026800D03*
X0071900Y0026800D03*
X0081900Y0026800D03*
X0091900Y0026800D03*
X0101900Y0026800D03*
X0111900Y0026800D03*
X0121900Y0026800D03*
X0131900Y0026800D03*
X0141900Y0026800D03*
X0151900Y0026800D03*
X0161900Y0026800D03*
X0171900Y0026800D03*
X0181900Y0026800D03*
X0191900Y0026800D03*
X0201900Y0026800D03*
X0119400Y0049300D03*
X0119400Y0059300D03*
X0119400Y0069300D03*
X0119400Y0079300D03*
X0119400Y0089300D03*
X0119400Y0099300D03*
M02*
