G75*
%MOIN*%
%OFA0B0*%
%FSLAX25Y25*%
%IPPOS*%
%LPD*%
%AMOC8*
5,1,8,0,0,1.08239X$1,22.5*
%
%ADD10C,0.11824*%
%ADD11R,0.06000X0.00100*%
%ADD12R,0.01200X0.00100*%
%ADD13R,0.01100X0.00100*%
%ADD14R,0.05400X0.00100*%
%ADD15R,0.05600X0.00100*%
%ADD16R,0.05700X0.00100*%
%ADD17R,0.05800X0.00100*%
%ADD18R,0.05900X0.00100*%
%ADD19R,0.01300X0.00100*%
%ADD20R,0.05300X0.00100*%
%ADD21R,0.00100X0.00100*%
%ADD22R,0.00300X0.00100*%
%ADD23R,0.00200X0.00100*%
%ADD24R,0.00500X0.00100*%
%ADD25R,0.00400X0.00100*%
%ADD26R,0.00700X0.00100*%
%ADD27R,0.00600X0.00100*%
%ADD28R,0.00900X0.00100*%
%ADD29R,0.00800X0.00100*%
%ADD30R,0.01000X0.00100*%
%ADD31R,0.01400X0.00100*%
%ADD32R,0.01600X0.00100*%
%ADD33R,0.01500X0.00100*%
%ADD34R,0.01800X0.00100*%
%ADD35R,0.01700X0.00100*%
%ADD36R,0.02000X0.00100*%
%ADD37R,0.01900X0.00100*%
%ADD38R,0.02200X0.00100*%
%ADD39R,0.02100X0.00100*%
%ADD40R,0.02400X0.00100*%
%ADD41R,0.02300X0.00100*%
%ADD42R,0.02500X0.00100*%
%ADD43R,0.02700X0.00100*%
%ADD44R,0.05100X0.00100*%
%ADD45R,0.04700X0.00100*%
%ADD46R,0.04300X0.00100*%
%ADD47R,0.03900X0.00100*%
%ADD48R,0.03500X0.00100*%
%ADD49R,0.03100X0.00100*%
%ADD50R,0.02800X0.00100*%
%ADD51R,0.04000X0.00100*%
%ADD52R,0.04400X0.00100*%
%ADD53R,0.04800X0.00100*%
%ADD54R,0.02900X0.00100*%
%ADD55R,0.02600X0.00100*%
%ADD56R,0.06100X0.00100*%
%ADD57R,0.03600X0.00100*%
%ADD58R,0.04100X0.00100*%
%ADD59R,0.04600X0.00100*%
%ADD60R,0.05000X0.00100*%
%ADD61R,0.05200X0.00100*%
%ADD62R,0.03800X0.00100*%
%ADD63R,0.03300X0.00100*%
%ADD64R,0.03400X0.00100*%
%ADD65R,0.03200X0.00100*%
%ADD66R,0.05500X0.00100*%
%ADD67R,0.03700X0.00100*%
%ADD68R,0.03000X0.00100*%
%ADD69C,0.07800*%
%ADD70R,0.05131X0.06312*%
%ADD71R,0.04737X0.05131*%
%ADD72R,0.07887X0.07099*%
%ADD73R,0.04934X0.05052*%
%ADD74C,0.10800*%
%ADD75C,0.09658*%
%ADD76C,0.06706*%
%ADD77R,0.03162X0.07099*%
%ADD78R,0.03162X0.03162*%
%ADD79R,0.03950X0.03950*%
%ADD80C,0.08200*%
%ADD81R,0.05800X0.03300*%
%ADD82R,0.06706X0.08674*%
%ADD83C,0.00631*%
%ADD84R,0.00984X0.02854*%
%ADD85R,0.02854X0.00984*%
%ADD86R,0.07493X0.10249*%
%ADD87C,0.07600*%
%ADD88R,0.04343X0.06706*%
%ADD89R,0.06706X0.04343*%
%ADD90R,0.24422X0.24422*%
%ADD91R,0.05600X0.09600*%
%ADD92R,0.14973X0.09461*%
%ADD93C,0.08674*%
%ADD94C,0.08000*%
%ADD95R,0.06800X0.09800*%
D10*
X0035758Y0030658D03*
X0219951Y0030658D03*
X0220798Y0198296D03*
X0035758Y0198296D03*
D11*
X0224350Y0183500D03*
X0224350Y0183400D03*
X0224350Y0183300D03*
X0224350Y0183200D03*
X0224350Y0183100D03*
X0224350Y0183000D03*
X0224350Y0182900D03*
X0224350Y0182800D03*
X0224450Y0176700D03*
X0224450Y0176600D03*
X0224450Y0176500D03*
X0224450Y0176400D03*
X0224450Y0176300D03*
X0224450Y0176200D03*
X0224450Y0176100D03*
X0224450Y0176000D03*
X0224450Y0175900D03*
X0224450Y0175800D03*
X0224450Y0175700D03*
X0224450Y0174300D03*
X0224450Y0174200D03*
X0224450Y0174100D03*
X0224450Y0174000D03*
X0224450Y0173900D03*
X0224450Y0173800D03*
X0224450Y0173700D03*
X0224450Y0173600D03*
X0224450Y0173500D03*
X0224450Y0173400D03*
X0224450Y0173300D03*
X0224450Y0171100D03*
X0224450Y0171000D03*
X0224450Y0170900D03*
X0224450Y0170800D03*
X0224450Y0170700D03*
X0224450Y0170600D03*
X0224450Y0170500D03*
X0224450Y0170400D03*
X0224450Y0170300D03*
X0224450Y0170200D03*
X0224450Y0170100D03*
X0224350Y0167900D03*
X0224350Y0167800D03*
X0224350Y0167700D03*
X0224350Y0167600D03*
X0224350Y0167500D03*
X0224350Y0167400D03*
X0224350Y0167300D03*
X0224350Y0167200D03*
X0224350Y0167100D03*
X0224350Y0167000D03*
X0224350Y0165200D03*
X0224350Y0165100D03*
X0224350Y0165000D03*
X0224350Y0164900D03*
X0224350Y0164800D03*
X0224350Y0164700D03*
X0224350Y0164600D03*
X0224350Y0164500D03*
X0224350Y0164400D03*
X0224350Y0164300D03*
X0224450Y0153600D03*
X0224450Y0153500D03*
X0224450Y0153400D03*
X0224450Y0153300D03*
X0224450Y0153200D03*
X0224450Y0153100D03*
X0224450Y0153000D03*
X0224450Y0152900D03*
X0224450Y0151700D03*
X0224450Y0151600D03*
X0224450Y0151500D03*
X0224450Y0151400D03*
X0224450Y0151300D03*
X0224450Y0151200D03*
X0224450Y0151100D03*
X0224450Y0151000D03*
X0224450Y0142600D03*
X0224450Y0142500D03*
X0224450Y0142400D03*
X0224450Y0142300D03*
X0224450Y0142200D03*
X0224450Y0142100D03*
X0224450Y0142000D03*
X0224450Y0141900D03*
X0224450Y0140700D03*
X0224450Y0140600D03*
X0224450Y0140500D03*
X0224450Y0140400D03*
X0224450Y0140300D03*
X0224450Y0140200D03*
X0224450Y0140100D03*
X0224450Y0133000D03*
X0224450Y0132900D03*
X0224450Y0132800D03*
X0224450Y0132700D03*
X0224450Y0132600D03*
X0224450Y0131200D03*
X0224450Y0131100D03*
X0224450Y0131000D03*
X0224450Y0130900D03*
X0224450Y0130800D03*
X0224450Y0127400D03*
X0224450Y0127300D03*
X0224450Y0127200D03*
X0224450Y0127100D03*
X0224450Y0127000D03*
X0224450Y0126900D03*
X0224450Y0126800D03*
X0224450Y0126700D03*
X0224450Y0126600D03*
X0224450Y0126500D03*
X0224450Y0126400D03*
X0224450Y0123200D03*
X0224450Y0123100D03*
X0224450Y0123000D03*
X0224450Y0122900D03*
X0224450Y0122800D03*
X0224450Y0122700D03*
X0224450Y0122600D03*
X0224450Y0122500D03*
X0224450Y0122400D03*
X0224450Y0122300D03*
X0224450Y0122200D03*
D12*
X0224350Y0123300D03*
X0222050Y0123300D03*
X0226850Y0127500D03*
X0226850Y0127600D03*
X0226850Y0127700D03*
X0226850Y0127800D03*
X0226850Y0127900D03*
X0226850Y0128000D03*
X0226850Y0128100D03*
X0226850Y0128200D03*
X0226850Y0128300D03*
X0226850Y0128400D03*
X0226850Y0128500D03*
X0226850Y0128600D03*
X0226850Y0128700D03*
X0226850Y0128800D03*
X0226850Y0128900D03*
X0226850Y0129000D03*
X0226850Y0129100D03*
X0222050Y0135100D03*
X0222050Y0138200D03*
X0224750Y0140800D03*
X0224750Y0140900D03*
X0224750Y0141000D03*
X0224750Y0141100D03*
X0224750Y0141200D03*
X0224750Y0141300D03*
X0224750Y0141400D03*
X0224750Y0141500D03*
X0224750Y0141600D03*
X0224750Y0141700D03*
X0224750Y0141800D03*
X0226850Y0138300D03*
X0224750Y0151800D03*
X0224750Y0151900D03*
X0224750Y0152000D03*
X0224750Y0152100D03*
X0224750Y0152200D03*
X0224750Y0152300D03*
X0224750Y0152400D03*
X0224750Y0152500D03*
X0224750Y0152600D03*
X0224750Y0152700D03*
X0224750Y0152800D03*
X0222750Y0158600D03*
X0224250Y0174500D03*
X0224250Y0174600D03*
X0224250Y0174700D03*
X0224250Y0174800D03*
X0224250Y0174900D03*
X0224250Y0175000D03*
X0224250Y0175100D03*
X0224250Y0175200D03*
X0224250Y0175300D03*
X0224250Y0175400D03*
X0224250Y0175500D03*
X0225250Y0177700D03*
X0225250Y0177800D03*
X0225250Y0177900D03*
X0225250Y0178000D03*
X0225250Y0178100D03*
X0225250Y0178200D03*
X0225250Y0178300D03*
X0225250Y0178400D03*
X0225250Y0178500D03*
X0225250Y0178600D03*
X0225250Y0178700D03*
X0225250Y0178800D03*
X0225250Y0178900D03*
X0225250Y0179000D03*
X0225250Y0179100D03*
X0225250Y0179200D03*
X0225250Y0179300D03*
X0225250Y0179400D03*
X0225250Y0179500D03*
X0225250Y0179600D03*
X0224350Y0180900D03*
X0224350Y0181000D03*
X0224350Y0181100D03*
X0224350Y0181200D03*
X0224350Y0181300D03*
X0224350Y0181400D03*
X0224350Y0181500D03*
X0224350Y0181600D03*
X0224350Y0181700D03*
X0224350Y0181800D03*
X0224350Y0181900D03*
X0224350Y0182000D03*
X0224350Y0182100D03*
X0224350Y0182200D03*
X0224350Y0182300D03*
X0224350Y0182400D03*
X0224350Y0182500D03*
X0224350Y0182600D03*
X0224350Y0182700D03*
X0221950Y0182700D03*
X0221950Y0186100D03*
X0221950Y0186200D03*
X0221950Y0186300D03*
X0221950Y0186400D03*
X0221950Y0186500D03*
X0221950Y0186600D03*
X0221950Y0186700D03*
X0221950Y0186800D03*
X0221950Y0186900D03*
X0221950Y0187000D03*
X0221950Y0187100D03*
X0221950Y0187200D03*
X0226850Y0187200D03*
X0226850Y0187300D03*
X0226850Y0187400D03*
X0226850Y0187500D03*
X0226850Y0187600D03*
X0226850Y0187700D03*
X0226850Y0187800D03*
X0226850Y0187900D03*
X0226850Y0188000D03*
X0226850Y0188100D03*
X0226850Y0188200D03*
X0226850Y0188300D03*
X0226850Y0187100D03*
X0226850Y0187000D03*
X0226850Y0186900D03*
X0226850Y0186800D03*
X0226850Y0186700D03*
X0226850Y0186600D03*
X0226850Y0186500D03*
X0226850Y0186400D03*
X0226850Y0186300D03*
X0226850Y0186200D03*
X0226850Y0186100D03*
X0226750Y0182700D03*
D13*
X0226800Y0182600D03*
X0226800Y0182500D03*
X0226800Y0182400D03*
X0226800Y0182300D03*
X0226800Y0182200D03*
X0226800Y0182100D03*
X0226800Y0182000D03*
X0226800Y0181900D03*
X0226800Y0181800D03*
X0226800Y0181700D03*
X0226800Y0181600D03*
X0226800Y0181500D03*
X0226800Y0181400D03*
X0226800Y0181300D03*
X0226800Y0181200D03*
X0226800Y0181100D03*
X0226800Y0181000D03*
X0226800Y0180900D03*
X0226800Y0180800D03*
X0226800Y0180700D03*
X0226800Y0180600D03*
X0226800Y0180500D03*
X0221900Y0180500D03*
X0221900Y0180600D03*
X0221900Y0180700D03*
X0221900Y0180800D03*
X0221900Y0180900D03*
X0221900Y0181000D03*
X0221900Y0181100D03*
X0221900Y0181200D03*
X0221900Y0181300D03*
X0221900Y0181400D03*
X0221900Y0181500D03*
X0221900Y0181600D03*
X0221900Y0181700D03*
X0221900Y0181800D03*
X0221900Y0181900D03*
X0221900Y0182000D03*
X0221900Y0182100D03*
X0221900Y0182200D03*
X0221900Y0182300D03*
X0221900Y0182400D03*
X0221900Y0182500D03*
X0221900Y0182600D03*
X0224700Y0186100D03*
X0224600Y0187200D03*
X0222000Y0172500D03*
X0222000Y0172400D03*
X0222000Y0172300D03*
X0222000Y0172200D03*
X0222000Y0172100D03*
X0222000Y0172000D03*
X0222000Y0171900D03*
X0222000Y0171800D03*
X0222000Y0171700D03*
X0222000Y0171600D03*
X0222000Y0171500D03*
X0222000Y0171400D03*
X0222000Y0171300D03*
X0222000Y0170000D03*
X0222000Y0169900D03*
X0222000Y0169800D03*
X0222000Y0169700D03*
X0222000Y0169600D03*
X0222000Y0169500D03*
X0222000Y0169400D03*
X0222000Y0169300D03*
X0222000Y0169200D03*
X0222000Y0169100D03*
X0222000Y0169000D03*
X0222000Y0168900D03*
X0222000Y0168800D03*
X0222000Y0157400D03*
X0222000Y0157300D03*
X0222000Y0157200D03*
X0222000Y0157100D03*
X0222000Y0157000D03*
X0222000Y0156900D03*
X0222000Y0156800D03*
X0222000Y0156700D03*
X0222000Y0156600D03*
X0222000Y0156500D03*
X0222000Y0156400D03*
X0222000Y0156300D03*
X0224400Y0156300D03*
X0224400Y0156400D03*
X0224400Y0156500D03*
X0224400Y0156600D03*
X0224400Y0156700D03*
X0224400Y0156800D03*
X0224400Y0156900D03*
X0224400Y0157000D03*
X0224400Y0157100D03*
X0224400Y0157200D03*
X0224400Y0157300D03*
X0224400Y0157400D03*
X0226900Y0157400D03*
X0226900Y0157300D03*
X0226900Y0157200D03*
X0226900Y0157100D03*
X0226900Y0157000D03*
X0226900Y0156900D03*
X0226900Y0156800D03*
X0226900Y0156700D03*
X0226900Y0156600D03*
X0226900Y0156500D03*
X0226900Y0156400D03*
X0226900Y0156300D03*
X0226900Y0134900D03*
X0224400Y0124800D03*
X0224400Y0124700D03*
X0224400Y0124600D03*
X0224400Y0124500D03*
X0224400Y0124400D03*
X0224400Y0124300D03*
X0224400Y0124200D03*
X0224400Y0124100D03*
X0224400Y0124000D03*
X0224400Y0123900D03*
X0224400Y0123800D03*
X0224400Y0123700D03*
X0224400Y0123600D03*
X0224400Y0123500D03*
X0224400Y0123400D03*
X0222000Y0123400D03*
X0222000Y0123500D03*
X0222000Y0123600D03*
X0222000Y0123700D03*
X0222000Y0123800D03*
X0222000Y0123900D03*
X0222000Y0124000D03*
X0222000Y0124100D03*
X0222000Y0124200D03*
X0222000Y0124300D03*
X0222000Y0124400D03*
X0222000Y0124500D03*
X0222000Y0124600D03*
X0222000Y0124700D03*
X0222000Y0124800D03*
X0222000Y0124900D03*
X0222000Y0125000D03*
X0222000Y0125100D03*
X0222000Y0125200D03*
D14*
X0224150Y0130100D03*
X0224150Y0146000D03*
D15*
X0224550Y0146100D03*
X0224650Y0143000D03*
X0224250Y0133600D03*
X0224250Y0130200D03*
D16*
X0224300Y0130300D03*
X0224300Y0133500D03*
X0224600Y0139700D03*
X0224600Y0142900D03*
X0224600Y0150700D03*
X0224600Y0153900D03*
D17*
X0224550Y0153800D03*
X0224550Y0150800D03*
X0224550Y0139800D03*
X0224350Y0133400D03*
X0224350Y0130400D03*
D18*
X0224400Y0130500D03*
X0224400Y0130600D03*
X0224400Y0130700D03*
X0224400Y0133100D03*
X0224400Y0133200D03*
X0224400Y0133300D03*
X0224500Y0139900D03*
X0224500Y0140000D03*
X0224500Y0142700D03*
X0224500Y0142800D03*
X0224400Y0144000D03*
X0224400Y0149400D03*
X0224500Y0150900D03*
X0224500Y0153700D03*
X0224400Y0164200D03*
X0224400Y0171200D03*
X0224400Y0174400D03*
X0224400Y0176800D03*
X0224400Y0183600D03*
D19*
X0224300Y0175600D03*
X0222100Y0135200D03*
X0226800Y0135000D03*
X0226800Y0132500D03*
X0226800Y0132400D03*
X0226800Y0132300D03*
X0226800Y0132200D03*
X0226800Y0132100D03*
X0226800Y0132000D03*
X0226800Y0131900D03*
X0226800Y0131800D03*
X0226800Y0131700D03*
X0226800Y0131600D03*
X0226800Y0131500D03*
X0226800Y0131400D03*
X0226800Y0131300D03*
D20*
X0224100Y0133700D03*
X0224500Y0137300D03*
X0224700Y0139600D03*
D21*
X0221500Y0138800D03*
X0227400Y0134400D03*
D22*
X0227300Y0134500D03*
X0221600Y0138700D03*
D23*
X0221550Y0134600D03*
X0227350Y0138800D03*
D24*
X0227200Y0134600D03*
X0221700Y0138600D03*
D25*
X0221650Y0134700D03*
X0227250Y0138700D03*
D26*
X0227100Y0134700D03*
X0221800Y0138500D03*
D27*
X0221750Y0134800D03*
X0227150Y0138600D03*
D28*
X0227000Y0134800D03*
D29*
X0227050Y0138500D03*
X0221850Y0138400D03*
X0221850Y0134900D03*
D30*
X0221950Y0135000D03*
X0221950Y0138300D03*
X0221950Y0140800D03*
X0221950Y0140900D03*
X0221950Y0141000D03*
X0221950Y0141100D03*
X0221950Y0141200D03*
X0221950Y0141300D03*
X0221950Y0141400D03*
X0221950Y0141500D03*
X0221950Y0141600D03*
X0221950Y0141700D03*
X0221950Y0141800D03*
X0226950Y0138400D03*
X0221950Y0151800D03*
X0221950Y0151900D03*
X0221950Y0152000D03*
X0221950Y0152100D03*
X0221950Y0152200D03*
X0221950Y0152300D03*
X0221950Y0152400D03*
X0221950Y0152500D03*
X0221950Y0152600D03*
X0221950Y0152700D03*
X0221950Y0152800D03*
X0224650Y0186200D03*
X0224650Y0186300D03*
X0224650Y0186400D03*
X0224650Y0186500D03*
X0224650Y0186600D03*
X0224650Y0186700D03*
X0224650Y0186800D03*
X0224650Y0186900D03*
X0224650Y0187000D03*
X0224650Y0187100D03*
D31*
X0226150Y0155100D03*
X0226750Y0138200D03*
X0226750Y0135100D03*
X0222150Y0138100D03*
D32*
X0222250Y0138000D03*
X0226650Y0138100D03*
X0226650Y0135200D03*
D33*
X0222200Y0135300D03*
X0222700Y0184900D03*
D34*
X0222550Y0185100D03*
X0222550Y0158400D03*
X0226550Y0138000D03*
X0226550Y0135300D03*
D35*
X0222300Y0135400D03*
X0222300Y0137900D03*
X0222200Y0145200D03*
X0222200Y0148100D03*
X0226200Y0155200D03*
X0222600Y0158500D03*
X0222600Y0185000D03*
D36*
X0222450Y0185300D03*
X0222450Y0185400D03*
X0222450Y0158100D03*
X0222450Y0158000D03*
X0222450Y0157900D03*
X0222450Y0157800D03*
X0222450Y0157700D03*
X0222450Y0157600D03*
X0222450Y0157500D03*
X0226350Y0155600D03*
X0226350Y0155500D03*
X0222350Y0148000D03*
X0226450Y0137900D03*
X0226450Y0135400D03*
D37*
X0222400Y0135500D03*
X0222400Y0137800D03*
X0226300Y0155300D03*
X0226300Y0155400D03*
X0222500Y0158200D03*
X0222500Y0158300D03*
X0222500Y0185200D03*
D38*
X0225650Y0158600D03*
X0226350Y0137800D03*
X0226350Y0135500D03*
D39*
X0222500Y0135600D03*
X0222500Y0137700D03*
X0222400Y0145300D03*
X0226400Y0155700D03*
X0226400Y0155800D03*
X0226400Y0155900D03*
X0226400Y0156000D03*
X0226400Y0156100D03*
X0226400Y0156200D03*
X0222900Y0183900D03*
X0222400Y0185500D03*
X0222400Y0185600D03*
X0222400Y0185700D03*
X0222400Y0185800D03*
X0222400Y0185900D03*
X0222400Y0186000D03*
D40*
X0222550Y0147900D03*
X0222650Y0137500D03*
X0222850Y0137400D03*
X0225750Y0135900D03*
X0225950Y0135800D03*
X0226250Y0135600D03*
X0226250Y0137700D03*
D41*
X0222600Y0137600D03*
X0222600Y0135700D03*
X0225800Y0183900D03*
D42*
X0223200Y0155100D03*
X0222700Y0135800D03*
X0226100Y0135700D03*
D43*
X0224200Y0136600D03*
X0222800Y0135900D03*
X0222900Y0165400D03*
X0223100Y0165500D03*
X0223300Y0165600D03*
X0223500Y0165700D03*
X0223700Y0165800D03*
X0223900Y0165900D03*
X0224100Y0166000D03*
X0224800Y0166300D03*
X0225000Y0166400D03*
X0225200Y0166500D03*
X0225400Y0166600D03*
X0225600Y0166700D03*
X0225800Y0166800D03*
X0225800Y0183800D03*
D44*
X0224200Y0136000D03*
D45*
X0224200Y0136100D03*
X0225100Y0146300D03*
D46*
X0225300Y0146400D03*
X0223600Y0147400D03*
X0224200Y0136200D03*
D47*
X0224200Y0136300D03*
X0225000Y0147100D03*
D48*
X0223200Y0155700D03*
X0223200Y0155800D03*
X0223200Y0155900D03*
X0223200Y0156000D03*
X0223200Y0156100D03*
X0223200Y0156200D03*
X0225600Y0158100D03*
X0223200Y0160100D03*
X0223200Y0160200D03*
X0223200Y0162600D03*
X0223200Y0162700D03*
X0223200Y0162800D03*
X0223300Y0188100D03*
X0224400Y0136900D03*
X0224200Y0136400D03*
D49*
X0224200Y0136500D03*
X0224400Y0136800D03*
X0222900Y0145500D03*
X0223200Y0155300D03*
X0225600Y0158400D03*
X0223000Y0163100D03*
X0225900Y0185000D03*
D50*
X0222850Y0183700D03*
X0225950Y0166900D03*
X0224550Y0166200D03*
X0224350Y0166100D03*
X0222750Y0165300D03*
X0225650Y0158500D03*
X0222750Y0147800D03*
X0226050Y0146700D03*
X0226050Y0137500D03*
X0224350Y0136700D03*
D51*
X0224450Y0137000D03*
X0224550Y0147200D03*
X0223350Y0147500D03*
D52*
X0224450Y0137100D03*
D53*
X0224450Y0137200D03*
D54*
X0225900Y0137400D03*
X0226000Y0146800D03*
X0223200Y0155200D03*
X0223300Y0188300D03*
D55*
X0222850Y0183800D03*
X0222650Y0145400D03*
X0226150Y0137600D03*
D56*
X0224400Y0144100D03*
X0224400Y0144200D03*
X0224400Y0144300D03*
X0224400Y0144400D03*
X0224400Y0144500D03*
X0224400Y0144600D03*
X0224400Y0144700D03*
X0224400Y0144800D03*
X0224400Y0144900D03*
X0224400Y0145000D03*
X0224400Y0145100D03*
X0224400Y0148200D03*
X0224400Y0148300D03*
X0224400Y0148400D03*
X0224400Y0148500D03*
X0224400Y0148600D03*
X0224400Y0148700D03*
X0224400Y0148800D03*
X0224400Y0148900D03*
X0224400Y0149000D03*
X0224400Y0149100D03*
X0224400Y0149200D03*
X0224400Y0149300D03*
D57*
X0223150Y0147600D03*
X0223150Y0145600D03*
X0225650Y0157500D03*
X0225650Y0157600D03*
X0225650Y0157700D03*
X0225650Y0157800D03*
X0225650Y0157900D03*
X0225650Y0158000D03*
X0223250Y0160300D03*
X0223250Y0160400D03*
X0223250Y0160500D03*
X0223250Y0160600D03*
X0223250Y0160700D03*
X0223250Y0160800D03*
X0223250Y0162000D03*
X0223250Y0162100D03*
X0223250Y0162200D03*
X0223250Y0162300D03*
X0223250Y0162400D03*
X0223250Y0162500D03*
X0223250Y0188000D03*
D58*
X0224100Y0147300D03*
X0223400Y0145700D03*
D59*
X0223650Y0145800D03*
D60*
X0223850Y0145900D03*
D61*
X0224850Y0146200D03*
D62*
X0225550Y0146500D03*
X0225450Y0147000D03*
X0223250Y0187300D03*
X0223250Y0187400D03*
X0223250Y0187500D03*
X0223250Y0187600D03*
X0223250Y0187700D03*
D63*
X0223300Y0188200D03*
X0225800Y0186000D03*
X0225800Y0185900D03*
X0225800Y0185800D03*
X0225800Y0185700D03*
X0225800Y0185600D03*
X0225800Y0185500D03*
X0225800Y0185400D03*
X0225800Y0185300D03*
X0225800Y0185200D03*
X0223100Y0163000D03*
X0223100Y0159900D03*
X0225800Y0146600D03*
D64*
X0225750Y0146900D03*
X0223150Y0155500D03*
X0223150Y0155600D03*
X0225650Y0158200D03*
X0223150Y0160000D03*
X0223150Y0162900D03*
D65*
X0223050Y0159800D03*
X0225650Y0158300D03*
X0223150Y0155400D03*
X0222950Y0147700D03*
X0225850Y0185100D03*
D66*
X0224700Y0154000D03*
X0224700Y0150600D03*
D67*
X0225600Y0160900D03*
X0225600Y0161000D03*
X0225600Y0161100D03*
X0225600Y0161200D03*
X0225600Y0161300D03*
X0225600Y0161400D03*
X0225600Y0161500D03*
X0225600Y0161600D03*
X0225600Y0161700D03*
X0225600Y0161800D03*
X0225600Y0161900D03*
X0223300Y0187800D03*
X0223300Y0187900D03*
D68*
X0225950Y0184900D03*
X0225850Y0183700D03*
D69*
X0191900Y0131800D03*
X0181900Y0131800D03*
D70*
X0205463Y0156800D03*
X0213337Y0156800D03*
X0153337Y0176800D03*
X0145463Y0176800D03*
X0133337Y0159300D03*
X0125463Y0159300D03*
X0113337Y0159300D03*
X0105463Y0159300D03*
D71*
X0106054Y0149300D03*
X0112746Y0149300D03*
X0146054Y0149300D03*
X0152746Y0149300D03*
X0166054Y0131800D03*
X0172746Y0131800D03*
X0206054Y0141800D03*
X0212746Y0141800D03*
X0199400Y0185954D03*
X0199400Y0192646D03*
X0169400Y0192646D03*
X0169400Y0185954D03*
X0112746Y0189300D03*
X0106054Y0189300D03*
X0080837Y0097745D03*
X0074144Y0097745D03*
X0074009Y0088355D03*
X0080702Y0088355D03*
D72*
X0079400Y0106288D03*
X0079400Y0117312D03*
X0121900Y0113788D03*
X0121900Y0124812D03*
D73*
X0145955Y0139300D03*
X0152845Y0139300D03*
X0132845Y0149300D03*
X0125955Y0149300D03*
X0145955Y0159300D03*
X0152845Y0159300D03*
X0152845Y0169300D03*
X0145955Y0169300D03*
X0146055Y0185400D03*
X0146155Y0191600D03*
X0153045Y0191600D03*
X0152945Y0185400D03*
X0112845Y0179300D03*
X0105955Y0179300D03*
X0105955Y0169300D03*
X0112845Y0169300D03*
X0185955Y0141800D03*
X0192845Y0141800D03*
X0205955Y0149300D03*
X0212845Y0149300D03*
X0212845Y0164300D03*
X0205955Y0164300D03*
X0205955Y0171800D03*
X0212845Y0171800D03*
X0109161Y0088234D03*
X0102271Y0088234D03*
D74*
X0038430Y0161806D03*
D75*
X0058115Y0152357D03*
X0058115Y0141728D03*
X0058115Y0171255D03*
X0058115Y0181885D03*
D76*
X0038430Y0181491D03*
X0028587Y0181491D03*
X0058115Y0161806D03*
X0038430Y0142121D03*
X0028587Y0142121D03*
D77*
X0085463Y0151839D03*
X0093329Y0151850D03*
X0125471Y0181750D03*
X0133337Y0181761D03*
X0093329Y0189350D03*
X0085463Y0189339D03*
D78*
X0089400Y0187017D03*
X0089400Y0191662D03*
X0129400Y0184083D03*
X0129400Y0179438D03*
X0089400Y0154162D03*
X0089400Y0149517D03*
D79*
X0199400Y0142253D03*
X0199400Y0136347D03*
D80*
X0096900Y0139300D03*
X0086900Y0139300D03*
D81*
X0129400Y0189800D03*
X0129400Y0193800D03*
D82*
X0095306Y0176800D03*
X0083494Y0176800D03*
X0083494Y0164300D03*
X0095306Y0164300D03*
D83*
X0175910Y0155810D02*
X0187890Y0155810D01*
X0175910Y0155810D02*
X0175910Y0167790D01*
X0187890Y0167790D01*
X0187890Y0155810D01*
X0187890Y0156440D02*
X0175910Y0156440D01*
X0175910Y0157070D02*
X0187890Y0157070D01*
X0187890Y0157700D02*
X0175910Y0157700D01*
X0175910Y0158330D02*
X0187890Y0158330D01*
X0187890Y0158960D02*
X0175910Y0158960D01*
X0175910Y0159590D02*
X0187890Y0159590D01*
X0187890Y0160220D02*
X0175910Y0160220D01*
X0175910Y0160850D02*
X0187890Y0160850D01*
X0187890Y0161480D02*
X0175910Y0161480D01*
X0175910Y0162110D02*
X0187890Y0162110D01*
X0187890Y0162740D02*
X0175910Y0162740D01*
X0175910Y0163370D02*
X0187890Y0163370D01*
X0187890Y0164000D02*
X0175910Y0164000D01*
X0175910Y0164630D02*
X0187890Y0164630D01*
X0187890Y0165260D02*
X0175910Y0165260D01*
X0175910Y0165890D02*
X0187890Y0165890D01*
X0187890Y0166520D02*
X0175910Y0166520D01*
X0175910Y0167150D02*
X0187890Y0167150D01*
X0187890Y0167780D02*
X0175910Y0167780D01*
D84*
X0176388Y0173267D03*
X0174813Y0173267D03*
X0173239Y0173267D03*
X0177963Y0173267D03*
X0179538Y0173267D03*
X0181113Y0173267D03*
X0182687Y0173267D03*
X0184262Y0173267D03*
X0185837Y0173267D03*
X0187412Y0173267D03*
X0188987Y0173267D03*
X0190561Y0173267D03*
X0190561Y0150333D03*
X0188987Y0150333D03*
X0187412Y0150333D03*
X0185837Y0150333D03*
X0184262Y0150333D03*
X0182687Y0150333D03*
X0181113Y0150333D03*
X0179538Y0150333D03*
X0177963Y0150333D03*
X0176388Y0150333D03*
X0174813Y0150333D03*
X0173239Y0150333D03*
D85*
X0170433Y0153139D03*
X0170433Y0154713D03*
X0170433Y0156288D03*
X0170433Y0157863D03*
X0170433Y0159438D03*
X0170433Y0161013D03*
X0170433Y0162587D03*
X0170433Y0164162D03*
X0170433Y0165737D03*
X0170433Y0167312D03*
X0170433Y0168887D03*
X0170433Y0170461D03*
X0193367Y0170461D03*
X0193367Y0168887D03*
X0193367Y0167312D03*
X0193367Y0165737D03*
X0193367Y0164162D03*
X0193367Y0162587D03*
X0193367Y0161013D03*
X0193367Y0159438D03*
X0193367Y0157863D03*
X0193367Y0156288D03*
X0193367Y0154713D03*
X0193367Y0153139D03*
D86*
X0191683Y0189300D03*
X0177117Y0189300D03*
D87*
X0081900Y0201800D03*
X0071900Y0201800D03*
X0061900Y0201800D03*
D88*
X0137215Y0117233D03*
X0142215Y0117233D03*
X0147215Y0117233D03*
X0152215Y0117233D03*
X0157215Y0117233D03*
X0162215Y0117233D03*
X0167215Y0117233D03*
X0172215Y0117233D03*
X0177215Y0117233D03*
X0182215Y0117233D03*
X0187215Y0117233D03*
X0192215Y0117233D03*
X0197215Y0117233D03*
X0202215Y0117233D03*
X0202215Y0046367D03*
X0197215Y0046367D03*
X0192215Y0046367D03*
X0187215Y0046367D03*
X0182215Y0046367D03*
X0177215Y0046367D03*
X0172215Y0046367D03*
X0167215Y0046367D03*
X0162215Y0046367D03*
X0157215Y0046367D03*
X0152215Y0046367D03*
X0147215Y0046367D03*
X0142215Y0046367D03*
X0137215Y0046367D03*
D89*
X0131349Y0059300D03*
X0131349Y0064300D03*
X0131349Y0069300D03*
X0131349Y0074300D03*
X0131349Y0079300D03*
X0131349Y0084300D03*
X0131349Y0089300D03*
X0131349Y0094300D03*
X0131349Y0099300D03*
X0131349Y0104300D03*
D90*
X0171900Y0081800D03*
D91*
X0108657Y0099167D03*
X0099557Y0099167D03*
X0090457Y0099167D03*
D92*
X0099557Y0123568D03*
D93*
X0067884Y0120540D02*
X0067884Y0128414D01*
X0043081Y0128414D02*
X0043081Y0120540D01*
X0052136Y0104792D02*
X0060010Y0104792D01*
D94*
X0051900Y0091800D03*
X0051900Y0081800D03*
X0051900Y0071800D03*
X0051900Y0061800D03*
X0051900Y0051800D03*
X0051900Y0041800D03*
X0051900Y0026800D03*
X0061900Y0026800D03*
X0071900Y0026800D03*
X0081900Y0026800D03*
X0091900Y0026800D03*
X0101900Y0026800D03*
X0111900Y0026800D03*
X0121900Y0026800D03*
X0131900Y0026800D03*
X0141900Y0026800D03*
X0151900Y0026800D03*
X0161900Y0026800D03*
X0171900Y0026800D03*
X0181900Y0026800D03*
X0191900Y0026800D03*
X0201900Y0026800D03*
X0119400Y0049300D03*
X0119400Y0059300D03*
X0119400Y0069300D03*
X0119400Y0079300D03*
X0119400Y0089300D03*
X0119400Y0099300D03*
D95*
X0110500Y0078400D03*
X0092500Y0078400D03*
X0080300Y0078500D03*
X0062300Y0078500D03*
X0062300Y0052500D03*
X0080300Y0052500D03*
X0092500Y0052400D03*
X0110500Y0052400D03*
M02*
